<svg version="1.1" xmlns="http://www.w3.org/2000/svg" xmlns:xlink="http://www.w3.org/1999/xlink" width="803" height="279"><defs><clipPath id="hqqTahhCVftN"><path fill="none" stroke="none" d=" M 0 0 L 803 0 L 803 279 L 0 279 L 0 0 Z"/></clipPath></defs><g transform="scale(1,1)" clip-path="url(#hqqTahhCVftN)"><g><rect fill="rgb(255,255,255,0)" stroke="none" x="0" y="0" width="803" height="279" fill-opacity="1"/><path fill="none" stroke="rgb(101,87,210)" paint-order="fill stroke markers" d=" M 36.12886550796628 237.20974725067876 L 38.444765879004564 235.3411729231213 L 40.760666250042846 233.48272290105726 L 43.07656662108113 231.63449794056135 L 45.39246699211938 229.79659824335548 L 47.70836736315769 227.9691234513762 L 50.02426773419597 226.1521726413727 L 52.34016810523423 224.3458443195353 L 54.65606847627254 222.55023641615497 L 56.97196884731082 220.76544628031397 L 59.28786921834907 218.99157067460808 L 61.60376958938738 217.2287057699007 L 63.919669960425665 215.4769471401087 L 66.23557033146395 213.7363897570212 L 68.55147070250223 212.00712798515028 L 70.86737107354048 210.2892555766154 L 73.18327144457879 208.58286566606026 L 75.49917181561705 206.8880507656038 L 77.81507218665533 205.20490275982434 L 80.13097255769364 203.53351290077828 L 82.44687292873189 201.8739718030529 L 84.76277329977017 200.2263694388534 L 87.07867367080848 198.59079513312528 L 89.39457404184674 196.96733755871153 L 91.71047441288502 195.35608473154514 L 94.02637478392333 193.75712400587744 L 96.34227515496161 192.17054206954208 L 98.65817552599987 190.59642493925526 L 100.97407589703818 189.03485795595233 L 103.28997626807643 187.4859257801611 L 105.60587663911474 185.94971238741175 L 107.92177701015305 184.42630106368435 L 110.2376773811913 182.91577440089327 L 112.55357775222956 181.41821429240966 L 114.86947812326781 179.93370192862136 L 117.18537849430612 178.46231779253137 L 119.50127886534437 177.00414165539442 L 121.81717923638269 175.55925257239193 L 124.133079607421 174.12772887834632 L 126.44897997845925 172.70964818347397 L 128.76488034949756 171.30508736917756 L 131.0807807205358 169.91412258387783 L 133.39668109157407 168.5368292388855 L 135.71258146261238 167.17328200431237 L 138.0284818336507 165.8235548050236 L 140.34438220468894 164.4877208166294 L 142.66028257572725 163.16585246151817 L 144.9761829467655 161.85802140492973 L 147.29208331780382 160.56429855107046 L 149.60798368884207 159.28475403926882 L 151.92388405988032 158.01945724017276 L 154.23978443091863 156.76847675198917 L 156.5556848019569 155.53188039676428 L 158.87158517299525 154.30973521670717 L 161.1874855440335 153.10210747055476 L 163.50338591507176 151.90906262997964 L 165.81928628611007 150.73066537604058 L 168.13518665714832 149.56697959567583 L 170.45108702818658 148.41806837823952 L 172.76698739922494 147.28399401208094 L 175.0828877702632 146.16481798116826 L 177.39878814130145 145.06060096175446 L 179.71468851233976 143.97140281908798 L 182.03058888337802 142.89728260416751 L 184.34648925441627 141.8382985505399 L 186.66238962545458 140.7945080711434 L 188.97828999649283 139.7659677551951 L 191.29419036753114 138.7527333651226 L 193.6100907385694 137.7548598335411 L 195.92599110960765 136.77240126027522 L 198.24189148064596 135.8054109094257 L 200.55779185168427 134.8539412064821 L 202.87369222272253 133.91804373548018 L 205.18959259376084 132.99776923620544 L 207.5054929647991 132.09316760144236 L 209.82139333583734 131.20428787426914 L 212.1372937068757 130.3311782453991 L 214.45319407791396 129.4738860505679 L 216.76909444895222 128.63245776796737 L 219.08499481999053 127.80693901572528 L 221.40089519102878 126.99737454943283 L 223.71679556206703 126.20380825971756 L 226.0326959331054 125.42628316986412 L 228.34859630414365 124.6648414334818 L 230.6644966751819 123.91952433221911 L 232.98039704622022 123.19037227352555 L 235.29629741725847 122.47742478846112 L 237.61219778829673 121.78072052955315 L 239.9280981593351 121.10029726870039 L 242.24399853037335 120.43619189512577 L 244.5598989014116 119.78844041337595 L 246.8757992724499 119.15707794136961 L 249.19169964348816 118.54213870849333 L 251.50760001452647 117.94365605374622 L 253.82350038556478 117.36166242393188 L 256.139400756603 116.79618937189969 L 258.4553011276413 116.24726755483414 L 260.7712014986796 115.71492673259252 L 263.0871018697178 115.19919576609192 L 265.40300224075617 114.7001026157439 L 267.7189026117944 114.21767433993921 L 270.0348029828327 113.75193709358052 L 272.350703353871 113.3029161266644 L 274.66660372490924 112.87063578291259 L 276.9825040959475 112.455119498452 L 279.29840446698586 112.0563898005442 L 281.6143048380241 111.67446830636413 L 283.93020520906236 111.30937572182819 L 286.2461055801007 110.96113184047135 L 288.56200595113893 110.62975554237443 L 290.87790632217724 110.31526479314033 L 293.19380669321555 110.01767664291998 L 295.5097070642538 109.73700722548807 L 297.82560743529206 109.47327175736825 L 300.14150780633037 109.22648453700839 L 302.4574081773687 108.99665894400493 L 304.77330854840693 108.78380743837812 L 307.08920891944524 108.58794155989585 L 309.4051092904835 108.40907192744868 L 311.72100966152175 108.2472082384736 L 314.0369100325601 108.10235926842847 L 316.35281040359837 107.9745328703163 L 318.6687107746366 107.86373597425955 L 320.98461114567493 107.7699745871243 L 323.3005115167132 107.69325379219447 L 325.61641188775144 107.63357774889658 L 327.9323122587898 107.59094969257393 L 330.248212629828 107.56537193431126 L 332.5641130008663 107.55684586080974 L 334.8800133719046 107.56537193431126 L 337.1959137429428 107.59094969257387 L 339.51181411398113 107.63357774889658 L 341.82771448501944 107.69325379219447 L 344.1436148560577 107.7699745871243 L 346.459515227096 107.86373597425955 L 348.77541559813426 107.9745328703163 L 351.0913159691725 108.10235926842847 L 353.4072163402108 108.2472082384736 L 355.72311671124913 108.40907192744868 L 358.03901708228733 108.58794155989585 L 360.35491745332575 108.78380743837812 L 362.67081782436395 108.99665894400493 L 364.98671819540226 109.22648453700839 L 367.3026185664406 109.47327175736825 L 369.61851893747877 109.73700722548807 L 371.9344193085171 110.01767664291998 L 374.2503196795554 110.31526479314033 L 376.5662200505937 110.62975554237443 L 378.8821204216319 110.96113184047135 L 381.1980207926702 111.30937572182819 L 383.5139211637085 111.67446830636413 L 385.8298215347467 112.0563898005442 L 388.14572190578514 112.455119498452 L 390.46162227682333 112.87063578291259 L 392.77752264786164 113.3029161266644 L 395.09342301889984 113.75193709358047 L 397.40932338993815 114.21767433993921 L 399.72522376097646 114.7001026157439 L 402.0411241320148 115.19919576609186 L 404.3570245030531 115.71492673259252 L 406.6729248740913 116.24726755483408 L 408.9888252451296 116.79618937189969 L 411.3047256161679 117.36166242393188 L 413.6206259872062 117.94365605374622 L 415.9365263582444 118.54213870849333 L 418.2524267292827 119.15707794136961 L 420.568327100321 119.7884404133759 L 422.8842274713592 120.43619189512572 L 425.20012784239754 121.10029726870039 L 427.51602821343585 121.78072052955315 L 429.83192858447416 122.47742478846112 L 432.14782895551235 123.19037227352555 L 434.46372932655066 123.91952433221911 L 436.779629697589 124.6648414334818 L 439.09553006862717 125.42628316986412 L 441.4114304396656 126.20380825971756 L 443.7273308107038 126.99737454943283 L 446.0432311817421 127.80693901572528 L 448.3591315527804 128.63245776796737 L 450.6750319238186 129.4738860505679 L 452.9909322948569 130.3311782453991 L 455.30683266589523 131.20428787426914 L 457.62273303693354 132.09316760144236 L 459.93863340797174 132.99776923620544 L 462.25453377901005 133.91804373548018 L 464.57043415004836 134.85394120648203 L 466.88633452108667 135.80541090942563 L 469.20223489212486 136.7724012602751 L 471.5181352631633 137.7548598335411 L 473.8340356342015 138.75273336512254 L 476.1499360052397 139.765967755195 L 478.4658363762781 140.7945080711434 L 480.7817367473163 141.83829855053983 L 483.0976371183545 142.8972826041674 L 485.4135374893929 143.97140281908804 L 487.7294378604311 145.06060096175446 L 490.0453382314693 146.16481798116826 L 492.36123860250785 147.28399401208105 L 494.67713897354605 148.41806837823947 L 496.99303934458425 149.56697959567578 L 499.30893971562256 150.73066537604052 L 501.62484008666087 151.90906262997964 L 503.94074045769906 153.1021074705547 L 506.2566408287374 154.30973521670717 L 508.5725411997757 155.53188039676428 L 510.8884415708139 156.76847675198906 L 513.2043419418521 158.01945724017276 L 515.5202423128906 159.28475403926876 L 517.8361426839288 160.56429855107046 L 520.1520430549672 161.85802140492973 L 522.4679434260054 163.16585246151817 L 524.7838437970436 164.48772081662935 L 527.099744168082 165.82355480502355 L 529.4156445391202 167.17328200431237 L 531.7315449101584 168.53682923888542 L 534.0474452811968 169.9141225838778 L 536.363345652235 171.30508736917756 L 538.6792460232732 172.70964818347392 L 540.9951463943116 174.1277288783463 L 543.31104676535 175.55925257239193 L 545.6269471363883 177.00414165539436 L 547.9428475074264 178.46231779253137 L 550.2587478784649 179.93370192862136 L 552.5746482495031 181.41821429240957 L 554.8905486205413 182.91577440089327 L 557.2064489915797 184.42630106368435 L 559.5223493626179 185.9497123874117 L 561.8382497336561 187.4859257801611 L 564.1541501046945 189.03485795595236 L 566.4700504757327 190.59642493925523 L 568.7859508467711 192.17054206954205 L 571.1018512178093 193.75712400587747 L 573.4177515888475 195.3560847315451 L 575.733651959886 196.9673375587115 L 578.0495523309241 198.5907951331253 L 580.3654527019623 200.22636943885337 L 582.6813530730008 201.87397180305288 L 584.997253444039 203.53351290077833 L 587.3131538150772 205.20490275982425 L 589.6290541861156 206.88805076560377 L 591.944954557154 208.58286566606026 L 594.2608549281922 210.28925557661532 L 596.5767552992304 212.00712798515028 L 598.8926556702688 213.73638975702121 L 601.208556041307 215.47694714010868 L 603.5244564123452 217.2287057699007 L 605.8403567833836 218.99157067460814 L 608.1562571544218 220.76544628031394 L 610.47215752546 222.55023641615497 L 612.7880578964985 224.34584431953533 L 615.1039582675367 226.15217264137266 L 617.4198586385749 227.9691234513761 L 619.7357590096133 229.7965982433555 L 622.0516593806515 231.63449794056132 L 624.3675597516897 233.48272290105714 L 626.6834601227281 235.34117292312135 L 628.9993604937663 237.20974725067873" stroke-opacity="0.8" stroke-linecap="round" stroke-linejoin="round" stroke-miterlimit="10" stroke-width="2.5"/><path fill="rgb(46,125,50)" stroke="none" paint-order="stroke fill markers" d=" M 148.44025335033547 42.41605400975118 L 138.1805859160534 56.62174738029566 L 140.96601598870916 57.73591940935797 L 84.37414422650971 199.21559881485692 C 84.11775246803508 199.85657821104354 84.42952234848705 200.58404126543147 85.07050174467366 200.84043302390612 C 85.22273019839426 200.90132440539435 85.37983660481032 200.9301696679313 85.53435229895506 200.9301696679313 C 86.03044674971814 200.9301696679313 86.49983557673646 200.6328264482082 86.69533595372286 200.14407550574217 L 143.2872077159223 58.66439610024322 L 146.07263778857808 59.778568129305526 L 148.44025335033547 42.41605400975118 Z" fill-opacity="0.6980392156862745"/><text fill="rgb(46,125,50)" stroke="none" font-family="geogebra-sans-serif, sans-serif" font-size="16px" font-style="normal" font-weight="normal" text-decoration="normal" x="159" y="53" text-anchor="start" dominant-baseline="alphabetic" fill-opacity="1">v(x)</text><text fill="none" stroke="rgb(255,255,255)" font-family="geogebra-sans-serif, sans-serif" font-size="16px" font-style="normal" font-weight="normal" text-decoration="normal" x="159" y="53" text-anchor="start" dominant-baseline="alphabetic" stroke-opacity="1" stroke-linejoin="bevel" stroke-miterlimit="10" stroke-width="3">v(x)</text><text fill="rgb(46,125,50)" stroke="none" font-family="geogebra-sans-serif, sans-serif" font-size="16px" font-style="normal" font-weight="normal" text-decoration="normal" x="159" y="53" text-anchor="start" dominant-baseline="alphabetic" fill-opacity="1">v(x)</text><path fill="rgb(46,125,50)" stroke="none" paint-order="stroke fill markers" d=" M 736.8572690621643 136.77432390008016 L 719.4947549426099 139.1419394618376 L 720.6089269716723 141.9273695344934 L 720.6089269716722 141.9273695344934 L 579.1292475661738 198.51924129669297 C 578.4882681699872 198.7756330551676 578.1764982895353 199.5030961095555 578.4328900480099 200.14407550574214 C 578.6283904249963 200.63282644820816 579.0977792520147 200.9301696679313 579.5938737027777 200.9301696679313 C 579.7483893969224 200.9301696679313 579.9054958033385 200.90132440539435 580.057724257059 200.84043302390612 L 721.5374036625575 144.24856126170653 L 722.6515756916199 147.0339913343623 L 736.8572690621643 136.77432390008016 Z" fill-opacity="0.6980392156862745"/><text fill="rgb(46,125,50)" stroke="none" font-family="geogebra-sans-serif, sans-serif" font-size="16px" font-style="normal" font-weight="normal" text-decoration="normal" x="708" y="127" text-anchor="start" dominant-baseline="alphabetic" fill-opacity="1">v(x + dx)</text><text fill="none" stroke="rgb(255,255,255)" font-family="geogebra-sans-serif, sans-serif" font-size="16px" font-style="normal" font-weight="normal" text-decoration="normal" x="708" y="127" text-anchor="start" dominant-baseline="alphabetic" stroke-opacity="1" stroke-linejoin="bevel" stroke-miterlimit="10" stroke-width="3">v(x + dx)</text><text fill="rgb(46,125,50)" stroke="none" font-family="geogebra-sans-serif, sans-serif" font-size="16px" font-style="normal" font-weight="normal" text-decoration="normal" x="708" y="127" text-anchor="start" dominant-baseline="alphabetic" fill-opacity="1">v(x + dx)</text><path fill="rgb(211,47,47)" stroke="none" paint-order="stroke fill markers" d=" M 472.82789615141434 103.30684586080974 L 472.82789615141434 106.30684586080974 L 332.5641130008663 106.30684586080974 C 331.87375706357784 106.30684586080974 331.3141130008663 106.86648992352126 331.3141130008663 107.55684586080974 C 331.3141130008663 108.24720179809823 331.87375706357784 108.80684586080974 332.5641130008663 108.80684586080974 L 472.82789615141434 108.80684586080974 L 472.82789615141434 111.80684586080974 L 489.82789615141434 107.55684586080974 L 472.82789615141434 103.30684586080974 Z" fill-opacity="0.6980392156862745"/><text fill="rgb(211,47,47)" stroke="none" font-family="geogebra-sans-serif, sans-serif" font-size="16px" font-style="normal" font-weight="normal" text-decoration="normal" x="485" y="96" text-anchor="start" dominant-baseline="alphabetic" fill-opacity="1">u</text><text fill="none" stroke="rgb(255,255,255)" font-family="geogebra-sans-serif, sans-serif" font-size="16px" font-style="normal" font-weight="normal" text-decoration="normal" x="485" y="96" text-anchor="start" dominant-baseline="alphabetic" stroke-opacity="1" stroke-linejoin="bevel" stroke-miterlimit="10" stroke-width="3">u</text><text fill="rgb(211,47,47)" stroke="none" font-family="geogebra-sans-serif, sans-serif" font-size="16px" font-style="normal" font-weight="normal" text-decoration="normal" x="485" y="96" text-anchor="start" dominant-baseline="alphabetic" fill-opacity="1">u</text><path fill="rgb(97,97,97)" stroke="none" paint-order="stroke fill markers" d=" M 90.53474009011629 199.67983716029954 C 90.53474009011629 202.44126090945352 88.29616383927025 204.67983716029954 85.53474009011629 204.67983716029954 C 82.77331634096232 204.67983716029954 80.53474009011629 202.44126090945352 80.53474009011629 199.67983716029954 C 80.53474009011629 196.91841341114556 82.77331634096232 194.67983716029954 85.53474009011629 194.67983716029954 C 88.29616383927025 194.67983716029954 90.53474009011629 196.91841341114556 90.53474009011629 199.67983716029954 Z" fill-opacity="1"/><path fill="none" stroke="rgb(0,0,0)" paint-order="fill stroke markers" d=" M 90.53474009011629 199.67983716029954 C 90.53474009011629 202.44126090945352 88.29616383927025 204.67983716029954 85.53474009011629 204.67983716029954 C 82.77331634096232 204.67983716029954 80.53474009011629 202.44126090945352 80.53474009011629 199.67983716029954 C 80.53474009011629 196.91841341114556 82.77331634096232 194.67983716029954 85.53474009011629 194.67983716029954 C 88.29616383927025 194.67983716029954 90.53474009011629 196.91841341114556 90.53474009011629 199.67983716029954 Z" stroke-opacity="1" stroke-linecap="round" stroke-linejoin="round" stroke-miterlimit="10"/><text fill="rgb(97,97,97)" stroke="none" font-family="geogebra-sans-serif, sans-serif" font-size="16px" font-style="normal" font-weight="normal" text-decoration="normal" x="98" y="220" text-anchor="start" dominant-baseline="alphabetic" fill-opacity="1">P</text><text fill="none" stroke="rgb(255,255,255)" font-family="geogebra-sans-serif, sans-serif" font-size="16px" font-style="normal" font-weight="normal" text-decoration="normal" x="98" y="220" text-anchor="start" dominant-baseline="alphabetic" stroke-opacity="1" stroke-linejoin="bevel" stroke-miterlimit="10" stroke-width="3">P</text><text fill="rgb(97,97,97)" stroke="none" font-family="geogebra-sans-serif, sans-serif" font-size="16px" font-style="normal" font-weight="normal" text-decoration="normal" x="98" y="220" text-anchor="start" dominant-baseline="alphabetic" fill-opacity="1">P</text><path fill="rgb(97,97,97)" stroke="none" paint-order="stroke fill markers" d=" M 584.5934859116164 199.67983716029954 C 584.5934859116164 202.44126090945352 582.3549096607704 204.67983716029954 579.5934859116164 204.67983716029954 C 576.8320621624624 204.67983716029954 574.5934859116164 202.44126090945352 574.5934859116164 199.67983716029954 C 574.5934859116164 196.91841341114556 576.8320621624624 194.67983716029954 579.5934859116164 194.67983716029954 C 582.3549096607704 194.67983716029954 584.5934859116164 196.91841341114556 584.5934859116164 199.67983716029954 Z" fill-opacity="1"/><path fill="none" stroke="rgb(0,0,0)" paint-order="fill stroke markers" d=" M 584.5934859116164 199.67983716029954 C 584.5934859116164 202.44126090945352 582.3549096607704 204.67983716029954 579.5934859116164 204.67983716029954 C 576.8320621624624 204.67983716029954 574.5934859116164 202.44126090945352 574.5934859116164 199.67983716029954 C 574.5934859116164 196.91841341114556 576.8320621624624 194.67983716029954 579.5934859116164 194.67983716029954 C 582.3549096607704 194.67983716029954 584.5934859116164 196.91841341114556 584.5934859116164 199.67983716029954 Z" stroke-opacity="1" stroke-linecap="round" stroke-linejoin="round" stroke-miterlimit="10"/><text fill="rgb(97,97,97)" stroke="none" font-family="geogebra-sans-serif, sans-serif" font-size="16px" font-style="normal" font-weight="normal" text-decoration="normal" x="566" y="222" text-anchor="start" dominant-baseline="alphabetic" fill-opacity="1">Q</text><text fill="none" stroke="rgb(255,255,255)" font-family="geogebra-sans-serif, sans-serif" font-size="16px" font-style="normal" font-weight="normal" text-decoration="normal" x="566" y="222" text-anchor="start" dominant-baseline="alphabetic" stroke-opacity="1" stroke-linejoin="bevel" stroke-miterlimit="10" stroke-width="3">Q</text><text fill="rgb(97,97,97)" stroke="none" font-family="geogebra-sans-serif, sans-serif" font-size="16px" font-style="normal" font-weight="normal" text-decoration="normal" x="566" y="222" text-anchor="start" dominant-baseline="alphabetic" fill-opacity="1">Q</text></g></g></svg>