<svg version="1.1" xmlns="http://www.w3.org/2000/svg" xmlns:xlink="http://www.w3.org/1999/xlink" width="322" height="325"><defs><clipPath id="TXGqoRpIhkDA"><path fill="none" stroke="none" d=" M 0 0 L 322 0 L 322 325 L 0 325 L 0 0 Z"/></clipPath></defs><g transform="scale(1,1)" clip-path="url(#TXGqoRpIhkDA)"><g><rect fill="rgb(255,255,255,0)" stroke="none" x="0" y="0" width="322" height="325" fill-opacity="1"/><path fill="rgb(0,0,0)" stroke="none" paint-order="stroke fill markers" d=" M 291.0440807249682 44.296045621689586 L 276.018061624754 53.311657081818026 L 278.13938196831367 55.432977425377686 L 30.831598517608 302.7407608760822 L 30.83159851760801 302.7407608760822 C 30.343443152918937 303.2289162407713 30.343443152918944 304.02037246435947 30.83159851760803 304.50852782904855 C 31.07567619995257 304.7526055113931 31.395579097021887 304.8746443525654 31.715481994091203 304.8746443525654 C 32.03538489116052 304.8746443525654 32.35528778822984 304.7526055113931 32.59936547057438 304.50852782904855 L 279.90714892128 57.20074437834405 L 282.02846926483966 59.3220647219037 L 291.0440807249682 44.296045621689586 Z" fill-opacity="0.6980392156862745"/><path fill="rgb(0,0,0)" stroke="none" paint-order="stroke fill markers" d=" M 304.01051066151206 56.01247555823339 C 303.69060776444275 56.01247555823339 303.37070486737343 56.13451439940566 303.1266271850289 56.37859208175019 L 217.89921794112132 141.60600132565733 L 215.7778975975617 139.4846809820977 L 206.7622861374332 154.51070008231179 L 206.76228613743322 154.51070008231179 L 221.78830523764734 145.49508862218335 L 219.6669848940877 143.37376827862371 L 304.8943941379952 58.14635903471656 C 305.3825495026843 57.65820367002748 305.3825495026843 56.8667474464393 304.8943941379952 56.37859208175021 C 304.6503164556507 56.13451439940567 304.33041355858137 56.01247555823339 304.01051066151206 56.01247555823339 Z" fill-opacity="0.6980392156862745"/><path fill="rgb(21,101,192)" stroke="none" paint-order="stroke fill markers" d=" M 296.0440807249682 44.296045621689586 C 296.0440807249682 47.05746937084355 293.80550447412213 49.296045621689586 291.0440807249682 49.296045621689586 C 288.28265697581423 49.296045621689586 286.0440807249682 47.05746937084355 286.0440807249682 44.296045621689586 C 286.0440807249682 41.53462187253562 288.28265697581423 39.296045621689586 291.0440807249682 39.296045621689586 C 293.80550447412213 39.296045621689586 296.0440807249682 41.53462187253562 296.0440807249682 44.296045621689586 Z" fill-opacity="1"/><path fill="none" stroke="rgb(0,0,0)" paint-order="fill stroke markers" d=" M 296.0440807249682 44.296045621689586 C 296.0440807249682 47.05746937084355 293.80550447412213 49.296045621689586 291.0440807249682 49.296045621689586 C 288.28265697581423 49.296045621689586 286.0440807249682 47.05746937084355 286.0440807249682 44.296045621689586 C 286.0440807249682 41.53462187253562 288.28265697581423 39.296045621689586 291.0440807249682 39.296045621689586 C 293.80550447412213 39.296045621689586 296.0440807249682 41.53462187253562 296.0440807249682 44.296045621689586 Z" stroke-opacity="1" stroke-linecap="round" stroke-linejoin="round" stroke-miterlimit="10"/><text fill="rgb(21,101,192)" stroke="none" font-family="geogebra-sans-serif, sans-serif" font-size="16px" font-style="normal" font-weight="normal" text-decoration="normal" x="284" y="28" text-anchor="start" dominant-baseline="alphabetic" fill-opacity="1">m</text><text fill="none" stroke="rgb(255,255,255)" font-family="geogebra-sans-serif, sans-serif" font-size="16px" font-style="normal" font-weight="normal" text-decoration="normal" x="284" y="28" text-anchor="start" dominant-baseline="alphabetic" stroke-opacity="1" stroke-linejoin="bevel" stroke-miterlimit="10" stroke-width="3">m</text><text fill="rgb(21,101,192)" stroke="none" font-family="geogebra-sans-serif, sans-serif" font-size="16px" font-style="normal" font-weight="normal" text-decoration="normal" x="284" y="28" text-anchor="start" dominant-baseline="alphabetic" fill-opacity="1">m</text><path fill="rgb(21,101,192)" stroke="none" paint-order="stroke fill markers" d=" M 36.71548199409119 303.6246443525654 C 36.71548199409119 306.38606810171933 34.476905743245155 308.6246443525654 31.715481994091192 308.6246443525654 C 28.954058244937226 308.6246443525654 26.715481994091192 306.38606810171933 26.715481994091192 303.6246443525654 C 26.715481994091192 300.86322060341143 28.954058244937226 298.6246443525654 31.715481994091192 298.6246443525654 C 34.476905743245155 298.6246443525654 36.71548199409119 300.86322060341143 36.71548199409119 303.6246443525654 Z" fill-opacity="1"/><path fill="none" stroke="rgb(0,0,0)" paint-order="fill stroke markers" d=" M 36.71548199409119 303.6246443525654 C 36.71548199409119 306.38606810171933 34.476905743245155 308.6246443525654 31.715481994091192 308.6246443525654 C 28.954058244937226 308.6246443525654 26.715481994091192 306.38606810171933 26.715481994091192 303.6246443525654 C 26.715481994091192 300.86322060341143 28.954058244937226 298.6246443525654 31.715481994091192 298.6246443525654 C 34.476905743245155 298.6246443525654 36.71548199409119 300.86322060341143 36.71548199409119 303.6246443525654 Z" stroke-opacity="1" stroke-linecap="round" stroke-linejoin="round" stroke-miterlimit="10"/><text fill="rgb(21,101,192)" stroke="none" font-family="geogebra-sans-serif, sans-serif" font-size="16px" font-style="normal" font-weight="normal" text-decoration="normal" x="26" y="290" text-anchor="start" dominant-baseline="alphabetic" fill-opacity="1">M</text><text fill="none" stroke="rgb(255,255,255)" font-family="geogebra-sans-serif, sans-serif" font-size="16px" font-style="normal" font-weight="normal" text-decoration="normal" x="26" y="290" text-anchor="start" dominant-baseline="alphabetic" stroke-opacity="1" stroke-linejoin="bevel" stroke-miterlimit="10" stroke-width="3">M</text><text fill="rgb(21,101,192)" stroke="none" font-family="geogebra-sans-serif, sans-serif" font-size="16px" font-style="normal" font-weight="normal" text-decoration="normal" x="26" y="290" text-anchor="start" dominant-baseline="alphabetic" fill-opacity="1">M</text><g transform="scale(19,19)"><g transform="translate(14.105263157894736,6.4834736842105265)"><path fill="rgb(0,0,0)" stroke="none" paint-order="stroke fill markers" d=" M 0.0908203125 -0.0341796875 L 0.0908203125 -0.66015625 Q 0.09375 -0.6904296875 0.125 -0.69384765625 L 0.52978515625 -0.69384765625 Q 0.54443359375 -0.6923828125 0.553466796875 -0.683349609375 Q 0.5625 -0.67431640625 0.56396484375 -0.66015625 L 0.56396484375 -0.6201171875 Q 0.560546875 -0.58935546875 0.52978515625 -0.5859375 L 0.2421875 -0.5888671875 L 0.2421875 -0.39599609375 L 0.48388671875 -0.39599609375 Q 0.5146484375 -0.392578125 0.51806640625 -0.36181640625 L 0.51806640625 -0.33203125 Q 0.5146484375 -0.30126953125 0.48388671875 -0.2978515625 L 0.2421875 -0.2978515625 L 0.2421875 -0.0341796875 Q 0.23876953125 -0.00341796875 0.2080078125 0 L 0.125 0 Q 0.09423828125 -0.00341796875 0.0908203125 -0.0341796875 Z"/></g><g transform="translate(14.716263157894737,6.4834736842105265)"><path fill="rgb(0,0,0)" stroke="none" paint-order="stroke fill markers" d=" M 0.203 -0.001 L 0.203 -0.001 Q 0.203 0.096 0.14 0.169 Q 0.123 0.189 0.112 0.193 Q 0.10200000000000001 0.193 0.10200000000000001 0.182 Q 0.10200000000000001 0.177 0.113 0.166 Q 0.17300000000000001 0.106 0.18 0.019 Q 0.181 0.009000000000000001 0.181 -0.001 Q 0.181 -0.016 0.179 -0.016 Q 0.178 -0.016 0.17400000000000002 -0.013000000000000001 Q 0.16 0 0.139 0 Q 0.10200000000000001 0 0.09 -0.034 Q 0.08600000000000001 -0.043000000000000003 0.08600000000000001 -0.053 Q 0.08600000000000001 -0.089 0.117 -0.10200000000000001 Q 0.127 -0.106 0.139 -0.106 Q 0.183 -0.106 0.198 -0.048 Q 0.203 -0.027 0.203 -0.001 Z"/></g><g transform="translate(15.160929824561403,6.4834736842105265)"><path fill="rgb(0,0,0)" stroke="none" paint-order="stroke fill markers" d=" M 0.02294921875 0.06591796875 Q 0.02294921875 0.03466796875 0.040771484375 0.011474609375 Q 0.05859375 -0.01171875 0.087890625 -0.02197265625 Q 0.06201171875 -0.05517578125 0.06201171875 -0.10107421875 Q 0.06201171875 -0.1474609375 0.08984375 -0.18408203125 Q 0.0654296875 -0.2060546875 0.05322265625 -0.237548828125 Q 0.041015625 -0.26904296875 0.041015625 -0.30517578125 Q 0.041015625 -0.392578125 0.0966796875 -0.430908203125 Q 0.15234375 -0.46923828125 0.244140625 -0.46923828125 Q 0.33447265625 -0.46923828125 0.38623046875 -0.43505859375 Q 0.4130859375 -0.451171875 0.445068359375 -0.460205078125 Q 0.47705078125 -0.46923828125 0.51123046875 -0.46923828125 Q 0.5224609375 -0.46923828125 0.52392578125 -0.4599609375 L 0.5341796875 -0.40185546875 Q 0.5341796875 -0.39599609375 0.5302734375 -0.39208984375 Q 0.5263671875 -0.38818359375 0.52197265625 -0.38818359375 Q 0.52001953125 -0.38818359375 0.51806640625 -0.38916015625 Q 0.46630859375 -0.40478515625 0.4169921875 -0.40478515625 Q 0.431640625 -0.3857421875 0.439208984375 -0.359619140625 Q 0.44677734375 -0.33349609375 0.44677734375 -0.30517578125 Q 0.44677734375 -0.21728515625 0.39111328125 -0.1787109375 Q 0.33544921875 -0.14013671875 0.244140625 -0.14013671875 Q 0.16455078125 -0.14013671875 0.1181640625 -0.1650390625 Q 0.1162109375 -0.1552734375 0.1162109375 -0.14990234375 Q 0.1162109375 -0.1259765625 0.133056640625 -0.110107421875 Q 0.14990234375 -0.09423828125 0.1728515625 -0.09423828125 L 0.27587890625 -0.09423828125 Q 0.349609375 -0.09423828125 0.40234375 -0.084716796875 Q 0.455078125 -0.0751953125 0.490478515625 -0.0400390625 Q 0.52587890625 -0.0048828125 0.52587890625 0.06591796875 Q 0.52587890625 0.2060546875 0.27490234375 0.2060546875 Q 0.02294921875 0.2060546875 0.02294921875 0.06591796875 M 0.1298828125 0.06591796875 Q 0.1298828125 0.1337890625 0.27392578125 0.1337890625 Q 0.4189453125 0.1337890625 0.4189453125 0.06591796875 Q 0.4189453125 0.01904296875 0.27587890625 0.01904296875 L 0.1728515625 0.01904296875 Q 0.1298828125 0.01904296875 0.1298828125 0.06591796875 M 0.244140625 -0.2119140625 Q 0.27587890625 -0.2119140625 0.291015625 -0.22265625 Q 0.30615234375 -0.2333984375 0.310546875 -0.252197265625 Q 0.31494140625 -0.27099609375 0.31494140625 -0.30419921875 L 0.31494140625 -0.30615234375 Q 0.31494140625 -0.35498046875 0.302490234375 -0.3759765625 Q 0.2900390625 -0.39697265625 0.244140625 -0.39697265625 Q 0.212890625 -0.39697265625 0.197265625 -0.38623046875 Q 0.181640625 -0.37548828125 0.17724609375 -0.35693359375 Q 0.1728515625 -0.33837890625 0.1728515625 -0.30615234375 L 0.1728515625 -0.30517578125 L 0.1728515625 -0.30419921875 Q 0.1728515625 -0.27099609375 0.17724609375 -0.252197265625 Q 0.181640625 -0.2333984375 0.197265625 -0.22265625 Q 0.212890625 -0.2119140625 0.244140625 -0.2119140625 Z"/></g></g><g transform="scale(19,19)"><g transform="translate(7.421052631578948,8.300105263157894)"><path fill="rgb(0,0,0)" stroke="none" paint-order="stroke fill markers" d=" M 0.05908203125 -0.0341796875 L 0.05908203125 -0.43017578125 Q 0.060546875 -0.4443359375 0.069580078125 -0.453369140625 Q 0.07861328125 -0.46240234375 0.0927734375 -0.4638671875 L 0.1572265625 -0.4638671875 Q 0.17138671875 -0.46240234375 0.180419921875 -0.453369140625 Q 0.189453125 -0.4443359375 0.19091796875 -0.43017578125 L 0.19091796875 -0.35693359375 Q 0.212890625 -0.40625 0.252685546875 -0.437744140625 Q 0.29248046875 -0.46923828125 0.3427734375 -0.46923828125 Q 0.35595703125 -0.46923828125 0.35595703125 -0.4580078125 L 0.35595703125 -0.3759765625 Q 0.35595703125 -0.3720703125 0.352783203125 -0.367919921875 Q 0.349609375 -0.36376953125 0.34521484375 -0.36376953125 Q 0.30810546875 -0.36376953125 0.273193359375 -0.34814453125 Q 0.23828125 -0.33251953125 0.217041015625 -0.3037109375 Q 0.19580078125 -0.27490234375 0.19580078125 -0.23681640625 L 0.19580078125 -0.0341796875 Q 0.1923828125 -0.0029296875 0.162109375 0 L 0.0927734375 0 Q 0.0625 -0.00341796875 0.05908203125 -0.0341796875 Z"/></g></g></g></g></svg>