<svg version="1.1" xmlns="http://www.w3.org/2000/svg" xmlns:xlink="http://www.w3.org/1999/xlink" width="629" height="627"><defs><clipPath id="FqoiqTGnTJxM"><path fill="none" stroke="none" d=" M 0 0 L 629 0 L 629 627 L 0 627 L 0 0 Z"/></clipPath></defs><g transform="scale(1,1)" clip-path="url(#FqoiqTGnTJxM)"><g><rect fill="rgb(255,255,255,0)" stroke="none" x="0" y="0" width="629" height="627" fill-opacity="1"/><path fill="none" stroke="rgb(21,101,192)" paint-order="fill stroke markers" d=" M -5 453.20905865455234 L 634 627.2685300201915" stroke-opacity="0.6980392156862745" stroke-linejoin="round" stroke-miterlimit="10" stroke-width="2.5" stroke-dasharray="10.5,8"/><path fill="none" stroke="rgb(211,47,47)" paint-order="fill stroke markers" d=" M -5 69.86424173912935 L 223.83402548672538 632" stroke-opacity="0.6980392156862745" stroke-linejoin="round" stroke-miterlimit="10" stroke-width="2.5" stroke-dasharray="10.5,8"/><path fill="rgb(21,101,192)" stroke="none" paint-order="stroke fill markers" d=" M 170.51284031004616 499.2674670477334 C 169.74296709967837 499.2674670477334 169.0374756273235 499.7794162964818 168.82540130266193 500.55797486841993 C 168.57138845471724 501.4904964287991 169.12142844409345 502.4523726160736 170.05395000447263 502.7063854640183 L 461.39463022871126 582.065704379725 L 461.3946302287112 582.065704379725 L 460.60617717689325 584.9602409203613 L 480.18662593296847 585.3707607258677 L 463.10294517431686 575.7942085416797 L 462.3144921224989 578.688745082316 L 462.31449212249885 578.688745082316 L 170.97381189826027 499.32942616660927 C 170.81984890981923 499.28748764332613 170.66508573442553 499.2674670477334 170.51284031004616 499.2674670477334 Z" fill-opacity="0.6980392156862745"/><path fill="rgb(211,47,47)" stroke="none" paint-order="stroke fill markers" d=" M 49.69101048975506 204.21389794222364 L 52.4552618937803 223.6025908887671 L 55.23385707825645 222.47148134464408 L 55.23385707825641 222.47148134464408 L 168.89303376042204 501.6777197160522 C 169.16948333064948 502.35682409508917 169.8238683759225 502.76836779448644 170.5144978493534 502.7683677944865 C 170.73422949595636 502.7683677944865 170.95763004577714 502.726708591135 171.17369485210486 502.6387530062582 C 172.06886403746952 502.274347851154 172.49913329741506 501.25326109994006 172.13472814231085 500.35809191457537 L 58.475551460145205 221.15185354316725 L 58.47555146014517 221.15185354316725 L 61.254146644621315 220.0207439990442 L 49.69101048975506 204.21389794222364 Z" fill-opacity="0.6980392156862745"/><path fill="rgb(21,101,192)" stroke="none" paint-order="stroke fill markers" d=" M 334.0903144535527 196.44547436292405 L 322.59288824841576 196.68876566451615 L 322.6669334271612 200.1879823356448 L 334.16435963229816 199.94469103405268 L 334.0903144535527 196.44547436292405 Z M 314.59467871440745 196.85801178736284 L 303.0972525092705 197.10130308895495 L 303.17129768801595 200.60051976008359 L 314.6687238931529 200.35722845849148 L 314.59467871440745 196.85801178736284 Z M 295.0990429752622 197.27054921180164 L 283.6016167701253 197.51384051339377 L 283.67566194887075 201.0130571845224 L 295.17308815400764 200.76976588293027 L 295.0990429752622 197.27054921180164 Z M 275.603407236117 197.68308663624046 L 264.10598103098005 197.92637793783257 L 264.1800262097255 201.4255946089612 L 275.67745241486244 201.1823033073691 L 275.603407236117 197.68308663624046 Z M 256.10777149697174 198.09562406067926 L 244.61034529183476 198.33891536227136 L 244.6843904705802 201.8381320334 L 256.1818166757172 201.5948407318079 L 256.10777149697174 198.09562406067926 Z M 236.61213575782648 198.50816148511805 L 225.11470955268956 198.75145278671016 L 225.188754731435 202.2506694578388 L 236.68618093657193 202.0073781562467 L 236.61213575782648 198.50816148511805 Z M 351.96655247129 193.06653263094336 L 352.0300197673575 196.06586120619647 L 342.088523987561 196.27622824007736 L 342.16256916630647 199.775444911206 L 352.10406494610294 199.5650778773251 L 352.1675322421704 202.56440645257823 L 371.06278999999995 197.41350999999992 L 351.96655247129 193.06653263094336 Z M 217.11650001868125 198.92069890955685 L 205.61907381354428 199.16399021114896 L 205.69311899228973 202.6632068822776 L 217.1905451974267 202.41991558068548 L 217.11650001868125 198.92069890955685 Z M 197.620864279536 199.33323633399564 L 186.12343807439905 199.57652763558775 L 186.1974832531445 203.0757443067164 L 197.69490945828144 202.83245300512428 L 197.620864279536 199.33323633399564 Z M 178.12522854039074 199.74577375843444 L 166.62780233525382 199.98906506002655 L 166.70184751399927 203.48828173115518 L 178.1992737191362 203.24499042956307 L 178.12522854039074 199.74577375843444 Z M 158.6295928012455 200.15831118287323 L 147.13216659610856 200.40160248446534 L 147.206211774854 203.90081915559398 L 158.70363797999096 203.65752785400187 L 158.6295928012455 200.15831118287323 Z M 139.13395706210025 200.57084860731203 L 127.63653085696332 200.81413990890414 L 127.71057603570874 204.31335658003277 L 139.2080022408457 204.07006527844067 L 139.13395706210025 200.57084860731203 Z M 119.63832132295502 200.98338603175083 L 108.14089511781809 201.22667733334293 L 108.21494029656351 204.72589400447157 L 119.71236650170044 204.48260270287946 L 119.63832132295502 200.98338603175083 Z M 100.14268558380978 201.39592345618962 L 88.64525937867283 201.63921475778173 L 88.71930455741825 205.13843142891037 L 100.2167307625552 204.89514012731826 L 100.14268558380978 201.39592345618962 Z M 80.64704984466454 201.80846088062842 L 69.14962363952759 202.05175218222053 L 69.22366881827301 205.55096885334916 L 80.72109502340996 205.30767755175705 L 80.64704984466454 201.80846088062842 Z M 61.15141410551929 202.2209983050672 L 49.65398790038235 202.46428960665932 L 49.72803307912777 205.96350627778796 L 61.22545928426471 205.72021497619585 L 61.15141410551929 202.2209983050672 Z" fill-opacity="0.6980392156862745"/><path fill="rgb(211,47,47)" stroke="none" paint-order="stroke fill markers" d=" M 459.64083999999986 265.05493 L 456.1167851623904 284.32001597181755 L 465.597302659435 283.71191401636116 L 459.64083999999986 265.05493 Z M 462.60345502878937 283.9039462128211 L 459.110632793036 284.1279837753576 L 459.71707566024986 293.58263551918174 L 463.2098978960032 293.3585979566452 L 462.60345502878937 283.9039462128211 Z M 463.72198375322967 301.34219163836707 L 460.2291615174763 301.5662292009036 L 460.96528493723935 313.0426451183787 L 464.4581071729927 312.81860755584216 L 463.72198375322967 301.34219163836707 Z M 464.9701930302191 320.80220123756396 L 461.47737079446574 321.0262388001005 L 462.2134942142288 332.50265471757564 L 465.7063164499821 332.2786171550391 L 464.9701930302191 320.80220123756396 Z M 466.2184023072086 340.26221083676097 L 462.7255800714552 340.4862483992975 L 463.46170349121826 351.9626643167726 L 466.9545257269716 351.73862675423607 L 466.2184023072086 340.26221083676097 Z M 467.46661158419806 359.72222043595787 L 463.9737893484447 359.9462579984944 L 464.7099127682077 371.42267391596954 L 468.20273500396104 371.198636353433 L 467.46661158419806 359.72222043595787 Z M 468.7148208611875 379.1822300351549 L 465.22199862543414 379.4062675976914 L 465.9581220451972 390.8826835151665 L 469.4509442809505 390.65864595262997 L 468.7148208611875 379.1822300351549 Z M 469.963030138177 398.64223963435177 L 466.4702079024236 398.8662771968883 L 467.20633132218666 410.34269311436344 L 470.69915355794 410.1186555518269 L 469.963030138177 398.64223963435177 Z M 471.2112394151664 418.1022492335487 L 467.71841717941305 418.32628679608524 L 468.4545405991761 429.8027027135604 L 471.94736283492944 429.57866515102387 L 471.2112394151664 418.1022492335487 Z M 472.4594486921559 437.56225883274567 L 468.96662645640254 437.7862963952822 L 469.70274987616557 449.26271231275734 L 473.1955721119189 449.0386747502208 L 472.4594486921559 437.56225883274567 Z M 473.7076579691454 457.0222684319426 L 470.214835733392 457.24630599447914 L 470.950959153155 468.7227219119543 L 474.44378138890835 468.4986843494178 L 473.7076579691454 457.0222684319426 Z M 474.9558672461348 476.4822780311396 L 471.46304501038145 476.7063155936761 L 472.1991684301445 488.18273151115125 L 475.69199066589783 487.9586939486147 L 474.9558672461348 476.4822780311396 Z M 476.2040765231243 495.9422876303365 L 472.71125428737093 496.16632519287305 L 473.44737770713397 507.6427411103482 L 476.9401999428873 507.4187035478117 L 476.2040765231243 495.9422876303365 Z M 477.4522858001137 515.4022972295335 L 473.95946356436036 515.62633479207 L 474.6955869841234 527.1027507095451 L 478.18840921987675 526.8787131470086 L 477.4522858001137 515.4022972295335 Z M 478.7004950771032 534.8623068287304 L 475.20767284134985 535.086344391267 L 475.9437962611129 546.5627603087421 L 479.43661849686623 546.3387227462056 L 478.7004950771032 534.8623068287304 Z M 479.9487043540927 554.3223164279274 L 476.45588211833933 554.5463539904639 L 477.1920055381023 566.022769907939 L 480.68482777385566 565.7987323454025 L 479.9487043540927 554.3223164279274 Z M 481.1969136310821 573.7823260271243 L 477.70409139532876 574.0063635896609 L 478.4402148150918 585.482779507136 L 481.93303705084514 585.2587419445995 L 481.1969136310821 573.7823260271243 Z" fill-opacity="0.6980392156862745"/><path fill="rgb(21,101,192)" stroke="none" paint-order="stroke fill markers" d=" M 403.2729899999999 63.74117999999971 L 383.86168061686516 66.34186606952511 L 384.9693234773445 69.12989894121603 L 49.044885487808756 202.58754543373726 C 48.146675799522676 202.9443904187966 47.70781299620935 203.96181325588387 48.06465798126868 204.86002294416994 C 48.33728633787476 205.5462520953639 48.99548791623102 205.96436469103588 49.69152443556027 205.96436469103588 C 49.90653453087088 205.96436469103588 50.12515495460926 205.92446707916326 50.33713549170136 205.84025045071002 L 386.2615734812371 72.38260395818875 L 387.3692163417165 75.17063682987967 L 403.27298999999994 63.74117999999971 Z" fill-opacity="0.6980392156862745"/><path fill="rgb(211,47,47)" stroke="none" paint-order="stroke fill markers" d=" M 565.9344999999997 197.41350999999986 L 557.1959447638596 214.94063618728248 L 560.1252473020121 215.5880824321349 L 478.4778661190462 584.9930837497038 C 478.2692808847487 585.9368057360568 478.8652269704516 586.8709353054925 479.80894895680456 587.07952053979 C 479.93615208153517 587.1076354867331 480.063180931118 587.1211336988204 480.18828225099304 587.1211336988204 C 480.9913095941352 587.1211336988204 481.71491545953626 586.564956563654 481.8953857468907 585.7484377020317 L 563.5427669298566 216.34343638446273 L 566.472069468009 216.99088262931514 L 566.4720694680091 216.99088262931514 L 565.9344999999997 197.41350999999986 Z" fill-opacity="0.6980392156862745"/><path fill="rgb(219,97,20)" stroke="none" paint-order="stroke fill markers" d=" M 371.06278999999995 197.41350999999995 L 383.2805388486372 212.72001558003427 L 385.1012796587239 210.33571213825408 L 458.57874119411593 266.44577367437176 C 458.8958342173209 266.6879174375465 459.2691752577262 266.8050215759076 459.6395533779548 266.8050215759076 C 460.166397450879 266.8050215759076 460.6872464642432 266.5680775334331 461.0316836743716 266.11702880588393 C 461.6182646476748 265.3488870551298 461.4710805566379 264.25066729893143 460.7029388058838 263.66408632562826 L 387.22547727049175 207.55402478951052 L 389.04621808057846 205.16972134773033 L 371.06279 197.41350999999995 Z" fill-opacity="0.6980392156862745"/><path fill="rgb(97,97,97)" stroke="none" paint-order="stroke fill markers" d=" M 403.27298999999994 63.7411799999997 L 394.20424398560726 81.09976132816236 L 397.1207667593674 81.80253790015276 L 369.3614850486399 197.00355699967218 C 369.1350742584115 197.94316177911995 369.7132322202244 198.88840416113158 370.6528369996722 199.11481495135996 C 370.79060504734645 199.14801207128144 370.92849429457686 199.16391223304 371.0642210900992 199.16391223304 C 371.8541773388301 199.16391223304 372.5708812810531 198.6252997321012 372.76409495136 197.82346300032765 L 400.5233766620875 82.62244390080821 L 400.52337666208757 82.62244390080821 L 403.4398994358477 83.32522047279859 L 403.27298999999994 63.7411799999997 Z" fill-opacity="0.6980392156862745"/><path fill="rgb(97,97,97)" stroke="none" paint-order="stroke fill markers" d=" M 565.9344999999997 197.41350999999992 L 547.3547731451722 203.60675228494244 L 548.9653996217517 206.13773674813876 L 458.7013078886618 263.5785223964688 C 457.8859104846973 264.09741165353716 457.64554313940033 265.1790647073736 458.16443239646867 265.99446211133807 C 458.49798109145553 266.5186100606031 459.06406850991306 266.80515076404373 459.64249409256865 266.80515076404373 C 459.9639036025531 266.80515076404373 460.2891226566385 266.7166781656127 460.5803721113379 266.5313376035312 L 550.8444638444278 209.09055195520114 L 552.4550903210072 211.62153641839745 L 565.9344999999997 197.41350999999992 Z" fill-opacity="0.6980392156862745"/><path fill="rgb(0,0,0)" stroke="none" paint-order="stroke fill markers" d=" M 403.2739912866231 61.991129464900155 C 402.7684767815802 61.991129464900155 402.2669565540061 62.20906079779879 401.92095357784467 62.6301005639711 C 401.3073213494755 63.37680966114324 401.4152014667992 64.47958419378577 402.16191056397133 65.09321642215497 L 550.1441679805712 186.70239825955912 L 548.2394603759508 189.02017498325384 L 565.9344999999997 197.41350999999992 L 554.2710344572488 181.68054869155387 L 552.3663268526284 183.99832541524856 L 404.38406943602854 62.389143577844436 C 404.05840010502874 62.121514325636646 403.6650008393898 61.991129464900155 403.2739912866231 61.991129464900155 Z" fill-opacity="0.6980392156862745"/><g transform="scale(19,19)"><g transform="translate(16.94736842105263,30.03694736842105)"><path fill="rgb(21,101,192)" stroke="none" paint-order="stroke fill markers" d=" M 0.05810546875 -0.123046875 L 0.05810546875 -0.423828125 Q 0.0615234375 -0.45458984375 0.091796875 -0.4580078125 L 0.1640625 -0.4580078125 Q 0.17822265625 -0.45654296875 0.1875 -0.447265625 Q 0.19677734375 -0.43798828125 0.1982421875 -0.423828125 L 0.1982421875 -0.1259765625 Q 0.1982421875 -0.09130859375 0.20166015625 -0.078125 Q 0.205078125 -0.06494140625 0.218505859375 -0.0595703125 Q 0.23193359375 -0.05419921875 0.26416015625 -0.05419921875 Q 0.29345703125 -0.05419921875 0.3154296875 -0.070556640625 Q 0.33740234375 -0.0869140625 0.349609375 -0.11279296875 Q 0.36181640625 -0.138671875 0.36181640625 -0.16796875 L 0.36181640625 -0.423828125 Q 0.365234375 -0.45458984375 0.39599609375 -0.4580078125 L 0.4677734375 -0.4580078125 Q 0.49853515625 -0.45458984375 0.501953125 -0.423828125 L 0.501953125 -0.0341796875 Q 0.49853515625 -0.00341796875 0.4677734375 0 L 0.39892578125 0 Q 0.36865234375 -0.0029296875 0.365234375 -0.0341796875 L 0.365234375 -0.06982421875 Q 0.34375 -0.03369140625 0.307373046875 -0.01123046875 Q 0.27099609375 0.01123046875 0.22998046875 0.01123046875 Q 0.18798828125 0.01123046875 0.158447265625 0.005859375 Q 0.12890625 0.00048828125 0.106201171875 -0.013427734375 Q 0.08349609375 -0.02734375 0.07080078125 -0.05419921875 Q 0.05810546875 -0.0810546875 0.05810546875 -0.123046875 Z"/></g></g><g transform="scale(19,19)"><g transform="translate(4.368421052631579,18.615894736842105)"><path fill="rgb(211,47,47)" stroke="none" paint-order="stroke fill markers" d=" M 0.15087890625 -0.0361328125 L 0.02685546875 -0.421875 Q 0.02490234375 -0.427734375 0.02490234375 -0.43017578125 Q 0.02490234375 -0.4404296875 0.03369140625 -0.44921875 Q 0.04248046875 -0.4580078125 0.05322265625 -0.4580078125 L 0.10498046875 -0.4580078125 Q 0.12109375 -0.4580078125 0.135009765625 -0.44775390625 Q 0.14892578125 -0.4375 0.15380859375 -0.421875 L 0.2509765625 -0.1201171875 L 0.34814453125 -0.421875 Q 0.35302734375 -0.4375 0.366943359375 -0.44775390625 Q 0.380859375 -0.4580078125 0.39697265625 -0.4580078125 L 0.44580078125 -0.4580078125 Q 0.45654296875 -0.4580078125 0.46533203125 -0.44921875 Q 0.47412109375 -0.4404296875 0.47412109375 -0.43017578125 Q 0.47412109375 -0.427734375 0.47216796875 -0.421875 L 0.34814453125 -0.0361328125 Q 0.3427734375 -0.02001953125 0.328857421875 -0.010009765625 Q 0.31494140625 0 0.298828125 0 L 0.2001953125 0 Q 0.18408203125 0 0.17041015625 -0.010009765625 Q 0.15673828125 -0.02001953125 0.15087890625 -0.0361328125 Z"/></g></g><g transform="scale(19,19)"><g transform="translate(25.31578947368421,19.879052631578947)"><path fill="rgb(211,47,47)" stroke="none" paint-order="stroke fill markers" d=" M 0.15087890625 -0.0361328125 L 0.02685546875 -0.421875 Q 0.02490234375 -0.427734375 0.02490234375 -0.43017578125 Q 0.02490234375 -0.4404296875 0.03369140625 -0.44921875 Q 0.04248046875 -0.4580078125 0.05322265625 -0.4580078125 L 0.10498046875 -0.4580078125 Q 0.12109375 -0.4580078125 0.135009765625 -0.44775390625 Q 0.14892578125 -0.4375 0.15380859375 -0.421875 L 0.2509765625 -0.1201171875 L 0.34814453125 -0.421875 Q 0.35302734375 -0.4375 0.366943359375 -0.44775390625 Q 0.380859375 -0.4580078125 0.39697265625 -0.4580078125 L 0.44580078125 -0.4580078125 Q 0.45654296875 -0.4580078125 0.46533203125 -0.44921875 Q 0.47412109375 -0.4404296875 0.47412109375 -0.43017578125 Q 0.47412109375 -0.427734375 0.47216796875 -0.421875 L 0.34814453125 -0.0361328125 Q 0.3427734375 -0.02001953125 0.328857421875 -0.010009765625 Q 0.31494140625 0 0.298828125 0 L 0.2001953125 0 Q 0.18408203125 0 0.17041015625 -0.010009765625 Q 0.15673828125 -0.02001953125 0.15087890625 -0.0361328125 Z"/></g><g transform="translate(25.81578947368421,20.029052631578946) scale(0.7,0.7)"><path fill="rgb(211,47,47)" stroke="none" paint-order="stroke fill markers" d=" M 0.05908203125 0.16015625 L 0.05908203125 -0.423828125 Q 0.0625 -0.45458984375 0.0927734375 -0.4580078125 L 0.162109375 -0.4580078125 Q 0.17626953125 -0.45654296875 0.185302734375 -0.447509765625 Q 0.1943359375 -0.4384765625 0.19580078125 -0.423828125 L 0.19580078125 -0.4130859375 Q 0.25927734375 -0.46923828125 0.34912109375 -0.46923828125 Q 0.52294921875 -0.46923828125 0.52294921875 -0.22900390625 Q 0.52294921875 -0.1552734375 0.5009765625 -0.1015625 Q 0.47900390625 -0.0478515625 0.431884765625 -0.018310546875 Q 0.384765625 0.01123046875 0.31005859375 0.01123046875 Q 0.24609375 0.01123046875 0.19921875 -0.0380859375 L 0.19921875 0.16015625 Q 0.19775390625 0.17431640625 0.188232421875 0.183349609375 Q 0.1787109375 0.1923828125 0.1650390625 0.19384765625 L 0.0927734375 0.19384765625 Q 0.07958984375 0.1923828125 0.070068359375 0.183349609375 Q 0.060546875 0.17431640625 0.05908203125 0.16015625 M 0.19921875 -0.10205078125 Q 0.212890625 -0.08544921875 0.232666015625 -0.0751953125 Q 0.25244140625 -0.06494140625 0.27294921875 -0.06494140625 Q 0.33642578125 -0.06494140625 0.359619140625 -0.11181640625 Q 0.3828125 -0.15869140625 0.3828125 -0.22900390625 Q 0.3828125 -0.38720703125 0.28515625 -0.38720703125 Q 0.236328125 -0.38720703125 0.19921875 -0.35595703125 L 0.19921875 -0.10205078125 Z"/></g></g><g transform="scale(19,19)"><g transform="translate(12.105263157894736,9.615894736842105)"><path fill="rgb(21,101,192)" stroke="none" paint-order="stroke fill markers" d=" M 0.05810546875 -0.123046875 L 0.05810546875 -0.423828125 Q 0.0615234375 -0.45458984375 0.091796875 -0.4580078125 L 0.1640625 -0.4580078125 Q 0.17822265625 -0.45654296875 0.1875 -0.447265625 Q 0.19677734375 -0.43798828125 0.1982421875 -0.423828125 L 0.1982421875 -0.1259765625 Q 0.1982421875 -0.09130859375 0.20166015625 -0.078125 Q 0.205078125 -0.06494140625 0.218505859375 -0.0595703125 Q 0.23193359375 -0.05419921875 0.26416015625 -0.05419921875 Q 0.29345703125 -0.05419921875 0.3154296875 -0.070556640625 Q 0.33740234375 -0.0869140625 0.349609375 -0.11279296875 Q 0.36181640625 -0.138671875 0.36181640625 -0.16796875 L 0.36181640625 -0.423828125 Q 0.365234375 -0.45458984375 0.39599609375 -0.4580078125 L 0.4677734375 -0.4580078125 Q 0.49853515625 -0.45458984375 0.501953125 -0.423828125 L 0.501953125 -0.0341796875 Q 0.49853515625 -0.00341796875 0.4677734375 0 L 0.39892578125 0 Q 0.36865234375 -0.0029296875 0.365234375 -0.0341796875 L 0.365234375 -0.06982421875 Q 0.34375 -0.03369140625 0.307373046875 -0.01123046875 Q 0.27099609375 0.01123046875 0.22998046875 0.01123046875 Q 0.18798828125 0.01123046875 0.158447265625 0.005859375 Q 0.12890625 0.00048828125 0.106201171875 -0.013427734375 Q 0.08349609375 -0.02734375 0.07080078125 -0.05419921875 Q 0.05810546875 -0.0810546875 0.05810546875 -0.123046875 Z"/></g><g transform="translate(12.666263157894736,9.765894736842105) scale(0.7,0.7)"><path fill="rgb(21,101,192)" stroke="none" paint-order="stroke fill markers" d=" M 0.05908203125 0.16015625 L 0.05908203125 -0.423828125 Q 0.0625 -0.45458984375 0.0927734375 -0.4580078125 L 0.162109375 -0.4580078125 Q 0.17626953125 -0.45654296875 0.185302734375 -0.447509765625 Q 0.1943359375 -0.4384765625 0.19580078125 -0.423828125 L 0.19580078125 -0.4130859375 Q 0.25927734375 -0.46923828125 0.34912109375 -0.46923828125 Q 0.52294921875 -0.46923828125 0.52294921875 -0.22900390625 Q 0.52294921875 -0.1552734375 0.5009765625 -0.1015625 Q 0.47900390625 -0.0478515625 0.431884765625 -0.018310546875 Q 0.384765625 0.01123046875 0.31005859375 0.01123046875 Q 0.24609375 0.01123046875 0.19921875 -0.0380859375 L 0.19921875 0.16015625 Q 0.19775390625 0.17431640625 0.188232421875 0.183349609375 Q 0.1787109375 0.1923828125 0.1650390625 0.19384765625 L 0.0927734375 0.19384765625 Q 0.07958984375 0.1923828125 0.070068359375 0.183349609375 Q 0.060546875 0.17431640625 0.05908203125 0.16015625 M 0.19921875 -0.10205078125 Q 0.212890625 -0.08544921875 0.232666015625 -0.0751953125 Q 0.25244140625 -0.06494140625 0.27294921875 -0.06494140625 Q 0.33642578125 -0.06494140625 0.359619140625 -0.11181640625 Q 0.3828125 -0.15869140625 0.3828125 -0.22900390625 Q 0.3828125 -0.38720703125 0.28515625 -0.38720703125 Q 0.236328125 -0.38720703125 0.19921875 -0.35595703125 L 0.19921875 -0.10205078125 Z"/></g></g><g transform="scale(19,19)"><g transform="translate(10.842105263157896,5.802631578947368)"><path fill="rgb(21,101,192)" stroke="none" paint-order="stroke fill markers" d=" M 0.15087890625 -0.0361328125 L 0.02685546875 -0.421875 Q 0.02490234375 -0.427734375 0.02490234375 -0.43017578125 Q 0.02490234375 -0.4404296875 0.03369140625 -0.44921875 Q 0.04248046875 -0.4580078125 0.05322265625 -0.4580078125 L 0.10498046875 -0.4580078125 Q 0.12109375 -0.4580078125 0.135009765625 -0.44775390625 Q 0.14892578125 -0.4375 0.15380859375 -0.421875 L 0.2509765625 -0.1201171875 L 0.34814453125 -0.421875 Q 0.35302734375 -0.4375 0.366943359375 -0.44775390625 Q 0.380859375 -0.4580078125 0.39697265625 -0.4580078125 L 0.44580078125 -0.4580078125 Q 0.45654296875 -0.4580078125 0.46533203125 -0.44921875 Q 0.47412109375 -0.4404296875 0.47412109375 -0.43017578125 Q 0.47412109375 -0.427734375 0.47216796875 -0.421875 L 0.34814453125 -0.0361328125 Q 0.3427734375 -0.02001953125 0.328857421875 -0.010009765625 Q 0.31494140625 0 0.298828125 0 L 0.2001953125 0 Q 0.18408203125 0 0.17041015625 -0.010009765625 Q 0.15673828125 -0.02001953125 0.15087890625 -0.0361328125 Z"/></g><g transform="translate(11.357105263157896,5.802631578947368)"><path fill="rgb(21,101,192)" stroke="none" paint-order="stroke fill markers" d=" M 0.271 -0.75 L 0.332 -0.75 Q 0.244 -0.662 0.201 -0.541 Q 0.157 -0.41400000000000003 0.157 -0.25 Q 0.157 -0.158 0.1715 -0.078 Q 0.186 0.002 0.20400000000000001 0.051500000000000004 Q 0.222 0.101 0.2505 0.1465 Q 0.279 0.192 0.2945 0.21 Q 0.31 0.228 0.332 0.25 L 0.271 0.25 Q 0.079 0.074 0.079 -0.25 Q 0.079 -0.41000000000000003 0.126 -0.536 Q 0.14200000000000002 -0.579 0.162 -0.6155 Q 0.182 -0.652 0.20500000000000002 -0.6795 Q 0.228 -0.707 0.24 -0.7195 Q 0.252 -0.732 0.271 -0.75 Z"/></g><g transform="translate(11.746105263157895,5.802631578947368)"><path fill="rgb(21,101,192)" stroke="none" paint-order="stroke fill markers" d=" M 0.05810546875 -0.123046875 L 0.05810546875 -0.423828125 Q 0.0615234375 -0.45458984375 0.091796875 -0.4580078125 L 0.1640625 -0.4580078125 Q 0.17822265625 -0.45654296875 0.1875 -0.447265625 Q 0.19677734375 -0.43798828125 0.1982421875 -0.423828125 L 0.1982421875 -0.1259765625 Q 0.1982421875 -0.09130859375 0.20166015625 -0.078125 Q 0.205078125 -0.06494140625 0.218505859375 -0.0595703125 Q 0.23193359375 -0.05419921875 0.26416015625 -0.05419921875 Q 0.29345703125 -0.05419921875 0.3154296875 -0.070556640625 Q 0.33740234375 -0.0869140625 0.349609375 -0.11279296875 Q 0.36181640625 -0.138671875 0.36181640625 -0.16796875 L 0.36181640625 -0.423828125 Q 0.365234375 -0.45458984375 0.39599609375 -0.4580078125 L 0.4677734375 -0.4580078125 Q 0.49853515625 -0.45458984375 0.501953125 -0.423828125 L 0.501953125 -0.0341796875 Q 0.49853515625 -0.00341796875 0.4677734375 0 L 0.39892578125 0 Q 0.36865234375 -0.0029296875 0.365234375 -0.0341796875 L 0.365234375 -0.06982421875 Q 0.34375 -0.03369140625 0.307373046875 -0.01123046875 Q 0.27099609375 0.01123046875 0.22998046875 0.01123046875 Q 0.18798828125 0.01123046875 0.158447265625 0.005859375 Q 0.12890625 0.00048828125 0.106201171875 -0.013427734375 Q 0.08349609375 -0.02734375 0.07080078125 -0.05419921875 Q 0.05810546875 -0.0810546875 0.05810546875 -0.123046875 Z"/></g><g transform="translate(12.307105263157895,5.802631578947368)"><path fill="rgb(21,101,192)" stroke="none" paint-order="stroke fill markers" d=" M 0.117 0.25 L 0.056 0.25 Q 0.14400000000000002 0.162 0.187 0.041 Q 0.231 -0.08600000000000001 0.231 -0.25 Q 0.231 -0.342 0.2165 -0.422 Q 0.202 -0.502 0.184 -0.5515 Q 0.166 -0.601 0.1375 -0.6465 Q 0.109 -0.6920000000000001 0.0935 -0.71 Q 0.078 -0.728 0.056 -0.75 L 0.117 -0.75 Q 0.309 -0.5740000000000001 0.309 -0.25 Q 0.309 -0.09 0.262 0.036000000000000004 Q 0.246 0.079 0.226 0.1155 Q 0.20600000000000002 0.152 0.183 0.1795 Q 0.16 0.20700000000000002 0.148 0.2195 Q 0.136 0.232 0.117 0.25 Z"/></g></g><g transform="scale(19,19)"><g transform="translate(28.31578947368421,19.69736842105263)"><path fill="rgb(211,47,47)" stroke="none" paint-order="stroke fill markers" d=" M 0.05810546875 -0.123046875 L 0.05810546875 -0.423828125 Q 0.0615234375 -0.45458984375 0.091796875 -0.4580078125 L 0.1640625 -0.4580078125 Q 0.17822265625 -0.45654296875 0.1875 -0.447265625 Q 0.19677734375 -0.43798828125 0.1982421875 -0.423828125 L 0.1982421875 -0.1259765625 Q 0.1982421875 -0.09130859375 0.20166015625 -0.078125 Q 0.205078125 -0.06494140625 0.218505859375 -0.0595703125 Q 0.23193359375 -0.05419921875 0.26416015625 -0.05419921875 Q 0.29345703125 -0.05419921875 0.3154296875 -0.070556640625 Q 0.33740234375 -0.0869140625 0.349609375 -0.11279296875 Q 0.36181640625 -0.138671875 0.36181640625 -0.16796875 L 0.36181640625 -0.423828125 Q 0.365234375 -0.45458984375 0.39599609375 -0.4580078125 L 0.4677734375 -0.4580078125 Q 0.49853515625 -0.45458984375 0.501953125 -0.423828125 L 0.501953125 -0.0341796875 Q 0.49853515625 -0.00341796875 0.4677734375 0 L 0.39892578125 0 Q 0.36865234375 -0.0029296875 0.365234375 -0.0341796875 L 0.365234375 -0.06982421875 Q 0.34375 -0.03369140625 0.307373046875 -0.01123046875 Q 0.27099609375 0.01123046875 0.22998046875 0.01123046875 Q 0.18798828125 0.01123046875 0.158447265625 0.005859375 Q 0.12890625 0.00048828125 0.106201171875 -0.013427734375 Q 0.08349609375 -0.02734375 0.07080078125 -0.05419921875 Q 0.05810546875 -0.0810546875 0.05810546875 -0.123046875 Z"/></g><g transform="translate(28.87678947368421,19.69736842105263)"><path fill="rgb(211,47,47)" stroke="none" paint-order="stroke fill markers" d=" M 0.271 -0.75 L 0.332 -0.75 Q 0.244 -0.662 0.201 -0.541 Q 0.157 -0.41400000000000003 0.157 -0.25 Q 0.157 -0.158 0.1715 -0.078 Q 0.186 0.002 0.20400000000000001 0.051500000000000004 Q 0.222 0.101 0.2505 0.1465 Q 0.279 0.192 0.2945 0.21 Q 0.31 0.228 0.332 0.25 L 0.271 0.25 Q 0.079 0.074 0.079 -0.25 Q 0.079 -0.41000000000000003 0.126 -0.536 Q 0.14200000000000002 -0.579 0.162 -0.6155 Q 0.182 -0.652 0.20500000000000002 -0.6795 Q 0.228 -0.707 0.24 -0.7195 Q 0.252 -0.732 0.271 -0.75 Z"/></g><g transform="translate(29.265789473684208,19.69736842105263)"><path fill="rgb(211,47,47)" stroke="none" paint-order="stroke fill markers" d=" M 0.15087890625 -0.0361328125 L 0.02685546875 -0.421875 Q 0.02490234375 -0.427734375 0.02490234375 -0.43017578125 Q 0.02490234375 -0.4404296875 0.03369140625 -0.44921875 Q 0.04248046875 -0.4580078125 0.05322265625 -0.4580078125 L 0.10498046875 -0.4580078125 Q 0.12109375 -0.4580078125 0.135009765625 -0.44775390625 Q 0.14892578125 -0.4375 0.15380859375 -0.421875 L 0.2509765625 -0.1201171875 L 0.34814453125 -0.421875 Q 0.35302734375 -0.4375 0.366943359375 -0.44775390625 Q 0.380859375 -0.4580078125 0.39697265625 -0.4580078125 L 0.44580078125 -0.4580078125 Q 0.45654296875 -0.4580078125 0.46533203125 -0.44921875 Q 0.47412109375 -0.4404296875 0.47412109375 -0.43017578125 Q 0.47412109375 -0.427734375 0.47216796875 -0.421875 L 0.34814453125 -0.0361328125 Q 0.3427734375 -0.02001953125 0.328857421875 -0.010009765625 Q 0.31494140625 0 0.298828125 0 L 0.2001953125 0 Q 0.18408203125 0 0.17041015625 -0.010009765625 Q 0.15673828125 -0.02001953125 0.15087890625 -0.0361328125 Z"/></g><g transform="translate(29.78078947368421,19.69736842105263)"><path fill="rgb(211,47,47)" stroke="none" paint-order="stroke fill markers" d=" M 0.117 0.25 L 0.056 0.25 Q 0.14400000000000002 0.162 0.187 0.041 Q 0.231 -0.08600000000000001 0.231 -0.25 Q 0.231 -0.342 0.2165 -0.422 Q 0.202 -0.502 0.184 -0.5515 Q 0.166 -0.601 0.1375 -0.6465 Q 0.109 -0.6920000000000001 0.0935 -0.71 Q 0.078 -0.728 0.056 -0.75 L 0.117 -0.75 Q 0.309 -0.5740000000000001 0.309 -0.25 Q 0.309 -0.09 0.262 0.036000000000000004 Q 0.246 0.079 0.226 0.1155 Q 0.20600000000000002 0.152 0.183 0.1795 Q 0.16 0.20700000000000002 0.148 0.2195 Q 0.136 0.232 0.117 0.25 Z"/></g></g><g transform="scale(19,19)"><g transform="translate(25.57894736842105,6.065789473684211)"><path fill="rgb(0,0,0)" stroke="none" paint-order="stroke fill markers" d=" M 0.266 0.25 L 0.10200000000000001 0.25 L 0.10200000000000001 -0.75 L 0.266 -0.75 L 0.266 -0.6890000000000001 L 0.17400000000000002 -0.6890000000000001 L 0.17400000000000002 0.189 L 0.266 0.189 L 0.266 0.25 Z"/></g><g transform="translate(25.867947368421053,6.065789473684211)"><path fill="rgb(0,0,0)" stroke="none" paint-order="stroke fill markers" d=" M 0.05810546875 -0.123046875 L 0.05810546875 -0.423828125 Q 0.0615234375 -0.45458984375 0.091796875 -0.4580078125 L 0.1640625 -0.4580078125 Q 0.17822265625 -0.45654296875 0.1875 -0.447265625 Q 0.19677734375 -0.43798828125 0.1982421875 -0.423828125 L 0.1982421875 -0.1259765625 Q 0.1982421875 -0.09130859375 0.20166015625 -0.078125 Q 0.205078125 -0.06494140625 0.218505859375 -0.0595703125 Q 0.23193359375 -0.05419921875 0.26416015625 -0.05419921875 Q 0.29345703125 -0.05419921875 0.3154296875 -0.070556640625 Q 0.33740234375 -0.0869140625 0.349609375 -0.11279296875 Q 0.36181640625 -0.138671875 0.36181640625 -0.16796875 L 0.36181640625 -0.423828125 Q 0.365234375 -0.45458984375 0.39599609375 -0.4580078125 L 0.4677734375 -0.4580078125 Q 0.49853515625 -0.45458984375 0.501953125 -0.423828125 L 0.501953125 -0.0341796875 Q 0.49853515625 -0.00341796875 0.4677734375 0 L 0.39892578125 0 Q 0.36865234375 -0.0029296875 0.365234375 -0.0341796875 L 0.365234375 -0.06982421875 Q 0.34375 -0.03369140625 0.307373046875 -0.01123046875 Q 0.27099609375 0.01123046875 0.22998046875 0.01123046875 Q 0.18798828125 0.01123046875 0.158447265625 0.005859375 Q 0.12890625 0.00048828125 0.106201171875 -0.013427734375 Q 0.08349609375 -0.02734375 0.07080078125 -0.05419921875 Q 0.05810546875 -0.0810546875 0.05810546875 -0.123046875 Z"/></g><g transform="translate(26.428947368421053,6.065789473684211)"><path fill="rgb(0,0,0)" stroke="none" paint-order="stroke fill markers" d=" M 0.203 -0.001 L 0.203 -0.001 Q 0.203 0.096 0.14 0.169 Q 0.123 0.189 0.112 0.193 Q 0.10200000000000001 0.193 0.10200000000000001 0.182 Q 0.10200000000000001 0.177 0.113 0.166 Q 0.17300000000000001 0.106 0.18 0.019 Q 0.181 0.009000000000000001 0.181 -0.001 Q 0.181 -0.016 0.179 -0.016 Q 0.178 -0.016 0.17400000000000002 -0.013000000000000001 Q 0.16 0 0.139 0 Q 0.10200000000000001 0 0.09 -0.034 Q 0.08600000000000001 -0.043000000000000003 0.08600000000000001 -0.053 Q 0.08600000000000001 -0.089 0.117 -0.10200000000000001 Q 0.127 -0.106 0.139 -0.106 Q 0.183 -0.106 0.198 -0.048 Q 0.203 -0.027 0.203 -0.001 Z"/></g><g transform="translate(26.87361403508772,6.065789473684211)"><path fill="rgb(0,0,0)" stroke="none" paint-order="stroke fill markers" d=" M 0.15087890625 -0.0361328125 L 0.02685546875 -0.421875 Q 0.02490234375 -0.427734375 0.02490234375 -0.43017578125 Q 0.02490234375 -0.4404296875 0.03369140625 -0.44921875 Q 0.04248046875 -0.4580078125 0.05322265625 -0.4580078125 L 0.10498046875 -0.4580078125 Q 0.12109375 -0.4580078125 0.135009765625 -0.44775390625 Q 0.14892578125 -0.4375 0.15380859375 -0.421875 L 0.2509765625 -0.1201171875 L 0.34814453125 -0.421875 Q 0.35302734375 -0.4375 0.366943359375 -0.44775390625 Q 0.380859375 -0.4580078125 0.39697265625 -0.4580078125 L 0.44580078125 -0.4580078125 Q 0.45654296875 -0.4580078125 0.46533203125 -0.44921875 Q 0.47412109375 -0.4404296875 0.47412109375 -0.43017578125 Q 0.47412109375 -0.427734375 0.47216796875 -0.421875 L 0.34814453125 -0.0361328125 Q 0.3427734375 -0.02001953125 0.328857421875 -0.010009765625 Q 0.31494140625 0 0.298828125 0 L 0.2001953125 0 Q 0.18408203125 0 0.17041015625 -0.010009765625 Q 0.15673828125 -0.02001953125 0.15087890625 -0.0361328125 Z"/></g><g transform="translate(27.38861403508772,6.065789473684211)"><path fill="rgb(0,0,0)" stroke="none" paint-order="stroke fill markers" d=" M 0.186 -0.75 L 0.186 0.25 L 0.022 0.25 L 0.022 0.189 L 0.114 0.189 L 0.114 -0.6890000000000001 L 0.022 -0.6890000000000001 L 0.022 -0.75 L 0.186 -0.75 Z"/></g></g><g transform="scale(19,19)"><g transform="translate(21.263157894736842,11.328947368421053)"><path fill="rgb(219,97,20)" stroke="none" paint-order="stroke fill markers" d=" M 0.385 -0.624 L 0.385 0 L 0.296 0 L 0.296 -0.624 L 0.20600000000000002 -0.624 Q 0.2 -0.624 0.188 -0.6235 Q 0.176 -0.623 0.17 -0.623 L 0.036000000000000004 -0.623 L 0.036000000000000004 -0.6880000000000001 L 0.644 -0.6880000000000001 L 0.644 -0.623 L 0.51 -0.623 Q 0.504 -0.623 0.492 -0.6235 Q 0.48 -0.624 0.47400000000000003 -0.624 L 0.385 -0.624 Z"/></g><g transform="translate(21.944157894736843,11.328947368421053)"><path fill="rgb(219,97,20)" stroke="none" paint-order="stroke fill markers" d=" M 0.271 -0.75 L 0.332 -0.75 Q 0.244 -0.662 0.201 -0.541 Q 0.157 -0.41400000000000003 0.157 -0.25 Q 0.157 -0.158 0.1715 -0.078 Q 0.186 0.002 0.20400000000000001 0.051500000000000004 Q 0.222 0.101 0.2505 0.1465 Q 0.279 0.192 0.2945 0.21 Q 0.31 0.228 0.332 0.25 L 0.271 0.25 Q 0.079 0.074 0.079 -0.25 Q 0.079 -0.41000000000000003 0.126 -0.536 Q 0.14200000000000002 -0.579 0.162 -0.6155 Q 0.182 -0.652 0.20500000000000002 -0.6795 Q 0.228 -0.707 0.24 -0.7195 Q 0.252 -0.732 0.271 -0.75 Z"/></g><g transform="translate(22.333157894736843,11.328947368421053)"><path fill="rgb(219,97,20)" stroke="none" paint-order="stroke fill markers" d=" M 0.05810546875 -0.123046875 L 0.05810546875 -0.423828125 Q 0.0615234375 -0.45458984375 0.091796875 -0.4580078125 L 0.1640625 -0.4580078125 Q 0.17822265625 -0.45654296875 0.1875 -0.447265625 Q 0.19677734375 -0.43798828125 0.1982421875 -0.423828125 L 0.1982421875 -0.1259765625 Q 0.1982421875 -0.09130859375 0.20166015625 -0.078125 Q 0.205078125 -0.06494140625 0.218505859375 -0.0595703125 Q 0.23193359375 -0.05419921875 0.26416015625 -0.05419921875 Q 0.29345703125 -0.05419921875 0.3154296875 -0.070556640625 Q 0.33740234375 -0.0869140625 0.349609375 -0.11279296875 Q 0.36181640625 -0.138671875 0.36181640625 -0.16796875 L 0.36181640625 -0.423828125 Q 0.365234375 -0.45458984375 0.39599609375 -0.4580078125 L 0.4677734375 -0.4580078125 Q 0.49853515625 -0.45458984375 0.501953125 -0.423828125 L 0.501953125 -0.0341796875 Q 0.49853515625 -0.00341796875 0.4677734375 0 L 0.39892578125 0 Q 0.36865234375 -0.0029296875 0.365234375 -0.0341796875 L 0.365234375 -0.06982421875 Q 0.34375 -0.03369140625 0.307373046875 -0.01123046875 Q 0.27099609375 0.01123046875 0.22998046875 0.01123046875 Q 0.18798828125 0.01123046875 0.158447265625 0.005859375 Q 0.12890625 0.00048828125 0.106201171875 -0.013427734375 Q 0.08349609375 -0.02734375 0.07080078125 -0.05419921875 Q 0.05810546875 -0.0810546875 0.05810546875 -0.123046875 Z"/></g><g transform="translate(22.894157894736843,11.328947368421053)"><path fill="rgb(219,97,20)" stroke="none" paint-order="stroke fill markers" d=" M 0.203 -0.001 L 0.203 -0.001 Q 0.203 0.096 0.14 0.169 Q 0.123 0.189 0.112 0.193 Q 0.10200000000000001 0.193 0.10200000000000001 0.182 Q 0.10200000000000001 0.177 0.113 0.166 Q 0.17300000000000001 0.106 0.18 0.019 Q 0.181 0.009000000000000001 0.181 -0.001 Q 0.181 -0.016 0.179 -0.016 Q 0.178 -0.016 0.17400000000000002 -0.013000000000000001 Q 0.16 0 0.139 0 Q 0.10200000000000001 0 0.09 -0.034 Q 0.08600000000000001 -0.043000000000000003 0.08600000000000001 -0.053 Q 0.08600000000000001 -0.089 0.117 -0.10200000000000001 Q 0.127 -0.106 0.139 -0.106 Q 0.183 -0.106 0.198 -0.048 Q 0.203 -0.027 0.203 -0.001 Z"/></g><g transform="translate(23.33882456140351,11.328947368421053)"><path fill="rgb(219,97,20)" stroke="none" paint-order="stroke fill markers" d=" M 0.15087890625 -0.0361328125 L 0.02685546875 -0.421875 Q 0.02490234375 -0.427734375 0.02490234375 -0.43017578125 Q 0.02490234375 -0.4404296875 0.03369140625 -0.44921875 Q 0.04248046875 -0.4580078125 0.05322265625 -0.4580078125 L 0.10498046875 -0.4580078125 Q 0.12109375 -0.4580078125 0.135009765625 -0.44775390625 Q 0.14892578125 -0.4375 0.15380859375 -0.421875 L 0.2509765625 -0.1201171875 L 0.34814453125 -0.421875 Q 0.35302734375 -0.4375 0.366943359375 -0.44775390625 Q 0.380859375 -0.4580078125 0.39697265625 -0.4580078125 L 0.44580078125 -0.4580078125 Q 0.45654296875 -0.4580078125 0.46533203125 -0.44921875 Q 0.47412109375 -0.4404296875 0.47412109375 -0.43017578125 Q 0.47412109375 -0.427734375 0.47216796875 -0.421875 L 0.34814453125 -0.0361328125 Q 0.3427734375 -0.02001953125 0.328857421875 -0.010009765625 Q 0.31494140625 0 0.298828125 0 L 0.2001953125 0 Q 0.18408203125 0 0.17041015625 -0.010009765625 Q 0.15673828125 -0.02001953125 0.15087890625 -0.0361328125 Z"/></g><g transform="translate(23.85382456140351,11.328947368421053)"><path fill="rgb(219,97,20)" stroke="none" paint-order="stroke fill markers" d=" M 0.117 0.25 L 0.056 0.25 Q 0.14400000000000002 0.162 0.187 0.041 Q 0.231 -0.08600000000000001 0.231 -0.25 Q 0.231 -0.342 0.2165 -0.422 Q 0.202 -0.502 0.184 -0.5515 Q 0.166 -0.601 0.1375 -0.6465 Q 0.109 -0.6920000000000001 0.0935 -0.71 Q 0.078 -0.728 0.056 -0.75 L 0.117 -0.75 Q 0.309 -0.5740000000000001 0.309 -0.25 Q 0.309 -0.09 0.262 0.036000000000000004 Q 0.246 0.079 0.226 0.1155 Q 0.20600000000000002 0.152 0.183 0.1795 Q 0.16 0.20700000000000002 0.148 0.2195 Q 0.136 0.232 0.117 0.25 Z"/></g></g><g transform="scale(19,19)"><g transform="translate(26.36842105263158,13.735631578947368)"><path fill="rgb(97,97,97)" stroke="none" paint-order="stroke fill markers" d=" M 0.78 -0.663 L 0.442 0.015 Q 0.434 0.03 0.426 0.032 Q 0.422 0.033 0.41600000000000004 0.033 Q 0.4 0.033 0.394 0.022 Q 0.393 0.02 0.39 0.015 L 0.052000000000000005 -0.663 Q 0.047 -0.672 0.047 -0.675 Q 0.053 -0.683 0.069 -0.683 L 0.763 -0.683 Q 0.784 -0.683 0.785 -0.675 Q 0.785 -0.672 0.78 -0.663 M 0.17 -0.612 L 0.445 -0.061 L 0.446 -0.061 L 0.72 -0.612 L 0.17 -0.612 Z"/></g><g transform="translate(27.201421052631577,13.885631578947368) scale(0.7,0.7)"><path fill="rgb(97,97,97)" stroke="none" paint-order="stroke fill markers" d=" M 0.05810546875 -0.123046875 L 0.05810546875 -0.423828125 Q 0.0615234375 -0.45458984375 0.091796875 -0.4580078125 L 0.1640625 -0.4580078125 Q 0.17822265625 -0.45654296875 0.1875 -0.447265625 Q 0.19677734375 -0.43798828125 0.1982421875 -0.423828125 L 0.1982421875 -0.1259765625 Q 0.1982421875 -0.09130859375 0.20166015625 -0.078125 Q 0.205078125 -0.06494140625 0.218505859375 -0.0595703125 Q 0.23193359375 -0.05419921875 0.26416015625 -0.05419921875 Q 0.29345703125 -0.05419921875 0.3154296875 -0.070556640625 Q 0.33740234375 -0.0869140625 0.349609375 -0.11279296875 Q 0.36181640625 -0.138671875 0.36181640625 -0.16796875 L 0.36181640625 -0.423828125 Q 0.365234375 -0.45458984375 0.39599609375 -0.4580078125 L 0.4677734375 -0.4580078125 Q 0.49853515625 -0.45458984375 0.501953125 -0.423828125 L 0.501953125 -0.0341796875 Q 0.49853515625 -0.00341796875 0.4677734375 0 L 0.39892578125 0 Q 0.36865234375 -0.0029296875 0.365234375 -0.0341796875 L 0.365234375 -0.06982421875 Q 0.34375 -0.03369140625 0.307373046875 -0.01123046875 Q 0.27099609375 0.01123046875 0.22998046875 0.01123046875 Q 0.18798828125 0.01123046875 0.158447265625 0.005859375 Q 0.12890625 0.00048828125 0.106201171875 -0.013427734375 Q 0.08349609375 -0.02734375 0.07080078125 -0.05419921875 Q 0.05810546875 -0.0810546875 0.05810546875 -0.123046875 Z"/></g><g transform="translate(27.59412105263158,13.735631578947368)"><path fill="rgb(97,97,97)" stroke="none" paint-order="stroke fill markers" d=" M 0.15087890625 -0.0361328125 L 0.02685546875 -0.421875 Q 0.02490234375 -0.427734375 0.02490234375 -0.43017578125 Q 0.02490234375 -0.4404296875 0.03369140625 -0.44921875 Q 0.04248046875 -0.4580078125 0.05322265625 -0.4580078125 L 0.10498046875 -0.4580078125 Q 0.12109375 -0.4580078125 0.135009765625 -0.44775390625 Q 0.14892578125 -0.4375 0.15380859375 -0.421875 L 0.2509765625 -0.1201171875 L 0.34814453125 -0.421875 Q 0.35302734375 -0.4375 0.366943359375 -0.44775390625 Q 0.380859375 -0.4580078125 0.39697265625 -0.4580078125 L 0.44580078125 -0.4580078125 Q 0.45654296875 -0.4580078125 0.46533203125 -0.44921875 Q 0.47412109375 -0.4404296875 0.47412109375 -0.43017578125 Q 0.47412109375 -0.427734375 0.47216796875 -0.421875 L 0.34814453125 -0.0361328125 Q 0.3427734375 -0.02001953125 0.328857421875 -0.010009765625 Q 0.31494140625 0 0.298828125 0 L 0.2001953125 0 Q 0.18408203125 0 0.17041015625 -0.010009765625 Q 0.15673828125 -0.02001953125 0.15087890625 -0.0361328125 Z"/></g></g><g transform="scale(19,19)"><g transform="translate(20.894736842105264,7.683)"><path fill="rgb(97,97,97)" stroke="none" paint-order="stroke fill markers" d=" M 0.78 -0.663 L 0.442 0.015 Q 0.434 0.03 0.426 0.032 Q 0.422 0.033 0.41600000000000004 0.033 Q 0.4 0.033 0.394 0.022 Q 0.393 0.02 0.39 0.015 L 0.052000000000000005 -0.663 Q 0.047 -0.672 0.047 -0.675 Q 0.053 -0.683 0.069 -0.683 L 0.763 -0.683 Q 0.784 -0.683 0.785 -0.675 Q 0.785 -0.672 0.78 -0.663 M 0.17 -0.612 L 0.445 -0.061 L 0.446 -0.061 L 0.72 -0.612 L 0.17 -0.612 Z"/></g><g transform="translate(21.727736842105262,7.833) scale(0.7,0.7)"><path fill="rgb(97,97,97)" stroke="none" paint-order="stroke fill markers" d=" M 0.15087890625 -0.0361328125 L 0.02685546875 -0.421875 Q 0.02490234375 -0.427734375 0.02490234375 -0.43017578125 Q 0.02490234375 -0.4404296875 0.03369140625 -0.44921875 Q 0.04248046875 -0.4580078125 0.05322265625 -0.4580078125 L 0.10498046875 -0.4580078125 Q 0.12109375 -0.4580078125 0.135009765625 -0.44775390625 Q 0.14892578125 -0.4375 0.15380859375 -0.421875 L 0.2509765625 -0.1201171875 L 0.34814453125 -0.421875 Q 0.35302734375 -0.4375 0.366943359375 -0.44775390625 Q 0.380859375 -0.4580078125 0.39697265625 -0.4580078125 L 0.44580078125 -0.4580078125 Q 0.45654296875 -0.4580078125 0.46533203125 -0.44921875 Q 0.47412109375 -0.4404296875 0.47412109375 -0.43017578125 Q 0.47412109375 -0.427734375 0.47216796875 -0.421875 L 0.34814453125 -0.0361328125 Q 0.3427734375 -0.02001953125 0.328857421875 -0.010009765625 Q 0.31494140625 0 0.298828125 0 L 0.2001953125 0 Q 0.18408203125 0 0.17041015625 -0.010009765625 Q 0.15673828125 -0.02001953125 0.15087890625 -0.0361328125 Z"/></g><g transform="translate(22.088236842105264,7.683)"><path fill="rgb(97,97,97)" stroke="none" paint-order="stroke fill markers" d=" M 0.05810546875 -0.123046875 L 0.05810546875 -0.423828125 Q 0.0615234375 -0.45458984375 0.091796875 -0.4580078125 L 0.1640625 -0.4580078125 Q 0.17822265625 -0.45654296875 0.1875 -0.447265625 Q 0.19677734375 -0.43798828125 0.1982421875 -0.423828125 L 0.1982421875 -0.1259765625 Q 0.1982421875 -0.09130859375 0.20166015625 -0.078125 Q 0.205078125 -0.06494140625 0.218505859375 -0.0595703125 Q 0.23193359375 -0.05419921875 0.26416015625 -0.05419921875 Q 0.29345703125 -0.05419921875 0.3154296875 -0.070556640625 Q 0.33740234375 -0.0869140625 0.349609375 -0.11279296875 Q 0.36181640625 -0.138671875 0.36181640625 -0.16796875 L 0.36181640625 -0.423828125 Q 0.365234375 -0.45458984375 0.39599609375 -0.4580078125 L 0.4677734375 -0.4580078125 Q 0.49853515625 -0.45458984375 0.501953125 -0.423828125 L 0.501953125 -0.0341796875 Q 0.49853515625 -0.00341796875 0.4677734375 0 L 0.39892578125 0 Q 0.36865234375 -0.0029296875 0.365234375 -0.0341796875 L 0.365234375 -0.06982421875 Q 0.34375 -0.03369140625 0.307373046875 -0.01123046875 Q 0.27099609375 0.01123046875 0.22998046875 0.01123046875 Q 0.18798828125 0.01123046875 0.158447265625 0.005859375 Q 0.12890625 0.00048828125 0.106201171875 -0.013427734375 Q 0.08349609375 -0.02734375 0.07080078125 -0.05419921875 Q 0.05810546875 -0.0810546875 0.05810546875 -0.123046875 Z"/></g></g></g></g></svg>