<svg version="1.1" xmlns="http://www.w3.org/2000/svg" xmlns:xlink="http://www.w3.org/1999/xlink" width="407" height="635"><defs><clipPath id="VNnKnQFlkFJH"><path fill="none" stroke="none" d=" M 0 0 L 407 0 L 407 635 L 0 635 L 0 0 Z"/></clipPath></defs><g transform="scale(1,1)" clip-path="url(#VNnKnQFlkFJH)"><g><rect fill="rgb(255,255,255,0)" stroke="none" x="0" y="0" width="407" height="635" fill-opacity="1"/><path fill="none" stroke="rgb(0,0,0)" paint-order="fill stroke markers" d=" M 204.17258281249974 560.643289375 C 193.58508189214194 370.06827280856 132.16364670357734 185.80396724286675 26.288637499999595 26.991453437500013" stroke-opacity="0.6980392156862745" stroke-linecap="round" stroke-linejoin="round" stroke-miterlimit="10" stroke-width="2.5"/><path fill="none" stroke="rgb(0,0,0)" paint-order="fill stroke markers" d=" M 382.0565281249998 26.991453437500127 C 276.18151892142185 185.80396724286675 214.7600837328575 370.06827280855987 204.17258281249974 560.6432893749997" stroke-opacity="0.6980392156862745" stroke-linecap="round" stroke-linejoin="round" stroke-miterlimit="10" stroke-width="2.5"/><path fill="rgb(46,125,50)" stroke="none" paint-order="stroke fill markers" d=" M 276.11455546874976 580.11114875 L 276.11455546874976 583.11114875 L 115.23061015624971 583.11114875 C 114.54025421896122 583.11114875 113.98061015624971 583.6707928127115 113.98061015624971 584.36114875 C 113.98061015624971 585.0515046872885 114.54025421896122 585.61114875 115.23061015624971 585.61114875 L 276.11455546874976 585.61114875 L 276.11455546874976 588.61114875 L 293.11455546874976 584.36114875 L 276.11455546874976 580.11114875 Z" fill-opacity="0.6980392156862745"/><path fill="rgb(219,97,20)" stroke="none" paint-order="stroke fill markers" d=" M 212.22144972632896 378.3555348385268 L 212.14715662597536 381.35461478665087 L 178.9819403392214 380.53304724445127 C 178.9713965091019 380.5327860530717 178.9608799440528 380.5326562029842 178.95039221103553 380.5326562029842 C 178.27440755206106 380.5326562029842 177.71820327195238 381.072108044945 177.70136823568907 381.7517084310223 C 177.68427200804618 382.44185264721904 178.22988520606333 383.01518430691175 178.9200294222601 383.0322805345546 L 212.08524570901403 383.8538480767542 L 212.01095260866043 386.8529280248783 L 229.11098754019773 383.02522566703954 L 212.22144972632896 378.3555348385268 Z" fill-opacity="0.6980392156862745"/><path fill="rgb(219,97,20)" stroke="none" paint-order="stroke fill markers" d=" M 269.4487413571495 200.5035390592627 L 269.4464878993159 203.5035382129172 L 121.84844008939967 203.3926695226184 C 121.84812024903712 203.3926692823694 121.84780043664098 203.39266916226623 121.84748065225392 203.39266916226623 C 121.15756551376766 203.39266916226623 120.59801982369558 203.95169432704438 120.59750150127962 204.64173022921045 C 120.59698293861467 205.33208597173908 121.15620646534306 205.89215025466555 121.84656220787167 205.8926688173305 L 269.4446100177879 206.0035375076293 L 269.4423565599543 209.0035366612838 L 286.44554416259416 204.76630745466372 L 269.4487413571495 200.5035390592627 Z" fill-opacity="0.6980392156862745"/><path fill="rgb(21,101,192)" stroke="none" paint-order="stroke fill markers" d=" M 197.00000000000006 442 L 193.78360768500988 459.2254846223864 L 193.78360768501082 459.2254846223864 L 196.77814045198028 459.04445007446566 L 196.77814045198022 459.04445007446566 L 202.9248608262621 560.7187204366337 C 202.96496796729537 561.3821415868667 203.51553382881508 561.8933293818184 204.1714101230299 561.8933293818185 C 204.1967947860092 561.8933293818185 204.22233719933888 561.8925636452082 204.24801387413345 561.8910113612376 C 204.93711169916108 561.8493519362337 205.46196422374123 561.2569561383939 205.4203047987374 560.5678583133663 L 199.27358442445552 458.89358795119836 L 199.27358442445546 458.89358795119836 L 202.26811719142586 458.7125534032776 L 197.00000000000006 442 Z" fill-opacity="0.6980392156862745"/><path fill="rgb(21,101,192)" stroke="none" paint-order="stroke fill markers" d=" M 210.00000000000006 443 L 204.91414694053464 459.76891763524185 L 207.91047317999946 459.91733955645793 L 207.910473179999 459.91733955645793 L 202.92411354605628 560.5814469078266 C 202.8899588945445 561.2709574443157 203.42122980883718 561.8576039899316 204.11074034532635 561.8917586414434 C 204.13179689790326 561.8928016700518 204.15275752011584 561.89331738604 204.1736094065879 561.89331738604 C 204.8355661316229 561.89331738604 205.38794045603976 561.3735858260856 205.4210520789432 560.7051318421734 L 210.40741171288593 460.04102449080466 L 210.40741171288664 460.04102449080466 L 213.40373795234916 460.18944641202063 L 213.4037379523503 460.18944641202063 L 210.00000000000006 443 Z" fill-opacity="0.6980392156862745"/><g transform="scale(19,19)"><g transform="translate(9.31578947368421,32.47247368421053)"><path fill="rgb(46,125,50)" stroke="none" paint-order="stroke fill markers" d=" M 0.78 -0.663 L 0.442 0.015 Q 0.434 0.03 0.426 0.032 Q 0.422 0.033 0.41600000000000004 0.033 Q 0.4 0.033 0.394 0.022 Q 0.393 0.02 0.39 0.015 L 0.052000000000000005 -0.663 Q 0.047 -0.672 0.047 -0.675 Q 0.053 -0.683 0.069 -0.683 L 0.763 -0.683 Q 0.784 -0.683 0.785 -0.675 Q 0.785 -0.672 0.78 -0.663 M 0.17 -0.612 L 0.445 -0.061 L 0.446 -0.061 L 0.72 -0.612 L 0.17 -0.612 Z"/></g><g transform="translate(10.14878947368421,32.622473684210526) scale(0.7,0.7)"><path fill="rgb(46,125,50)" stroke="none" paint-order="stroke fill markers" d=" M 0.15087890625 -0.0361328125 L 0.02685546875 -0.421875 Q 0.02490234375 -0.427734375 0.02490234375 -0.43017578125 Q 0.02490234375 -0.4404296875 0.03369140625 -0.44921875 Q 0.04248046875 -0.4580078125 0.05322265625 -0.4580078125 L 0.10498046875 -0.4580078125 Q 0.12109375 -0.4580078125 0.135009765625 -0.44775390625 Q 0.14892578125 -0.4375 0.15380859375 -0.421875 L 0.2509765625 -0.1201171875 L 0.34814453125 -0.421875 Q 0.35302734375 -0.4375 0.366943359375 -0.44775390625 Q 0.380859375 -0.4580078125 0.39697265625 -0.4580078125 L 0.44580078125 -0.4580078125 Q 0.45654296875 -0.4580078125 0.46533203125 -0.44921875 Q 0.47412109375 -0.4404296875 0.47412109375 -0.43017578125 Q 0.47412109375 -0.427734375 0.47216796875 -0.421875 L 0.34814453125 -0.0361328125 Q 0.3427734375 -0.02001953125 0.328857421875 -0.010009765625 Q 0.31494140625 0 0.298828125 0 L 0.2001953125 0 Q 0.18408203125 0 0.17041015625 -0.010009765625 Q 0.15673828125 -0.02001953125 0.15087890625 -0.0361328125 Z"/></g><g transform="translate(10.50928947368421,32.47247368421053)"><path fill="rgb(46,125,50)" stroke="none" paint-order="stroke fill markers" d=" M 0.78 -0.663 L 0.442 0.015 Q 0.434 0.03 0.426 0.032 Q 0.422 0.033 0.41600000000000004 0.033 Q 0.4 0.033 0.394 0.022 Q 0.393 0.02 0.39 0.015 L 0.052000000000000005 -0.663 Q 0.047 -0.672 0.047 -0.675 Q 0.053 -0.683 0.069 -0.683 L 0.763 -0.683 Q 0.784 -0.683 0.785 -0.675 Q 0.785 -0.672 0.78 -0.663 M 0.17 -0.612 L 0.445 -0.061 L 0.446 -0.061 L 0.72 -0.612 L 0.17 -0.612 Z"/></g><g transform="translate(11.342289473684211,32.622473684210526) scale(0.7,0.7)"><path fill="rgb(46,125,50)" stroke="none" paint-order="stroke fill markers" d=" M 0.15087890625 -0.0361328125 L 0.02685546875 -0.421875 Q 0.02490234375 -0.427734375 0.02490234375 -0.43017578125 Q 0.02490234375 -0.4404296875 0.03369140625 -0.44921875 Q 0.04248046875 -0.4580078125 0.05322265625 -0.4580078125 L 0.10498046875 -0.4580078125 Q 0.12109375 -0.4580078125 0.135009765625 -0.44775390625 Q 0.14892578125 -0.4375 0.15380859375 -0.421875 L 0.2509765625 -0.1201171875 L 0.34814453125 -0.421875 Q 0.35302734375 -0.4375 0.366943359375 -0.44775390625 Q 0.380859375 -0.4580078125 0.39697265625 -0.4580078125 L 0.44580078125 -0.4580078125 Q 0.45654296875 -0.4580078125 0.46533203125 -0.44921875 Q 0.47412109375 -0.4404296875 0.47412109375 -0.43017578125 Q 0.47412109375 -0.427734375 0.47216796875 -0.421875 L 0.34814453125 -0.0361328125 Q 0.3427734375 -0.02001953125 0.328857421875 -0.010009765625 Q 0.31494140625 0 0.298828125 0 L 0.2001953125 0 Q 0.18408203125 0 0.17041015625 -0.010009765625 Q 0.15673828125 -0.02001953125 0.15087890625 -0.0361328125 Z"/></g><g transform="translate(11.702789473684211,32.47247368421053)"><path fill="rgb(46,125,50)" stroke="none" paint-order="stroke fill markers" d=" M 0.0380859375 -0.037109375 Q 0.03076171875 -0.04052734375 0.03076171875 -0.048828125 L 0.046875 -0.13720703125 Q 0.048828125 -0.14892578125 0.05908203125 -0.14892578125 Q 0.0654296875 -0.14892578125 0.06884765625 -0.14404296875 Q 0.0947265625 -0.10986328125 0.134033203125 -0.09033203125 Q 0.17333984375 -0.07080078125 0.216796875 -0.07080078125 Q 0.251953125 -0.07080078125 0.27294921875 -0.081298828125 Q 0.2939453125 -0.091796875 0.2939453125 -0.123046875 Q 0.2939453125 -0.1435546875 0.2763671875 -0.156494140625 Q 0.2587890625 -0.16943359375 0.23681640625 -0.173828125 L 0.17822265625 -0.18505859375 Q 0.11865234375 -0.197265625 0.077880859375 -0.234619140625 Q 0.037109375 -0.27197265625 0.037109375 -0.328125 Q 0.037109375 -0.38232421875 0.06005859375 -0.41552734375 Q 0.0830078125 -0.44873046875 0.122314453125 -0.4619140625 Q 0.16162109375 -0.47509765625 0.216796875 -0.47509765625 Q 0.25146484375 -0.47509765625 0.314697265625 -0.462158203125 Q 0.3779296875 -0.44921875 0.3779296875 -0.42919921875 L 0.365234375 -0.35400390625 Q 0.36279296875 -0.341796875 0.35205078125 -0.341796875 Q 0.34814453125 -0.341796875 0.34521484375 -0.34521484375 Q 0.28564453125 -0.39990234375 0.2080078125 -0.39990234375 Q 0.17578125 -0.39990234375 0.157470703125 -0.390625 Q 0.13916015625 -0.38134765625 0.13916015625 -0.35302734375 Q 0.13916015625 -0.3359375 0.154541015625 -0.32373046875 Q 0.169921875 -0.3115234375 0.18896484375 -0.30810546875 L 0.2529296875 -0.2958984375 Q 0.29052734375 -0.28857421875 0.32373046875 -0.267578125 Q 0.35693359375 -0.24658203125 0.37646484375 -0.215087890625 Q 0.39599609375 -0.18359375 0.39599609375 -0.14404296875 Q 0.39599609375 -0.060546875 0.34912109375 -0.024658203125 Q 0.30224609375 0.01123046875 0.216796875 0.01123046875 Q 0.16845703125 0.01123046875 0.123779296875 -0.000732421875 Q 0.0791015625 -0.0126953125 0.0380859375 -0.037109375 Z"/></g></g><g transform="scale(19,19)"><g transform="translate(10.526315789473685,19.458)"><path fill="rgb(219,97,20)" stroke="none" paint-order="stroke fill markers" d=" M 0.0380859375 -0.037109375 Q 0.03076171875 -0.04052734375 0.03076171875 -0.048828125 L 0.046875 -0.13720703125 Q 0.048828125 -0.14892578125 0.05908203125 -0.14892578125 Q 0.0654296875 -0.14892578125 0.06884765625 -0.14404296875 Q 0.0947265625 -0.10986328125 0.134033203125 -0.09033203125 Q 0.17333984375 -0.07080078125 0.216796875 -0.07080078125 Q 0.251953125 -0.07080078125 0.27294921875 -0.081298828125 Q 0.2939453125 -0.091796875 0.2939453125 -0.123046875 Q 0.2939453125 -0.1435546875 0.2763671875 -0.156494140625 Q 0.2587890625 -0.16943359375 0.23681640625 -0.173828125 L 0.17822265625 -0.18505859375 Q 0.11865234375 -0.197265625 0.077880859375 -0.234619140625 Q 0.037109375 -0.27197265625 0.037109375 -0.328125 Q 0.037109375 -0.38232421875 0.06005859375 -0.41552734375 Q 0.0830078125 -0.44873046875 0.122314453125 -0.4619140625 Q 0.16162109375 -0.47509765625 0.216796875 -0.47509765625 Q 0.25146484375 -0.47509765625 0.314697265625 -0.462158203125 Q 0.3779296875 -0.44921875 0.3779296875 -0.42919921875 L 0.365234375 -0.35400390625 Q 0.36279296875 -0.341796875 0.35205078125 -0.341796875 Q 0.34814453125 -0.341796875 0.34521484375 -0.34521484375 Q 0.28564453125 -0.39990234375 0.2080078125 -0.39990234375 Q 0.17578125 -0.39990234375 0.157470703125 -0.390625 Q 0.13916015625 -0.38134765625 0.13916015625 -0.35302734375 Q 0.13916015625 -0.3359375 0.154541015625 -0.32373046875 Q 0.169921875 -0.3115234375 0.18896484375 -0.30810546875 L 0.2529296875 -0.2958984375 Q 0.29052734375 -0.28857421875 0.32373046875 -0.267578125 Q 0.35693359375 -0.24658203125 0.37646484375 -0.215087890625 Q 0.39599609375 -0.18359375 0.39599609375 -0.14404296875 Q 0.39599609375 -0.060546875 0.34912109375 -0.024658203125 Q 0.30224609375 0.01123046875 0.216796875 0.01123046875 Q 0.16845703125 0.01123046875 0.123779296875 -0.000732421875 Q 0.0791015625 -0.0126953125 0.0380859375 -0.037109375 Z"/></g></g><g transform="scale(19,19)"><g transform="translate(10.578947368421053,10.14221052631579)"><path fill="rgb(219,97,20)" stroke="none" paint-order="stroke fill markers" d=" M 0.0380859375 -0.037109375 Q 0.03076171875 -0.04052734375 0.03076171875 -0.048828125 L 0.046875 -0.13720703125 Q 0.048828125 -0.14892578125 0.05908203125 -0.14892578125 Q 0.0654296875 -0.14892578125 0.06884765625 -0.14404296875 Q 0.0947265625 -0.10986328125 0.134033203125 -0.09033203125 Q 0.17333984375 -0.07080078125 0.216796875 -0.07080078125 Q 0.251953125 -0.07080078125 0.27294921875 -0.081298828125 Q 0.2939453125 -0.091796875 0.2939453125 -0.123046875 Q 0.2939453125 -0.1435546875 0.2763671875 -0.156494140625 Q 0.2587890625 -0.16943359375 0.23681640625 -0.173828125 L 0.17822265625 -0.18505859375 Q 0.11865234375 -0.197265625 0.077880859375 -0.234619140625 Q 0.037109375 -0.27197265625 0.037109375 -0.328125 Q 0.037109375 -0.38232421875 0.06005859375 -0.41552734375 Q 0.0830078125 -0.44873046875 0.122314453125 -0.4619140625 Q 0.16162109375 -0.47509765625 0.216796875 -0.47509765625 Q 0.25146484375 -0.47509765625 0.314697265625 -0.462158203125 Q 0.3779296875 -0.44921875 0.3779296875 -0.42919921875 L 0.365234375 -0.35400390625 Q 0.36279296875 -0.341796875 0.35205078125 -0.341796875 Q 0.34814453125 -0.341796875 0.34521484375 -0.34521484375 Q 0.28564453125 -0.39990234375 0.2080078125 -0.39990234375 Q 0.17578125 -0.39990234375 0.157470703125 -0.390625 Q 0.13916015625 -0.38134765625 0.13916015625 -0.35302734375 Q 0.13916015625 -0.3359375 0.154541015625 -0.32373046875 Q 0.169921875 -0.3115234375 0.18896484375 -0.30810546875 L 0.2529296875 -0.2958984375 Q 0.29052734375 -0.28857421875 0.32373046875 -0.267578125 Q 0.35693359375 -0.24658203125 0.37646484375 -0.215087890625 Q 0.39599609375 -0.18359375 0.39599609375 -0.14404296875 Q 0.39599609375 -0.060546875 0.34912109375 -0.024658203125 Q 0.30224609375 0.01123046875 0.216796875 0.01123046875 Q 0.16845703125 0.01123046875 0.123779296875 -0.000732421875 Q 0.0791015625 -0.0126953125 0.0380859375 -0.037109375 Z"/></g></g><g transform="scale(19,19)"><g transform="translate(11.526315789473685,23.826421052631577)"><path fill="rgb(21,101,192)" stroke="none" paint-order="stroke fill markers" d=" M 0.15087890625 -0.0361328125 L 0.02685546875 -0.421875 Q 0.02490234375 -0.427734375 0.02490234375 -0.43017578125 Q 0.02490234375 -0.4404296875 0.03369140625 -0.44921875 Q 0.04248046875 -0.4580078125 0.05322265625 -0.4580078125 L 0.10498046875 -0.4580078125 Q 0.12109375 -0.4580078125 0.135009765625 -0.44775390625 Q 0.14892578125 -0.4375 0.15380859375 -0.421875 L 0.2509765625 -0.1201171875 L 0.34814453125 -0.421875 Q 0.35302734375 -0.4375 0.366943359375 -0.44775390625 Q 0.380859375 -0.4580078125 0.39697265625 -0.4580078125 L 0.44580078125 -0.4580078125 Q 0.45654296875 -0.4580078125 0.46533203125 -0.44921875 Q 0.47412109375 -0.4404296875 0.47412109375 -0.43017578125 Q 0.47412109375 -0.427734375 0.47216796875 -0.421875 L 0.34814453125 -0.0361328125 Q 0.3427734375 -0.02001953125 0.328857421875 -0.010009765625 Q 0.31494140625 0 0.298828125 0 L 0.2001953125 0 Q 0.18408203125 0 0.17041015625 -0.010009765625 Q 0.15673828125 -0.02001953125 0.15087890625 -0.0361328125 Z"/></g></g><g transform="scale(19,19)"><g transform="translate(9.368421052631579,23.773789473684207)"><path fill="rgb(21,101,192)" stroke="none" paint-order="stroke fill markers" d=" M 0.15087890625 -0.0361328125 L 0.02685546875 -0.421875 Q 0.02490234375 -0.427734375 0.02490234375 -0.43017578125 Q 0.02490234375 -0.4404296875 0.03369140625 -0.44921875 Q 0.04248046875 -0.4580078125 0.05322265625 -0.4580078125 L 0.10498046875 -0.4580078125 Q 0.12109375 -0.4580078125 0.135009765625 -0.44775390625 Q 0.14892578125 -0.4375 0.15380859375 -0.421875 L 0.2509765625 -0.1201171875 L 0.34814453125 -0.421875 Q 0.35302734375 -0.4375 0.366943359375 -0.44775390625 Q 0.380859375 -0.4580078125 0.39697265625 -0.4580078125 L 0.44580078125 -0.4580078125 Q 0.45654296875 -0.4580078125 0.46533203125 -0.44921875 Q 0.47412109375 -0.4404296875 0.47412109375 -0.43017578125 Q 0.47412109375 -0.427734375 0.47216796875 -0.421875 L 0.34814453125 -0.0361328125 Q 0.3427734375 -0.02001953125 0.328857421875 -0.010009765625 Q 0.31494140625 0 0.298828125 0 L 0.2001953125 0 Q 0.18408203125 0 0.17041015625 -0.010009765625 Q 0.15673828125 -0.02001953125 0.15087890625 -0.0361328125 Z"/></g></g></g></g></svg>