<svg version="1.1" xmlns="http://www.w3.org/2000/svg" xmlns:xlink="http://www.w3.org/1999/xlink" width="407" height="635"><defs><clipPath id="fbZhoZPBkmwA"><path fill="none" stroke="none" d=" M 0 0 L 407 0 L 407 635 L 0 635 L 0 0 Z"/></clipPath></defs><g transform="scale(1,1)" clip-path="url(#fbZhoZPBkmwA)"><g><rect fill="rgb(255,255,255,0)" stroke="none" x="0" y="0" width="407" height="635" fill-opacity="1"/><path fill="none" stroke="rgb(0,0,0)" paint-order="fill stroke markers" d=" M 204.17258281249974 560.643289375 L 382.0565281249998 26.991453437500013" stroke-opacity="0.6980392156862745" stroke-linecap="round" stroke-linejoin="round" stroke-miterlimit="10" stroke-width="2.5"/><path fill="none" stroke="rgb(0,0,0)" paint-order="fill stroke markers" d=" M 204.17258281249974 560.643289375 L 26.28863749999968 26.991453437500013" stroke-opacity="0.6980392156862745" stroke-linecap="round" stroke-linejoin="round" stroke-miterlimit="10" stroke-width="2.5"/><path fill="rgb(219,97,20)" stroke="none" paint-order="stroke fill markers" d=" M 246.46723124999977 378.5093440625 L 246.46723124999977 381.5093440625 L 144.8779343749997 381.5093440625 C 144.1875784377112 381.5093440625 143.6279343749997 382.06898812521155 143.6279343749997 382.7593440625 C 143.6279343749997 383.4496999997885 144.1875784377112 384.0093440625 144.8779343749997 384.0093440625 L 246.46723124999977 384.0093440625 L 246.46723124999977 387.0093440625 L 263.46723124999977 382.7593440625 L 246.46723124999977 378.5093440625 Z" fill-opacity="0.6980392156862745"/><path fill="rgb(219,97,20)" stroke="none" paint-order="stroke fill markers" d=" M 305.7618796874998 200.62539875000004 L 305.7618796874998 203.62539875000004 L 85.5832859374997 203.62539875000004 C 84.89293000021121 203.62539875000004 84.3332859374997 204.18504281271154 84.3332859374997 204.87539875000004 C 84.3332859374997 205.56575468728855 84.89293000021121 206.12539875000004 85.5832859374997 206.12539875000004 L 305.7618796874998 206.12539875000004 L 305.7618796874998 209.12539875000004 L 322.7618796874998 204.87539875000004 L 305.7618796874998 200.62539875000004 Z" fill-opacity="0.6980392156862745"/><path fill="rgb(21,101,192)" stroke="none" paint-order="stroke fill markers" d=" M 243.64831134374978 442.2161037812499 L 234.24053530474885 456.9997518425371 L 237.0865851989004 457.9484351405876 L 202.9867286899366 560.248004667479 C 202.76841897413144 560.9029338148946 203.12236895756314 561.610833781758 203.77729810497874 561.8291434975631 C 203.90844644820208 561.8728596119709 204.04171888512434 561.8936285030968 204.17275875143397 561.8936285030968 C 204.69610632007246 561.8936285030968 205.1838433336655 561.5623548867133 205.35843693506288 561.038574082521 L 239.45829344402668 458.7390045556297 L 242.30434333817823 459.68768785368025 L 243.64831134374978 442.2161037812499 Z" fill-opacity="0.6980392156862745"/><path fill="rgb(21,101,192)" stroke="none" paint-order="stroke fill markers" d=" M 164.96233771874975 443.0125540937501 L 166.3063057243213 460.4841381661804 L 169.15235561847285 459.5354548681299 L 202.9867286899366 561.038574082521 C 203.161322291334 561.5623548867133 203.64905930492702 561.8936285030968 204.1724068735655 561.8936285030968 C 204.30344673987514 561.8936285030968 204.4367191767974 561.8728596119709 204.56786752002074 561.8291434975631 C 205.22279666743634 561.610833781758 205.57674665086805 560.9029338148946 205.35843693506288 560.248004667479 L 171.52406386359914 458.74488545308776 L 174.3701137577507 457.79620215503724 L 164.96233771874975 443.0125540937501 Z" fill-opacity="0.6980392156862745"/><g transform="scale(19,19)"><g transform="translate(10.526315789473685,19.458)"><path fill="rgb(219,97,20)" stroke="none" paint-order="stroke fill markers" d=" M 0.0380859375 -0.037109375 Q 0.03076171875 -0.04052734375 0.03076171875 -0.048828125 L 0.046875 -0.13720703125 Q 0.048828125 -0.14892578125 0.05908203125 -0.14892578125 Q 0.0654296875 -0.14892578125 0.06884765625 -0.14404296875 Q 0.0947265625 -0.10986328125 0.134033203125 -0.09033203125 Q 0.17333984375 -0.07080078125 0.216796875 -0.07080078125 Q 0.251953125 -0.07080078125 0.27294921875 -0.081298828125 Q 0.2939453125 -0.091796875 0.2939453125 -0.123046875 Q 0.2939453125 -0.1435546875 0.2763671875 -0.156494140625 Q 0.2587890625 -0.16943359375 0.23681640625 -0.173828125 L 0.17822265625 -0.18505859375 Q 0.11865234375 -0.197265625 0.077880859375 -0.234619140625 Q 0.037109375 -0.27197265625 0.037109375 -0.328125 Q 0.037109375 -0.38232421875 0.06005859375 -0.41552734375 Q 0.0830078125 -0.44873046875 0.122314453125 -0.4619140625 Q 0.16162109375 -0.47509765625 0.216796875 -0.47509765625 Q 0.25146484375 -0.47509765625 0.314697265625 -0.462158203125 Q 0.3779296875 -0.44921875 0.3779296875 -0.42919921875 L 0.365234375 -0.35400390625 Q 0.36279296875 -0.341796875 0.35205078125 -0.341796875 Q 0.34814453125 -0.341796875 0.34521484375 -0.34521484375 Q 0.28564453125 -0.39990234375 0.2080078125 -0.39990234375 Q 0.17578125 -0.39990234375 0.157470703125 -0.390625 Q 0.13916015625 -0.38134765625 0.13916015625 -0.35302734375 Q 0.13916015625 -0.3359375 0.154541015625 -0.32373046875 Q 0.169921875 -0.3115234375 0.18896484375 -0.30810546875 L 0.2529296875 -0.2958984375 Q 0.29052734375 -0.28857421875 0.32373046875 -0.267578125 Q 0.35693359375 -0.24658203125 0.37646484375 -0.215087890625 Q 0.39599609375 -0.18359375 0.39599609375 -0.14404296875 Q 0.39599609375 -0.060546875 0.34912109375 -0.024658203125 Q 0.30224609375 0.01123046875 0.216796875 0.01123046875 Q 0.16845703125 0.01123046875 0.123779296875 -0.000732421875 Q 0.0791015625 -0.0126953125 0.0380859375 -0.037109375 Z"/></g></g><g transform="scale(19,19)"><g transform="translate(10.578947368421053,10.14221052631579)"><path fill="rgb(219,97,20)" stroke="none" paint-order="stroke fill markers" d=" M 0.0380859375 -0.037109375 Q 0.03076171875 -0.04052734375 0.03076171875 -0.048828125 L 0.046875 -0.13720703125 Q 0.048828125 -0.14892578125 0.05908203125 -0.14892578125 Q 0.0654296875 -0.14892578125 0.06884765625 -0.14404296875 Q 0.0947265625 -0.10986328125 0.134033203125 -0.09033203125 Q 0.17333984375 -0.07080078125 0.216796875 -0.07080078125 Q 0.251953125 -0.07080078125 0.27294921875 -0.081298828125 Q 0.2939453125 -0.091796875 0.2939453125 -0.123046875 Q 0.2939453125 -0.1435546875 0.2763671875 -0.156494140625 Q 0.2587890625 -0.16943359375 0.23681640625 -0.173828125 L 0.17822265625 -0.18505859375 Q 0.11865234375 -0.197265625 0.077880859375 -0.234619140625 Q 0.037109375 -0.27197265625 0.037109375 -0.328125 Q 0.037109375 -0.38232421875 0.06005859375 -0.41552734375 Q 0.0830078125 -0.44873046875 0.122314453125 -0.4619140625 Q 0.16162109375 -0.47509765625 0.216796875 -0.47509765625 Q 0.25146484375 -0.47509765625 0.314697265625 -0.462158203125 Q 0.3779296875 -0.44921875 0.3779296875 -0.42919921875 L 0.365234375 -0.35400390625 Q 0.36279296875 -0.341796875 0.35205078125 -0.341796875 Q 0.34814453125 -0.341796875 0.34521484375 -0.34521484375 Q 0.28564453125 -0.39990234375 0.2080078125 -0.39990234375 Q 0.17578125 -0.39990234375 0.157470703125 -0.390625 Q 0.13916015625 -0.38134765625 0.13916015625 -0.35302734375 Q 0.13916015625 -0.3359375 0.154541015625 -0.32373046875 Q 0.169921875 -0.3115234375 0.18896484375 -0.30810546875 L 0.2529296875 -0.2958984375 Q 0.29052734375 -0.28857421875 0.32373046875 -0.267578125 Q 0.35693359375 -0.24658203125 0.37646484375 -0.215087890625 Q 0.39599609375 -0.18359375 0.39599609375 -0.14404296875 Q 0.39599609375 -0.060546875 0.34912109375 -0.024658203125 Q 0.30224609375 0.01123046875 0.216796875 0.01123046875 Q 0.16845703125 0.01123046875 0.123779296875 -0.000732421875 Q 0.0791015625 -0.0126953125 0.0380859375 -0.037109375 Z"/></g></g><g transform="scale(19,19)"><g transform="translate(13.263157894736842,23.615894736842105)"><path fill="rgb(21,101,192)" stroke="none" paint-order="stroke fill markers" d=" M 0.15087890625 -0.0361328125 L 0.02685546875 -0.421875 Q 0.02490234375 -0.427734375 0.02490234375 -0.43017578125 Q 0.02490234375 -0.4404296875 0.03369140625 -0.44921875 Q 0.04248046875 -0.4580078125 0.05322265625 -0.4580078125 L 0.10498046875 -0.4580078125 Q 0.12109375 -0.4580078125 0.135009765625 -0.44775390625 Q 0.14892578125 -0.4375 0.15380859375 -0.421875 L 0.2509765625 -0.1201171875 L 0.34814453125 -0.421875 Q 0.35302734375 -0.4375 0.366943359375 -0.44775390625 Q 0.380859375 -0.4580078125 0.39697265625 -0.4580078125 L 0.44580078125 -0.4580078125 Q 0.45654296875 -0.4580078125 0.46533203125 -0.44921875 Q 0.47412109375 -0.4404296875 0.47412109375 -0.43017578125 Q 0.47412109375 -0.427734375 0.47216796875 -0.421875 L 0.34814453125 -0.0361328125 Q 0.3427734375 -0.02001953125 0.328857421875 -0.010009765625 Q 0.31494140625 0 0.298828125 0 L 0.2001953125 0 Q 0.18408203125 0 0.17041015625 -0.010009765625 Q 0.15673828125 -0.02001953125 0.15087890625 -0.0361328125 Z"/></g></g><g transform="scale(19,19)"><g transform="translate(7.684210526315789,23.563263157894735)"><path fill="rgb(21,101,192)" stroke="none" paint-order="stroke fill markers" d=" M 0.15087890625 -0.0361328125 L 0.02685546875 -0.421875 Q 0.02490234375 -0.427734375 0.02490234375 -0.43017578125 Q 0.02490234375 -0.4404296875 0.03369140625 -0.44921875 Q 0.04248046875 -0.4580078125 0.05322265625 -0.4580078125 L 0.10498046875 -0.4580078125 Q 0.12109375 -0.4580078125 0.135009765625 -0.44775390625 Q 0.14892578125 -0.4375 0.15380859375 -0.421875 L 0.2509765625 -0.1201171875 L 0.34814453125 -0.421875 Q 0.35302734375 -0.4375 0.366943359375 -0.44775390625 Q 0.380859375 -0.4580078125 0.39697265625 -0.4580078125 L 0.44580078125 -0.4580078125 Q 0.45654296875 -0.4580078125 0.46533203125 -0.44921875 Q 0.47412109375 -0.4404296875 0.47412109375 -0.43017578125 Q 0.47412109375 -0.427734375 0.47216796875 -0.421875 L 0.34814453125 -0.0361328125 Q 0.3427734375 -0.02001953125 0.328857421875 -0.010009765625 Q 0.31494140625 0 0.298828125 0 L 0.2001953125 0 Q 0.18408203125 0 0.17041015625 -0.010009765625 Q 0.15673828125 -0.02001953125 0.15087890625 -0.0361328125 Z"/></g></g></g></g></svg>