<svg version="1.1" xmlns="http://www.w3.org/2000/svg" xmlns:xlink="http://www.w3.org/1999/xlink" width="893" height="337"><defs><clipPath id="QbCuAiBZkKmF"><path fill="none" stroke="none" d=" M 0 0 L 893 0 L 893 337 L 0 337 L 0 0 Z"/></clipPath></defs><g transform="scale(1,1)" clip-path="url(#QbCuAiBZkKmF)"><g><rect fill="rgb(255,255,255,0)" stroke="none" x="0" y="0" width="893" height="337" fill-opacity="1"/><path fill="rgb(0,255,0)" stroke="none" paint-order="stroke fill markers" d=" M 267.8360866587189 222.044482407061 L 250.33181129630236 222.85863474949898 L 251.1938549530014 225.73211360516243 L 183.98695232845063 245.89418439252768 C 183.32571126555723 246.0925567113957 182.9504820100141 246.78941104311866 183.14885432888212 247.45065210601206 C 183.3112926776852 247.992113268689 183.80797569165676 248.34179635649718 184.34565120390926 248.34179635649718 C 184.46459365748808 248.34179635649718 184.58554214215005 248.3246840756455 184.7053220423665 248.28875010558056 L 251.91222466691718 228.12667931821534 L 251.91222466691727 228.12667931821534 L 252.7742683236163 231.00015817387876 L 267.8360866587189 222.044482407061 Z" fill-opacity="1"/><path fill="rgb(0,255,0)" stroke="none" paint-order="stroke fill markers" d=" M 790.8324844076076 65.14556308239423 L 773.328209045191 65.95971542483221 L 774.19025270189 68.83319428049568 L 774.1902527018901 68.83319428049568 L 706.9833500773394 88.99526506786088 C 706.322109014446 89.19363738672888 705.9468797589029 89.8904917184518 706.1452520777709 90.55173278134521 C 706.307690426574 91.09319394402216 706.8043734405455 91.44287703183036 707.3420489527979 91.44287703183038 C 707.4609914063767 91.44287703183038 707.5819398910387 91.4257647509787 707.7017197912552 91.38983078091377 L 774.9086224158059 71.22775999354855 L 774.908622415806 71.22775999354855 L 775.770666072505 74.101238849212 L 790.8324844076076 65.14556308239423 Z" fill-opacity="1"/><path fill="none" stroke="rgb(102,204,255)" paint-order="fill stroke markers" d=" M 10.014004602445652 299.39110702394305 L 13.418929066956647 298.3696296845897 L 16.82385353146764 297.34815234523643 L 20.228777995978636 296.32667500588315 L 23.63370246048963 295.3051976665298 L 27.038626925000624 294.2837203271765 L 30.44355138951162 293.26224298782324 L 33.84847585402261 292.24076564846996 L 37.25340031853361 291.2192883091166 L 40.658324783044606 290.19781096976334 L 44.063249247555596 289.17633363041006 L 47.46817371206659 288.1548562910567 L 50.873098176577585 287.13337895170343 L 54.27802264108858 286.11190161235015 L 57.682947105599574 285.09042427299687 L 61.087871570110565 284.06894693364353 L 64.49279603462156 283.04746959429025 L 67.89772049913256 282.02599225493697 L 71.30264496364356 281.0045149155836 L 74.70756942815454 279.98303757623034 L 78.11249389266554 278.96156023687706 L 81.51741835717654 277.9400828975237 L 84.92234282168752 276.91860555817044 L 88.32726728619852 275.89712821881716 L 91.73219175070952 274.8756508794638 L 95.13711621522052 273.85417354011054 L 98.54204067973151 272.83269620075725 L 101.9469651442425 271.811218861404 L 105.3518896087535 270.78974152205063 L 108.7568140732645 269.76826418269735 L 112.16173853777548 268.74678684334407 L 115.56666300228648 267.72530950399073 L 118.97158746679747 266.70383216463745 L 122.37651193130847 265.68235482528416 L 125.78143639581947 264.6608774859309 L 129.18636086033047 263.63940014657754 L 132.59128532484146 262.61792280722426 L 135.99620978935246 261.596445467871 L 139.40113425386343 260.57496812851764 L 142.80605871837443 259.55349078916436 L 146.21098318288543 258.5320134498111 L 149.61590764739643 257.51053611045774 L 153.02083211190742 256.48905877110445 L 156.42575657641842 255.46758143175117 L 159.8306810409294 254.44610409239786 L 163.2356055054404 253.42462675304458 L 166.6405299699514 252.40314941369127 L 170.04545443446239 251.38167207433796 L 173.45037889897338 250.36019473498467 L 176.85530336348438 249.33871739563136 L 180.26022782799538 248.31724005627808 L 183.66515229250638 247.29576271692477 L 187.07007675701738 246.27428537757146 L 190.47500122152834 245.25280803821818 L 193.87992568603934 244.23133069886487 L 197.28485015055034 243.20985335951158 L 200.68977461506134 242.18837602015827 L 204.09469907957234 241.166898680805 L 207.49962354408333 240.14542134145168 L 210.90454800859433 239.12394400209837 L 214.3094724731053 238.1024666627451 L 217.7143969376163 237.08098932339178 L 221.1193214021273 236.05951198403847 L 224.5242458666383 235.03803464468518 L 227.9291703311493 234.01655730533187 L 231.3340947956603 232.9950799659786 L 234.7390192601713 231.97360262662528 L 238.1439437246823 230.952125287272 L 241.54886818919329 229.9306479479187 L 244.95379265370426 228.90917060856538 L 248.35871711821525 227.8876932692121 L 251.76364158272625 226.86621592985878 L 255.16856604723725 225.8447385905055 L 258.5734905117482 224.8232612511522 L 261.9784149762593 223.8017839117989 L 265.3833394407702 222.7803065724456 L 268.7882639052812 221.75882923309229 L 272.1931883697922 220.737351893739 L 275.5981128343032 219.7158745543857 L 279.0030372988142 218.69439721503238 L 282.4079617633252 217.6729198756791 L 285.8128862278362 216.6514425363258 L 289.2178106923472 215.6299651969725 L 292.6227351568582 214.6084878576192 L 296.0276596213692 213.5870105182659 L 299.4325840858802 212.5655331789126 L 302.8375085503912 211.5440558395593 L 306.2424330149022 210.522578500206 L 309.64735747941313 209.5011011608527 L 313.05228194392413 208.4796238214994 L 316.4572064084351 207.4581464821461 L 319.8621308729461 206.43666914279282 L 323.2670553374571 205.4151918034395 L 326.6719798019681 204.3937144640862 L 330.0769042664791 203.37223712473292 L 333.4818287309901 202.3507597853796 L 336.8867531955011 201.3292824460263 L 340.2916776600121 200.30780510667302 L 343.6966021245231 199.2863277673197 L 347.1015265890341 198.26485042796642 L 350.5064510535451 197.2433730886131 L 353.9113755180561 196.22189574925983 L 357.3162999825671 195.20041840990652 L 360.7212244470781 194.1789410705532 L 364.1261489115891 193.15746373119993 L 367.53107337610004 192.13598639184661 L 370.93599784061104 191.1145090524933 L 374.34092230512204 190.09303171314002 L 377.74584676963303 189.07155437378674 L 381.15077123414403 188.0500770344334 L 384.55569569865503 187.02859969508012 L 387.960620163166 186.00712235572684 L 391.365544627677 184.98564501637352 L 394.770469092188 183.9641676770202 L 398.175393556699 182.94269033766693 L 401.58031802121 181.92121299831362 L 404.985242485721 180.8997356589603 L 408.390166950232 179.87825831960703 L 411.795091414743 178.85678098025375 L 415.200015879254 177.83530364090043 L 418.60494034376495 176.81382630154712 L 422.00986480827595 175.79234896219384 L 425.41478927278695 174.77087162284053 L 428.81971373729795 173.74939428348722 L 432.22463820180894 172.72791694413394 L 435.62956266631994 171.70643960478066 L 439.03448713083094 170.68496226542732 L 442.43941159534194 169.66348492607403 L 445.84433605985294 168.64200758672075 L 449.24926052436393 167.62053024736744 L 452.65418498887493 166.59905290801413 L 456.05910945338593 165.57757556866085 L 459.4640339178969 164.55609822930754 L 462.8689583824079 163.53462088995423 L 466.2738828469189 162.51314355060094 L 469.6788073114299 161.49166621124766 L 473.0837317759409 160.47018887189435 L 476.48865624045186 159.44871153254104 L 479.89358070496286 158.42723419318776 L 483.29850516947386 157.40575685383445 L 486.70342963398485 156.38427951448114 L 490.10835409849585 155.36280217512785 L 493.51327856300685 154.34132483577454 L 496.91820302751785 153.31984749642123 L 500.32312749202885 152.29837015706795 L 503.72805195653984 151.27689281771467 L 507.13297642105084 150.25541547836136 L 510.53790088556184 149.23393813900805 L 513.9428253500728 148.21246079965476 L 517.3477498145838 147.19098346030145 L 520.7526742790949 146.16950612094814 L 524.1575987436058 145.14802878159486 L 527.5625232081168 144.12655144224158 L 530.9674476726278 143.10507410288824 L 534.3723721371388 142.08359676353496 L 537.7772966016498 141.06211942418167 L 541.1822210661608 140.04064208482836 L 544.5871455306718 139.01916474547505 L 547.9920699951828 137.99768740612177 L 551.3969944596938 136.97621006676846 L 554.8019189242048 135.95473272741515 L 558.2068433887157 134.93325538806187 L 561.6117678532268 133.91177804870858 L 565.0166923177377 132.89030070935527 L 568.4216167822487 131.86882337000196 L 571.8265412467597 130.84734603064868 L 575.2314657112707 129.82586869129537 L 578.6363901757817 128.80439135194206 L 582.0413146402927 127.78291401258878 L 585.4462391048037 126.76143667323547 L 588.8511635693147 125.73995933388218 L 592.2560880338257 124.71848199452887 L 595.6610124983367 123.69700465517556 L 599.0659369628477 122.67552731582228 L 602.4708614273587 121.65404997646897 L 605.8757858918697 120.63257263711569 L 609.2807103563806 119.61109529776238 L 612.6856348208917 118.5896179584091 L 616.0905592854026 117.56814061905578 L 619.4954837499137 116.54666327970247 L 622.9004082144246 115.52518594034919 L 626.3053326789357 114.50370860099588 L 629.7102571434466 113.4822312616426 L 633.1151816079577 112.46075392228929 L 636.5201060724686 111.43927658293597 L 639.9250305369796 110.41779924358269 L 643.3299550014906 109.39632190422938 L 646.7348794660016 108.3748445648761 L 650.1398039305126 107.35336722552279 L 653.5447283950236 106.33188988616948 L 656.9496528595346 105.3104125468162 L 660.3545773240456 104.28893520746288 L 663.7595017885566 103.2674578681096 L 667.1644262530675 102.24598052875629 L 670.5693507175786 101.22450318940298 L 673.9742751820895 100.2030258500497 L 677.3791996466006 99.18154851069639 L 680.7841241111115 98.1600711713431 L 684.1890485756226 97.1385938319898 L 687.5939730401335 96.11711649263648 L 690.9988975046446 95.0956391532832 L 694.4038219691555 94.07416181392989 L 697.8087464336666 93.05268447457661 L 701.2136708981775 92.0312071352233 L 704.6185953626886 91.00972979587002 L 708.0235198271995 89.9882524565167 L 711.4284442917105 88.9667751171634 L 714.8333687562215 87.94529777781011 L 718.2382932207325 86.9238204384568 L 721.6432176852435 85.90234309910352 L 725.0481421497544 84.88086575975021 L 728.4530666142655 83.8593884203969 L 731.8579910787764 82.83791108104361 L 735.2629155432875 81.8164337416903 L 738.6678400077984 80.79495640233702 L 742.0727644723095 79.77347906298371 L 745.4776889368204 78.7520017236304 L 748.8826134013315 77.73052438427712 L 752.2875378658424 76.7090470449238 L 755.6924623303535 75.68756970557052 L 759.0973867948644 74.66609236621721 L 762.5023112593755 73.6446150268639 L 765.9072357238864 72.62313768751062 L 769.3121601883975 71.60166034815731 L 772.7170846529084 70.58018300880403 L 776.1220091174193 69.55870566945072 L 779.5269335819304 68.53722833009743 L 782.9318580464413 67.51575099074412 L 786.3367825109524 66.49427365139081 L 789.7417069754633 65.47279631203753 L 793.1466314399744 64.45131897268422 L 796.5515559044853 63.42984163333094 L 799.9564803689964 62.40836429397763 L 803.3614048335073 61.386886954624316 L 806.7663292980184 60.365409615271034 L 810.1712537625293 59.34393227591772 L 813.5761782270404 58.32245493656444 L 816.9811026915513 57.30097759721113 L 820.3860271560624 56.27950025785782 L 823.7909516205733 55.25802291850454 L 827.1958760850843 54.236545579151226 L 830.6008005495953 53.215068239797944 L 834.0057250141062 52.19359090044463 L 837.4106494786173 51.17211356109132 L 840.8155739431282 50.15063622173804 L 844.2204984076393 49.12915888238473 L 847.6254228721502 48.10768154303145 L 851.0303473366613 47.086204203678136 L 854.4352718011722 46.064726864324825 L 857.8401962656833 45.04324952497154 L 861.2451207301942 44.02177218561823 L 864.6500451947053 43.00029484626495 L 868.0549696592162 41.97881750691164 L 871.4598941237273 40.95734016755836 L 874.8648185882382 39.935862828205046 L 878.2697430527493 38.914385488851735 L 881.6746675172602 37.89290814949845" stroke-opacity="0.8" stroke-linecap="round" stroke-linejoin="round" stroke-miterlimit="10" stroke-width="2.5"/></g></g></svg>