<svg version="1.1" xmlns="http://www.w3.org/2000/svg" xmlns:xlink="http://www.w3.org/1999/xlink" width="353" height="457"><defs><clipPath id="SgduOAnzyxyR"><path fill="none" stroke="none" d=" M 0 0 L 353 0 L 353 457 L 0 457 L 0 0 Z"/></clipPath></defs><g transform="scale(1,1)" clip-path="url(#SgduOAnzyxyR)"><g><rect fill="rgb(255,255,255,0)" stroke="none" x="0" y="0" width="353" height="457" fill-opacity="1"/><path fill="none" stroke="rgb(192,192,192)" paint-order="fill stroke markers" d=" M 19.814958445827887 435.325949489085 C 19.814958445827887 435.325949489085 19.814958445827887 435.325949489085 19.814958445827887 435.325949489085 C 19.814958445827887 435.325949489085 19.814958445827887 435.325949489085 19.814958445827887 435.325949489085 C 19.814958445827887 435.325949489085 19.814958445827887 435.325949489085 19.814958445827887 435.325949489085 C 19.814958445827887 435.325949489085 19.814958445827887 435.325949489085 19.814958445827887 435.325949489085 Z" stroke-opacity="1" stroke-linecap="round" stroke-linejoin="round" stroke-miterlimit="10"/><path fill="none" stroke="rgb(192,192,192)" paint-order="fill stroke markers" d=" M 101.22248141154341 435.325949489085 C 101.22248141154341 480.2860829445498 64.77509190129264 516.7334724548006 19.814958445827884 516.7334724548006 C -25.14517500963688 516.7334724548006 -61.592564519887645 480.2860829445498 -61.592564519887645 435.325949489085 C -61.592564519887645 390.36581603362026 -25.14517500963688 353.9184265233695 19.814958445827884 353.9184265233695 C 64.77509190129264 353.9184265233695 101.22248141154341 390.36581603362026 101.22248141154341 435.325949489085 Z" stroke-opacity="1" stroke-linecap="round" stroke-linejoin="round" stroke-miterlimit="10"/><path fill="none" stroke="rgb(192,192,192)" paint-order="fill stroke markers" d=" M 182.63000437725896 435.325949489085 C 182.63000437725896 525.2462164000145 109.73522535675741 598.140995420516 19.814958445827898 598.140995420516 C -70.10530846510163 598.140995420516 -143.00008748560316 525.2462164000145 -143.00008748560316 435.325949489085 C -143.00008748560316 345.40568257815545 -70.10530846510163 272.51090355765393 19.814958445827898 272.51090355765393 C 109.73522535675741 272.51090355765393 182.63000437725896 345.40568257815545 182.63000437725896 435.325949489085 Z" stroke-opacity="1" stroke-linecap="round" stroke-linejoin="round" stroke-miterlimit="10"/><path fill="none" stroke="rgb(192,192,192)" paint-order="fill stroke markers" d=" M 264.0375273429745 435.325949489085 C 264.0375273429745 570.2063498554793 154.69535881222217 679.5485183862315 19.814958445827898 679.5485183862315 C -115.06544192056639 679.5485183862315 -224.40761045131867 570.2063498554793 -224.40761045131867 435.325949489085 C -224.40761045131867 300.44554912269075 -115.06544192056639 191.10338059193845 19.814958445827898 191.10338059193845 C 154.69535881222217 191.10338059193845 264.0375273429745 300.44554912269075 264.0375273429745 435.325949489085 Z" stroke-opacity="1" stroke-linecap="round" stroke-linejoin="round" stroke-miterlimit="10"/><path fill="none" stroke="rgb(192,192,192)" paint-order="fill stroke markers" d=" M 345.44505030869 435.325949489085 C 345.44505030869 615.166483310944 199.6554922676869 760.9560413519471 19.81495844582787 760.9560413519471 C -160.02557537603118 760.9560413519471 -305.81513341703425 615.166483310944 -305.81513341703425 435.325949489085 C -305.81513341703425 255.48541566722596 -160.02557537603118 109.6958576262229 19.81495844582787 109.6958576262229 C 199.6554922676869 109.6958576262229 345.44505030869 255.48541566722596 345.44505030869 435.325949489085 Z" stroke-opacity="1" stroke-linecap="round" stroke-linejoin="round" stroke-miterlimit="10"/><path fill="none" stroke="rgb(192,192,192)" paint-order="fill stroke markers" d=" M 426.85257327440553 435.325949489085 C 426.85257327440553 660.1266167664089 244.6156257231517 842.3635643176626 19.81495844582787 842.3635643176626 C -204.98570883149597 842.3635643176626 -387.2226563827498 660.1266167664089 -387.2226563827498 435.325949489085 C -387.2226563827498 210.52528221176118 -204.98570883149597 28.28833466050736 19.81495844582787 28.28833466050736 C 244.6156257231517 28.28833466050736 426.85257327440553 210.52528221176118 426.85257327440553 435.325949489085 Z" stroke-opacity="1" stroke-linecap="round" stroke-linejoin="round" stroke-miterlimit="10"/><path fill="none" stroke="rgb(192,192,192)" paint-order="fill stroke markers" d=" M 508.2600962401211 435.325949489085 C 508.2600962401211 705.0867502218737 289.57575917861647 923.7710872833782 19.81495844582787 923.7710872833782 C -249.94584228696073 923.7710872833782 -468.63017934846533 705.0867502218737 -468.63017934846533 435.325949489085 C -468.63017934846533 165.56514875629642 -249.94584228696073 -53.11918830520818 19.81495844582787 -53.11918830520818 C 289.57575917861647 -53.11918830520818 508.2600962401211 165.56514875629642 508.2600962401211 435.325949489085 Z" stroke-opacity="1" stroke-linecap="round" stroke-linejoin="round" stroke-miterlimit="10"/><path fill="none" stroke="rgb(192,192,192)" paint-order="fill stroke markers" d=" M 0 435.325949489085 L 353 435.325949489085" stroke-opacity="1" stroke-linecap="round" stroke-linejoin="round" stroke-miterlimit="10"/><path fill="none" stroke="rgb(192,192,192)" paint-order="fill stroke markers" d=" M 0 446.766121081765 L 353 242.9614760578271" stroke-opacity="1" stroke-linecap="round" stroke-linejoin="round" stroke-miterlimit="10"/><path fill="none" stroke="rgb(192,192,192)" paint-order="fill stroke markers" d=" M 0 469.64646426712494 L 353 -141.76747080468863" stroke-opacity="1" stroke-linecap="round" stroke-linejoin="round" stroke-miterlimit="10"/><path fill="none" stroke="rgb(192,192,192)" paint-order="fill stroke markers" d=" M 19.814958445827887 0 L 19.814958445827887 457" stroke-opacity="1" stroke-linecap="round" stroke-linejoin="round" stroke-miterlimit="10"/><path fill="none" stroke="rgb(192,192,192)" paint-order="fill stroke markers" d=" M 0 401.00543471104504 L 353 1012.4193697828591" stroke-opacity="1" stroke-linecap="round" stroke-linejoin="round" stroke-miterlimit="10"/><path fill="none" stroke="rgb(192,192,192)" paint-order="fill stroke markers" d=" M 0 423.88577789640505 L 353 627.690422920343" stroke-opacity="1" stroke-linecap="round" stroke-linejoin="round" stroke-miterlimit="10"/><path fill="none" stroke="rgb(37,37,37)" paint-order="fill stroke markers" d=" M 19.5 2.5 L 19.5 457.5" stroke-opacity="1" stroke-miterlimit="10"/><path fill="none" stroke="rgb(37,37,37)" paint-order="fill stroke markers" d=" M 19.5 1.5 L 15.5 5.5" stroke-opacity="1" stroke-miterlimit="10"/><path fill="none" stroke="rgb(37,37,37)" paint-order="fill stroke markers" d=" M 19.5 1.5 L 23.5 5.5" stroke-opacity="1" stroke-miterlimit="10"/><path fill="none" stroke="rgb(37,37,37)" paint-order="fill stroke markers" d=" M 0.5 435.5 L 351.5 435.5" stroke-opacity="1" stroke-miterlimit="10"/><path fill="none" stroke="rgb(37,37,37)" paint-order="fill stroke markers" d=" M 352.5 435.5 L 348.5 431.5" stroke-opacity="1" stroke-miterlimit="10"/><path fill="none" stroke="rgb(37,37,37)" paint-order="fill stroke markers" d=" M 352.5 435.5 L 348.5 439.5" stroke-opacity="1" stroke-miterlimit="10"/><path fill="rgb(0,0,0)" stroke="none" paint-order="stroke fill markers" d=" M 49.814958445827884 435.325949489085 C 49.814958445827884 430.0598495855892 48.428770511108965 424.8865257843792 45.795720559361044 420.325949489085 L 19.814958445827887 435.325949489085 Z" fill-opacity="0.09803921568627451"/><path fill="none" stroke="rgb(0,0,0)" paint-order="fill stroke markers" d=" M 49.814958445827884 435.325949489085 C 49.814958445827884 430.0598495855892 48.428770511108965 424.8865257843792 45.795720559361044 420.325949489085 L 19.814958445827887 435.325949489085 Z" stroke-opacity="0.6" stroke-linecap="round" stroke-linejoin="round" stroke-miterlimit="10" stroke-width="2.5"/><path fill="rgb(0,0,0)" stroke="none" paint-order="stroke fill markers" d=" M 261.3179072882522 313.21466504051176 C 261.3179072882522 307.9485651370159 259.93171935353325 302.77524133580596 257.2986694017853 298.2146650405117 L 231.31790728825217 313.21466504051176 Z" fill-opacity="0.09803921568627451"/><path fill="none" stroke="rgb(0,0,0)" paint-order="fill stroke markers" d=" M 261.3179072882522 313.21466504051176 C 261.3179072882522 307.9485651370159 259.93171935353325 302.77524133580596 257.2986694017853 298.2146650405117 L 231.31790728825217 313.21466504051176 Z" stroke-opacity="0.6" stroke-linecap="round" stroke-linejoin="round" stroke-miterlimit="10" stroke-width="2.5"/><path fill="rgb(0,0,0)" stroke="none" paint-order="stroke fill markers" d=" M 232.61688293485793 283.24280052944863 C 226.91485495813131 282.9956755808056 221.26064391290768 284.3802126062003 216.31790728825217 287.23390292697854 L 231.31790728825217 313.21466504051176 Z" fill-opacity="0.09803921568627451"/><path fill="none" stroke="rgb(0,0,0)" paint-order="fill stroke markers" d=" M 232.61688293485793 283.24280052944863 C 226.91485495813131 282.9956755808056 221.26064391290768 284.3802126062003 216.31790728825217 287.23390292697854 L 231.31790728825217 313.21466504051176 Z" stroke-opacity="0.6" stroke-linecap="round" stroke-linejoin="round" stroke-miterlimit="10" stroke-width="2.5"/><path fill="none" stroke="rgb(211,47,47)" paint-order="fill stroke markers" d=" M 0.5000000000000036 5638.982751645983 L 0.5000000000000036 5662.056213099537 L 0.5000000000000036 5638.982751645983 L 1.4999999999999751 5615.9092901924305 L 1.4999999999999751 5615.9092901924305 L 2.499999999999986 5592.8358287388755 L 2.499999999999986 5592.8358287388755 L 3.4999999999999964 5569.762367285322 L 3.4999999999999964 5569.762367285322 L 4.500000000000005 5546.688905831768 L 4.500000000000005 5546.688905831768 L 5.499999999999979 5523.615444378213 L 5.499999999999979 5523.615444378213 L 6.499999999999988 5500.541982924659 L 6.499999999999988 5500.541982924659 L 7.499999999999998 5477.468521471105 L 7.499999999999998 5477.468521471105 L 8.500000000000007 5454.395060017551 L 8.500000000000007 5454.395060017551 L 9.49999999999998 5431.321598563999 L 9.49999999999998 5431.321598563999 L 10.499999999999991 5408.248137110445 L 10.499999999999991 5408.248137110445 L 11.5 5385.17467565689 L 11.5 5385.17467565689 L 12.50000000000001 5362.101214203336 L 12.50000000000001 5362.101214203336 L 13.499999999999982 5339.027752749783 L 13.499999999999982 5339.027752749783 L 14.499999999999993 5315.954291296228 L 14.499999999999993 5315.954291296228 L 15.500000000000004 5292.880829842674 L 15.500000000000004 5292.880829842674 L 16.499999999999993 5269.807368389121 L 16.499999999999993 5269.807368389121 L 17.499999999999986 5246.733906935568 L 17.499999999999986 5246.733906935568 L 18.499999999999996 5223.6604454820135 L 18.499999999999996 5223.6604454820135 L 19.499999999999986 5200.586984028459 L 19.499999999999986 5200.586984028459 L 20.499999999999996 5177.5135225749045 L 20.499999999999996 5177.5135225749045 L 21.49999999999999 5154.4400611213505 L 21.49999999999999 5154.4400611213505 L 22.5 5131.366599667796 L 22.5 5131.366599667796 L 23.49999999999999 5108.293138214243 L 23.49999999999999 5108.293138214243 L 24.5 5085.219676760689 L 24.5 5085.219676760689 L 25.499999999999993 5062.146215307136 L 25.499999999999993 5062.146215307136 L 26.5 5039.072753853582 L 26.5 5039.072753853582 L 27.499999999999993 5015.999292400027 L 27.499999999999993 5015.999292400027 L 28.5 4992.925830946473 L 28.5 4992.925830946473 L 29.499999999999993 4969.852369492919 L 29.499999999999993 4969.852369492919 L 30.500000000000004 4946.778908039365 L 30.500000000000004 4946.778908039365 L 31.499999999999993 4923.705446585812 L 31.499999999999993 4923.705446585812 L 32.499999999999986 4900.631985132258 L 32.499999999999986 4900.631985132258 L 33.5 4877.558523678704 L 33.5 4877.558523678704 L 34.499999999999986 4854.48506222515 L 34.499999999999986 4854.48506222515 L 35.5 4831.411600771596 L 35.5 4831.411600771596 L 36.499999999999986 4808.338139318042 L 36.499999999999986 4808.338139318042 L 37.5 4785.264677864488 L 37.5 4785.264677864488 L 38.499999999999986 4762.1912164109335 L 38.499999999999986 4762.1912164109335 L 39.5 4739.11775495738 L 39.5 4739.11775495738 L 40.49999999999999 4716.044293503826 L 40.49999999999999 4716.044293503826 L 41.5 4692.970832050272 L 41.5 4692.970832050272 L 42.49999999999999 4669.897370596718 L 42.49999999999999 4669.897370596718 L 43.5 4646.823909143164 L 43.5 4646.823909143164 L 44.49999999999999 4623.75044768961 L 44.49999999999999 4623.75044768961 L 45.5 4600.676986236056 L 45.5 4600.676986236056 L 46.5 4577.603524782502 L 46.5 4577.603524782502 L 47.50000000000001 4554.530063328948 L 47.50000000000001 4554.530063328948 L 48.5 4531.456601875395 L 48.5 4531.456601875395 L 49.499999999999986 4508.383140421841 L 49.499999999999986 4508.383140421841 L 50.5 4485.309678968287 L 50.5 4485.309678968287 L 51.499999999999986 4462.236217514733 L 51.499999999999986 4462.236217514733 L 52.5 4439.162756061179 L 52.5 4439.162756061179 L 53.499999999999986 4416.089294607626 L 53.499999999999986 4416.089294607626 L 54.5 4393.015833154071 L 54.5 4393.015833154071 L 55.499999999999986 4369.9423717005175 L 55.499999999999986 4369.9423717005175 L 56.5 4346.868910246963 L 56.5 4346.868910246963 L 57.5 4323.795448793409 L 57.5 4323.795448793409 L 58.5 4300.721987339854 L 58.5 4300.721987339854 L 59.5 4277.648525886301 L 59.5 4277.648525886301 L 60.5 4254.575064432746 L 60.5 4254.575064432746 L 61.5 4231.501602979193 L 61.5 4231.501602979193 L 62.5 4208.428141525639 L 62.5 4208.428141525639 L 63.5 4185.354680072086 L 63.5 4185.354680072086 L 64.50000000000001 4162.281218618532 L 64.50000000000001 4162.281218618532 L 65.5 4139.207757164978 L 65.5 4139.207757164978 L 66.49999999999999 4116.134295711423 L 66.49999999999999 4116.134295711423 L 67.5 4093.060834257869 L 67.5 4093.060834257869 L 68.49999999999999 4069.987372804316 L 68.49999999999999 4069.987372804316 L 69.5 4046.9139113507613 L 69.5 4046.9139113507613 L 70.5 4023.8404498972077 L 70.5 4023.8404498972077 L 71.5 4000.766988443653 L 71.5 4000.766988443653 L 72.5 3977.6935269901 L 72.5 3977.6935269901 L 73.5 3954.6200655365456 L 73.5 3954.6200655365456 L 74.5 3931.546604082992 L 74.5 3931.546604082992 L 75.5 3908.4731426294375 L 75.5 3908.4731426294375 L 76.5 3885.3996811758843 L 76.5 3885.3996811758843 L 77.50000000000001 3862.32621972233 L 77.50000000000001 3862.32621972233 L 78.5 3839.2527582687762 L 78.5 3839.2527582687762 L 79.50000000000001 3816.1792968152217 L 79.50000000000001 3816.1792968152217 L 80.5 3793.1058353616686 L 80.5 3793.1058353616686 L 81.49999999999999 3770.0323739081146 L 81.49999999999999 3770.0323739081146 L 82.5 3746.9589124545605 L 82.5 3746.9589124545605 L 83.5 3723.8854510010065 L 83.5 3723.8854510010065 L 84.5 3700.811989547453 L 84.5 3700.811989547453 L 85.49999999999999 3677.738528093899 L 85.49999999999999 3677.738528093899 L 86.5 3654.665066640345 L 86.5 3654.665066640345 L 87.49999999999999 3631.5916051867907 L 87.49999999999999 3631.5916051867907 L 88.5 3608.518143733237 L 88.5 3608.518143733237 L 89.5 3585.444682279683 L 89.5 3585.444682279683 L 90.5 3562.371220826129 L 90.5 3562.371220826129 L 91.5 3539.297759372575 L 91.5 3539.297759372575 L 92.5 3516.224297919021 L 92.5 3516.224297919021 L 93.5 3493.1508364654674 L 93.5 3493.1508364654674 L 94.5 3470.0773750119133 L 94.5 3470.0773750119133 L 95.5 3447.0039135583593 L 95.5 3447.0039135583593 L 96.5 3423.930452104805 L 96.5 3423.930452104805 L 97.5 3400.8569906512516 L 97.5 3400.8569906512516 L 98.5 3377.7835291976976 L 98.5 3377.7835291976976 L 99.5 3354.7100677441435 L 99.5 3354.7100677441435 L 100.5 3331.6366062905895 L 100.5 3331.6366062905895 L 101.5 3308.563144837036 L 101.5 3308.563144837036 L 102.5 3285.489683383482 L 102.5 3285.489683383482 L 103.5 3262.416221929928 L 103.5 3262.416221929928 L 104.5 3239.3427604763738 L 104.5 3239.3427604763738 L 105.49999999999999 3216.2692990228206 L 105.49999999999999 3216.2692990228206 L 106.5 3193.195837569266 L 106.5 3193.195837569266 L 107.5 3170.122376115712 L 107.5 3170.122376115712 L 108.5 3147.048914662158 L 108.5 3147.048914662158 L 109.49999999999999 3123.975453208605 L 109.49999999999999 3123.975453208605 L 110.5 3100.9019917550504 L 110.5 3100.9019917550504 L 111.50000000000001 3077.8285303014964 L 111.50000000000001 3077.8285303014964 L 112.5 3054.7550688479423 L 112.5 3054.7550688479423 L 113.49999999999999 3031.681607394389 L 113.49999999999999 3031.681607394389 L 114.5 3008.608145940834 L 114.5 3008.608145940834 L 115.50000000000001 2985.5346844872806 L 115.50000000000001 2985.5346844872806 L 116.5 2962.4612230337266 L 116.5 2962.4612230337266 L 117.5 2939.3877615801725 L 117.5 2939.3877615801725 L 118.5 2916.3143001266185 L 118.5 2916.3143001266185 L 119.50000000000001 2893.2408386730644 L 119.50000000000001 2893.2408386730644 L 120.5 2870.167377219511 L 120.5 2870.167377219511 L 121.5 2847.0939157659573 L 121.5 2847.0939157659573 L 122.5 2824.0204543124028 L 122.5 2824.0204543124028 L 123.5 2800.946992858849 L 123.5 2800.946992858849 L 124.49999999999999 2777.8735314052956 L 124.49999999999999 2777.8735314052956 L 125.5 2754.8000699517415 L 125.5 2754.8000699517415 L 126.50000000000001 2731.726608498187 L 126.50000000000001 2731.726608498187 L 127.5 2708.6531470446334 L 127.5 2708.6531470446334 L 128.5 2685.5796855910794 L 128.5 2685.5796855910794 L 129.5 2662.506224137526 L 129.5 2662.506224137526 L 130.50000000000003 2639.4327626839713 L 130.50000000000003 2639.4327626839713 L 131.5 2616.3593012304177 L 131.5 2616.3593012304177 L 132.5 2593.2858397768637 L 132.5 2593.2858397768637 L 133.5 2570.2123783233096 L 133.5 2570.2123783233096 L 134.50000000000003 2547.1389168697556 L 134.50000000000003 2547.1389168697556 L 135.5 2524.065455416202 L 135.5 2524.065455416202 L 136.5 2500.991993962648 L 136.5 2500.991993962648 L 137.5 2477.9185325090943 L 137.5 2477.9185325090943 L 138.5 2454.8450710555403 L 138.5 2454.8450710555403 L 139.50000000000003 2431.7716096019863 L 139.50000000000003 2431.7716096019863 L 140.5 2408.698148148432 L 140.5 2408.698148148432 L 141.50000000000003 2385.6246866948786 L 141.50000000000003 2385.6246866948786 L 142.5 2362.5512252413246 L 142.5 2362.5512252413246 L 143.5 2339.477763787771 L 143.5 2339.477763787771 L 144.5 2316.4043023342165 L 144.5 2316.4043023342165 L 145.50000000000003 2293.3308408806624 L 145.50000000000003 2293.3308408806624 L 146.5 2270.257379427109 L 146.5 2270.257379427109 L 147.5 2247.1839179735553 L 147.5 2247.1839179735553 L 148.50000000000003 2224.1104565200008 L 148.50000000000003 2224.1104565200008 L 149.5 2201.036995066447 L 149.5 2201.036995066447 L 150.50000000000003 2177.963533612893 L 150.50000000000003 2177.963533612893 L 151.5 2154.890072159339 L 151.5 2154.890072159339 L 152.50000000000003 2131.816610705785 L 152.50000000000003 2131.816610705785 L 153.5 2108.7431492522314 L 153.5 2108.7431492522314 L 154.50000000000003 2085.6696877986774 L 154.50000000000003 2085.6696877986774 L 155.50000000000003 2062.5962263451233 L 155.50000000000003 2062.5962263451233 L 156.50000000000003 2039.5227648915693 L 156.50000000000003 2039.5227648915693 L 157.50000000000003 2016.4493034380157 L 157.50000000000003 2016.4493034380157 L 158.5 1993.3758419844617 L 158.5 1993.3758419844617 L 159.50000000000003 1970.3023805309076 L 159.50000000000003 1970.3023805309076 L 160.50000000000003 1947.2289190773536 L 160.50000000000003 1947.2289190773536 L 161.50000000000003 1924.1554576238 L 161.50000000000003 1924.1554576238 L 162.5 1901.081996170246 L 162.5 1901.081996170246 L 163.50000000000003 1878.0085347166919 L 163.50000000000003 1878.0085347166919 L 164.5 1854.9350732631378 L 164.5 1854.9350732631378 L 165.50000000000003 1831.8616118095842 L 165.50000000000003 1831.8616118095842 L 166.5 1808.7881503560302 L 166.5 1808.7881503560302 L 167.50000000000003 1785.7146889024762 L 167.50000000000003 1785.7146889024762 L 168.50000000000003 1762.641227448922 L 168.50000000000003 1762.641227448922 L 169.50000000000003 1739.567765995368 L 169.50000000000003 1739.567765995368 L 170.50000000000003 1716.4943045418145 L 170.50000000000003 1716.4943045418145 L 171.50000000000003 1693.42084308826 L 171.50000000000003 1693.42084308826 L 172.50000000000003 1670.3473816347064 L 172.50000000000003 1670.3473816347064 L 173.50000000000003 1647.2739201811523 L 173.50000000000003 1647.2739201811523 L 174.50000000000003 1624.2004587275987 L 174.50000000000003 1624.2004587275987 L 175.50000000000003 1601.1269972740447 L 175.50000000000003 1601.1269972740447 L 176.50000000000003 1578.0535358204907 L 176.50000000000003 1578.0535358204907 L 177.5 1554.980074366937 L 177.5 1554.980074366937 L 178.50000000000003 1531.906612913383 L 178.50000000000003 1531.906612913383 L 179.5 1508.833151459829 L 179.5 1508.833151459829 L 180.50000000000003 1485.759690006275 L 180.50000000000003 1485.759690006275 L 181.5 1462.6862285527213 L 181.5 1462.6862285527213 L 182.50000000000003 1439.612767099167 L 182.50000000000003 1439.612767099167 L 183.50000000000003 1416.5393056456128 L 183.50000000000003 1416.5393056456128 L 184.5 1393.4658441920596 L 184.5 1393.4658441920596 L 185.50000000000003 1370.3923827385054 L 185.50000000000003 1370.3923827385054 L 186.50000000000003 1347.3189212849513 L 186.50000000000003 1347.3189212849513 L 187.50000000000003 1324.245459831397 L 187.50000000000003 1324.245459831397 L 188.5 1301.171998377844 L 188.5 1301.171998377844 L 189.50000000000003 1278.0985369242896 L 189.50000000000003 1278.0985369242896 L 190.50000000000003 1255.0250754707354 L 190.50000000000003 1255.0250754707354 L 191.5 1231.9516140171822 L 191.5 1231.9516140171822 L 192.5 1208.878152563628 L 192.5 1208.878152563628 L 193.50000000000003 1185.8046911100737 L 193.50000000000003 1185.8046911100737 L 194.50000000000003 1162.7312296565196 L 194.50000000000003 1162.7312296565196 L 195.5 1139.6577682029665 L 195.5 1139.6577682029665 L 196.50000000000003 1116.584306749412 L 196.50000000000003 1116.584306749412 L 197.50000000000003 1093.510845295858 L 197.50000000000003 1093.510845295858 L 198.50000000000003 1070.437383842304 L 198.50000000000003 1070.437383842304 L 199.5 1047.3639223887508 L 199.5 1047.3639223887508 L 200.50000000000003 1024.2904609351963 L 200.50000000000003 1024.2904609351963 L 201.50000000000003 1001.2169994816423 L 201.50000000000003 1001.2169994816423 L 202.50000000000003 978.1435380280881 L 202.50000000000003 978.1435380280881 L 203.5 955.0700765745348 L 203.5 955.0700765745348 L 204.50000000000003 931.9966151209807 L 204.50000000000003 931.9966151209807 L 205.50000000000003 908.9231536674265 L 205.50000000000003 908.9231536674265 L 206.5 885.8496922138731 L 206.5 885.8496922138731 L 207.5 862.7762307603191 L 207.5 862.7762307603191 L 208.50000000000003 839.7027693067648 L 208.50000000000003 839.7027693067648 L 209.50000000000003 816.6293078532108 L 209.50000000000003 816.6293078532108 L 210.50000000000003 793.5558463996565 L 210.50000000000003 793.5558463996565 L 211.50000000000003 770.4823849461031 L 211.50000000000003 770.4823849461031 L 212.50000000000003 747.4089234925491 L 212.50000000000003 747.4089234925491 L 213.50000000000003 724.3354620389948 L 213.50000000000003 724.3354620389948 L 214.5 701.2620005854416 L 214.5 701.2620005854416 L 215.50000000000003 678.1885391318874 L 215.50000000000003 678.1885391318874 L 216.50000000000003 655.1150776783333 L 216.50000000000003 655.1150776783333 L 217.50000000000003 632.0416162247791 L 217.50000000000003 632.0416162247791 L 218.5 608.9681547712258 L 218.5 608.9681547712258 L 219.50000000000003 585.8946933176717 L 219.50000000000003 585.8946933176717 L 220.50000000000003 562.8212318641175 L 220.50000000000003 562.8212318641175 L 221.5 539.7477704105642 L 221.5 539.7477704105642 L 222.5 516.67430895701 L 222.5 516.67430895701 L 223.50000000000003 493.60084750345584 L 223.50000000000003 493.60084750345584 L 224.50000000000003 470.5273860499017 L 224.50000000000003 470.5273860499017 L 225.50000000000006 447.4539245963475 L 225.50000000000006 447.4539245963475 L 226.50000000000003 424.3804631427942 L 226.50000000000003 424.3804631427942 L 227.50000000000003 401.30700168924005 L 227.50000000000003 401.30700168924005 L 228.50000000000003 378.2335402356859 L 228.50000000000003 378.2335402356859 L 229.5 355.1600787821326 L 229.5 355.1600787821326 L 230.50000000000003 332.0866173285784 L 230.50000000000003 332.0866173285784 L 231.50000000000003 309.01315587502427 L 231.50000000000003 309.01315587502427 L 232.50000000000003 285.9396944214701 L 232.50000000000003 285.9396944214701 L 233.5 262.86623296791686 L 233.5 262.86623296791686 L 234.50000000000003 239.79277151436267 L 234.50000000000003 239.79277151436267 L 235.50000000000003 216.7193100608085 L 235.50000000000003 216.7193100608085 L 236.5 193.64584860725518 L 236.5 193.64584860725518 L 237.50000000000003 170.57238715370102 L 237.50000000000003 170.57238715370102 L 238.50000000000003 147.4989257001469 L 238.50000000000003 147.4989257001469 L 239.50000000000003 124.42546424659275 L 239.50000000000003 124.42546424659275 L 240.50000000000006 101.3520027930386 L 240.50000000000006 101.3520027930386 L 241.50000000000003 78.27854133948523 L 241.50000000000003 78.27854133948523 L 242.50000000000003 55.20507988593107 L 242.50000000000003 55.20507988593107 L 243.50000000000003 32.13161843237691 L 243.50000000000003 32.13161843237691 L 244.5 9.058156978823604 L 244.5 9.058156978823604 L 245.50000000000003 -14.015304474730556 L 245.50000000000003 -14.015304474730556 L 246.50000000000003 -37.088765928284715 L 246.50000000000003 -37.088765928284715 L 247.50000000000003 -60.162227381838875 L 247.50000000000003 -60.162227381838875 L 248.50000000000006 -83.23568883539303 L 248.50000000000006 -83.23568883539303 L 249.50000000000003 -106.3091502889464 L 249.50000000000003 -106.3091502889464 L 250.50000000000003 -129.38261174250056 L 250.50000000000003 -129.38261174250056 L 251.5 -152.4560731960538 L 251.5 -152.4560731960538 L 252.50000000000003 -175.52953464960797 L 252.50000000000003 -175.52953464960797 L 253.50000000000003 -198.60299610316213 L 253.50000000000003 -198.60299610316213 L 254.50000000000003 -221.6764575567163 L 254.50000000000003 -221.6764575567163 L 255.50000000000006 -244.74991901027045 L 255.50000000000006 -244.74991901027045 L 256.5 -267.8233804638238 L 256.5 -267.8233804638238 L 257.5 -290.89684191737786 L 257.5 -290.89684191737786 L 258.5 -313.9703033709312 L 258.5 -313.9703033709312 L 259.5 -337.0437648244855 L 259.5 -337.0437648244855 L 260.5 -360.11722627803954 L 260.5 -360.11722627803954 L 261.5 -383.1906877315938 L 261.5 -383.1906877315938 L 262.5 -406.26414918514786 L 262.5 -406.26414918514786 L 263.50000000000006 -429.33761063870213 L 263.50000000000006 -429.33761063870213 L 264.5 -452.41107209225527 L 264.5 -452.41107209225527 L 265.5 -475.48453354580954 L 265.5 -475.48453354580954 L 266.5 -498.5579949993629 L 266.5 -498.5579949993629 L 267.5 -521.631456452917 L 267.5 -521.631456452917 L 268.5 -544.7049179064712 L 268.5 -544.7049179064712 L 269.5 -567.7783793600253 L 269.5 -567.7783793600253 L 270.50000000000006 -590.8518408135795 L 270.50000000000006 -590.8518408135795 L 271.50000000000006 -613.9253022671336 L 271.50000000000006 -613.9253022671336 L 272.5 -636.998763720687 L 272.5 -636.998763720687 L 273.5 -660.0722251742403 L 273.5 -660.0722251742403 L 274.5 -683.1456866277944 L 274.5 -683.1456866277944 L 275.5 -706.2191480813486 L 275.5 -706.2191480813486 L 276.5 -729.2926095349027 L 276.5 -729.2926095349027 L 277.5 -752.366070988457 L 277.5 -752.366070988457 L 278.5 -775.439532442011 L 278.5 -775.439532442011 L 279.5 -798.5129938955644 L 279.5 -798.5129938955644 L 280.5 -821.5864553491186 L 280.5 -821.5864553491186 L 281.5 -844.659916802672 L 281.5 -844.659916802672 L 282.5 -867.733378256226 L 282.5 -867.733378256226 L 283.5 -890.8068397097803 L 283.5 -890.8068397097803 L 284.5 -913.8803011633341 L 284.5 -913.8803011633341 L 285.5 -936.9537626168884 L 285.5 -936.9537626168884 L 286.5 -960.0272240704427 L 286.5 -960.0272240704427 L 287.5 -983.100685523996 L 287.5 -983.100685523996 L 288.5 -1006.1741469775494 L 288.5 -1006.1741469775494 L 289.5 -1029.2476084311033 L 289.5 -1029.2476084311033 L 290.5 -1052.3210698846574 L 290.5 -1052.3210698846574 L 291.5 -1075.394531338212 L 291.5 -1075.394531338212 L 292.5 -1098.467992791766 L 292.5 -1098.467992791766 L 293.5 -1121.54145424532 L 293.5 -1121.54145424532 L 294.5 -1144.6149156988731 L 294.5 -1144.6149156988731 L 295.5 -1167.6883771524276 L 295.5 -1167.6883771524276 L 296.5 -1190.7618386059808 L 296.5 -1190.7618386059808 L 297.5 -1213.8353000595353 L 297.5 -1213.8353000595353 L 298.5 -1236.9087615130888 L 298.5 -1236.9087615130888 L 299.5 -1259.9822229666433 L 299.5 -1259.9822229666433 L 300.5 -1283.0556844201974 L 300.5 -1283.0556844201974 L 301.5 -1306.129145873752 L 301.5 -1306.129145873752 L 302.5 -1329.202607327305 L 302.5 -1329.202607327305 L 303.5 -1352.276068780859 L 303.5 -1352.276068780859 L 304.5 -1375.3495302344122 L 304.5 -1375.3495302344122 L 305.5 -1398.4229916879667 L 305.5 -1398.4229916879667 L 306.5 -1421.4964531415208 L 306.5 -1421.4964531415208 L 307.5 -1444.5699145950748 L 307.5 -1444.5699145950748 L 308.5 -1467.6433760486289 L 308.5 -1467.6433760486289 L 309.5 -1490.7168375021824 L 309.5 -1490.7168375021824 L 310.5 -1513.7902989557365 L 310.5 -1513.7902989557365 L 311.5 -1536.8637604092896 L 311.5 -1536.8637604092896 L 312.5 -1559.9372218628441 L 312.5 -1559.9372218628441 L 313.5 -1583.0106833163982 L 313.5 -1583.0106833163982 L 314.5 -1606.0841447699522 L 314.5 -1606.0841447699522 L 315.5 -1629.1576062235063 L 315.5 -1629.1576062235063 L 316.50000000000006 -1652.2310676770608 L 316.50000000000006 -1652.2310676770608 L 317.5 -1675.304529130614 L 317.5 -1675.304529130614 L 318.5 -1698.3779905841684 L 318.5 -1698.3779905841684 L 319.5 -1721.4514520377215 L 319.5 -1721.4514520377215 L 320.5 -1744.5249134912756 L 320.5 -1744.5249134912756 L 321.5 -1767.5983749448296 L 321.5 -1767.5983749448296 L 322.5 -1790.6718363983841 L 322.5 -1790.6718363983841 L 323.5 -1813.7452978519382 L 323.5 -1813.7452978519382 L 324.5 -1836.8187593054913 L 324.5 -1836.8187593054913 L 325.5 -1859.8922207590458 L 325.5 -1859.8922207590458 L 326.5 -1882.965682212599 L 326.5 -1882.965682212599 L 327.5 -1906.039143666153 L 327.5 -1906.039143666153 L 328.5 -1929.112605119707 L 328.5 -1929.112605119707 L 329.5 -1952.1860665732615 L 329.5 -1952.1860665732615 L 330.5 -1975.2595280268156 L 330.5 -1975.2595280268156 L 331.50000000000006 -1998.3329894803696 L 331.50000000000006 -1998.3329894803696 L 332.5 -2021.4064509339232 L 332.5 -2021.4064509339232 L 333.5 -2044.4799123874773 L 333.5 -2044.4799123874773 L 334.5 -2067.5533738410304 L 334.5 -2067.5533738410304 L 335.5 -2090.626835294585 L 335.5 -2090.626835294585 L 336.5 -2113.700296748139 L 336.5 -2113.700296748139 L 337.5 -2136.773758201693 L 337.5 -2136.773758201693 L 338.5 -2159.847219655247 L 338.5 -2159.847219655247 L 339.50000000000006 -2182.9206811088015 L 339.50000000000006 -2182.9206811088015 L 340.5 -2205.9941425623538 L 340.5 -2205.9941425623538 L 341.5 -2229.0676040159083 L 341.5 -2229.0676040159083 L 342.5 -2252.141065469462 L 342.5 -2252.141065469462 L 343.5 -2275.214526923016 L 343.5 -2275.214526923016 L 344.5 -2298.2879883765704 L 344.5 -2298.2879883765704 L 345.5 -2321.3614498301245 L 345.5 -2321.3614498301245 L 346.50000000000006 -2344.434911283679 L 346.50000000000006 -2344.434911283679 L 347.50000000000006 -2367.508372737233 L 347.50000000000006 -2367.508372737233 L 348.5 -2390.5818341907852 L 348.5 -2390.5818341907852 L 349.5 -2413.6552956443397 L 349.5 -2413.6552956443397 L 350.5 -2436.728757097894 L 350.5 -2436.728757097894 L 351.5 -2459.8022185514483 L 351.5 -2459.8022185514483 L 352.5 -2482.875680005002 L 352.5 -2482.875680005002 L 353.5 -2505.949141458556" stroke-opacity="0.8" stroke-linecap="round" stroke-linejoin="round" stroke-miterlimit="10" stroke-width="2.5"/><path fill="none" stroke="rgb(0,0,0)" paint-order="fill stroke markers" d=" M -5 313.21466504051176 L 358 313.21466504051176" stroke-opacity="0.6980392156862745" stroke-linejoin="round" stroke-miterlimit="10" stroke-width="2.5" stroke-dasharray="10.5,8"/><text fill="rgb(0,0,0)" stroke="none" font-family="geogebra-sans-serif, sans-serif" font-size="16px" font-style="normal" font-weight="normal" text-decoration="normal" x="24" y="305" text-anchor="start" dominant-baseline="alphabetic" fill-opacity="1">h</text><text fill="none" stroke="rgb(255,255,255)" font-family="geogebra-sans-serif, sans-serif" font-size="16px" font-style="normal" font-weight="normal" text-decoration="normal" x="24" y="305" text-anchor="start" dominant-baseline="alphabetic" stroke-opacity="1" stroke-linejoin="bevel" stroke-miterlimit="10" stroke-width="3">h</text><text fill="rgb(0,0,0)" stroke="none" font-family="geogebra-sans-serif, sans-serif" font-size="16px" font-style="normal" font-weight="normal" text-decoration="normal" x="24" y="305" text-anchor="start" dominant-baseline="alphabetic" fill-opacity="1">h</text><path fill="none" stroke="rgb(0,0,0)" paint-order="fill stroke markers" d=" M 19.814958445827887 435.325949489085 L 231.31790728825217 313.21466504051176" stroke-opacity="0.6980392156862745" stroke-linecap="round" stroke-linejoin="round" stroke-miterlimit="10" stroke-width="2.5"/><path fill="rgb(0,0,0)" stroke="none" paint-order="stroke fill markers" d=" M 301.8188902357269 272.510903557654 L 284.9714583713914 277.3302955915701 L 286.4714583713914 279.92837180292344 L 230.69290728825217 312.1321332857812 C 230.09504150890692 312.47731125442544 229.89019756487738 313.24179926116653 230.23537553352162 313.83966504051176 C 230.46690080881913 314.24067858056344 230.88707136292803 314.4648737595794 231.3190745040448 314.4648737595794 C 231.53113912834584 314.4648737595794 231.7460550489586 314.410849488589 231.94290728825217 314.2971967952423 L 287.7214583713914 282.09343531238454 L 289.2214583713914 284.69151152373786 L 301.8188902357269 272.510903557654 Z" fill-opacity="0.6980392156862745"/><path fill="rgb(0,0,0)" stroke="none" paint-order="stroke fill markers" d=" M 167.38058826424364 202.47197999118876 L 172.19998029815977 219.3194118555242 L 174.79805650951303 217.81941185552424 L 174.79805650951312 217.81941185552424 L 230.23537553352162 313.83966504051176 C 230.46690080881913 314.24067858056344 230.88707136292803 314.4648737595794 231.3190745040448 314.4648737595794 C 231.53113912834584 314.4648737595794 231.7460550489586 314.410849488589 231.94290728825217 314.2971967952423 C 232.54077306759743 313.9520188265981 232.74561701162696 313.187530819857 232.40043904298273 312.58966504051176 L 176.96312001897422 216.56941185552424 L 176.96312001897414 216.56941185552424 L 179.5611962303275 215.0694118555242 L 167.38058826424364 202.47197999118876 Z" fill-opacity="0.6980392156862745"/><path fill="rgb(0,0,0)" stroke="none" paint-order="stroke fill markers" d=" M 237.8815712117184 161.76821850833102 L 232.89947087290787 178.56825351466432 L 235.89665732401446 178.6981510793249 L 235.8966573240142 178.6981510793249 L 230.06907960029122 313.16054105523654 C 230.03918774862365 313.8502495424638 230.57407481574967 314.43360087680514 231.26378330297695 314.4634927284727 C 231.28221403162908 314.4642915132016 231.30056881154127 314.4646869940993 231.31883911097103 314.4646869940993 C 231.9842737707277 314.4646869940993 232.53764190927447 313.9400667843621 232.56673497621313 313.268789025787 L 238.3943126999361 178.80639904987535 L 238.39431269993585 178.80639904987535 L 241.39149915104178 178.9362966145359 L 241.39149915104244 178.9362966145359 L 237.8815712117184 161.76821850833102 Z" fill-opacity="0.6980392156862745"/><path fill="rgb(97,97,97)" stroke="none" paint-order="stroke fill markers" d=" M 236.31790728825217 313.21466504051176 C 236.31790728825217 315.9760887896657 234.07933103740615 318.21466504051176 231.31790728825217 318.21466504051176 C 228.5564835390982 318.21466504051176 226.31790728825217 315.9760887896657 226.31790728825217 313.21466504051176 C 226.31790728825217 310.4532412913578 228.5564835390982 308.21466504051176 231.31790728825217 308.21466504051176 C 234.07933103740615 308.21466504051176 236.31790728825217 310.4532412913578 236.31790728825217 313.21466504051176 Z" fill-opacity="1"/><path fill="none" stroke="rgb(0,0,0)" paint-order="fill stroke markers" d=" M 236.31790728825217 313.21466504051176 C 236.31790728825217 315.9760887896657 234.07933103740615 318.21466504051176 231.31790728825217 318.21466504051176 C 228.5564835390982 318.21466504051176 226.31790728825217 315.9760887896657 226.31790728825217 313.21466504051176 C 226.31790728825217 310.4532412913578 228.5564835390982 308.21466504051176 231.31790728825217 308.21466504051176 C 234.07933103740615 308.21466504051176 236.31790728825217 310.4532412913578 236.31790728825217 313.21466504051176 Z" stroke-opacity="1" stroke-linecap="round" stroke-linejoin="round" stroke-miterlimit="10"/><text fill="rgb(0,0,0)" stroke="none" font-family="geogebra-sans-serif, sans-serif" font-size="16px" font-style="normal" font-weight="normal" text-decoration="normal" x="122" y="358" text-anchor="start" dominant-baseline="alphabetic" fill-opacity="1">r</text><text fill="rgb(0,0,0)" stroke="none" font-family="geogebra-sans-serif, sans-serif" font-size="14px" font-style="normal" font-weight="normal" text-decoration="normal" x="127" y="365" text-anchor="start" dominant-baseline="alphabetic" fill-opacity="1">0</text><g transform="scale(19,19)"><g transform="translate(3.1052631578947367,22.64136842105263)"><path fill="rgb(0,0,0)" stroke="none" paint-order="stroke fill markers" d=" M 0.455 -0.5 L 0.455 -0.5 Q 0.455 -0.34700000000000003 0.377 -0.19 Q 0.307 -0.05 0.222 -0.005 Q 0.191 0.011 0.162 0.011 Q 0.08 0.011 0.052000000000000005 -0.101 Q 0.042 -0.14300000000000002 0.042 -0.194 Q 0.042 -0.35100000000000003 0.122 -0.509 Q 0.192 -0.646 0.277 -0.6900000000000001 Q 0.307 -0.705 0.335 -0.705 Q 0.422 -0.705 0.447 -0.578 Q 0.455 -0.54 0.455 -0.5 M 0.148 -0.363 L 0.148 -0.363 L 0.357 -0.363 Q 0.389 -0.495 0.389 -0.562 Q 0.389 -0.675 0.342 -0.682 Q 0.338 -0.683 0.334 -0.683 Q 0.28300000000000003 -0.683 0.225 -0.578 Q 0.187 -0.511 0.149 -0.368 Q 0.149 -0.365 0.148 -0.363 M 0.34800000000000003 -0.331 L 0.14 -0.331 Q 0.108 -0.21 0.108 -0.133 Q 0.108 -0.013000000000000001 0.162 -0.011 Q 0.218 -0.011 0.278 -0.128 Q 0.317 -0.202 0.34800000000000003 -0.331 Z"/></g><g transform="translate(3.5742631578947366,22.791368421052628) scale(0.7,0.7)"><path fill="rgb(0,0,0)" stroke="none" paint-order="stroke fill markers" d=" M 0.457 -0.326 Q 0.457 -0.17500000000000002 0.417 -0.088 Q 0.393 -0.036000000000000004 0.34850000000000003 -0.007 Q 0.304 0.022 0.249 0.022 Q 0.217 0.022 0.1875 0.012 Q 0.158 0.002 0.1265 -0.027 Q 0.095 -0.056 0.076 -0.101 Q 0.042 -0.184 0.042 -0.326 Q 0.042 -0.47800000000000004 0.08 -0.562 Q 0.108 -0.624 0.154 -0.651 Q 0.2 -0.678 0.25 -0.678 Q 0.294 -0.678 0.3385 -0.6545 Q 0.383 -0.631 0.41100000000000003 -0.579 Q 0.457 -0.49 0.457 -0.326 M 0.25 -0.039 Q 0.33 -0.039 0.361 -0.146 Q 0.379 -0.209 0.379 -0.338 Q 0.379 -0.467 0.36 -0.523 Q 0.354 -0.538 0.34950000000000003 -0.5465 Q 0.34500000000000003 -0.555 0.332 -0.5750000000000001 Q 0.319 -0.595 0.2975 -0.606 Q 0.276 -0.617 0.249 -0.617 Q 0.169 -0.617 0.137 -0.516 Q 0.12 -0.461 0.12 -0.338 Q 0.12 -0.21 0.137 -0.149 Q 0.168 -0.039 0.25 -0.039 Z"/></g></g><g transform="scale(19,19)"><g transform="translate(13.894736842105264,16.220315789473684)"><path fill="rgb(0,0,0)" stroke="none" paint-order="stroke fill markers" d=" M 0.455 -0.5 L 0.455 -0.5 Q 0.455 -0.34700000000000003 0.377 -0.19 Q 0.307 -0.05 0.222 -0.005 Q 0.191 0.011 0.162 0.011 Q 0.08 0.011 0.052000000000000005 -0.101 Q 0.042 -0.14300000000000002 0.042 -0.194 Q 0.042 -0.35100000000000003 0.122 -0.509 Q 0.192 -0.646 0.277 -0.6900000000000001 Q 0.307 -0.705 0.335 -0.705 Q 0.422 -0.705 0.447 -0.578 Q 0.455 -0.54 0.455 -0.5 M 0.148 -0.363 L 0.148 -0.363 L 0.357 -0.363 Q 0.389 -0.495 0.389 -0.562 Q 0.389 -0.675 0.342 -0.682 Q 0.338 -0.683 0.334 -0.683 Q 0.28300000000000003 -0.683 0.225 -0.578 Q 0.187 -0.511 0.149 -0.368 Q 0.149 -0.365 0.148 -0.363 M 0.34800000000000003 -0.331 L 0.14 -0.331 Q 0.108 -0.21 0.108 -0.133 Q 0.108 -0.013000000000000001 0.162 -0.011 Q 0.218 -0.011 0.278 -0.128 Q 0.317 -0.202 0.34800000000000003 -0.331 Z"/></g><g transform="translate(14.363736842105263,16.370315789473683) scale(0.7,0.7)"><path fill="rgb(0,0,0)" stroke="none" paint-order="stroke fill markers" d=" M 0.457 -0.326 Q 0.457 -0.17500000000000002 0.417 -0.088 Q 0.393 -0.036000000000000004 0.34850000000000003 -0.007 Q 0.304 0.022 0.249 0.022 Q 0.217 0.022 0.1875 0.012 Q 0.158 0.002 0.1265 -0.027 Q 0.095 -0.056 0.076 -0.101 Q 0.042 -0.184 0.042 -0.326 Q 0.042 -0.47800000000000004 0.08 -0.562 Q 0.108 -0.624 0.154 -0.651 Q 0.2 -0.678 0.25 -0.678 Q 0.294 -0.678 0.3385 -0.6545 Q 0.383 -0.631 0.41100000000000003 -0.579 Q 0.457 -0.49 0.457 -0.326 M 0.25 -0.039 Q 0.33 -0.039 0.361 -0.146 Q 0.379 -0.209 0.379 -0.338 Q 0.379 -0.467 0.36 -0.523 Q 0.354 -0.538 0.34950000000000003 -0.5465 Q 0.34500000000000003 -0.555 0.332 -0.5750000000000001 Q 0.319 -0.595 0.2975 -0.606 Q 0.276 -0.617 0.249 -0.617 Q 0.169 -0.617 0.137 -0.516 Q 0.12 -0.461 0.12 -0.338 Q 0.12 -0.21 0.137 -0.149 Q 0.168 -0.039 0.25 -0.039 Z"/></g></g><text fill="rgb(0,0,0)" stroke="none" font-family="geogebra-sans-serif, sans-serif" font-size="16px" font-style="normal" font-weight="normal" text-decoration="normal" x="245" y="168" text-anchor="start" dominant-baseline="alphabetic" fill-opacity="1">v</text><g transform="scale(19,19)"><g transform="translate(16.210526315789473,14.391368421052633)"><path fill="rgb(0,0,0)" stroke="none" paint-order="stroke fill markers" d=" M 0.446 -0.444 L 0.274 0 L 0.186 0 L 0.014 -0.444 L 0.092 -0.444 L 0.189 -0.185 Q 0.225 -0.08700000000000001 0.231 -0.053 L 0.232 -0.053 Q 0.24 -0.1 0.292 -0.23600000000000002 L 0.371 -0.444 L 0.446 -0.444 Z"/></g><g transform="translate(16.67152631578947,14.561168421052633) scale(0.7,0.7)"><path fill="rgb(0,0,0)" stroke="none" paint-order="stroke fill markers" d=" M 0.17200000000000001 -0.718 L 0.17200000000000001 0.218 Q 0.17200000000000001 0.248 0.152 0.25 Q 0.132 0.25 0.132 0.214 L 0.132 -0.714 Q 0.132 -0.749 0.152 -0.75 Q 0.17200000000000001 -0.75 0.17200000000000001 -0.718 M 0.367 -0.714 L 0.367 0.214 Q 0.367 0.249 0.34700000000000003 0.25 Q 0.327 0.25 0.327 0.218 L 0.327 -0.718 Q 0.327 -0.748 0.34700000000000003 -0.75 Q 0.367 -0.75 0.367 -0.714 Z"/></g></g><g transform="scale(19,19)"><g transform="translate(7.052631578947368,10.286105263157896)"><path fill="rgb(0,0,0)" stroke="none" paint-order="stroke fill markers" d=" M 0.446 -0.444 L 0.274 0 L 0.186 0 L 0.014 -0.444 L 0.092 -0.444 L 0.189 -0.185 Q 0.225 -0.08700000000000001 0.231 -0.053 L 0.232 -0.053 Q 0.24 -0.1 0.292 -0.23600000000000002 L 0.371 -0.444 L 0.446 -0.444 Z"/></g><g transform="translate(7.513631578947368,10.436105263157897) scale(0.7,0.7)"><path fill="rgb(0,0,0)" stroke="none" paint-order="stroke fill markers" d=" M 0.40900000000000003 -0.633 L 0.40900000000000003 -0.04 L 0.6890000000000001 -0.04 Q 0.721 -0.04 0.722 -0.02 Q 0.722 0 0.6890000000000001 0 L 0.09 0 Q 0.057 0 0.056 -0.02 Q 0.056 -0.04 0.09 -0.04 L 0.369 -0.04 L 0.369 -0.632 Q 0.369 -0.665 0.389 -0.666 Q 0.40900000000000003 -0.666 0.40900000000000003 -0.633 Z"/></g><g transform="translate(8.336009356725146,10.286105263157896)"><path fill="rgb(0,0,0)" stroke="none" paint-order="stroke fill markers" d=" M 0.687 -0.33 L 0.09 -0.33 Q 0.056 -0.33 0.056 -0.35000000000000003 Q 0.056 -0.37 0.089 -0.37 L 0.6880000000000001 -0.37 Q 0.721 -0.37 0.721 -0.35000000000000003 Q 0.721 -0.33 0.687 -0.33 M 0.6880000000000001 -0.13 L 0.089 -0.13 Q 0.056 -0.13 0.056 -0.15 Q 0.056 -0.17 0.09 -0.17 L 0.687 -0.17 Q 0.721 -0.17 0.721 -0.15 Q 0.721 -0.13 0.6880000000000001 -0.13 Z"/></g><g transform="translate(9.391787134502925,10.286105263157896)"><path fill="rgb(0,0,0)" stroke="none" paint-order="stroke fill markers" d=" M 0.157 -0.214 L 0.157 0 L 0.082 0 L 0.082 -0.45 L 0.152 -0.45 L 0.152 -0.359 Q 0.216 -0.454 0.327 -0.455 L 0.327 -0.388 Q 0.253 -0.386 0.20500000000000002 -0.3375 Q 0.157 -0.289 0.157 -0.214 Z"/></g><g transform="translate(9.733787134502926,10.436105263157897) scale(0.7,0.7)"><path fill="rgb(0,0,0)" stroke="none" paint-order="stroke fill markers" d=" M 0.457 -0.326 Q 0.457 -0.17500000000000002 0.417 -0.088 Q 0.393 -0.036000000000000004 0.34850000000000003 -0.007 Q 0.304 0.022 0.249 0.022 Q 0.217 0.022 0.1875 0.012 Q 0.158 0.002 0.1265 -0.027 Q 0.095 -0.056 0.076 -0.101 Q 0.042 -0.184 0.042 -0.326 Q 0.042 -0.47800000000000004 0.08 -0.562 Q 0.108 -0.624 0.154 -0.651 Q 0.2 -0.678 0.25 -0.678 Q 0.294 -0.678 0.3385 -0.6545 Q 0.383 -0.631 0.41100000000000003 -0.579 Q 0.457 -0.49 0.457 -0.326 M 0.25 -0.039 Q 0.33 -0.039 0.361 -0.146 Q 0.379 -0.209 0.379 -0.338 Q 0.379 -0.467 0.36 -0.523 Q 0.354 -0.538 0.34950000000000003 -0.5465 Q 0.34500000000000003 -0.555 0.332 -0.5750000000000001 Q 0.319 -0.595 0.2975 -0.606 Q 0.276 -0.617 0.249 -0.617 Q 0.169 -0.617 0.137 -0.516 Q 0.12 -0.461 0.12 -0.338 Q 0.12 -0.21 0.137 -0.149 Q 0.168 -0.039 0.25 -0.039 Z"/></g><g transform="translate(10.083787134502925,10.286105263157896)"><path fill="rgb(0,0,0)" stroke="none" paint-order="stroke fill markers" d=" M 0.264 -0.082 Q 0.201 0.011 0.11900000000000001 0.011 Q 0.032 0.011 0.016 -0.089 Q 0.013000000000000001 -0.109 0.013000000000000001 -0.131 Q 0.013000000000000001 -0.22 0.051000000000000004 -0.311 Q 0.082 -0.382 0.112 -0.419 Q 0.122 -0.431 0.127 -0.431 Q 0.139 -0.431 0.139 -0.419 Q 0.139 -0.41400000000000003 0.129 -0.4 Q 0.045 -0.28 0.045 -0.17500000000000002 Q 0.045 -0.08 0.109 -0.064 Q 0.12 -0.061 0.133 -0.061 Q 0.201 -0.061 0.257 -0.138 Q 0.264 -0.145 0.266 -0.165 Q 0.276 -0.23800000000000002 0.28700000000000003 -0.266 Q 0.3 -0.291 0.315 -0.291 Q 0.334 -0.291 0.336 -0.268 Q 0.336 -0.24 0.308 -0.168 Q 0.306 -0.161 0.303 -0.155 Q 0.297 -0.14400000000000002 0.297 -0.139 Q 0.297 -0.111 0.317 -0.084 Q 0.335 -0.061 0.372 -0.061 Q 0.449 -0.061 0.511 -0.14400000000000002 Q 0.562 -0.214 0.562 -0.28 Q 0.562 -0.331 0.527 -0.367 Q 0.512 -0.38 0.512 -0.394 Q 0.512 -0.419 0.539 -0.435 Q 0.55 -0.442 0.562 -0.442 Q 0.599 -0.442 0.604 -0.388 Q 0.605 -0.377 0.605 -0.371 Q 0.605 -0.307 0.5750000000000001 -0.213 Q 0.55 -0.136 0.511 -0.082 Q 0.443 0.011 0.358 0.011 Q 0.277 0.011 0.264 -0.082 Z"/></g></g><g transform="scale(19,19)"><g transform="translate(11.210526315789474,14.536105263157896)"><path fill="rgb(0,0,0)" stroke="none" paint-order="stroke fill markers" d=" M 0.455 -0.5 L 0.455 -0.5 Q 0.455 -0.34700000000000003 0.377 -0.19 Q 0.307 -0.05 0.222 -0.005 Q 0.191 0.011 0.162 0.011 Q 0.08 0.011 0.052000000000000005 -0.101 Q 0.042 -0.14300000000000002 0.042 -0.194 Q 0.042 -0.35100000000000003 0.122 -0.509 Q 0.192 -0.646 0.277 -0.6900000000000001 Q 0.307 -0.705 0.335 -0.705 Q 0.422 -0.705 0.447 -0.578 Q 0.455 -0.54 0.455 -0.5 M 0.148 -0.363 L 0.148 -0.363 L 0.357 -0.363 Q 0.389 -0.495 0.389 -0.562 Q 0.389 -0.675 0.342 -0.682 Q 0.338 -0.683 0.334 -0.683 Q 0.28300000000000003 -0.683 0.225 -0.578 Q 0.187 -0.511 0.149 -0.368 Q 0.149 -0.365 0.148 -0.363 M 0.34800000000000003 -0.331 L 0.14 -0.331 Q 0.108 -0.21 0.108 -0.133 Q 0.108 -0.013000000000000001 0.162 -0.011 Q 0.218 -0.011 0.278 -0.128 Q 0.317 -0.202 0.34800000000000003 -0.331 Z"/></g><g transform="translate(11.679526315789474,14.686105263157897) scale(0.7,0.7)"><path fill="rgb(0,0,0)" stroke="none" paint-order="stroke fill markers" d=" M 0.457 -0.326 Q 0.457 -0.17500000000000002 0.417 -0.088 Q 0.393 -0.036000000000000004 0.34850000000000003 -0.007 Q 0.304 0.022 0.249 0.022 Q 0.217 0.022 0.1875 0.012 Q 0.158 0.002 0.1265 -0.027 Q 0.095 -0.056 0.076 -0.101 Q 0.042 -0.184 0.042 -0.326 Q 0.042 -0.47800000000000004 0.08 -0.562 Q 0.108 -0.624 0.154 -0.651 Q 0.2 -0.678 0.25 -0.678 Q 0.294 -0.678 0.3385 -0.6545 Q 0.383 -0.631 0.41100000000000003 -0.579 Q 0.457 -0.49 0.457 -0.326 M 0.25 -0.039 Q 0.33 -0.039 0.361 -0.146 Q 0.379 -0.209 0.379 -0.338 Q 0.379 -0.467 0.36 -0.523 Q 0.354 -0.538 0.34950000000000003 -0.5465 Q 0.34500000000000003 -0.555 0.332 -0.5750000000000001 Q 0.319 -0.595 0.2975 -0.606 Q 0.276 -0.617 0.249 -0.617 Q 0.169 -0.617 0.137 -0.516 Q 0.12 -0.461 0.12 -0.338 Q 0.12 -0.21 0.137 -0.149 Q 0.168 -0.039 0.25 -0.039 Z"/></g></g></g></g></svg>