<svg version="1.1" xmlns="http://www.w3.org/2000/svg" xmlns:xlink="http://www.w3.org/1999/xlink"
  width="807" height="863">
  <defs>
    <clipPath id="TVLlvQCOJOFa">
      <path fill="none" stroke="none" d=" M 0 0 L 807 0 L 807 863 L 0 863 L 0 0 Z" />
    </clipPath>
  </defs>
  <g transform="scale(1,1)" clip-path="url(#TVLlvQCOJOFa)">
    <g>
      <rect fill="rgb(255,255,255,0)" stroke="none" x="0" y="0" width="807" height="863"
        fill-opacity="1" />
      <path fill="rgb(255,127,0)" stroke="none" paint-order="stroke fill markers"
        d=" M 641.1161336179546 771.00195363539 C 644.1710843578164 769.0946735788816 646.857647651444 766.6529002414627 649.047236125072 763.7935045792481 L 625.228531789679 745.5542797113123 Z"
        fill-opacity="0.09803921568627451" />
      <path fill="none" stroke="rgb(255,127,0)" paint-order="fill stroke markers"
        d=" M 641.1161336179546 771.00195363539 C 644.1710843578164 769.0946735788816 646.857647651444 766.6529002414627 649.047236125072 763.7935045792481 L 625.228531789679 745.5542797113123 Z"
        stroke-opacity="0.6" stroke-linecap="round" stroke-linejoin="round" stroke-miterlimit="10"
        stroke-width="2.5" />
      <text fill="rgb(255,127,0)" stroke="none" font-family="geogebra-sans-serif, sans-serif"
        font-size="16px" font-style="normal" font-weight="normal" text-decoration="normal" x="646"
        y="778" text-anchor="start" dominant-baseline="alphabetic" fill-opacity="1">α</text>
      <text fill="none" stroke="rgb(255,255,255)" font-family="geogebra-sans-serif, sans-serif"
        font-size="16px" font-style="normal" font-weight="normal" text-decoration="normal" x="646"
        y="778" text-anchor="start" dominant-baseline="alphabetic" stroke-opacity="1"
        stroke-linejoin="bevel" stroke-miterlimit="10" stroke-width="3">α</text>
      <text fill="rgb(255,127,0)" stroke="none" font-family="geogebra-sans-serif, sans-serif"
        font-size="16px" font-style="normal" font-weight="normal" text-decoration="normal" x="646"
        y="778" text-anchor="start" dominant-baseline="alphabetic" fill-opacity="1">α</text>
      <path fill="none" stroke="rgb(0,0,0)" paint-order="fill stroke markers"
        d=" M 101.35046166839584 454.88802727755484 L 728.3317194524814 63.4483771474911"
        stroke-opacity="0.6980392156862745" stroke-linecap="round" stroke-linejoin="round"
        stroke-miterlimit="10" stroke-width="2.5" />
      <text fill="rgb(0,0,0)" stroke="none" font-family="geogebra-sans-serif, sans-serif"
        font-size="16px" font-style="normal" font-weight="normal" text-decoration="normal" x="466"
        y="535" text-anchor="start" dominant-baseline="alphabetic" fill-opacity="1">d</text>
      <text fill="none" stroke="rgb(255,255,255)" font-family="geogebra-sans-serif, sans-serif"
        font-size="16px" font-style="normal" font-weight="normal" text-decoration="normal" x="466"
        y="535" text-anchor="start" dominant-baseline="alphabetic" stroke-opacity="1"
        stroke-linejoin="bevel" stroke-miterlimit="10" stroke-width="3">d</text>
      <text fill="rgb(0,0,0)" stroke="none" font-family="geogebra-sans-serif, sans-serif"
        font-size="16px" font-style="normal" font-weight="normal" text-decoration="normal" x="466"
        y="535" text-anchor="start" dominant-baseline="alphabetic" fill-opacity="1">d</text>
      <path fill="none" stroke="rgb(0,0,0)" paint-order="fill stroke markers"
        d=" M 347.7260362953052 301.06976311859273 L 625.228531789679 745.5542797113123"
        stroke-opacity="0.6980392156862745" stroke-linecap="round" stroke-linejoin="round"
        stroke-miterlimit="10" stroke-width="2.5" />
      <text fill="rgb(0,0,0)" stroke="none" font-family="geogebra-sans-serif, sans-serif"
        font-size="16px" font-style="normal" font-weight="normal" text-decoration="normal" x="209"
        y="364" text-anchor="start" dominant-baseline="alphabetic" fill-opacity="1">h</text>
      <text fill="none" stroke="rgb(255,255,255)" font-family="geogebra-sans-serif, sans-serif"
        font-size="16px" font-style="normal" font-weight="normal" text-decoration="normal" x="209"
        y="364" text-anchor="start" dominant-baseline="alphabetic" stroke-opacity="1"
        stroke-linejoin="bevel" stroke-miterlimit="10" stroke-width="3">h</text>
      <text fill="rgb(0,0,0)" stroke="none" font-family="geogebra-sans-serif, sans-serif"
        font-size="16px" font-style="normal" font-weight="normal" text-decoration="normal" x="209"
        y="364" text-anchor="start" dominant-baseline="alphabetic" fill-opacity="1">h</text>
      <path fill="none" stroke="rgb(0,0,0)" paint-order="fill stroke markers"
        d=" M 101.35046166839584 454.88802727755484 L 347.7260362953052 301.06976311859273"
        stroke-opacity="0.6980392156862745" stroke-linecap="round" stroke-linejoin="round"
        stroke-miterlimit="10" stroke-width="2.5" />
      <text fill="rgb(0,0,0)" stroke="none" font-family="geogebra-sans-serif, sans-serif"
        font-size="16px" font-style="normal" font-weight="normal" text-decoration="normal" x="378"
        y="586" text-anchor="start" dominant-baseline="alphabetic" fill-opacity="1">r</text>
      <text fill="none" stroke="rgb(255,255,255)" font-family="geogebra-sans-serif, sans-serif"
        font-size="16px" font-style="normal" font-weight="normal" text-decoration="normal" x="378"
        y="586" text-anchor="start" dominant-baseline="alphabetic" stroke-opacity="1"
        stroke-linejoin="bevel" stroke-miterlimit="10" stroke-width="3">r</text>
      <text fill="rgb(0,0,0)" stroke="none" font-family="geogebra-sans-serif, sans-serif"
        font-size="16px" font-style="normal" font-weight="normal" text-decoration="normal" x="378"
        y="586" text-anchor="start" dominant-baseline="alphabetic" fill-opacity="1">r</text>
      <path fill="none" stroke="rgb(0,0,0)" paint-order="fill stroke markers"
        d=" M 180.83854977483452 405.2616803786701 L 625.228531789679 745.5542797113123"
        stroke-opacity="0.6980392156862745" stroke-linecap="round" stroke-linejoin="round"
        stroke-miterlimit="10" stroke-width="2.5" />
      <path fill="rgb(255,127,0)" stroke="none" paint-order="stroke fill markers"
        d=" M 625.2294440352994 744.3042155224227 C 624.8536980565605 744.3042155224227 624.4821764468837 744.4729408439194 624.2360857757043 744.7943120084817 C 623.816367203067 745.3424248070303 623.9204512882998 746.1270071526498 624.4685640868483 746.546725725287 L 681.1767314403721 789.9711287341661 L 679.3528089535786 792.3529991677054 L 695.433964933259 799.3142434786882 L 684.520589332827 785.6043662726773 L 682.6966668460334 787.9862367062167 L 625.9884994925096 744.5618336973376 C 625.7617578585233 744.3882057958798 625.4945495163686 744.3042155224227 625.2294440352994 744.3042155224227 Z"
        fill-opacity="0.6980392156862745" />
      <path fill="rgb(255,127,0)" stroke="none" paint-order="stroke fill markers"
        d=" M 625.2273447355875 744.304111816121 C 625.0012724312038 744.304111816121 624.7724442859225 744.3654141422343 624.5665483801675 744.4939599644758 C 623.9809499540453 744.85956330619 623.8026087011283 745.6306646947015 624.1682120428425 746.2162631208238 L 659.0055213951748 802.0162824297546 L 656.460754002767 803.6050426125822 L 669.0688155113673 815.7746475772204 L 663.6709282812557 799.1035554279041 L 661.126160888848 800.6923156107316 L 661.1261608888477 800.6923156107316 L 626.2888515365155 744.8922963018009 C 626.0517940170429 744.5125937814336 625.6442555208944 744.304111816121 625.2273447355875 744.304111816121 Z"
        fill-opacity="0.2" />
      <path fill="rgb(255,127,0)" stroke="none" paint-order="stroke fill markers"
        d=" M 625.2273447355875 744.304111816121 C 625.0012724312038 744.304111816121 624.7724442859225 744.3654141422343 624.5665483801675 744.4939599644758 C 623.9809499540453 744.85956330619 623.8026087011283 745.6306646947015 624.1682120428425 746.2162631208238 L 659.0055213951748 802.0162824297546 L 656.460754002767 803.6050426125822 L 669.0688155113673 815.7746475772204 L 663.6709282812557 799.1035554279041 L 661.126160888848 800.6923156107316 L 661.1261608888477 800.6923156107316 L 626.2888515365155 744.8922963018009 C 626.0517940170429 744.5125937814336 625.6442555208944 744.304111816121 625.2273447355875 744.304111816121 Z"
        fill-opacity="0.6980392156862745" />
      <path fill="rgb(255,127,0)" stroke="none" paint-order="stroke fill markers"
        d=" M 695.433964933259 799.3142434786882 L 678.7628727839426 804.7121307087999 L 680.3516329667702 807.2568981012078 L 668.4068321018559 814.7143278303839 C 667.8212336757337 815.0799311720981 667.6428924228167 815.8510325606096 668.0084957645308 816.4366309867319 C 668.2455532840034 816.8163335070992 668.653091780152 817.0248154724118 669.0700025654588 817.0248154724118 C 669.2960748698425 817.0248154724118 669.5249030151239 816.9635131462985 669.7307989208788 816.834967324057 L 681.6755997857931 809.3775375948808 L 683.2643599686207 811.9223049872886 L 695.433964933259 799.3142434786882 Z"
        fill-opacity="0.6980392156862745" />
      <path fill="rgb(21,101,192)" stroke="none" paint-order="stroke fill markers"
        d=" M 106.35046166839584 454.88802727755484 C 106.35046166839584 457.6494510267088 104.1118854175498 459.88802727755484 101.35046166839584 459.88802727755484 C 98.58903791924187 459.88802727755484 96.35046166839584 457.6494510267088 96.35046166839584 454.88802727755484 C 96.35046166839584 452.1266035284009 98.58903791924187 449.88802727755484 101.35046166839584 449.88802727755484 C 104.1118854175498 449.88802727755484 106.35046166839584 452.1266035284009 106.35046166839584 454.88802727755484 Z"
        fill-opacity="1" />
      <path fill="none" stroke="rgb(0,0,0)" paint-order="fill stroke markers"
        d=" M 106.35046166839584 454.88802727755484 C 106.35046166839584 457.6494510267088 104.1118854175498 459.88802727755484 101.35046166839584 459.88802727755484 C 98.58903791924187 459.88802727755484 96.35046166839584 457.6494510267088 96.35046166839584 454.88802727755484 C 96.35046166839584 452.1266035284009 98.58903791924187 449.88802727755484 101.35046166839584 449.88802727755484 C 104.1118854175498 449.88802727755484 106.35046166839584 452.1266035284009 106.35046166839584 454.88802727755484 Z"
        stroke-opacity="1" stroke-linecap="round" stroke-linejoin="round" stroke-miterlimit="10" />
      <text fill="rgb(21,101,192)" stroke="none" font-family="geogebra-sans-serif, sans-serif"
        font-size="16px" font-style="normal" font-weight="normal" text-decoration="normal" x="90"
        y="439" text-anchor="start" dominant-baseline="alphabetic" fill-opacity="1">A</text>
      <text fill="none" stroke="rgb(255,255,255)" font-family="geogebra-sans-serif, sans-serif"
        font-size="16px" font-style="normal" font-weight="normal" text-decoration="normal" x="90"
        y="439" text-anchor="start" dominant-baseline="alphabetic" stroke-opacity="1"
        stroke-linejoin="bevel" stroke-miterlimit="10" stroke-width="3">A</text>
      <text fill="rgb(21,101,192)" stroke="none" font-family="geogebra-sans-serif, sans-serif"
        font-size="16px" font-style="normal" font-weight="normal" text-decoration="normal" x="90"
        y="439" text-anchor="start" dominant-baseline="alphabetic" fill-opacity="1">A</text>
      <path fill="rgb(21,101,192)" stroke="none" paint-order="stroke fill markers"
        d=" M 733.3317194524814 63.4483771474911 C 733.3317194524814 66.20980089664506 731.0931432016354 68.4483771474911 728.3317194524814 68.4483771474911 C 725.5702957033274 68.4483771474911 723.3317194524814 66.20980089664506 723.3317194524814 63.4483771474911 C 723.3317194524814 60.68695339833713 725.5702957033274 58.4483771474911 728.3317194524814 58.4483771474911 C 731.0931432016354 58.4483771474911 733.3317194524814 60.68695339833713 733.3317194524814 63.4483771474911 Z"
        fill-opacity="1" />
      <path fill="none" stroke="rgb(0,0,0)" paint-order="fill stroke markers"
        d=" M 733.3317194524814 63.4483771474911 C 733.3317194524814 66.20980089664506 731.0931432016354 68.4483771474911 728.3317194524814 68.4483771474911 C 725.5702957033274 68.4483771474911 723.3317194524814 66.20980089664506 723.3317194524814 63.4483771474911 C 723.3317194524814 60.68695339833713 725.5702957033274 58.4483771474911 728.3317194524814 58.4483771474911 C 731.0931432016354 58.4483771474911 733.3317194524814 60.68695339833713 733.3317194524814 63.4483771474911 Z"
        stroke-opacity="1" stroke-linecap="round" stroke-linejoin="round" stroke-miterlimit="10" />
      <text fill="rgb(21,101,192)" stroke="none" font-family="geogebra-sans-serif, sans-serif"
        font-size="16px" font-style="normal" font-weight="normal" text-decoration="normal" x="732"
        y="53" text-anchor="start" dominant-baseline="alphabetic" fill-opacity="1">B</text>
      <text fill="none" stroke="rgb(255,255,255)" font-family="geogebra-sans-serif, sans-serif"
        font-size="16px" font-style="normal" font-weight="normal" text-decoration="normal" x="732"
        y="53" text-anchor="start" dominant-baseline="alphabetic" stroke-opacity="1"
        stroke-linejoin="bevel" stroke-miterlimit="10" stroke-width="3">B</text>
      <text fill="rgb(21,101,192)" stroke="none" font-family="geogebra-sans-serif, sans-serif"
        font-size="16px" font-style="normal" font-weight="normal" text-decoration="normal" x="732"
        y="53" text-anchor="start" dominant-baseline="alphabetic" fill-opacity="1">B</text>
      <path fill="rgb(21,101,192)" stroke="none" paint-order="stroke fill markers"
        d=" M 352.7260362953052 301.06976311859273 C 352.7260362953052 303.8311868677467 350.48746004445917 306.06976311859273 347.7260362953052 306.06976311859273 C 344.9646125461513 306.06976311859273 342.7260362953052 303.8311868677467 342.7260362953052 301.06976311859273 C 342.7260362953052 298.3083393694388 344.9646125461513 296.06976311859273 347.7260362953052 296.06976311859273 C 350.48746004445917 296.06976311859273 352.7260362953052 298.3083393694388 352.7260362953052 301.06976311859273 Z"
        fill-opacity="1" />
      <path fill="none" stroke="rgb(0,0,0)" paint-order="fill stroke markers"
        d=" M 352.7260362953052 301.06976311859273 C 352.7260362953052 303.8311868677467 350.48746004445917 306.06976311859273 347.7260362953052 306.06976311859273 C 344.9646125461513 306.06976311859273 342.7260362953052 303.8311868677467 342.7260362953052 301.06976311859273 C 342.7260362953052 298.3083393694388 344.9646125461513 296.06976311859273 347.7260362953052 296.06976311859273 C 350.48746004445917 296.06976311859273 352.7260362953052 298.3083393694388 352.7260362953052 301.06976311859273 Z"
        stroke-opacity="1" stroke-linecap="round" stroke-linejoin="round" stroke-miterlimit="10" />
      <text fill="rgb(21,101,192)" stroke="none" font-family="geogebra-sans-serif, sans-serif"
        font-size="16px" font-style="normal" font-weight="normal" text-decoration="normal" x="336"
        y="293" text-anchor="start" dominant-baseline="alphabetic" fill-opacity="1">P</text>
      <text fill="none" stroke="rgb(255,255,255)" font-family="geogebra-sans-serif, sans-serif"
        font-size="16px" font-style="normal" font-weight="normal" text-decoration="normal" x="336"
        y="293" text-anchor="start" dominant-baseline="alphabetic" stroke-opacity="1"
        stroke-linejoin="bevel" stroke-miterlimit="10" stroke-width="3">P</text>
      <text fill="rgb(21,101,192)" stroke="none" font-family="geogebra-sans-serif, sans-serif"
        font-size="16px" font-style="normal" font-weight="normal" text-decoration="normal" x="336"
        y="293" text-anchor="start" dominant-baseline="alphabetic" fill-opacity="1">P</text>
      <path fill="rgb(21,101,192)" stroke="none" paint-order="stroke fill markers"
        d=" M 630.228531789679 745.5542797113123 C 630.228531789679 748.3157034604664 627.989955538833 750.5542797113123 625.228531789679 750.5542797113123 C 622.467108040525 750.5542797113123 620.228531789679 748.3157034604664 620.228531789679 745.5542797113123 C 620.228531789679 742.7928559621583 622.467108040525 740.5542797113123 625.228531789679 740.5542797113123 C 627.989955538833 740.5542797113123 630.228531789679 742.7928559621583 630.228531789679 745.5542797113123 Z"
        fill-opacity="1" />
      <path fill="none" stroke="rgb(0,0,0)" paint-order="fill stroke markers"
        d=" M 630.228531789679 745.5542797113123 C 630.228531789679 748.3157034604664 627.989955538833 750.5542797113123 625.228531789679 750.5542797113123 C 622.467108040525 750.5542797113123 620.228531789679 748.3157034604664 620.228531789679 745.5542797113123 C 620.228531789679 742.7928559621583 622.467108040525 740.5542797113123 625.228531789679 740.5542797113123 C 627.989955538833 740.5542797113123 630.228531789679 742.7928559621583 630.228531789679 745.5542797113123 Z"
        stroke-opacity="1" stroke-linecap="round" stroke-linejoin="round" stroke-miterlimit="10" />
      <text fill="rgb(21,101,192)" stroke="none" font-family="geogebra-sans-serif, sans-serif"
        font-size="16px" font-style="normal" font-weight="normal" text-decoration="normal" x="629"
        y="736" text-anchor="start" dominant-baseline="alphabetic" fill-opacity="1">C</text>
      <text fill="none" stroke="rgb(255,255,255)" font-family="geogebra-sans-serif, sans-serif"
        font-size="16px" font-style="normal" font-weight="normal" text-decoration="normal" x="629"
        y="736" text-anchor="start" dominant-baseline="alphabetic" stroke-opacity="1"
        stroke-linejoin="bevel" stroke-miterlimit="10" stroke-width="3">C</text>
      <text fill="rgb(21,101,192)" stroke="none" font-family="geogebra-sans-serif, sans-serif"
        font-size="16px" font-style="normal" font-weight="normal" text-decoration="normal" x="629"
        y="736" text-anchor="start" dominant-baseline="alphabetic" fill-opacity="1">C</text>
      <g transform="scale(19,19)">
        <g transform="translate(35,39.8718947368421)">
          <path fill="rgb(255,127,0)" stroke="none" paint-order="stroke fill markers"
            d=" M 0.537 -0.595 L 0.217 -0.595 Q 0.186 -0.595 0.183 -0.609 Q 0.182 -0.612 0.182 -0.615 Q 0.188 -0.635 0.217 -0.635 L 0.554 -0.635 Q 0.534 -0.661 0.53 -0.6930000000000001 Q 0.53 -0.709 0.544 -0.713 Q 0.547 -0.714 0.55 -0.714 Q 0.5650000000000001 -0.714 0.5700000000000001 -0.6920000000000001 Q 0.583 -0.654 0.611 -0.635 Q 0.625 -0.625 0.625 -0.615 Q 0.625 -0.604 0.608 -0.594 Q 0.5630000000000001 -0.5720000000000001 0.529 -0.529 Q 0.518 -0.516 0.51 -0.516 Q 0.496 -0.516 0.491 -0.53 Q 0.49 -0.533 0.49 -0.536 Q 0.49 -0.552 0.537 -0.595 Z" />
        </g>
        <g transform="translate(35.0285,40.13489473684211)">
          <path fill="rgb(255,127,0)" stroke="none" paint-order="stroke fill markers"
            d=" M 0.513 -0.329 L 0.183 -0.329 L 0.183 -0.07 L 0.392 -0.07 Q 0.398 -0.07 0.41000000000000003 -0.07050000000000001 Q 0.422 -0.07100000000000001 0.428 -0.07100000000000001 L 0.554 -0.07100000000000001 L 0.554 0 L 0.094 0 L 0.094 -0.6910000000000001 L 0.54 -0.6910000000000001 L 0.54 -0.626 L 0.357 -0.626 Q 0.35100000000000003 -0.626 0.339 -0.6265000000000001 Q 0.327 -0.627 0.321 -0.627 L 0.183 -0.627 L 0.183 -0.39 L 0.513 -0.39 L 0.513 -0.329 Z" />
        </g>
      </g>
      <text fill="rgb(0,0,0)" stroke="none" font-family="geogebra-sans-serif, sans-serif"
        font-size="16px" font-style="normal" font-weight="normal" text-decoration="normal" x="279"
        y="378" text-anchor="start" dominant-baseline="alphabetic" fill-opacity="1">y</text>
      <text fill="rgb(0,0,0)" stroke="none" font-family="geogebra-sans-serif, sans-serif"
        font-size="16px" font-style="normal" font-weight="normal" text-decoration="normal" x="525"
        y="158" text-anchor="start" dominant-baseline="alphabetic" fill-opacity="1">l - h</text>
      <g transform="scale(19,19)">
        <g transform="translate(9.842105263157896,7.378210526315789)">
          <path fill="rgb(0,0,0)" stroke="none" paint-order="stroke fill markers"
            d=" M 0.661 -0.23 L 0.116 -0.23 Q 0.084 -0.23 0.083 -0.25 Q 0.083 -0.27 0.116 -0.27 L 0.661 -0.27 Q 0.6930000000000001 -0.27 0.6940000000000001 -0.25 Q 0.6940000000000001 -0.23 0.661 -0.23 Z" />
        </g>
        <g transform="translate(10.620105263157896,7.378210526315789)">
          <path fill="rgb(0,0,0)" stroke="none" paint-order="stroke fill markers"
            d=" M 0.435 -0.298 L 0.435 0 L 0.357 0 L 0.357 -0.291 Q 0.357 -0.305 0.3565 -0.3145 Q 0.356 -0.324 0.35050000000000003 -0.3405 Q 0.34500000000000003 -0.357 0.3355 -0.3675 Q 0.326 -0.378 0.3065 -0.386 Q 0.28700000000000003 -0.394 0.26 -0.394 Q 0.20800000000000002 -0.394 0.1835 -0.34900000000000003 Q 0.159 -0.304 0.159 -0.245 L 0.159 0 L 0.081 0 L 0.081 -0.6940000000000001 L 0.156 -0.6940000000000001 L 0.156 -0.383 Q 0.212 -0.455 0.298 -0.455 Q 0.435 -0.455 0.435 -0.298 Z" />
        </g>
        <g transform="translate(11.414883040935674,7.378210526315789)">
          <path fill="rgb(0,0,0)" stroke="none" paint-order="stroke fill markers"
            d=" M 0.676 -0.595 L 0.15 -0.34600000000000003 L 0.675 -0.098 Q 0.6920000000000001 -0.085 0.6940000000000001 -0.077 Q 0.6940000000000001 -0.061 0.679 -0.058 Q 0.676 -0.057 0.674 -0.057 Q 0.668 -0.057 0.657 -0.063 L 0.10200000000000001 -0.325 Q 0.083 -0.333 0.083 -0.34600000000000003 Q 0.083 -0.359 0.10200000000000001 -0.368 L 0.658 -0.63 Q 0.669 -0.636 0.674 -0.636 Q 0.6900000000000001 -0.636 0.6930000000000001 -0.621 Q 0.6940000000000001 -0.618 0.6940000000000001 -0.616 Q 0.6940000000000001 -0.602 0.676 -0.595 M 0.661 0.137 L 0.116 0.137 Q 0.084 0.137 0.083 0.117 Q 0.083 0.097 0.117 0.097 L 0.66 0.097 Q 0.6920000000000001 0.097 0.6940000000000001 0.117 Q 0.6940000000000001 0.137 0.661 0.137 Z" />
        </g>
        <g transform="translate(12.470660818713453,7.378210526315789)">
          <path fill="rgb(0,0,0)" stroke="none" paint-order="stroke fill markers"
            d=" M 0.446 -0.444 L 0.228 0.091 Q 0.2 0.16 0.17350000000000002 0.1825 Q 0.147 0.20500000000000002 0.115 0.20500000000000002 Q 0.078 0.20500000000000002 0.043000000000000003 0.197 L 0.037 0.132 Q 0.077 0.148 0.115 0.148 Q 0.125 0.148 0.131 0.146 Q 0.137 0.14400000000000002 0.1485 0.1305 Q 0.16 0.117 0.17200000000000001 0.09 Q 0.181 0.07 0.20800000000000002 0 L 0.014 -0.444 L 0.093 -0.444 L 0.147 -0.319 Q 0.155 -0.301 0.1715 -0.261 Q 0.188 -0.221 0.211 -0.154 Q 0.234 -0.08700000000000001 0.23700000000000002 -0.057 L 0.23800000000000002 -0.057 Q 0.241 -0.126 0.371 -0.444 L 0.446 -0.444 Z" />
        </g>
        <g transform="translate(13.223438596491231,7.378210526315789)">
          <path fill="rgb(0,0,0)" stroke="none" paint-order="stroke fill markers"
            d=" M 0.676 -0.595 L 0.15 -0.34600000000000003 L 0.675 -0.098 Q 0.6920000000000001 -0.085 0.6940000000000001 -0.077 Q 0.6940000000000001 -0.061 0.679 -0.058 Q 0.676 -0.057 0.674 -0.057 Q 0.668 -0.057 0.657 -0.063 L 0.10200000000000001 -0.325 Q 0.083 -0.333 0.083 -0.34600000000000003 Q 0.083 -0.359 0.10200000000000001 -0.368 L 0.658 -0.63 Q 0.669 -0.636 0.674 -0.636 Q 0.6900000000000001 -0.636 0.6930000000000001 -0.621 Q 0.6940000000000001 -0.618 0.6940000000000001 -0.616 Q 0.6940000000000001 -0.602 0.676 -0.595 M 0.661 0.137 L 0.116 0.137 Q 0.084 0.137 0.083 0.117 Q 0.083 0.097 0.117 0.097 L 0.66 0.097 Q 0.6920000000000001 0.097 0.6940000000000001 0.117 Q 0.6940000000000001 0.137 0.661 0.137 Z" />
        </g>
        <g transform="translate(14.27921637426901,7.378210526315789)">
          <path fill="rgb(0,0,0)" stroke="none" paint-order="stroke fill markers"
            d=" M 0.156 -0.6940000000000001 L 0.156 0 L 0.081 0 L 0.081 -0.6940000000000001 L 0.156 -0.6940000000000001 Z" />
        </g>
        <g transform="translate(14.740438596491233,7.378210526315789)">
          <path fill="rgb(0,0,0)" stroke="none" paint-order="stroke fill markers"
            d=" M 0.661 -0.23 L 0.116 -0.23 Q 0.084 -0.23 0.083 -0.25 Q 0.083 -0.27 0.116 -0.27 L 0.661 -0.27 Q 0.6930000000000001 -0.27 0.6940000000000001 -0.25 Q 0.6940000000000001 -0.23 0.661 -0.23 Z" />
        </g>
        <g transform="translate(15.740660818713454,7.378210526315789)">
          <path fill="rgb(0,0,0)" stroke="none" paint-order="stroke fill markers"
            d=" M 0.435 -0.298 L 0.435 0 L 0.357 0 L 0.357 -0.291 Q 0.357 -0.305 0.3565 -0.3145 Q 0.356 -0.324 0.35050000000000003 -0.3405 Q 0.34500000000000003 -0.357 0.3355 -0.3675 Q 0.326 -0.378 0.3065 -0.386 Q 0.28700000000000003 -0.394 0.26 -0.394 Q 0.20800000000000002 -0.394 0.1835 -0.34900000000000003 Q 0.159 -0.304 0.159 -0.245 L 0.159 0 L 0.081 0 L 0.081 -0.6940000000000001 L 0.156 -0.6940000000000001 L 0.156 -0.383 Q 0.212 -0.455 0.298 -0.455 Q 0.435 -0.455 0.435 -0.298 Z" />
        </g>
      </g>
      <g transform="scale(19,19)">
        <g transform="translate(36.36842105263158,43.714)">
          <path fill="rgb(255,127,0)" stroke="none" paint-order="stroke fill markers"
            d=" M 0.537 -0.595 L 0.217 -0.595 Q 0.186 -0.595 0.183 -0.609 Q 0.182 -0.612 0.182 -0.615 Q 0.188 -0.635 0.217 -0.635 L 0.554 -0.635 Q 0.534 -0.661 0.53 -0.6930000000000001 Q 0.53 -0.709 0.544 -0.713 Q 0.547 -0.714 0.55 -0.714 Q 0.5650000000000001 -0.714 0.5700000000000001 -0.6920000000000001 Q 0.583 -0.654 0.611 -0.635 Q 0.625 -0.625 0.625 -0.615 Q 0.625 -0.604 0.608 -0.594 Q 0.5630000000000001 -0.5720000000000001 0.529 -0.529 Q 0.518 -0.516 0.51 -0.516 Q 0.496 -0.516 0.491 -0.53 Q 0.49 -0.533 0.49 -0.536 Q 0.49 -0.552 0.537 -0.595 Z" />
        </g>
        <g transform="translate(36.39692105263158,43.977000000000004)">
          <path fill="rgb(255,127,0)" stroke="none" paint-order="stroke fill markers"
            d=" M 0.513 -0.329 L 0.183 -0.329 L 0.183 -0.07 L 0.392 -0.07 Q 0.398 -0.07 0.41000000000000003 -0.07050000000000001 Q 0.422 -0.07100000000000001 0.428 -0.07100000000000001 L 0.554 -0.07100000000000001 L 0.554 0 L 0.094 0 L 0.094 -0.6910000000000001 L 0.54 -0.6910000000000001 L 0.54 -0.626 L 0.357 -0.626 Q 0.35100000000000003 -0.626 0.339 -0.6265000000000001 Q 0.327 -0.627 0.321 -0.627 L 0.183 -0.627 L 0.183 -0.39 L 0.513 -0.39 L 0.513 -0.329 Z" />
        </g>
        <g transform="translate(36.993921052631585,44.126999999999995) scale(0.7,0.7)">
          <path fill="rgb(255,127,0)" stroke="none" paint-order="stroke fill markers"
            d=" M 0.156 -0.6940000000000001 L 0.156 0 L 0.081 0 L 0.081 -0.6940000000000001 L 0.156 -0.6940000000000001 Z" />
        </g>
      </g>
      <g transform="scale(19,19)">
        <g transform="translate(32.31578947368421,41.92452631578947)">
          <path fill="rgb(255,127,0)" stroke="none" paint-order="stroke fill markers"
            d=" M 0.537 -0.595 L 0.217 -0.595 Q 0.186 -0.595 0.183 -0.609 Q 0.182 -0.612 0.182 -0.615 Q 0.188 -0.635 0.217 -0.635 L 0.554 -0.635 Q 0.534 -0.661 0.53 -0.6930000000000001 Q 0.53 -0.709 0.544 -0.713 Q 0.547 -0.714 0.55 -0.714 Q 0.5650000000000001 -0.714 0.5700000000000001 -0.6920000000000001 Q 0.583 -0.654 0.611 -0.635 Q 0.625 -0.625 0.625 -0.615 Q 0.625 -0.604 0.608 -0.594 Q 0.5630000000000001 -0.5720000000000001 0.529 -0.529 Q 0.518 -0.516 0.51 -0.516 Q 0.496 -0.516 0.491 -0.53 Q 0.49 -0.533 0.49 -0.536 Q 0.49 -0.552 0.537 -0.595 Z" />
        </g>
        <g transform="translate(32.34428947368421,42.187526315789476)">
          <path fill="rgb(255,127,0)" stroke="none" paint-order="stroke fill markers"
            d=" M 0.513 -0.329 L 0.183 -0.329 L 0.183 -0.07 L 0.392 -0.07 Q 0.398 -0.07 0.41000000000000003 -0.07050000000000001 Q 0.422 -0.07100000000000001 0.428 -0.07100000000000001 L 0.554 -0.07100000000000001 L 0.554 0 L 0.094 0 L 0.094 -0.6910000000000001 L 0.54 -0.6910000000000001 L 0.54 -0.626 L 0.357 -0.626 Q 0.35100000000000003 -0.626 0.339 -0.6265000000000001 Q 0.327 -0.627 0.321 -0.627 L 0.183 -0.627 L 0.183 -0.39 L 0.513 -0.39 L 0.513 -0.329 Z" />
        </g>
        <g transform="translate(32.941289473684215,42.33752631578947) scale(0.7,0.7)">
          <path fill="rgb(255,127,0)" stroke="none" paint-order="stroke fill markers"
            d=" M 0.434 -0.6940000000000001 L 0.434 0 L 0.356 0 L 0.356 -0.052000000000000005 Q 0.291 0.011 0.20800000000000002 0.011 Q 0.136 0.011 0.08600000000000001 -0.0565 Q 0.036000000000000004 -0.124 0.036000000000000004 -0.222 Q 0.036000000000000004 -0.319 0.08750000000000001 -0.387 Q 0.139 -0.455 0.213 -0.455 Q 0.293 -0.455 0.359 -0.4 L 0.359 -0.6940000000000001 L 0.434 -0.6940000000000001 M 0.356 -0.139 L 0.356 -0.339 Q 0.318 -0.394 0.259 -0.394 Q 0.20400000000000001 -0.394 0.159 -0.352 Q 0.114 -0.31 0.114 -0.221 Q 0.114 -0.135 0.1545 -0.0925 Q 0.195 -0.05 0.249 -0.05 Q 0.291 -0.05 0.323 -0.078 Q 0.356 -0.108 0.356 -0.139 Z" />
        </g>
      </g>
    </g>
  </g>
</svg>
