<svg version="1.1" xmlns="http://www.w3.org/2000/svg" xmlns:xlink="http://www.w3.org/1999/xlink"
  width="919" height="863">
  <defs>
    <clipPath id="IdvTClfeXEEK">
      <path fill="none" stroke="none" d=" M 0 0 L 919 0 L 919 863 L 0 863 L 0 0 Z" />
    </clipPath>
  </defs>
  <g transform="scale(1,1)" clip-path="url(#IdvTClfeXEEK)">
    <g>
      <rect fill="rgb(255,255,255,0)" stroke="none" x="0" y="0" width="919" height="863"
        fill-opacity="1" />
      <path fill="rgb(0,0,0)" stroke="none" paint-order="stroke fill markers"
        d=" M 626.3636363636358 456.1818181818182 C 626.3636363636358 463.17626661004 628.8075985742449 469.95088097362486 633.2729957296879 475.3344241432499 L 656.3636363636358 456.1818181818182 Z"
        fill-opacity="0.09803921568627451" />
      <path fill="none" stroke="rgb(0,0,0)" paint-order="fill stroke markers"
        d=" M 626.3636363636358 456.1818181818182 C 626.3636363636358 463.17626661004 628.8075985742449 469.95088097362486 633.2729957296879 475.3344241432499 L 656.3636363636358 456.1818181818182 Z"
        stroke-opacity="0.6" stroke-linecap="round" stroke-linejoin="round" stroke-miterlimit="10"
        stroke-width="2.5" />
      <text fill="rgb(0,0,0)" stroke="none" font-family="geogebra-sans-serif, sans-serif"
        font-size="16px" font-style="normal" font-weight="normal" text-decoration="normal" x="608"
        y="473" text-anchor="start" dominant-baseline="alphabetic" fill-opacity="1">α</text>
      <text fill="none" stroke="rgb(255,255,255)" font-family="geogebra-sans-serif, sans-serif"
        font-size="16px" font-style="normal" font-weight="normal" text-decoration="normal" x="608"
        y="473" text-anchor="start" dominant-baseline="alphabetic" stroke-opacity="1"
        stroke-linejoin="bevel" stroke-miterlimit="10" stroke-width="3">α</text>
      <text fill="rgb(0,0,0)" stroke="none" font-family="geogebra-sans-serif, sans-serif"
        font-size="16px" font-style="normal" font-weight="normal" text-decoration="normal" x="608"
        y="473" text-anchor="start" dominant-baseline="alphabetic" fill-opacity="1">α</text>
      <text fill="rgb(0,0,0)" stroke="none" font-family="geogebra-sans-serif, sans-serif"
        font-size="14px" font-style="normal" font-weight="normal" text-decoration="normal" x="617"
        y="480" text-anchor="start" dominant-baseline="alphabetic" fill-opacity="1">2</text>
      <text fill="none" stroke="rgb(255,255,255)" font-family="geogebra-sans-serif, sans-serif"
        font-size="14px" font-style="normal" font-weight="normal" text-decoration="normal" x="617"
        y="480" text-anchor="start" dominant-baseline="alphabetic" stroke-opacity="1"
        stroke-linejoin="bevel" stroke-miterlimit="10" stroke-width="3">2</text>
      <text fill="rgb(0,0,0)" stroke="none" font-family="geogebra-sans-serif, sans-serif"
        font-size="14px" font-style="normal" font-weight="normal" text-decoration="normal" x="617"
        y="480" text-anchor="start" dominant-baseline="alphabetic" fill-opacity="1">2</text>
      <path fill="rgb(0,0,0)" stroke="none" paint-order="stroke fill markers"
        d=" M 686.3636363636358 456.1818181818182 C 686.3636363636358 449.1873697535964 683.9196741530268 442.4127553900115 679.4542769975839 437.02921222038646 L 656.3636363636358 456.1818181818182 Z"
        fill-opacity="0.09803921568627451" />
      <path fill="none" stroke="rgb(0,0,0)" paint-order="fill stroke markers"
        d=" M 686.3636363636358 456.1818181818182 C 686.3636363636358 449.1873697535964 683.9196741530268 442.4127553900115 679.4542769975839 437.02921222038646 L 656.3636363636358 456.1818181818182 Z"
        stroke-opacity="0.6" stroke-linecap="round" stroke-linejoin="round" stroke-miterlimit="10"
        stroke-width="2.5" />
      <text fill="rgb(0,0,0)" stroke="none" font-family="geogebra-sans-serif, sans-serif"
        font-size="16px" font-style="normal" font-weight="normal" text-decoration="normal" x="689"
        y="448" text-anchor="start" dominant-baseline="alphabetic" fill-opacity="1">α</text>
      <text fill="none" stroke="rgb(255,255,255)" font-family="geogebra-sans-serif, sans-serif"
        font-size="16px" font-style="normal" font-weight="normal" text-decoration="normal" x="689"
        y="448" text-anchor="start" dominant-baseline="alphabetic" stroke-opacity="1"
        stroke-linejoin="bevel" stroke-miterlimit="10" stroke-width="3">α</text>
      <text fill="rgb(0,0,0)" stroke="none" font-family="geogebra-sans-serif, sans-serif"
        font-size="16px" font-style="normal" font-weight="normal" text-decoration="normal" x="689"
        y="448" text-anchor="start" dominant-baseline="alphabetic" fill-opacity="1">α</text>
      <text fill="rgb(0,0,0)" stroke="none" font-family="geogebra-sans-serif, sans-serif"
        font-size="14px" font-style="normal" font-weight="normal" text-decoration="normal" x="698"
        y="455" text-anchor="start" dominant-baseline="alphabetic" fill-opacity="1">1</text>
      <text fill="none" stroke="rgb(255,255,255)" font-family="geogebra-sans-serif, sans-serif"
        font-size="14px" font-style="normal" font-weight="normal" text-decoration="normal" x="698"
        y="455" text-anchor="start" dominant-baseline="alphabetic" stroke-opacity="1"
        stroke-linejoin="bevel" stroke-miterlimit="10" stroke-width="3">1</text>
      <text fill="rgb(0,0,0)" stroke="none" font-family="geogebra-sans-serif, sans-serif"
        font-size="14px" font-style="normal" font-weight="normal" text-decoration="normal" x="698"
        y="455" text-anchor="start" dominant-baseline="alphabetic" fill-opacity="1">1</text>
      <path fill="none" stroke="rgb(0,0,0)" paint-order="fill stroke markers"
        d=" M 445.2737753636345 719.8490306818187 L 445.2737753636345 99.80268068181749"
        stroke-opacity="0.6980392156862745" stroke-linecap="round" stroke-linejoin="round"
        stroke-miterlimit="10" stroke-width="2.5" />
      <text fill="rgb(219,97,20)" stroke="none" font-family="geogebra-sans-serif, sans-serif"
        font-size="16px" font-style="normal" font-weight="normal" text-decoration="normal" x="749"
        y="426" text-anchor="start" dominant-baseline="alphabetic" fill-opacity="1">E</text>
      <text fill="none" stroke="rgb(255,255,255)" font-family="geogebra-sans-serif, sans-serif"
        font-size="16px" font-style="normal" font-weight="normal" text-decoration="normal" x="749"
        y="426" text-anchor="start" dominant-baseline="alphabetic" stroke-opacity="1"
        stroke-linejoin="bevel" stroke-miterlimit="10" stroke-width="3">E</text>
      <text fill="rgb(219,97,20)" stroke="none" font-family="geogebra-sans-serif, sans-serif"
        font-size="16px" font-style="normal" font-weight="normal" text-decoration="normal" x="749"
        y="426" text-anchor="start" dominant-baseline="alphabetic" fill-opacity="1">E</text>
      <text fill="rgb(219,97,20)" stroke="none" font-family="geogebra-sans-serif, sans-serif"
        font-size="14px" font-style="normal" font-weight="normal" text-decoration="normal" x="760"
        y="433" text-anchor="start" dominant-baseline="alphabetic" fill-opacity="1">y</text>
      <text fill="none" stroke="rgb(255,255,255)" font-family="geogebra-sans-serif, sans-serif"
        font-size="14px" font-style="normal" font-weight="normal" text-decoration="normal" x="760"
        y="433" text-anchor="start" dominant-baseline="alphabetic" stroke-opacity="1"
        stroke-linejoin="bevel" stroke-miterlimit="10" stroke-width="3">y</text>
      <text fill="rgb(219,97,20)" stroke="none" font-family="geogebra-sans-serif, sans-serif"
        font-size="14px" font-style="normal" font-weight="normal" text-decoration="normal" x="760"
        y="433" text-anchor="start" dominant-baseline="alphabetic" fill-opacity="1">y</text>
      <path fill="none" stroke="rgb(219,97,20)" paint-order="fill stroke markers"
        d=" M 740.7258640518816 456.1818181818182 L 740.7258640518816 386.2072977449073"
        stroke-opacity="0.6980392156862745" stroke-linecap="round" stroke-linejoin="round"
        stroke-miterlimit="10" stroke-width="2.5" />
      <text fill="rgb(219,97,20)" stroke="none" font-family="geogebra-sans-serif, sans-serif"
        font-size="16px" font-style="normal" font-weight="normal" text-decoration="normal" x="693"
        y="479" text-anchor="start" dominant-baseline="alphabetic" fill-opacity="1">E</text>
      <text fill="none" stroke="rgb(255,255,255)" font-family="geogebra-sans-serif, sans-serif"
        font-size="16px" font-style="normal" font-weight="normal" text-decoration="normal" x="693"
        y="479" text-anchor="start" dominant-baseline="alphabetic" stroke-opacity="1"
        stroke-linejoin="bevel" stroke-miterlimit="10" stroke-width="3">E</text>
      <text fill="rgb(219,97,20)" stroke="none" font-family="geogebra-sans-serif, sans-serif"
        font-size="16px" font-style="normal" font-weight="normal" text-decoration="normal" x="693"
        y="479" text-anchor="start" dominant-baseline="alphabetic" fill-opacity="1">E</text>
      <text fill="rgb(219,97,20)" stroke="none" font-family="geogebra-sans-serif, sans-serif"
        font-size="14px" font-style="normal" font-weight="normal" text-decoration="normal" x="704"
        y="486" text-anchor="start" dominant-baseline="alphabetic" fill-opacity="1">x</text>
      <text fill="none" stroke="rgb(255,255,255)" font-family="geogebra-sans-serif, sans-serif"
        font-size="14px" font-style="normal" font-weight="normal" text-decoration="normal" x="704"
        y="486" text-anchor="start" dominant-baseline="alphabetic" stroke-opacity="1"
        stroke-linejoin="bevel" stroke-miterlimit="10" stroke-width="3">x</text>
      <text fill="rgb(219,97,20)" stroke="none" font-family="geogebra-sans-serif, sans-serif"
        font-size="14px" font-style="normal" font-weight="normal" text-decoration="normal" x="704"
        y="486" text-anchor="start" dominant-baseline="alphabetic" fill-opacity="1">x</text>
      <path fill="none" stroke="rgb(219,97,20)" paint-order="fill stroke markers"
        d=" M 656.3636363636358 456.1818181818182 L 740.7258640518816 456.1818181818182"
        stroke-opacity="0.6980392156862745" stroke-linecap="round" stroke-linejoin="round"
        stroke-miterlimit="10" stroke-width="2.5" />
      <path fill="rgb(255,127,0)" stroke="none" paint-order="stroke fill markers"
        d=" M 445.2737753636345 456.1818181818182 L 441.0237753636345 473.1818181818182 L 444.0237753636345 473.1818181818182 L 444.0237753636345 719.8490306818187 C 444.0237753636345 720.5393866191072 444.58341942634604 721.0990306818187 445.2737753636345 721.0990306818187 C 445.964131300923 721.0990306818187 446.5237753636345 720.5393866191072 446.5237753636345 719.8490306818187 L 446.5237753636345 473.1818181818182 L 449.5237753636345 473.1818181818182 L 445.2737753636345 456.1818181818182 Z"
        fill-opacity="0.6980392156862745" />
      <path fill="rgb(255,127,0)" stroke="none" paint-order="stroke fill markers"
        d=" M 445.2737753636345 99.80268068181749 L 441.0237753636345 116.80268068181749 L 444.0237753636345 116.80268068181749 L 444.0237753636345 719.8490306818187 C 444.0237753636345 720.5393866191072 444.58341942634604 721.0990306818187 445.2737753636345 721.0990306818187 C 445.964131300923 721.0990306818187 446.5237753636345 720.5393866191072 446.5237753636345 719.8490306818187 L 446.5237753636345 116.80268068181749 L 449.5237753636345 116.80268068181749 L 445.2737753636345 99.80268068181749 Z"
        fill-opacity="0.6980392156862745" />
      <path fill="rgb(255,127,0)" stroke="none" paint-order="stroke fill markers"
        d=" M 639.3636363636358 451.9318181818182 L 639.3636363636358 454.9318181818182 L 445.2737753636345 454.9318181818182 C 444.58341942634604 454.9318181818182 444.0237753636345 455.4914622445297 444.0237753636345 456.1818181818182 C 444.0237753636345 456.87217411910666 444.58341942634604 457.4318181818182 445.2737753636345 457.4318181818182 L 639.3636363636358 457.4318181818182 L 639.3636363636358 460.4318181818182 L 656.3636363636358 456.1818181818182 L 639.3636363636358 451.9318181818182 Z"
        fill-opacity="0.6980392156862745" />
      <path fill="rgb(219,97,20)" stroke="none" paint-order="stroke fill markers"
        d=" M 740.7258640518816 386.2072977449073 L 724.9278818481082 393.78926703324265 L 726.8431424442514 396.0983310966375 L 726.8431424442513 396.0983310966375 L 655.5656111152429 455.2197081554037 C 655.0342524199948 455.660445330071 654.960789162554 456.4484847349631 655.4015263372213 456.97984343021113 C 655.6487257093469 457.27787033465347 656.0051804867159 457.4318510819939 656.3643224493477 457.4318510819939 C 656.6455025577382 457.4318510819939 656.928329821223 457.3374660107745 657.1616616120288 457.1439282082327 L 728.4391929410373 398.02255114946644 L 730.3544535371805 400.3316152128612 L 740.7258640518816 386.2072977449073 Z"
        fill-opacity="0.6980392156862745" />
      <path fill="rgb(219,97,20)" stroke="none" paint-order="stroke fill markers"
        d=" M 656.3636363636358 456.1818181818182 L 640.5656541598624 463.76378747015355 L 642.4809147560056 466.0728515335483 L 444.4757501152415 630.308870655404 C 443.94439141999345 630.7496078300713 443.8709281625526 631.5376472349634 444.31166533722 632.0690059302115 C 444.5588647093456 632.3670328346537 444.9153194867146 632.5210135819942 445.27446144934646 632.5210135819942 C 445.555641557737 632.5210135819942 445.8384688212218 632.4266285107748 446.0718006120275 632.233090708233 L 644.0769652527915 467.99707158637733 L 645.9922258489347 470.3061356497721 L 656.3636363636358 456.1818181818182 Z"
        fill-opacity="0.6980392156862745" />
      <path fill="rgb(21,101,192)" stroke="none" paint-order="stroke fill markers"
        d=" M 450.2737753636345 719.8490306818187 C 450.2737753636345 722.6104544309727 448.03519911278846 724.8490306818187 445.2737753636345 724.8490306818187 C 442.51235161448056 724.8490306818187 440.2737753636345 722.6104544309727 440.2737753636345 719.8490306818187 C 440.2737753636345 717.0876069326647 442.51235161448056 714.8490306818187 445.2737753636345 714.8490306818187 C 448.03519911278846 714.8490306818187 450.2737753636345 717.0876069326647 450.2737753636345 719.8490306818187 Z"
        fill-opacity="1" />
      <path fill="none" stroke="rgb(0,0,0)" paint-order="fill stroke markers"
        d=" M 450.2737753636345 719.8490306818187 C 450.2737753636345 722.6104544309727 448.03519911278846 724.8490306818187 445.2737753636345 724.8490306818187 C 442.51235161448056 724.8490306818187 440.2737753636345 722.6104544309727 440.2737753636345 719.8490306818187 C 440.2737753636345 717.0876069326647 442.51235161448056 714.8490306818187 445.2737753636345 714.8490306818187 C 448.03519911278846 714.8490306818187 450.2737753636345 717.0876069326647 450.2737753636345 719.8490306818187 Z"
        stroke-opacity="1" stroke-linecap="round" stroke-linejoin="round" stroke-miterlimit="10" />
      <text fill="rgb(21,101,192)" stroke="none" font-family="geogebra-sans-serif, sans-serif"
        font-size="16px" font-style="normal" font-weight="normal" text-decoration="normal" x="423"
        y="724" text-anchor="start" dominant-baseline="alphabetic" fill-opacity="1">A</text>
      <text fill="none" stroke="rgb(255,255,255)" font-family="geogebra-sans-serif, sans-serif"
        font-size="16px" font-style="normal" font-weight="normal" text-decoration="normal" x="423"
        y="724" text-anchor="start" dominant-baseline="alphabetic" stroke-opacity="1"
        stroke-linejoin="bevel" stroke-miterlimit="10" stroke-width="3">A</text>
      <text fill="rgb(21,101,192)" stroke="none" font-family="geogebra-sans-serif, sans-serif"
        font-size="16px" font-style="normal" font-weight="normal" text-decoration="normal" x="423"
        y="724" text-anchor="start" dominant-baseline="alphabetic" fill-opacity="1">A</text>
      <path fill="rgb(21,101,192)" stroke="none" paint-order="stroke fill markers"
        d=" M 450.2737753636345 99.80268068181749 C 450.2737753636345 102.56410443097145 448.03519911278846 104.80268068181749 445.2737753636345 104.80268068181749 C 442.51235161448056 104.80268068181749 440.2737753636345 102.56410443097145 440.2737753636345 99.80268068181749 C 440.2737753636345 97.04125693266353 442.51235161448056 94.80268068181749 445.2737753636345 94.80268068181749 C 448.03519911278846 94.80268068181749 450.2737753636345 97.04125693266353 450.2737753636345 99.80268068181749 Z"
        fill-opacity="1" />
      <path fill="none" stroke="rgb(0,0,0)" paint-order="fill stroke markers"
        d=" M 450.2737753636345 99.80268068181749 C 450.2737753636345 102.56410443097145 448.03519911278846 104.80268068181749 445.2737753636345 104.80268068181749 C 442.51235161448056 104.80268068181749 440.2737753636345 102.56410443097145 440.2737753636345 99.80268068181749 C 440.2737753636345 97.04125693266353 442.51235161448056 94.80268068181749 445.2737753636345 94.80268068181749 C 448.03519911278846 94.80268068181749 450.2737753636345 97.04125693266353 450.2737753636345 99.80268068181749 Z"
        stroke-opacity="1" stroke-linecap="round" stroke-linejoin="round" stroke-miterlimit="10" />
      <text fill="rgb(21,101,192)" stroke="none" font-family="geogebra-sans-serif, sans-serif"
        font-size="16px" font-style="normal" font-weight="normal" text-decoration="normal" x="419"
        y="105" text-anchor="start" dominant-baseline="alphabetic" fill-opacity="1">B</text>
      <text fill="none" stroke="rgb(255,255,255)" font-family="geogebra-sans-serif, sans-serif"
        font-size="16px" font-style="normal" font-weight="normal" text-decoration="normal" x="419"
        y="105" text-anchor="start" dominant-baseline="alphabetic" stroke-opacity="1"
        stroke-linejoin="bevel" stroke-miterlimit="10" stroke-width="3">B</text>
      <text fill="rgb(21,101,192)" stroke="none" font-family="geogebra-sans-serif, sans-serif"
        font-size="16px" font-style="normal" font-weight="normal" text-decoration="normal" x="419"
        y="105" text-anchor="start" dominant-baseline="alphabetic" fill-opacity="1">B</text>
      <path fill="rgb(21,101,192)" stroke="none" paint-order="stroke fill markers"
        d=" M 661.3636363636358 456.1818181818182 C 661.3636363636358 458.94324193097214 659.1250601127898 461.1818181818182 656.3636363636358 461.1818181818182 C 653.6022126144818 461.1818181818182 651.3636363636358 458.94324193097214 651.3636363636358 456.1818181818182 C 651.3636363636358 453.42039443266424 653.6022126144818 451.1818181818182 656.3636363636358 451.1818181818182 C 659.1250601127898 451.1818181818182 661.3636363636358 453.42039443266424 661.3636363636358 456.1818181818182 Z"
        fill-opacity="1" />
      <path fill="none" stroke="rgb(0,0,0)" paint-order="fill stroke markers"
        d=" M 661.3636363636358 456.1818181818182 C 661.3636363636358 458.94324193097214 659.1250601127898 461.1818181818182 656.3636363636358 461.1818181818182 C 653.6022126144818 461.1818181818182 651.3636363636358 458.94324193097214 651.3636363636358 456.1818181818182 C 651.3636363636358 453.42039443266424 653.6022126144818 451.1818181818182 656.3636363636358 451.1818181818182 C 659.1250601127898 451.1818181818182 661.3636363636358 453.42039443266424 661.3636363636358 456.1818181818182 Z"
        stroke-opacity="1" stroke-linecap="round" stroke-linejoin="round" stroke-miterlimit="10" />
      <text fill="rgb(21,101,192)" stroke="none" font-family="geogebra-sans-serif, sans-serif"
        font-size="16px" font-style="normal" font-weight="normal" text-decoration="normal" x="648"
        y="445" text-anchor="start" dominant-baseline="alphabetic" fill-opacity="1">C</text>
      <text fill="none" stroke="rgb(255,255,255)" font-family="geogebra-sans-serif, sans-serif"
        font-size="16px" font-style="normal" font-weight="normal" text-decoration="normal" x="648"
        y="445" text-anchor="start" dominant-baseline="alphabetic" stroke-opacity="1"
        stroke-linejoin="bevel" stroke-miterlimit="10" stroke-width="3">C</text>
      <text fill="rgb(21,101,192)" stroke="none" font-family="geogebra-sans-serif, sans-serif"
        font-size="16px" font-style="normal" font-weight="normal" text-decoration="normal" x="648"
        y="445" text-anchor="start" dominant-baseline="alphabetic" fill-opacity="1">C</text>
      <path fill="rgb(21,101,192)" stroke="none" paint-order="stroke fill markers"
        d=" M 450.2737753636345 456.1818181818182 C 450.2737753636345 458.94324193097214 448.03519911278846 461.1818181818182 445.2737753636345 461.1818181818182 C 442.51235161448056 461.1818181818182 440.2737753636345 458.94324193097214 440.2737753636345 456.1818181818182 C 440.2737753636345 453.42039443266424 442.51235161448056 451.1818181818182 445.2737753636345 451.1818181818182 C 448.03519911278846 451.1818181818182 450.2737753636345 453.42039443266424 450.2737753636345 456.1818181818182 Z"
        fill-opacity="1" />
      <path fill="none" stroke="rgb(0,0,0)" paint-order="fill stroke markers"
        d=" M 450.2737753636345 456.1818181818182 C 450.2737753636345 458.94324193097214 448.03519911278846 461.1818181818182 445.2737753636345 461.1818181818182 C 442.51235161448056 461.1818181818182 440.2737753636345 458.94324193097214 440.2737753636345 456.1818181818182 C 440.2737753636345 453.42039443266424 442.51235161448056 451.1818181818182 445.2737753636345 451.1818181818182 C 448.03519911278846 451.1818181818182 450.2737753636345 453.42039443266424 450.2737753636345 456.1818181818182 Z"
        stroke-opacity="1" stroke-linecap="round" stroke-linejoin="round" stroke-miterlimit="10" />
      <text fill="rgb(21,101,192)" stroke="none" font-family="geogebra-sans-serif, sans-serif"
        font-size="16px" font-style="normal" font-weight="normal" text-decoration="normal" x="421"
        y="460" text-anchor="start" dominant-baseline="alphabetic" fill-opacity="1">H</text>
      <text fill="none" stroke="rgb(255,255,255)" font-family="geogebra-sans-serif, sans-serif"
        font-size="16px" font-style="normal" font-weight="normal" text-decoration="normal" x="421"
        y="460" text-anchor="start" dominant-baseline="alphabetic" stroke-opacity="1"
        stroke-linejoin="bevel" stroke-miterlimit="10" stroke-width="3">H</text>
      <text fill="rgb(21,101,192)" stroke="none" font-family="geogebra-sans-serif, sans-serif"
        font-size="16px" font-style="normal" font-weight="normal" text-decoration="normal" x="421"
        y="460" text-anchor="start" dominant-baseline="alphabetic" fill-opacity="1">H</text>
      <text fill="rgb(255,127,0)" stroke="none" font-family="geogebra-sans-serif, sans-serif"
        font-size="16px" font-style="normal" font-weight="bold" text-decoration="normal" x="426"
        y="594" text-anchor="start" dominant-baseline="alphabetic" fill-opacity="1">h</text>
      <text fill="rgb(255,127,0)" stroke="none" font-family="geogebra-sans-serif, sans-serif"
        font-size="16px" font-style="normal" font-weight="bold" text-decoration="normal" x="428"
        y="408" text-anchor="start" dominant-baseline="alphabetic" fill-opacity="1">l</text>
      <text fill="rgb(255,127,0)" stroke="none" font-family="geogebra-sans-serif, sans-serif"
        font-size="16px" font-style="normal" font-weight="bold" text-decoration="normal" x="552"
        y="480" text-anchor="start" dominant-baseline="alphabetic" fill-opacity="1">s</text>
      <text fill="rgb(255,127,0)" stroke="none" font-family="geogebra-sans-serif, sans-serif"
        font-size="16px" font-style="normal" font-weight="bold" text-decoration="normal" x="561"
        y="561" text-anchor="start" dominant-baseline="alphabetic" fill-opacity="1">r</text>
      <text fill="rgb(255,127,0)" stroke="none" font-family="geogebra-sans-serif, sans-serif"
        font-size="16px" font-style="normal" font-weight="bold" text-decoration="normal" x="682"
        y="413" text-anchor="start" dominant-baseline="alphabetic" fill-opacity="1">E</text>
      <g transform="scale(19,19)">
        <g transform="translate(17.105263157894736,5.536105263157895)">
          <path fill="rgb(0,0,0)" stroke="none" paint-order="stroke fill markers"
            d=" M 0.486 -0.381 L 0.39 0.001 Q 0.366 0.099 0.28300000000000003 0.16 Q 0.222 0.20500000000000002 0.156 0.20500000000000002 Q 0.089 0.20500000000000002 0.061 0.159 Q 0.05 0.14 0.05 0.11800000000000001 Q 0.05 0.067 0.091 0.055 Q 0.099 0.053 0.106 0.053 Q 0.138 0.053 0.14200000000000002 0.081 Q 0.14300000000000002 0.084 0.14300000000000002 0.088 Q 0.14300000000000002 0.111 0.123 0.129 Q 0.109 0.14100000000000001 0.08 0.14100000000000001 Q 0.098 0.183 0.156 0.183 Q 0.218 0.183 0.266 0.12 Q 0.305 0.068 0.328 -0.021 Q 0.329 -0.025 0.331 -0.034 Q 0.28600000000000003 0.011 0.23 0.011 Q 0.15 0.011 0.121 -0.048 Q 0.108 -0.074 0.108 -0.108 Q 0.108 -0.163 0.161 -0.305 Q 0.163 -0.311 0.166 -0.318 Q 0.183 -0.364 0.183 -0.388 Q 0.183 -0.42 0.158 -0.42 Q 0.10300000000000001 -0.42 0.068 -0.329 L 0.068 -0.328 Q 0.062 -0.313 0.057 -0.296 Q 0.046 -0.279 0.041 -0.278 Q 0.029 -0.278 0.029 -0.28800000000000003 Q 0.029 -0.306 0.05 -0.35100000000000003 Q 0.094 -0.442 0.161 -0.442 Q 0.214 -0.442 0.23500000000000001 -0.397 Q 0.243 -0.38 0.243 -0.36 Q 0.243 -0.339 0.223 -0.28800000000000003 Q 0.17200000000000001 -0.156 0.17200000000000001 -0.092 Q 0.17200000000000001 -0.011 0.234 -0.011 Q 0.292 -0.011 0.335 -0.073 Q 0.34500000000000003 -0.088 0.34700000000000003 -0.096 L 0.392 -0.276 Q 0.399 -0.309 0.41200000000000003 -0.356 Q 0.422 -0.399 0.426 -0.41000000000000003 Q 0.439 -0.431 0.461 -0.431 Q 0.486 -0.426 0.49 -0.404 Q 0.49 -0.395 0.486 -0.381 Z" />
        </g>
        <g transform="translate(17.909040935672515,5.536105263157895)">
          <path fill="rgb(0,0,0)" stroke="none" paint-order="stroke fill markers"
            d=" M 0.687 -0.327 L 0.09 -0.327 Q 0.058 -0.327 0.056 -0.34700000000000003 Q 0.056 -0.367 0.089 -0.367 L 0.6880000000000001 -0.367 Q 0.72 -0.367 0.721 -0.34700000000000003 Q 0.721 -0.327 0.687 -0.327 M 0.6880000000000001 -0.133 L 0.089 -0.133 Q 0.057 -0.133 0.056 -0.153 Q 0.056 -0.17300000000000001 0.09 -0.17300000000000001 L 0.687 -0.17300000000000001 Q 0.719 -0.17300000000000001 0.721 -0.153 Q 0.721 -0.133 0.6880000000000001 -0.133 Z" />
        </g>
        <g transform="translate(18.964818713450292,5.536105263157895)">
          <path fill="rgb(0,0,0)" stroke="none" paint-order="stroke fill markers"
            d=" M 0.258 -0.683 L 0.114 -0.105 Q 0.108 -0.082 0.108 -0.057 Q 0.108 -0.011 0.138 -0.011 Q 0.177 -0.011 0.203 -0.097 Q 0.20800000000000002 -0.112 0.214 -0.135 Q 0.222 -0.152 0.228 -0.153 Q 0.24 -0.153 0.24 -0.14300000000000002 Q 0.24 -0.128 0.222 -0.074 Q 0.216 -0.057 0.21 -0.045 Q 0.184 0.011 0.135 0.011 Q 0.083 0.011 0.057 -0.031 Q 0.044 -0.053 0.044 -0.081 Q 0.044 -0.097 0.049 -0.115 L 0.17500000000000002 -0.615 L 0.178 -0.635 Q 0.178 -0.646 0.164 -0.649 Q 0.152 -0.652 0.129 -0.652 Q 0.106 -0.652 0.10400000000000001 -0.663 Q 0.10400000000000001 -0.681 0.123 -0.684 L 0.245 -0.6940000000000001 Q 0.258 -0.6940000000000001 0.258 -0.683 Z" />
        </g>
        <g transform="translate(19.505040935672515,5.536105263157895)">
          <path fill="rgb(0,0,0)" stroke="none" paint-order="stroke fill markers"
            d=" M 0.661 -0.23 L 0.116 -0.23 Q 0.084 -0.23 0.083 -0.25 Q 0.083 -0.27 0.116 -0.27 L 0.661 -0.27 Q 0.6930000000000001 -0.27 0.6940000000000001 -0.25 Q 0.6940000000000001 -0.23 0.661 -0.23 Z" />
        </g>
        <g transform="translate(20.505263157894735,5.536105263157895)">
          <path fill="rgb(0,0,0)" stroke="none" paint-order="stroke fill markers"
            d=" M 0.28700000000000003 -0.683 L 0.209 -0.365 Q 0.271 -0.442 0.357 -0.442 Q 0.446 -0.442 0.467 -0.373 L 0.467 -0.372 Q 0.47200000000000003 -0.355 0.47200000000000003 -0.335 Q 0.47200000000000003 -0.279 0.41100000000000003 -0.115 Q 0.393 -0.07100000000000001 0.393 -0.044 Q 0.393 -0.011 0.417 -0.011 Q 0.47900000000000004 -0.011 0.515 -0.121 L 0.519 -0.135 Q 0.524 -0.151 0.529 -0.152 L 0.529 -0.153 L 0.534 -0.153 Q 0.546 -0.153 0.546 -0.14300000000000002 Q 0.546 -0.126 0.525 -0.08 Q 0.482 0.011 0.41500000000000004 0.011 Q 0.364 0.011 0.342 -0.032 Q 0.333 -0.05 0.333 -0.07100000000000001 Q 0.333 -0.089 0.34600000000000003 -0.126 Q 0.40800000000000003 -0.28400000000000003 0.40800000000000003 -0.35000000000000003 Q 0.40800000000000003 -0.42 0.354 -0.42 Q 0.306 -0.42 0.258 -0.385 Q 0.221 -0.356 0.193 -0.299 L 0.19 -0.293 Q 0.186 -0.269 0.179 -0.248 Q 0.17400000000000002 -0.225 0.162 -0.181 L 0.14 -0.091 L 0.121 -0.015 Q 0.114 0.006 0.09 0.01 Q 0.08700000000000001 0.011 0.084 0.011 Q 0.06 0.011 0.056 -0.01 Q 0.055 -0.014 0.055 -0.017 Q 0.055 -0.025 0.059000000000000004 -0.039 L 0.20400000000000001 -0.615 L 0.20700000000000002 -0.635 Q 0.20700000000000002 -0.646 0.193 -0.649 L 0.193 -0.649 Q 0.181 -0.652 0.157 -0.652 Q 0.135 -0.652 0.133 -0.664 Q 0.133 -0.681 0.152 -0.684 L 0.274 -0.6940000000000001 Q 0.28700000000000003 -0.6940000000000001 0.28700000000000003 -0.683 Z" />
        </g>
      </g>
      <g transform="scale(19,19)">
        <g transform="translate(18.94736842105263,24.117684210526313)">
          <path fill="rgb(0,0,0)" stroke="none" paint-order="stroke fill markers"
            d=" M 0.486 -0.381 L 0.39 0.001 Q 0.366 0.099 0.28300000000000003 0.16 Q 0.222 0.20500000000000002 0.156 0.20500000000000002 Q 0.089 0.20500000000000002 0.061 0.159 Q 0.05 0.14 0.05 0.11800000000000001 Q 0.05 0.067 0.091 0.055 Q 0.099 0.053 0.106 0.053 Q 0.138 0.053 0.14200000000000002 0.081 Q 0.14300000000000002 0.084 0.14300000000000002 0.088 Q 0.14300000000000002 0.111 0.123 0.129 Q 0.109 0.14100000000000001 0.08 0.14100000000000001 Q 0.098 0.183 0.156 0.183 Q 0.218 0.183 0.266 0.12 Q 0.305 0.068 0.328 -0.021 Q 0.329 -0.025 0.331 -0.034 Q 0.28600000000000003 0.011 0.23 0.011 Q 0.15 0.011 0.121 -0.048 Q 0.108 -0.074 0.108 -0.108 Q 0.108 -0.163 0.161 -0.305 Q 0.163 -0.311 0.166 -0.318 Q 0.183 -0.364 0.183 -0.388 Q 0.183 -0.42 0.158 -0.42 Q 0.10300000000000001 -0.42 0.068 -0.329 L 0.068 -0.328 Q 0.062 -0.313 0.057 -0.296 Q 0.046 -0.279 0.041 -0.278 Q 0.029 -0.278 0.029 -0.28800000000000003 Q 0.029 -0.306 0.05 -0.35100000000000003 Q 0.094 -0.442 0.161 -0.442 Q 0.214 -0.442 0.23500000000000001 -0.397 Q 0.243 -0.38 0.243 -0.36 Q 0.243 -0.339 0.223 -0.28800000000000003 Q 0.17200000000000001 -0.156 0.17200000000000001 -0.092 Q 0.17200000000000001 -0.011 0.234 -0.011 Q 0.292 -0.011 0.335 -0.073 Q 0.34500000000000003 -0.088 0.34700000000000003 -0.096 L 0.392 -0.276 Q 0.399 -0.309 0.41200000000000003 -0.356 Q 0.422 -0.399 0.426 -0.41000000000000003 Q 0.439 -0.431 0.461 -0.431 Q 0.486 -0.426 0.49 -0.404 Q 0.49 -0.395 0.486 -0.381 Z" />
        </g>
        <g transform="translate(19.75114619883041,24.117684210526313)">
          <path fill="rgb(0,0,0)" stroke="none" paint-order="stroke fill markers"
            d=" M 0.687 -0.327 L 0.09 -0.327 Q 0.058 -0.327 0.056 -0.34700000000000003 Q 0.056 -0.367 0.089 -0.367 L 0.6880000000000001 -0.367 Q 0.72 -0.367 0.721 -0.34700000000000003 Q 0.721 -0.327 0.687 -0.327 M 0.6880000000000001 -0.133 L 0.089 -0.133 Q 0.057 -0.133 0.056 -0.153 Q 0.056 -0.17300000000000001 0.09 -0.17300000000000001 L 0.687 -0.17300000000000001 Q 0.719 -0.17300000000000001 0.721 -0.153 Q 0.721 -0.133 0.6880000000000001 -0.133 Z" />
        </g>
        <g transform="translate(20.806923976608186,24.117684210526313)">
          <path fill="rgb(0,0,0)" stroke="none" paint-order="stroke fill markers"
            d=" M 0.46 -0.32 Q 0.46 -0.17400000000000002 0.423 -0.094 Q 0.364 0.018000000000000002 0.249 0.022 Q 0.158 0.022 0.10300000000000001 -0.05 Q 0.092 -0.063 0.084 -0.079 Q 0.039 -0.162 0.039 -0.32 Q 0.039 -0.467 0.076 -0.547 Q 0.126 -0.659 0.23800000000000002 -0.666 L 0.25 -0.666 Q 0.339 -0.666 0.395 -0.595 L 0.395 -0.594 Q 0.40900000000000003 -0.5760000000000001 0.42 -0.554 Q 0.46 -0.46900000000000003 0.46 -0.32 M 0.249 0 L 0.249 0 Q 0.312 0 0.34600000000000003 -0.061 Q 0.36 -0.088 0.366 -0.125 Q 0.377 -0.189 0.377 -0.332 Q 0.377 -0.47100000000000003 0.367 -0.527 Q 0.34900000000000003 -0.622 0.275 -0.641 Q 0.262 -0.644 0.249 -0.644 Q 0.179 -0.644 0.147 -0.5740000000000001 Q 0.136 -0.55 0.13 -0.516 Q 0.122 -0.462 0.122 -0.332 Q 0.122 -0.181 0.133 -0.121 Q 0.151 -0.025 0.221 -0.004 Q 0.23500000000000001 0 0.249 0 Z" />
        </g>
      </g>
      <g transform="scale(19,19)">
        <g transform="translate(18.157894736842106,38.11505263157895)">
          <path fill="rgb(0,0,0)" stroke="none" paint-order="stroke fill markers"
            d=" M 0.486 -0.381 L 0.39 0.001 Q 0.366 0.099 0.28300000000000003 0.16 Q 0.222 0.20500000000000002 0.156 0.20500000000000002 Q 0.089 0.20500000000000002 0.061 0.159 Q 0.05 0.14 0.05 0.11800000000000001 Q 0.05 0.067 0.091 0.055 Q 0.099 0.053 0.106 0.053 Q 0.138 0.053 0.14200000000000002 0.081 Q 0.14300000000000002 0.084 0.14300000000000002 0.088 Q 0.14300000000000002 0.111 0.123 0.129 Q 0.109 0.14100000000000001 0.08 0.14100000000000001 Q 0.098 0.183 0.156 0.183 Q 0.218 0.183 0.266 0.12 Q 0.305 0.068 0.328 -0.021 Q 0.329 -0.025 0.331 -0.034 Q 0.28600000000000003 0.011 0.23 0.011 Q 0.15 0.011 0.121 -0.048 Q 0.108 -0.074 0.108 -0.108 Q 0.108 -0.163 0.161 -0.305 Q 0.163 -0.311 0.166 -0.318 Q 0.183 -0.364 0.183 -0.388 Q 0.183 -0.42 0.158 -0.42 Q 0.10300000000000001 -0.42 0.068 -0.329 L 0.068 -0.328 Q 0.062 -0.313 0.057 -0.296 Q 0.046 -0.279 0.041 -0.278 Q 0.029 -0.278 0.029 -0.28800000000000003 Q 0.029 -0.306 0.05 -0.35100000000000003 Q 0.094 -0.442 0.161 -0.442 Q 0.214 -0.442 0.23500000000000001 -0.397 Q 0.243 -0.38 0.243 -0.36 Q 0.243 -0.339 0.223 -0.28800000000000003 Q 0.17200000000000001 -0.156 0.17200000000000001 -0.092 Q 0.17200000000000001 -0.011 0.234 -0.011 Q 0.292 -0.011 0.335 -0.073 Q 0.34500000000000003 -0.088 0.34700000000000003 -0.096 L 0.392 -0.276 Q 0.399 -0.309 0.41200000000000003 -0.356 Q 0.422 -0.399 0.426 -0.41000000000000003 Q 0.439 -0.431 0.461 -0.431 Q 0.486 -0.426 0.49 -0.404 Q 0.49 -0.395 0.486 -0.381 Z" />
        </g>
        <g transform="translate(18.961672514619885,38.11505263157895)">
          <path fill="rgb(0,0,0)" stroke="none" paint-order="stroke fill markers"
            d=" M 0.687 -0.327 L 0.09 -0.327 Q 0.058 -0.327 0.056 -0.34700000000000003 Q 0.056 -0.367 0.089 -0.367 L 0.6880000000000001 -0.367 Q 0.72 -0.367 0.721 -0.34700000000000003 Q 0.721 -0.327 0.687 -0.327 M 0.6880000000000001 -0.133 L 0.089 -0.133 Q 0.057 -0.133 0.056 -0.153 Q 0.056 -0.17300000000000001 0.09 -0.17300000000000001 L 0.687 -0.17300000000000001 Q 0.719 -0.17300000000000001 0.721 -0.153 Q 0.721 -0.133 0.6880000000000001 -0.133 Z" />
        </g>
        <g transform="translate(20.017450292397662,38.11505263157895)">
          <path fill="rgb(0,0,0)" stroke="none" paint-order="stroke fill markers"
            d=" M 0.661 -0.23 L 0.116 -0.23 Q 0.084 -0.23 0.083 -0.25 Q 0.083 -0.27 0.116 -0.27 L 0.661 -0.27 Q 0.6930000000000001 -0.27 0.6940000000000001 -0.25 Q 0.6940000000000001 -0.23 0.661 -0.23 Z" />
        </g>
        <g transform="translate(20.79545029239766,38.11505263157895)">
          <path fill="rgb(0,0,0)" stroke="none" paint-order="stroke fill markers"
            d=" M 0.28700000000000003 -0.683 L 0.209 -0.365 Q 0.271 -0.442 0.357 -0.442 Q 0.446 -0.442 0.467 -0.373 L 0.467 -0.372 Q 0.47200000000000003 -0.355 0.47200000000000003 -0.335 Q 0.47200000000000003 -0.279 0.41100000000000003 -0.115 Q 0.393 -0.07100000000000001 0.393 -0.044 Q 0.393 -0.011 0.417 -0.011 Q 0.47900000000000004 -0.011 0.515 -0.121 L 0.519 -0.135 Q 0.524 -0.151 0.529 -0.152 L 0.529 -0.153 L 0.534 -0.153 Q 0.546 -0.153 0.546 -0.14300000000000002 Q 0.546 -0.126 0.525 -0.08 Q 0.482 0.011 0.41500000000000004 0.011 Q 0.364 0.011 0.342 -0.032 Q 0.333 -0.05 0.333 -0.07100000000000001 Q 0.333 -0.089 0.34600000000000003 -0.126 Q 0.40800000000000003 -0.28400000000000003 0.40800000000000003 -0.35000000000000003 Q 0.40800000000000003 -0.42 0.354 -0.42 Q 0.306 -0.42 0.258 -0.385 Q 0.221 -0.356 0.193 -0.299 L 0.19 -0.293 Q 0.186 -0.269 0.179 -0.248 Q 0.17400000000000002 -0.225 0.162 -0.181 L 0.14 -0.091 L 0.121 -0.015 Q 0.114 0.006 0.09 0.01 Q 0.08700000000000001 0.011 0.084 0.011 Q 0.06 0.011 0.056 -0.01 Q 0.055 -0.014 0.055 -0.017 Q 0.055 -0.025 0.059000000000000004 -0.039 L 0.20400000000000001 -0.615 L 0.20700000000000002 -0.635 Q 0.20700000000000002 -0.646 0.193 -0.649 L 0.193 -0.649 Q 0.181 -0.652 0.157 -0.652 Q 0.135 -0.652 0.133 -0.664 Q 0.133 -0.681 0.152 -0.684 L 0.274 -0.6940000000000001 Q 0.28700000000000003 -0.6940000000000001 0.28700000000000003 -0.683 Z" />
        </g>
      </g>
      <g transform="scale(19,19)">
        <g transform="translate(32.10526315789474,12.32557894736842)">
          <path fill="rgb(0,0,0)" stroke="none" paint-order="stroke fill markers"
            d=" M 0.661 -0.23 L 0.116 -0.23 Q 0.084 -0.23 0.083 -0.25 Q 0.083 -0.27 0.116 -0.27 L 0.661 -0.27 Q 0.6930000000000001 -0.27 0.6940000000000001 -0.25 Q 0.6940000000000001 -0.23 0.661 -0.23 Z" />
        </g>
        <g transform="translate(32.88326315789474,12.32557894736842)">
          <path fill="rgb(0,0,0)" stroke="none" paint-order="stroke fill markers"
            d=" M 0.28700000000000003 -0.683 L 0.209 -0.365 Q 0.271 -0.442 0.357 -0.442 Q 0.446 -0.442 0.467 -0.373 L 0.467 -0.372 Q 0.47200000000000003 -0.355 0.47200000000000003 -0.335 Q 0.47200000000000003 -0.279 0.41100000000000003 -0.115 Q 0.393 -0.07100000000000001 0.393 -0.044 Q 0.393 -0.011 0.417 -0.011 Q 0.47900000000000004 -0.011 0.515 -0.121 L 0.519 -0.135 Q 0.524 -0.151 0.529 -0.152 L 0.529 -0.153 L 0.534 -0.153 Q 0.546 -0.153 0.546 -0.14300000000000002 Q 0.546 -0.126 0.525 -0.08 Q 0.482 0.011 0.41500000000000004 0.011 Q 0.364 0.011 0.342 -0.032 Q 0.333 -0.05 0.333 -0.07100000000000001 Q 0.333 -0.089 0.34600000000000003 -0.126 Q 0.40800000000000003 -0.28400000000000003 0.40800000000000003 -0.35000000000000003 Q 0.40800000000000003 -0.42 0.354 -0.42 Q 0.306 -0.42 0.258 -0.385 Q 0.221 -0.356 0.193 -0.299 L 0.19 -0.293 Q 0.186 -0.269 0.179 -0.248 Q 0.17400000000000002 -0.225 0.162 -0.181 L 0.14 -0.091 L 0.121 -0.015 Q 0.114 0.006 0.09 0.01 Q 0.08700000000000001 0.011 0.084 0.011 Q 0.06 0.011 0.056 -0.01 Q 0.055 -0.014 0.055 -0.017 Q 0.055 -0.025 0.059000000000000004 -0.039 L 0.20400000000000001 -0.615 L 0.20700000000000002 -0.635 Q 0.20700000000000002 -0.646 0.193 -0.649 L 0.193 -0.649 Q 0.181 -0.652 0.157 -0.652 Q 0.135 -0.652 0.133 -0.664 Q 0.133 -0.681 0.152 -0.684 L 0.274 -0.6940000000000001 Q 0.28700000000000003 -0.6940000000000001 0.28700000000000003 -0.683 Z" />
        </g>
        <g transform="translate(33.73704093567252,12.32557894736842)">
          <path fill="rgb(0,0,0)" stroke="none" paint-order="stroke fill markers"
            d=" M 0.676 -0.595 L 0.15 -0.34600000000000003 L 0.675 -0.098 Q 0.6920000000000001 -0.085 0.6940000000000001 -0.077 Q 0.6940000000000001 -0.061 0.679 -0.058 Q 0.676 -0.057 0.674 -0.057 Q 0.668 -0.057 0.657 -0.063 L 0.10200000000000001 -0.325 Q 0.083 -0.333 0.083 -0.34600000000000003 Q 0.083 -0.359 0.10200000000000001 -0.368 L 0.658 -0.63 Q 0.669 -0.636 0.674 -0.636 Q 0.6900000000000001 -0.636 0.6930000000000001 -0.621 Q 0.6940000000000001 -0.618 0.6940000000000001 -0.616 Q 0.6940000000000001 -0.602 0.676 -0.595 M 0.661 0.137 L 0.116 0.137 Q 0.084 0.137 0.083 0.117 Q 0.083 0.097 0.117 0.097 L 0.66 0.097 Q 0.6920000000000001 0.097 0.6940000000000001 0.117 Q 0.6940000000000001 0.137 0.661 0.137 Z" />
        </g>
        <g transform="translate(34.792818713450295,12.32557894736842)">
          <path fill="rgb(0,0,0)" stroke="none" paint-order="stroke fill markers"
            d=" M 0.486 -0.381 L 0.39 0.001 Q 0.366 0.099 0.28300000000000003 0.16 Q 0.222 0.20500000000000002 0.156 0.20500000000000002 Q 0.089 0.20500000000000002 0.061 0.159 Q 0.05 0.14 0.05 0.11800000000000001 Q 0.05 0.067 0.091 0.055 Q 0.099 0.053 0.106 0.053 Q 0.138 0.053 0.14200000000000002 0.081 Q 0.14300000000000002 0.084 0.14300000000000002 0.088 Q 0.14300000000000002 0.111 0.123 0.129 Q 0.109 0.14100000000000001 0.08 0.14100000000000001 Q 0.098 0.183 0.156 0.183 Q 0.218 0.183 0.266 0.12 Q 0.305 0.068 0.328 -0.021 Q 0.329 -0.025 0.331 -0.034 Q 0.28600000000000003 0.011 0.23 0.011 Q 0.15 0.011 0.121 -0.048 Q 0.108 -0.074 0.108 -0.108 Q 0.108 -0.163 0.161 -0.305 Q 0.163 -0.311 0.166 -0.318 Q 0.183 -0.364 0.183 -0.388 Q 0.183 -0.42 0.158 -0.42 Q 0.10300000000000001 -0.42 0.068 -0.329 L 0.068 -0.328 Q 0.062 -0.313 0.057 -0.296 Q 0.046 -0.279 0.041 -0.278 Q 0.029 -0.278 0.029 -0.28800000000000003 Q 0.029 -0.306 0.05 -0.35100000000000003 Q 0.094 -0.442 0.161 -0.442 Q 0.214 -0.442 0.23500000000000001 -0.397 Q 0.243 -0.38 0.243 -0.36 Q 0.243 -0.339 0.223 -0.28800000000000003 Q 0.17200000000000001 -0.156 0.17200000000000001 -0.092 Q 0.17200000000000001 -0.011 0.234 -0.011 Q 0.292 -0.011 0.335 -0.073 Q 0.34500000000000003 -0.088 0.34700000000000003 -0.096 L 0.392 -0.276 Q 0.399 -0.309 0.41200000000000003 -0.356 Q 0.422 -0.399 0.426 -0.41000000000000003 Q 0.439 -0.431 0.461 -0.431 Q 0.486 -0.426 0.49 -0.404 Q 0.49 -0.395 0.486 -0.381 Z" />
        </g>
        <g transform="translate(35.59659649122808,12.32557894736842)">
          <path fill="rgb(0,0,0)" stroke="none" paint-order="stroke fill markers"
            d=" M 0.676 -0.595 L 0.15 -0.34600000000000003 L 0.675 -0.098 Q 0.6920000000000001 -0.085 0.6940000000000001 -0.077 Q 0.6940000000000001 -0.061 0.679 -0.058 Q 0.676 -0.057 0.674 -0.057 Q 0.668 -0.057 0.657 -0.063 L 0.10200000000000001 -0.325 Q 0.083 -0.333 0.083 -0.34600000000000003 Q 0.083 -0.359 0.10200000000000001 -0.368 L 0.658 -0.63 Q 0.669 -0.636 0.674 -0.636 Q 0.6900000000000001 -0.636 0.6930000000000001 -0.621 Q 0.6940000000000001 -0.618 0.6940000000000001 -0.616 Q 0.6940000000000001 -0.602 0.676 -0.595 M 0.661 0.137 L 0.116 0.137 Q 0.084 0.137 0.083 0.117 Q 0.083 0.097 0.117 0.097 L 0.66 0.097 Q 0.6920000000000001 0.097 0.6940000000000001 0.117 Q 0.6940000000000001 0.137 0.661 0.137 Z" />
        </g>
        <g transform="translate(36.652374269005854,12.32557894736842)">
          <path fill="rgb(0,0,0)" stroke="none" paint-order="stroke fill markers"
            d=" M 0.258 -0.683 L 0.114 -0.105 Q 0.108 -0.082 0.108 -0.057 Q 0.108 -0.011 0.138 -0.011 Q 0.177 -0.011 0.203 -0.097 Q 0.20800000000000002 -0.112 0.214 -0.135 Q 0.222 -0.152 0.228 -0.153 Q 0.24 -0.153 0.24 -0.14300000000000002 Q 0.24 -0.128 0.222 -0.074 Q 0.216 -0.057 0.21 -0.045 Q 0.184 0.011 0.135 0.011 Q 0.083 0.011 0.057 -0.031 Q 0.044 -0.053 0.044 -0.081 Q 0.044 -0.097 0.049 -0.115 L 0.17500000000000002 -0.615 L 0.178 -0.635 Q 0.178 -0.646 0.164 -0.649 Q 0.152 -0.652 0.129 -0.652 Q 0.106 -0.652 0.10400000000000001 -0.663 Q 0.10400000000000001 -0.681 0.123 -0.684 L 0.245 -0.6940000000000001 Q 0.258 -0.6940000000000001 0.258 -0.683 Z" />
        </g>
        <g transform="translate(37.19259649122807,12.32557894736842)">
          <path fill="rgb(0,0,0)" stroke="none" paint-order="stroke fill markers"
            d=" M 0.661 -0.23 L 0.116 -0.23 Q 0.084 -0.23 0.083 -0.25 Q 0.083 -0.27 0.116 -0.27 L 0.661 -0.27 Q 0.6930000000000001 -0.27 0.6940000000000001 -0.25 Q 0.6940000000000001 -0.23 0.661 -0.23 Z" />
        </g>
        <g transform="translate(38.19281871345029,12.32557894736842)">
          <path fill="rgb(0,0,0)" stroke="none" paint-order="stroke fill markers"
            d=" M 0.28700000000000003 -0.683 L 0.209 -0.365 Q 0.271 -0.442 0.357 -0.442 Q 0.446 -0.442 0.467 -0.373 L 0.467 -0.372 Q 0.47200000000000003 -0.355 0.47200000000000003 -0.335 Q 0.47200000000000003 -0.279 0.41100000000000003 -0.115 Q 0.393 -0.07100000000000001 0.393 -0.044 Q 0.393 -0.011 0.417 -0.011 Q 0.47900000000000004 -0.011 0.515 -0.121 L 0.519 -0.135 Q 0.524 -0.151 0.529 -0.152 L 0.529 -0.153 L 0.534 -0.153 Q 0.546 -0.153 0.546 -0.14300000000000002 Q 0.546 -0.126 0.525 -0.08 Q 0.482 0.011 0.41500000000000004 0.011 Q 0.364 0.011 0.342 -0.032 Q 0.333 -0.05 0.333 -0.07100000000000001 Q 0.333 -0.089 0.34600000000000003 -0.126 Q 0.40800000000000003 -0.28400000000000003 0.40800000000000003 -0.35000000000000003 Q 0.40800000000000003 -0.42 0.354 -0.42 Q 0.306 -0.42 0.258 -0.385 Q 0.221 -0.356 0.193 -0.299 L 0.19 -0.293 Q 0.186 -0.269 0.179 -0.248 Q 0.17400000000000002 -0.225 0.162 -0.181 L 0.14 -0.091 L 0.121 -0.015 Q 0.114 0.006 0.09 0.01 Q 0.08700000000000001 0.011 0.084 0.011 Q 0.06 0.011 0.056 -0.01 Q 0.055 -0.014 0.055 -0.017 Q 0.055 -0.025 0.059000000000000004 -0.039 L 0.20400000000000001 -0.615 L 0.20700000000000002 -0.635 Q 0.20700000000000002 -0.646 0.193 -0.649 L 0.193 -0.649 Q 0.181 -0.652 0.157 -0.652 Q 0.135 -0.652 0.133 -0.664 Q 0.133 -0.681 0.152 -0.684 L 0.274 -0.6940000000000001 Q 0.28700000000000003 -0.6940000000000001 0.28700000000000003 -0.683 Z" />
        </g>
      </g>
      <g transform="scale(19,19)">
        <g transform="translate(24.105263157894736,28.37836842105263)">
          <path fill="rgb(0,0,0)" stroke="none" paint-order="stroke fill markers"
            d=" M 0.486 -0.381 L 0.39 0.001 Q 0.366 0.099 0.28300000000000003 0.16 Q 0.222 0.20500000000000002 0.156 0.20500000000000002 Q 0.089 0.20500000000000002 0.061 0.159 Q 0.05 0.14 0.05 0.11800000000000001 Q 0.05 0.067 0.091 0.055 Q 0.099 0.053 0.106 0.053 Q 0.138 0.053 0.14200000000000002 0.081 Q 0.14300000000000002 0.084 0.14300000000000002 0.088 Q 0.14300000000000002 0.111 0.123 0.129 Q 0.109 0.14100000000000001 0.08 0.14100000000000001 Q 0.098 0.183 0.156 0.183 Q 0.218 0.183 0.266 0.12 Q 0.305 0.068 0.328 -0.021 Q 0.329 -0.025 0.331 -0.034 Q 0.28600000000000003 0.011 0.23 0.011 Q 0.15 0.011 0.121 -0.048 Q 0.108 -0.074 0.108 -0.108 Q 0.108 -0.163 0.161 -0.305 Q 0.163 -0.311 0.166 -0.318 Q 0.183 -0.364 0.183 -0.388 Q 0.183 -0.42 0.158 -0.42 Q 0.10300000000000001 -0.42 0.068 -0.329 L 0.068 -0.328 Q 0.062 -0.313 0.057 -0.296 Q 0.046 -0.279 0.041 -0.278 Q 0.029 -0.278 0.029 -0.28800000000000003 Q 0.029 -0.306 0.05 -0.35100000000000003 Q 0.094 -0.442 0.161 -0.442 Q 0.214 -0.442 0.23500000000000001 -0.397 Q 0.243 -0.38 0.243 -0.36 Q 0.243 -0.339 0.223 -0.28800000000000003 Q 0.17200000000000001 -0.156 0.17200000000000001 -0.092 Q 0.17200000000000001 -0.011 0.234 -0.011 Q 0.292 -0.011 0.335 -0.073 Q 0.34500000000000003 -0.088 0.34700000000000003 -0.096 L 0.392 -0.276 Q 0.399 -0.309 0.41200000000000003 -0.356 Q 0.422 -0.399 0.426 -0.41000000000000003 Q 0.439 -0.431 0.461 -0.431 Q 0.486 -0.426 0.49 -0.404 Q 0.49 -0.395 0.486 -0.381 Z" />
        </g>
      </g>
    </g>
  </g>
</svg>
