<svg version="1.1" xmlns="http://www.w3.org/2000/svg" xmlns:xlink="http://www.w3.org/1999/xlink" width="907" height="817"><defs><clipPath id="yNriCkVASurT"><path fill="none" stroke="none" d=" M 0 0 L 907 0 L 907 817 L 0 817 L 0 0 Z"/></clipPath></defs><g transform="scale(1,1)" clip-path="url(#yNriCkVASurT)"><g><rect fill="rgb(255,255,255,0)" stroke="none" x="0" y="0" width="907" height="817" fill-opacity="1"/><path fill="none" stroke="rgb(0,0,0)" paint-order="fill stroke markers" d=" M 100.59793899999886 719.6672125000005 L 809.2223389999991 99.62086249999936" stroke-opacity="0.6980392156862745" stroke-linecap="round" stroke-linejoin="round" stroke-miterlimit="10" stroke-width="2.5"/><path fill="rgb(255,127,0)" stroke="none" paint-order="stroke fill markers" d=" M 395.335521300884 461.77182798672567 L 379.74307290742587 469.76795536798625 L 381.71858673103145 472.02568545210687 L 99.77480824016321 718.7264916316169 C 99.25526245070739 719.1810941973907 99.20261556584144 719.9707974703803 99.65721813161531 720.4903432598361 C 99.90434458525442 720.7727734925666 100.25049722504087 720.9172296272352 100.59844550186821 720.9172296272352 C 100.89056702361167 720.9172296272352 101.1839542031091 720.8154094805187 101.42106975983451 720.607933368384 L 383.3648482507027 473.9071271888741 L 385.3403620743083 476.1648572729947 L 395.335521300884 461.77182798672567 Z" fill-opacity="0.6980392156862745"/><path fill="rgb(255,127,0)" stroke="none" paint-order="stroke fill markers" d=" M 809.2223389999991 99.62086249999936 L 793.629890606541 107.61698988125994 L 795.6054044301466 109.87471996538058 L 99.77480824016321 718.7264916316169 C 99.25526245070739 719.1810941973907 99.20261556584144 719.9707974703803 99.65721813161531 720.4903432598361 C 99.90434458525442 720.7727734925666 100.25049722504087 720.9172296272352 100.59844550186821 720.9172296272352 C 100.89056702361167 720.9172296272352 101.1839542031091 720.8154094805187 101.42106975983451 720.607933368384 L 797.2516659498178 111.75616170214776 L 799.2271797734234 114.0138917862684 L 809.2223389999991 99.62086249999936 Z" fill-opacity="0.6980392156862745"/><path fill="rgb(255,127,0)" stroke="none" paint-order="stroke fill markers" d=" M 395.3350147990146 460.52181085949087 C 395.04289327727116 460.52181085949087 394.7495060977738 460.62363100620735 394.5123905410484 460.83110711834206 C 393.99284475159254 461.28570968411594 393.9401978667265 462.07541295710547 394.3948004325004 462.5949587465613 L 531.3528897978507 619.1184894498191 L 529.09515971373 621.0940032734246 L 543.488188999999 631.0891625000004 L 535.4920616187385 615.4967141065423 L 533.2343315346178 617.4722279301478 L 396.2762421692676 460.94869722689003 C 396.02911571562845 460.6662669941596 395.68296307584194 460.52181085949087 395.3350147990146 460.52181085949087 Z" fill-opacity="0.6980392156862745"/><path fill="rgb(21,101,192)" stroke="none" paint-order="stroke fill markers" d=" M 105.59793899999886 719.6672125000005 C 105.59793899999886 722.4286362491545 103.35936274915282 724.6672125000005 100.59793899999886 724.6672125000005 C 97.8365152508449 724.6672125000005 95.59793899999886 722.4286362491545 95.59793899999886 719.6672125000005 C 95.59793899999886 716.9057887508465 97.8365152508449 714.6672125000005 100.59793899999886 714.6672125000005 C 103.35936274915282 714.6672125000005 105.59793899999886 716.9057887508465 105.59793899999886 719.6672125000005 Z" fill-opacity="1"/><path fill="none" stroke="rgb(0,0,0)" paint-order="fill stroke markers" d=" M 105.59793899999886 719.6672125000005 C 105.59793899999886 722.4286362491545 103.35936274915282 724.6672125000005 100.59793899999886 724.6672125000005 C 97.8365152508449 724.6672125000005 95.59793899999886 722.4286362491545 95.59793899999886 719.6672125000005 C 95.59793899999886 716.9057887508465 97.8365152508449 714.6672125000005 100.59793899999886 714.6672125000005 C 103.35936274915282 714.6672125000005 105.59793899999886 716.9057887508465 105.59793899999886 719.6672125000005 Z" stroke-opacity="1" stroke-linecap="round" stroke-linejoin="round" stroke-miterlimit="10"/><text fill="rgb(21,101,192)" stroke="none" font-family="geogebra-sans-serif, sans-serif" font-size="16px" font-style="normal" font-weight="normal" text-decoration="normal" x="95" y="706" text-anchor="start" dominant-baseline="alphabetic" fill-opacity="1">A</text><text fill="none" stroke="rgb(255,255,255)" font-family="geogebra-sans-serif, sans-serif" font-size="16px" font-style="normal" font-weight="normal" text-decoration="normal" x="95" y="706" text-anchor="start" dominant-baseline="alphabetic" stroke-opacity="1" stroke-linejoin="bevel" stroke-miterlimit="10" stroke-width="3">A</text><text fill="rgb(21,101,192)" stroke="none" font-family="geogebra-sans-serif, sans-serif" font-size="16px" font-style="normal" font-weight="normal" text-decoration="normal" x="95" y="706" text-anchor="start" dominant-baseline="alphabetic" fill-opacity="1">A</text><path fill="rgb(21,101,192)" stroke="none" paint-order="stroke fill markers" d=" M 814.2223389999991 99.62086249999936 C 814.2223389999991 102.38228624915332 811.9837627491531 104.62086249999936 809.2223389999991 104.62086249999936 C 806.4609152508451 104.62086249999936 804.2223389999991 102.38228624915332 804.2223389999991 99.62086249999936 C 804.2223389999991 96.8594387508454 806.4609152508451 94.62086249999936 809.2223389999991 94.62086249999936 C 811.9837627491531 94.62086249999936 814.2223389999991 96.8594387508454 814.2223389999991 99.62086249999936 Z" fill-opacity="1"/><path fill="none" stroke="rgb(0,0,0)" paint-order="fill stroke markers" d=" M 814.2223389999991 99.62086249999936 C 814.2223389999991 102.38228624915332 811.9837627491531 104.62086249999936 809.2223389999991 104.62086249999936 C 806.4609152508451 104.62086249999936 804.2223389999991 102.38228624915332 804.2223389999991 99.62086249999936 C 804.2223389999991 96.8594387508454 806.4609152508451 94.62086249999936 809.2223389999991 94.62086249999936 C 811.9837627491531 94.62086249999936 814.2223389999991 96.8594387508454 814.2223389999991 99.62086249999936 Z" stroke-opacity="1" stroke-linecap="round" stroke-linejoin="round" stroke-miterlimit="10"/><text fill="rgb(21,101,192)" stroke="none" font-family="geogebra-sans-serif, sans-serif" font-size="16px" font-style="normal" font-weight="normal" text-decoration="normal" x="813" y="90" text-anchor="start" dominant-baseline="alphabetic" fill-opacity="1">B</text><text fill="none" stroke="rgb(255,255,255)" font-family="geogebra-sans-serif, sans-serif" font-size="16px" font-style="normal" font-weight="normal" text-decoration="normal" x="813" y="90" text-anchor="start" dominant-baseline="alphabetic" stroke-opacity="1" stroke-linejoin="bevel" stroke-miterlimit="10" stroke-width="3">B</text><text fill="rgb(21,101,192)" stroke="none" font-family="geogebra-sans-serif, sans-serif" font-size="16px" font-style="normal" font-weight="normal" text-decoration="normal" x="813" y="90" text-anchor="start" dominant-baseline="alphabetic" fill-opacity="1">B</text><path fill="rgb(21,101,192)" stroke="none" paint-order="stroke fill markers" d=" M 548.488188999999 631.0891625000004 C 548.488188999999 633.8505862491544 546.249612749153 636.0891625000004 543.488188999999 636.0891625000004 C 540.726765250845 636.0891625000004 538.488188999999 633.8505862491544 538.488188999999 631.0891625000004 C 538.488188999999 628.3277387508464 540.726765250845 626.0891625000004 543.488188999999 626.0891625000004 C 546.249612749153 626.0891625000004 548.488188999999 628.3277387508464 548.488188999999 631.0891625000004 Z" fill-opacity="1"/><path fill="none" stroke="rgb(0,0,0)" paint-order="fill stroke markers" d=" M 548.488188999999 631.0891625000004 C 548.488188999999 633.8505862491544 546.249612749153 636.0891625000004 543.488188999999 636.0891625000004 C 540.726765250845 636.0891625000004 538.488188999999 633.8505862491544 538.488188999999 631.0891625000004 C 538.488188999999 628.3277387508464 540.726765250845 626.0891625000004 543.488188999999 626.0891625000004 C 546.249612749153 626.0891625000004 548.488188999999 628.3277387508464 548.488188999999 631.0891625000004 Z" stroke-opacity="1" stroke-linecap="round" stroke-linejoin="round" stroke-miterlimit="10"/><text fill="rgb(21,101,192)" stroke="none" font-family="geogebra-sans-serif, sans-serif" font-size="16px" font-style="normal" font-weight="normal" text-decoration="normal" x="547" y="621" text-anchor="start" dominant-baseline="alphabetic" fill-opacity="1">C</text><text fill="none" stroke="rgb(255,255,255)" font-family="geogebra-sans-serif, sans-serif" font-size="16px" font-style="normal" font-weight="normal" text-decoration="normal" x="547" y="621" text-anchor="start" dominant-baseline="alphabetic" stroke-opacity="1" stroke-linejoin="bevel" stroke-miterlimit="10" stroke-width="3">C</text><text fill="rgb(21,101,192)" stroke="none" font-family="geogebra-sans-serif, sans-serif" font-size="16px" font-style="normal" font-weight="normal" text-decoration="normal" x="547" y="621" text-anchor="start" dominant-baseline="alphabetic" fill-opacity="1">C</text><path fill="rgb(21,101,192)" stroke="none" paint-order="stroke fill markers" d=" M 400.335521300884 461.77182798672567 C 400.335521300884 464.5332517358796 398.09694505003796 466.77182798672567 395.335521300884 466.77182798672567 C 392.57409755173006 466.77182798672567 390.335521300884 464.5332517358796 390.335521300884 461.77182798672567 C 390.335521300884 459.0104042375717 392.57409755173006 456.77182798672567 395.335521300884 456.77182798672567 C 398.09694505003796 456.77182798672567 400.335521300884 459.0104042375717 400.335521300884 461.77182798672567 Z" fill-opacity="1"/><path fill="none" stroke="rgb(0,0,0)" paint-order="fill stroke markers" d=" M 400.335521300884 461.77182798672567 C 400.335521300884 464.5332517358796 398.09694505003796 466.77182798672567 395.335521300884 466.77182798672567 C 392.57409755173006 466.77182798672567 390.335521300884 464.5332517358796 390.335521300884 461.77182798672567 C 390.335521300884 459.0104042375717 392.57409755173006 456.77182798672567 395.335521300884 456.77182798672567 C 398.09694505003796 456.77182798672567 400.335521300884 459.0104042375717 400.335521300884 461.77182798672567 Z" stroke-opacity="1" stroke-linecap="round" stroke-linejoin="round" stroke-miterlimit="10"/><text fill="rgb(21,101,192)" stroke="none" font-family="geogebra-sans-serif, sans-serif" font-size="16px" font-style="normal" font-weight="normal" text-decoration="normal" x="387" y="450" text-anchor="start" dominant-baseline="alphabetic" fill-opacity="1">H</text><text fill="none" stroke="rgb(255,255,255)" font-family="geogebra-sans-serif, sans-serif" font-size="16px" font-style="normal" font-weight="normal" text-decoration="normal" x="387" y="450" text-anchor="start" dominant-baseline="alphabetic" stroke-opacity="1" stroke-linejoin="bevel" stroke-miterlimit="10" stroke-width="3">H</text><text fill="rgb(21,101,192)" stroke="none" font-family="geogebra-sans-serif, sans-serif" font-size="16px" font-style="normal" font-weight="normal" text-decoration="normal" x="387" y="450" text-anchor="start" dominant-baseline="alphabetic" fill-opacity="1">H</text><text fill="rgb(255,127,0)" stroke="none" font-family="geogebra-sans-serif, sans-serif" font-size="16px" font-style="normal" font-weight="bold" text-decoration="normal" x="240" y="567" text-anchor="start" dominant-baseline="alphabetic" fill-opacity="1">h</text><text fill="rgb(255,127,0)" stroke="none" font-family="geogebra-sans-serif, sans-serif" font-size="16px" font-style="normal" font-weight="bold" text-decoration="normal" x="463" y="372" text-anchor="start" dominant-baseline="alphabetic" fill-opacity="1">l</text><text fill="rgb(255,127,0)" stroke="none" font-family="geogebra-sans-serif, sans-serif" font-size="16px" font-style="normal" font-weight="bold" text-decoration="normal" x="480" y="533" text-anchor="start" dominant-baseline="alphabetic" fill-opacity="1">s</text></g></g></svg>
