<svg version="1.1" xmlns="http://www.w3.org/2000/svg" xmlns:xlink="http://www.w3.org/1999/xlink" width="1210" height="541"><defs><clipPath id="IlVFqfKASnam"><path fill="none" stroke="none" d=" M 0 0 L 1210 0 L 1210 541 L 0 541 L 0 0 Z"/></clipPath></defs><g transform="scale(1,1)" clip-path="url(#IlVFqfKASnam)"><g><rect fill="rgb(255,255,255,0)" stroke="none" x="0" y="0" width="1210" height="541" fill-opacity="1"/><path fill="rgb(255,127,0)" stroke="none" paint-order="stroke fill markers" d=" M 84.79071452694143 463.8943531812213 C 84.79071452694143 457.9716036167403 83.03757370268704 452.1813728128801 79.75222335707667 447.2533472944644 L 54.7907145269412 463.8943531812213 Z" fill-opacity="0.09803921568627451"/><path fill="none" stroke="rgb(255,127,0)" paint-order="fill stroke markers" d=" M 84.79071452694143 463.8943531812213 C 84.79071452694143 457.9716036167403 83.03757370268704 452.1813728128801 79.75222335707667 447.2533472944644 L 54.7907145269412 463.8943531812213 Z" stroke-opacity="0.6" stroke-linecap="round" stroke-linejoin="round" stroke-miterlimit="10" stroke-width="2.5"/><path fill="rgb(0,0,0)" stroke="none" paint-order="stroke fill markers" d=" M 1127.9414168369947 455.65271934429995 C 1127.1756328403467 458.3329633325679 1126.7871352662194 461.1068573576964 1126.7871352662194 463.8943531812213 L 1156.7871352662194 463.8943531812213 Z" fill-opacity="0.09803921568627451"/><path fill="none" stroke="rgb(0,0,0)" paint-order="fill stroke markers" d=" M 1127.9414168369947 455.65271934429995 C 1127.1756328403467 458.3329633325679 1126.7871352662194 461.1068573576964 1126.7871352662194 463.8943531812213 L 1156.7871352662194 463.8943531812213 Z" stroke-opacity="0.6" stroke-linecap="round" stroke-linejoin="round" stroke-miterlimit="10" stroke-width="2.5"/><text fill="rgb(0,0,0)" stroke="none" font-family="geogebra-sans-serif, sans-serif" font-size="16px" font-style="normal" font-weight="normal" text-decoration="normal" x="601" y="486" text-anchor="start" dominant-baseline="alphabetic" fill-opacity="1">r</text><text fill="none" stroke="rgb(255,255,255)" font-family="geogebra-sans-serif, sans-serif" font-size="16px" font-style="normal" font-weight="normal" text-decoration="normal" x="601" y="486" text-anchor="start" dominant-baseline="alphabetic" stroke-opacity="1" stroke-linejoin="bevel" stroke-miterlimit="10" stroke-width="3">r</text><text fill="rgb(0,0,0)" stroke="none" font-family="geogebra-sans-serif, sans-serif" font-size="16px" font-style="normal" font-weight="normal" text-decoration="normal" x="601" y="486" text-anchor="start" dominant-baseline="alphabetic" fill-opacity="1">r</text><text fill="rgb(0,0,0)" stroke="none" font-family="geogebra-sans-serif, sans-serif" font-size="14px" font-style="normal" font-weight="normal" text-decoration="normal" x="606" y="493" text-anchor="start" dominant-baseline="alphabetic" fill-opacity="1">0</text><text fill="none" stroke="rgb(255,255,255)" font-family="geogebra-sans-serif, sans-serif" font-size="14px" font-style="normal" font-weight="normal" text-decoration="normal" x="606" y="493" text-anchor="start" dominant-baseline="alphabetic" stroke-opacity="1" stroke-linejoin="bevel" stroke-miterlimit="10" stroke-width="3">0</text><text fill="rgb(0,0,0)" stroke="none" font-family="geogebra-sans-serif, sans-serif" font-size="14px" font-style="normal" font-weight="normal" text-decoration="normal" x="606" y="493" text-anchor="start" dominant-baseline="alphabetic" fill-opacity="1">0</text><path fill="none" stroke="rgb(0,0,0)" paint-order="fill stroke markers" d=" M 54.7907145269412 463.8943531812213 L 1156.7871352662194 463.8943531812213" stroke-opacity="0.6980392156862745" stroke-linecap="round" stroke-linejoin="round" stroke-miterlimit="10" stroke-width="2.5"/><path fill="none" stroke="rgb(0,0,0)" paint-order="fill stroke markers" d=" M 54.7907145269412 463.8943531812213 L 385.3896407487248 243.49506903336524" stroke-opacity="0.6980392156862745" stroke-linecap="round" stroke-linejoin="round" stroke-miterlimit="10" stroke-width="2.5"/><text fill="rgb(0,0,0)" stroke="none" font-family="geogebra-sans-serif, sans-serif" font-size="16px" font-style="normal" font-weight="normal" text-decoration="normal" x="736" y="327" text-anchor="start" dominant-baseline="alphabetic" fill-opacity="1">r</text><text fill="none" stroke="rgb(255,255,255)" font-family="geogebra-sans-serif, sans-serif" font-size="16px" font-style="normal" font-weight="normal" text-decoration="normal" x="736" y="327" text-anchor="start" dominant-baseline="alphabetic" stroke-opacity="1" stroke-linejoin="bevel" stroke-miterlimit="10" stroke-width="3">r</text><text fill="rgb(0,0,0)" stroke="none" font-family="geogebra-sans-serif, sans-serif" font-size="16px" font-style="normal" font-weight="normal" text-decoration="normal" x="736" y="327" text-anchor="start" dominant-baseline="alphabetic" fill-opacity="1">r</text><path fill="none" stroke="rgb(0,0,0)" paint-order="fill stroke markers" d=" M 385.3896407487248 243.49506903336524 L 1156.7871352662194 463.8943531812213" stroke-opacity="0.6980392156862745" stroke-linecap="round" stroke-linejoin="round" stroke-miterlimit="10" stroke-width="2.5"/><path fill="rgb(255,127,0)" stroke="none" paint-order="stroke fill markers" d=" M 495.5892828226525 170.02864098407994 L 479.086951984952 175.92233056897297 L 480.7510525736277 178.41848145198654 L 480.75105257362765 178.41848145198654 L 384.69626550344327 242.45500616544294 C 384.1218546426245 242.8379467393221 383.9666373069233 243.61403341782798 384.3495778808025 244.18844427864676 C 384.59044681118763 244.54974767422445 384.98685956764615 244.74520187533054 385.39079111700573 244.74520187533054 C 385.6290419324382 244.74520187533054 385.8699085287652 244.67720354478158 386.0830159940063 244.53513190128754 L 482.13780306419073 180.4986071878311 L 483.80190365286643 182.99475807084465 L 495.58928282265254 170.02864098407994 Z" fill-opacity="0.6980392156862745"/><path fill="rgb(255,127,0)" stroke="none" paint-order="stroke fill markers" d=" M 385.38849038044384 242.24493619139992 C 385.15023956501136 242.24493619139992 384.9093729686843 242.31293452194888 384.6962655034432 242.45500616544294 C 384.12185464262444 242.83794673932212 383.9666373069233 243.614033417828 384.3495778808025 244.18844427864678 L 448.3861025942587 340.2432313488314 L 448.3861025942588 340.2432313488314 L 445.8899517112452 341.9073319375071 L 458.85606879800986 353.6947111072932 L 458.8560687980099 353.6947111072932 L 452.96237921311683 337.19238026959266 L 450.46622833010326 338.85648085826836 L 450.4662283301033 338.85648085826836 L 386.4297036166471 242.8016937880837 C 386.18883468626194 242.440390392506 385.7924219298034 242.24493619139992 385.38849038044384 242.24493619139992 Z" fill-opacity="0.6980392156862745"/><path fill="rgb(0,0,0)" stroke="none" paint-order="stroke fill markers" d=" M 416.87525276984695 133.29542695943724 L 408.11851681811805 148.47376927576738 L 411.0030886610405 149.29793265945952 L 384.1877358141738 243.15166762349352 C 383.9980804524312 243.81546138959243 384.3824455727542 244.5073186061737 385.04623933885307 244.69697396791625 C 385.160987535802 244.72975916704453 385.2765743551714 244.74539086445415 385.39026054920504 244.74539086445415 C 385.93422466164725 244.74539086445412 386.43467552066153 244.38751601238693 386.5915456832758 243.83847044323696 L 413.40689853014254 149.98473547920295 L 416.291470373065 150.8088988628951 L 416.87525276984695 133.29542695943724 Z" fill-opacity="0.6980392156862745"/><path fill="rgb(0,0,0)" stroke="none" paint-order="stroke fill markers" d=" M 275.1899986747969 212.00945701224296 L 290.368340991127 220.7661929639719 L 291.1925043748192 217.88162112104942 L 385.04623933885307 244.69697396791628 C 385.160987535802 244.72975916704456 385.2765743551715 244.74539086445418 385.3902605492051 244.74539086445418 C 385.9342246616473 244.74539086445415 386.4346755206616 244.38751601238693 386.59154568327585 243.83847044323696 C 386.7812010450184 243.17467667713805 386.39683592469544 242.48281946055675 385.7330421585965 242.2931640988142 L 291.8793071945627 215.47781125194737 L 291.8793071945626 215.47781125194737 L 292.7034705782548 212.59323940902487 L 275.1899986747969 212.00945701224296 Z" fill-opacity="0.6980392156862745"/><path fill="rgb(97,97,97)" stroke="none" paint-order="stroke fill markers" d=" M 1161.7871352662194 463.8943531812213 C 1161.7871352662194 466.6557769303752 1159.5485590153733 468.8943531812213 1156.7871352662194 468.8943531812213 C 1154.0257115170655 468.8943531812213 1151.7871352662194 466.6557769303752 1151.7871352662194 463.8943531812213 C 1151.7871352662194 461.13292943206733 1154.0257115170655 458.8943531812213 1156.7871352662194 458.8943531812213 C 1159.5485590153733 458.8943531812213 1161.7871352662194 461.13292943206733 1161.7871352662194 463.8943531812213 Z" fill-opacity="1"/><path fill="none" stroke="rgb(0,0,0)" paint-order="fill stroke markers" d=" M 1161.7871352662194 463.8943531812213 C 1161.7871352662194 466.6557769303752 1159.5485590153733 468.8943531812213 1156.7871352662194 468.8943531812213 C 1154.0257115170655 468.8943531812213 1151.7871352662194 466.6557769303752 1151.7871352662194 463.8943531812213 C 1151.7871352662194 461.13292943206733 1154.0257115170655 458.8943531812213 1156.7871352662194 458.8943531812213 C 1159.5485590153733 458.8943531812213 1161.7871352662194 461.13292943206733 1161.7871352662194 463.8943531812213 Z" stroke-opacity="1" stroke-linecap="round" stroke-linejoin="round" stroke-miterlimit="10"/><text fill="rgb(97,97,97)" stroke="none" font-family="geogebra-sans-serif, sans-serif" font-size="16px" font-style="normal" font-weight="normal" text-decoration="normal" x="1161" y="454" text-anchor="start" dominant-baseline="alphabetic" fill-opacity="1">M</text><text fill="none" stroke="rgb(255,255,255)" font-family="geogebra-sans-serif, sans-serif" font-size="16px" font-style="normal" font-weight="normal" text-decoration="normal" x="1161" y="454" text-anchor="start" dominant-baseline="alphabetic" stroke-opacity="1" stroke-linejoin="bevel" stroke-miterlimit="10" stroke-width="3">M</text><text fill="rgb(97,97,97)" stroke="none" font-family="geogebra-sans-serif, sans-serif" font-size="16px" font-style="normal" font-weight="normal" text-decoration="normal" x="1161" y="454" text-anchor="start" dominant-baseline="alphabetic" fill-opacity="1">M</text><path fill="rgb(21,101,192)" stroke="none" paint-order="stroke fill markers" d=" M 59.7907145269412 463.8943531812213 C 59.7907145269412 466.6557769303752 57.552138276095164 468.8943531812213 54.7907145269412 468.8943531812213 C 52.02929077778723 468.8943531812213 49.7907145269412 466.6557769303752 49.7907145269412 463.8943531812213 C 49.7907145269412 461.13292943206733 52.02929077778723 458.8943531812213 54.7907145269412 458.8943531812213 C 57.552138276095164 458.8943531812213 59.7907145269412 461.13292943206733 59.7907145269412 463.8943531812213 Z" fill-opacity="1"/><path fill="none" stroke="rgb(0,0,0)" paint-order="fill stroke markers" d=" M 59.7907145269412 463.8943531812213 C 59.7907145269412 466.6557769303752 57.552138276095164 468.8943531812213 54.7907145269412 468.8943531812213 C 52.02929077778723 468.8943531812213 49.7907145269412 466.6557769303752 49.7907145269412 463.8943531812213 C 49.7907145269412 461.13292943206733 52.02929077778723 458.8943531812213 54.7907145269412 458.8943531812213 C 57.552138276095164 458.8943531812213 59.7907145269412 461.13292943206733 59.7907145269412 463.8943531812213 Z" stroke-opacity="1" stroke-linecap="round" stroke-linejoin="round" stroke-miterlimit="10"/><text fill="rgb(21,101,192)" stroke="none" font-family="geogebra-sans-serif, sans-serif" font-size="16px" font-style="normal" font-weight="normal" text-decoration="normal" x="47" y="451" text-anchor="start" dominant-baseline="alphabetic" fill-opacity="1">S</text><text fill="none" stroke="rgb(255,255,255)" font-family="geogebra-sans-serif, sans-serif" font-size="16px" font-style="normal" font-weight="normal" text-decoration="normal" x="47" y="451" text-anchor="start" dominant-baseline="alphabetic" stroke-opacity="1" stroke-linejoin="bevel" stroke-miterlimit="10" stroke-width="3">S</text><text fill="rgb(21,101,192)" stroke="none" font-family="geogebra-sans-serif, sans-serif" font-size="16px" font-style="normal" font-weight="normal" text-decoration="normal" x="47" y="451" text-anchor="start" dominant-baseline="alphabetic" fill-opacity="1">S</text><path fill="rgb(21,101,192)" stroke="none" paint-order="stroke fill markers" d=" M 390.3896407487248 243.49506903336524 C 390.3896407487248 246.25649278251922 388.15106449787874 248.49506903336524 385.3896407487248 248.49506903336524 C 382.62821699957084 248.49506903336524 380.3896407487248 246.25649278251922 380.3896407487248 243.49506903336524 C 380.3896407487248 240.73364528421126 382.62821699957084 238.49506903336524 385.3896407487248 238.49506903336524 C 388.15106449787874 238.49506903336524 390.3896407487248 240.73364528421126 390.3896407487248 243.49506903336524 Z" fill-opacity="1"/><path fill="none" stroke="rgb(0,0,0)" paint-order="fill stroke markers" d=" M 390.3896407487248 243.49506903336524 C 390.3896407487248 246.25649278251922 388.15106449787874 248.49506903336524 385.3896407487248 248.49506903336524 C 382.62821699957084 248.49506903336524 380.3896407487248 246.25649278251922 380.3896407487248 243.49506903336524 C 380.3896407487248 240.73364528421126 382.62821699957084 238.49506903336524 385.3896407487248 238.49506903336524 C 388.15106449787874 238.49506903336524 390.3896407487248 240.73364528421126 390.3896407487248 243.49506903336524 Z" stroke-opacity="1" stroke-linecap="round" stroke-linejoin="round" stroke-miterlimit="10"/><text fill="rgb(21,101,192)" stroke="none" font-family="geogebra-sans-serif, sans-serif" font-size="16px" font-style="normal" font-weight="normal" text-decoration="normal" x="369" y="229" text-anchor="start" dominant-baseline="alphabetic" fill-opacity="1">L</text><text fill="none" stroke="rgb(255,255,255)" font-family="geogebra-sans-serif, sans-serif" font-size="16px" font-style="normal" font-weight="normal" text-decoration="normal" x="369" y="229" text-anchor="start" dominant-baseline="alphabetic" stroke-opacity="1" stroke-linejoin="bevel" stroke-miterlimit="10" stroke-width="3">L</text><text fill="rgb(21,101,192)" stroke="none" font-family="geogebra-sans-serif, sans-serif" font-size="16px" font-style="normal" font-weight="normal" text-decoration="normal" x="369" y="229" text-anchor="start" dominant-baseline="alphabetic" fill-opacity="1">L</text><g transform="scale(19,19)"><g transform="translate(10.947368421052632,17.834894736842106)"><path fill="rgb(255,127,0)" stroke="none" paint-order="stroke fill markers" d=" M 0.355 -0.677 L 0.41600000000000004 -0.677 Q 0.41500000000000004 -0.622 0.3855 -0.59 Q 0.356 -0.558 0.318 -0.558 Q 0.291 -0.558 0.254 -0.583 Q 0.20700000000000002 -0.616 0.183 -0.616 Q 0.146 -0.616 0.14400000000000002 -0.558 L 0.083 -0.558 Q 0.084 -0.613 0.1135 -0.645 Q 0.14300000000000002 -0.677 0.181 -0.677 Q 0.20800000000000002 -0.677 0.245 -0.652 Q 0.292 -0.619 0.316 -0.619 Q 0.353 -0.619 0.355 -0.677 Z"/></g><g transform="translate(11.019368421052631,17.834894736842106)"><path fill="rgb(255,127,0)" stroke="none" paint-order="stroke fill markers" d=" M 0.157 -0.214 L 0.157 0 L 0.082 0 L 0.082 -0.45 L 0.152 -0.45 L 0.152 -0.359 Q 0.216 -0.454 0.327 -0.455 L 0.327 -0.388 Q 0.253 -0.386 0.20500000000000002 -0.3375 Q 0.157 -0.289 0.157 -0.214 Z"/></g></g><g transform="scale(19,19)"><g transform="translate(5.236263157894737,23.62436842105263)"><path fill="rgb(255,127,0)" stroke="none" paint-order="stroke fill markers" d=" M 0.355 -0.677 L 0.41600000000000004 -0.677 Q 0.41500000000000004 -0.622 0.3855 -0.59 Q 0.356 -0.558 0.318 -0.558 Q 0.291 -0.558 0.254 -0.583 Q 0.20700000000000002 -0.616 0.183 -0.616 Q 0.146 -0.616 0.14400000000000002 -0.558 L 0.083 -0.558 Q 0.084 -0.613 0.1135 -0.645 Q 0.14300000000000002 -0.677 0.181 -0.677 Q 0.20800000000000002 -0.677 0.245 -0.652 Q 0.292 -0.619 0.316 -0.619 Q 0.353 -0.619 0.355 -0.677 Z"/></g><g transform="translate(5.105263157894737,23.87436842105263)"><path fill="rgb(255,127,0)" stroke="none" paint-order="stroke fill markers" d=" M 0.437 -0.67 L 0.381 -0.443 Q 0.508 -0.434 0.555 -0.341 Q 0.5730000000000001 -0.304 0.5730000000000001 -0.262 Q 0.5730000000000001 -0.166 0.488 -0.084 Q 0.399 0.002 0.281 0.011 Q 0.274 0.012 0.267 0.012 L 0.229 0.161 Q 0.221 0.198 0.218 0.201 Q 0.214 0.20500000000000002 0.20800000000000002 0.20500000000000002 Q 0.196 0.20500000000000002 0.196 0.194 Q 0.196 0.192 0.218 0.106 L 0.24 0.016 Q 0.24 0.014 0.241 0.012 Q 0.126 0.005 0.075 -0.075 Q 0.049 -0.117 0.049 -0.169 Q 0.049 -0.267 0.136 -0.34900000000000003 Q 0.225 -0.434 0.343 -0.442 Q 0.34900000000000003 -0.443 0.355 -0.443 L 0.41300000000000003 -0.674 Q 0.422 -0.6930000000000001 0.428 -0.6940000000000001 Q 0.44 -0.6940000000000001 0.44 -0.684 L 0.437 -0.671 L 0.437 -0.67 M 0.246 -0.01 L 0.34900000000000003 -0.421 Q 0.233 -0.41100000000000003 0.164 -0.309 Q 0.114 -0.234 0.114 -0.148 Q 0.114 -0.05 0.198 -0.019 Q 0.221 -0.011 0.246 -0.01 M 0.375 -0.421 L 0.272 -0.01 Q 0.388 -0.019 0.458 -0.123 Q 0.508 -0.198 0.508 -0.28300000000000003 Q 0.508 -0.377 0.43 -0.40900000000000003 Q 0.405 -0.419 0.375 -0.421 Z"/></g></g><g transform="scale(19,19)"><g transform="translate(59,23.167684210526314)"><path fill="rgb(0,0,0)" stroke="none" paint-order="stroke fill markers" d=" M 0.437 -0.67 L 0.381 -0.443 Q 0.508 -0.434 0.555 -0.341 Q 0.5730000000000001 -0.304 0.5730000000000001 -0.262 Q 0.5730000000000001 -0.166 0.488 -0.084 Q 0.399 0.002 0.281 0.011 Q 0.274 0.012 0.267 0.012 L 0.229 0.161 Q 0.221 0.198 0.218 0.201 Q 0.214 0.20500000000000002 0.20800000000000002 0.20500000000000002 Q 0.196 0.20500000000000002 0.196 0.194 Q 0.196 0.192 0.218 0.106 L 0.24 0.016 Q 0.24 0.014 0.241 0.012 Q 0.126 0.005 0.075 -0.075 Q 0.049 -0.117 0.049 -0.169 Q 0.049 -0.267 0.136 -0.34900000000000003 Q 0.225 -0.434 0.343 -0.442 Q 0.34900000000000003 -0.443 0.355 -0.443 L 0.41300000000000003 -0.674 Q 0.422 -0.6930000000000001 0.428 -0.6940000000000001 Q 0.44 -0.6940000000000001 0.44 -0.684 L 0.437 -0.671 L 0.437 -0.67 M 0.246 -0.01 L 0.34900000000000003 -0.421 Q 0.233 -0.41100000000000003 0.164 -0.309 Q 0.114 -0.234 0.114 -0.148 Q 0.114 -0.05 0.198 -0.019 Q 0.221 -0.011 0.246 -0.01 M 0.375 -0.421 L 0.272 -0.01 Q 0.388 -0.019 0.458 -0.123 Q 0.508 -0.198 0.508 -0.28300000000000003 Q 0.508 -0.377 0.43 -0.40900000000000003 Q 0.405 -0.419 0.375 -0.421 Z"/></g></g><g transform="scale(19,19)"><g transform="translate(24.74713246378316,17.927)"><path fill="rgb(255,127,0)" stroke="none" paint-order="stroke fill markers" d=" M 0.434 -0.6940000000000001 L 0.434 0 L 0.356 0 L 0.356 -0.052000000000000005 Q 0.291 0.011 0.20800000000000002 0.011 Q 0.136 0.011 0.08600000000000001 -0.0565 Q 0.036000000000000004 -0.124 0.036000000000000004 -0.222 Q 0.036000000000000004 -0.319 0.08750000000000001 -0.387 Q 0.139 -0.455 0.213 -0.455 Q 0.293 -0.455 0.359 -0.4 L 0.359 -0.6940000000000001 L 0.434 -0.6940000000000001 M 0.356 -0.139 L 0.356 -0.339 Q 0.318 -0.394 0.259 -0.394 Q 0.20400000000000001 -0.394 0.159 -0.352 Q 0.114 -0.31 0.114 -0.221 Q 0.114 -0.135 0.1545 -0.0925 Q 0.195 -0.05 0.249 -0.05 Q 0.291 -0.05 0.323 -0.078 Q 0.356 -0.108 0.356 -0.139 Z"/></g><g transform="translate(25.39513246378316,17.677)"><path fill="rgb(255,127,0)" stroke="none" paint-order="stroke fill markers" d=" M 0.355 -0.677 L 0.41600000000000004 -0.677 Q 0.41500000000000004 -0.622 0.3855 -0.59 Q 0.356 -0.558 0.318 -0.558 Q 0.291 -0.558 0.254 -0.583 Q 0.20700000000000002 -0.616 0.183 -0.616 Q 0.146 -0.616 0.14400000000000002 -0.558 L 0.083 -0.558 Q 0.084 -0.613 0.1135 -0.645 Q 0.14300000000000002 -0.677 0.181 -0.677 Q 0.20800000000000002 -0.677 0.245 -0.652 Q 0.292 -0.619 0.316 -0.619 Q 0.353 -0.619 0.355 -0.677 Z"/></g><g transform="translate(25.26413246378316,17.927)"><path fill="rgb(255,127,0)" stroke="none" paint-order="stroke fill markers" d=" M 0.437 -0.67 L 0.381 -0.443 Q 0.508 -0.434 0.555 -0.341 Q 0.5730000000000001 -0.304 0.5730000000000001 -0.262 Q 0.5730000000000001 -0.166 0.488 -0.084 Q 0.399 0.002 0.281 0.011 Q 0.274 0.012 0.267 0.012 L 0.229 0.161 Q 0.221 0.198 0.218 0.201 Q 0.214 0.20500000000000002 0.20800000000000002 0.20500000000000002 Q 0.196 0.20500000000000002 0.196 0.194 Q 0.196 0.192 0.218 0.106 L 0.24 0.016 Q 0.24 0.014 0.241 0.012 Q 0.126 0.005 0.075 -0.075 Q 0.049 -0.117 0.049 -0.169 Q 0.049 -0.267 0.136 -0.34900000000000003 Q 0.225 -0.434 0.343 -0.442 Q 0.34900000000000003 -0.443 0.355 -0.443 L 0.41300000000000003 -0.674 Q 0.422 -0.6930000000000001 0.428 -0.6940000000000001 Q 0.44 -0.6940000000000001 0.44 -0.684 L 0.437 -0.671 L 0.437 -0.67 M 0.246 -0.01 L 0.34900000000000003 -0.421 Q 0.233 -0.41100000000000003 0.164 -0.309 Q 0.114 -0.234 0.114 -0.148 Q 0.114 -0.05 0.198 -0.019 Q 0.221 -0.011 0.246 -0.01 M 0.375 -0.421 L 0.272 -0.01 Q 0.388 -0.019 0.458 -0.123 Q 0.508 -0.198 0.508 -0.28300000000000003 Q 0.508 -0.377 0.43 -0.40900000000000003 Q 0.405 -0.419 0.375 -0.421 Z"/></g><rect fill="rgb(255,127,0)" stroke="none" x="24.74713246378316" y="18.333508499999997" width="1.113" height="0.039999"/><g transform="translate(24.75363246378316,19.289458999999997)"><path fill="rgb(255,127,0)" stroke="none" paint-order="stroke fill markers" d=" M 0.434 -0.6940000000000001 L 0.434 0 L 0.356 0 L 0.356 -0.052000000000000005 Q 0.291 0.011 0.20800000000000002 0.011 Q 0.136 0.011 0.08600000000000001 -0.0565 Q 0.036000000000000004 -0.124 0.036000000000000004 -0.222 Q 0.036000000000000004 -0.319 0.08750000000000001 -0.387 Q 0.139 -0.455 0.213 -0.455 Q 0.293 -0.455 0.359 -0.4 L 0.359 -0.6940000000000001 L 0.434 -0.6940000000000001 M 0.356 -0.139 L 0.356 -0.339 Q 0.318 -0.394 0.259 -0.394 Q 0.20400000000000001 -0.394 0.159 -0.352 Q 0.114 -0.31 0.114 -0.221 Q 0.114 -0.135 0.1545 -0.0925 Q 0.195 -0.05 0.249 -0.05 Q 0.291 -0.05 0.323 -0.078 Q 0.356 -0.108 0.356 -0.139 Z"/></g><g transform="translate(25.27063246378316,19.289458999999997)"><path fill="rgb(255,127,0)" stroke="none" paint-order="stroke fill markers" d=" M 0.357 -0.292 L 0.116 -0.008 Q 0.099 0.013000000000000001 0.083 0.013000000000000001 Q 0.06 0.013000000000000001 0.054 -0.008 Q 0.053 -0.012 0.053 -0.016 Q 0.053 -0.029 0.07100000000000001 -0.047 L 0.34700000000000003 -0.321 L 0.25 -0.593 Q 0.228 -0.653 0.213 -0.664 L 0.212 -0.664 L 0.21 -0.666 L 0.209 -0.666 Q 0.201 -0.67 0.185 -0.673 Q 0.178 -0.673 0.176 -0.683 Q 0.176 -0.6940000000000001 0.194 -0.6940000000000001 Q 0.29 -0.6940000000000001 0.316 -0.623 L 0.52 -0.054 Q 0.532 -0.02 0.543 -0.008 Q 0.548 -0.001 0.548 0.001 Q 0.548 0.01 0.537 0.011 L 0.515 0.011 Q 0.483 0.011 0.47200000000000003 0.001 Q 0.467 -0.004 0.462 -0.011 Q 0.454 -0.023 0.392 -0.197 Q 0.371 -0.256 0.357 -0.292 Z"/></g></g><g transform="scale(19,19)"><g transform="translate(26.614106147993684,8.430842105263158)"><path fill="rgb(255,127,0)" stroke="none" paint-order="stroke fill markers" d=" M 0.434 -0.6940000000000001 L 0.434 0 L 0.356 0 L 0.356 -0.052000000000000005 Q 0.291 0.011 0.20800000000000002 0.011 Q 0.136 0.011 0.08600000000000001 -0.0565 Q 0.036000000000000004 -0.124 0.036000000000000004 -0.222 Q 0.036000000000000004 -0.319 0.08750000000000001 -0.387 Q 0.139 -0.455 0.213 -0.455 Q 0.293 -0.455 0.359 -0.4 L 0.359 -0.6940000000000001 L 0.434 -0.6940000000000001 M 0.356 -0.139 L 0.356 -0.339 Q 0.318 -0.394 0.259 -0.394 Q 0.20400000000000001 -0.394 0.159 -0.352 Q 0.114 -0.31 0.114 -0.221 Q 0.114 -0.135 0.1545 -0.0925 Q 0.195 -0.05 0.249 -0.05 Q 0.291 -0.05 0.323 -0.078 Q 0.356 -0.108 0.356 -0.139 Z"/></g><g transform="translate(27.131106147993684,8.430842105263158)"><path fill="rgb(255,127,0)" stroke="none" paint-order="stroke fill markers" d=" M 0.355 -0.677 L 0.41600000000000004 -0.677 Q 0.41500000000000004 -0.622 0.3855 -0.59 Q 0.356 -0.558 0.318 -0.558 Q 0.291 -0.558 0.254 -0.583 Q 0.20700000000000002 -0.616 0.183 -0.616 Q 0.146 -0.616 0.14400000000000002 -0.558 L 0.083 -0.558 Q 0.084 -0.613 0.1135 -0.645 Q 0.14300000000000002 -0.677 0.181 -0.677 Q 0.20800000000000002 -0.677 0.245 -0.652 Q 0.292 -0.619 0.316 -0.619 Q 0.353 -0.619 0.355 -0.677 Z"/></g><g transform="translate(27.203106147993683,8.430842105263158)"><path fill="rgb(255,127,0)" stroke="none" paint-order="stroke fill markers" d=" M 0.157 -0.214 L 0.157 0 L 0.082 0 L 0.082 -0.45 L 0.152 -0.45 L 0.152 -0.359 Q 0.216 -0.454 0.327 -0.455 L 0.327 -0.388 Q 0.253 -0.386 0.20500000000000002 -0.3375 Q 0.157 -0.289 0.157 -0.214 Z"/></g><rect fill="rgb(255,127,0)" stroke="none" x="26.536606147993684" y="8.837350605263158" width="1.1" height="0.039999"/><g transform="translate(26.536606147993684,9.793301105263158)"><path fill="rgb(255,127,0)" stroke="none" paint-order="stroke fill markers" d=" M 0.434 -0.6940000000000001 L 0.434 0 L 0.356 0 L 0.356 -0.052000000000000005 Q 0.291 0.011 0.20800000000000002 0.011 Q 0.136 0.011 0.08600000000000001 -0.0565 Q 0.036000000000000004 -0.124 0.036000000000000004 -0.222 Q 0.036000000000000004 -0.319 0.08750000000000001 -0.387 Q 0.139 -0.455 0.213 -0.455 Q 0.293 -0.455 0.359 -0.4 L 0.359 -0.6940000000000001 L 0.434 -0.6940000000000001 M 0.356 -0.139 L 0.356 -0.339 Q 0.318 -0.394 0.259 -0.394 Q 0.20400000000000001 -0.394 0.159 -0.352 Q 0.114 -0.31 0.114 -0.221 Q 0.114 -0.135 0.1545 -0.0925 Q 0.195 -0.05 0.249 -0.05 Q 0.291 -0.05 0.323 -0.078 Q 0.356 -0.108 0.356 -0.139 Z"/></g><g transform="translate(27.053606147993683,9.793301105263158)"><path fill="rgb(255,127,0)" stroke="none" paint-order="stroke fill markers" d=" M 0.357 -0.292 L 0.116 -0.008 Q 0.099 0.013000000000000001 0.083 0.013000000000000001 Q 0.06 0.013000000000000001 0.054 -0.008 Q 0.053 -0.012 0.053 -0.016 Q 0.053 -0.029 0.07100000000000001 -0.047 L 0.34700000000000003 -0.321 L 0.25 -0.593 Q 0.228 -0.653 0.213 -0.664 L 0.212 -0.664 L 0.21 -0.666 L 0.209 -0.666 Q 0.201 -0.67 0.185 -0.673 Q 0.178 -0.673 0.176 -0.683 Q 0.176 -0.6940000000000001 0.194 -0.6940000000000001 Q 0.29 -0.6940000000000001 0.316 -0.623 L 0.52 -0.054 Q 0.532 -0.02 0.543 -0.008 Q 0.548 -0.001 0.548 0.001 Q 0.548 0.01 0.537 0.011 L 0.515 0.011 Q 0.483 0.011 0.47200000000000003 0.001 Q 0.467 -0.004 0.462 -0.011 Q 0.454 -0.023 0.392 -0.197 Q 0.371 -0.256 0.357 -0.292 Z"/></g></g><g transform="scale(19,19)"><g transform="translate(21.32607983220421,4.904526315789473)"><path fill="rgb(0,0,0)" stroke="none" paint-order="stroke fill markers" d=" M 0.434 -0.6940000000000001 L 0.434 0 L 0.356 0 L 0.356 -0.052000000000000005 Q 0.291 0.011 0.20800000000000002 0.011 Q 0.136 0.011 0.08600000000000001 -0.0565 Q 0.036000000000000004 -0.124 0.036000000000000004 -0.222 Q 0.036000000000000004 -0.319 0.08750000000000001 -0.387 Q 0.139 -0.455 0.213 -0.455 Q 0.293 -0.455 0.359 -0.4 L 0.359 -0.6940000000000001 L 0.434 -0.6940000000000001 M 0.356 -0.139 L 0.356 -0.339 Q 0.318 -0.394 0.259 -0.394 Q 0.20400000000000001 -0.394 0.159 -0.352 Q 0.114 -0.31 0.114 -0.221 Q 0.114 -0.135 0.1545 -0.0925 Q 0.195 -0.05 0.249 -0.05 Q 0.291 -0.05 0.323 -0.078 Q 0.356 -0.108 0.356 -0.139 Z"/></g><g transform="translate(21.84307983220421,4.904526315789473)"><path fill="rgb(0,0,0)" stroke="none" paint-order="stroke fill markers" d=" M 0.437 -0.67 L 0.381 -0.443 Q 0.508 -0.434 0.555 -0.341 Q 0.5730000000000001 -0.304 0.5730000000000001 -0.262 Q 0.5730000000000001 -0.166 0.488 -0.084 Q 0.399 0.002 0.281 0.011 Q 0.274 0.012 0.267 0.012 L 0.229 0.161 Q 0.221 0.198 0.218 0.201 Q 0.214 0.20500000000000002 0.20800000000000002 0.20500000000000002 Q 0.196 0.20500000000000002 0.196 0.194 Q 0.196 0.192 0.218 0.106 L 0.24 0.016 Q 0.24 0.014 0.241 0.012 Q 0.126 0.005 0.075 -0.075 Q 0.049 -0.117 0.049 -0.169 Q 0.049 -0.267 0.136 -0.34900000000000003 Q 0.225 -0.434 0.343 -0.442 Q 0.34900000000000003 -0.443 0.355 -0.443 L 0.41300000000000003 -0.674 Q 0.422 -0.6930000000000001 0.428 -0.6940000000000001 Q 0.44 -0.6940000000000001 0.44 -0.684 L 0.437 -0.671 L 0.437 -0.67 M 0.246 -0.01 L 0.34900000000000003 -0.421 Q 0.233 -0.41100000000000003 0.164 -0.309 Q 0.114 -0.234 0.114 -0.148 Q 0.114 -0.05 0.198 -0.019 Q 0.221 -0.011 0.246 -0.01 M 0.375 -0.421 L 0.272 -0.01 Q 0.388 -0.019 0.458 -0.123 Q 0.508 -0.198 0.508 -0.28300000000000003 Q 0.508 -0.377 0.43 -0.40900000000000003 Q 0.405 -0.419 0.375 -0.421 Z"/></g><rect fill="rgb(0,0,0)" stroke="none" x="21.32607983220421" y="5.311034815789474" width="1.113" height="0.039999"/><g transform="translate(21.33257983220421,6.266985315789474)"><path fill="rgb(0,0,0)" stroke="none" paint-order="stroke fill markers" d=" M 0.434 -0.6940000000000001 L 0.434 0 L 0.356 0 L 0.356 -0.052000000000000005 Q 0.291 0.011 0.20800000000000002 0.011 Q 0.136 0.011 0.08600000000000001 -0.0565 Q 0.036000000000000004 -0.124 0.036000000000000004 -0.222 Q 0.036000000000000004 -0.319 0.08750000000000001 -0.387 Q 0.139 -0.455 0.213 -0.455 Q 0.293 -0.455 0.359 -0.4 L 0.359 -0.6940000000000001 L 0.434 -0.6940000000000001 M 0.356 -0.139 L 0.356 -0.339 Q 0.318 -0.394 0.259 -0.394 Q 0.20400000000000001 -0.394 0.159 -0.352 Q 0.114 -0.31 0.114 -0.221 Q 0.114 -0.135 0.1545 -0.0925 Q 0.195 -0.05 0.249 -0.05 Q 0.291 -0.05 0.323 -0.078 Q 0.356 -0.108 0.356 -0.139 Z"/></g><g transform="translate(21.84957983220421,6.266985315789474)"><path fill="rgb(0,0,0)" stroke="none" paint-order="stroke fill markers" d=" M 0.357 -0.292 L 0.116 -0.008 Q 0.099 0.013000000000000001 0.083 0.013000000000000001 Q 0.06 0.013000000000000001 0.054 -0.008 Q 0.053 -0.012 0.053 -0.016 Q 0.053 -0.029 0.07100000000000001 -0.047 L 0.34700000000000003 -0.321 L 0.25 -0.593 Q 0.228 -0.653 0.213 -0.664 L 0.212 -0.664 L 0.21 -0.666 L 0.209 -0.666 Q 0.201 -0.67 0.185 -0.673 Q 0.178 -0.673 0.176 -0.683 Q 0.176 -0.6940000000000001 0.194 -0.6940000000000001 Q 0.29 -0.6940000000000001 0.316 -0.623 L 0.52 -0.054 Q 0.532 -0.02 0.543 -0.008 Q 0.548 -0.001 0.548 0.001 Q 0.548 0.01 0.537 0.011 L 0.515 0.011 Q 0.483 0.011 0.47200000000000003 0.001 Q 0.467 -0.004 0.462 -0.011 Q 0.454 -0.023 0.392 -0.197 Q 0.371 -0.256 0.357 -0.292 Z"/></g></g><g transform="scale(19,19)"><g transform="translate(12.913264042730527,10.536105263157893)"><path fill="rgb(0,0,0)" stroke="none" paint-order="stroke fill markers" d=" M 0.434 -0.6940000000000001 L 0.434 0 L 0.356 0 L 0.356 -0.052000000000000005 Q 0.291 0.011 0.20800000000000002 0.011 Q 0.136 0.011 0.08600000000000001 -0.0565 Q 0.036000000000000004 -0.124 0.036000000000000004 -0.222 Q 0.036000000000000004 -0.319 0.08750000000000001 -0.387 Q 0.139 -0.455 0.213 -0.455 Q 0.293 -0.455 0.359 -0.4 L 0.359 -0.6940000000000001 L 0.434 -0.6940000000000001 M 0.356 -0.139 L 0.356 -0.339 Q 0.318 -0.394 0.259 -0.394 Q 0.20400000000000001 -0.394 0.159 -0.352 Q 0.114 -0.31 0.114 -0.221 Q 0.114 -0.135 0.1545 -0.0925 Q 0.195 -0.05 0.249 -0.05 Q 0.291 -0.05 0.323 -0.078 Q 0.356 -0.108 0.356 -0.139 Z"/></g><g transform="translate(13.430264042730526,10.536105263157893)"><path fill="rgb(0,0,0)" stroke="none" paint-order="stroke fill markers" d=" M 0.157 -0.214 L 0.157 0 L 0.082 0 L 0.082 -0.45 L 0.152 -0.45 L 0.152 -0.359 Q 0.216 -0.454 0.327 -0.455 L 0.327 -0.388 Q 0.253 -0.386 0.20500000000000002 -0.3375 Q 0.157 -0.289 0.157 -0.214 Z"/></g><rect fill="rgb(0,0,0)" stroke="none" x="12.799764042730526" y="10.942613763157892" width="1.1" height="0.039999"/><g transform="translate(12.799764042730526,11.89856426315789)"><path fill="rgb(0,0,0)" stroke="none" paint-order="stroke fill markers" d=" M 0.434 -0.6940000000000001 L 0.434 0 L 0.356 0 L 0.356 -0.052000000000000005 Q 0.291 0.011 0.20800000000000002 0.011 Q 0.136 0.011 0.08600000000000001 -0.0565 Q 0.036000000000000004 -0.124 0.036000000000000004 -0.222 Q 0.036000000000000004 -0.319 0.08750000000000001 -0.387 Q 0.139 -0.455 0.213 -0.455 Q 0.293 -0.455 0.359 -0.4 L 0.359 -0.6940000000000001 L 0.434 -0.6940000000000001 M 0.356 -0.139 L 0.356 -0.339 Q 0.318 -0.394 0.259 -0.394 Q 0.20400000000000001 -0.394 0.159 -0.352 Q 0.114 -0.31 0.114 -0.221 Q 0.114 -0.135 0.1545 -0.0925 Q 0.195 -0.05 0.249 -0.05 Q 0.291 -0.05 0.323 -0.078 Q 0.356 -0.108 0.356 -0.139 Z"/></g><g transform="translate(13.316764042730526,11.89856426315789)"><path fill="rgb(0,0,0)" stroke="none" paint-order="stroke fill markers" d=" M 0.357 -0.292 L 0.116 -0.008 Q 0.099 0.013000000000000001 0.083 0.013000000000000001 Q 0.06 0.013000000000000001 0.054 -0.008 Q 0.053 -0.012 0.053 -0.016 Q 0.053 -0.029 0.07100000000000001 -0.047 L 0.34700000000000003 -0.321 L 0.25 -0.593 Q 0.228 -0.653 0.213 -0.664 L 0.212 -0.664 L 0.21 -0.666 L 0.209 -0.666 Q 0.201 -0.67 0.185 -0.673 Q 0.178 -0.673 0.176 -0.683 Q 0.176 -0.6940000000000001 0.194 -0.6940000000000001 Q 0.29 -0.6940000000000001 0.316 -0.623 L 0.52 -0.054 Q 0.532 -0.02 0.543 -0.008 Q 0.548 -0.001 0.548 0.001 Q 0.548 0.01 0.537 0.011 L 0.515 0.011 Q 0.483 0.011 0.47200000000000003 0.001 Q 0.467 -0.004 0.462 -0.011 Q 0.454 -0.023 0.392 -0.197 Q 0.371 -0.256 0.357 -0.292 Z"/></g></g></g></g></svg>