<svg version="1.1" xmlns="http://www.w3.org/2000/svg" xmlns:xlink="http://www.w3.org/1999/xlink" width="1125" height="475"><defs><clipPath id="DZHqVcKUsTLy"><path fill="none" stroke="none" d=" M 0 0 L 1125 0 L 1125 475 L 0 475 L 0 0 Z"/></clipPath></defs><g transform="scale(1,1)" clip-path="url(#DZHqVcKUsTLy)"><g><rect fill="rgb(255,255,255,0)" stroke="none" x="0" y="0" width="1125" height="475" fill-opacity="1"/><path fill="rgb(0,0,0)" stroke="none" paint-order="stroke fill markers" d=" M 90.5163520492855 415.11056900772206 C 90.5163520492855 409.1878194432411 88.76321122503134 403.3975886393809 85.47786087942097 398.4695631209652 L 60.516352049285615 415.11056900772206 Z" fill-opacity="0.09803921568627451"/><path fill="none" stroke="rgb(0,0,0)" paint-order="fill stroke markers" d=" M 90.5163520492855 415.11056900772206 C 90.5163520492855 409.1878194432411 88.76321122503134 403.3975886393809 85.47786087942097 398.4695631209652 L 60.516352049285615 415.11056900772206 Z" stroke-opacity="0.6" stroke-linecap="round" stroke-linejoin="round" stroke-miterlimit="10" stroke-width="2.5"/><path fill="rgb(0,0,0)" stroke="none" paint-order="stroke fill markers" d=" M 1033.485561564859 406.86893517080074 C 1032.719777568211 409.5491791590687 1032.3312799940836 412.3230731841972 1032.3312799940836 415.11056900772206 L 1062.3312799940836 415.11056900772206 Z" fill-opacity="0.09803921568627451"/><path fill="none" stroke="rgb(0,0,0)" paint-order="fill stroke markers" d=" M 1033.485561564859 406.86893517080074 C 1032.719777568211 409.5491791590687 1032.3312799940836 412.3230731841972 1032.3312799940836 415.11056900772206 L 1062.3312799940836 415.11056900772206 Z" stroke-opacity="0.6" stroke-linecap="round" stroke-linejoin="round" stroke-miterlimit="10" stroke-width="2.5"/><text fill="rgb(0,0,0)" stroke="none" font-family="geogebra-sans-serif, sans-serif" font-size="16px" font-style="normal" font-weight="normal" text-decoration="normal" x="557" y="438" text-anchor="start" dominant-baseline="alphabetic" fill-opacity="1">r</text><text fill="none" stroke="rgb(255,255,255)" font-family="geogebra-sans-serif, sans-serif" font-size="16px" font-style="normal" font-weight="normal" text-decoration="normal" x="557" y="438" text-anchor="start" dominant-baseline="alphabetic" stroke-opacity="1" stroke-linejoin="bevel" stroke-miterlimit="10" stroke-width="3">r</text><text fill="rgb(0,0,0)" stroke="none" font-family="geogebra-sans-serif, sans-serif" font-size="16px" font-style="normal" font-weight="normal" text-decoration="normal" x="557" y="438" text-anchor="start" dominant-baseline="alphabetic" fill-opacity="1">r</text><text fill="rgb(0,0,0)" stroke="none" font-family="geogebra-sans-serif, sans-serif" font-size="14px" font-style="normal" font-weight="normal" text-decoration="normal" x="562" y="445" text-anchor="start" dominant-baseline="alphabetic" fill-opacity="1">0</text><text fill="none" stroke="rgb(255,255,255)" font-family="geogebra-sans-serif, sans-serif" font-size="14px" font-style="normal" font-weight="normal" text-decoration="normal" x="562" y="445" text-anchor="start" dominant-baseline="alphabetic" stroke-opacity="1" stroke-linejoin="bevel" stroke-miterlimit="10" stroke-width="3">0</text><text fill="rgb(0,0,0)" stroke="none" font-family="geogebra-sans-serif, sans-serif" font-size="14px" font-style="normal" font-weight="normal" text-decoration="normal" x="562" y="445" text-anchor="start" dominant-baseline="alphabetic" fill-opacity="1">0</text><path fill="none" stroke="rgb(0,0,0)" paint-order="fill stroke markers" d=" M 60.516352049285615 415.11056900772206 L 1062.3312799940836 415.11056900772206" stroke-opacity="0.6980392156862745" stroke-linecap="round" stroke-linejoin="round" stroke-miterlimit="10" stroke-width="2.5"/><path fill="none" stroke="rgb(0,0,0)" paint-order="fill stroke markers" d=" M 60.516352049285615 415.11056900772206 L 361.0608304327251 214.747583418762" stroke-opacity="0.6980392156862745" stroke-linecap="round" stroke-linejoin="round" stroke-miterlimit="10" stroke-width="2.5"/><text fill="rgb(0,0,0)" stroke="none" font-family="geogebra-sans-serif, sans-serif" font-size="16px" font-style="normal" font-weight="normal" text-decoration="normal" x="677" y="288" text-anchor="start" dominant-baseline="alphabetic" fill-opacity="1">r</text><text fill="none" stroke="rgb(255,255,255)" font-family="geogebra-sans-serif, sans-serif" font-size="16px" font-style="normal" font-weight="normal" text-decoration="normal" x="677" y="288" text-anchor="start" dominant-baseline="alphabetic" stroke-opacity="1" stroke-linejoin="bevel" stroke-miterlimit="10" stroke-width="3">r</text><text fill="rgb(0,0,0)" stroke="none" font-family="geogebra-sans-serif, sans-serif" font-size="16px" font-style="normal" font-weight="normal" text-decoration="normal" x="677" y="288" text-anchor="start" dominant-baseline="alphabetic" fill-opacity="1">r</text><path fill="none" stroke="rgb(0,0,0)" paint-order="fill stroke markers" d=" M 361.0608304327251 214.747583418762 L 1062.3312799940836 415.11056900772206" stroke-opacity="0.6980392156862745" stroke-linecap="round" stroke-linejoin="round" stroke-miterlimit="10" stroke-width="2.5"/><path fill="none" stroke="rgb(0,0,0)" paint-order="fill stroke markers" d=" M 361.0608304327251 415.11056900772206 L 361.0608304327251 214.747583418762" stroke-opacity="0.6980392156862745" stroke-linecap="round" stroke-linejoin="round" stroke-miterlimit="10" stroke-width="2.5"/><path fill="rgb(255,127,0)" stroke="none" paint-order="stroke fill markers" d=" M 461.24232322720485 147.95992155577537 L 444.7399923895044 153.8536111406684 L 446.4040929781801 156.34976202368193 L 360.36745518744357 213.7075205508397 C 359.7930443266248 214.09046112471884 359.6378269909236 214.86654780322473 360.0207675648028 215.4409586640435 C 360.26163649518793 215.8022620596212 360.65804925164645 215.9977162607273 361.06198080100603 215.9977162607273 C 361.3002316164385 215.9977162607273 361.5410982127655 215.92971793017833 361.7542056780066 215.7876462866843 L 447.79084346874305 158.42988775952657 L 447.79084346874316 158.42988775952657 L 449.4549440574188 160.92603864254008 L 461.2423232272049 147.95992155577537 Z" fill-opacity="0.6980392156862745"/><path fill="rgb(255,127,0)" stroke="none" paint-order="stroke fill markers" d=" M 361.05968006444414 213.49745057679667 C 360.82142924901166 213.49745057679667 360.5805626526846 213.56544890734563 360.3674551874435 213.7075205508397 C 359.79304432662474 214.09046112471887 359.6378269909236 214.86654780322476 360.0207675648028 215.44095866404354 L 417.3785260919604 301.47759645478015 L 417.37852609196045 301.47759645478015 L 414.8823752089469 303.14169704345585 L 427.8484922957116 314.929076213242 L 421.9548027108185 298.42674537554143 L 419.45865182780494 300.0908459642171 L 419.458651827805 300.0908459642171 L 362.1008933006474 214.05420817348045 C 361.86002437026224 213.69290477790275 361.4636116138037 213.49745057679667 361.05968006444414 213.49745057679667 Z" fill-opacity="0.6980392156862745"/><path fill="rgb(0,0,0)" stroke="none" paint-order="stroke fill markers" d=" M 389.6841140882907 114.56609062428197 L 380.9273781365618 129.7444329406121 L 383.81194997948427 130.56859632430425 L 359.8589254981741 214.40418200889027 C 359.6692701364315 215.06797577498918 360.0536352567545 215.75983299157045 360.71742902285337 215.949488353313 C 360.8321772198023 215.98227355244128 360.9477640391717 215.9979052498509 361.06145023320533 215.9979052498509 C 361.60541434564755 215.99790524985087 362.1058652046618 215.64003039778368 362.2627353672761 215.0909848286337 L 386.2157598485863 131.2553991440477 L 389.10033169150876 132.07956252773982 L 389.6841140882907 114.56609062428197 Z" fill-opacity="0.6980392156862745"/><path fill="rgb(0,0,0)" stroke="none" paint-order="stroke fill markers" d=" M 260.87933763824526 186.1242997631963 L 276.05767995457535 194.88103571492522 L 276.8818433382675 191.99646387200275 L 360.71742902285337 215.94948835331303 C 360.8321772198023 215.9822735524413 360.9477640391718 215.99790524985093 361.0614502332054 215.99790524985093 C 361.6054143456476 215.9979052498509 362.1058652046619 215.64003039778368 362.26273536727615 215.0909848286337 C 362.4523907290187 214.4271910625348 362.06802560869573 213.7353338459535 361.4042318425968 213.54567848421095 L 277.56864615801095 189.59265400290067 L 278.3928095417031 186.7080821599782 L 260.87933763824526 186.1242997631963 Z" fill-opacity="0.6980392156862745"/><path fill="rgb(97,97,97)" stroke="none" paint-order="stroke fill markers" d=" M 1067.3312799940836 415.11056900772206 C 1067.3312799940836 417.871992756876 1065.0927037432375 420.11056900772206 1062.3312799940836 420.11056900772206 C 1059.5698562449297 420.11056900772206 1057.3312799940836 417.871992756876 1057.3312799940836 415.11056900772206 C 1057.3312799940836 412.3491452585681 1059.5698562449297 410.11056900772206 1062.3312799940836 410.11056900772206 C 1065.0927037432375 410.11056900772206 1067.3312799940836 412.3491452585681 1067.3312799940836 415.11056900772206 Z" fill-opacity="1"/><path fill="none" stroke="rgb(0,0,0)" paint-order="fill stroke markers" d=" M 1067.3312799940836 415.11056900772206 C 1067.3312799940836 417.871992756876 1065.0927037432375 420.11056900772206 1062.3312799940836 420.11056900772206 C 1059.5698562449297 420.11056900772206 1057.3312799940836 417.871992756876 1057.3312799940836 415.11056900772206 C 1057.3312799940836 412.3491452585681 1059.5698562449297 410.11056900772206 1062.3312799940836 410.11056900772206 C 1065.0927037432375 410.11056900772206 1067.3312799940836 412.3491452585681 1067.3312799940836 415.11056900772206 Z" stroke-opacity="1" stroke-linecap="round" stroke-linejoin="round" stroke-miterlimit="10"/><text fill="rgb(97,97,97)" stroke="none" font-family="geogebra-sans-serif, sans-serif" font-size="16px" font-style="normal" font-weight="normal" text-decoration="normal" x="1066" y="405" text-anchor="start" dominant-baseline="alphabetic" fill-opacity="1">M</text><text fill="none" stroke="rgb(255,255,255)" font-family="geogebra-sans-serif, sans-serif" font-size="16px" font-style="normal" font-weight="normal" text-decoration="normal" x="1066" y="405" text-anchor="start" dominant-baseline="alphabetic" stroke-opacity="1" stroke-linejoin="bevel" stroke-miterlimit="10" stroke-width="3">M</text><text fill="rgb(97,97,97)" stroke="none" font-family="geogebra-sans-serif, sans-serif" font-size="16px" font-style="normal" font-weight="normal" text-decoration="normal" x="1066" y="405" text-anchor="start" dominant-baseline="alphabetic" fill-opacity="1">M</text><path fill="rgb(21,101,192)" stroke="none" paint-order="stroke fill markers" d=" M 65.51635204928562 415.11056900772206 C 65.51635204928562 417.871992756876 63.27777579843958 420.11056900772206 60.516352049285615 420.11056900772206 C 57.754928300131645 420.11056900772206 55.516352049285615 417.871992756876 55.516352049285615 415.11056900772206 C 55.516352049285615 412.3491452585681 57.754928300131645 410.11056900772206 60.516352049285615 410.11056900772206 C 63.27777579843958 410.11056900772206 65.51635204928562 412.3491452585681 65.51635204928562 415.11056900772206 Z" fill-opacity="1"/><path fill="none" stroke="rgb(0,0,0)" paint-order="fill stroke markers" d=" M 65.51635204928562 415.11056900772206 C 65.51635204928562 417.871992756876 63.27777579843958 420.11056900772206 60.516352049285615 420.11056900772206 C 57.754928300131645 420.11056900772206 55.516352049285615 417.871992756876 55.516352049285615 415.11056900772206 C 55.516352049285615 412.3491452585681 57.754928300131645 410.11056900772206 60.516352049285615 410.11056900772206 C 63.27777579843958 410.11056900772206 65.51635204928562 412.3491452585681 65.51635204928562 415.11056900772206 Z" stroke-opacity="1" stroke-linecap="round" stroke-linejoin="round" stroke-miterlimit="10"/><text fill="rgb(21,101,192)" stroke="none" font-family="geogebra-sans-serif, sans-serif" font-size="16px" font-style="normal" font-weight="normal" text-decoration="normal" x="53" y="402" text-anchor="start" dominant-baseline="alphabetic" fill-opacity="1">S</text><text fill="none" stroke="rgb(255,255,255)" font-family="geogebra-sans-serif, sans-serif" font-size="16px" font-style="normal" font-weight="normal" text-decoration="normal" x="53" y="402" text-anchor="start" dominant-baseline="alphabetic" stroke-opacity="1" stroke-linejoin="bevel" stroke-miterlimit="10" stroke-width="3">S</text><text fill="rgb(21,101,192)" stroke="none" font-family="geogebra-sans-serif, sans-serif" font-size="16px" font-style="normal" font-weight="normal" text-decoration="normal" x="53" y="402" text-anchor="start" dominant-baseline="alphabetic" fill-opacity="1">S</text><path fill="rgb(21,101,192)" stroke="none" paint-order="stroke fill markers" d=" M 366.0608304327251 214.747583418762 C 366.0608304327251 217.50900716791597 363.82225418187903 219.747583418762 361.0608304327251 219.747583418762 C 358.29940668357114 219.747583418762 356.0608304327251 217.50900716791597 356.0608304327251 214.747583418762 C 356.0608304327251 211.986159669608 358.29940668357114 209.747583418762 361.0608304327251 209.747583418762 C 363.82225418187903 209.747583418762 366.0608304327251 211.986159669608 366.0608304327251 214.747583418762 Z" fill-opacity="1"/><path fill="none" stroke="rgb(0,0,0)" paint-order="fill stroke markers" d=" M 366.0608304327251 214.747583418762 C 366.0608304327251 217.50900716791597 363.82225418187903 219.747583418762 361.0608304327251 219.747583418762 C 358.29940668357114 219.747583418762 356.0608304327251 217.50900716791597 356.0608304327251 214.747583418762 C 356.0608304327251 211.986159669608 358.29940668357114 209.747583418762 361.0608304327251 209.747583418762 C 363.82225418187903 209.747583418762 366.0608304327251 211.986159669608 366.0608304327251 214.747583418762 Z" stroke-opacity="1" stroke-linecap="round" stroke-linejoin="round" stroke-miterlimit="10"/><text fill="rgb(21,101,192)" stroke="none" font-family="geogebra-sans-serif, sans-serif" font-size="16px" font-style="normal" font-weight="normal" text-decoration="normal" x="345" y="201" text-anchor="start" dominant-baseline="alphabetic" fill-opacity="1">L</text><text fill="none" stroke="rgb(255,255,255)" font-family="geogebra-sans-serif, sans-serif" font-size="16px" font-style="normal" font-weight="normal" text-decoration="normal" x="345" y="201" text-anchor="start" dominant-baseline="alphabetic" stroke-opacity="1" stroke-linejoin="bevel" stroke-miterlimit="10" stroke-width="3">L</text><text fill="rgb(21,101,192)" stroke="none" font-family="geogebra-sans-serif, sans-serif" font-size="16px" font-style="normal" font-weight="normal" text-decoration="normal" x="345" y="201" text-anchor="start" dominant-baseline="alphabetic" fill-opacity="1">L</text><path fill="rgb(0,0,0)" stroke="none" paint-order="stroke fill markers" d=" M 366.0608304327251 415.11056900772206 C 366.0608304327251 417.871992756876 363.82225418187903 420.11056900772206 361.0608304327251 420.11056900772206 C 358.29940668357114 420.11056900772206 356.0608304327251 417.871992756876 356.0608304327251 415.11056900772206 C 356.0608304327251 412.3491452585681 358.29940668357114 410.11056900772206 361.0608304327251 410.11056900772206 C 363.82225418187903 410.11056900772206 366.0608304327251 412.3491452585681 366.0608304327251 415.11056900772206 Z" fill-opacity="1"/><path fill="none" stroke="rgb(0,0,0)" paint-order="fill stroke markers" d=" M 366.0608304327251 415.11056900772206 C 366.0608304327251 417.871992756876 363.82225418187903 420.11056900772206 361.0608304327251 420.11056900772206 C 358.29940668357114 420.11056900772206 356.0608304327251 417.871992756876 356.0608304327251 415.11056900772206 C 356.0608304327251 412.3491452585681 358.29940668357114 410.11056900772206 361.0608304327251 410.11056900772206 C 363.82225418187903 410.11056900772206 366.0608304327251 412.3491452585681 366.0608304327251 415.11056900772206 Z" stroke-opacity="1" stroke-linecap="round" stroke-linejoin="round" stroke-miterlimit="10"/><g transform="scale(19,19)"><g transform="translate(10.526315789473685,15.940157894736842)"><path fill="rgb(255,127,0)" stroke="none" paint-order="stroke fill markers" d=" M 0.355 -0.677 L 0.41600000000000004 -0.677 Q 0.41500000000000004 -0.622 0.3855 -0.59 Q 0.356 -0.558 0.318 -0.558 Q 0.291 -0.558 0.254 -0.583 Q 0.20700000000000002 -0.616 0.183 -0.616 Q 0.146 -0.616 0.14400000000000002 -0.558 L 0.083 -0.558 Q 0.084 -0.613 0.1135 -0.645 Q 0.14300000000000002 -0.677 0.181 -0.677 Q 0.20800000000000002 -0.677 0.245 -0.652 Q 0.292 -0.619 0.316 -0.619 Q 0.353 -0.619 0.355 -0.677 Z"/></g><g transform="translate(10.598315789473684,15.940157894736842)"><path fill="rgb(255,127,0)" stroke="none" paint-order="stroke fill markers" d=" M 0.157 -0.214 L 0.157 0 L 0.082 0 L 0.082 -0.45 L 0.152 -0.45 L 0.152 -0.359 Q 0.216 -0.454 0.327 -0.455 L 0.327 -0.388 Q 0.253 -0.386 0.20500000000000002 -0.3375 Q 0.157 -0.289 0.157 -0.214 Z"/></g></g><g transform="scale(19,19)"><g transform="translate(5.341526315789474,21.203315789473685)"><path fill="rgb(255,127,0)" stroke="none" paint-order="stroke fill markers" d=" M 0.355 -0.677 L 0.41600000000000004 -0.677 Q 0.41500000000000004 -0.622 0.3855 -0.59 Q 0.356 -0.558 0.318 -0.558 Q 0.291 -0.558 0.254 -0.583 Q 0.20700000000000002 -0.616 0.183 -0.616 Q 0.146 -0.616 0.14400000000000002 -0.558 L 0.083 -0.558 Q 0.084 -0.613 0.1135 -0.645 Q 0.14300000000000002 -0.677 0.181 -0.677 Q 0.20800000000000002 -0.677 0.245 -0.652 Q 0.292 -0.619 0.316 -0.619 Q 0.353 -0.619 0.355 -0.677 Z"/></g><g transform="translate(5.2105263157894735,21.453315789473685)"><path fill="rgb(255,127,0)" stroke="none" paint-order="stroke fill markers" d=" M 0.437 -0.67 L 0.381 -0.443 Q 0.508 -0.434 0.555 -0.341 Q 0.5730000000000001 -0.304 0.5730000000000001 -0.262 Q 0.5730000000000001 -0.166 0.488 -0.084 Q 0.399 0.002 0.281 0.011 Q 0.274 0.012 0.267 0.012 L 0.229 0.161 Q 0.221 0.198 0.218 0.201 Q 0.214 0.20500000000000002 0.20800000000000002 0.20500000000000002 Q 0.196 0.20500000000000002 0.196 0.194 Q 0.196 0.192 0.218 0.106 L 0.24 0.016 Q 0.24 0.014 0.241 0.012 Q 0.126 0.005 0.075 -0.075 Q 0.049 -0.117 0.049 -0.169 Q 0.049 -0.267 0.136 -0.34900000000000003 Q 0.225 -0.434 0.343 -0.442 Q 0.34900000000000003 -0.443 0.355 -0.443 L 0.41300000000000003 -0.674 Q 0.422 -0.6930000000000001 0.428 -0.6940000000000001 Q 0.44 -0.6940000000000001 0.44 -0.684 L 0.437 -0.671 L 0.437 -0.67 M 0.246 -0.01 L 0.34900000000000003 -0.421 Q 0.233 -0.41100000000000003 0.164 -0.309 Q 0.114 -0.234 0.114 -0.148 Q 0.114 -0.05 0.198 -0.019 Q 0.221 -0.011 0.246 -0.01 M 0.375 -0.421 L 0.272 -0.01 Q 0.388 -0.019 0.458 -0.123 Q 0.508 -0.198 0.508 -0.28300000000000003 Q 0.508 -0.377 0.43 -0.40900000000000003 Q 0.405 -0.419 0.375 -0.421 Z"/></g></g><g transform="scale(19,19)"><g transform="translate(54.21052631578947,20.799263157894735)"><path fill="rgb(0,0,0)" stroke="none" paint-order="stroke fill markers" d=" M 0.437 -0.67 L 0.381 -0.443 Q 0.508 -0.434 0.555 -0.341 Q 0.5730000000000001 -0.304 0.5730000000000001 -0.262 Q 0.5730000000000001 -0.166 0.488 -0.084 Q 0.399 0.002 0.281 0.011 Q 0.274 0.012 0.267 0.012 L 0.229 0.161 Q 0.221 0.198 0.218 0.201 Q 0.214 0.20500000000000002 0.20800000000000002 0.20500000000000002 Q 0.196 0.20500000000000002 0.196 0.194 Q 0.196 0.192 0.218 0.106 L 0.24 0.016 Q 0.24 0.014 0.241 0.012 Q 0.126 0.005 0.075 -0.075 Q 0.049 -0.117 0.049 -0.169 Q 0.049 -0.267 0.136 -0.34900000000000003 Q 0.225 -0.434 0.343 -0.442 Q 0.34900000000000003 -0.443 0.355 -0.443 L 0.41300000000000003 -0.674 Q 0.422 -0.6930000000000001 0.428 -0.6940000000000001 Q 0.44 -0.6940000000000001 0.44 -0.684 L 0.437 -0.671 L 0.437 -0.67 M 0.246 -0.01 L 0.34900000000000003 -0.421 Q 0.233 -0.41100000000000003 0.164 -0.309 Q 0.114 -0.234 0.114 -0.148 Q 0.114 -0.05 0.198 -0.019 Q 0.221 -0.011 0.246 -0.01 M 0.375 -0.421 L 0.272 -0.01 Q 0.388 -0.019 0.458 -0.123 Q 0.508 -0.198 0.508 -0.28300000000000003 Q 0.508 -0.377 0.43 -0.40900000000000003 Q 0.405 -0.419 0.375 -0.421 Z"/></g></g><g transform="scale(19,19)"><g transform="translate(23.06292193746737,16.03226315789474)"><path fill="rgb(255,127,0)" stroke="none" paint-order="stroke fill markers" d=" M 0.434 -0.6940000000000001 L 0.434 0 L 0.356 0 L 0.356 -0.052000000000000005 Q 0.291 0.011 0.20800000000000002 0.011 Q 0.136 0.011 0.08600000000000001 -0.0565 Q 0.036000000000000004 -0.124 0.036000000000000004 -0.222 Q 0.036000000000000004 -0.319 0.08750000000000001 -0.387 Q 0.139 -0.455 0.213 -0.455 Q 0.293 -0.455 0.359 -0.4 L 0.359 -0.6940000000000001 L 0.434 -0.6940000000000001 M 0.356 -0.139 L 0.356 -0.339 Q 0.318 -0.394 0.259 -0.394 Q 0.20400000000000001 -0.394 0.159 -0.352 Q 0.114 -0.31 0.114 -0.221 Q 0.114 -0.135 0.1545 -0.0925 Q 0.195 -0.05 0.249 -0.05 Q 0.291 -0.05 0.323 -0.078 Q 0.356 -0.108 0.356 -0.139 Z"/></g><g transform="translate(23.71092193746737,15.78226315789474)"><path fill="rgb(255,127,0)" stroke="none" paint-order="stroke fill markers" d=" M 0.355 -0.677 L 0.41600000000000004 -0.677 Q 0.41500000000000004 -0.622 0.3855 -0.59 Q 0.356 -0.558 0.318 -0.558 Q 0.291 -0.558 0.254 -0.583 Q 0.20700000000000002 -0.616 0.183 -0.616 Q 0.146 -0.616 0.14400000000000002 -0.558 L 0.083 -0.558 Q 0.084 -0.613 0.1135 -0.645 Q 0.14300000000000002 -0.677 0.181 -0.677 Q 0.20800000000000002 -0.677 0.245 -0.652 Q 0.292 -0.619 0.316 -0.619 Q 0.353 -0.619 0.355 -0.677 Z"/></g><g transform="translate(23.57992193746737,16.03226315789474)"><path fill="rgb(255,127,0)" stroke="none" paint-order="stroke fill markers" d=" M 0.437 -0.67 L 0.381 -0.443 Q 0.508 -0.434 0.555 -0.341 Q 0.5730000000000001 -0.304 0.5730000000000001 -0.262 Q 0.5730000000000001 -0.166 0.488 -0.084 Q 0.399 0.002 0.281 0.011 Q 0.274 0.012 0.267 0.012 L 0.229 0.161 Q 0.221 0.198 0.218 0.201 Q 0.214 0.20500000000000002 0.20800000000000002 0.20500000000000002 Q 0.196 0.20500000000000002 0.196 0.194 Q 0.196 0.192 0.218 0.106 L 0.24 0.016 Q 0.24 0.014 0.241 0.012 Q 0.126 0.005 0.075 -0.075 Q 0.049 -0.117 0.049 -0.169 Q 0.049 -0.267 0.136 -0.34900000000000003 Q 0.225 -0.434 0.343 -0.442 Q 0.34900000000000003 -0.443 0.355 -0.443 L 0.41300000000000003 -0.674 Q 0.422 -0.6930000000000001 0.428 -0.6940000000000001 Q 0.44 -0.6940000000000001 0.44 -0.684 L 0.437 -0.671 L 0.437 -0.67 M 0.246 -0.01 L 0.34900000000000003 -0.421 Q 0.233 -0.41100000000000003 0.164 -0.309 Q 0.114 -0.234 0.114 -0.148 Q 0.114 -0.05 0.198 -0.019 Q 0.221 -0.011 0.246 -0.01 M 0.375 -0.421 L 0.272 -0.01 Q 0.388 -0.019 0.458 -0.123 Q 0.508 -0.198 0.508 -0.28300000000000003 Q 0.508 -0.377 0.43 -0.40900000000000003 Q 0.405 -0.419 0.375 -0.421 Z"/></g><rect fill="rgb(255,127,0)" stroke="none" x="23.06292193746737" y="16.438771657894737" width="1.113" height="0.039999"/><g transform="translate(23.069421937467368,17.394722157894737)"><path fill="rgb(255,127,0)" stroke="none" paint-order="stroke fill markers" d=" M 0.434 -0.6940000000000001 L 0.434 0 L 0.356 0 L 0.356 -0.052000000000000005 Q 0.291 0.011 0.20800000000000002 0.011 Q 0.136 0.011 0.08600000000000001 -0.0565 Q 0.036000000000000004 -0.124 0.036000000000000004 -0.222 Q 0.036000000000000004 -0.319 0.08750000000000001 -0.387 Q 0.139 -0.455 0.213 -0.455 Q 0.293 -0.455 0.359 -0.4 L 0.359 -0.6940000000000001 L 0.434 -0.6940000000000001 M 0.356 -0.139 L 0.356 -0.339 Q 0.318 -0.394 0.259 -0.394 Q 0.20400000000000001 -0.394 0.159 -0.352 Q 0.114 -0.31 0.114 -0.221 Q 0.114 -0.135 0.1545 -0.0925 Q 0.195 -0.05 0.249 -0.05 Q 0.291 -0.05 0.323 -0.078 Q 0.356 -0.108 0.356 -0.139 Z"/></g><g transform="translate(23.586421937467367,17.394722157894737)"><path fill="rgb(255,127,0)" stroke="none" paint-order="stroke fill markers" d=" M 0.357 -0.292 L 0.116 -0.008 Q 0.099 0.013000000000000001 0.083 0.013000000000000001 Q 0.06 0.013000000000000001 0.054 -0.008 Q 0.053 -0.012 0.053 -0.016 Q 0.053 -0.029 0.07100000000000001 -0.047 L 0.34700000000000003 -0.321 L 0.25 -0.593 Q 0.228 -0.653 0.213 -0.664 L 0.212 -0.664 L 0.21 -0.666 L 0.209 -0.666 Q 0.201 -0.67 0.185 -0.673 Q 0.178 -0.673 0.176 -0.683 Q 0.176 -0.6940000000000001 0.194 -0.6940000000000001 Q 0.29 -0.6940000000000001 0.316 -0.623 L 0.52 -0.054 Q 0.532 -0.02 0.543 -0.008 Q 0.548 -0.001 0.548 0.001 Q 0.548 0.01 0.537 0.011 L 0.515 0.011 Q 0.483 0.011 0.47200000000000003 0.001 Q 0.467 -0.004 0.462 -0.011 Q 0.454 -0.023 0.392 -0.197 Q 0.371 -0.256 0.357 -0.292 Z"/></g></g><g transform="scale(19,19)"><g transform="translate(24.77200088483579,7.378210526315788)"><path fill="rgb(255,127,0)" stroke="none" paint-order="stroke fill markers" d=" M 0.434 -0.6940000000000001 L 0.434 0 L 0.356 0 L 0.356 -0.052000000000000005 Q 0.291 0.011 0.20800000000000002 0.011 Q 0.136 0.011 0.08600000000000001 -0.0565 Q 0.036000000000000004 -0.124 0.036000000000000004 -0.222 Q 0.036000000000000004 -0.319 0.08750000000000001 -0.387 Q 0.139 -0.455 0.213 -0.455 Q 0.293 -0.455 0.359 -0.4 L 0.359 -0.6940000000000001 L 0.434 -0.6940000000000001 M 0.356 -0.139 L 0.356 -0.339 Q 0.318 -0.394 0.259 -0.394 Q 0.20400000000000001 -0.394 0.159 -0.352 Q 0.114 -0.31 0.114 -0.221 Q 0.114 -0.135 0.1545 -0.0925 Q 0.195 -0.05 0.249 -0.05 Q 0.291 -0.05 0.323 -0.078 Q 0.356 -0.108 0.356 -0.139 Z"/></g><g transform="translate(25.28900088483579,7.378210526315788)"><path fill="rgb(255,127,0)" stroke="none" paint-order="stroke fill markers" d=" M 0.355 -0.677 L 0.41600000000000004 -0.677 Q 0.41500000000000004 -0.622 0.3855 -0.59 Q 0.356 -0.558 0.318 -0.558 Q 0.291 -0.558 0.254 -0.583 Q 0.20700000000000002 -0.616 0.183 -0.616 Q 0.146 -0.616 0.14400000000000002 -0.558 L 0.083 -0.558 Q 0.084 -0.613 0.1135 -0.645 Q 0.14300000000000002 -0.677 0.181 -0.677 Q 0.20800000000000002 -0.677 0.245 -0.652 Q 0.292 -0.619 0.316 -0.619 Q 0.353 -0.619 0.355 -0.677 Z"/></g><g transform="translate(25.36100088483579,7.378210526315788)"><path fill="rgb(255,127,0)" stroke="none" paint-order="stroke fill markers" d=" M 0.157 -0.214 L 0.157 0 L 0.082 0 L 0.082 -0.45 L 0.152 -0.45 L 0.152 -0.359 Q 0.216 -0.454 0.327 -0.455 L 0.327 -0.388 Q 0.253 -0.386 0.20500000000000002 -0.3375 Q 0.157 -0.289 0.157 -0.214 Z"/></g><rect fill="rgb(255,127,0)" stroke="none" x="24.69450088483579" y="7.784719026315789" width="1.1" height="0.039999"/><g transform="translate(24.69450088483579,8.740669526315788)"><path fill="rgb(255,127,0)" stroke="none" paint-order="stroke fill markers" d=" M 0.434 -0.6940000000000001 L 0.434 0 L 0.356 0 L 0.356 -0.052000000000000005 Q 0.291 0.011 0.20800000000000002 0.011 Q 0.136 0.011 0.08600000000000001 -0.0565 Q 0.036000000000000004 -0.124 0.036000000000000004 -0.222 Q 0.036000000000000004 -0.319 0.08750000000000001 -0.387 Q 0.139 -0.455 0.213 -0.455 Q 0.293 -0.455 0.359 -0.4 L 0.359 -0.6940000000000001 L 0.434 -0.6940000000000001 M 0.356 -0.139 L 0.356 -0.339 Q 0.318 -0.394 0.259 -0.394 Q 0.20400000000000001 -0.394 0.159 -0.352 Q 0.114 -0.31 0.114 -0.221 Q 0.114 -0.135 0.1545 -0.0925 Q 0.195 -0.05 0.249 -0.05 Q 0.291 -0.05 0.323 -0.078 Q 0.356 -0.108 0.356 -0.139 Z"/></g><g transform="translate(25.21150088483579,8.740669526315788)"><path fill="rgb(255,127,0)" stroke="none" paint-order="stroke fill markers" d=" M 0.357 -0.292 L 0.116 -0.008 Q 0.099 0.013000000000000001 0.083 0.013000000000000001 Q 0.06 0.013000000000000001 0.054 -0.008 Q 0.053 -0.012 0.053 -0.016 Q 0.053 -0.029 0.07100000000000001 -0.047 L 0.34700000000000003 -0.321 L 0.25 -0.593 Q 0.228 -0.653 0.213 -0.664 L 0.212 -0.664 L 0.21 -0.666 L 0.209 -0.666 Q 0.201 -0.67 0.185 -0.673 Q 0.178 -0.673 0.176 -0.683 Q 0.176 -0.6940000000000001 0.194 -0.6940000000000001 Q 0.29 -0.6940000000000001 0.316 -0.623 L 0.52 -0.054 Q 0.532 -0.02 0.543 -0.008 Q 0.548 -0.001 0.548 0.001 Q 0.548 0.01 0.537 0.011 L 0.515 0.011 Q 0.483 0.011 0.47200000000000003 0.001 Q 0.467 -0.004 0.462 -0.011 Q 0.454 -0.023 0.392 -0.197 Q 0.371 -0.256 0.357 -0.292 Z"/></g></g><g transform="scale(19,19)"><g transform="translate(20.01029035852,4.220315789473684)"><path fill="rgb(0,0,0)" stroke="none" paint-order="stroke fill markers" d=" M 0.434 -0.6940000000000001 L 0.434 0 L 0.356 0 L 0.356 -0.052000000000000005 Q 0.291 0.011 0.20800000000000002 0.011 Q 0.136 0.011 0.08600000000000001 -0.0565 Q 0.036000000000000004 -0.124 0.036000000000000004 -0.222 Q 0.036000000000000004 -0.319 0.08750000000000001 -0.387 Q 0.139 -0.455 0.213 -0.455 Q 0.293 -0.455 0.359 -0.4 L 0.359 -0.6940000000000001 L 0.434 -0.6940000000000001 M 0.356 -0.139 L 0.356 -0.339 Q 0.318 -0.394 0.259 -0.394 Q 0.20400000000000001 -0.394 0.159 -0.352 Q 0.114 -0.31 0.114 -0.221 Q 0.114 -0.135 0.1545 -0.0925 Q 0.195 -0.05 0.249 -0.05 Q 0.291 -0.05 0.323 -0.078 Q 0.356 -0.108 0.356 -0.139 Z"/></g><g transform="translate(20.52729035852,4.220315789473684)"><path fill="rgb(0,0,0)" stroke="none" paint-order="stroke fill markers" d=" M 0.437 -0.67 L 0.381 -0.443 Q 0.508 -0.434 0.555 -0.341 Q 0.5730000000000001 -0.304 0.5730000000000001 -0.262 Q 0.5730000000000001 -0.166 0.488 -0.084 Q 0.399 0.002 0.281 0.011 Q 0.274 0.012 0.267 0.012 L 0.229 0.161 Q 0.221 0.198 0.218 0.201 Q 0.214 0.20500000000000002 0.20800000000000002 0.20500000000000002 Q 0.196 0.20500000000000002 0.196 0.194 Q 0.196 0.192 0.218 0.106 L 0.24 0.016 Q 0.24 0.014 0.241 0.012 Q 0.126 0.005 0.075 -0.075 Q 0.049 -0.117 0.049 -0.169 Q 0.049 -0.267 0.136 -0.34900000000000003 Q 0.225 -0.434 0.343 -0.442 Q 0.34900000000000003 -0.443 0.355 -0.443 L 0.41300000000000003 -0.674 Q 0.422 -0.6930000000000001 0.428 -0.6940000000000001 Q 0.44 -0.6940000000000001 0.44 -0.684 L 0.437 -0.671 L 0.437 -0.67 M 0.246 -0.01 L 0.34900000000000003 -0.421 Q 0.233 -0.41100000000000003 0.164 -0.309 Q 0.114 -0.234 0.114 -0.148 Q 0.114 -0.05 0.198 -0.019 Q 0.221 -0.011 0.246 -0.01 M 0.375 -0.421 L 0.272 -0.01 Q 0.388 -0.019 0.458 -0.123 Q 0.508 -0.198 0.508 -0.28300000000000003 Q 0.508 -0.377 0.43 -0.40900000000000003 Q 0.405 -0.419 0.375 -0.421 Z"/></g><rect fill="rgb(0,0,0)" stroke="none" x="20.01029035852" y="4.626824289473684" width="1.113" height="0.039999"/><g transform="translate(20.016790358519998,5.582774789473684)"><path fill="rgb(0,0,0)" stroke="none" paint-order="stroke fill markers" d=" M 0.434 -0.6940000000000001 L 0.434 0 L 0.356 0 L 0.356 -0.052000000000000005 Q 0.291 0.011 0.20800000000000002 0.011 Q 0.136 0.011 0.08600000000000001 -0.0565 Q 0.036000000000000004 -0.124 0.036000000000000004 -0.222 Q 0.036000000000000004 -0.319 0.08750000000000001 -0.387 Q 0.139 -0.455 0.213 -0.455 Q 0.293 -0.455 0.359 -0.4 L 0.359 -0.6940000000000001 L 0.434 -0.6940000000000001 M 0.356 -0.139 L 0.356 -0.339 Q 0.318 -0.394 0.259 -0.394 Q 0.20400000000000001 -0.394 0.159 -0.352 Q 0.114 -0.31 0.114 -0.221 Q 0.114 -0.135 0.1545 -0.0925 Q 0.195 -0.05 0.249 -0.05 Q 0.291 -0.05 0.323 -0.078 Q 0.356 -0.108 0.356 -0.139 Z"/></g><g transform="translate(20.533790358519997,5.582774789473684)"><path fill="rgb(0,0,0)" stroke="none" paint-order="stroke fill markers" d=" M 0.357 -0.292 L 0.116 -0.008 Q 0.099 0.013000000000000001 0.083 0.013000000000000001 Q 0.06 0.013000000000000001 0.054 -0.008 Q 0.053 -0.012 0.053 -0.016 Q 0.053 -0.029 0.07100000000000001 -0.047 L 0.34700000000000003 -0.321 L 0.25 -0.593 Q 0.228 -0.653 0.213 -0.664 L 0.212 -0.664 L 0.21 -0.666 L 0.209 -0.666 Q 0.201 -0.67 0.185 -0.673 Q 0.178 -0.673 0.176 -0.683 Q 0.176 -0.6940000000000001 0.194 -0.6940000000000001 Q 0.29 -0.6940000000000001 0.316 -0.623 L 0.52 -0.054 Q 0.532 -0.02 0.543 -0.008 Q 0.548 -0.001 0.548 0.001 Q 0.548 0.01 0.537 0.011 L 0.515 0.011 Q 0.483 0.011 0.47200000000000003 0.001 Q 0.467 -0.004 0.462 -0.011 Q 0.454 -0.023 0.392 -0.197 Q 0.371 -0.256 0.357 -0.292 Z"/></g></g><g transform="scale(19,19)"><g transform="translate(12.334316674309473,9.32557894736842)"><path fill="rgb(0,0,0)" stroke="none" paint-order="stroke fill markers" d=" M 0.434 -0.6940000000000001 L 0.434 0 L 0.356 0 L 0.356 -0.052000000000000005 Q 0.291 0.011 0.20800000000000002 0.011 Q 0.136 0.011 0.08600000000000001 -0.0565 Q 0.036000000000000004 -0.124 0.036000000000000004 -0.222 Q 0.036000000000000004 -0.319 0.08750000000000001 -0.387 Q 0.139 -0.455 0.213 -0.455 Q 0.293 -0.455 0.359 -0.4 L 0.359 -0.6940000000000001 L 0.434 -0.6940000000000001 M 0.356 -0.139 L 0.356 -0.339 Q 0.318 -0.394 0.259 -0.394 Q 0.20400000000000001 -0.394 0.159 -0.352 Q 0.114 -0.31 0.114 -0.221 Q 0.114 -0.135 0.1545 -0.0925 Q 0.195 -0.05 0.249 -0.05 Q 0.291 -0.05 0.323 -0.078 Q 0.356 -0.108 0.356 -0.139 Z"/></g><g transform="translate(12.851316674309473,9.32557894736842)"><path fill="rgb(0,0,0)" stroke="none" paint-order="stroke fill markers" d=" M 0.157 -0.214 L 0.157 0 L 0.082 0 L 0.082 -0.45 L 0.152 -0.45 L 0.152 -0.359 Q 0.216 -0.454 0.327 -0.455 L 0.327 -0.388 Q 0.253 -0.386 0.20500000000000002 -0.3375 Q 0.157 -0.289 0.157 -0.214 Z"/></g><rect fill="rgb(0,0,0)" stroke="none" x="12.220816674309473" y="9.73208744736842" width="1.1" height="0.039999"/><g transform="translate(12.220816674309473,10.688037947368418)"><path fill="rgb(0,0,0)" stroke="none" paint-order="stroke fill markers" d=" M 0.434 -0.6940000000000001 L 0.434 0 L 0.356 0 L 0.356 -0.052000000000000005 Q 0.291 0.011 0.20800000000000002 0.011 Q 0.136 0.011 0.08600000000000001 -0.0565 Q 0.036000000000000004 -0.124 0.036000000000000004 -0.222 Q 0.036000000000000004 -0.319 0.08750000000000001 -0.387 Q 0.139 -0.455 0.213 -0.455 Q 0.293 -0.455 0.359 -0.4 L 0.359 -0.6940000000000001 L 0.434 -0.6940000000000001 M 0.356 -0.139 L 0.356 -0.339 Q 0.318 -0.394 0.259 -0.394 Q 0.20400000000000001 -0.394 0.159 -0.352 Q 0.114 -0.31 0.114 -0.221 Q 0.114 -0.135 0.1545 -0.0925 Q 0.195 -0.05 0.249 -0.05 Q 0.291 -0.05 0.323 -0.078 Q 0.356 -0.108 0.356 -0.139 Z"/></g><g transform="translate(12.737816674309473,10.688037947368418)"><path fill="rgb(0,0,0)" stroke="none" paint-order="stroke fill markers" d=" M 0.357 -0.292 L 0.116 -0.008 Q 0.099 0.013000000000000001 0.083 0.013000000000000001 Q 0.06 0.013000000000000001 0.054 -0.008 Q 0.053 -0.012 0.053 -0.016 Q 0.053 -0.029 0.07100000000000001 -0.047 L 0.34700000000000003 -0.321 L 0.25 -0.593 Q 0.228 -0.653 0.213 -0.664 L 0.212 -0.664 L 0.21 -0.666 L 0.209 -0.666 Q 0.201 -0.67 0.185 -0.673 Q 0.178 -0.673 0.176 -0.683 Q 0.176 -0.6940000000000001 0.194 -0.6940000000000001 Q 0.29 -0.6940000000000001 0.316 -0.623 L 0.52 -0.054 Q 0.532 -0.02 0.543 -0.008 Q 0.548 -0.001 0.548 0.001 Q 0.548 0.01 0.537 0.011 L 0.515 0.011 Q 0.483 0.011 0.47200000000000003 0.001 Q 0.467 -0.004 0.462 -0.011 Q 0.454 -0.023 0.392 -0.197 Q 0.371 -0.256 0.357 -0.292 Z"/></g></g><g transform="scale(19,19)"><g transform="translate(18.105263157894736,16.812421052631578)"><path fill="rgb(0,0,0)" stroke="none" paint-order="stroke fill markers" d=" M 0.446 -0.444 L 0.228 0.091 Q 0.2 0.16 0.17350000000000002 0.1825 Q 0.147 0.20500000000000002 0.115 0.20500000000000002 Q 0.078 0.20500000000000002 0.043000000000000003 0.197 L 0.037 0.132 Q 0.077 0.148 0.115 0.148 Q 0.125 0.148 0.131 0.146 Q 0.137 0.14400000000000002 0.1485 0.1305 Q 0.16 0.117 0.17200000000000001 0.09 Q 0.181 0.07 0.20800000000000002 0 L 0.014 -0.444 L 0.093 -0.444 L 0.147 -0.319 Q 0.155 -0.301 0.1715 -0.261 Q 0.188 -0.221 0.211 -0.154 Q 0.234 -0.08700000000000001 0.23700000000000002 -0.057 L 0.23800000000000002 -0.057 Q 0.241 -0.126 0.371 -0.444 L 0.446 -0.444 Z"/></g></g><g transform="scale(19,19)"><g transform="translate(37.21052631578947,21.233473684210526)"><path fill="rgb(0,0,0)" stroke="none" paint-order="stroke fill markers" d=" M 0.26 -0.229 L 0.46 0 L 0.377 0 L 0.227 -0.188 L 0.082 0 L 0 0 L 0.194 -0.229 L 0.006 -0.444 L 0.089 -0.444 L 0.227 -0.279 L 0.361 -0.444 L 0.443 -0.444 L 0.26 -0.229 Z"/></g></g><g transform="scale(19,19)"><g transform="translate(10.842105263157896,21.25594736842105)"><path fill="rgb(255,127,0)" stroke="none" paint-order="stroke fill markers" d=" M 0.355 -0.677 L 0.41600000000000004 -0.677 Q 0.41500000000000004 -0.622 0.3855 -0.59 Q 0.356 -0.558 0.318 -0.558 Q 0.291 -0.558 0.254 -0.583 Q 0.20700000000000002 -0.616 0.183 -0.616 Q 0.146 -0.616 0.14400000000000002 -0.558 L 0.083 -0.558 Q 0.084 -0.613 0.1135 -0.645 Q 0.14300000000000002 -0.677 0.181 -0.677 Q 0.20800000000000002 -0.677 0.245 -0.652 Q 0.292 -0.619 0.316 -0.619 Q 0.353 -0.619 0.355 -0.677 Z"/></g><g transform="translate(10.861605263157896,21.25594736842105)"><path fill="rgb(255,127,0)" stroke="none" paint-order="stroke fill markers" d=" M 0.26 -0.229 L 0.46 0 L 0.377 0 L 0.227 -0.188 L 0.082 0 L 0 0 L 0.194 -0.229 L 0.006 -0.444 L 0.089 -0.444 L 0.227 -0.279 L 0.361 -0.444 L 0.443 -0.444 L 0.26 -0.229 Z"/></g></g></g></g></svg>