<svg version="1.1" xmlns="http://www.w3.org/2000/svg" xmlns:xlink="http://www.w3.org/1999/xlink" width="933" height="863"><defs><clipPath id="qkiGbGPThnBE"><path fill="none" stroke="none" d=" M 0 0 L 933 0 L 933 863 L 0 863 L 0 0 Z"/></clipPath></defs><g transform="scale(1,1)" clip-path="url(#qkiGbGPThnBE)"><g><rect fill="rgb(255,255,255,0)" stroke="none" x="0" y="0" width="933" height="863" fill-opacity="1"/><path fill="none" stroke="rgb(192,192,192)" paint-order="fill stroke markers" d=" M 122.5 0.5 L 122.5 863.5 M 209.5 0.5 L 209.5 863.5 M 295.5 0.5 L 295.5 863.5 M 381.5 0.5 L 381.5 863.5 M 467.5 0.5 L 467.5 863.5 M 553.5 0.5 L 553.5 863.5 M 640.5 0.5 L 640.5 863.5 M 726.5 0.5 L 726.5 863.5 M 812.5 0.5 L 812.5 863.5 M 898.5 0.5 L 898.5 863.5" stroke-opacity="1" stroke-linecap="round" stroke-linejoin="round" stroke-miterlimit="10"/><path fill="none" stroke="rgb(192,192,192)" paint-order="fill stroke markers" d="" stroke-opacity="0.23529411764705882" stroke-linecap="round" stroke-linejoin="round" stroke-miterlimit="10"/><path fill="none" stroke="rgb(192,192,192)" paint-order="fill stroke markers" d=" M 0.5 130.5 L 933.5 130.5 M 0.5 216.5 L 933.5 216.5 M 0.5 303.5 L 933.5 303.5 M 0.5 389.5 L 933.5 389.5 M 0.5 475.5 L 933.5 475.5 M 0.5 561.5 L 933.5 561.5 M 0.5 647.5 L 933.5 647.5 M 0.5 734.5 L 933.5 734.5 M 0.5 820.5 L 933.5 820.5" stroke-opacity="1" stroke-linecap="round" stroke-linejoin="round" stroke-miterlimit="10"/><path fill="none" stroke="rgb(192,192,192)" paint-order="fill stroke markers" d="" stroke-opacity="0.23529411764705882" stroke-linecap="round" stroke-linejoin="round" stroke-miterlimit="10"/><path fill="none" stroke="rgb(37,37,37)" paint-order="fill stroke markers" d=" M 36.5 2.5 L 36.5 863.5" stroke-opacity="1" stroke-miterlimit="10"/><path fill="none" stroke="rgb(37,37,37)" paint-order="fill stroke markers" d=" M 36.5 1.5 L 32.5 5.5" stroke-opacity="1" stroke-miterlimit="10"/><path fill="none" stroke="rgb(37,37,37)" paint-order="fill stroke markers" d=" M 36.5 1.5 L 40.5 5.5" stroke-opacity="1" stroke-miterlimit="10"/><path fill="none" stroke="rgb(37,37,37)" paint-order="fill stroke markers" d=" M 0.5 44.5 L 931.5 44.5" stroke-opacity="1" stroke-miterlimit="10"/><path fill="none" stroke="rgb(37,37,37)" paint-order="fill stroke markers" d=" M 932.5 44.5 L 928.5 40.5" stroke-opacity="1" stroke-miterlimit="10"/><path fill="none" stroke="rgb(37,37,37)" paint-order="fill stroke markers" d=" M 932.5 44.5 L 928.5 48.5" stroke-opacity="1" stroke-miterlimit="10"/><text fill="rgb(37,37,37)" stroke="none" font-family="geogebra-sans-serif, sans-serif" font-size="12px" font-style="normal" font-weight="normal" text-decoration="normal" x="114" y="60" text-anchor="start" dominant-baseline="alphabetic" fill-opacity="1">0.5</text><text fill="none" stroke="rgb(255,255,255)" font-family="geogebra-sans-serif, sans-serif" font-size="12px" font-style="normal" font-weight="normal" text-decoration="normal" x="114" y="60" text-anchor="start" dominant-baseline="alphabetic" stroke-opacity="1" stroke-linejoin="bevel" stroke-miterlimit="10" stroke-width="3">0.5</text><text fill="rgb(37,37,37)" stroke="none" font-family="geogebra-sans-serif, sans-serif" font-size="12px" font-style="normal" font-weight="normal" text-decoration="normal" x="114" y="60" text-anchor="start" dominant-baseline="alphabetic" fill-opacity="1">0.5</text><text fill="rgb(37,37,37)" stroke="none" font-family="geogebra-sans-serif, sans-serif" font-size="12px" font-style="normal" font-weight="normal" text-decoration="normal" x="207" y="60" text-anchor="start" dominant-baseline="alphabetic" fill-opacity="1">1</text><text fill="none" stroke="rgb(255,255,255)" font-family="geogebra-sans-serif, sans-serif" font-size="12px" font-style="normal" font-weight="normal" text-decoration="normal" x="207" y="60" text-anchor="start" dominant-baseline="alphabetic" stroke-opacity="1" stroke-linejoin="bevel" stroke-miterlimit="10" stroke-width="3">1</text><text fill="rgb(37,37,37)" stroke="none" font-family="geogebra-sans-serif, sans-serif" font-size="12px" font-style="normal" font-weight="normal" text-decoration="normal" x="207" y="60" text-anchor="start" dominant-baseline="alphabetic" fill-opacity="1">1</text><text fill="rgb(37,37,37)" stroke="none" font-family="geogebra-sans-serif, sans-serif" font-size="12px" font-style="normal" font-weight="normal" text-decoration="normal" x="287" y="60" text-anchor="start" dominant-baseline="alphabetic" fill-opacity="1">1.5</text><text fill="none" stroke="rgb(255,255,255)" font-family="geogebra-sans-serif, sans-serif" font-size="12px" font-style="normal" font-weight="normal" text-decoration="normal" x="287" y="60" text-anchor="start" dominant-baseline="alphabetic" stroke-opacity="1" stroke-linejoin="bevel" stroke-miterlimit="10" stroke-width="3">1.5</text><text fill="rgb(37,37,37)" stroke="none" font-family="geogebra-sans-serif, sans-serif" font-size="12px" font-style="normal" font-weight="normal" text-decoration="normal" x="287" y="60" text-anchor="start" dominant-baseline="alphabetic" fill-opacity="1">1.5</text><text fill="rgb(37,37,37)" stroke="none" font-family="geogebra-sans-serif, sans-serif" font-size="12px" font-style="normal" font-weight="normal" text-decoration="normal" x="379" y="60" text-anchor="start" dominant-baseline="alphabetic" fill-opacity="1">2</text><text fill="none" stroke="rgb(255,255,255)" font-family="geogebra-sans-serif, sans-serif" font-size="12px" font-style="normal" font-weight="normal" text-decoration="normal" x="379" y="60" text-anchor="start" dominant-baseline="alphabetic" stroke-opacity="1" stroke-linejoin="bevel" stroke-miterlimit="10" stroke-width="3">2</text><text fill="rgb(37,37,37)" stroke="none" font-family="geogebra-sans-serif, sans-serif" font-size="12px" font-style="normal" font-weight="normal" text-decoration="normal" x="379" y="60" text-anchor="start" dominant-baseline="alphabetic" fill-opacity="1">2</text><text fill="rgb(37,37,37)" stroke="none" font-family="geogebra-sans-serif, sans-serif" font-size="12px" font-style="normal" font-weight="normal" text-decoration="normal" x="459" y="60" text-anchor="start" dominant-baseline="alphabetic" fill-opacity="1">2.5</text><text fill="none" stroke="rgb(255,255,255)" font-family="geogebra-sans-serif, sans-serif" font-size="12px" font-style="normal" font-weight="normal" text-decoration="normal" x="459" y="60" text-anchor="start" dominant-baseline="alphabetic" stroke-opacity="1" stroke-linejoin="bevel" stroke-miterlimit="10" stroke-width="3">2.5</text><text fill="rgb(37,37,37)" stroke="none" font-family="geogebra-sans-serif, sans-serif" font-size="12px" font-style="normal" font-weight="normal" text-decoration="normal" x="459" y="60" text-anchor="start" dominant-baseline="alphabetic" fill-opacity="1">2.5</text><text fill="rgb(37,37,37)" stroke="none" font-family="geogebra-sans-serif, sans-serif" font-size="12px" font-style="normal" font-weight="normal" text-decoration="normal" x="551" y="60" text-anchor="start" dominant-baseline="alphabetic" fill-opacity="1">3</text><text fill="none" stroke="rgb(255,255,255)" font-family="geogebra-sans-serif, sans-serif" font-size="12px" font-style="normal" font-weight="normal" text-decoration="normal" x="551" y="60" text-anchor="start" dominant-baseline="alphabetic" stroke-opacity="1" stroke-linejoin="bevel" stroke-miterlimit="10" stroke-width="3">3</text><text fill="rgb(37,37,37)" stroke="none" font-family="geogebra-sans-serif, sans-serif" font-size="12px" font-style="normal" font-weight="normal" text-decoration="normal" x="551" y="60" text-anchor="start" dominant-baseline="alphabetic" fill-opacity="1">3</text><text fill="rgb(37,37,37)" stroke="none" font-family="geogebra-sans-serif, sans-serif" font-size="12px" font-style="normal" font-weight="normal" text-decoration="normal" x="632" y="60" text-anchor="start" dominant-baseline="alphabetic" fill-opacity="1">3.5</text><text fill="none" stroke="rgb(255,255,255)" font-family="geogebra-sans-serif, sans-serif" font-size="12px" font-style="normal" font-weight="normal" text-decoration="normal" x="632" y="60" text-anchor="start" dominant-baseline="alphabetic" stroke-opacity="1" stroke-linejoin="bevel" stroke-miterlimit="10" stroke-width="3">3.5</text><text fill="rgb(37,37,37)" stroke="none" font-family="geogebra-sans-serif, sans-serif" font-size="12px" font-style="normal" font-weight="normal" text-decoration="normal" x="632" y="60" text-anchor="start" dominant-baseline="alphabetic" fill-opacity="1">3.5</text><text fill="rgb(37,37,37)" stroke="none" font-family="geogebra-sans-serif, sans-serif" font-size="12px" font-style="normal" font-weight="normal" text-decoration="normal" x="724" y="60" text-anchor="start" dominant-baseline="alphabetic" fill-opacity="1">4</text><text fill="none" stroke="rgb(255,255,255)" font-family="geogebra-sans-serif, sans-serif" font-size="12px" font-style="normal" font-weight="normal" text-decoration="normal" x="724" y="60" text-anchor="start" dominant-baseline="alphabetic" stroke-opacity="1" stroke-linejoin="bevel" stroke-miterlimit="10" stroke-width="3">4</text><text fill="rgb(37,37,37)" stroke="none" font-family="geogebra-sans-serif, sans-serif" font-size="12px" font-style="normal" font-weight="normal" text-decoration="normal" x="724" y="60" text-anchor="start" dominant-baseline="alphabetic" fill-opacity="1">4</text><text fill="rgb(37,37,37)" stroke="none" font-family="geogebra-sans-serif, sans-serif" font-size="12px" font-style="normal" font-weight="normal" text-decoration="normal" x="804" y="60" text-anchor="start" dominant-baseline="alphabetic" fill-opacity="1">4.5</text><text fill="none" stroke="rgb(255,255,255)" font-family="geogebra-sans-serif, sans-serif" font-size="12px" font-style="normal" font-weight="normal" text-decoration="normal" x="804" y="60" text-anchor="start" dominant-baseline="alphabetic" stroke-opacity="1" stroke-linejoin="bevel" stroke-miterlimit="10" stroke-width="3">4.5</text><text fill="rgb(37,37,37)" stroke="none" font-family="geogebra-sans-serif, sans-serif" font-size="12px" font-style="normal" font-weight="normal" text-decoration="normal" x="804" y="60" text-anchor="start" dominant-baseline="alphabetic" fill-opacity="1">4.5</text><text fill="rgb(37,37,37)" stroke="none" font-family="geogebra-sans-serif, sans-serif" font-size="12px" font-style="normal" font-weight="normal" text-decoration="normal" x="896" y="60" text-anchor="start" dominant-baseline="alphabetic" fill-opacity="1">5</text><text fill="none" stroke="rgb(255,255,255)" font-family="geogebra-sans-serif, sans-serif" font-size="12px" font-style="normal" font-weight="normal" text-decoration="normal" x="896" y="60" text-anchor="start" dominant-baseline="alphabetic" stroke-opacity="1" stroke-linejoin="bevel" stroke-miterlimit="10" stroke-width="3">5</text><text fill="rgb(37,37,37)" stroke="none" font-family="geogebra-sans-serif, sans-serif" font-size="12px" font-style="normal" font-weight="normal" text-decoration="normal" x="896" y="60" text-anchor="start" dominant-baseline="alphabetic" fill-opacity="1">5</text><text fill="rgb(37,37,37)" stroke="none" font-family="geogebra-sans-serif, sans-serif" font-size="12px" font-style="normal" font-weight="normal" text-decoration="normal" x="5" y="825" text-anchor="start" dominant-baseline="alphabetic" fill-opacity="1">–4.5</text><text fill="none" stroke="rgb(255,255,255)" font-family="geogebra-sans-serif, sans-serif" font-size="12px" font-style="normal" font-weight="normal" text-decoration="normal" x="5" y="825" text-anchor="start" dominant-baseline="alphabetic" stroke-opacity="1" stroke-linejoin="bevel" stroke-miterlimit="10" stroke-width="3">–4.5</text><text fill="rgb(37,37,37)" stroke="none" font-family="geogebra-sans-serif, sans-serif" font-size="12px" font-style="normal" font-weight="normal" text-decoration="normal" x="5" y="825" text-anchor="start" dominant-baseline="alphabetic" fill-opacity="1">–4.5</text><text fill="rgb(37,37,37)" stroke="none" font-family="geogebra-sans-serif, sans-serif" font-size="12px" font-style="normal" font-weight="normal" text-decoration="normal" x="15" y="739" text-anchor="start" dominant-baseline="alphabetic" fill-opacity="1">–4</text><text fill="none" stroke="rgb(255,255,255)" font-family="geogebra-sans-serif, sans-serif" font-size="12px" font-style="normal" font-weight="normal" text-decoration="normal" x="15" y="739" text-anchor="start" dominant-baseline="alphabetic" stroke-opacity="1" stroke-linejoin="bevel" stroke-miterlimit="10" stroke-width="3">–4</text><text fill="rgb(37,37,37)" stroke="none" font-family="geogebra-sans-serif, sans-serif" font-size="12px" font-style="normal" font-weight="normal" text-decoration="normal" x="15" y="739" text-anchor="start" dominant-baseline="alphabetic" fill-opacity="1">–4</text><text fill="rgb(37,37,37)" stroke="none" font-family="geogebra-sans-serif, sans-serif" font-size="12px" font-style="normal" font-weight="normal" text-decoration="normal" x="5" y="652" text-anchor="start" dominant-baseline="alphabetic" fill-opacity="1">–3.5</text><text fill="none" stroke="rgb(255,255,255)" font-family="geogebra-sans-serif, sans-serif" font-size="12px" font-style="normal" font-weight="normal" text-decoration="normal" x="5" y="652" text-anchor="start" dominant-baseline="alphabetic" stroke-opacity="1" stroke-linejoin="bevel" stroke-miterlimit="10" stroke-width="3">–3.5</text><text fill="rgb(37,37,37)" stroke="none" font-family="geogebra-sans-serif, sans-serif" font-size="12px" font-style="normal" font-weight="normal" text-decoration="normal" x="5" y="652" text-anchor="start" dominant-baseline="alphabetic" fill-opacity="1">–3.5</text><text fill="rgb(37,37,37)" stroke="none" font-family="geogebra-sans-serif, sans-serif" font-size="12px" font-style="normal" font-weight="normal" text-decoration="normal" x="15" y="566" text-anchor="start" dominant-baseline="alphabetic" fill-opacity="1">–3</text><text fill="none" stroke="rgb(255,255,255)" font-family="geogebra-sans-serif, sans-serif" font-size="12px" font-style="normal" font-weight="normal" text-decoration="normal" x="15" y="566" text-anchor="start" dominant-baseline="alphabetic" stroke-opacity="1" stroke-linejoin="bevel" stroke-miterlimit="10" stroke-width="3">–3</text><text fill="rgb(37,37,37)" stroke="none" font-family="geogebra-sans-serif, sans-serif" font-size="12px" font-style="normal" font-weight="normal" text-decoration="normal" x="15" y="566" text-anchor="start" dominant-baseline="alphabetic" fill-opacity="1">–3</text><text fill="rgb(37,37,37)" stroke="none" font-family="geogebra-sans-serif, sans-serif" font-size="12px" font-style="normal" font-weight="normal" text-decoration="normal" x="5" y="480" text-anchor="start" dominant-baseline="alphabetic" fill-opacity="1">–2.5</text><text fill="none" stroke="rgb(255,255,255)" font-family="geogebra-sans-serif, sans-serif" font-size="12px" font-style="normal" font-weight="normal" text-decoration="normal" x="5" y="480" text-anchor="start" dominant-baseline="alphabetic" stroke-opacity="1" stroke-linejoin="bevel" stroke-miterlimit="10" stroke-width="3">–2.5</text><text fill="rgb(37,37,37)" stroke="none" font-family="geogebra-sans-serif, sans-serif" font-size="12px" font-style="normal" font-weight="normal" text-decoration="normal" x="5" y="480" text-anchor="start" dominant-baseline="alphabetic" fill-opacity="1">–2.5</text><text fill="rgb(37,37,37)" stroke="none" font-family="geogebra-sans-serif, sans-serif" font-size="12px" font-style="normal" font-weight="normal" text-decoration="normal" x="15" y="394" text-anchor="start" dominant-baseline="alphabetic" fill-opacity="1">–2</text><text fill="none" stroke="rgb(255,255,255)" font-family="geogebra-sans-serif, sans-serif" font-size="12px" font-style="normal" font-weight="normal" text-decoration="normal" x="15" y="394" text-anchor="start" dominant-baseline="alphabetic" stroke-opacity="1" stroke-linejoin="bevel" stroke-miterlimit="10" stroke-width="3">–2</text><text fill="rgb(37,37,37)" stroke="none" font-family="geogebra-sans-serif, sans-serif" font-size="12px" font-style="normal" font-weight="normal" text-decoration="normal" x="15" y="394" text-anchor="start" dominant-baseline="alphabetic" fill-opacity="1">–2</text><text fill="rgb(37,37,37)" stroke="none" font-family="geogebra-sans-serif, sans-serif" font-size="12px" font-style="normal" font-weight="normal" text-decoration="normal" x="5" y="308" text-anchor="start" dominant-baseline="alphabetic" fill-opacity="1">–1.5</text><text fill="none" stroke="rgb(255,255,255)" font-family="geogebra-sans-serif, sans-serif" font-size="12px" font-style="normal" font-weight="normal" text-decoration="normal" x="5" y="308" text-anchor="start" dominant-baseline="alphabetic" stroke-opacity="1" stroke-linejoin="bevel" stroke-miterlimit="10" stroke-width="3">–1.5</text><text fill="rgb(37,37,37)" stroke="none" font-family="geogebra-sans-serif, sans-serif" font-size="12px" font-style="normal" font-weight="normal" text-decoration="normal" x="5" y="308" text-anchor="start" dominant-baseline="alphabetic" fill-opacity="1">–1.5</text><text fill="rgb(37,37,37)" stroke="none" font-family="geogebra-sans-serif, sans-serif" font-size="12px" font-style="normal" font-weight="normal" text-decoration="normal" x="15" y="221" text-anchor="start" dominant-baseline="alphabetic" fill-opacity="1">–1</text><text fill="none" stroke="rgb(255,255,255)" font-family="geogebra-sans-serif, sans-serif" font-size="12px" font-style="normal" font-weight="normal" text-decoration="normal" x="15" y="221" text-anchor="start" dominant-baseline="alphabetic" stroke-opacity="1" stroke-linejoin="bevel" stroke-miterlimit="10" stroke-width="3">–1</text><text fill="rgb(37,37,37)" stroke="none" font-family="geogebra-sans-serif, sans-serif" font-size="12px" font-style="normal" font-weight="normal" text-decoration="normal" x="15" y="221" text-anchor="start" dominant-baseline="alphabetic" fill-opacity="1">–1</text><text fill="rgb(37,37,37)" stroke="none" font-family="geogebra-sans-serif, sans-serif" font-size="12px" font-style="normal" font-weight="normal" text-decoration="normal" x="5" y="135" text-anchor="start" dominant-baseline="alphabetic" fill-opacity="1">–0.5</text><text fill="none" stroke="rgb(255,255,255)" font-family="geogebra-sans-serif, sans-serif" font-size="12px" font-style="normal" font-weight="normal" text-decoration="normal" x="5" y="135" text-anchor="start" dominant-baseline="alphabetic" stroke-opacity="1" stroke-linejoin="bevel" stroke-miterlimit="10" stroke-width="3">–0.5</text><text fill="rgb(37,37,37)" stroke="none" font-family="geogebra-sans-serif, sans-serif" font-size="12px" font-style="normal" font-weight="normal" text-decoration="normal" x="5" y="135" text-anchor="start" dominant-baseline="alphabetic" fill-opacity="1">–0.5</text><text fill="rgb(37,37,37)" stroke="none" font-family="geogebra-sans-serif, sans-serif" font-size="12px" font-style="normal" font-weight="normal" text-decoration="normal" x="22" y="60" text-anchor="start" dominant-baseline="alphabetic" fill-opacity="1">0</text><text fill="none" stroke="rgb(255,255,255)" font-family="geogebra-sans-serif, sans-serif" font-size="12px" font-style="normal" font-weight="normal" text-decoration="normal" x="22" y="60" text-anchor="start" dominant-baseline="alphabetic" stroke-opacity="1" stroke-linejoin="bevel" stroke-miterlimit="10" stroke-width="3">0</text><text fill="rgb(37,37,37)" stroke="none" font-family="geogebra-sans-serif, sans-serif" font-size="12px" font-style="normal" font-weight="normal" text-decoration="normal" x="22" y="60" text-anchor="start" dominant-baseline="alphabetic" fill-opacity="1">0</text><path fill="none" stroke="rgb(46,125,50)" paint-order="fill stroke markers" d=" M 72.662841796875 869.8069571276512 L 72.890625 864.6193691478964 L 73.118408203125 859.4965808164746 L 73.34619140625 854.437385522974 L 73.8017578125 844.5050955571405 L 74.25732421875 834.8134256185458 L 74.712890625 825.3537364500382 L 75.16845703125 816.1177974834834 L 75.6240234375 807.0977629554097 L 76.07958984375 798.2861496783055 L 76.53515625 789.6758163351969 L 76.99072265625 781.2599441771015 L 77.4462890625 773.0320190136975 L 77.90185546875 764.9858143972484 L 78.357421875 757.1153759085474 L 78.81298828125 749.4150064615396 L 79.2685546875 741.8792525503984 L 79.72412109375 734.502891369288 L 80.1796875 727.2809187408849 L 80.63525390625001 720.2085377950224 L 81.0908203125 713.2811483436357 L 81.54638671875 706.4943369025509 L 82.001953125 699.8438673146408 L 82.45751953125001 693.3256719324779 L 82.9130859375 686.9358433219272 L 83.36865234375 680.670626451114 L 83.82421875 674.5264113319653 L 84.27978515625001 668.4997260840181 L 84.7353515625 662.5872303924962 L 85.19091796875 656.7857093347501 L 85.646484375 651.0920675510941 L 86.10205078125001 645.5033237378225 L 86.5576171875 640.0166054418279 L 87.01318359375 634.6291441377195 L 87.46875 629.338270569721 L 87.92431640625001 624.1414103418728 L 88.37988281250001 619.0360797412408 L 89.291015625 609.0905024423542 L 90.2021484375 599.4833372649184 L 91.11328125 590.1976007363455 L 92.02441406250001 581.2174271240134 L 92.935546875 572.5279779708817 L 93.8466796875 564.1153602772442 L 94.7578125 555.9665523796556 L 95.66894531250001 548.0693366952587 L 96.580078125 540.4122386009105 L 97.4912109375 532.9844708040218 L 98.40234375 525.7758826379378 L 99.31347656250001 518.7769137806537 L 100.224609375 511.97855195312366 L 101.1357421875 505.3722942035779 L 102.046875 498.95011142813036 L 102.95800781250003 492.7044158163997 L 103.869140625 486.62803094462043 L 104.7802734375 480.7141642684108 L 105.69140625 474.95638179352994 L 106.60253906250003 469.3485847260514 L 107.513671875 463.8849879238058 L 108.4248046875 458.5600999890371 L 109.3359375 453.36870485826563 L 110.24707031250003 448.30584475961587 L 111.158203125 443.36680442055456 L 112.98046875 433.8424475912681 L 114.802734375 424.76223110948376 L 116.625 416.0957960577922 L 118.447265625 407.81548876509964 L 120.26953125 399.8960660465329 L 122.091796875 392.314438161411 L 123.9140625 385.0494439759768 L 125.736328125 378.0816537197583 L 127.55859375 371.3931954638522 L 129.380859375 364.9676020580746 L 131.203125 358.78967576700757 L 133.025390625 352.8453682624413 L 134.84765625 347.12167397746816 L 136.669921875 341.60653511821215 L 138.4921875 336.28875687309596 L 140.314453125 331.15793156487 L 142.13671875 326.2043706640355 L 145.78125 316.7935234646854 L 149.42578125 307.9909171243336 L 153.0703125 299.7394299483915 L 156.71484375 291.9888757534432 L 160.359375 284.6949822707916 L 164.00390625 277.81854495909647 L 167.6484375 271.324722066094 L 171.29296875 265.1824441764379 L 174.9375 259.3639171252504 L 178.58203125 253.84420149554555 L 182.2265625 248.60085527871584 L 185.87109375 243.61362889952088 L 189.515625 238.86420386660834 L 193.16015625 234.33596793755441 L 196.8046875 230.01382098195478 L 200.44921875 225.88400676141538 L 204.09375 221.93396667780033 L 207.73828125 218.152212213999 L 211.3828125 214.52821333806313 L 215.02734375 211.05230058764502 L 218.671875 207.71557891736623 L 222.31640625 204.50985169283626 L 225.9609375 201.42755346396686 L 229.60546875 198.46169035683567 L 233.25 195.60578709549355 L 236.89453125 192.85383980905127 L 240.5390625 190.2002739001683 L 244.18359375 187.63990635276184 L 247.828125 185.16791194265468 L 251.47265625 182.77979288766528 L 255.1171875 180.47135153549982 L 258.76171875 178.23866574052892 L 262.40625 176.0780666255926 L 266.05078125 173.9861184635971 L 269.6953125 171.95960044684944 L 273.33984375 169.9954901406615 L 276.984375 168.0909484424387 L 280.62890625 166.24330588883262 L 284.2734375 164.45005017207387 L 287.91796875 162.70881474271513 L 291.5625 161.01736839005767 L 295.20703125 159.37360570379406 L 298.8515625 157.77553833112788 L 302.49609375 156.22128695303277 L 306.140625 154.70907391157405 L 309.78515625 153.2372164274814 L 313.4296875 151.80412035356767 L 317.07421875 150.40827441524578 L 320.71875 149.0482448943983 L 324.36328125 147.72267071728746 L 328.0078125 146.43025891112845 L 331.65234375 145.1697803974429 L 335.296875 143.94006609342492 L 338.94140625 142.74000329532453 L 342.5859375 141.56853232033168 L 346.23046874999994 140.42464338565884 L 349.875 139.30737370550253 L 353.51953125000006 138.21580478834235 L 357.1640625 137.1490599186315 L 360.80859374999994 136.10630180836668 L 364.453125 135.0867304053169 L 368.09765625000006 134.08958084585285 L 371.7421875 133.11412154136804 L 375.38671874999994 132.15965238823023 L 379.03125 131.225503092059 L 382.67578125 130.3110315979003 L 386.32031249999994 129.4156226185717 L 389.96484374999994 128.53868625409015 L 393.60937499999994 127.67965669567246 L 397.25390625 126.83799100832519 L 400.89843749999994 126.01316798651982 L 404.54296874999994 125.2046870778849 L 408.18749999999994 124.41206737024507 L 411.83203125 123.63484663769918 L 415.47656249999994 122.8725804417619 L 419.12109374999994 122.12484128389565 L 422.76562499999994 121.39121780603784 L 426.41015625 120.67131403598137 L 430.05468749999994 119.96474867470019 L 433.69921874999994 119.27115442292444 L 437.34374999999994 118.59017734446664 L 440.98828125 117.92147626397974 L 444.63281249999994 117.26472219699423 L 448.27734374999994 116.6195978102335 L 451.92187499999994 115.9857969103476 L 455.56640625 115.36302395933484 L 459.21093749999994 114.75099361503928 L 462.85546874999994 114.14943029522419 L 466.49999999999994 113.55806776382136 L 470.14453125 112.97664873805164 L 473.78906249999994 112.40492451519859 L 477.43359374999994 111.84265461789755 L 481.07812499999994 111.28960645687764 L 484.72265625 110.7455550101628 L 488.36718749999994 110.21028251780211 L 492.01171874999994 109.68357819125976 L 495.65624999999994 109.16523793664956 L 499.30078125 108.65506409105095 L 502.94531249999994 108.15286517119019 L 506.58984374999994 107.65845563381615 L 510.23437499999994 107.1716556471402 L 513.87890625 106.69229087274911 L 517.5234375 106.22019225743502 L 521.16796875 105.7551958344205 L 524.8125 105.2971425334878 L 528.45703125 104.84587799955004 L 532.1015625 104.40125241923013 L 535.74609375 103.96312035503765 L 539.390625 103.5313405867584 L 543.03515625 103.10577595969329 L 546.6796875 102.6862932394037 L 550.3242187499999 102.27276297264035 L 553.96875 101.86505935415079 L 557.61328125 101.46306009907758 L 561.2578125 101.06664632067512 L 564.9023437499999 100.67570241308844 L 568.546875 100.29011593895137 L 572.19140625 99.90977752157391 L 575.8359375 99.53458074150228 L 579.4804687499999 99.1644220372458 L 583.125 98.7992006099762 L 586.76953125 98.438818332015 L 590.4140625 98.08317965893477 L 594.0585937499999 97.73219154510838 L 597.703125 97.38576336254991 L 601.34765625 97.04380682289832 L 604.9921875 96.70623590240268 L 608.6367187499999 96.37296676977542 L 612.28125 96.0439177167861 L 615.92578125 95.7190090914753 L 619.5703125 95.3981632338739 L 623.2148437499999 95.08130441411865 L 626.859375 94.76835877286054 L 630.50390625 94.45925426386755 L 634.1484375 94.15392059872799 L 637.7929687499999 93.85228919356526 L 641.4375 93.5542931176792 L 645.08203125 93.25986704403343 L 648.7265625 92.96894720151147 L 652.3710937499999 92.68147132886835 L 656.015625 92.39737863030828 L 659.66015625 92.11660973262121 L 663.3046875 91.83910664381538 L 666.9492187499999 91.56481271318472 L 670.59375 91.293672592754 L 674.23828125 91.02563220004612 L 677.8828125 90.76063868211902 L 681.5273437499999 90.49864038082225 L 685.171875 90.23958679922484 L 688.81640625 89.98342856916909 L 692.4609374999999 89.73011741990592 L 696.1054687499999 89.47960614777051 L 699.75 89.2318485868578 L 703.39453125 88.9867995806598 L 707.0390625 88.74441495462813 L 710.6835937499999 88.50465148962647 L 714.328125 88.2674668962398 L 717.97265625 88.03281978990827 L 721.6171874999999 87.80066966685467 L 725.2617187499999 87.5709768807765 L 728.90625 87.34370262027423 L 732.55078125 87.11880888698889 L 736.1953125 86.89625847442298 L 739.8398437499999 86.67601494742003 L 743.484375 86.45804262227895 L 747.12890625 86.24230654748055 L 750.7734374999999 86.02877248500405 L 754.4179687499999 85.81740689221283 L 758.0625 85.6081769042895 L 761.70703125 85.40105031720027 L 765.3515625 85.19599557117098 L 768.9960937499999 84.99298173465614 L 772.640625 84.79197848878457 L 776.28515625 84.59295611226469 L 779.9296874999999 84.39588546673404 L 783.5742187499999 84.20073798253759 L 787.21875 84.00748564492042 L 790.86328125 83.81610098062085 L 794.5078125 83.62655704485017 L 798.1523437499999 83.43882740864649 L 801.796875 83.25288614658982 L 805.44140625 83.06870782486669 L 809.0859374999999 82.88626748967266 L 812.7304687499999 82.70554065594149 L 816.375 82.52650329639053 L 820.01953125 82.34913183087177 L 823.6640625 82.17340311601893 L 827.3085937499999 81.99929443518079 L 830.953125 81.82678348863146 L 834.59765625 81.65584838404942 L 838.2421874999999 81.48646762725579 L 841.8867187499999 81.31862011320433 L 845.53125 81.15228511721511 L 849.17578125 80.98744228644387 L 852.8203125 80.82407163158013 L 856.4648437499999 80.66215351876662 L 860.109375 80.5016686617334 L 863.75390625 80.34259811413983 L 867.3984374999999 80.18492326211816 L 871.0429687499999 80.0286258170126 L 874.6875 79.87368780830768 L 878.33203125 79.72009157674054 L 881.9765625 79.56781976759125 L 885.6210937499999 79.41685532414601 L 889.265625 79.26718148132794 L 892.91015625 79.11878175949066 L 896.5546874999999 78.97163995836954 L 900.1992187499999 78.82574015118618 L 903.84375 78.68106667890166 L 907.48828125 78.53760414461387 L 911.1328125 78.39533740809512 L 914.7773437499999 78.25425158046573 L 918.421875 78.11433201899969 L 922.06640625 77.97556432205857 L 925.7109374999999 77.83793432415018 L 929.3554687499999 77.701428091108 L 933 77.56603191538855" stroke-opacity="0.8" stroke-linecap="round" stroke-linejoin="round" stroke-miterlimit="10" stroke-width="2.5"/><path fill="none" stroke="rgb(21,101,192)" paint-order="fill stroke markers" d=" M 57.4013671875 -10.691939632037887 L 57.5152587890625 -2.3172059682462276 L 57.629150390625 5.879429084563888 L 57.7430419921875 13.902254521120067 L 57.85693359375 21.755437206528 L 57.9708251953125 29.443025934874157 L 58.084716796875 36.968955333185804 L 58.19860839843751 44.3370496173985 L 58.3125 51.551026206647464 L 58.4263916015625 58.61449920194035 L 58.540283203125 65.53098273492816 L 58.6541748046875 72.30389419226387 L 58.76806640625001 78.93655732076566 L 58.8819580078125 85.4322052183469 L 58.995849609375 91.79398321546752 L 59.10974121093751 98.0249516516212 L 59.2236328125 104.12808855117126 L 59.3375244140625 110.10629220266307 L 59.451416015625 115.96238364553017 L 59.5653076171875 121.69910906795062 L 59.67919921875 127.31914211943914 L 59.7930908203125 132.82508614158868 L 59.906982421875 138.21947632023245 L 60.02087402343751 143.5047817621559 L 60.134765625 148.68340749933105 L 60.2486572265625 153.7576964235373 L 60.362548828125 158.72993115409054 L 60.59033203125001 168.3770779080835 L 60.818115234375 177.64197027196147 L 61.0458984375 186.5408755979418 L 61.273681640625 195.08925551457486 L 61.50146484375 203.30181210453122 L 61.729248046875 211.1925310663864 L 61.95703125 218.77472208160293 L 62.184814453125 226.0610565899416 L 62.41259765625001 233.06360316012464 L 62.640380859375 239.79386062765005 L 62.8681640625 246.26278915802428 L 63.095947265625 252.48083938124333 L 63.32373046875 258.45797973198387 L 63.551513671875 264.20372211957135 L 63.779296875 269.72714604227235 L 64.007080078125 275.0369212517586 L 64.23486328125 280.14132906559104 L 64.6904296875 289.7653447345762 L 65.14599609375 298.6584080213494 L 65.6015625 306.87468634770215 L 66.05712890625 314.46379124032865 L 66.5126953125 321.47121591034517 L 66.96826171875 327.9387253848248 L 67.423828125 333.9047049235145 L 67.87939453125 339.4044716909587 L 68.3349609375 344.4705540020265 L 69.24609375 353.4193123457378 L 70.1572265625 360.9643393040847 L 71.068359375 367.28800729004695 L 72.890625 376.87520507544207 L 74.712890625 383.19055617896475 L 76.53515625 386.99036455547053 L 76.99072265625 387.6176449850305 L 77.4462890625 388.1316333723885 L 78.357421875 388.84731150623077 L 79.2685546875 389.1882747767188 L 80.1796875 389.19920670716147 L 81.0908203125 388.9194273429667 L 82.001953125 388.3835992452673 L 82.9130859375 387.62233068952696 L 83.82421875 386.6626925348651 L 87.46875 381.28127435539966 L 91.11328125 374.22707122381746 L 94.7578125 366.2368292054306 L 98.40234375 357.77963250731386 L 102.046875 349.15614841307115 L 105.69140625 340.55904062281616 L 109.3359375 332.1106466260847 L 112.98046875 323.8869695991223 L 116.625 315.9332307775473 L 120.26953125 308.27410555146616 L 123.9140625 300.9205474360325 L 127.55859375 293.87438564308206 L 131.203125 287.1314487053092 L 134.84765625 280.68369981197105 L 138.4921875 274.5207021204397 L 142.13671875 268.63062547636093 L 145.78125 263.00093673346737 L 149.42578125 257.6188703507435 L 153.0703125 252.47174564303816 L 156.71484375 247.54717665087614 L 160.359375 242.8332067009132 L 164.00390625 238.3183901785138 L 167.6484375 233.99183741254072 L 171.29296875 229.84323394541968 L 174.9375 225.86284220541913 L 178.58203125 222.04149129245528 L 182.2265625 218.37055894730395 L 185.87109375 214.84194860017615 L 189.515625 211.44806355190553 L 193.16015625 208.1817797343289 L 196.8046875 205.03641805889092 L 200.44921875 202.00571704667954 L 204.09375 199.08380620524204 L 207.73828125 196.2651804534663 L 211.3828125 193.54467577812184 L 215.02734375 190.91744622175182 L 218.671875 188.37894224233924 L 222.31640625 185.9248904438727 L 225.9609375 183.551274648734 L 229.60546875 181.2543182641465 L 233.25 179.03046788313588 L 236.89453125 176.8763780536334 L 240.5390625 174.78889714607502 L 244.18359375 172.76505424907307 L 247.828125 170.80204702369457 L 251.47265625 168.8972304490046 L 255.1171875 167.04810639442033 L 258.76171875 165.25231395776376 L 262.40625 163.50762051149476 L 266.05078125 161.81191340328556 L 269.6953125 160.16319226076666 L 273.33984375 158.55956185385043 L 276.984375 156.99922547147807 L 280.62890625 155.48047877290506 L 284.2734375 154.0017040767235 L 287.91796875 152.5613650537076 L 291.5625 151.15800179226034 L 295.20703125 149.79022620773827 L 298.8515625 148.4567177692431 L 302.49609375 147.15621951960392 L 306.140625 145.8875343662387 L 309.78515625 144.64952162239317 L 313.4296875 143.4410937799149 L 317.07421875 142.26121349624586 L 320.71875 141.10889077971297 L 324.36328125 139.9831803584795 L 328.0078125 138.8831792196919 L 331.65234375 137.80802430643286 L 335.296875 136.75689036107707 L 338.94140625 135.72898790454664 L 342.5859375 134.72356134179083 L 346.23046874999994 133.73988718457113 L 349.875 132.77727238332685 L 353.51953125000006 131.83505276053216 L 357.1640625 130.9125915385381 L 360.80859374999994 130.00927795542893 L 364.453125 129.12452596291183 L 368.09765625000006 128.25777300071022 L 371.7421875 127.40847884234392 L 375.38671874999994 126.57612450756017 L 379.03125 125.76021123702856 L 382.67578125 124.96025952523436 L 386.32031249999994 124.1758082078 L 389.96484374999994 123.40641359973753 L 393.60937499999994 122.65164868138487 L 397.25390625 121.91110232900985 L 400.89843749999994 121.1843785872795 L 404.54296874999994 120.47109598098805 L 408.18749999999994 119.7708868636191 L 411.83203125 119.08339680048473 L 415.47656249999994 118.40828398433905 L 419.12109374999994 117.74521868150708 L 422.76562499999994 117.09388270670237 L 426.41015625 116.45396892482941 L 430.05468749999994 115.82518077817969 L 433.69921874999994 115.20723183753665 L 437.34374999999994 114.59984537580166 L 440.98828125 114.00275396284314 L 444.63281249999994 113.41569908035609 L 448.27734374999994 112.83843075559616 L 451.92187499999994 112.27070721292554 L 455.56640625 111.71229454217473 L 459.21093749999994 111.1629663828873 L 462.85546874999994 110.62250362357281 L 466.49999999999994 110.0906941151473 L 470.14453125 109.56733239779118 L 473.78906249999994 109.05221944050169 L 477.43359374999994 108.5451623926607 L 481.07812499999994 108.0459743469797 L 484.72265625 107.55447411322207 L 488.36718749999994 107.07048600213817 L 492.01171874999994 106.59383961908239 L 495.65624999999994 106.12436966681219 L 499.30078125 105.6619157569985 L 502.94531249999994 105.20632223000379 L 506.58984374999994 104.75743798251006 L 510.23437499999994 104.31511630260185 L 513.87890625 103.8792147119337 L 517.5234375 103.44959481462963 L 521.16796875 103.02612215258463 L 524.8125 102.60866606685445 L 528.45703125 102.19709956483874 L 532.1015625 101.7912991929775 L 535.74609375 101.39114491469725 L 539.390625 100.99651999335677 L 543.03515625 100.60731087995606 L 546.6796875 100.22340710538464 L 550.3242187499999 99.8447011769976 L 553.96875 99.4710884793183 L 557.61328125 99.10246717867784 L 561.2578125 98.73873813161077 L 564.9023437499999 98.37980479683654 L 568.546875 98.02557315066383 L 572.19140625 97.67595160566484 L 575.8359375 97.33085093247266 L 579.4804687499999 96.9901841845637 L 583.125 96.65386662589316 L 586.76953125 96.32181566125863 L 590.4140625 95.99395076927283 L 594.0585937499999 95.67019343783245 L 597.703125 95.35046710197577 L 601.34765625 95.03469708402663 L 604.9921875 94.72281053592758 L 608.6367187499999 94.41473638366955 L 612.28125 94.1104052737299 L 615.92578125 93.80974952143504 L 619.5703125 93.51270306116736 L 623.2148437499999 93.21920139834032 L 626.859375 92.9291815630694 L 630.50390625 92.6425820654691 L 634.1484375 92.35934285251031 L 637.7929687499999 92.0794052663749 L 641.4375 91.80271200424747 L 645.08203125 91.52920707948664 L 648.7265625 91.25883578412152 L 652.3710937499999 90.99154465262043 L 656.015625 90.72728142688254 L 659.66015625 90.46599502240409 L 663.3046875 90.2076354955739 L 666.9492187499999 89.95215401205442 L 670.59375 89.69950281620669 L 674.23828125 89.44963520151902 L 677.8828125 89.20250548200161 L 681.5273437499999 88.9580689645104 L 685.171875 88.71628192196498 L 688.81640625 88.47710156742752 L 692.4609374999999 88.24048602901041 L 696.1054687499999 88.00639432558182 L 699.75 87.7747863432401 L 703.39453125 87.54562281252845 L 707.0390625 87.31886528636338 L 710.6835937499999 87.09447611865039 L 714.328125 86.87241844356272 L 717.97265625 86.65265615545893 L 721.6171874999999 86.4351538894166 L 725.2617187499999 86.21987700236042 L 728.90625 86.00679155476323 L 732.55078125 85.79586429290043 L 736.1953125 85.5870626316377 L 739.8398437499999 85.38035463773406 L 743.484375 85.17570901364195 L 747.12890625 84.97309508178742 L 750.7734374999999 84.7724827693139 L 754.4179687499999 84.5738425932735 L 758.0625 84.37714564625105 L 761.70703125 84.18236358240571 L 765.3515625 83.98946860391641 L 768.9960937499999 83.79843344781759 L 772.640625 83.60923137321198 L 776.28515625 83.42183614884817 L 779.9296874999999 83.23622204105058 L 783.5742187499999 83.0523638019906 L 787.21875 82.87023665828747 L 790.86328125 82.6898162999282 L 794.5078125 82.51107886949623 L 798.1523437499999 82.33400095169881 L 801.796875 82.15855956318342 L 805.44140625 81.98473214263421 L 809.0859374999999 81.8124965411392 L 812.7304687499999 81.64183101281995 L 816.375 81.47271420571522 L 820.01953125 81.30512515291076 L 823.6640625 81.13904326390727 L 827.3085937499999 80.9744483162196 L 830.953125 80.81132044719935 L 834.59765625 80.64964014607466 L 838.2421874999999 80.4893882461999 L 841.8867187499999 80.33054591750923 L 845.53125 80.17309465916765 L 849.17578125 80.01701629241359 L 852.8203125 79.86229295358719 L 856.4648437499999 79.70890708733874 L 860.109375 79.55684144001188 L 863.75390625 79.40607905319621 L 867.3984374999999 79.2566032574446 L 871.0429687499999 79.10839766614981 L 874.6875 78.96144616957632 L 878.33203125 78.81573292904221 L 881.9765625 78.67124237124727 L 885.6210937499999 78.5279591827427 L 889.265625 78.38586830453826 L 892.91015625 78.24495492684343 L 896.5546874999999 78.10520448393788 L 900.1992187499999 77.96660264916838 L 903.84375 77.82913533006803 L 907.48828125 77.6927886635944 L 911.1328125 77.55754901148342 L 914.7773437499999 77.42340295571562 L 918.421875 77.29033729409144 L 922.06640625 77.15833903591289 L 925.7109374999999 77.0273953977682 L 929.3554687499999 76.89749379941699 L 933 76.76862185977292" stroke-opacity="0.8" stroke-linecap="round" stroke-linejoin="round" stroke-miterlimit="10" stroke-width="2.5"/><path fill="none" stroke="rgb(211,47,47)" paint-order="fill stroke markers" d=" M 81.54638671875 -8.584506103088444 L 82.001953125 -0.9417358414493506 L 82.45751953125001 6.409005449575538 L 82.9130859375 13.48043989902666 L 83.36865234375 20.284635253919866 L 83.82421875 26.833044038489863 L 84.27978515625001 33.136540036364224 L 84.7353515625 39.20545230143846 L 85.19091796875 45.049596885673694 L 85.646484375 50.67830645612715 L 86.10205078125001 56.100457959106436 L 86.5576171875 61.32449847621991 L 87.46875 71.21002908749804 L 88.37988281250001 80.39475857829616 L 89.291015625 88.93306495139723 L 90.2021484375 96.87442217200025 L 91.11328125 104.26390933315736 L 92.02441406250001 111.14265994607388 L 92.935546875 117.54825921097654 L 93.8466796875 123.51509598883106 L 94.7578125 129.07467523764922 L 95.66894531250001 134.25589586902532 L 96.580078125 139.08529829597808 L 98.40234375 147.78431984403397 L 100.224609375 155.344724709357 L 102.046875 161.91369464424716 L 103.869140625 167.61696590580294 L 105.69140625 172.56236415942396 L 109.3359375 180.53807383585846 L 112.98046875 186.44262210894013 L 116.625 190.73002417724123 L 118.447265625 192.3789091442894 L 120.26953125 193.74665493263274 L 123.9140625 195.75942676110213 L 125.736328125 196.45611261742215 L 127.55859375 196.97587336711933 L 131.203125 197.55866487818616 L 134.84765625 197.63623210509957 L 138.4921875 197.31063367961934 L 142.13671875 196.6634439917677 L 145.78125 195.7602033194448 L 149.42578125 194.65381188375588 L 153.0703125 193.3871402613465 L 156.71484375 191.99505277266726 L 160.359375 190.5059872385652 L 164.00390625 188.94319670278549 L 167.6484375 187.32573159559908 L 171.29296875 185.66922115664696 L 174.9375 183.98649855563005 L 178.58203125 182.2881035385925 L 182.2265625 180.5826885330391 L 185.87109375 178.8773482259953 L 189.515625 177.17788815852703 L 193.16015625 175.48904448029697 L 196.8046875 173.81466440506108 L 200.44921875 172.1578549032597 L 204.09375 170.52110561454418 L 207.73828125 168.9063907528004 L 211.3828125 167.31525382819524 L 215.02734375 165.74887826438533 L 218.671875 164.2081463985555 L 222.31640625 162.69368888266823 L 225.9609375 161.20592612969293 L 229.60546875 159.745103148285 L 233.25 158.31131886768878 L 236.89453125 156.90455085936108 L 240.5390625 155.52467620345843 L 244.18359375 154.17148911946214 L 247.828125 152.84471587499436 L 251.47265625 151.5440274006788 L 255.1171875 150.26904996807096 L 258.76171875 149.01937422930735 L 262.40625 147.79456286887248 L 266.05078125 146.59415707789614 L 269.6953125 145.4176820281632 L 273.33984375 144.26465149533658 L 276.984375 143.13457175777734 L 280.62890625 142.02694487799565 L 284.2734375 140.94127145753558 L 287.91796875 139.87705294244816 L 291.5625 138.8337935450137 L 295.20703125 137.8110018376685 L 298.8515625 136.8081920668872 L 302.49609375 135.82488522781787 L 306.140625 134.8606099345695 L 309.78515625 133.91490311603286 L 313.4296875 132.98731056284896 L 317.07421875 132.0773873474959 L 320.71875 131.1846981363563 L 324.36328125 130.30881740996955 L 328.0078125 129.4493296053962 L 331.65234375 128.6058291926703 L 335.296875 127.77792069564225 L 338.94140625 126.96521866607429 L 342.5859375 126.16734761861474 L 346.23046874999994 125.38394193321145 L 349.875 124.61464573060726 L 353.51953125000006 123.85911272576939 L 357.1640625 123.11700606342131 L 360.80859374999994 122.38799813925672 L 364.453125 121.67177040990552 L 368.09765625000006 120.96801319428195 L 371.7421875 120.27642546856376 L 375.38671874999994 119.59671465672258 L 379.03125 118.92859641824052 L 382.67578125 118.27179443440198 L 386.32031249999994 117.62604019433542 L 389.96484374999994 116.99107278179679 L 393.60937499999994 116.3666386635254 L 397.25390625 115.75249147986568 L 400.89843749999994 115.14839183822912 L 404.54296874999994 114.55410710986695 L 408.18749999999994 113.96941123033659 L 411.83203125 113.39408450396667 L 415.47656249999994 112.82791341256052 L 419.12109374999994 112.27069042852133 L 422.76562499999994 111.72221383253304 L 426.41015625 111.18228753588946 L 430.05468749999994 110.65072090752903 L 433.69921874999994 110.12732860580192 L 437.34374999999994 109.61193041497043 L 440.98828125 109.10435108642235 L 444.63281249999994 108.60442018455839 L 448.27734374999994 108.1119719372995 L 451.92187499999994 107.62684509114797 L 455.56640625 107.14888277072461 L 459.21093749999994 106.67793234269732 L 462.85546874999994 106.2138452840086 L 466.49999999999994 105.75647705430475 L 470.14453125 105.3056869724656 L 473.78906249999994 104.86133809713058 L 477.43359374999994 104.42329711111466 L 481.07812499999994 103.99143420960726 L 484.72265625 103.56562299204614 L 488.36718749999994 103.14574035755825 L 492.01171874999994 102.7316664038607 L 495.65624999999994 102.32328432951547 L 499.30078125 101.92048033943291 L 502.94531249999994 101.52314355352084 L 506.58984374999994 101.13116591837743 L 510.23437499999994 100.74444212192893 L 513.87890625 100.36286951091444 L 517.5234375 99.98634801112291 L 521.16796875 99.61478005028977 L 524.8125 99.24807048356277 L 528.45703125 98.8861265214496 L 532.1015625 98.52885766016169 L 535.74609375 98.17617561427176 L 539.390625 97.82799425160475 L 543.03515625 97.4842295302845 L 546.6796875 97.1447994378608 L 550.3242187499999 96.8096239324442 L 553.96875 96.47862488577769 L 557.61328125 96.15172602817813 L 561.2578125 95.82885289528038 L 564.9023437499999 95.50993277652165 L 568.546875 95.1948946653044 L 572.19140625 94.88366921077849 L 575.8359375 94.57618867118563 L 579.4804687499999 94.27238686871107 L 583.125 93.97219914578938 L 586.76953125 93.67556232281316 L 590.4140625 93.3824146571954 L 594.0585937499999 93.09269580373754 L 597.703125 92.8063467762581 L 601.34765625 92.52330991043704 L 604.9921875 92.24352882783371 L 608.6367187499999 91.9669484010372 L 612.28125 91.69351471990966 L 615.92578125 91.42317505888474 L 619.5703125 91.15587784528417 L 623.2148437499999 90.89157262861741 L 626.859375 90.6302100508305 L 630.50390625 90.37174181747103 L 634.1484375 90.1161206697382 L 637.7929687499999 89.86330035738698 L 641.4375 89.6132356124578 L 645.08203125 89.36588212380313 L 648.7265625 89.12119651238407 L 652.3710937499999 88.87913630731053 L 656.015625 88.6396599226004 L 659.66015625 88.40272663463267 L 663.3046875 88.16829656027204 L 666.9492187499999 87.93633063564155 L 670.59375 87.70679059552252 L 674.23828125 87.47963895336011 L 677.8828125 87.25483898185486 L 681.5273437499999 87.03235469412061 L 685.171875 86.81215082539013 L 688.81640625 86.59419281525057 L 692.4609374999999 86.37844679039102 L 696.1054687499999 86.16487954784597 L 699.75 85.95345853871794 L 703.39453125 85.74415185236423 L 707.0390625 85.53692820103241 L 710.6835937499999 85.3317569049303 L 714.328125 85.12860787771638 L 717.97265625 84.92745161239725 L 721.6171874999999 84.72825916761903 L 725.2617187499999 84.53100215434031 L 728.90625 84.3356527228745 L 732.55078125 84.14218355028987 L 736.1953125 83.95056782815611 L 739.8398437499999 83.76077925062661 L 743.484375 83.57279200284569 L 747.12890625 83.386580749671 L 750.7734374999999 83.20212062470121 L 754.4179687499999 83.01938721959934 L 758.0625 82.83835657370301 L 761.70703125 82.6590051639125 L 765.3515625 82.48130989484818 L 768.9960937499999 82.30524808926938 L 772.640625 82.13079747874626 L 776.28515625 81.95793619457751 L 779.9296874999999 81.78664275894624 L 783.5742187499999 81.61689607630686 L 787.21875 81.44867542499625 L 790.86328125 81.28196044906238 L 794.5078125 81.1167311503038 L 798.1523437499999 80.95296788051422 L 801.796875 80.79065133392544 L 805.44140625 80.6297625398436 L 809.0859374999999 80.47028285547236 L 812.7304687499999 80.312193958918 L 816.375 80.15547784237111 L 820.01953125 80.00011680545948 L 823.6640625 79.84609344876768 L 827.3085937499999 79.69339066751812 L 830.953125 79.54199164540921 L 834.59765625 79.39187984860621 L 838.2421874999999 79.24303901988006 L 841.8867187499999 79.09545317289036 L 845.53125 78.94910658660834 L 849.17578125 78.80398379987575 L 852.8203125 78.66006960609603 L 856.4648437499999 78.51734904805392 L 860.109375 78.37580741285996 L 863.75390625 78.23543022701668 L 867.3984374999999 78.09620325160263 L 871.0429687499999 77.95811247757135 L 874.6875 77.82114412116212 L 878.33203125 77.68528461941929 L 881.9765625 77.55052062581733 L 885.6210937499999 77.41683900598856 L 889.265625 77.28422683355119 L 892.91015625 77.15267138603438 L 896.5546874999999 77.02216014089831 L 900.1992187499999 76.89268077164613 L 903.84375 76.76422114402598 L 907.48828125 76.63676931232004 L 911.1328125 76.51031351571879 L 914.7773437499999 76.38484217477796 L 918.421875 76.26034388795613 L 922.06640625 76.13680742823075 L 925.7109374999999 76.01422173979071 L 929.3554687499999 75.89257593480326 L 933 75.77185929025339" stroke-opacity="0.8" stroke-linecap="round" stroke-linejoin="round" stroke-miterlimit="10" stroke-width="2.5"/><path fill="none" stroke="rgb(219,97,20)" paint-order="fill stroke markers" d=" M 112.98046875 -5.979464377314976 L 113.89160156250003 -0.2584578528700021 L 114.802734375 5.2110159259932445 L 115.7138671875 10.441689909937772 L 116.625 15.445534936812692 L 118.447265625 24.817124994770346 L 120.26953125 33.408224066265994 L 122.091796875 41.29206481401914 L 123.9140625 48.53385781619962 L 125.736328125 55.19180287116069 L 127.55859375 61.31795618077163 L 129.380859375 66.95897627032893 L 131.203125 72.15676752021399 L 134.84765625 81.36977731547955 L 138.4921875 89.21653786247089 L 142.13671875 95.90938991333725 L 145.78125 101.62317653981322 L 149.42578125 106.50273002997321 L 153.0703125 110.66869272697821 L 156.71484375 114.22207934317487 L 160.359375 117.24787999127801 L 164.00390625 119.81792583676585 L 167.6484375 121.99318345188078 L 171.29296875 123.82560325236508 L 174.9375 125.35961744592538 L 178.58203125 126.63336068318458 L 182.2265625 127.6796699530683 L 185.87109375 128.5269077021421 L 189.515625 129.19964260779716 L 193.16015625 129.71921512465232 L 196.8046875 130.1042092896993 L 200.44921875 130.37084790247195 L 204.09375 130.53332478756718 L 207.73828125 130.60408517186818 L 211.3828125 130.594063098298 L 215.02734375 130.51288312407218 L 218.671875 130.36903221725825 L 222.31640625 130.17000669698197 L 225.9609375 129.92243820303543 L 229.60546875 129.63220198607894 L 233.25 129.3045102460628 L 236.89453125 128.94399278737984 L 240.5390625 128.5547668837952 L 244.18359375 128.14049793800686 L 247.828125 127.70445226681414 L 251.47265625 127.24954313302263 L 255.1171875 126.77837097118183 L 258.76171875 126.29325860946835 L 262.40625 125.79628216920125 L 266.05078125 125.28929822235094 L 269.6953125 124.77396770251835 L 273.33984375 124.2517769934172 L 276.984375 123.72405655859626 L 280.62890625 123.19199742512245 L 284.2734375 122.65666579067243 L 287.91796875 122.11901598668496 L 291.5625 121.5799019988684 L 295.20703125 121.04008771957086 L 298.8515625 120.50025608358888 L 302.49609375 119.96101721931743 L 306.140625 119.42291573023263 L 309.78515625 118.88643720712841 L 313.4296875 118.35201405895666 L 317.07421875 117.820030739246 L 320.71875 117.29082843565698 L 324.36328125 116.76470928205563 L 328.0078125 116.24194014538222 L 331.65234375 115.72275603340273 L 335.296875 115.20736316403352 L 338.94140625 114.69594173221302 L 342.5859375 114.18864840616826 L 346.23046874999994 113.68561858130792 L 349.875 113.18696841679983 L 353.51953125000006 112.69279667710154 L 357.1640625 112.20318639825786 L 360.80859374999994 111.71820639661564 L 364.453125 111.23791263569669 L 368.09765625000006 110.76234946528234 L 371.7421875 110.29155074527156 L 375.38671874999994 109.82554086554995 L 379.03125 109.36433567193725 L 382.67578125 108.90794330723662 L 386.32031249999994 108.45636497548497 L 389.96484374999994 108.00959563667973 L 393.60937499999994 107.56762463852213 L 397.25390625 107.13043629106386 L 400.89843749999994 106.69801038955856 L 404.54296874999994 106.27032269029743 L 408.18749999999994 105.84734534374113 L 411.83203125 105.42904728884136 L 415.47656249999994 105.01539461207054 L 419.12109374999994 104.60635087434133 L 422.76562499999994 104.20187740869599 L 426.41015625 103.80193359137353 L 430.05468749999994 103.40647708861815 L 433.69921874999994 103.01546408137332 L 437.34374999999994 102.62884946980674 L 440.98828125 102.24658705943327 L 444.63281249999994 101.86862973044161 L 448.27734374999994 101.49492959168418 L 451.92187499999994 101.12543812065934 L 455.56640625 100.76010629069442 L 459.21093749999994 100.39888468643136 L 462.85546874999994 100.0417236086187 L 466.49999999999994 99.68857316912515 L 470.14453125 99.3393833770098 L 473.78906249999994 98.99410421641102 L 477.43359374999994 98.6526857169502 L 481.07812499999994 98.31507801728586 L 484.72265625 97.98123142239986 L 488.36718749999994 97.65109645514636 L 492.01171874999994 97.32462390255033 L 495.65624999999994 97.00176485730006 L 499.30078125 96.68247075484112 L 502.94531249999994 96.36669340644465 L 506.58984374999994 96.05438502859175 L 510.23437499999994 95.74549826898681 L 513.87890625 95.43998622948746 L 517.5234375 95.1378024862135 L 521.16796875 94.83890110707696 L 524.8125 94.54323666695443 L 528.45703125 94.25076426070481 L 532.1015625 93.96143951421956 L 535.74609375 93.67521859367605 L 539.390625 93.3920582131519 L 543.03515625 93.11191564074431 L 546.6796875 92.83474870332745 L 550.3242187499999 92.56051579006939 L 553.96875 92.28917585482085 L 557.61328125 92.02068841747857 L 561.2578125 91.75501356441782 L 564.9023437499999 91.4921119480808 L 568.546875 91.2319447858012 L 572.19140625 90.97447385793762 L 575.8359375 90.71966150538378 L 579.4804687499999 90.46747062651737 L 583.125 90.21786467364404 L 586.76953125 89.9708076489895 L 590.4140625 89.72626410028698 L 594.0585937499999 89.48419911600467 L 597.703125 89.24457832025335 L 601.34765625 89.0073678674116 L 604.9921875 88.7725344365023 L 608.6367187499999 88.54004522535189 L 612.28125 88.30986794456132 L 615.92578125 88.0819708113143 L 619.5703125 87.8563225430477 L 623.2148437499999 87.63289235100534 L 626.859375 87.411649933696 L 630.50390625 87.19256547027373 L 634.1484375 86.97560961385724 L 637.7929687499999 86.76075348480387 L 641.4375 86.54796866395226 L 645.08203125 86.33722718584625 L 648.7265625 86.12850153195164 L 652.3710937499999 85.92176462387667 L 656.015625 85.71698981660536 L 659.66015625 85.5141508917527 L 663.3046875 85.31322205084943 L 666.9492187499999 85.11417790866354 L 670.59375 84.91699348656469 L 674.23828125 84.72164420593765 L 677.8828125 84.5281058816494 L 681.5273437499999 84.33635471557488 L 685.171875 84.14636729018537 L 688.81640625 83.95812056220282 L 692.4609374999999 83.77159185632388 L 696.1054687499999 83.58675885901576 L 699.75 83.40359961238696 L 703.39453125 83.22209250813432 L 707.0390625 83.04221628156907 L 710.6835937499999 82.86395000572216 L 714.328125 82.68727308553149 L 717.97265625 82.51216525211089 L 721.6171874999999 82.33860655710242 L 725.2617187499999 82.16657736711218 L 728.90625 81.99605835823027 L 732.55078125 81.82703051063507 L 736.1953125 81.65947510328189 L 739.8398437499999 81.49337370867619 L 743.484375 81.32870818773091 L 747.12890625 81.16546068470801 L 750.7734374999999 81.00361362224345 L 754.4179687499999 80.8431496964555 L 758.0625 80.68405187213574 L 761.70703125 80.52630337802199 L 765.3515625 80.36988770215268 L 768.9960937499999 80.21478858730191 L 772.640625 80.06099002649424 L 776.28515625 79.9084762585986 L 779.9296874999999 79.75723176400017 L 783.5742187499999 79.60724126034964 L 787.21875 79.45848969838859 L 790.86328125 79.31096225785024 L 794.5078125 79.16464434343442 L 798.1523437499999 79.01952158085578 L 801.796875 78.87557981296425 L 805.44140625 78.73280509593674 L 809.0859374999999 78.59118369553877 L 812.7304687499999 78.4507020834553 L 816.375 78.31134693368935 L 820.01953125 78.1731051190277 L 823.6640625 78.03596370757225 L 827.3085937499999 77.89990995933604 L 830.953125 77.76493132290304 L 834.59765625 77.6310154321504 L 838.2421874999999 77.49815010303229 L 841.8867187499999 77.36632333042394 L 845.53125 77.23552328502528 L 849.17578125 77.10573831032278 L 852.8203125 76.9769569196084 L 856.4648437499999 76.84916779305513 L 860.109375 76.72235977484728 L 863.75390625 76.59652187036535 L 867.3984374999999 76.47164324342387 L 871.0429687499999 76.34771321356148 L 874.6875 76.22472125338224 L 878.33203125 76.10265698594722 L 881.9765625 75.98151018221537 L 885.6210937499999 75.86127075853278 L 889.265625 75.74192877416927 L 892.91015625 75.62347442890173 L 896.5546874999999 75.50589806064289 L 900.1992187499999 75.38919014311496 L 903.84375 75.2733412835671 L 907.48828125 75.15834222053596 L 911.1328125 75.04418382164832 L 914.7773437499999 74.93085708146526 L 918.421875 74.81835311936669 L 922.06640625 74.70666317747576 L 925.7109374999999 74.59577861862225 L 929.3554687499999 74.48569092434401 L 933 74.37639169292603" stroke-opacity="0.8" stroke-linecap="round" stroke-linejoin="round" stroke-miterlimit="10" stroke-width="2.5"/></g></g></svg>