<svg version="1.1" xmlns="http://www.w3.org/2000/svg" xmlns:xlink="http://www.w3.org/1999/xlink" width="784" height="817"><defs><clipPath id="unaATCsuzfnH"><path fill="none" stroke="none" d=" M 0 0 L 784 0 L 784 817 L 0 817 L 0 0 Z"/></clipPath></defs><g transform="scale(1,1)" clip-path="url(#unaATCsuzfnH)"><g><rect fill="rgb(255,255,255,0)" stroke="none" x="0" y="0" width="784" height="817" fill-opacity="1"/><path fill="none" stroke="rgb(192,192,192)" paint-order="fill stroke markers" d=" M 109.5 0.5 L 109.5 817.5 M 173.5 0.5 L 173.5 817.5 M 237.5 0.5 L 237.5 817.5 M 301.5 0.5 L 301.5 817.5 M 365.5 0.5 L 365.5 817.5 M 429.5 0.5 L 429.5 817.5 M 493.5 0.5 L 493.5 817.5 M 558.5 0.5 L 558.5 817.5 M 622.5 0.5 L 622.5 817.5 M 686.5 0.5 L 686.5 817.5 M 750.5 0.5 L 750.5 817.5" stroke-opacity="1" stroke-linecap="round" stroke-linejoin="round" stroke-miterlimit="10"/><path fill="none" stroke="rgb(192,192,192)" paint-order="fill stroke markers" d=" M 6.5 0.5 L 6.5 817.5 M 19.5 0.5 L 19.5 817.5 M 32.5 0.5 L 32.5 817.5 M 57.5 0.5 L 57.5 817.5 M 70.5 0.5 L 70.5 817.5 M 83.5 0.5 L 83.5 817.5 M 96.5 0.5 L 96.5 817.5 M 121.5 0.5 L 121.5 817.5 M 134.5 0.5 L 134.5 817.5 M 147.5 0.5 L 147.5 817.5 M 160.5 0.5 L 160.5 817.5 M 185.5 0.5 L 185.5 817.5 M 198.5 0.5 L 198.5 817.5 M 211.5 0.5 L 211.5 817.5 M 224.5 0.5 L 224.5 817.5 M 250.5 0.5 L 250.5 817.5 M 262.5 0.5 L 262.5 817.5 M 275.5 0.5 L 275.5 817.5 M 288.5 0.5 L 288.5 817.5 M 314.5 0.5 L 314.5 817.5 M 327.5 0.5 L 327.5 817.5 M 339.5 0.5 L 339.5 817.5 M 352.5 0.5 L 352.5 817.5 M 378.5 0.5 L 378.5 817.5 M 391.5 0.5 L 391.5 817.5 M 404.5 0.5 L 404.5 817.5 M 416.5 0.5 L 416.5 817.5 M 442.5 0.5 L 442.5 817.5 M 455.5 0.5 L 455.5 817.5 M 468.5 0.5 L 468.5 817.5 M 481.5 0.5 L 481.5 817.5 M 506.5 0.5 L 506.5 817.5 M 519.5 0.5 L 519.5 817.5 M 532.5 0.5 L 532.5 817.5 M 545.5 0.5 L 545.5 817.5 M 570.5 0.5 L 570.5 817.5 M 583.5 0.5 L 583.5 817.5 M 596.5 0.5 L 596.5 817.5 M 609.5 0.5 L 609.5 817.5 M 634.5 0.5 L 634.5 817.5 M 647.5 0.5 L 647.5 817.5 M 660.5 0.5 L 660.5 817.5 M 673.5 0.5 L 673.5 817.5 M 699.5 0.5 L 699.5 817.5 M 711.5 0.5 L 711.5 817.5 M 724.5 0.5 L 724.5 817.5 M 737.5 0.5 L 737.5 817.5 M 763.5 0.5 L 763.5 817.5 M 776.5 0.5 L 776.5 817.5" stroke-opacity="0.23529411764705882" stroke-linecap="round" stroke-linejoin="round" stroke-miterlimit="10"/><path fill="none" stroke="rgb(192,192,192)" paint-order="fill stroke markers" d=" M 0.5 6.5 L 784.5 6.5 M 0.5 6.5 L 784.5 6.5 M 0.5 70.5 L 784.5 70.5 M 0.5 135.5 L 784.5 135.5 M 0.5 199.5 L 784.5 199.5 M 0.5 263.5 L 784.5 263.5 M 0.5 327.5 L 784.5 327.5 M 0.5 391.5 L 784.5 391.5 M 0.5 455.5 L 784.5 455.5 M 0.5 519.5 L 784.5 519.5 M 0.5 584.5 L 784.5 584.5 M 0.5 648.5 L 784.5 648.5 M 0.5 712.5 L 784.5 712.5" stroke-opacity="1" stroke-linecap="round" stroke-linejoin="round" stroke-miterlimit="10"/><path fill="none" stroke="rgb(192,192,192)" paint-order="fill stroke markers" d=" M 0.5 6.5 L 784.5 6.5 M 0.5 19.5 L 784.5 19.5 M 0.5 32.5 L 784.5 32.5 M 0.5 45.5 L 784.5 45.5 M 0.5 58.5 L 784.5 58.5 M 0.5 83.5 L 784.5 83.5 M 0.5 96.5 L 784.5 96.5 M 0.5 109.5 L 784.5 109.5 M 0.5 122.5 L 784.5 122.5 M 0.5 147.5 L 784.5 147.5 M 0.5 160.5 L 784.5 160.5 M 0.5 173.5 L 784.5 173.5 M 0.5 186.5 L 784.5 186.5 M 0.5 212.5 L 784.5 212.5 M 0.5 224.5 L 784.5 224.5 M 0.5 237.5 L 784.5 237.5 M 0.5 250.5 L 784.5 250.5 M 0.5 276.5 L 784.5 276.5 M 0.5 289.5 L 784.5 289.5 M 0.5 301.5 L 784.5 301.5 M 0.5 314.5 L 784.5 314.5 M 0.5 340.5 L 784.5 340.5 M 0.5 353.5 L 784.5 353.5 M 0.5 366.5 L 784.5 366.5 M 0.5 378.5 L 784.5 378.5 M 0.5 404.5 L 784.5 404.5 M 0.5 417.5 L 784.5 417.5 M 0.5 430.5 L 784.5 430.5 M 0.5 443.5 L 784.5 443.5 M 0.5 468.5 L 784.5 468.5 M 0.5 481.5 L 784.5 481.5 M 0.5 494.5 L 784.5 494.5 M 0.5 507.5 L 784.5 507.5 M 0.5 532.5 L 784.5 532.5 M 0.5 545.5 L 784.5 545.5 M 0.5 558.5 L 784.5 558.5 M 0.5 571.5 L 784.5 571.5 M 0.5 596.5 L 784.5 596.5 M 0.5 609.5 L 784.5 609.5 M 0.5 622.5 L 784.5 622.5 M 0.5 635.5 L 784.5 635.5 M 0.5 661.5 L 784.5 661.5 M 0.5 673.5 L 784.5 673.5 M 0.5 686.5 L 784.5 686.5 M 0.5 699.5 L 784.5 699.5 M 0.5 725.5 L 784.5 725.5 M 0.5 738.5 L 784.5 738.5 M 0.5 750.5 L 784.5 750.5 M 0.5 763.5 L 784.5 763.5 M 0.5 789.5 L 784.5 789.5 M 0.5 802.5 L 784.5 802.5 M 0.5 815.5 L 784.5 815.5" stroke-opacity="0.23529411764705882" stroke-linecap="round" stroke-linejoin="round" stroke-miterlimit="10"/><path fill="none" stroke="rgb(37,37,37)" paint-order="fill stroke markers" d=" M 44.5 2.5 L 44.5 817.5" stroke-opacity="1" stroke-miterlimit="10"/><path fill="none" stroke="rgb(37,37,37)" paint-order="fill stroke markers" d=" M 44.5 1.5 L 40.5 5.5" stroke-opacity="1" stroke-miterlimit="10"/><path fill="none" stroke="rgb(37,37,37)" paint-order="fill stroke markers" d=" M 44.5 1.5 L 48.5 5.5" stroke-opacity="1" stroke-miterlimit="10"/><path fill="none" stroke="rgb(37,37,37)" paint-order="fill stroke markers" d=" M 0.5 776.5 L 782.5 776.5" stroke-opacity="1" stroke-miterlimit="10"/><path fill="none" stroke="rgb(37,37,37)" paint-order="fill stroke markers" d=" M 783.5 776.5 L 779.5 772.5" stroke-opacity="1" stroke-miterlimit="10"/><path fill="none" stroke="rgb(37,37,37)" paint-order="fill stroke markers" d=" M 783.5 776.5 L 779.5 780.5" stroke-opacity="1" stroke-miterlimit="10"/><text fill="rgb(37,37,37)" stroke="none" font-family="geogebra-sans-serif, sans-serif" font-size="12px" font-style="normal" font-weight="normal" text-decoration="normal" x="107" y="792" text-anchor="start" dominant-baseline="alphabetic" fill-opacity="1">2</text><text fill="none" stroke="rgb(255,255,255)" font-family="geogebra-sans-serif, sans-serif" font-size="12px" font-style="normal" font-weight="normal" text-decoration="normal" x="107" y="792" text-anchor="start" dominant-baseline="alphabetic" stroke-opacity="1" stroke-linejoin="bevel" stroke-miterlimit="10" stroke-width="3">2</text><text fill="rgb(37,37,37)" stroke="none" font-family="geogebra-sans-serif, sans-serif" font-size="12px" font-style="normal" font-weight="normal" text-decoration="normal" x="107" y="792" text-anchor="start" dominant-baseline="alphabetic" fill-opacity="1">2</text><text fill="rgb(37,37,37)" stroke="none" font-family="geogebra-sans-serif, sans-serif" font-size="12px" font-style="normal" font-weight="normal" text-decoration="normal" x="171" y="792" text-anchor="start" dominant-baseline="alphabetic" fill-opacity="1">4</text><text fill="none" stroke="rgb(255,255,255)" font-family="geogebra-sans-serif, sans-serif" font-size="12px" font-style="normal" font-weight="normal" text-decoration="normal" x="171" y="792" text-anchor="start" dominant-baseline="alphabetic" stroke-opacity="1" stroke-linejoin="bevel" stroke-miterlimit="10" stroke-width="3">4</text><text fill="rgb(37,37,37)" stroke="none" font-family="geogebra-sans-serif, sans-serif" font-size="12px" font-style="normal" font-weight="normal" text-decoration="normal" x="171" y="792" text-anchor="start" dominant-baseline="alphabetic" fill-opacity="1">4</text><text fill="rgb(37,37,37)" stroke="none" font-family="geogebra-sans-serif, sans-serif" font-size="12px" font-style="normal" font-weight="normal" text-decoration="normal" x="235" y="792" text-anchor="start" dominant-baseline="alphabetic" fill-opacity="1">6</text><text fill="none" stroke="rgb(255,255,255)" font-family="geogebra-sans-serif, sans-serif" font-size="12px" font-style="normal" font-weight="normal" text-decoration="normal" x="235" y="792" text-anchor="start" dominant-baseline="alphabetic" stroke-opacity="1" stroke-linejoin="bevel" stroke-miterlimit="10" stroke-width="3">6</text><text fill="rgb(37,37,37)" stroke="none" font-family="geogebra-sans-serif, sans-serif" font-size="12px" font-style="normal" font-weight="normal" text-decoration="normal" x="235" y="792" text-anchor="start" dominant-baseline="alphabetic" fill-opacity="1">6</text><text fill="rgb(37,37,37)" stroke="none" font-family="geogebra-sans-serif, sans-serif" font-size="12px" font-style="normal" font-weight="normal" text-decoration="normal" x="299" y="792" text-anchor="start" dominant-baseline="alphabetic" fill-opacity="1">8</text><text fill="none" stroke="rgb(255,255,255)" font-family="geogebra-sans-serif, sans-serif" font-size="12px" font-style="normal" font-weight="normal" text-decoration="normal" x="299" y="792" text-anchor="start" dominant-baseline="alphabetic" stroke-opacity="1" stroke-linejoin="bevel" stroke-miterlimit="10" stroke-width="3">8</text><text fill="rgb(37,37,37)" stroke="none" font-family="geogebra-sans-serif, sans-serif" font-size="12px" font-style="normal" font-weight="normal" text-decoration="normal" x="299" y="792" text-anchor="start" dominant-baseline="alphabetic" fill-opacity="1">8</text><text fill="rgb(37,37,37)" stroke="none" font-family="geogebra-sans-serif, sans-serif" font-size="12px" font-style="normal" font-weight="normal" text-decoration="normal" x="360" y="792" text-anchor="start" dominant-baseline="alphabetic" fill-opacity="1">10</text><text fill="none" stroke="rgb(255,255,255)" font-family="geogebra-sans-serif, sans-serif" font-size="12px" font-style="normal" font-weight="normal" text-decoration="normal" x="360" y="792" text-anchor="start" dominant-baseline="alphabetic" stroke-opacity="1" stroke-linejoin="bevel" stroke-miterlimit="10" stroke-width="3">10</text><text fill="rgb(37,37,37)" stroke="none" font-family="geogebra-sans-serif, sans-serif" font-size="12px" font-style="normal" font-weight="normal" text-decoration="normal" x="360" y="792" text-anchor="start" dominant-baseline="alphabetic" fill-opacity="1">10</text><text fill="rgb(37,37,37)" stroke="none" font-family="geogebra-sans-serif, sans-serif" font-size="12px" font-style="normal" font-weight="normal" text-decoration="normal" x="424" y="792" text-anchor="start" dominant-baseline="alphabetic" fill-opacity="1">12</text><text fill="none" stroke="rgb(255,255,255)" font-family="geogebra-sans-serif, sans-serif" font-size="12px" font-style="normal" font-weight="normal" text-decoration="normal" x="424" y="792" text-anchor="start" dominant-baseline="alphabetic" stroke-opacity="1" stroke-linejoin="bevel" stroke-miterlimit="10" stroke-width="3">12</text><text fill="rgb(37,37,37)" stroke="none" font-family="geogebra-sans-serif, sans-serif" font-size="12px" font-style="normal" font-weight="normal" text-decoration="normal" x="424" y="792" text-anchor="start" dominant-baseline="alphabetic" fill-opacity="1">12</text><text fill="rgb(37,37,37)" stroke="none" font-family="geogebra-sans-serif, sans-serif" font-size="12px" font-style="normal" font-weight="normal" text-decoration="normal" x="488" y="792" text-anchor="start" dominant-baseline="alphabetic" fill-opacity="1">14</text><text fill="none" stroke="rgb(255,255,255)" font-family="geogebra-sans-serif, sans-serif" font-size="12px" font-style="normal" font-weight="normal" text-decoration="normal" x="488" y="792" text-anchor="start" dominant-baseline="alphabetic" stroke-opacity="1" stroke-linejoin="bevel" stroke-miterlimit="10" stroke-width="3">14</text><text fill="rgb(37,37,37)" stroke="none" font-family="geogebra-sans-serif, sans-serif" font-size="12px" font-style="normal" font-weight="normal" text-decoration="normal" x="488" y="792" text-anchor="start" dominant-baseline="alphabetic" fill-opacity="1">14</text><text fill="rgb(37,37,37)" stroke="none" font-family="geogebra-sans-serif, sans-serif" font-size="12px" font-style="normal" font-weight="normal" text-decoration="normal" x="553" y="792" text-anchor="start" dominant-baseline="alphabetic" fill-opacity="1">16</text><text fill="none" stroke="rgb(255,255,255)" font-family="geogebra-sans-serif, sans-serif" font-size="12px" font-style="normal" font-weight="normal" text-decoration="normal" x="553" y="792" text-anchor="start" dominant-baseline="alphabetic" stroke-opacity="1" stroke-linejoin="bevel" stroke-miterlimit="10" stroke-width="3">16</text><text fill="rgb(37,37,37)" stroke="none" font-family="geogebra-sans-serif, sans-serif" font-size="12px" font-style="normal" font-weight="normal" text-decoration="normal" x="553" y="792" text-anchor="start" dominant-baseline="alphabetic" fill-opacity="1">16</text><text fill="rgb(37,37,37)" stroke="none" font-family="geogebra-sans-serif, sans-serif" font-size="12px" font-style="normal" font-weight="normal" text-decoration="normal" x="617" y="792" text-anchor="start" dominant-baseline="alphabetic" fill-opacity="1">18</text><text fill="none" stroke="rgb(255,255,255)" font-family="geogebra-sans-serif, sans-serif" font-size="12px" font-style="normal" font-weight="normal" text-decoration="normal" x="617" y="792" text-anchor="start" dominant-baseline="alphabetic" stroke-opacity="1" stroke-linejoin="bevel" stroke-miterlimit="10" stroke-width="3">18</text><text fill="rgb(37,37,37)" stroke="none" font-family="geogebra-sans-serif, sans-serif" font-size="12px" font-style="normal" font-weight="normal" text-decoration="normal" x="617" y="792" text-anchor="start" dominant-baseline="alphabetic" fill-opacity="1">18</text><text fill="rgb(37,37,37)" stroke="none" font-family="geogebra-sans-serif, sans-serif" font-size="12px" font-style="normal" font-weight="normal" text-decoration="normal" x="681" y="792" text-anchor="start" dominant-baseline="alphabetic" fill-opacity="1">20</text><text fill="none" stroke="rgb(255,255,255)" font-family="geogebra-sans-serif, sans-serif" font-size="12px" font-style="normal" font-weight="normal" text-decoration="normal" x="681" y="792" text-anchor="start" dominant-baseline="alphabetic" stroke-opacity="1" stroke-linejoin="bevel" stroke-miterlimit="10" stroke-width="3">20</text><text fill="rgb(37,37,37)" stroke="none" font-family="geogebra-sans-serif, sans-serif" font-size="12px" font-style="normal" font-weight="normal" text-decoration="normal" x="681" y="792" text-anchor="start" dominant-baseline="alphabetic" fill-opacity="1">20</text><text fill="rgb(37,37,37)" stroke="none" font-family="geogebra-sans-serif, sans-serif" font-size="12px" font-style="normal" font-weight="normal" text-decoration="normal" x="745" y="792" text-anchor="start" dominant-baseline="alphabetic" fill-opacity="1">22</text><text fill="none" stroke="rgb(255,255,255)" font-family="geogebra-sans-serif, sans-serif" font-size="12px" font-style="normal" font-weight="normal" text-decoration="normal" x="745" y="792" text-anchor="start" dominant-baseline="alphabetic" stroke-opacity="1" stroke-linejoin="bevel" stroke-miterlimit="10" stroke-width="3">22</text><text fill="rgb(37,37,37)" stroke="none" font-family="geogebra-sans-serif, sans-serif" font-size="12px" font-style="normal" font-weight="normal" text-decoration="normal" x="745" y="792" text-anchor="start" dominant-baseline="alphabetic" fill-opacity="1">22</text><text fill="rgb(37,37,37)" stroke="none" font-family="geogebra-sans-serif, sans-serif" font-size="12px" font-style="normal" font-weight="normal" text-decoration="normal" x="29" y="717" text-anchor="start" dominant-baseline="alphabetic" fill-opacity="1">2</text><text fill="none" stroke="rgb(255,255,255)" font-family="geogebra-sans-serif, sans-serif" font-size="12px" font-style="normal" font-weight="normal" text-decoration="normal" x="29" y="717" text-anchor="start" dominant-baseline="alphabetic" stroke-opacity="1" stroke-linejoin="bevel" stroke-miterlimit="10" stroke-width="3">2</text><text fill="rgb(37,37,37)" stroke="none" font-family="geogebra-sans-serif, sans-serif" font-size="12px" font-style="normal" font-weight="normal" text-decoration="normal" x="29" y="717" text-anchor="start" dominant-baseline="alphabetic" fill-opacity="1">2</text><text fill="rgb(37,37,37)" stroke="none" font-family="geogebra-sans-serif, sans-serif" font-size="12px" font-style="normal" font-weight="normal" text-decoration="normal" x="29" y="653" text-anchor="start" dominant-baseline="alphabetic" fill-opacity="1">4</text><text fill="none" stroke="rgb(255,255,255)" font-family="geogebra-sans-serif, sans-serif" font-size="12px" font-style="normal" font-weight="normal" text-decoration="normal" x="29" y="653" text-anchor="start" dominant-baseline="alphabetic" stroke-opacity="1" stroke-linejoin="bevel" stroke-miterlimit="10" stroke-width="3">4</text><text fill="rgb(37,37,37)" stroke="none" font-family="geogebra-sans-serif, sans-serif" font-size="12px" font-style="normal" font-weight="normal" text-decoration="normal" x="29" y="653" text-anchor="start" dominant-baseline="alphabetic" fill-opacity="1">4</text><text fill="rgb(37,37,37)" stroke="none" font-family="geogebra-sans-serif, sans-serif" font-size="12px" font-style="normal" font-weight="normal" text-decoration="normal" x="29" y="589" text-anchor="start" dominant-baseline="alphabetic" fill-opacity="1">6</text><text fill="none" stroke="rgb(255,255,255)" font-family="geogebra-sans-serif, sans-serif" font-size="12px" font-style="normal" font-weight="normal" text-decoration="normal" x="29" y="589" text-anchor="start" dominant-baseline="alphabetic" stroke-opacity="1" stroke-linejoin="bevel" stroke-miterlimit="10" stroke-width="3">6</text><text fill="rgb(37,37,37)" stroke="none" font-family="geogebra-sans-serif, sans-serif" font-size="12px" font-style="normal" font-weight="normal" text-decoration="normal" x="29" y="589" text-anchor="start" dominant-baseline="alphabetic" fill-opacity="1">6</text><text fill="rgb(37,37,37)" stroke="none" font-family="geogebra-sans-serif, sans-serif" font-size="12px" font-style="normal" font-weight="normal" text-decoration="normal" x="29" y="524" text-anchor="start" dominant-baseline="alphabetic" fill-opacity="1">8</text><text fill="none" stroke="rgb(255,255,255)" font-family="geogebra-sans-serif, sans-serif" font-size="12px" font-style="normal" font-weight="normal" text-decoration="normal" x="29" y="524" text-anchor="start" dominant-baseline="alphabetic" stroke-opacity="1" stroke-linejoin="bevel" stroke-miterlimit="10" stroke-width="3">8</text><text fill="rgb(37,37,37)" stroke="none" font-family="geogebra-sans-serif, sans-serif" font-size="12px" font-style="normal" font-weight="normal" text-decoration="normal" x="29" y="524" text-anchor="start" dominant-baseline="alphabetic" fill-opacity="1">8</text><text fill="rgb(37,37,37)" stroke="none" font-family="geogebra-sans-serif, sans-serif" font-size="12px" font-style="normal" font-weight="normal" text-decoration="normal" x="22" y="460" text-anchor="start" dominant-baseline="alphabetic" fill-opacity="1">10</text><text fill="none" stroke="rgb(255,255,255)" font-family="geogebra-sans-serif, sans-serif" font-size="12px" font-style="normal" font-weight="normal" text-decoration="normal" x="22" y="460" text-anchor="start" dominant-baseline="alphabetic" stroke-opacity="1" stroke-linejoin="bevel" stroke-miterlimit="10" stroke-width="3">10</text><text fill="rgb(37,37,37)" stroke="none" font-family="geogebra-sans-serif, sans-serif" font-size="12px" font-style="normal" font-weight="normal" text-decoration="normal" x="22" y="460" text-anchor="start" dominant-baseline="alphabetic" fill-opacity="1">10</text><text fill="rgb(37,37,37)" stroke="none" font-family="geogebra-sans-serif, sans-serif" font-size="12px" font-style="normal" font-weight="normal" text-decoration="normal" x="22" y="396" text-anchor="start" dominant-baseline="alphabetic" fill-opacity="1">12</text><text fill="none" stroke="rgb(255,255,255)" font-family="geogebra-sans-serif, sans-serif" font-size="12px" font-style="normal" font-weight="normal" text-decoration="normal" x="22" y="396" text-anchor="start" dominant-baseline="alphabetic" stroke-opacity="1" stroke-linejoin="bevel" stroke-miterlimit="10" stroke-width="3">12</text><text fill="rgb(37,37,37)" stroke="none" font-family="geogebra-sans-serif, sans-serif" font-size="12px" font-style="normal" font-weight="normal" text-decoration="normal" x="22" y="396" text-anchor="start" dominant-baseline="alphabetic" fill-opacity="1">12</text><text fill="rgb(37,37,37)" stroke="none" font-family="geogebra-sans-serif, sans-serif" font-size="12px" font-style="normal" font-weight="normal" text-decoration="normal" x="22" y="332" text-anchor="start" dominant-baseline="alphabetic" fill-opacity="1">14</text><text fill="none" stroke="rgb(255,255,255)" font-family="geogebra-sans-serif, sans-serif" font-size="12px" font-style="normal" font-weight="normal" text-decoration="normal" x="22" y="332" text-anchor="start" dominant-baseline="alphabetic" stroke-opacity="1" stroke-linejoin="bevel" stroke-miterlimit="10" stroke-width="3">14</text><text fill="rgb(37,37,37)" stroke="none" font-family="geogebra-sans-serif, sans-serif" font-size="12px" font-style="normal" font-weight="normal" text-decoration="normal" x="22" y="332" text-anchor="start" dominant-baseline="alphabetic" fill-opacity="1">14</text><text fill="rgb(37,37,37)" stroke="none" font-family="geogebra-sans-serif, sans-serif" font-size="12px" font-style="normal" font-weight="normal" text-decoration="normal" x="22" y="268" text-anchor="start" dominant-baseline="alphabetic" fill-opacity="1">16</text><text fill="none" stroke="rgb(255,255,255)" font-family="geogebra-sans-serif, sans-serif" font-size="12px" font-style="normal" font-weight="normal" text-decoration="normal" x="22" y="268" text-anchor="start" dominant-baseline="alphabetic" stroke-opacity="1" stroke-linejoin="bevel" stroke-miterlimit="10" stroke-width="3">16</text><text fill="rgb(37,37,37)" stroke="none" font-family="geogebra-sans-serif, sans-serif" font-size="12px" font-style="normal" font-weight="normal" text-decoration="normal" x="22" y="268" text-anchor="start" dominant-baseline="alphabetic" fill-opacity="1">16</text><text fill="rgb(37,37,37)" stroke="none" font-family="geogebra-sans-serif, sans-serif" font-size="12px" font-style="normal" font-weight="normal" text-decoration="normal" x="22" y="204" text-anchor="start" dominant-baseline="alphabetic" fill-opacity="1">18</text><text fill="none" stroke="rgb(255,255,255)" font-family="geogebra-sans-serif, sans-serif" font-size="12px" font-style="normal" font-weight="normal" text-decoration="normal" x="22" y="204" text-anchor="start" dominant-baseline="alphabetic" stroke-opacity="1" stroke-linejoin="bevel" stroke-miterlimit="10" stroke-width="3">18</text><text fill="rgb(37,37,37)" stroke="none" font-family="geogebra-sans-serif, sans-serif" font-size="12px" font-style="normal" font-weight="normal" text-decoration="normal" x="22" y="204" text-anchor="start" dominant-baseline="alphabetic" fill-opacity="1">18</text><text fill="rgb(37,37,37)" stroke="none" font-family="geogebra-sans-serif, sans-serif" font-size="12px" font-style="normal" font-weight="normal" text-decoration="normal" x="22" y="140" text-anchor="start" dominant-baseline="alphabetic" fill-opacity="1">20</text><text fill="none" stroke="rgb(255,255,255)" font-family="geogebra-sans-serif, sans-serif" font-size="12px" font-style="normal" font-weight="normal" text-decoration="normal" x="22" y="140" text-anchor="start" dominant-baseline="alphabetic" stroke-opacity="1" stroke-linejoin="bevel" stroke-miterlimit="10" stroke-width="3">20</text><text fill="rgb(37,37,37)" stroke="none" font-family="geogebra-sans-serif, sans-serif" font-size="12px" font-style="normal" font-weight="normal" text-decoration="normal" x="22" y="140" text-anchor="start" dominant-baseline="alphabetic" fill-opacity="1">20</text><text fill="rgb(37,37,37)" stroke="none" font-family="geogebra-sans-serif, sans-serif" font-size="12px" font-style="normal" font-weight="normal" text-decoration="normal" x="22" y="75" text-anchor="start" dominant-baseline="alphabetic" fill-opacity="1">22</text><text fill="none" stroke="rgb(255,255,255)" font-family="geogebra-sans-serif, sans-serif" font-size="12px" font-style="normal" font-weight="normal" text-decoration="normal" x="22" y="75" text-anchor="start" dominant-baseline="alphabetic" stroke-opacity="1" stroke-linejoin="bevel" stroke-miterlimit="10" stroke-width="3">22</text><text fill="rgb(37,37,37)" stroke="none" font-family="geogebra-sans-serif, sans-serif" font-size="12px" font-style="normal" font-weight="normal" text-decoration="normal" x="22" y="75" text-anchor="start" dominant-baseline="alphabetic" fill-opacity="1">22</text><text fill="rgb(37,37,37)" stroke="none" font-family="geogebra-sans-serif, sans-serif" font-size="12px" font-style="normal" font-weight="normal" text-decoration="normal" x="29" y="792" text-anchor="start" dominant-baseline="alphabetic" fill-opacity="1">0</text><text fill="none" stroke="rgb(255,255,255)" font-family="geogebra-sans-serif, sans-serif" font-size="12px" font-style="normal" font-weight="normal" text-decoration="normal" x="29" y="792" text-anchor="start" dominant-baseline="alphabetic" stroke-opacity="1" stroke-linejoin="bevel" stroke-miterlimit="10" stroke-width="3">0</text><text fill="rgb(37,37,37)" stroke="none" font-family="geogebra-sans-serif, sans-serif" font-size="12px" font-style="normal" font-weight="normal" text-decoration="normal" x="29" y="792" text-anchor="start" dominant-baseline="alphabetic" fill-opacity="1">0</text><path fill="none" stroke="rgb(211,47,47)" paint-order="fill stroke markers" d=" M 109.00975737658702 776.5726081688833 L 109.31981803244025 767.646144411097 L 109.6298786882935 763.9385418898728 L 110.25 758.6767213368853 M 110.25 758.6767213368853 L 111.78125 749.7154577480826 L 113.31249999999999 742.978696783689 L 114.84375 737.3047002455908 L 116.375 732.283405700611 L 119.4375 723.4783089693049 L 122.49999999999999 715.7386281368781 M 122.49999999999999 715.7386281368781 L 125.56249999999999 708.7002212599074 L 128.625 702.1649365462906 L 131.6875 696.0112063976359 L 134.75 690.1583250632925 L 137.8125 684.549617827472 L 140.875 679.1435713772674 L 143.9375 673.9087614775071 L 147 668.8207649161557 M 147 668.8207649161557 L 150.0625 663.8601839375972 L 153.125 659.0113304023913 L 156.1875 654.2613195478123 L 159.25 649.5994279749425 L 162.3125 645.0166277017681 L 165.375 640.5052408502245 L 168.4375 636.0586790108662 L 171.5 631.6712433203838 L 174.56249999999997 627.3379688938628 L 177.625 623.0545022072565 L 180.6875 618.8170033275183 L 183.74999999999997 614.6220671352908 L 186.8125 610.4666592437701 L 189.875 606.3480634169309 L 192.93749999999997 602.2638380780639 L 196 598.2117800719818 M 196 598.2117800719818 L 199.0625 594.1898942655884 L 202.12499999999997 590.1963678853699 L 205.1875 586.2295487267667 L 208.25 582.2879265502523 L 211.31249999999997 578.3701171171199 L 214.375 574.4748484250506 L 217.4375 570.6009487872122 L 220.49999999999997 566.7473364645184 L 223.5625 562.9130106129413 L 226.625 559.0970433495057 L 229.6875 555.2985727741376 L 232.75 551.5167968116637 L 235.8125 547.7509677603241 L 238.87499999999997 544.0003874511954 L 241.9375 540.2644029377474 L 245 536.5424026470087 L 248.0625 532.8338129339684 L 251.125 529.138094989319 L 254.1875 525.4547420577254 L 257.25 521.7832769297678 L 260.3125 518.1232496757273 L 263.375 514.4742355936348 L 266.4375 510.83583334762403 L 269.5 507.20766327570374 L 272.5625 503.58936584870315 L 275.625 499.98060026440623 L 278.6875 496.3810431628296 L 281.75 492.79038745028436 L 284.8125 489.20834122131 L 287.875 485.6346267688288 L 290.9375 482.0689796739667 L 294 478.5111479679419 L 297.0625 474.9608913592556 L 300.125 471.4179805201514 L 303.1875 467.88219642695645 L 306.25 464.3533297494748 L 309.31250000000006 460.83118028510927 L 312.375 457.31555643382177 L 315.4375 453.8062747104373 L 318.5 450.3031592911394 L 321.5625 446.80604159130866 L 324.62499999999994 443.3147598721371 L 327.6875 439.8291588736874 L 330.75 436.3490894722856 L 333.8125 432.8744083603328 L 336.875 429.40497774679216 L 339.9375 425.94066507676536 L 343 422.48134276871366 L 346.06250000000006 419.0268879680044 L 349.12500000000006 415.5771823155782 L 352.1875 412.13211173063286 L 355.25 408.6915662063159 L 358.3125 405.25543961750094 L 361.37499999999994 401.8236295397954 L 364.4375 398.3960370790033 L 367.5 394.97256671032125 L 370.5625 391.5531261266093 L 373.625 388.13762609512827 L 376.6875 384.7259803221793 L 379.75 381.31810532512856 L 382.81250000000006 377.9139203113385 L 385.87500000000006 374.5133470635616 L 388.9375 371.11630983138446 L 392 367.722735228346 M 392 367.722735228346 L 395.0625 364.3325521343736 L 398.125 360.94569160321134 L 401.1875 357.5620867745354 L 404.25 354.1816727904773 L 407.3125 350.80438671628764 L 410.375 347.43016746489724 L 413.4375 344.0589557251503 L 416.5 340.69069389349374 L 419.56250000000006 337.32532600892483 L 422.625 333.96279769101443 L 425.6875 330.60305608082984 L 428.75 327.2460497845979 L 431.8125 323.8917288199553 L 434.875 320.540044564645 L 437.9375 317.19094970752946 L 441 313.84439820178767 L 444.0625 310.50034522019143 L 447.125 307.1587471123405 L 450.1875 303.819561363761 L 453.25 300.4827465567672 L 456.31250000000006 297.1482623329985 L 459.37500000000006 293.81606935754235 L 462.4375 290.4861292845676 L 465.5 287.1584047243887 L 468.5625 283.832859211894 L 471.62500000000006 280.50945717626513 L 474.6875 277.18816391192945 L 477.75 273.8689455506847 L 480.8125 270.5517690349363 L 483.875 267.2366020919991 L 486.9375 263.92341320941 L 490.00000000000006 260.61217161120385 L 493.06250000000006 257.30284723511136 L 496.12500000000006 253.99541071062959 L 499.1875 250.68983333793472 L 502.25 247.3860870675876 L 505.3125 244.08414448100734 L 508.37500000000006 240.78397877166935 L 511.4375 237.48556372699977 L 514.5 234.18887371093854 L 517.5625 230.89388364713386 L 520.625 227.60056900274924 L 523.6875 224.30890577284936 L 526.75 221.01887046534637 L 529.8125 217.7304400864757 L 532.875 214.4435921267874 L 535.9375 211.1583045476233 L 539 207.87455576806565 L 542.0625 204.59232465233242 L 545.125 201.31159049760925 L 548.1875 198.03233302228819 L 551.25 194.75453235460873 L 554.3125 191.47816902167608 L 557.375 188.2032239388492 L 560.4375 184.92967839947448 L 563.5 181.6575140649602 L 566.5625 178.38671295517588 L 569.625 175.11725743916065 L 572.6875000000001 171.84913022613023 L 575.75 168.58231435677556 L 578.8125 165.31679319483487 L 581.875 162.0525504189335 L 584.9375 158.78957001467882 L 588 155.52783626700477 L 591.0625 152.26733375274978 L 594.125 149.00804733346718 L 597.1875 145.7499621484518 L 600.25 142.49306360798334 L 603.3125 139.23733738677254 L 606.375 135.98276941760093 L 609.4375000000001 132.72934588515682 L 612.5000000000001 129.47705322005004 L 615.5625000000001 126.22587809300524 L 618.6250000000001 122.97580740922479 L 621.6875 119.72682830291888 L 624.75 116.47892813198814 L 627.8125 113.2320944728682 L 630.875 109.98631511551616 L 633.9375 106.74157805854077 L 637 103.49787150447332 L 640.0625 100.25518385516875 L 643.125 97.0135037073394 L 646.1875000000001 93.77281984820786 L 649.25 90.53312125128775 L 652.3125 87.29439707227255 L 655.375 84.05663664504527 L 658.4375 80.81982947779022 L 661.5 77.58396524921488 L 664.5625 74.34903380487049 L 667.625 71.11502515357404 L 670.6875 67.88192946392405 L 673.75 64.64973706091007 L 676.8125 61.418438422608574 L 679.875 58.18802417697236 L 682.9375000000001 54.958485098693814 L 686.0000000000001 51.72981210616172 L 689.0625000000001 48.50199625848518 L 692.1250000000001 45.27502875260279 L 695.1875000000001 42.04890092046014 L 698.2500000000001 38.82360422626368 L 701.3125 35.59913026379968 L 704.375 32.37547075382429 L 707.4375 29.152617541518453 L 710.5 25.93056259400373 L 713.5625 22.70929799792259 L 716.625 19.48881595707894 L 719.6875 16.269108790132464 L 722.75 13.050168928354651 L 725.8125 9.831988913436362 L 728.875 6.614561395348687 L 731.9375 3.397879130256115 L 735 0.18193497847971685 L 738.0625 -3.033278097491575 L 741.125 -6.247767034941944" stroke-opacity="0.6980392156862745" stroke-linecap="round" stroke-linejoin="round" stroke-miterlimit="10" stroke-width="2.5"/><g transform="scale(19,19)"><g transform="translate(6.2631578947368425,40.431)"><path fill="rgb(0,0,0)" stroke="none" paint-order="stroke fill markers" d=" M 0.088 -0.059000000000000004 L 0.088 -0.059000000000000004 L 0.146 -0.29 Q 0.162 -0.354 0.162 -0.374 Q 0.162 -0.42 0.131 -0.42 Q 0.09 -0.42 0.064 -0.325 Q 0.061 -0.314 0.058 -0.301 Q 0.047 -0.279 0.041 -0.278 Q 0.029 -0.278 0.029 -0.28800000000000003 Q 0.029 -0.304 0.047 -0.355 Q 0.054 -0.373 0.06 -0.385 Q 0.084 -0.434 0.12 -0.441 Q 0.127 -0.442 0.134 -0.442 Q 0.19 -0.442 0.215 -0.394 Q 0.221 -0.383 0.224 -0.37 Q 0.225 -0.368 0.225 -0.365 Q 0.28300000000000003 -0.437 0.353 -0.442 Q 0.40900000000000003 -0.442 0.429 -0.403 Q 0.436 -0.391 0.436 -0.377 Q 0.436 -0.338 0.403 -0.323 Q 0.392 -0.318 0.381 -0.318 Q 0.35000000000000003 -0.318 0.34400000000000003 -0.34500000000000003 Q 0.343 -0.34900000000000003 0.343 -0.353 Q 0.343 -0.386 0.377 -0.402 L 0.378 -0.403 Q 0.386 -0.406 0.395 -0.40800000000000003 L 0.375 -0.417 Q 0.362 -0.419 0.353 -0.42 Q 0.311 -0.42 0.273 -0.387 Q 0.242 -0.359 0.22 -0.313 Q 0.218 -0.308 0.217 -0.305 L 0.185 -0.17500000000000002 L 0.145 -0.017 Q 0.136 0.009000000000000001 0.108 0.011 Q 0.083 0.006 0.079 -0.016 Q 0.079 -0.014 0.088 -0.059000000000000004 Z"/></g><g transform="translate(6.714157894736842,40.580999999999996) scale(0.7,0.7)"><path fill="rgb(0,0,0)" stroke="none" paint-order="stroke fill markers" d=" M 0.391 -0.374 L 0.391 -0.374 Q 0.37 -0.418 0.301 -0.42 Q 0.22 -0.42 0.195 -0.359 Q 0.189 -0.34400000000000003 0.189 -0.33 Q 0.189 -0.291 0.23700000000000002 -0.277 L 0.23700000000000002 -0.277 L 0.23800000000000002 -0.276 Q 0.245 -0.274 0.265 -0.27 Q 0.327 -0.257 0.34800000000000003 -0.242 Q 0.357 -0.23600000000000002 0.365 -0.228 Q 0.396 -0.197 0.396 -0.155 Q 0.396 -0.10300000000000001 0.357 -0.056 Q 0.301 0.011 0.195 0.011 Q 0.10200000000000001 0.011 0.066 -0.041 Q 0.052000000000000005 -0.061 0.052000000000000005 -0.08600000000000001 Q 0.052000000000000005 -0.135 0.09 -0.149 Q 0.099 -0.152 0.108 -0.152 Q 0.14100000000000001 -0.147 0.145 -0.117 Q 0.145 -0.08600000000000001 0.11800000000000001 -0.07100000000000001 Q 0.10200000000000001 -0.061 0.082 -0.064 Q 0.105 -0.011 0.196 -0.011 Q 0.299 -0.011 0.331 -0.08600000000000001 Q 0.339 -0.105 0.339 -0.121 Q 0.339 -0.169 0.28 -0.187 L 0.28 -0.187 L 0.279 -0.187 Q 0.264 -0.191 0.23500000000000001 -0.197 Q 0.145 -0.216 0.134 -0.277 Q 0.132 -0.28600000000000003 0.132 -0.296 Q 0.132 -0.34600000000000003 0.17 -0.389 Q 0.217 -0.442 0.301 -0.442 Q 0.38 -0.442 0.41000000000000003 -0.393 Q 0.42 -0.376 0.42 -0.356 Q 0.42 -0.311 0.386 -0.302 Q 0.38 -0.3 0.374 -0.3 Q 0.34600000000000003 -0.304 0.343 -0.329 Q 0.343 -0.356 0.37 -0.369 Q 0.38 -0.374 0.391 -0.374 Z"/></g></g></g></g></svg>