<svg version="1.1" xmlns="http://www.w3.org/2000/svg" xmlns:xlink="http://www.w3.org/1999/xlink" width="1077" height="881"><defs><clipPath id="wXiTTdFmicTO"><path fill="none" stroke="none" d=" M 0 0 L 1077 0 L 1077 881 L 0 881 L 0 0 Z"/></clipPath></defs><g transform="scale(1,1)" clip-path="url(#wXiTTdFmicTO)"><g><rect fill="rgb(255,255,255,0)" stroke="none" x="0" y="0" width="1077" height="881" fill-opacity="1"/><path fill="none" stroke="rgb(192,192,192)" paint-order="fill stroke markers" d=" M 85.5 0.5 L 85.5 881.5 M 136.5 0.5 L 136.5 881.5 M 186.5 0.5 L 186.5 881.5 M 237.5 0.5 L 237.5 881.5 M 288.5 0.5 L 288.5 881.5 M 338.5 0.5 L 338.5 881.5 M 389.5 0.5 L 389.5 881.5 M 439.5 0.5 L 439.5 881.5 M 490.5 0.5 L 490.5 881.5 M 540.5 0.5 L 540.5 881.5 M 591.5 0.5 L 591.5 881.5 M 641.5 0.5 L 641.5 881.5 M 692.5 0.5 L 692.5 881.5 M 742.5 0.5 L 742.5 881.5 M 793.5 0.5 L 793.5 881.5 M 843.5 0.5 L 843.5 881.5 M 894.5 0.5 L 894.5 881.5 M 944.5 0.5 L 944.5 881.5 M 995.5 0.5 L 995.5 881.5 M 1046.5 0.5 L 1046.5 881.5" stroke-opacity="1" stroke-linecap="round" stroke-linejoin="round" stroke-miterlimit="10"/><path fill="none" stroke="rgb(192,192,192)" paint-order="fill stroke markers" d="" stroke-opacity="0.23529411764705882" stroke-linecap="round" stroke-linejoin="round" stroke-miterlimit="10"/><path fill="none" stroke="rgb(192,192,192)" paint-order="fill stroke markers" d=" M 0.5 35.5 L 1077.5 35.5 M 0.5 35.5 L 1077.5 35.5 M 0.5 85.5 L 1077.5 85.5 M 0.5 136.5 L 1077.5 136.5 M 0.5 186.5 L 1077.5 186.5 M 0.5 237.5 L 1077.5 237.5 M 0.5 287.5 L 1077.5 287.5 M 0.5 338.5 L 1077.5 338.5 M 0.5 388.5 L 1077.5 388.5 M 0.5 489.5 L 1077.5 489.5 M 0.5 540.5 L 1077.5 540.5 M 0.5 590.5 L 1077.5 590.5 M 0.5 641.5 L 1077.5 641.5 M 0.5 691.5 L 1077.5 691.5 M 0.5 742.5 L 1077.5 742.5 M 0.5 793.5 L 1077.5 793.5 M 0.5 843.5 L 1077.5 843.5" stroke-opacity="1" stroke-linecap="round" stroke-linejoin="round" stroke-miterlimit="10"/><path fill="none" stroke="rgb(192,192,192)" paint-order="fill stroke markers" d="" stroke-opacity="0.23529411764705882" stroke-linecap="round" stroke-linejoin="round" stroke-miterlimit="10"/><path fill="none" stroke="rgb(37,37,37)" paint-order="fill stroke markers" d=" M 35.5 2.5 L 35.5 881.5" stroke-opacity="1" stroke-miterlimit="10"/><path fill="none" stroke="rgb(37,37,37)" paint-order="fill stroke markers" d=" M 35.5 1.5 L 31.5 5.5" stroke-opacity="1" stroke-miterlimit="10"/><path fill="none" stroke="rgb(37,37,37)" paint-order="fill stroke markers" d=" M 35.5 1.5 L 39.5 5.5" stroke-opacity="1" stroke-miterlimit="10"/><path fill="none" stroke="rgb(37,37,37)" paint-order="fill stroke markers" d=" M 0.5 439.5 L 1075.5 439.5" stroke-opacity="1" stroke-miterlimit="10"/><path fill="none" stroke="rgb(37,37,37)" paint-order="fill stroke markers" d=" M 1076.5 439.5 L 1072.5 435.5" stroke-opacity="1" stroke-miterlimit="10"/><path fill="none" stroke="rgb(37,37,37)" paint-order="fill stroke markers" d=" M 1076.5 439.5 L 1072.5 443.5" stroke-opacity="1" stroke-miterlimit="10"/><text fill="rgb(37,37,37)" stroke="none" font-family="geogebra-sans-serif, sans-serif" font-size="12px" font-style="normal" font-weight="normal" text-decoration="normal" x="83" y="455" text-anchor="start" dominant-baseline="alphabetic" fill-opacity="1">1</text><text fill="none" stroke="rgb(255,255,255)" font-family="geogebra-sans-serif, sans-serif" font-size="12px" font-style="normal" font-weight="normal" text-decoration="normal" x="83" y="455" text-anchor="start" dominant-baseline="alphabetic" stroke-opacity="1" stroke-linejoin="bevel" stroke-miterlimit="10" stroke-width="3">1</text><text fill="rgb(37,37,37)" stroke="none" font-family="geogebra-sans-serif, sans-serif" font-size="12px" font-style="normal" font-weight="normal" text-decoration="normal" x="83" y="455" text-anchor="start" dominant-baseline="alphabetic" fill-opacity="1">1</text><text fill="rgb(37,37,37)" stroke="none" font-family="geogebra-sans-serif, sans-serif" font-size="12px" font-style="normal" font-weight="normal" text-decoration="normal" x="134" y="455" text-anchor="start" dominant-baseline="alphabetic" fill-opacity="1">2</text><text fill="none" stroke="rgb(255,255,255)" font-family="geogebra-sans-serif, sans-serif" font-size="12px" font-style="normal" font-weight="normal" text-decoration="normal" x="134" y="455" text-anchor="start" dominant-baseline="alphabetic" stroke-opacity="1" stroke-linejoin="bevel" stroke-miterlimit="10" stroke-width="3">2</text><text fill="rgb(37,37,37)" stroke="none" font-family="geogebra-sans-serif, sans-serif" font-size="12px" font-style="normal" font-weight="normal" text-decoration="normal" x="134" y="455" text-anchor="start" dominant-baseline="alphabetic" fill-opacity="1">2</text><text fill="rgb(37,37,37)" stroke="none" font-family="geogebra-sans-serif, sans-serif" font-size="12px" font-style="normal" font-weight="normal" text-decoration="normal" x="184" y="455" text-anchor="start" dominant-baseline="alphabetic" fill-opacity="1">3</text><text fill="none" stroke="rgb(255,255,255)" font-family="geogebra-sans-serif, sans-serif" font-size="12px" font-style="normal" font-weight="normal" text-decoration="normal" x="184" y="455" text-anchor="start" dominant-baseline="alphabetic" stroke-opacity="1" stroke-linejoin="bevel" stroke-miterlimit="10" stroke-width="3">3</text><text fill="rgb(37,37,37)" stroke="none" font-family="geogebra-sans-serif, sans-serif" font-size="12px" font-style="normal" font-weight="normal" text-decoration="normal" x="184" y="455" text-anchor="start" dominant-baseline="alphabetic" fill-opacity="1">3</text><text fill="rgb(37,37,37)" stroke="none" font-family="geogebra-sans-serif, sans-serif" font-size="12px" font-style="normal" font-weight="normal" text-decoration="normal" x="235" y="455" text-anchor="start" dominant-baseline="alphabetic" fill-opacity="1">4</text><text fill="none" stroke="rgb(255,255,255)" font-family="geogebra-sans-serif, sans-serif" font-size="12px" font-style="normal" font-weight="normal" text-decoration="normal" x="235" y="455" text-anchor="start" dominant-baseline="alphabetic" stroke-opacity="1" stroke-linejoin="bevel" stroke-miterlimit="10" stroke-width="3">4</text><text fill="rgb(37,37,37)" stroke="none" font-family="geogebra-sans-serif, sans-serif" font-size="12px" font-style="normal" font-weight="normal" text-decoration="normal" x="235" y="455" text-anchor="start" dominant-baseline="alphabetic" fill-opacity="1">4</text><text fill="rgb(37,37,37)" stroke="none" font-family="geogebra-sans-serif, sans-serif" font-size="12px" font-style="normal" font-weight="normal" text-decoration="normal" x="286" y="455" text-anchor="start" dominant-baseline="alphabetic" fill-opacity="1">5</text><text fill="none" stroke="rgb(255,255,255)" font-family="geogebra-sans-serif, sans-serif" font-size="12px" font-style="normal" font-weight="normal" text-decoration="normal" x="286" y="455" text-anchor="start" dominant-baseline="alphabetic" stroke-opacity="1" stroke-linejoin="bevel" stroke-miterlimit="10" stroke-width="3">5</text><text fill="rgb(37,37,37)" stroke="none" font-family="geogebra-sans-serif, sans-serif" font-size="12px" font-style="normal" font-weight="normal" text-decoration="normal" x="286" y="455" text-anchor="start" dominant-baseline="alphabetic" fill-opacity="1">5</text><text fill="rgb(37,37,37)" stroke="none" font-family="geogebra-sans-serif, sans-serif" font-size="12px" font-style="normal" font-weight="normal" text-decoration="normal" x="336" y="455" text-anchor="start" dominant-baseline="alphabetic" fill-opacity="1">6</text><text fill="none" stroke="rgb(255,255,255)" font-family="geogebra-sans-serif, sans-serif" font-size="12px" font-style="normal" font-weight="normal" text-decoration="normal" x="336" y="455" text-anchor="start" dominant-baseline="alphabetic" stroke-opacity="1" stroke-linejoin="bevel" stroke-miterlimit="10" stroke-width="3">6</text><text fill="rgb(37,37,37)" stroke="none" font-family="geogebra-sans-serif, sans-serif" font-size="12px" font-style="normal" font-weight="normal" text-decoration="normal" x="336" y="455" text-anchor="start" dominant-baseline="alphabetic" fill-opacity="1">6</text><text fill="rgb(37,37,37)" stroke="none" font-family="geogebra-sans-serif, sans-serif" font-size="12px" font-style="normal" font-weight="normal" text-decoration="normal" x="387" y="455" text-anchor="start" dominant-baseline="alphabetic" fill-opacity="1">7</text><text fill="none" stroke="rgb(255,255,255)" font-family="geogebra-sans-serif, sans-serif" font-size="12px" font-style="normal" font-weight="normal" text-decoration="normal" x="387" y="455" text-anchor="start" dominant-baseline="alphabetic" stroke-opacity="1" stroke-linejoin="bevel" stroke-miterlimit="10" stroke-width="3">7</text><text fill="rgb(37,37,37)" stroke="none" font-family="geogebra-sans-serif, sans-serif" font-size="12px" font-style="normal" font-weight="normal" text-decoration="normal" x="387" y="455" text-anchor="start" dominant-baseline="alphabetic" fill-opacity="1">7</text><text fill="rgb(37,37,37)" stroke="none" font-family="geogebra-sans-serif, sans-serif" font-size="12px" font-style="normal" font-weight="normal" text-decoration="normal" x="437" y="455" text-anchor="start" dominant-baseline="alphabetic" fill-opacity="1">8</text><text fill="none" stroke="rgb(255,255,255)" font-family="geogebra-sans-serif, sans-serif" font-size="12px" font-style="normal" font-weight="normal" text-decoration="normal" x="437" y="455" text-anchor="start" dominant-baseline="alphabetic" stroke-opacity="1" stroke-linejoin="bevel" stroke-miterlimit="10" stroke-width="3">8</text><text fill="rgb(37,37,37)" stroke="none" font-family="geogebra-sans-serif, sans-serif" font-size="12px" font-style="normal" font-weight="normal" text-decoration="normal" x="437" y="455" text-anchor="start" dominant-baseline="alphabetic" fill-opacity="1">8</text><text fill="rgb(37,37,37)" stroke="none" font-family="geogebra-sans-serif, sans-serif" font-size="12px" font-style="normal" font-weight="normal" text-decoration="normal" x="488" y="455" text-anchor="start" dominant-baseline="alphabetic" fill-opacity="1">9</text><text fill="none" stroke="rgb(255,255,255)" font-family="geogebra-sans-serif, sans-serif" font-size="12px" font-style="normal" font-weight="normal" text-decoration="normal" x="488" y="455" text-anchor="start" dominant-baseline="alphabetic" stroke-opacity="1" stroke-linejoin="bevel" stroke-miterlimit="10" stroke-width="3">9</text><text fill="rgb(37,37,37)" stroke="none" font-family="geogebra-sans-serif, sans-serif" font-size="12px" font-style="normal" font-weight="normal" text-decoration="normal" x="488" y="455" text-anchor="start" dominant-baseline="alphabetic" fill-opacity="1">9</text><text fill="rgb(37,37,37)" stroke="none" font-family="geogebra-sans-serif, sans-serif" font-size="12px" font-style="normal" font-weight="normal" text-decoration="normal" x="535" y="455" text-anchor="start" dominant-baseline="alphabetic" fill-opacity="1">10</text><text fill="none" stroke="rgb(255,255,255)" font-family="geogebra-sans-serif, sans-serif" font-size="12px" font-style="normal" font-weight="normal" text-decoration="normal" x="535" y="455" text-anchor="start" dominant-baseline="alphabetic" stroke-opacity="1" stroke-linejoin="bevel" stroke-miterlimit="10" stroke-width="3">10</text><text fill="rgb(37,37,37)" stroke="none" font-family="geogebra-sans-serif, sans-serif" font-size="12px" font-style="normal" font-weight="normal" text-decoration="normal" x="535" y="455" text-anchor="start" dominant-baseline="alphabetic" fill-opacity="1">10</text><text fill="rgb(37,37,37)" stroke="none" font-family="geogebra-sans-serif, sans-serif" font-size="12px" font-style="normal" font-weight="normal" text-decoration="normal" x="586" y="455" text-anchor="start" dominant-baseline="alphabetic" fill-opacity="1">11</text><text fill="none" stroke="rgb(255,255,255)" font-family="geogebra-sans-serif, sans-serif" font-size="12px" font-style="normal" font-weight="normal" text-decoration="normal" x="586" y="455" text-anchor="start" dominant-baseline="alphabetic" stroke-opacity="1" stroke-linejoin="bevel" stroke-miterlimit="10" stroke-width="3">11</text><text fill="rgb(37,37,37)" stroke="none" font-family="geogebra-sans-serif, sans-serif" font-size="12px" font-style="normal" font-weight="normal" text-decoration="normal" x="586" y="455" text-anchor="start" dominant-baseline="alphabetic" fill-opacity="1">11</text><text fill="rgb(37,37,37)" stroke="none" font-family="geogebra-sans-serif, sans-serif" font-size="12px" font-style="normal" font-weight="normal" text-decoration="normal" x="636" y="455" text-anchor="start" dominant-baseline="alphabetic" fill-opacity="1">12</text><text fill="none" stroke="rgb(255,255,255)" font-family="geogebra-sans-serif, sans-serif" font-size="12px" font-style="normal" font-weight="normal" text-decoration="normal" x="636" y="455" text-anchor="start" dominant-baseline="alphabetic" stroke-opacity="1" stroke-linejoin="bevel" stroke-miterlimit="10" stroke-width="3">12</text><text fill="rgb(37,37,37)" stroke="none" font-family="geogebra-sans-serif, sans-serif" font-size="12px" font-style="normal" font-weight="normal" text-decoration="normal" x="636" y="455" text-anchor="start" dominant-baseline="alphabetic" fill-opacity="1">12</text><text fill="rgb(37,37,37)" stroke="none" font-family="geogebra-sans-serif, sans-serif" font-size="12px" font-style="normal" font-weight="normal" text-decoration="normal" x="687" y="455" text-anchor="start" dominant-baseline="alphabetic" fill-opacity="1">13</text><text fill="none" stroke="rgb(255,255,255)" font-family="geogebra-sans-serif, sans-serif" font-size="12px" font-style="normal" font-weight="normal" text-decoration="normal" x="687" y="455" text-anchor="start" dominant-baseline="alphabetic" stroke-opacity="1" stroke-linejoin="bevel" stroke-miterlimit="10" stroke-width="3">13</text><text fill="rgb(37,37,37)" stroke="none" font-family="geogebra-sans-serif, sans-serif" font-size="12px" font-style="normal" font-weight="normal" text-decoration="normal" x="687" y="455" text-anchor="start" dominant-baseline="alphabetic" fill-opacity="1">13</text><text fill="rgb(37,37,37)" stroke="none" font-family="geogebra-sans-serif, sans-serif" font-size="12px" font-style="normal" font-weight="normal" text-decoration="normal" x="737" y="455" text-anchor="start" dominant-baseline="alphabetic" fill-opacity="1">14</text><text fill="none" stroke="rgb(255,255,255)" font-family="geogebra-sans-serif, sans-serif" font-size="12px" font-style="normal" font-weight="normal" text-decoration="normal" x="737" y="455" text-anchor="start" dominant-baseline="alphabetic" stroke-opacity="1" stroke-linejoin="bevel" stroke-miterlimit="10" stroke-width="3">14</text><text fill="rgb(37,37,37)" stroke="none" font-family="geogebra-sans-serif, sans-serif" font-size="12px" font-style="normal" font-weight="normal" text-decoration="normal" x="737" y="455" text-anchor="start" dominant-baseline="alphabetic" fill-opacity="1">14</text><text fill="rgb(37,37,37)" stroke="none" font-family="geogebra-sans-serif, sans-serif" font-size="12px" font-style="normal" font-weight="normal" text-decoration="normal" x="788" y="455" text-anchor="start" dominant-baseline="alphabetic" fill-opacity="1">15</text><text fill="none" stroke="rgb(255,255,255)" font-family="geogebra-sans-serif, sans-serif" font-size="12px" font-style="normal" font-weight="normal" text-decoration="normal" x="788" y="455" text-anchor="start" dominant-baseline="alphabetic" stroke-opacity="1" stroke-linejoin="bevel" stroke-miterlimit="10" stroke-width="3">15</text><text fill="rgb(37,37,37)" stroke="none" font-family="geogebra-sans-serif, sans-serif" font-size="12px" font-style="normal" font-weight="normal" text-decoration="normal" x="788" y="455" text-anchor="start" dominant-baseline="alphabetic" fill-opacity="1">15</text><text fill="rgb(37,37,37)" stroke="none" font-family="geogebra-sans-serif, sans-serif" font-size="12px" font-style="normal" font-weight="normal" text-decoration="normal" x="838" y="455" text-anchor="start" dominant-baseline="alphabetic" fill-opacity="1">16</text><text fill="none" stroke="rgb(255,255,255)" font-family="geogebra-sans-serif, sans-serif" font-size="12px" font-style="normal" font-weight="normal" text-decoration="normal" x="838" y="455" text-anchor="start" dominant-baseline="alphabetic" stroke-opacity="1" stroke-linejoin="bevel" stroke-miterlimit="10" stroke-width="3">16</text><text fill="rgb(37,37,37)" stroke="none" font-family="geogebra-sans-serif, sans-serif" font-size="12px" font-style="normal" font-weight="normal" text-decoration="normal" x="838" y="455" text-anchor="start" dominant-baseline="alphabetic" fill-opacity="1">16</text><text fill="rgb(37,37,37)" stroke="none" font-family="geogebra-sans-serif, sans-serif" font-size="12px" font-style="normal" font-weight="normal" text-decoration="normal" x="889" y="455" text-anchor="start" dominant-baseline="alphabetic" fill-opacity="1">17</text><text fill="none" stroke="rgb(255,255,255)" font-family="geogebra-sans-serif, sans-serif" font-size="12px" font-style="normal" font-weight="normal" text-decoration="normal" x="889" y="455" text-anchor="start" dominant-baseline="alphabetic" stroke-opacity="1" stroke-linejoin="bevel" stroke-miterlimit="10" stroke-width="3">17</text><text fill="rgb(37,37,37)" stroke="none" font-family="geogebra-sans-serif, sans-serif" font-size="12px" font-style="normal" font-weight="normal" text-decoration="normal" x="889" y="455" text-anchor="start" dominant-baseline="alphabetic" fill-opacity="1">17</text><text fill="rgb(37,37,37)" stroke="none" font-family="geogebra-sans-serif, sans-serif" font-size="12px" font-style="normal" font-weight="normal" text-decoration="normal" x="939" y="455" text-anchor="start" dominant-baseline="alphabetic" fill-opacity="1">18</text><text fill="none" stroke="rgb(255,255,255)" font-family="geogebra-sans-serif, sans-serif" font-size="12px" font-style="normal" font-weight="normal" text-decoration="normal" x="939" y="455" text-anchor="start" dominant-baseline="alphabetic" stroke-opacity="1" stroke-linejoin="bevel" stroke-miterlimit="10" stroke-width="3">18</text><text fill="rgb(37,37,37)" stroke="none" font-family="geogebra-sans-serif, sans-serif" font-size="12px" font-style="normal" font-weight="normal" text-decoration="normal" x="939" y="455" text-anchor="start" dominant-baseline="alphabetic" fill-opacity="1">18</text><text fill="rgb(37,37,37)" stroke="none" font-family="geogebra-sans-serif, sans-serif" font-size="12px" font-style="normal" font-weight="normal" text-decoration="normal" x="990" y="455" text-anchor="start" dominant-baseline="alphabetic" fill-opacity="1">19</text><text fill="none" stroke="rgb(255,255,255)" font-family="geogebra-sans-serif, sans-serif" font-size="12px" font-style="normal" font-weight="normal" text-decoration="normal" x="990" y="455" text-anchor="start" dominant-baseline="alphabetic" stroke-opacity="1" stroke-linejoin="bevel" stroke-miterlimit="10" stroke-width="3">19</text><text fill="rgb(37,37,37)" stroke="none" font-family="geogebra-sans-serif, sans-serif" font-size="12px" font-style="normal" font-weight="normal" text-decoration="normal" x="990" y="455" text-anchor="start" dominant-baseline="alphabetic" fill-opacity="1">19</text><text fill="rgb(37,37,37)" stroke="none" font-family="geogebra-sans-serif, sans-serif" font-size="12px" font-style="normal" font-weight="normal" text-decoration="normal" x="1041" y="455" text-anchor="start" dominant-baseline="alphabetic" fill-opacity="1">20</text><text fill="none" stroke="rgb(255,255,255)" font-family="geogebra-sans-serif, sans-serif" font-size="12px" font-style="normal" font-weight="normal" text-decoration="normal" x="1041" y="455" text-anchor="start" dominant-baseline="alphabetic" stroke-opacity="1" stroke-linejoin="bevel" stroke-miterlimit="10" stroke-width="3">20</text><text fill="rgb(37,37,37)" stroke="none" font-family="geogebra-sans-serif, sans-serif" font-size="12px" font-style="normal" font-weight="normal" text-decoration="normal" x="1041" y="455" text-anchor="start" dominant-baseline="alphabetic" fill-opacity="1">20</text><text fill="rgb(37,37,37)" stroke="none" font-family="geogebra-sans-serif, sans-serif" font-size="12px" font-style="normal" font-weight="normal" text-decoration="normal" x="15" y="848" text-anchor="start" dominant-baseline="alphabetic" fill-opacity="1">–8</text><text fill="none" stroke="rgb(255,255,255)" font-family="geogebra-sans-serif, sans-serif" font-size="12px" font-style="normal" font-weight="normal" text-decoration="normal" x="15" y="848" text-anchor="start" dominant-baseline="alphabetic" stroke-opacity="1" stroke-linejoin="bevel" stroke-miterlimit="10" stroke-width="3">–8</text><text fill="rgb(37,37,37)" stroke="none" font-family="geogebra-sans-serif, sans-serif" font-size="12px" font-style="normal" font-weight="normal" text-decoration="normal" x="15" y="848" text-anchor="start" dominant-baseline="alphabetic" fill-opacity="1">–8</text><text fill="rgb(37,37,37)" stroke="none" font-family="geogebra-sans-serif, sans-serif" font-size="12px" font-style="normal" font-weight="normal" text-decoration="normal" x="15" y="798" text-anchor="start" dominant-baseline="alphabetic" fill-opacity="1">–7</text><text fill="none" stroke="rgb(255,255,255)" font-family="geogebra-sans-serif, sans-serif" font-size="12px" font-style="normal" font-weight="normal" text-decoration="normal" x="15" y="798" text-anchor="start" dominant-baseline="alphabetic" stroke-opacity="1" stroke-linejoin="bevel" stroke-miterlimit="10" stroke-width="3">–7</text><text fill="rgb(37,37,37)" stroke="none" font-family="geogebra-sans-serif, sans-serif" font-size="12px" font-style="normal" font-weight="normal" text-decoration="normal" x="15" y="798" text-anchor="start" dominant-baseline="alphabetic" fill-opacity="1">–7</text><text fill="rgb(37,37,37)" stroke="none" font-family="geogebra-sans-serif, sans-serif" font-size="12px" font-style="normal" font-weight="normal" text-decoration="normal" x="15" y="747" text-anchor="start" dominant-baseline="alphabetic" fill-opacity="1">–6</text><text fill="none" stroke="rgb(255,255,255)" font-family="geogebra-sans-serif, sans-serif" font-size="12px" font-style="normal" font-weight="normal" text-decoration="normal" x="15" y="747" text-anchor="start" dominant-baseline="alphabetic" stroke-opacity="1" stroke-linejoin="bevel" stroke-miterlimit="10" stroke-width="3">–6</text><text fill="rgb(37,37,37)" stroke="none" font-family="geogebra-sans-serif, sans-serif" font-size="12px" font-style="normal" font-weight="normal" text-decoration="normal" x="15" y="747" text-anchor="start" dominant-baseline="alphabetic" fill-opacity="1">–6</text><text fill="rgb(37,37,37)" stroke="none" font-family="geogebra-sans-serif, sans-serif" font-size="12px" font-style="normal" font-weight="normal" text-decoration="normal" x="15" y="696" text-anchor="start" dominant-baseline="alphabetic" fill-opacity="1">–5</text><text fill="none" stroke="rgb(255,255,255)" font-family="geogebra-sans-serif, sans-serif" font-size="12px" font-style="normal" font-weight="normal" text-decoration="normal" x="15" y="696" text-anchor="start" dominant-baseline="alphabetic" stroke-opacity="1" stroke-linejoin="bevel" stroke-miterlimit="10" stroke-width="3">–5</text><text fill="rgb(37,37,37)" stroke="none" font-family="geogebra-sans-serif, sans-serif" font-size="12px" font-style="normal" font-weight="normal" text-decoration="normal" x="15" y="696" text-anchor="start" dominant-baseline="alphabetic" fill-opacity="1">–5</text><text fill="rgb(37,37,37)" stroke="none" font-family="geogebra-sans-serif, sans-serif" font-size="12px" font-style="normal" font-weight="normal" text-decoration="normal" x="15" y="646" text-anchor="start" dominant-baseline="alphabetic" fill-opacity="1">–4</text><text fill="none" stroke="rgb(255,255,255)" font-family="geogebra-sans-serif, sans-serif" font-size="12px" font-style="normal" font-weight="normal" text-decoration="normal" x="15" y="646" text-anchor="start" dominant-baseline="alphabetic" stroke-opacity="1" stroke-linejoin="bevel" stroke-miterlimit="10" stroke-width="3">–4</text><text fill="rgb(37,37,37)" stroke="none" font-family="geogebra-sans-serif, sans-serif" font-size="12px" font-style="normal" font-weight="normal" text-decoration="normal" x="15" y="646" text-anchor="start" dominant-baseline="alphabetic" fill-opacity="1">–4</text><text fill="rgb(37,37,37)" stroke="none" font-family="geogebra-sans-serif, sans-serif" font-size="12px" font-style="normal" font-weight="normal" text-decoration="normal" x="15" y="595" text-anchor="start" dominant-baseline="alphabetic" fill-opacity="1">–3</text><text fill="none" stroke="rgb(255,255,255)" font-family="geogebra-sans-serif, sans-serif" font-size="12px" font-style="normal" font-weight="normal" text-decoration="normal" x="15" y="595" text-anchor="start" dominant-baseline="alphabetic" stroke-opacity="1" stroke-linejoin="bevel" stroke-miterlimit="10" stroke-width="3">–3</text><text fill="rgb(37,37,37)" stroke="none" font-family="geogebra-sans-serif, sans-serif" font-size="12px" font-style="normal" font-weight="normal" text-decoration="normal" x="15" y="595" text-anchor="start" dominant-baseline="alphabetic" fill-opacity="1">–3</text><text fill="rgb(37,37,37)" stroke="none" font-family="geogebra-sans-serif, sans-serif" font-size="12px" font-style="normal" font-weight="normal" text-decoration="normal" x="15" y="545" text-anchor="start" dominant-baseline="alphabetic" fill-opacity="1">–2</text><text fill="none" stroke="rgb(255,255,255)" font-family="geogebra-sans-serif, sans-serif" font-size="12px" font-style="normal" font-weight="normal" text-decoration="normal" x="15" y="545" text-anchor="start" dominant-baseline="alphabetic" stroke-opacity="1" stroke-linejoin="bevel" stroke-miterlimit="10" stroke-width="3">–2</text><text fill="rgb(37,37,37)" stroke="none" font-family="geogebra-sans-serif, sans-serif" font-size="12px" font-style="normal" font-weight="normal" text-decoration="normal" x="15" y="545" text-anchor="start" dominant-baseline="alphabetic" fill-opacity="1">–2</text><text fill="rgb(37,37,37)" stroke="none" font-family="geogebra-sans-serif, sans-serif" font-size="12px" font-style="normal" font-weight="normal" text-decoration="normal" x="15" y="494" text-anchor="start" dominant-baseline="alphabetic" fill-opacity="1">–1</text><text fill="none" stroke="rgb(255,255,255)" font-family="geogebra-sans-serif, sans-serif" font-size="12px" font-style="normal" font-weight="normal" text-decoration="normal" x="15" y="494" text-anchor="start" dominant-baseline="alphabetic" stroke-opacity="1" stroke-linejoin="bevel" stroke-miterlimit="10" stroke-width="3">–1</text><text fill="rgb(37,37,37)" stroke="none" font-family="geogebra-sans-serif, sans-serif" font-size="12px" font-style="normal" font-weight="normal" text-decoration="normal" x="15" y="494" text-anchor="start" dominant-baseline="alphabetic" fill-opacity="1">–1</text><text fill="rgb(37,37,37)" stroke="none" font-family="geogebra-sans-serif, sans-serif" font-size="12px" font-style="normal" font-weight="normal" text-decoration="normal" x="21" y="393" text-anchor="start" dominant-baseline="alphabetic" fill-opacity="1">1</text><text fill="none" stroke="rgb(255,255,255)" font-family="geogebra-sans-serif, sans-serif" font-size="12px" font-style="normal" font-weight="normal" text-decoration="normal" x="21" y="393" text-anchor="start" dominant-baseline="alphabetic" stroke-opacity="1" stroke-linejoin="bevel" stroke-miterlimit="10" stroke-width="3">1</text><text fill="rgb(37,37,37)" stroke="none" font-family="geogebra-sans-serif, sans-serif" font-size="12px" font-style="normal" font-weight="normal" text-decoration="normal" x="21" y="393" text-anchor="start" dominant-baseline="alphabetic" fill-opacity="1">1</text><text fill="rgb(37,37,37)" stroke="none" font-family="geogebra-sans-serif, sans-serif" font-size="12px" font-style="normal" font-weight="normal" text-decoration="normal" x="21" y="343" text-anchor="start" dominant-baseline="alphabetic" fill-opacity="1">2</text><text fill="none" stroke="rgb(255,255,255)" font-family="geogebra-sans-serif, sans-serif" font-size="12px" font-style="normal" font-weight="normal" text-decoration="normal" x="21" y="343" text-anchor="start" dominant-baseline="alphabetic" stroke-opacity="1" stroke-linejoin="bevel" stroke-miterlimit="10" stroke-width="3">2</text><text fill="rgb(37,37,37)" stroke="none" font-family="geogebra-sans-serif, sans-serif" font-size="12px" font-style="normal" font-weight="normal" text-decoration="normal" x="21" y="343" text-anchor="start" dominant-baseline="alphabetic" fill-opacity="1">2</text><text fill="rgb(37,37,37)" stroke="none" font-family="geogebra-sans-serif, sans-serif" font-size="12px" font-style="normal" font-weight="normal" text-decoration="normal" x="21" y="292" text-anchor="start" dominant-baseline="alphabetic" fill-opacity="1">3</text><text fill="none" stroke="rgb(255,255,255)" font-family="geogebra-sans-serif, sans-serif" font-size="12px" font-style="normal" font-weight="normal" text-decoration="normal" x="21" y="292" text-anchor="start" dominant-baseline="alphabetic" stroke-opacity="1" stroke-linejoin="bevel" stroke-miterlimit="10" stroke-width="3">3</text><text fill="rgb(37,37,37)" stroke="none" font-family="geogebra-sans-serif, sans-serif" font-size="12px" font-style="normal" font-weight="normal" text-decoration="normal" x="21" y="292" text-anchor="start" dominant-baseline="alphabetic" fill-opacity="1">3</text><text fill="rgb(37,37,37)" stroke="none" font-family="geogebra-sans-serif, sans-serif" font-size="12px" font-style="normal" font-weight="normal" text-decoration="normal" x="21" y="242" text-anchor="start" dominant-baseline="alphabetic" fill-opacity="1">4</text><text fill="none" stroke="rgb(255,255,255)" font-family="geogebra-sans-serif, sans-serif" font-size="12px" font-style="normal" font-weight="normal" text-decoration="normal" x="21" y="242" text-anchor="start" dominant-baseline="alphabetic" stroke-opacity="1" stroke-linejoin="bevel" stroke-miterlimit="10" stroke-width="3">4</text><text fill="rgb(37,37,37)" stroke="none" font-family="geogebra-sans-serif, sans-serif" font-size="12px" font-style="normal" font-weight="normal" text-decoration="normal" x="21" y="242" text-anchor="start" dominant-baseline="alphabetic" fill-opacity="1">4</text><text fill="rgb(37,37,37)" stroke="none" font-family="geogebra-sans-serif, sans-serif" font-size="12px" font-style="normal" font-weight="normal" text-decoration="normal" x="21" y="191" text-anchor="start" dominant-baseline="alphabetic" fill-opacity="1">5</text><text fill="none" stroke="rgb(255,255,255)" font-family="geogebra-sans-serif, sans-serif" font-size="12px" font-style="normal" font-weight="normal" text-decoration="normal" x="21" y="191" text-anchor="start" dominant-baseline="alphabetic" stroke-opacity="1" stroke-linejoin="bevel" stroke-miterlimit="10" stroke-width="3">5</text><text fill="rgb(37,37,37)" stroke="none" font-family="geogebra-sans-serif, sans-serif" font-size="12px" font-style="normal" font-weight="normal" text-decoration="normal" x="21" y="191" text-anchor="start" dominant-baseline="alphabetic" fill-opacity="1">5</text><text fill="rgb(37,37,37)" stroke="none" font-family="geogebra-sans-serif, sans-serif" font-size="12px" font-style="normal" font-weight="normal" text-decoration="normal" x="21" y="141" text-anchor="start" dominant-baseline="alphabetic" fill-opacity="1">6</text><text fill="none" stroke="rgb(255,255,255)" font-family="geogebra-sans-serif, sans-serif" font-size="12px" font-style="normal" font-weight="normal" text-decoration="normal" x="21" y="141" text-anchor="start" dominant-baseline="alphabetic" stroke-opacity="1" stroke-linejoin="bevel" stroke-miterlimit="10" stroke-width="3">6</text><text fill="rgb(37,37,37)" stroke="none" font-family="geogebra-sans-serif, sans-serif" font-size="12px" font-style="normal" font-weight="normal" text-decoration="normal" x="21" y="141" text-anchor="start" dominant-baseline="alphabetic" fill-opacity="1">6</text><text fill="rgb(37,37,37)" stroke="none" font-family="geogebra-sans-serif, sans-serif" font-size="12px" font-style="normal" font-weight="normal" text-decoration="normal" x="21" y="90" text-anchor="start" dominant-baseline="alphabetic" fill-opacity="1">7</text><text fill="none" stroke="rgb(255,255,255)" font-family="geogebra-sans-serif, sans-serif" font-size="12px" font-style="normal" font-weight="normal" text-decoration="normal" x="21" y="90" text-anchor="start" dominant-baseline="alphabetic" stroke-opacity="1" stroke-linejoin="bevel" stroke-miterlimit="10" stroke-width="3">7</text><text fill="rgb(37,37,37)" stroke="none" font-family="geogebra-sans-serif, sans-serif" font-size="12px" font-style="normal" font-weight="normal" text-decoration="normal" x="21" y="90" text-anchor="start" dominant-baseline="alphabetic" fill-opacity="1">7</text><text fill="rgb(37,37,37)" stroke="none" font-family="geogebra-sans-serif, sans-serif" font-size="12px" font-style="normal" font-weight="normal" text-decoration="normal" x="21" y="40" text-anchor="start" dominant-baseline="alphabetic" fill-opacity="1">8</text><text fill="none" stroke="rgb(255,255,255)" font-family="geogebra-sans-serif, sans-serif" font-size="12px" font-style="normal" font-weight="normal" text-decoration="normal" x="21" y="40" text-anchor="start" dominant-baseline="alphabetic" stroke-opacity="1" stroke-linejoin="bevel" stroke-miterlimit="10" stroke-width="3">8</text><text fill="rgb(37,37,37)" stroke="none" font-family="geogebra-sans-serif, sans-serif" font-size="12px" font-style="normal" font-weight="normal" text-decoration="normal" x="21" y="40" text-anchor="start" dominant-baseline="alphabetic" fill-opacity="1">8</text><text fill="rgb(37,37,37)" stroke="none" font-family="geogebra-sans-serif, sans-serif" font-size="12px" font-style="normal" font-weight="normal" text-decoration="normal" x="21" y="455" text-anchor="start" dominant-baseline="alphabetic" fill-opacity="1">0</text><text fill="none" stroke="rgb(255,255,255)" font-family="geogebra-sans-serif, sans-serif" font-size="12px" font-style="normal" font-weight="normal" text-decoration="normal" x="21" y="455" text-anchor="start" dominant-baseline="alphabetic" stroke-opacity="1" stroke-linejoin="bevel" stroke-miterlimit="10" stroke-width="3">0</text><text fill="rgb(37,37,37)" stroke="none" font-family="geogebra-sans-serif, sans-serif" font-size="12px" font-style="normal" font-weight="normal" text-decoration="normal" x="21" y="455" text-anchor="start" dominant-baseline="alphabetic" fill-opacity="1">0</text><path fill="none" stroke="rgb(255,0,0)" paint-order="fill stroke markers" d=" M 70.8621826171875 888.3890235262331 L 70.99365234375 883.2192092944397 L 71.1251220703125 878.1286212674485 L 71.256591796875 873.1157691852758 L 71.51953125 863.3174769745085 L 71.782470703125 853.8130594240838 L 72.04541015625 844.5917348785125 L 72.308349609375 835.6431885780736 L 72.5712890625 826.9575493735506 L 72.834228515625 818.5253677538448 L 73.09716796875 810.3375951039866 L 73.360107421875 802.3855641167651 L 73.623046875 794.6609702864773 L 73.885986328125 787.1558544181892 L 74.14892578125 779.8625860903953 L 74.411865234375 772.7738480131703 L 74.6748046875 765.8826212277702 L 74.937744140625 759.1821710972288 L 75.20068359375 752.6660340408434 L 75.463623046875 746.3280049685156 L 75.7265625 740.162125373799 L 75.989501953125 734.1626720471668 L 76.25244140625 728.3241463734857 L 76.515380859375 722.6412641799924 L 76.7783203125 717.1089461032091 L 77.041259765625 711.7223084452279 L 77.30419921875 706.4766544916511 L 77.567138671875 701.3674662652061 L 77.830078125 696.3903966906594 L 78.35595703125 686.8160353935642 L 78.8818359375 677.7219380804726 L 79.40771484375 669.0787665176165 L 79.93359375 660.8592861519344 L 80.45947265625 653.0381933160852 L 80.9853515625 645.5919583985485 L 81.51123046875 638.4986833430728 L 82.037109375 631.7379720254559 L 82.56298828125 625.2908122169788 L 83.0888671875 619.1394679856621 L 83.61474609375 613.2673815114323 L 84.140625 607.6590834014441 L 84.66650390625 602.3001106890922 L 85.1923828125 597.176931786268 L 86.244140625 587.5880791689248 L 87.2958984375 578.8004266071302 L 88.34765625 570.7329271411311 L 89.3994140625 563.3140790890851 L 90.451171875 556.4806485639185 L 91.5029296875 550.1765828334449 L 92.5546875 544.3520831388735 L 93.6064453125 538.9628112058112 L 94.658203125 533.969208215543 L 96.76171875 525.0312346287876 L 98.865234375 517.2969212295134 L 100.96875 510.57135080802595 L 103.072265625 504.6959438856713 L 105.17578125 499.54084782449684 L 109.3828125 490.9820241017112 L 113.58984375 484.2386839099813 L 117.796875 478.85158591671495 L 122.00390625 474.49319019494965 L 126.2109375 470.92588379625636 L 130.41796875 467.9746216045452 L 134.625 465.5086371460293 L 138.83203125 463.4289875275605 L 143.03906250000003 461.65992699117317 L 147.24609375 460.1428392324834 L 151.453125 458.8319085950339 L 155.66015624999997 457.6909912277396 L 159.8671875 456.69132610648165 L 164.07421875000003 455.8098416250757 L 168.28125 455.027889678977 L 172.48828125 454.33029008524176 L 176.69531250000003 453.7046026775624 L 180.90234375 453.1405680884381 L 185.109375 452.62967467477506 L 189.31640625000003 452.1648205961651 L 193.5234375 451.74004825848806 L 197.73046875 451.3503342190416 L 201.93750000000003 450.99142190912187 L 206.14453125 450.6596876416036 L 210.35156250000003 450.35203266324567 L 214.55859375000003 450.0657957134913 L 218.765625 449.79868182496364 L 222.97265625000003 449.5487040604771 L 227.17968750000003 449.31413560948397 L 231.38671875 449.09347022291246 L 235.59375000000003 448.8853893926369 L 239.80078125000003 448.68873501210726 L 244.0078125 448.50248651143426 L 248.21484375000003 448.3257416609155 L 252.421875 448.1577003946678 L 256.62890625 447.99765113053525 L 260.8359375 447.84495916122006 L 265.04296875 447.69905677031204 L 269.25 447.559434789919 L 273.45703125 447.42563536727073 L 277.6640625 447.29724574857056 L 281.87109375 447.173892921519 L 286.078125 447.0552389849001 L 290.28515625 446.9409771356404 L 294.4921875 446.8308281817915 L 298.69921874999994 446.7245375047222 L 302.90625 446.62187240604356 L 307.11328125 446.5226197849171 L 311.32031249999994 446.426584099804 L 315.52734375 446.33358557571387 L 319.734375 446.24345862385667 L 323.94140625 446.1560504454983 L 328.1484375 446.0712197959307 L 332.35546875 445.98883588792904 L 336.5625 445.90877741699165 L 340.76953125 445.83093169313025 L 344.9765625 445.75519386607743 L 349.18359375 445.68146623256183 L 353.390625 445.60965761582315 L 357.59765624999994 445.53968280883805 L 361.8046875 445.4714620738407 L 366.01171875 445.4049206916765 L 370.21875 445.3399885553485 L 374.42578125 445.2765998028226 L 378.6328125 445.21469248476984 L 382.83984375 445.15420826344973 L 387.046875 445.09509213939924 L 391.25390625 445.03729220298715 L 395.4609375 444.98075940824094 L 399.66796875 444.9254473666535 L 403.875 444.87131215894055 L 408.08203125 444.81831216294955 L 412.28906249999994 444.7664078961227 L 416.49609375 444.7155618710921 L 420.703125 444.665738463142 L 424.91015624999994 444.61690378840916 L 429.1171875 444.56902559181157 L 433.32421875 444.522073143805 L 437.53124999999994 444.4760171451576 L 441.73828125 444.43082963901816 L 445.9453125 444.3864839296269 L 450.15234374999994 444.3429545070829 L 454.359375 444.30021697764084 L 458.56640625 444.2582479990616 L 462.77343749999994 444.21702522058695 L 466.98046875000006 444.1765272271508 L 471.1875 444.1367334874755 L 475.39453125 444.0976243057354 L 479.60156250000006 444.0591807764983 L 483.80859375 444.0213847426838 L 488.015625 443.9842187562991 L 492.22265624999994 443.9476660417366 L 496.4296875 443.9117104614348 L 500.63671875 443.87633648372264 L 504.84374999999994 443.8415291526831 L 509.05078125 443.8072740598855 L 513.2578125 443.77355731784826 L 517.46484375 443.7403655351076 L 521.671875 443.7076857927756 L 525.87890625 443.67550562248164 L 530.0859375 443.64381298560113 L 534.29296875 443.6125962536806 L 538.5 443.58184418997746 L 542.70703125 443.55154593203946 L 546.9140625 443.5216909752525 L 551.12109375 443.4922691572933 L 555.328125 443.4632706434277 L 559.53515625 443.4346859125981 L 563.7421875 443.4065057442518 L 567.94921875 443.37872120585985 L 572.15625 443.35132364108586 L 576.36328125 443.3243046585626 L 580.5703125 443.2976561212389 L 584.77734375 443.2713701362634 L 588.984375 443.24543904537063 L 593.19140625 443.2198554157417 L 597.3984375 443.19461203130936 L 601.60546875 443.1697018844831 L 605.8125 443.1451181682691 L 610.01953125 443.12085426876223 L 614.2265625 443.0969037579894 L 618.43359375 443.0732603870848 L 622.640625 443.0499180797773 L 626.84765625 443.0268709261738 L 631.0546875 443.00411317682284 L 635.26171875 442.9816392370414 L 639.46875 442.95944366149297 L 643.67578125 442.93752114900184 L 647.8828125 442.9158665375925 L 652.08984375 442.8944747997412 L 656.296875 442.87334103782996 L 660.50390625 442.85246047979126 L 664.7109375 442.8318284749355 L 668.91796875 442.81144048995003 L 673.125 442.79129210506306 L 677.33203125 442.7713790103631 L 681.5390625 442.7516970022667 L 685.74609375 442.73224198012764 L 689.953125 442.7130099429799 L 694.16015625 442.6939969864093 L 698.3671875 442.67519929954614 L 702.57421875 442.65661316217506 L 706.78125 442.63823494195475 L 710.98828125 442.62006109174365 L 715.1953125 442.6020881470269 L 719.40234375 442.584312723439 L 723.609375 442.56673151437866 L 727.81640625 442.54934128871156 L 732.0234375 442.5321388885569 L 736.23046875 442.51512122715445 L 740.4375 442.4982852868081 L 744.64453125 442.48162811690304 L 748.8515625 442.46514683199337 L 753.05859375 442.4488386099568 L 757.265625 442.43270069021395 L 761.47265625 442.41673037200934 L 765.6796875 442.40092501275166 L 769.88671875 442.385282026411 L 774.09375 442.36979888196987 L 778.30078125 442.35447310192734 L 782.5078125 442.33930226085255 L 786.71484375 442.3242839839867 L 790.921875 442.30941594589103 L 795.12890625 442.2946958691394 L 799.3359375 442.28012152305325 L 803.54296875 442.26569072247776 L 807.75 442.25140132659686 L 811.9570312499999 442.23725123778706 L 816.1640625 442.2232384005065 L 820.37109375 442.2093608002201 L 824.5781249999999 442.1956164623577 L 828.78515625 442.1820034513049 L 832.9921875 442.1685198694255 L 837.1992187499999 442.15516385611306 L 841.40625 442.1419335868726 L 845.61328125 442.12882727242936 L 849.8203124999999 442.11584315786496 L 854.0273437499999 442.10297952177933 L 858.234375 442.0902346754774 L 862.4414062499999 442.0776069621806 L 866.6484374999999 442.06509475626086 L 870.85546875 442.0526964624976 L 875.0624999999999 442.0404105153561 L 879.2695312499999 442.02823537828687 L 883.4765625 442.0161695430454 L 887.6835937499999 442.0042115290312 L 891.8906249999999 441.9923598826455 L 896.09765625 441.98061317666765 L 900.3046874999999 441.9689700096488 L 904.5117187499999 441.95742900532247 L 908.71875 441.94598881203177 L 912.9257812499999 441.93464810217256 L 917.1328124999999 441.9234055716516 L 921.33984375 441.91225993936007 L 925.5468749999999 441.90120994666097 L 929.7539062499999 441.8902543568908 L 933.9609375 441.8793919548746 L 938.1679687499999 441.86862154645377 L 942.3749999999999 441.85794195802697 L 946.58203125 441.8473520361029 L 950.7890624999999 441.836850646865 L 954.9960937499999 441.8264366757475 L 959.203125 441.8161090270229 L 963.4101562499999 441.8058666233998 L 967.6171874999999 441.79570840563156 L 971.8242187499998 441.78563333213447 L 976.0312499999999 441.77564037861646 L 980.2382812499999 441.7657285377149 L 984.4453124999998 441.7558968186435 L 988.6523437499999 441.74614424684836 L 992.8593749999999 441.7364698636727 L 997.0664062499998 441.7268727260299 L 1001.2734374999999 441.71735190608456 L 1005.48046875 441.70790649094204 L 1009.6874999999998 441.6985355823448 L 1013.8945312499999 441.68923829637697 L 1018.1015625 441.680013763176 L 1022.3085937499999 441.670861126651 L 1026.515625 441.6617795442081 L 1030.72265625 441.65276818648283 L 1034.9296875 441.6438262370781 L 1039.13671875 441.6349528923095 L 1043.34375 441.6261473609557 L 1047.55078125 441.6174088640155 L 1051.7578125 441.60873663447006 L 1055.96484375 441.6001299170511 L 1060.171875 441.5915879680147 L 1064.37890625 441.5831100549196 L 1068.5859375 441.57469545641146 L 1072.79296875 441.56634346201184 L 1077 441.5580533719118" stroke-opacity="0.8" stroke-linecap="round" stroke-linejoin="round" stroke-miterlimit="10" stroke-width="2.5"/><text fill="rgb(255,0,0)" stroke="none" font-family="geogebra-sans-serif, sans-serif" font-size="16px" font-style="normal" font-weight="normal" text-decoration="normal" x="71" y="873" text-anchor="start" dominant-baseline="alphabetic" fill-opacity="1">h</text><text fill="none" stroke="rgb(255,255,255)" font-family="geogebra-sans-serif, sans-serif" font-size="16px" font-style="normal" font-weight="normal" text-decoration="normal" x="71" y="873" text-anchor="start" dominant-baseline="alphabetic" stroke-opacity="1" stroke-linejoin="bevel" stroke-miterlimit="10" stroke-width="3">h</text><text fill="rgb(255,0,0)" stroke="none" font-family="geogebra-sans-serif, sans-serif" font-size="16px" font-style="normal" font-weight="normal" text-decoration="normal" x="71" y="873" text-anchor="start" dominant-baseline="alphabetic" fill-opacity="1">h</text><path fill="none" stroke="rgb(255,127,0)" paint-order="fill stroke markers" d=" M 109.6276892388604 891.0000000000001 L 109.74834279831869 891 L 109.90869140625 885.72737528574 L 110.171630859375 877.230214387115 L 110.4345703125 868.879045112802 L 110.697509765625 860.6710407817998 L 110.96044921875 852.6034374974536 L 111.223388671875 844.6735325603529 L 111.486328125 836.8786829263612 L 111.749267578125 829.2163037083375 L 112.01220703125 821.6838667201916 L 112.275146484375 814.2788990619315 L 112.5380859375 806.9989817444141 L 112.801025390625 799.8417483525747 L 113.06396484375 792.8048837459295 L 113.326904296875 785.8861227951895 L 113.58984375 779.0832491538827 L 113.852783203125 772.3940940638979 L 114.11572265625 765.8165351939081 L 114.378662109375 759.3484955096676 L 114.6416015625 752.9879421752175 L 114.904541015625 746.732885484044 L 115.16748046875 740.5813778192976 L 115.430419921875 734.5315126421865 L 115.693359375 728.5814235076924 L 115.956298828125 722.7292831067975 L 116.21923828125 716.9733023344209 L 116.482177734375 711.3117293823002 L 116.7451171875 705.7428488560743 L 117.008056640625 700.2649809158563 L 117.27099609375 694.8764804395882 L 117.533935546875 689.5757362085212 L 117.796875 684.3611701141626 L 118.059814453125 679.2312363860578 L 118.32275390625 674.1844208398093 L 118.8486328125 664.3342411105923 L 119.37451171875 654.799121815837 L 119.900390625 645.568014287423 L 120.42626953125 636.6303094657782 L 120.9521484375 627.9758181214038 L 121.47802734375 619.594752072674 L 122.00390625 611.4777063442963 L 122.52978515625 603.6156422142395 L 123.0556640625 595.999871100106 L 123.58154296875 588.6220392388979 L 124.107421875 581.4741131168977 L 124.63330078125 574.5483656089809 L 125.1591796875 567.8373627890865 L 125.68505859375 561.3339513758599 L 126.2109375 555.0312467795752 L 126.73681640625 548.922621718445 L 127.2626953125 543.0016953742838 L 127.78857421875 537.2623230592144 L 128.314453125 531.6985863667562 L 128.84033203125 526.3047837821468 L 129.3662109375 521.0754217281877 L 130.41796875 511.0890337373172 L 131.4697265625 501.6993176129491 L 132.521484375 492.8689880159857 L 133.5732421875 484.5633570735005 L 134.625 476.7501318294544 L 135.6767578125 469.3992292494052 L 136.72851562500003 462.4826071036691 L 137.7802734375 455.97410922800987 L 138.83203125 449.8493238158342 L 139.88378906250003 444.08545353347296 L 140.935546875 438.6611963724551 L 143.03906250000003 428.7531425590404 L 145.142578125 419.98071179664055 L 147.24609375 412.21723465243275 L 149.34960937499997 405.3514056385046 L 151.453125 399.2852274069347 L 153.556640625 393.9322573662191 L 155.66015624999997 389.2161081661658 L 159.8671875 381.4314650582664 L 164.07421875000003 375.4767414838576 L 168.28125 370.9924963564848 L 172.48828125 367.6928875267809 L 176.69531250000003 365.349423361617 L 180.90234375 363.77859350097276 L 185.109375 362.8323816584775 L 189.31640625000003 362.3909376294632 L 193.5234375 362.3568797061314 L 197.73046875 362.6508373153803 L 201.93750000000003 363.2079436404689 L 206.14453125 363.97506068229666 L 210.35156250000003 364.9085725269633 L 214.55859375000003 365.97262198746773 L 218.765625 367.1376951235184 L 222.97265625000003 368.379480138665 L 227.17968750000003 369.67794375491434 L 231.38671875 371.0165807737726 L 235.59375000000003 372.3818021668187 L 239.80078125000003 373.7624344423503 L 244.0078125 375.1493087548668 L 248.21484375000003 376.53492266684714 L 252.421875 377.9131609398866 L 256.62890625 379.27906445163285 L 260.8359375 380.62863847722934 L 265.04296875 381.95869326893785 L 269.25 383.26671121423516 L 273.45703125 384.5507359268186 L 277.6640625 385.8092794850121 L 281.87109375 387.04124472322974 L 286.078125 388.24586003954755 L 290.28515625 389.4226246334556 L 294.4921875 390.5712624540031 L 298.69921874999994 391.69168343670117 L 302.90625 392.78395085106354 L 307.11328125 393.84825378013005 L 311.32031249999994 394.8848839171509 L 315.52734375 395.8942159995319 L 319.734375 396.87669131153854 L 323.94140625 397.8328037794614 L 328.1484375 398.763088259436 L 332.35546875 399.66811068171546 L 336.5625 400.5484597682006 L 340.76953125 401.4047400842901 L 344.9765625 402.2375662231525 L 349.18359375 403.04755795157143 L 353.390625 403.83533617259434 L 357.59765624999994 404.60151958216005 L 361.8046875 405.34672191537663 L 366.01171875 406.07154969373426 L 370.21875 406.7766003977417 L 374.42578125 407.4624610006559 L 378.6328125 408.1297068084532 L 382.83984375 408.77890055924365 L 387.046875 409.4105917421727 L 391.25390625 410.0253161016842 L 395.4609375 410.62359529798164 L 399.66796875 411.20593669876354 L 403.875 411.7728332809267 L 408.08203125 412.3247636240225 L 412.28906249999994 412.86219197990056 L 416.49609375 413.3855684052355 L 420.703125 413.8953289455791 L 424.91015624999994 414.3918958612393 L 429.1171875 414.8756778867203 L 433.32421875 415.34707051667954 L 437.53124999999994 415.8064563124115 L 441.73828125 416.2542052237732 L 445.9453125 416.69067492223917 L 450.15234374999994 417.11621114144435 L 454.359375 417.53114802214367 L 458.56640625 417.9358084590112 L 462.77343749999994 418.33050444712256 L 466.98046875000006 418.7155374263296 L 471.1875 419.0911986220446 L 475.39453125 419.45776938122185 L 479.60156250000006 419.815521502549 L 483.80859375 420.16471756006024 L 488.015625 420.505611219547 L 492.22265624999994 420.8384475472875 L 496.4296875 421.1634633107351 L 500.63671875 421.48088727091056 L 504.84374999999994 421.7909404663301 L 509.05078125 422.09383648837377 L 513.2578125 422.389781748063 L 517.46484375 422.6789757342649 L 521.671875 422.96161126338785 L 525.87890625 423.2378747206648 L 530.0859375 423.50794629315345 L 534.29296875 423.7720001946029 L 538.5 424.0302048823589 L 542.70703125 424.28272326649096 L 546.9140625 424.52971291133974 L 551.12109375 424.77132622968804 L 555.328125 425.0077106697685 L 559.53515625 425.23900889532104 L 563.7421875 425.465358958918 L 567.94921875 425.6868944687745 L 572.15625 425.90374474926006 L 576.36328125 426.1160349953269 L 580.5703125 426.3238864210665 L 584.77734375 426.5274164026037 L 588.984375 426.7267386155324 L 593.19140625 426.9219631670936 L 597.3984375 427.1131967232909 L 601.60546875 427.30054263113334 L 605.8125 427.4841010361912 L 610.01953125 427.6639689956438 L 614.2265625 427.8402405869932 L 618.43359375 428.0130070126121 L 622.640625 428.1823567002888 L 626.84765625 428.34837539992634 L 631.0546875 428.51114627654755 L 635.26171875 428.6707499997517 L 639.46875 428.82726482976403 L 643.67578125 428.9807667002142 L 647.8828125 429.13132929777265 L 652.08984375 429.2790241387723 L 656.296875 429.4239206429346 L 660.50390625 429.5660862043169 L 664.7109375 429.7055862595915 L 668.91796875 429.8424843537646 L 673.125 429.97684220343655 L 677.33203125 430.1087197577024 L 681.5390625 430.2381752567872 L 685.74609375 430.365265288507 L 689.953125 430.49004484264185 L 694.16015625 430.61256736330483 L 698.3671875 430.73288479938634 L 702.57421875 430.85104765315134 L 706.78125 430.96710502706156 L 710.98828125 431.0811046688949 L 715.1953125 431.19309301522753 L 719.40234375 431.3031152333454 L 723.609375 431.41121526164534 L 727.81640625 431.51743584858684 L 732.0234375 431.62181859025014 L 736.23046875 431.7244039665558 L 740.4375 431.8252313761987 L 744.64453125 431.924339170345 L 748.8515625 432.0217646851418 L 753.05859375 432.1175442730851 L 757.265625 432.2117133332891 L 761.47265625 432.30430634070103 L 765.6796875 432.3953568743007 L 769.88671875 432.48489764432446 L 774.09375 432.5729605185501 L 778.30078125 432.65957654767953 L 782.5078125 432.7447759898528 L 786.71484375 432.8285883343262 L 790.921875 432.9110423243465 L 795.12890625 432.9921659792519 L 799.3359375 433.07198661582754 L 803.54296875 433.1505308689443 L 807.75 433.2278247115079 L 811.9570312499999 433.3038934737428 L 816.1640625 433.37876186183684 L 820.37109375 433.452453975969 L 824.5781249999999 433.52499332774397 L 828.78515625 433.5964028570547 L 832.9921875 433.66670494839383 L 837.1992187499999 433.73592144663445 L 841.40625 433.8040736722991 L 845.61328125 433.87118243633563 L 849.8203124999999 433.9372680544176 L 854.0273437499999 434.0023503607864 L 858.234375 434.0664487216518 L 862.4414062499999 434.1295820481656 L 866.6484374999999 434.191768808985 L 870.85546875 434.25302704243893 L 875.0624999999999 434.31337436831257 L 879.2695312499999 434.3728279992621 L 883.4765625 434.4314047518737 L 887.6835937499999 434.489121057379 L 891.8906249999999 434.5459929720388 L 896.09765625 434.602036187206 L 900.3046874999999 434.6572660390803 L 904.5117187499999 434.71169751816365 L 908.71875 434.7653452784276 L 912.9257812499999 434.81822364620245 L 917.1328124999999 434.8703466287972 L 921.33984375 434.9217279228597 L 925.5468749999999 434.97238092248574 L 929.7539062499999 435.0223187270859 L 933.9609375 435.07155414901723 L 938.1679687499999 435.12009972098923 L 942.3749999999999 435.16796770324993 L 946.58203125 435.2151700905608 L 950.7890624999999 435.2617186189664 L 954.9960937499999 435.30762477236686 L 959.203125 435.35289978889756 L 963.4101562499999 435.3975546671247 L 967.6171874999999 435.4416001720613 L 971.8242187499998 435.4850468410096 L 976.0312499999999 435.5279049892358 L 980.2382812499999 435.57018471548304 L 984.4453124999998 435.61189590732624 L 988.6523437499999 435.6530482463759 L 992.8593749999999 435.69365121333374 L 997.0664062499998 435.7337140929065 L 1001.2734374999999 435.7732459785815 L 1005.48046875 435.81225577726855 L 1009.6874999999998 435.85075221381226 L 1013.8945312499999 435.8887438353791 L 1018.1015625 435.92623901572335 L 1022.3085937499999 435.9632459593347 L 1026.515625 435.9997727054722 L 1030.72265625 436.0358271320881 L 1034.9296875 436.07141695964367 L 1039.13671875 436.1065497548223 L 1043.34375 436.1412329341412 L 1047.55078125 436.17547376746586 L 1051.7578125 436.2092793814301 L 1055.96484375 436.24265676276417 L 1060.171875 436.2756127615341 L 1064.37890625 436.3081540942945 L 1068.5859375 436.34028734715815 L 1072.79296875 436.3720189787843 L 1077 436.40335532328777" stroke-opacity="0.8" stroke-linecap="round" stroke-linejoin="round" stroke-miterlimit="10" stroke-width="2.5"/><text fill="rgb(255,127,0)" stroke="none" font-family="geogebra-sans-serif, sans-serif" font-size="16px" font-style="normal" font-weight="normal" text-decoration="normal" x="110" y="873" text-anchor="start" dominant-baseline="alphabetic" fill-opacity="1">f</text><text fill="none" stroke="rgb(255,255,255)" font-family="geogebra-sans-serif, sans-serif" font-size="16px" font-style="normal" font-weight="normal" text-decoration="normal" x="110" y="873" text-anchor="start" dominant-baseline="alphabetic" stroke-opacity="1" stroke-linejoin="bevel" stroke-miterlimit="10" stroke-width="3">f</text><text fill="rgb(255,127,0)" stroke="none" font-family="geogebra-sans-serif, sans-serif" font-size="16px" font-style="normal" font-weight="normal" text-decoration="normal" x="110" y="873" text-anchor="start" dominant-baseline="alphabetic" fill-opacity="1">f</text><path fill="none" stroke="rgb(0,0,255)" paint-order="fill stroke markers" d=" M 124.7647705078125 887.7753772285218 L 124.896240234375 881.1639560901322 L 125.0277099609375 874.6049443901466 L 125.1591796875 868.0978988933313 L 125.2906494140625 861.6423805977242 L 125.422119140625 855.2379546888878 L 125.5535888671875 848.8841904947135 L 125.68505859375 842.5806614407754 L 125.8165283203125 836.3269450062171 L 125.947998046875 830.1226226801803 L 126.0794677734375 823.967279918754 L 126.2109375 817.8605061024467 L 126.3424072265625 811.801894494165 L 126.473876953125 805.7910421977004 L 126.6053466796875 799.8275501167116 L 126.73681640625 793.9110229142041 L 126.8682861328125 788.0410689724861 L 126.999755859375 782.217300353612 L 127.1312255859375 776.4393327602876 L 127.2626953125 770.7067854972582 L 127.3941650390625 765.0192814331307 L 127.525634765625 759.3764469626763 L 127.6571044921875 753.777911969561 L 127.78857421875 748.2233097895324 L 127.9200439453125 742.7122771740242 L 128.051513671875 737.2444542542185 L 128.1829833984375 731.8194845054991 L 128.314453125 726.437014712352 L 128.4459228515625 721.0966949336637 L 128.577392578125 715.7981784684312 L 128.7088623046875 710.5411218218808 L 128.84033203125 705.3251846719752 L 128.9718017578125 700.1500298363137 L 129.103271484375 695.0153232394296 L 129.2347412109375 689.9207338804583 L 129.3662109375 684.8659338011865 L 129.629150390625 674.8744046730579 L 129.89208984375 665.03817185159 L 130.155029296875 655.3547180325814 L 130.41796875 645.8215716522299 L 130.680908203125 636.436305950328 L 130.94384765625 627.1965380549228 L 131.206787109375 618.099928087927 L 131.4697265625 609.1441782911232 L 131.732666015625 600.3270321720565 L 131.99560546875 591.646273669312 L 132.258544921875 583.0997263366941 L 132.521484375 574.6852525458169 L 132.784423828125 566.4007527066608 L 133.04736328125 558.2441645056481 L 133.310302734375 550.2134621607805 L 133.5732421875 542.306655693435 L 133.836181640625 534.5217902163996 L 134.09912109375 526.8569452377393 L 134.362060546875 519.3102339801136 L 134.625 511.8798027151577 L 134.887939453125 504.563830112558 L 135.15087890625 497.36052660346405 L 135.413818359375 490.2681337578928 L 135.6767578125 483.28492367576746 L 135.939697265625 476.4091983912775 L 136.20263671875 469.63928929023183 L 136.46557617187497 462.9735565400791 L 136.72851562500003 456.41038853230543 L 136.991455078125 449.94820133691417 L 137.25439453125 443.58543816866614 L 137.517333984375 437.3205688648486 L 137.7802734375 431.15208937424745 L 138.04321289062497 425.0785212570968 L 138.30615234375003 419.0984111957161 L 138.569091796875 413.210330515598 L 138.83203125 407.41287471668994 L 139.094970703125 401.70466301463694 L 139.35791015625 396.08433789174626 L 139.62084960937497 390.55056465744485 L 139.88378906250003 385.10203101801045 L 140.146728515625 379.737446655361 L 140.40966796875 374.4555428146817 L 140.672607421875 369.2550719006945 L 140.935546875 364.1348070823676 L 141.19848632812497 359.09354190586504 L 141.46142578125003 354.13008991554574 L 141.9873046875 344.43197744279206 L 142.51318359375 335.03136407069803 L 143.03906250000003 325.91944120862547 L 143.56494140625 317.0876864525419 L 144.0908203125 308.52785320729726 L 144.61669921875003 300.23196072770054 L 145.142578125 292.1922845597296 L 145.66845703125 284.40134736409357 L 146.19433593750003 276.8519101052872 L 146.72021484375 269.53696359002515 L 147.24609375 262.44972033977433 L 147.77197265625003 255.5836067828125 L 148.2978515625 248.93225575193497 L 148.82373046875 242.48949927460808 L 149.34960937499997 236.24936164297415 L 149.87548828125 230.20605275172258 L 150.4013671875 224.35396169239294 L 150.92724609374997 218.68765059321956 L 151.453125 213.20184869412506 L 151.97900390625 207.89144664696263 L 152.50488281249997 202.75149103155186 L 153.556640625 192.9638535901838 L 154.6083984375 183.8022319241738 L 155.66015624999997 175.23209859874788 L 156.7119140625 167.22096072626294 L 157.763671875 159.7382278000718 L 158.81542968749997 152.75508900856744 L 159.8671875 146.24439928259392 L 160.9189453125 140.18057339357756 L 161.97070312499997 134.5394874779327 L 163.0224609375 129.2983874160946 L 164.07421875000003 124.43580354255113 L 166.177734375 115.76625674502628 L 168.28125 108.38189222369704 L 170.38476562500003 102.14975073656927 L 172.48828125 96.95100453159068 L 176.69531250000003 89.23948799928769 L 178.798828125 86.54607253830181 L 180.90234375 84.52242291514352 L 183.00585937500003 83.09966005441265 L 184.0576171875 82.59400406476499 L 185.109375 82.21584098254777 L 187.212890625 81.8152127285199 L 188.2646484375 81.78020116222797 L 189.31640625000003 81.84755335851997 L 191.419921875 82.26758909427838 L 193.5234375 83.03447798001673 L 197.73046875 85.46490949143885 L 201.93750000000003 88.88457405092822 L 206.14453125 93.08560143446232 L 210.35156250000003 97.89775960108119 L 214.55859375000003 103.18145409364399 L 218.765625 108.82211168150207 L 222.97265625000003 114.72565538300194 L 227.17968750000003 120.81484420938426 L 231.38671875 127.0263012452105 L 235.59375000000003 133.30809208613687 L 239.80078125000003 139.61774516185994 L 244.0078125 145.92062826559345 L 248.21484375000003 152.18861331038357 L 252.421875 158.3989751436955 L 256.62890625 164.5334810800628 L 260.8359375 170.57763633975839 L 265.04296875 176.52005732714355 L 269.25 182.35195004022324 L 273.45703125 188.0666751754058 L 277.6640625 193.6593849113917 L 281.87109375 199.12671910357585 L 286.078125 204.4665508353211 L 290.28515625 209.6777730641281 L 294.4921875 214.76011955466427 L 298.69921874999994 219.7140144741354 L 302.90625 224.54044599175086 L 307.11328125 229.2408600151704 L 311.32031249999994 233.81707084636 L 315.52734375 238.27118607396335 L 319.734375 242.60554346054442 L 323.94140625 246.82265794809624 L 328.1484375 250.92517720789004 L 332.35546875 254.91584441229793 L 336.5625 258.7974671157285 L 340.76953125 262.5728913066645 L 344.9765625 266.244979839012 L 349.18359375 269.8165945734765 L 353.390625 273.29058166250417 L 357.59765624999994 276.66975949879117 L 361.8046875 279.9569089201764 L 366.01171875 283.1547653251645 L 370.21875 286.26601240522035 L 374.42578125 289.29327724388475 L 378.6328125 292.2391265699636 L 382.83984375 295.1060639835995 L 387.046875 297.89652800083985 L 391.25390625 300.61289078511265 L 395.4609375 303.25745745342135 L 399.66796875 305.8324658616075 L 403.875 308.3400867871334 L 408.08203125 310.7824244398756 L 412.28906249999994 313.1615172417064 L 416.49609375 315.4793388244338 L 420.703125 317.7377992031948 L 424.91015624999994 319.93874608883345 L 429.1171875 322.08396630831027 L 433.32421875 324.1751873069124 L 437.53124999999994 326.2140787100799 L 441.73828125 328.2022539261327 L 445.9453125 330.14127177415264 L 450.15234374999994 332.032638123824 L 454.359375 333.87780753621513 L 458.56640625 335.6781848963536 L 462.77343749999994 337.4351270300464 L 466.98046875000006 339.1499442987632 L 471.1875 340.82390216757307 L 475.39453125 342.4582227421171 L 479.60156250000006 344.05408627145755 L 483.80859375 345.6126326143617 L 488.015625 347.13496266719676 L 492.22265624999994 348.6221397521341 L 496.4296875 350.07519096479854 L 500.63671875 351.4951084808729 L 504.84374999999994 352.8828508214767 L 509.05078125 354.23934407739966 L 513.2578125 355.5654830924841 L 517.46484375 356.8621326066315 L 521.671875 358.13012835905124 L 525.87890625 359.37027815248734 L 530.0859375 360.5833628792543 L 534.29296875 361.7701375099852 L 538.5 362.9313320460509 L 542.70703125 364.06765243665194 L 546.9140625 365.1797814616123 L 551.12109375 366.26837958092153 L 555.328125 367.33408575208375 L 559.53515625 368.37751821633015 L 563.7421875 369.39927525474985 L 567.94921875 370.3999359153828 L 572.15625 371.3800607123045 L 576.36328125 372.3401922977155 L 580.5703125 373.2808561080278 L 584.77734375 374.2025609849172 L 588.984375 375.1057997722878 L 593.19140625 375.9910498900684 L 597.3984375 376.8587738857333 L 601.60546875 377.7094199644152 L 605.8125 378.5434224984477 L 610.01953125 379.3612025171489 L 614.2265625 380.16316817763015 L 618.43359375 380.94971521738483 L 622.640625 381.7212273893872 L 626.84765625 382.478076880403 L 631.0546875 383.22062471318736 L 635.26171875 383.9492211332213 L 639.46875 384.66420598061126 L 643.67578125 385.3659090477528 L 647.8828125 386.0546504233356 L 652.08984375 386.73074082324433 L 656.296875 387.3944819088867 L 660.50390625 388.04616659345925 L 664.7109375 388.68607933664134 L 668.91796875 389.3144964281852 L 673.125 389.9316862608538 L 677.33203125 390.5379095931378 L 681.5390625 391.13341980216376 L 685.74609375 391.71846312719254 L 689.953125 392.29327890408547 L 694.16015625 392.8580997911035 L 698.3671875 393.41315198638705 L 702.57421875 393.9586554374521 L 706.78125 394.49482404302057 L 710.98828125 395.0218658474926 L 715.1953125 395.53998322835463 L 719.40234375 396.0493730768029 L 723.609375 396.5502269718537 L 727.81640625 397.04273134819715 L 732.0234375 397.52706765804135 L 736.23046875 398.00341252718505 L 740.4375 398.47193790554434 L 744.64453125 398.932811212351 L 748.8515625 399.38619547623074 L 753.05859375 399.83224947036103 L 757.265625 400.2711278428989 L 761.47265625 400.70298124286256 L 765.6796875 401.12795644164146 L 769.88671875 401.546196450304 L 774.09375 401.9578406328632 L 778.30078125 402.36302481565525 L 782.5078125 402.76188139297875 L 786.71484375 403.1545394291372 L 790.921875 403.54112475702 L 795.12890625 403.9217600733537 L 799.3359375 404.2965650307471 L 803.54296875 404.6656563266523 L 807.75 405.0291477893547 L 811.9570312499999 405.3871504611044 L 816.1640625 405.73977267849403 L 820.37109375 406.0871201501843 L 824.5781249999999 406.42929603207625 L 828.78515625 406.7664010000228 L 832.9921875 407.09853332016996 L 837.1992187499999 407.4257889170139 L 841.40625 407.7482614392571 L 845.61328125 408.0660423235427 L 849.8203124999999 408.37922085614434 L 854.0273437499999 408.6878842326836 L 858.234375 408.99211761594677 L 862.4414062499999 409.2920041918687 L 866.6484374999999 409.58762522374775 L 870.85546875 409.87906010475564 L 875.0624999999999 410.1663864088017 L 879.2695312499999 410.44967993980964 L 883.4765625 410.7290147794619 L 887.6835937499999 411.0044633334659 L 891.8906249999999 411.27609637639273 L 896.09765625 411.54398309513823 L 900.3046874999999 411.8081911310538 L 904.5117187499999 412.06878662079237 L 908.71875 412.3258342359146 L 912.9257812499999 412.579397221296 L 917.1328124999999 412.82953743237726 L 921.33984375 413.07631537129595 L 925.5468749999999 413.31979022193815 L 929.7539062499999 413.5600198839454 L 933.9609375 413.7970610057131 L 938.1679687499999 414.03096901641266 L 942.3749999999999 414.2617981570718 L 946.58203125 414.48960151074164 L 950.7890624999999 414.71443103178353 L 954.9960937499999 414.9363375743025 L 959.203125 415.1553709197559 L 963.4101562499999 415.3715798037651 L 967.6171874999999 415.58501194215444 L 971.8242187499998 415.7957140562443 L 976.0312499999999 416.0037318974212 L 980.2382812499999 416.20911027100834 L 984.4453124999998 416.4118930594599 L 988.6523437499999 416.6121232448994 L 992.8593749999999 416.8098429310243 L 997.0664062499998 417.0050933643958 L 1001.2734374999999 417.1979149551344 L 1005.48046875 417.388347297039 L 1009.6874999999998 417.57642918714805 L 1013.8945312499999 417.7621986447608 L 1018.1015625 417.9456929299338 L 1022.3085937499999 418.1269485614711 L 1026.515625 418.3060013344225 L 1030.72265625 418.4828863371046 L 1034.9296875 418.6576379676611 L 1039.13671875 418.83028995017486 L 1043.34375 419.0008753503458 L 1047.55078125 419.1694265907482 L 1051.7578125 419.33597546568035 L 1055.96484375 419.5005531556175 L 1060.171875 419.6631902412821 L 1064.37890625 419.8239167173409 L 1068.5859375 419.98276200574156 L 1072.79296875 420.1397549686982 L 1077 420.2949239213377" stroke-opacity="0.8" stroke-linecap="round" stroke-linejoin="round" stroke-miterlimit="10" stroke-width="2.5"/><text fill="rgb(0,0,255)" stroke="none" font-family="geogebra-sans-serif, sans-serif" font-size="16px" font-style="normal" font-weight="normal" text-decoration="normal" x="125" y="873" text-anchor="start" dominant-baseline="alphabetic" fill-opacity="1">r</text><text fill="none" stroke="rgb(255,255,255)" font-family="geogebra-sans-serif, sans-serif" font-size="16px" font-style="normal" font-weight="normal" text-decoration="normal" x="125" y="873" text-anchor="start" dominant-baseline="alphabetic" stroke-opacity="1" stroke-linejoin="bevel" stroke-miterlimit="10" stroke-width="3">r</text><text fill="rgb(0,0,255)" stroke="none" font-family="geogebra-sans-serif, sans-serif" font-size="16px" font-style="normal" font-weight="normal" text-decoration="normal" x="125" y="873" text-anchor="start" dominant-baseline="alphabetic" fill-opacity="1">r</text><path fill="none" stroke="rgb(0,255,0)" paint-order="fill stroke markers" d=" M 119.37451171875 886.1638291959651 L 119.5059814453125 880.9674784243209 L 119.637451171875 875.8133108402221 L 119.7689208984375 870.7009525221177 L 119.900390625 865.6300333173785 L 120.0318603515625 860.6001867991891 L 120.163330078125 855.6110502239829 L 120.42626953125 845.7534740930103 L 120.689208984375 836.0544750580282 L 120.9521484375 826.5112795513496 L 121.215087890625 817.1211690352046 L 121.47802734375 807.8814787650062 L 121.740966796875 798.7895965838092 L 122.00390625 789.8429617470917 L 122.266845703125 781.039063776994 L 122.52978515625 772.3754413452225 L 122.792724609375 763.8496811837978 L 123.0556640625 755.4594170228853 L 123.318603515625 747.202328554966 L 123.58154296875 739.0761404246118 L 123.844482421875 731.0786212431656 L 124.107421875 723.2075826276497 L 124.370361328125 715.4608782632365 L 124.63330078125 707.8364029886317 L 124.896240234375 700.3320919037685 L 125.1591796875 692.9459194991887 L 125.422119140625 685.6758988065328 L 125.68505859375 678.520080569575 L 125.947998046875 671.476552435246 L 126.2109375 664.5434381641048 L 126.473876953125 657.7188968597542 L 126.73681640625 651.0011222166783 L 126.999755859375 644.3883417860252 L 127.2626953125 637.8788162588564 L 127.525634765625 631.4708387663975 L 127.78857421875 625.162734196847 L 128.051513671875 618.9528585283083 L 128.314453125 612.8395981774213 L 128.577392578125 606.8213693632792 L 128.84033203125 600.8966174862419 L 129.103271484375 595.0638165212509 L 129.3662109375 589.3214684252706 L 129.629150390625 583.6681025584976 L 129.89208984375 578.1022751189737 L 130.155029296875 572.6225685902643 L 130.41796875 567.2275912018642 L 130.680908203125 561.9159764020112 L 130.94384765625 556.6863823425776 L 131.206787109375 551.537491375751 L 131.4697265625 546.4680095621881 L 131.99560546875 536.5622133068123 L 132.521484375 526.9590982367483 L 133.04736328125 517.6491186964772 L 133.5732421875 508.6230648318065 L 134.09912109375 499.87204932225217 L 134.625 491.3874946984975 L 135.15087890625 483.16112121638025 L 135.6767578125 475.18493526038964 L 136.20263671875 467.4512182510918 L 136.72851562500003 459.9525160322675 L 137.25439453125 452.681628714805 L 137.7802734375 445.6316009556089 L 138.30615234375003 438.79571265092255 L 138.83203125 432.16747002452405 L 139.35791015625 425.7405970922606 L 139.88378906250003 419.50902748536356 L 140.40966796875 413.4668966158591 L 140.935546875 407.60853416825205 L 141.46142578125003 401.92845690246656 L 141.9873046875 396.4213617537786 L 142.51318359375 391.08211921618647 L 143.03906250000003 385.90576699636756 L 144.0908203125 376.02268412066064 L 145.142578125 366.735533781261 L 146.19433593750003 358.0100471318279 L 147.24609375 349.81410368882496 L 148.2978515625 342.1175818000835 L 149.34960937499997 334.8922206403671 L 150.4013671875 328.1114927566932 L 151.453125 321.75048627659737 L 152.50488281249997 315.7857959738661 L 153.556640625 310.19542245953767 L 154.6083984375 304.9586788320189 L 155.66015624999997 300.0561041797416 L 157.763671875 291.1812727151916 L 159.8671875 283.43685431840265 L 161.97070312499997 276.7038222986184 L 164.07421875000003 270.8763506749799 L 168.28125 261.5714113011567 L 172.48828125 254.88376961211836 L 174.591796875 252.35790975432164 L 176.69531250000003 250.30361696064637 L 180.90234375 247.4218557568773 L 181.9541015625 246.92666288251635 L 183.00585937500003 246.51222603807838 L 185.109375 245.90882304350683 L 187.212890625 245.5801581337471 L 189.31640625000003 245.49786084990353 L 193.5234375 245.97254565358367 L 197.73046875 247.15670072207135 L 201.93750000000003 248.90653964482686 L 206.14453125 251.10445266236573 L 210.35156250000003 253.65406714117907 L 214.55859375000003 256.47630203170786 L 218.765625 259.5062020226783 L 222.97265625000003 262.690386490472 L 227.17968750000003 265.9849856109435 L 231.38671875 269.3539643035383 L 235.59375000000003 272.7677562998679 L 239.80078125000003 276.202147242146 L 244.0078125 279.6373585510029 L 248.21484375000003 283.0572937683206 L 252.421875 286.44891685814036 L 256.62890625 289.80173804681203 L 260.8359375 293.1073875866165 L 265.04296875 296.35926162652356 L 269.25 299.5522273917302 L 273.45703125 302.6823772803966 L 277.6640625 305.7468234126702 L 281.87109375 308.7435257150406 L 286.078125 311.67114787111984 L 290.28515625 314.52893647956915 L 294.4921875 317.31661957927855 L 298.69921874999994 320.0343213689654 L 302.90625 322.6824904930166 L 307.11328125 325.2618397113969 L 311.32031249999994 327.7732951376547 L 315.52734375 330.217953530545 L 319.734375 332.5970463736243 L 323.94140625 334.91190968305926 L 328.1484375 337.16395865462516 L 332.35546875 339.3546664027915 L 336.5625 341.4855461630039 L 340.76953125 343.558136426946 L 344.9765625 345.57398856309396 L 349.18359375 347.53465654403186 L 353.390625 349.44168846005675 L 357.59765624999994 351.296619547423 L 361.8046875 353.1009665007099 L 366.01171875 354.85622287349685 L 370.21875 356.5638554008578 L 374.42578125 358.2253011020012 L 378.6328125 359.8419650424159 L 382.83984375 361.41521865272523 L 387.046875 362.94639851661736 L 391.25390625 364.4368055531128 L 395.4609375 365.88770452941486 L 399.66796875 367.30032384994854 L 403.875 368.67585557517947 L 408.08203125 370.015455630628 L 412.28906249999994 371.3202441723197 L 416.49609375 372.5913060799015 L 420.703125 373.829691552919 L 424.91015624999994 375.0364167894035 L 429.1171875 376.2124647290495 L 433.32421875 377.3587858459432 L 437.53124999999994 378.4762989781067 L 441.73828125 379.56589218308966 L 445.9453125 380.62842361053646 L 450.15234374999994 381.66472238410256 L 454.359375 382.67558948634013 L 458.56640625 383.6617986412372 L 462.77343749999994 384.6240971900075 L 466.98046875000006 385.56320695651027 L 471.1875 386.47982509934815 L 475.39453125 387.3746249482615 L 479.60156250000006 388.2482568229276 L 483.80859375 389.10134883268586 L 488.015625 389.93450765606775 L 492.22265624999994 390.7483192993069 L 496.4296875 391.5433498332615 L 500.63671875 392.32014610839485 L 504.84374999999994 393.07923644764116 L 509.05078125 393.8211313171346 L 513.2578125 394.54632397490514 L 517.46484375 395.255291097751 L 521.671875 395.94849338658094 L 525.87890625 396.6263761505909 L 530.0859375 397.28936987069545 L 534.29296875 397.93789074267886 L 538.5 398.57234120056387 L 542.70703125 399.19311042072474 L 546.9140625 399.80057480728664 L 551.12109375 400.3950984593687 L 555.328125 400.9770336207332 L 559.53515625 401.54672111240814 L 563.7421875 402.1044907488479 L 567.94921875 402.65066173819463 L 572.15625 403.1855430671952 L 576.36328125 403.7094338713222 L 580.5703125 404.22262379063375 L 584.77734375 404.72539331190103 L 588.984375 405.21801409751384 L 593.19140625 405.7007493016664 L 597.3984375 406.1738538743086 L 601.60546875 406.6375748533341 L 605.8125 407.09215164546475 L 610.01953125 407.53781629627093 L 614.2265625 407.97479374975865 L 618.43359375 408.40330209793404 L 622.640625 408.82355282074644 L 626.84765625 409.2357510167916 L 631.0546875 409.64009562514747 L 635.26171875 410.03677963869734 L 639.46875 410.42599030928375 L 643.67578125 410.8079093450219 L 647.8828125 411.18271310009055 L 652.08984375 411.5505727573023 L 656.296875 411.91165450374797 L 660.50390625 412.26611969979285 L 664.7109375 412.6141250416956 L 668.91796875 412.9558227181065 L 673.125 413.29136056069376 L 677.33203125 413.6208821891338 L 681.5390625 413.94452715069406 L 685.74609375 414.26243105462595 L 689.953125 414.5747257015767 L 694.16015625 414.88153920822094 L 698.3671875 415.1829961273033 L 702.57421875 415.4792175632766 L 706.78125 415.77032128371116 L 710.98828125 416.05642182664394 L 715.1953125 416.3376306040305 L 719.40234375 416.6140560014527 L 723.609375 416.88580347423215 L 727.81640625 417.15297564009114 L 732.0234375 417.4156723684965 L 736.23046875 417.67399086681803 L 740.4375 417.92802576342604 L 744.64453125 418.1778691878475 L 748.8515625 418.4236108480955 L 753.05859375 418.6653381052834 L 757.265625 418.9031360456265 L 761.47265625 419.137087549935 L 765.6796875 419.3672733606927 L 769.88671875 419.5937721468159 L 774.09375 419.81666056618053 L 778.30078125 420.0360133260028 L 782.5078125 420.2519032411553 L 786.71484375 420.46440129049745 L 790.921875 420.6735766712938 L 795.12890625 420.87949685179433 L 799.3359375 421.08222762204406 L 803.54296875 421.2818331429893 L 807.75 421.47837599394404 L 811.9570312499999 421.6719172184768 L 816.1640625 421.86251636877734 L 820.37109375 422.0502315485587 L 824.5781249999999 422.23511945454914 L 828.78515625 422.41723541662475 L 832.9921875 422.5966334366339 L 837.1992187499999 422.77336622595925 L 841.40625 422.9474852418649 L 845.61328125 423.1190407226719 L 849.8203124999999 423.28808172180374 L 854.0273437499999 423.45465614074357 L 858.234375 423.61881076094136 L 862.4414062499999 423.78059127470857 L 866.6484374999999 423.9400423151361 L 870.85546875 424.0972074850709 L 875.0624999999999 424.2521293851831 L 879.2695312499999 424.4048496411569 L 883.4765625 424.5554089300354 L 887.6835937499999 424.7038470057485 L 891.8906249999999 424.85020272385293 L 896.09765625 424.9945140655111 L 900.3046874999999 425.1368181607359 L 904.5117187499999 425.2771513109256 L 908.71875 425.41554901071385 L 912.9257812499999 425.55204596915814 L 917.1328124999999 425.6866761302889 L 921.33984375 425.81947269304146 L 925.5468749999999 425.95046813059093 L 929.7539062499999 426.0796942091107 L 933.9609375 426.20718200597383 L 938.1679687499999 426.3329619274157 L 942.3749999999999 426.4570637256757 L 946.58203125 426.5795165156361 L 950.7890624999999 426.7003487909736 L 954.9960937499999 426.81958843984006 L 959.203125 426.9372627600886 L 963.4101562499999 427.0533984740582 L 967.6171874999999 427.1680217429335 L 971.8242187499998 427.28115818069074 L 976.0312499999999 427.3928328676464 L 980.2382812499999 427.5030703636186 L 984.4453124999998 427.61189472071527 L 988.6523437499999 427.7193294957607 L 992.8593749999999 427.82539776237144 L 997.0664062499998 427.9301221226937 L 1001.2734374999999 428.03352471881186 L 1005.48046875 428.13562724383956 L 1009.6874999999998 428.23645095270217 L 1013.8945312499999 428.3360166726215 L 1018.1015625 428.43434481331104 L 1022.3085937499999 428.53145537689153 L 1026.515625 428.62736796753484 L 1030.72265625 428.72210180084494 L 1034.9296875 428.8156757129843 L 1039.13671875 428.9081081695525 L 1043.34375 428.9994172742264 L 1047.55078125 429.08962077716683 L 1051.7578125 429.17873608320104 L 1055.96484375 429.2667802597864 L 1060.171875 429.3537700447624 L 1064.37890625 429.43972185389714 L 1068.5859375 429.52465178823456 L 1072.79296875 429.6085756412484 L 1077 429.6915089058086" stroke-opacity="0.8" stroke-linecap="round" stroke-linejoin="round" stroke-miterlimit="10" stroke-width="2.5"/><text fill="rgb(0,255,0)" stroke="none" font-family="geogebra-sans-serif, sans-serif" font-size="16px" font-style="normal" font-weight="normal" text-decoration="normal" x="119" y="873" text-anchor="start" dominant-baseline="alphabetic" fill-opacity="1">q</text><text fill="none" stroke="rgb(255,255,255)" font-family="geogebra-sans-serif, sans-serif" font-size="16px" font-style="normal" font-weight="normal" text-decoration="normal" x="119" y="873" text-anchor="start" dominant-baseline="alphabetic" stroke-opacity="1" stroke-linejoin="bevel" stroke-miterlimit="10" stroke-width="3">q</text><text fill="rgb(0,255,0)" stroke="none" font-family="geogebra-sans-serif, sans-serif" font-size="16px" font-style="normal" font-weight="normal" text-decoration="normal" x="119" y="873" text-anchor="start" dominant-baseline="alphabetic" fill-opacity="1">q</text></g></g></svg>