<svg version="1.1" xmlns="http://www.w3.org/2000/svg" xmlns:xlink="http://www.w3.org/1999/xlink" width="778" height="401"><defs><clipPath id="EDwdhNwleLUk"><path fill="none" stroke="none" d=" M 0 0 L 778 0 L 778 401 L 0 401 L 0 0 Z"/></clipPath></defs><g transform="scale(1,1)" clip-path="url(#EDwdhNwleLUk)"><g><rect fill="rgb(255,255,255,0)" stroke="none" x="0" y="0" width="778" height="401" fill-opacity="1"/><path fill="none" stroke="rgb(37,37,37)" paint-order="fill stroke markers" d=" M 51.5 2.5 L 51.5 401.5" stroke-opacity="1" stroke-miterlimit="10"/><path fill="none" stroke="rgb(37,37,37)" paint-order="fill stroke markers" d=" M 51.5 1.5 L 47.5 5.5" stroke-opacity="1" stroke-miterlimit="10"/><path fill="none" stroke="rgb(37,37,37)" paint-order="fill stroke markers" d=" M 51.5 1.5 L 55.5 5.5" stroke-opacity="1" stroke-miterlimit="10"/><path fill="none" stroke="rgb(37,37,37)" paint-order="fill stroke markers" d=" M 0.5 357.5 L 776.5 357.5" stroke-opacity="1" stroke-miterlimit="10"/><path fill="none" stroke="rgb(37,37,37)" paint-order="fill stroke markers" d=" M 777.5 357.5 L 773.5 353.5" stroke-opacity="1" stroke-miterlimit="10"/><path fill="none" stroke="rgb(37,37,37)" paint-order="fill stroke markers" d=" M 777.5 357.5 L 773.5 361.5" stroke-opacity="1" stroke-miterlimit="10"/><path fill="none" stroke="rgb(37,37,37)" paint-order="fill stroke markers" d=" M 51.5 357.5 L 51.5 360.5" stroke-opacity="1" stroke-miterlimit="10"/><path fill="none" stroke="rgb(101,87,210)" paint-order="fill stroke markers" d=" M 1.2447855760217479 407.9413885035033 L 6.2970201705764595 402.9759518741513 L 11.349254765131178 397.99325951093016 L 16.40148935968589 392.99521209971084 L 21.45372395424061 387.98371618366417 L 26.505958548795324 382.9606834359953 L 31.55819314335004 377.92802993072144 L 36.61042773790476 372.887675411771 L 41.66266233245947 367.84154256068246 L 46.71489692701418 362.79155626318317 L 51.7671315215689 357.73964287492674 L 56.81936611612362 352.6877294866703 L 61.87160071067833 347.63774318917103 L 66.92383530523304 342.5916103380825 L 71.97606989978776 337.55125581913205 L 77.02830449434248 332.5186023138582 L 82.08053908889718 327.4955695661893 L 87.13277368345192 322.48407365014265 L 92.18500827800662 317.48602623892333 L 97.23724287256134 312.5033338757022 L 102.28947746711606 307.5378972463502 L 107.34171206167076 302.5916104544076 L 112.39394665622548 297.66636029856346 L 117.4461812507802 292.7640255529223 L 122.49841584533492 287.88647625033116 L 127.55065043988962 283.0355729690414 L 132.60288503444434 278.21316612297727 L 137.65511962899905 273.4210952558809 L 142.70735422355378 268.661188339605 L 147.7595888181085 263.9352610768187 L 152.81182341266322 259.24511620839377 L 157.86405800721792 254.59254282573613 L 162.91629260177262 249.97931568832263 L 167.96852719632736 245.40719454670602 L 173.02076179088206 240.8779234712443 L 178.0729963854368 236.39323018681233 L 183.1252309799915 231.95482541374759 L 188.1774655745462 227.56440221528322 L 193.22970016910094 223.223635351716 L 198.28193476365564 218.93418064155642 L 203.33416935821035 214.697674329904 L 208.38640395276508 210.51573246428933 L 213.43863854731978 206.38995027822025 L 218.49087314187452 202.32190158266812 L 223.54310773642922 198.31313816572552 L 228.59534233098393 194.36518920066496 L 233.64757692553866 190.47956066262392 L 238.69981152009336 186.65773475413965 L 243.7520461146481 182.90116933975116 L 248.8042807092028 179.21129738988614 L 253.8565153037575 175.5895264342434 L 258.90874989831224 172.03723802487983 L 263.96098449286694 168.55578720920698 L 269.01321908742165 165.14650201309794 L 274.06545368197635 161.81068293430175 L 279.1176882765311 158.54960244635868 L 284.1699228710858 155.3645045132054 L 289.2221574656405 152.25660411465572 L 294.2743920601952 149.22708678293696 L 299.32662665474993 146.27710815046012 L 304.3788612493047 143.40779350899473 L 309.4310958438594 140.62023738041788 L 314.4833304384141 137.91550309920058 L 319.5355650329688 135.29462240679072 L 324.5877996275235 132.75859505804743 L 329.64003422207827 130.308388439877 L 334.692268816633 127.94493720221584 L 339.7445034111877 125.66914290150098 L 344.7967380057424 123.4818736567648 L 349.8489726002971 121.38396381848418 L 354.9012071948518 119.37621365031137 L 359.95344178940655 117.45938902380709 L 365.00567638396126 115.63422112629323 L 370.05791097851596 113.90140618193584 L 375.11014557307067 112.26160518616501 L 380.1623801676254 110.71544365353324 L 385.21461476218013 109.26351137910822 L 390.26684935673484 107.90636221349087 L 395.31908395128954 106.64451385154487 L 400.37131854584425 105.47844763491815 L 405.42355314039895 104.40860836843123 L 410.4757877349537 103.43540415040326 L 415.5280223295084 102.55920621697967 L 420.5802569240631 101.78034880052135 L 425.6324915186178 101.09912900210924 L 430.68472611317253 100.51580667821281 L 435.7369607077273 100.03060434156578 L 440.789195302282 99.64370707628711 L 445.8414298968367 99.35526246727909 L 450.8936644913914 99.16538054393004 L 455.9458990859461 99.07413373814273 L 460.99813368050087 99.08155685670471 L 466.0503682750556 99.18764706801107 L 471.1026028696103 99.39236390314431 L 476.154837464165 99.69562927131182 L 481.2070720587197 100.0973274896341 L 486.2593066532744 100.59730532727275 L 491.31154124782915 101.19537206388179 L 496.36377584238386 101.89129956235911 L 501.41601043693856 102.68482235587129 L 506.46824503149327 103.57563774911787 L 511.520479626048 104.56340593379679 L 516.5727142206027 105.64775011822687 L 521.6249488151575 106.82825667107778 L 526.6771834097121 108.10447527915298 L 531.7294180042668 109.47591911916498 L 536.7816525988216 110.94206504343788 L 541.8338871933763 112.50235377946598 L 546.886121787931 114.1561901432525 L 551.9383563824857 115.9029432663472 L 556.9905909770405 117.74194683649566 L 562.0428255715951 119.67249935180945 L 567.0950601661499 121.69386438835915 L 572.1472947607045 123.80527088108894 L 577.1995293552593 126.00591341794524 L 582.2517639498141 128.29495254710721 L 587.3039985443687 130.67151509720205 L 592.3562331389235 133.1346945103829 L 597.4084677334781 135.68355118814213 L 602.4607023280329 138.31711284972832 L 607.5129369225876 141.03437490303037 L 612.5651715171423 143.83430082778648 L 617.617406111697 146.71582257097288 L 622.6696407062517 149.67784095422076 L 627.7218753008065 152.71922609310604 L 632.7741098953612 155.83881782815268 L 637.8263444899159 159.03542616738403 L 642.8785790844706 162.3078317402545 L 647.9308136790253 165.65478626278767 L 652.98304827358 169.0750130137436 L 658.0352828681347 172.56720732163404 L 663.0875174626894 176.13003706239914 L 668.1397520572442 179.76214316755636 L 673.1919866517989 183.46214014262742 L 678.2442212463536 187.22861659564578 L 683.2964558409083 191.0601357755427 L 688.348690435463 194.95523612020708 L 693.4009250300178 198.91243181400918 L 698.4531596245724 202.93021335457647 L 703.5053942191272 207.0070481286046 L 708.5576288136818 211.14138099648463 L 713.6098634082366 215.33163488552267 L 718.6620980027914 219.57621139152633 L 723.714332597346 223.87349138852807 L 728.7665671919008 228.2218356464132 L 733.8188017864554 232.61958545621664 L 738.8710363810102 237.06506326284995 L 743.923270975565 241.55657330501768 L 748.9755055701196 246.0924022620782 L 754.0277401646744 250.67081990760298 L 759.079974759229 255.2900797693846 L 764.1322093537838 259.9484197956419 L 769.1844439483385 264.6440630271679 L 774.2366785428932 269.37521827516446 L 779.2889131374479 274.14008080450486 L 784.3411477320026 278.9368330221638" stroke-opacity="0.8" stroke-linecap="round" stroke-linejoin="round" stroke-miterlimit="10" stroke-width="2.5"/><path fill="rgb(0,0,0)" stroke="none" paint-order="stroke fill markers" d=" M 310.44154276277027 140.07263130319035 L 294.6976183342497 147.76622237557197 L 296.6291735751375 150.0616731703831 L 50.96231683786566 356.78320504375546 C 50.434090809548515 357.22769192000464 50.36620681414842 358.01623153031284 50.81069369039761 358.54445755863 C 51.05793818095833 358.83828170114293 51.41163627663722 358.98967108252697 51.76777122466652 358.98967108252697 C 52.05188233515896 358.98967108252697 52.33754431946796 358.8933230917865 52.57194620527214 358.69608070609803 L 298.23880294254394 151.97454883272567 L 300.17035818343174 154.2699996275368 L 310.4415427627703 140.07263130319035 Z" fill-opacity="0.6980392156862745"/><path fill="rgb(0,0,0)" stroke="none" paint-order="stroke fill markers" d=" M 465.6461895074912 99.17552961591917 L 448.97668702765395 104.57832399241525 L 450.5661962312175 107.12262359973094 L 51.10483602008409 356.6795180385452 C 50.51934524003371 357.0452937438968 50.34123097983577 357.8164475963611 50.707006685187366 358.4019383764115 C 50.9441061591225 358.78145936130136 51.351535889839404 358.9898104207092 51.768318454003136 358.9898104207092 C 51.99451047706664 358.9898104207092 52.22345722789317 358.92844394272475 52.429427023053705 358.7997677113083 L 451.89078723418703 109.24287327249404 L 453.48029643775055 111.78717287980973 L 465.6461895074912 99.17552961591917 Z" fill-opacity="0.6980392156862745"/><path fill="rgb(0,0,0)" stroke="none" paint-order="stroke fill markers" d=" M 465.6461895074901 99.17552961591919 L 448.12439685959396 99.39752602150887 L 448.88881671856655 102.298502112277 L 310.1230344881984 138.86389126537026 C 309.4554657988005 139.03979852811125 309.0568954622093 139.72357088836432 309.23280272495026 140.39113957776223 C 309.3805824460122 140.95196414618385 309.88679725004306 141.32293820631293 310.4407183467472 141.32293820631293 C 310.54614850064416 141.32293820631293 310.653306916366 141.30949888268938 310.76005103734224 141.28137134101038 L 449.5258332677103 104.71598218791712 L 449.52583326771037 104.71598218791712 L 450.29025312668296 107.61695827868525 L 465.6461895074912 99.17552961591919 Z" fill-opacity="0.6980392156862745"/><path fill="rgb(0,255,0)" stroke="none" paint-order="stroke fill markers" d=" M 569.1159540039718 71.91079515773845 L 551.5941613560746 72.13279156332814 L 552.3585812150471 75.0337676540963 L 310.1230344881984 138.86389126537026 C 309.4554657988005 139.03979852811125 309.0568954622093 139.72357088836432 309.23280272495026 140.39113957776223 C 309.3805824460122 140.95196414618385 309.88679725004306 141.32293820631293 310.4407183467472 141.32293820631293 C 310.54614850064416 141.32293820631293 310.653306916366 141.30949888268938 310.76005103734224 141.28137134101038 L 552.9955977641908 77.45124772973638 L 553.7600176231634 80.35222382050452 L 569.1159540039718 71.91079515773845 Z" fill-opacity="0.6980392156862745"/><g transform="scale(19,19)"><g transform="translate(7.842105263157895,11.802631578947368)"><path fill="rgb(0,0,0)" stroke="none" paint-order="stroke fill markers" d=" M 0.0908203125 -0.0341796875 L 0.0908203125 -0.66015625 Q 0.09375 -0.6904296875 0.125 -0.69384765625 L 0.3662109375 -0.69384765625 Q 0.44189453125 -0.69384765625 0.5029296875 -0.677001953125 Q 0.56396484375 -0.66015625 0.6025390625 -0.61572265625 Q 0.64111328125 -0.5712890625 0.64111328125 -0.4951171875 Q 0.64111328125 -0.42333984375 0.599609375 -0.379638671875 Q 0.55810546875 -0.3359375 0.48486328125 -0.31884765625 L 0.64990234375 -0.0361328125 Q 0.65283203125 -0.0302734375 0.65283203125 -0.02392578125 Q 0.65283203125 -0.01416015625 0.645751953125 -0.007080078125 Q 0.638671875 0 0.62890625 0 L 0.541015625 0 Q 0.52001953125 0 0.509765625 -0.01806640625 L 0.34521484375 -0.30908203125 L 0.23876953125 -0.30908203125 L 0.23876953125 -0.0341796875 Q 0.2353515625 -0.0029296875 0.205078125 0 L 0.125 0 Q 0.09423828125 -0.00341796875 0.0908203125 -0.0341796875 M 0.23876953125 -0.384765625 L 0.34716796875 -0.384765625 Q 0.39697265625 -0.384765625 0.4287109375 -0.3916015625 Q 0.46044921875 -0.3984375 0.479248046875 -0.42236328125 Q 0.498046875 -0.4462890625 0.498046875 -0.4951171875 Q 0.498046875 -0.54345703125 0.479248046875 -0.5673828125 Q 0.46044921875 -0.59130859375 0.4296875 -0.59765625 Q 0.39892578125 -0.60400390625 0.34716796875 -0.60400390625 L 0.23876953125 -0.60400390625 L 0.23876953125 -0.384765625 Z"/></g><g transform="translate(8.545105263157895,11.802631578947368)"><path fill="rgb(0,0,0)" stroke="none" paint-order="stroke fill markers" d=" M 0.271 -0.75 L 0.332 -0.75 Q 0.244 -0.662 0.201 -0.541 Q 0.157 -0.41400000000000003 0.157 -0.25 Q 0.157 -0.158 0.1715 -0.078 Q 0.186 0.002 0.20400000000000001 0.051500000000000004 Q 0.222 0.101 0.2505 0.1465 Q 0.279 0.192 0.2945 0.21 Q 0.31 0.228 0.332 0.25 L 0.271 0.25 Q 0.079 0.074 0.079 -0.25 Q 0.079 -0.41000000000000003 0.126 -0.536 Q 0.14200000000000002 -0.579 0.162 -0.6155 Q 0.182 -0.652 0.20500000000000002 -0.6795 Q 0.228 -0.707 0.24 -0.7195 Q 0.252 -0.732 0.271 -0.75 Z"/></g><g transform="translate(8.934105263157894,11.802631578947368)"><path fill="rgb(0,0,0)" stroke="none" paint-order="stroke fill markers" d=" M 0.357 -0.292 L 0.116 -0.008 Q 0.099 0.013000000000000001 0.083 0.013000000000000001 Q 0.06 0.013000000000000001 0.054 -0.008 Q 0.053 -0.012 0.053 -0.016 Q 0.053 -0.029 0.07100000000000001 -0.047 L 0.34700000000000003 -0.321 L 0.25 -0.593 Q 0.228 -0.653 0.213 -0.664 L 0.212 -0.664 L 0.21 -0.666 L 0.209 -0.666 Q 0.201 -0.67 0.185 -0.673 Q 0.178 -0.673 0.176 -0.683 Q 0.176 -0.6940000000000001 0.194 -0.6940000000000001 Q 0.29 -0.6940000000000001 0.316 -0.623 L 0.52 -0.054 Q 0.532 -0.02 0.543 -0.008 Q 0.548 -0.001 0.548 0.001 Q 0.548 0.01 0.537 0.011 L 0.515 0.011 Q 0.483 0.011 0.47200000000000003 0.001 Q 0.467 -0.004 0.462 -0.011 Q 0.454 -0.023 0.392 -0.197 Q 0.371 -0.256 0.357 -0.292 Z"/></g><g transform="translate(9.517105263157895,11.802631578947368)"><path fill="rgb(0,0,0)" stroke="none" paint-order="stroke fill markers" d=" M 0.117 0.25 L 0.056 0.25 Q 0.14400000000000002 0.162 0.187 0.041 Q 0.231 -0.08600000000000001 0.231 -0.25 Q 0.231 -0.342 0.2165 -0.422 Q 0.202 -0.502 0.184 -0.5515 Q 0.166 -0.601 0.1375 -0.6465 Q 0.109 -0.6920000000000001 0.0935 -0.71 Q 0.078 -0.728 0.056 -0.75 L 0.117 -0.75 Q 0.309 -0.5740000000000001 0.309 -0.25 Q 0.309 -0.09 0.262 0.036000000000000004 Q 0.246 0.079 0.226 0.1155 Q 0.20600000000000002 0.152 0.183 0.1795 Q 0.16 0.20700000000000002 0.148 0.2195 Q 0.136 0.232 0.117 0.25 Z"/></g></g><g transform="scale(19,19)"><g transform="translate(14.842105263157896,12.75)"><path fill="rgb(0,0,0)" stroke="none" paint-order="stroke fill markers" d=" M 0.0908203125 -0.0341796875 L 0.0908203125 -0.66015625 Q 0.09375 -0.6904296875 0.125 -0.69384765625 L 0.3662109375 -0.69384765625 Q 0.44189453125 -0.69384765625 0.5029296875 -0.677001953125 Q 0.56396484375 -0.66015625 0.6025390625 -0.61572265625 Q 0.64111328125 -0.5712890625 0.64111328125 -0.4951171875 Q 0.64111328125 -0.42333984375 0.599609375 -0.379638671875 Q 0.55810546875 -0.3359375 0.48486328125 -0.31884765625 L 0.64990234375 -0.0361328125 Q 0.65283203125 -0.0302734375 0.65283203125 -0.02392578125 Q 0.65283203125 -0.01416015625 0.645751953125 -0.007080078125 Q 0.638671875 0 0.62890625 0 L 0.541015625 0 Q 0.52001953125 0 0.509765625 -0.01806640625 L 0.34521484375 -0.30908203125 L 0.23876953125 -0.30908203125 L 0.23876953125 -0.0341796875 Q 0.2353515625 -0.0029296875 0.205078125 0 L 0.125 0 Q 0.09423828125 -0.00341796875 0.0908203125 -0.0341796875 M 0.23876953125 -0.384765625 L 0.34716796875 -0.384765625 Q 0.39697265625 -0.384765625 0.4287109375 -0.3916015625 Q 0.46044921875 -0.3984375 0.479248046875 -0.42236328125 Q 0.498046875 -0.4462890625 0.498046875 -0.4951171875 Q 0.498046875 -0.54345703125 0.479248046875 -0.5673828125 Q 0.46044921875 -0.59130859375 0.4296875 -0.59765625 Q 0.39892578125 -0.60400390625 0.34716796875 -0.60400390625 L 0.23876953125 -0.60400390625 L 0.23876953125 -0.384765625 Z"/></g><g transform="translate(15.545105263157895,12.75)"><path fill="rgb(0,0,0)" stroke="none" paint-order="stroke fill markers" d=" M 0.271 -0.75 L 0.332 -0.75 Q 0.244 -0.662 0.201 -0.541 Q 0.157 -0.41400000000000003 0.157 -0.25 Q 0.157 -0.158 0.1715 -0.078 Q 0.186 0.002 0.20400000000000001 0.051500000000000004 Q 0.222 0.101 0.2505 0.1465 Q 0.279 0.192 0.2945 0.21 Q 0.31 0.228 0.332 0.25 L 0.271 0.25 Q 0.079 0.074 0.079 -0.25 Q 0.079 -0.41000000000000003 0.126 -0.536 Q 0.14200000000000002 -0.579 0.162 -0.6155 Q 0.182 -0.652 0.20500000000000002 -0.6795 Q 0.228 -0.707 0.24 -0.7195 Q 0.252 -0.732 0.271 -0.75 Z"/></g><g transform="translate(15.934105263157894,12.75)"><path fill="rgb(0,0,0)" stroke="none" paint-order="stroke fill markers" d=" M 0.357 -0.292 L 0.116 -0.008 Q 0.099 0.013000000000000001 0.083 0.013000000000000001 Q 0.06 0.013000000000000001 0.054 -0.008 Q 0.053 -0.012 0.053 -0.016 Q 0.053 -0.029 0.07100000000000001 -0.047 L 0.34700000000000003 -0.321 L 0.25 -0.593 Q 0.228 -0.653 0.213 -0.664 L 0.212 -0.664 L 0.21 -0.666 L 0.209 -0.666 Q 0.201 -0.67 0.185 -0.673 Q 0.178 -0.673 0.176 -0.683 Q 0.176 -0.6940000000000001 0.194 -0.6940000000000001 Q 0.29 -0.6940000000000001 0.316 -0.623 L 0.52 -0.054 Q 0.532 -0.02 0.543 -0.008 Q 0.548 -0.001 0.548 0.001 Q 0.548 0.01 0.537 0.011 L 0.515 0.011 Q 0.483 0.011 0.47200000000000003 0.001 Q 0.467 -0.004 0.462 -0.011 Q 0.454 -0.023 0.392 -0.197 Q 0.371 -0.256 0.357 -0.292 Z"/></g><g transform="translate(16.739327485380116,12.75)"><path fill="rgb(0,0,0)" stroke="none" paint-order="stroke fill markers" d=" M 0.40900000000000003 -0.23 L 0.40900000000000003 0.05 Q 0.40900000000000003 0.083 0.389 0.083 Q 0.369 0.083 0.369 0.05 L 0.369 -0.23 L 0.089 -0.23 Q 0.056 -0.23 0.056 -0.25 Q 0.056 -0.27 0.089 -0.27 L 0.369 -0.27 L 0.369 -0.55 Q 0.369 -0.583 0.389 -0.583 Q 0.40900000000000003 -0.583 0.40900000000000003 -0.55 L 0.40900000000000003 -0.27 L 0.6880000000000001 -0.27 Q 0.721 -0.27 0.721 -0.25 Q 0.721 -0.23 0.6880000000000001 -0.23 L 0.40900000000000003 -0.23 Z"/></g><g transform="translate(17.739549707602336,12.75)"><path fill="rgb(0,0,0)" stroke="none" paint-order="stroke fill markers" d=" M 0.435 -0.298 L 0.435 0 L 0.357 0 L 0.357 -0.291 Q 0.357 -0.305 0.3565 -0.3145 Q 0.356 -0.324 0.35050000000000003 -0.3405 Q 0.34500000000000003 -0.357 0.3355 -0.3675 Q 0.326 -0.378 0.3065 -0.386 Q 0.28700000000000003 -0.394 0.26 -0.394 Q 0.20800000000000002 -0.394 0.1835 -0.34900000000000003 Q 0.159 -0.304 0.159 -0.245 L 0.159 0 L 0.081 0 L 0.081 -0.6940000000000001 L 0.156 -0.6940000000000001 L 0.156 -0.383 Q 0.212 -0.455 0.298 -0.455 Q 0.435 -0.455 0.435 -0.298 Z"/></g><g transform="translate(18.256549707602336,12.75)"><path fill="rgb(0,0,0)" stroke="none" paint-order="stroke fill markers" d=" M 0.117 0.25 L 0.056 0.25 Q 0.14400000000000002 0.162 0.187 0.041 Q 0.231 -0.08600000000000001 0.231 -0.25 Q 0.231 -0.342 0.2165 -0.422 Q 0.202 -0.502 0.184 -0.5515 Q 0.166 -0.601 0.1375 -0.6465 Q 0.109 -0.6920000000000001 0.0935 -0.71 Q 0.078 -0.728 0.056 -0.75 L 0.117 -0.75 Q 0.309 -0.5740000000000001 0.309 -0.25 Q 0.309 -0.09 0.262 0.036000000000000004 Q 0.246 0.079 0.226 0.1155 Q 0.20600000000000002 0.152 0.183 0.1795 Q 0.16 0.20700000000000002 0.148 0.2195 Q 0.136 0.232 0.117 0.25 Z"/></g></g><g transform="scale(19,19)"><g transform="translate(12.736842105263158,5.4868421052631575)"><path fill="rgb(0,0,0)" stroke="none" paint-order="stroke fill markers" d=" M 0.0908203125 -0.0341796875 L 0.0908203125 -0.66015625 Q 0.09375 -0.6904296875 0.125 -0.69384765625 L 0.3662109375 -0.69384765625 Q 0.44189453125 -0.69384765625 0.5029296875 -0.677001953125 Q 0.56396484375 -0.66015625 0.6025390625 -0.61572265625 Q 0.64111328125 -0.5712890625 0.64111328125 -0.4951171875 Q 0.64111328125 -0.42333984375 0.599609375 -0.379638671875 Q 0.55810546875 -0.3359375 0.48486328125 -0.31884765625 L 0.64990234375 -0.0361328125 Q 0.65283203125 -0.0302734375 0.65283203125 -0.02392578125 Q 0.65283203125 -0.01416015625 0.645751953125 -0.007080078125 Q 0.638671875 0 0.62890625 0 L 0.541015625 0 Q 0.52001953125 0 0.509765625 -0.01806640625 L 0.34521484375 -0.30908203125 L 0.23876953125 -0.30908203125 L 0.23876953125 -0.0341796875 Q 0.2353515625 -0.0029296875 0.205078125 0 L 0.125 0 Q 0.09423828125 -0.00341796875 0.0908203125 -0.0341796875 M 0.23876953125 -0.384765625 L 0.34716796875 -0.384765625 Q 0.39697265625 -0.384765625 0.4287109375 -0.3916015625 Q 0.46044921875 -0.3984375 0.479248046875 -0.42236328125 Q 0.498046875 -0.4462890625 0.498046875 -0.4951171875 Q 0.498046875 -0.54345703125 0.479248046875 -0.5673828125 Q 0.46044921875 -0.59130859375 0.4296875 -0.59765625 Q 0.39892578125 -0.60400390625 0.34716796875 -0.60400390625 L 0.23876953125 -0.60400390625 L 0.23876953125 -0.384765625 Z"/></g><g transform="translate(13.439842105263157,5.4868421052631575)"><path fill="rgb(0,0,0)" stroke="none" paint-order="stroke fill markers" d=" M 0.271 -0.75 L 0.332 -0.75 Q 0.244 -0.662 0.201 -0.541 Q 0.157 -0.41400000000000003 0.157 -0.25 Q 0.157 -0.158 0.1715 -0.078 Q 0.186 0.002 0.20400000000000001 0.051500000000000004 Q 0.222 0.101 0.2505 0.1465 Q 0.279 0.192 0.2945 0.21 Q 0.31 0.228 0.332 0.25 L 0.271 0.25 Q 0.079 0.074 0.079 -0.25 Q 0.079 -0.41000000000000003 0.126 -0.536 Q 0.14200000000000002 -0.579 0.162 -0.6155 Q 0.182 -0.652 0.20500000000000002 -0.6795 Q 0.228 -0.707 0.24 -0.7195 Q 0.252 -0.732 0.271 -0.75 Z"/></g><g transform="translate(13.828842105263156,5.4868421052631575)"><path fill="rgb(0,0,0)" stroke="none" paint-order="stroke fill markers" d=" M 0.357 -0.292 L 0.116 -0.008 Q 0.099 0.013000000000000001 0.083 0.013000000000000001 Q 0.06 0.013000000000000001 0.054 -0.008 Q 0.053 -0.012 0.053 -0.016 Q 0.053 -0.029 0.07100000000000001 -0.047 L 0.34700000000000003 -0.321 L 0.25 -0.593 Q 0.228 -0.653 0.213 -0.664 L 0.212 -0.664 L 0.21 -0.666 L 0.209 -0.666 Q 0.201 -0.67 0.185 -0.673 Q 0.178 -0.673 0.176 -0.683 Q 0.176 -0.6940000000000001 0.194 -0.6940000000000001 Q 0.29 -0.6940000000000001 0.316 -0.623 L 0.52 -0.054 Q 0.532 -0.02 0.543 -0.008 Q 0.548 -0.001 0.548 0.001 Q 0.548 0.01 0.537 0.011 L 0.515 0.011 Q 0.483 0.011 0.47200000000000003 0.001 Q 0.467 -0.004 0.462 -0.011 Q 0.454 -0.023 0.392 -0.197 Q 0.371 -0.256 0.357 -0.292 Z"/></g><g transform="translate(14.634064327485378,5.4868421052631575)"><path fill="rgb(0,0,0)" stroke="none" paint-order="stroke fill markers" d=" M 0.40900000000000003 -0.23 L 0.40900000000000003 0.05 Q 0.40900000000000003 0.083 0.389 0.083 Q 0.369 0.083 0.369 0.05 L 0.369 -0.23 L 0.089 -0.23 Q 0.056 -0.23 0.056 -0.25 Q 0.056 -0.27 0.089 -0.27 L 0.369 -0.27 L 0.369 -0.55 Q 0.369 -0.583 0.389 -0.583 Q 0.40900000000000003 -0.583 0.40900000000000003 -0.55 L 0.40900000000000003 -0.27 L 0.6880000000000001 -0.27 Q 0.721 -0.27 0.721 -0.25 Q 0.721 -0.23 0.6880000000000001 -0.23 L 0.40900000000000003 -0.23 Z"/></g><g transform="translate(15.6342865497076,5.4868421052631575)"><path fill="rgb(0,0,0)" stroke="none" paint-order="stroke fill markers" d=" M 0.435 -0.298 L 0.435 0 L 0.357 0 L 0.357 -0.291 Q 0.357 -0.305 0.3565 -0.3145 Q 0.356 -0.324 0.35050000000000003 -0.3405 Q 0.34500000000000003 -0.357 0.3355 -0.3675 Q 0.326 -0.378 0.3065 -0.386 Q 0.28700000000000003 -0.394 0.26 -0.394 Q 0.20800000000000002 -0.394 0.1835 -0.34900000000000003 Q 0.159 -0.304 0.159 -0.245 L 0.159 0 L 0.081 0 L 0.081 -0.6940000000000001 L 0.156 -0.6940000000000001 L 0.156 -0.383 Q 0.212 -0.455 0.298 -0.455 Q 0.435 -0.455 0.435 -0.298 Z"/></g><g transform="translate(16.1512865497076,5.4868421052631575)"><path fill="rgb(0,0,0)" stroke="none" paint-order="stroke fill markers" d=" M 0.117 0.25 L 0.056 0.25 Q 0.14400000000000002 0.162 0.187 0.041 Q 0.231 -0.08600000000000001 0.231 -0.25 Q 0.231 -0.342 0.2165 -0.422 Q 0.202 -0.502 0.184 -0.5515 Q 0.166 -0.601 0.1375 -0.6465 Q 0.109 -0.6920000000000001 0.0935 -0.71 Q 0.078 -0.728 0.056 -0.75 L 0.117 -0.75 Q 0.309 -0.5740000000000001 0.309 -0.25 Q 0.309 -0.09 0.262 0.036000000000000004 Q 0.246 0.079 0.226 0.1155 Q 0.20600000000000002 0.152 0.183 0.1795 Q 0.16 0.20700000000000002 0.148 0.2195 Q 0.136 0.232 0.117 0.25 Z"/></g><g transform="translate(16.706953216374266,5.4868421052631575)"><path fill="rgb(0,0,0)" stroke="none" paint-order="stroke fill markers" d=" M 0.661 -0.23 L 0.116 -0.23 Q 0.084 -0.23 0.083 -0.25 Q 0.083 -0.27 0.116 -0.27 L 0.661 -0.27 Q 0.6930000000000001 -0.27 0.6940000000000001 -0.25 Q 0.6940000000000001 -0.23 0.661 -0.23 Z"/></g><g transform="translate(17.707175438596487,5.4868421052631575)"><path fill="rgb(0,0,0)" stroke="none" paint-order="stroke fill markers" d=" M 0.0908203125 -0.0341796875 L 0.0908203125 -0.66015625 Q 0.09375 -0.6904296875 0.125 -0.69384765625 L 0.3662109375 -0.69384765625 Q 0.44189453125 -0.69384765625 0.5029296875 -0.677001953125 Q 0.56396484375 -0.66015625 0.6025390625 -0.61572265625 Q 0.64111328125 -0.5712890625 0.64111328125 -0.4951171875 Q 0.64111328125 -0.42333984375 0.599609375 -0.379638671875 Q 0.55810546875 -0.3359375 0.48486328125 -0.31884765625 L 0.64990234375 -0.0361328125 Q 0.65283203125 -0.0302734375 0.65283203125 -0.02392578125 Q 0.65283203125 -0.01416015625 0.645751953125 -0.007080078125 Q 0.638671875 0 0.62890625 0 L 0.541015625 0 Q 0.52001953125 0 0.509765625 -0.01806640625 L 0.34521484375 -0.30908203125 L 0.23876953125 -0.30908203125 L 0.23876953125 -0.0341796875 Q 0.2353515625 -0.0029296875 0.205078125 0 L 0.125 0 Q 0.09423828125 -0.00341796875 0.0908203125 -0.0341796875 M 0.23876953125 -0.384765625 L 0.34716796875 -0.384765625 Q 0.39697265625 -0.384765625 0.4287109375 -0.3916015625 Q 0.46044921875 -0.3984375 0.479248046875 -0.42236328125 Q 0.498046875 -0.4462890625 0.498046875 -0.4951171875 Q 0.498046875 -0.54345703125 0.479248046875 -0.5673828125 Q 0.46044921875 -0.59130859375 0.4296875 -0.59765625 Q 0.39892578125 -0.60400390625 0.34716796875 -0.60400390625 L 0.23876953125 -0.60400390625 L 0.23876953125 -0.384765625 Z"/></g><g transform="translate(18.410175438596486,5.4868421052631575)"><path fill="rgb(0,0,0)" stroke="none" paint-order="stroke fill markers" d=" M 0.271 -0.75 L 0.332 -0.75 Q 0.244 -0.662 0.201 -0.541 Q 0.157 -0.41400000000000003 0.157 -0.25 Q 0.157 -0.158 0.1715 -0.078 Q 0.186 0.002 0.20400000000000001 0.051500000000000004 Q 0.222 0.101 0.2505 0.1465 Q 0.279 0.192 0.2945 0.21 Q 0.31 0.228 0.332 0.25 L 0.271 0.25 Q 0.079 0.074 0.079 -0.25 Q 0.079 -0.41000000000000003 0.126 -0.536 Q 0.14200000000000002 -0.579 0.162 -0.6155 Q 0.182 -0.652 0.20500000000000002 -0.6795 Q 0.228 -0.707 0.24 -0.7195 Q 0.252 -0.732 0.271 -0.75 Z"/></g><g transform="translate(18.799175438596485,5.4868421052631575)"><path fill="rgb(0,0,0)" stroke="none" paint-order="stroke fill markers" d=" M 0.357 -0.292 L 0.116 -0.008 Q 0.099 0.013000000000000001 0.083 0.013000000000000001 Q 0.06 0.013000000000000001 0.054 -0.008 Q 0.053 -0.012 0.053 -0.016 Q 0.053 -0.029 0.07100000000000001 -0.047 L 0.34700000000000003 -0.321 L 0.25 -0.593 Q 0.228 -0.653 0.213 -0.664 L 0.212 -0.664 L 0.21 -0.666 L 0.209 -0.666 Q 0.201 -0.67 0.185 -0.673 Q 0.178 -0.673 0.176 -0.683 Q 0.176 -0.6940000000000001 0.194 -0.6940000000000001 Q 0.29 -0.6940000000000001 0.316 -0.623 L 0.52 -0.054 Q 0.532 -0.02 0.543 -0.008 Q 0.548 -0.001 0.548 0.001 Q 0.548 0.01 0.537 0.011 L 0.515 0.011 Q 0.483 0.011 0.47200000000000003 0.001 Q 0.467 -0.004 0.462 -0.011 Q 0.454 -0.023 0.392 -0.197 Q 0.371 -0.256 0.357 -0.292 Z"/></g><g transform="translate(19.382175438596484,5.4868421052631575)"><path fill="rgb(0,0,0)" stroke="none" paint-order="stroke fill markers" d=" M 0.117 0.25 L 0.056 0.25 Q 0.14400000000000002 0.162 0.187 0.041 Q 0.231 -0.08600000000000001 0.231 -0.25 Q 0.231 -0.342 0.2165 -0.422 Q 0.202 -0.502 0.184 -0.5515 Q 0.166 -0.601 0.1375 -0.6465 Q 0.109 -0.6920000000000001 0.0935 -0.71 Q 0.078 -0.728 0.056 -0.75 L 0.117 -0.75 Q 0.309 -0.5740000000000001 0.309 -0.25 Q 0.309 -0.09 0.262 0.036000000000000004 Q 0.246 0.079 0.226 0.1155 Q 0.20600000000000002 0.152 0.183 0.1795 Q 0.16 0.20700000000000002 0.148 0.2195 Q 0.136 0.232 0.117 0.25 Z"/></g></g><g transform="scale(19,19)"><g transform="translate(30.378711411151578,3.5921052631578947)"><path fill="rgb(0,0,0)" stroke="none" paint-order="stroke fill markers" d=" M 0.0908203125 -0.0341796875 L 0.0908203125 -0.66015625 Q 0.09375 -0.6904296875 0.125 -0.69384765625 L 0.3662109375 -0.69384765625 Q 0.44189453125 -0.69384765625 0.5029296875 -0.677001953125 Q 0.56396484375 -0.66015625 0.6025390625 -0.61572265625 Q 0.64111328125 -0.5712890625 0.64111328125 -0.4951171875 Q 0.64111328125 -0.42333984375 0.599609375 -0.379638671875 Q 0.55810546875 -0.3359375 0.48486328125 -0.31884765625 L 0.64990234375 -0.0361328125 Q 0.65283203125 -0.0302734375 0.65283203125 -0.02392578125 Q 0.65283203125 -0.01416015625 0.645751953125 -0.007080078125 Q 0.638671875 0 0.62890625 0 L 0.541015625 0 Q 0.52001953125 0 0.509765625 -0.01806640625 L 0.34521484375 -0.30908203125 L 0.23876953125 -0.30908203125 L 0.23876953125 -0.0341796875 Q 0.2353515625 -0.0029296875 0.205078125 0 L 0.125 0 Q 0.09423828125 -0.00341796875 0.0908203125 -0.0341796875 M 0.23876953125 -0.384765625 L 0.34716796875 -0.384765625 Q 0.39697265625 -0.384765625 0.4287109375 -0.3916015625 Q 0.46044921875 -0.3984375 0.479248046875 -0.42236328125 Q 0.498046875 -0.4462890625 0.498046875 -0.4951171875 Q 0.498046875 -0.54345703125 0.479248046875 -0.5673828125 Q 0.46044921875 -0.59130859375 0.4296875 -0.59765625 Q 0.39892578125 -0.60400390625 0.34716796875 -0.60400390625 L 0.23876953125 -0.60400390625 L 0.23876953125 -0.384765625 Z"/></g><g transform="translate(31.081711411151577,3.5921052631578947)"><path fill="rgb(0,0,0)" stroke="none" paint-order="stroke fill markers" d=" M 0.271 -0.75 L 0.332 -0.75 Q 0.244 -0.662 0.201 -0.541 Q 0.157 -0.41400000000000003 0.157 -0.25 Q 0.157 -0.158 0.1715 -0.078 Q 0.186 0.002 0.20400000000000001 0.051500000000000004 Q 0.222 0.101 0.2505 0.1465 Q 0.279 0.192 0.2945 0.21 Q 0.31 0.228 0.332 0.25 L 0.271 0.25 Q 0.079 0.074 0.079 -0.25 Q 0.079 -0.41000000000000003 0.126 -0.536 Q 0.14200000000000002 -0.579 0.162 -0.6155 Q 0.182 -0.652 0.20500000000000002 -0.6795 Q 0.228 -0.707 0.24 -0.7195 Q 0.252 -0.732 0.271 -0.75 Z"/></g><g transform="translate(31.470711411151576,3.5921052631578947)"><path fill="rgb(0,0,0)" stroke="none" paint-order="stroke fill markers" d=" M 0.357 -0.292 L 0.116 -0.008 Q 0.099 0.013000000000000001 0.083 0.013000000000000001 Q 0.06 0.013000000000000001 0.054 -0.008 Q 0.053 -0.012 0.053 -0.016 Q 0.053 -0.029 0.07100000000000001 -0.047 L 0.34700000000000003 -0.321 L 0.25 -0.593 Q 0.228 -0.653 0.213 -0.664 L 0.212 -0.664 L 0.21 -0.666 L 0.209 -0.666 Q 0.201 -0.67 0.185 -0.673 Q 0.178 -0.673 0.176 -0.683 Q 0.176 -0.6940000000000001 0.194 -0.6940000000000001 Q 0.29 -0.6940000000000001 0.316 -0.623 L 0.52 -0.054 Q 0.532 -0.02 0.543 -0.008 Q 0.548 -0.001 0.548 0.001 Q 0.548 0.01 0.537 0.011 L 0.515 0.011 Q 0.483 0.011 0.47200000000000003 0.001 Q 0.467 -0.004 0.462 -0.011 Q 0.454 -0.023 0.392 -0.197 Q 0.371 -0.256 0.357 -0.292 Z"/></g><g transform="translate(32.275933633373796,3.5921052631578947)"><path fill="rgb(0,0,0)" stroke="none" paint-order="stroke fill markers" d=" M 0.40900000000000003 -0.23 L 0.40900000000000003 0.05 Q 0.40900000000000003 0.083 0.389 0.083 Q 0.369 0.083 0.369 0.05 L 0.369 -0.23 L 0.089 -0.23 Q 0.056 -0.23 0.056 -0.25 Q 0.056 -0.27 0.089 -0.27 L 0.369 -0.27 L 0.369 -0.55 Q 0.369 -0.583 0.389 -0.583 Q 0.40900000000000003 -0.583 0.40900000000000003 -0.55 L 0.40900000000000003 -0.27 L 0.6880000000000001 -0.27 Q 0.721 -0.27 0.721 -0.25 Q 0.721 -0.23 0.6880000000000001 -0.23 L 0.40900000000000003 -0.23 Z"/></g><g transform="translate(33.276155855596016,3.5921052631578947)"><path fill="rgb(0,0,0)" stroke="none" paint-order="stroke fill markers" d=" M 0.435 -0.298 L 0.435 0 L 0.357 0 L 0.357 -0.291 Q 0.357 -0.305 0.3565 -0.3145 Q 0.356 -0.324 0.35050000000000003 -0.3405 Q 0.34500000000000003 -0.357 0.3355 -0.3675 Q 0.326 -0.378 0.3065 -0.386 Q 0.28700000000000003 -0.394 0.26 -0.394 Q 0.20800000000000002 -0.394 0.1835 -0.34900000000000003 Q 0.159 -0.304 0.159 -0.245 L 0.159 0 L 0.081 0 L 0.081 -0.6940000000000001 L 0.156 -0.6940000000000001 L 0.156 -0.383 Q 0.212 -0.455 0.298 -0.455 Q 0.435 -0.455 0.435 -0.298 Z"/></g><g transform="translate(33.79315585559602,3.5921052631578947)"><path fill="rgb(0,0,0)" stroke="none" paint-order="stroke fill markers" d=" M 0.117 0.25 L 0.056 0.25 Q 0.14400000000000002 0.162 0.187 0.041 Q 0.231 -0.08600000000000001 0.231 -0.25 Q 0.231 -0.342 0.2165 -0.422 Q 0.202 -0.502 0.184 -0.5515 Q 0.166 -0.601 0.1375 -0.6465 Q 0.109 -0.6920000000000001 0.0935 -0.71 Q 0.078 -0.728 0.056 -0.75 L 0.117 -0.75 Q 0.309 -0.5740000000000001 0.309 -0.25 Q 0.309 -0.09 0.262 0.036000000000000004 Q 0.246 0.079 0.226 0.1155 Q 0.20600000000000002 0.152 0.183 0.1795 Q 0.16 0.20700000000000002 0.148 0.2195 Q 0.136 0.232 0.117 0.25 Z"/></g><g transform="translate(34.34882252226269,3.5921052631578947)"><path fill="rgb(0,0,0)" stroke="none" paint-order="stroke fill markers" d=" M 0.661 -0.23 L 0.116 -0.23 Q 0.084 -0.23 0.083 -0.25 Q 0.083 -0.27 0.116 -0.27 L 0.661 -0.27 Q 0.6930000000000001 -0.27 0.6940000000000001 -0.25 Q 0.6940000000000001 -0.23 0.661 -0.23 Z"/></g><g transform="translate(35.34904474448491,3.5921052631578947)"><path fill="rgb(0,0,0)" stroke="none" paint-order="stroke fill markers" d=" M 0.0908203125 -0.0341796875 L 0.0908203125 -0.66015625 Q 0.09375 -0.6904296875 0.125 -0.69384765625 L 0.3662109375 -0.69384765625 Q 0.44189453125 -0.69384765625 0.5029296875 -0.677001953125 Q 0.56396484375 -0.66015625 0.6025390625 -0.61572265625 Q 0.64111328125 -0.5712890625 0.64111328125 -0.4951171875 Q 0.64111328125 -0.42333984375 0.599609375 -0.379638671875 Q 0.55810546875 -0.3359375 0.48486328125 -0.31884765625 L 0.64990234375 -0.0361328125 Q 0.65283203125 -0.0302734375 0.65283203125 -0.02392578125 Q 0.65283203125 -0.01416015625 0.645751953125 -0.007080078125 Q 0.638671875 0 0.62890625 0 L 0.541015625 0 Q 0.52001953125 0 0.509765625 -0.01806640625 L 0.34521484375 -0.30908203125 L 0.23876953125 -0.30908203125 L 0.23876953125 -0.0341796875 Q 0.2353515625 -0.0029296875 0.205078125 0 L 0.125 0 Q 0.09423828125 -0.00341796875 0.0908203125 -0.0341796875 M 0.23876953125 -0.384765625 L 0.34716796875 -0.384765625 Q 0.39697265625 -0.384765625 0.4287109375 -0.3916015625 Q 0.46044921875 -0.3984375 0.479248046875 -0.42236328125 Q 0.498046875 -0.4462890625 0.498046875 -0.4951171875 Q 0.498046875 -0.54345703125 0.479248046875 -0.5673828125 Q 0.46044921875 -0.59130859375 0.4296875 -0.59765625 Q 0.39892578125 -0.60400390625 0.34716796875 -0.60400390625 L 0.23876953125 -0.60400390625 L 0.23876953125 -0.384765625 Z"/></g><g transform="translate(36.05204474448491,3.5921052631578947)"><path fill="rgb(0,0,0)" stroke="none" paint-order="stroke fill markers" d=" M 0.271 -0.75 L 0.332 -0.75 Q 0.244 -0.662 0.201 -0.541 Q 0.157 -0.41400000000000003 0.157 -0.25 Q 0.157 -0.158 0.1715 -0.078 Q 0.186 0.002 0.20400000000000001 0.051500000000000004 Q 0.222 0.101 0.2505 0.1465 Q 0.279 0.192 0.2945 0.21 Q 0.31 0.228 0.332 0.25 L 0.271 0.25 Q 0.079 0.074 0.079 -0.25 Q 0.079 -0.41000000000000003 0.126 -0.536 Q 0.14200000000000002 -0.579 0.162 -0.6155 Q 0.182 -0.652 0.20500000000000002 -0.6795 Q 0.228 -0.707 0.24 -0.7195 Q 0.252 -0.732 0.271 -0.75 Z"/></g><g transform="translate(36.44104474448491,3.5921052631578947)"><path fill="rgb(0,0,0)" stroke="none" paint-order="stroke fill markers" d=" M 0.357 -0.292 L 0.116 -0.008 Q 0.099 0.013000000000000001 0.083 0.013000000000000001 Q 0.06 0.013000000000000001 0.054 -0.008 Q 0.053 -0.012 0.053 -0.016 Q 0.053 -0.029 0.07100000000000001 -0.047 L 0.34700000000000003 -0.321 L 0.25 -0.593 Q 0.228 -0.653 0.213 -0.664 L 0.212 -0.664 L 0.21 -0.666 L 0.209 -0.666 Q 0.201 -0.67 0.185 -0.673 Q 0.178 -0.673 0.176 -0.683 Q 0.176 -0.6940000000000001 0.194 -0.6940000000000001 Q 0.29 -0.6940000000000001 0.316 -0.623 L 0.52 -0.054 Q 0.532 -0.02 0.543 -0.008 Q 0.548 -0.001 0.548 0.001 Q 0.548 0.01 0.537 0.011 L 0.515 0.011 Q 0.483 0.011 0.47200000000000003 0.001 Q 0.467 -0.004 0.462 -0.011 Q 0.454 -0.023 0.392 -0.197 Q 0.371 -0.256 0.357 -0.292 Z"/></g><g transform="translate(37.02404474448491,3.5921052631578947)"><path fill="rgb(0,0,0)" stroke="none" paint-order="stroke fill markers" d=" M 0.117 0.25 L 0.056 0.25 Q 0.14400000000000002 0.162 0.187 0.041 Q 0.231 -0.08600000000000001 0.231 -0.25 Q 0.231 -0.342 0.2165 -0.422 Q 0.202 -0.502 0.184 -0.5515 Q 0.166 -0.601 0.1375 -0.6465 Q 0.109 -0.6920000000000001 0.0935 -0.71 Q 0.078 -0.728 0.056 -0.75 L 0.117 -0.75 Q 0.309 -0.5740000000000001 0.309 -0.25 Q 0.309 -0.09 0.262 0.036000000000000004 Q 0.246 0.079 0.226 0.1155 Q 0.20600000000000002 0.152 0.183 0.1795 Q 0.16 0.20700000000000002 0.148 0.2195 Q 0.136 0.232 0.117 0.25 Z"/></g><rect fill="rgb(0,0,0)" stroke="none" x="30.378711411151578" y="3.998613763157895" width="7.034333333333334" height="0.039999"/><g transform="translate(33.63737807781825,4.954564263157895)"><path fill="rgb(0,0,0)" stroke="none" paint-order="stroke fill markers" d=" M 0.435 -0.298 L 0.435 0 L 0.357 0 L 0.357 -0.291 Q 0.357 -0.305 0.3565 -0.3145 Q 0.356 -0.324 0.35050000000000003 -0.3405 Q 0.34500000000000003 -0.357 0.3355 -0.3675 Q 0.326 -0.378 0.3065 -0.386 Q 0.28700000000000003 -0.394 0.26 -0.394 Q 0.20800000000000002 -0.394 0.1835 -0.34900000000000003 Q 0.159 -0.304 0.159 -0.245 L 0.159 0 L 0.081 0 L 0.081 -0.6940000000000001 L 0.156 -0.6940000000000001 L 0.156 -0.383 Q 0.212 -0.455 0.298 -0.455 Q 0.435 -0.455 0.435 -0.298 Z"/></g></g></g></g></svg>