<svg version="1.1" xmlns="http://www.w3.org/2000/svg" xmlns:xlink="http://www.w3.org/1999/xlink" width="1215" height="817"><defs><clipPath id="lpdHnAHXqgzJ"><path fill="none" stroke="none" d=" M 0 0 L 1215 0 L 1215 817 L 0 817 L 0 0 Z"/></clipPath></defs><g transform="scale(1,1)" clip-path="url(#lpdHnAHXqgzJ)"><g><rect fill="rgb(255,255,255,0)" stroke="none" x="0" y="0" width="1215" height="817" fill-opacity="1"/><path fill="none" stroke="rgb(37,37,37)" paint-order="fill stroke markers" d=" M 1043.5 2.5 L 1043.5 817.5" stroke-opacity="1" stroke-miterlimit="10"/><path fill="none" stroke="rgb(37,37,37)" paint-order="fill stroke markers" d=" M 1043.5 1.5 L 1039.5 5.5" stroke-opacity="1" stroke-miterlimit="10"/><path fill="none" stroke="rgb(37,37,37)" paint-order="fill stroke markers" d=" M 1043.5 1.5 L 1047.5 5.5" stroke-opacity="1" stroke-miterlimit="10"/><path fill="none" stroke="rgb(37,37,37)" paint-order="fill stroke markers" d=" M 0.5 409.5 L 1213.5 409.5" stroke-opacity="1" stroke-miterlimit="10"/><path fill="none" stroke="rgb(37,37,37)" paint-order="fill stroke markers" d=" M 1214.5 409.5 L 1210.5 405.5" stroke-opacity="1" stroke-miterlimit="10"/><path fill="none" stroke="rgb(37,37,37)" paint-order="fill stroke markers" d=" M 1214.5 409.5 L 1210.5 413.5" stroke-opacity="1" stroke-miterlimit="10"/><path fill="rgb(21,101,192)" stroke="none" paint-order="stroke fill markers" fill-rule="evenodd" d=" M 1160.23005124414 363.8800833248589 L 1136.1294268979677 299.2376228857323 L 1043.2942603618008 409.983617648677 Z" fill-opacity="0.09803921568627451"/><text fill="rgb(21,101,192)" stroke="none" font-family="geogebra-sans-serif, sans-serif" font-size="16px" font-style="normal" font-weight="normal" text-decoration="normal" x="1113" y="357" text-anchor="start" dominant-baseline="alphabetic" fill-opacity="1">dA</text><text fill="none" stroke="rgb(255,255,255)" font-family="geogebra-sans-serif, sans-serif" font-size="16px" font-style="normal" font-weight="normal" text-decoration="normal" x="1113" y="357" text-anchor="start" dominant-baseline="alphabetic" stroke-opacity="1" stroke-linejoin="bevel" stroke-miterlimit="10" stroke-width="3">dA</text><text fill="rgb(21,101,192)" stroke="none" font-family="geogebra-sans-serif, sans-serif" font-size="16px" font-style="normal" font-weight="normal" text-decoration="normal" x="1113" y="357" text-anchor="start" dominant-baseline="alphabetic" fill-opacity="1">dA</text><path fill="none" stroke="rgb(46,125,50)" paint-order="fill stroke markers" d=" M 1165.1498587675515 409.983617648677 C 1165.1498587675515 218.24882583765543 916.4590439424464 62.81706657196429 609.6833770448127 62.81706657196429 C 302.90771014717893 62.81706657196429 54.21689532207381 218.24882583765543 54.21689532207381 409.983617648677 C 54.21689532207381 601.7184094596986 302.90771014717893 757.1501687253897 609.6833770448127 757.1501687253897 C 916.4590439424464 757.1501687253897 1165.1498587675515 601.7184094596986 1165.1498587675515 409.983617648677 Z" stroke-opacity="0.8" stroke-linecap="round" stroke-linejoin="round" stroke-miterlimit="10" stroke-width="2.5"/><path fill="rgb(0,0,0)" stroke="none" paint-order="stroke fill markers" d=" M 1071.203424724289 398.980048019343 C 1069.3688276195637 394.32682421474885 1066.3998906822205 390.20615355925435 1062.5667082024825 386.99290747634427 L 1043.2942603618008 409.983617648677 Z" fill-opacity="0.09803921568627451"/><path fill="none" stroke="rgb(0,0,0)" paint-order="fill stroke markers" d=" M 1071.203424724289 398.980048019343 C 1069.3688276195637 394.32682421474885 1066.3998906822205 390.20615355925435 1062.5667082024825 386.99290747634427 L 1043.2942603618008 409.983617648677 Z" stroke-opacity="0.6" stroke-linecap="round" stroke-linejoin="round" stroke-miterlimit="10" stroke-width="2.5"/><text fill="rgb(0,0,0)" stroke="none" font-family="geogebra-sans-serif, sans-serif" font-size="16px" font-style="normal" font-weight="normal" text-decoration="normal" x="1073" y="388" text-anchor="start" dominant-baseline="alphabetic" fill-opacity="1">dϕ</text><text fill="none" stroke="rgb(255,255,255)" font-family="geogebra-sans-serif, sans-serif" font-size="16px" font-style="normal" font-weight="normal" text-decoration="normal" x="1073" y="388" text-anchor="start" dominant-baseline="alphabetic" stroke-opacity="1" stroke-linejoin="bevel" stroke-miterlimit="10" stroke-width="3">dϕ</text><text fill="rgb(0,0,0)" stroke="none" font-family="geogebra-sans-serif, sans-serif" font-size="16px" font-style="normal" font-weight="normal" text-decoration="normal" x="1073" y="388" text-anchor="start" dominant-baseline="alphabetic" fill-opacity="1">dϕ</text><path fill="none" stroke="rgb(21,101,192)" paint-order="fill stroke markers" d=" M 1160.23005124414 363.8800833248589 L 1136.1294268979677 299.2376228857323" stroke-opacity="0.6980392156862745" stroke-linecap="round" stroke-linejoin="round" stroke-miterlimit="10" stroke-width="2.5"/><path fill="none" stroke="rgb(21,101,192)" paint-order="fill stroke markers" d=" M 1136.1294268979677 299.2376228857323 L 1043.2942603618008 409.983617648677" stroke-opacity="0.6980392156862745" stroke-linecap="round" stroke-linejoin="round" stroke-miterlimit="10" stroke-width="2.5"/><path fill="none" stroke="rgb(21,101,192)" paint-order="fill stroke markers" d=" M 1043.2942603618008 409.983617648677 L 1160.23005124414 363.8800833248589" stroke-opacity="0.6980392156862745" stroke-linecap="round" stroke-linejoin="round" stroke-miterlimit="10" stroke-width="2.5"/><path fill="rgb(0,0,0)" stroke="none" paint-order="stroke fill markers" d=" M 1160.2300512441395 363.88008332485896 L 1142.856019074574 366.1616411634623 L 1143.9563760375074 368.9525575997112 L 1042.8357782939117 408.82073580024 C 1042.1935363831649 409.073948454406 1041.878165859198 409.7998578058192 1042.1313785133639 410.442099716566 C 1042.325252634007 410.9338369328454 1042.7962362700246 411.23395196917795 1043.2946041838727 411.23395196917795 C 1043.4471383182088 411.23395196917795 1043.6022377352224 411.2058380306367 1043.7527424296898 411.146499497114 L 1144.8733401732854 371.2783212965852 L 1145.9736971362188 374.0692377328341 L 1160.23005124414 363.88008332485896 Z" fill-opacity="0.6980392156862745"/><path fill="rgb(0,0,0)" stroke="none" paint-order="stroke fill markers" d=" M 1136.1294268979677 299.2376228857323 L 1121.9513558471676 309.535428539291 L 1124.2504268644009 311.4626733233592 L 1042.3363141046202 409.1805989886486 C 1041.892819144857 409.7096580976469 1041.962182592774 410.4980689460943 1042.4912417017724 410.94156390585755 C 1042.7253638004115 411.13782169435336 1043.0102744228031 411.23364706826214 1043.293608224388 411.23364706826214 C 1043.6505400341528 411.23364706826214 1044.0049694477138 411.0815733190647 1044.2522066189813 410.7866363087054 L 1126.166319378762 313.06871064341595 L 1128.4653903959952 314.99595542748415 L 1136.1294268979677 299.2376228857323 Z" fill-opacity="0.6980392156862745"/></g></g></svg>