<svg version="1.1" xmlns="http://www.w3.org/2000/svg" xmlns:xlink="http://www.w3.org/1999/xlink" width="454" height="401"><defs><clipPath id="sbooPhoaBKEq"><path fill="none" stroke="none" d=" M 0 0 L 454 0 L 454 401 L 0 401 L 0 0 Z"/></clipPath></defs><g transform="scale(1,1)" clip-path="url(#sbooPhoaBKEq)"><g><rect fill="rgb(255,255,255,0)" stroke="none" x="0" y="0" width="454" height="401" fill-opacity="1"/><path fill="rgb(0,0,0)" stroke="none" paint-order="stroke fill markers" d=" M 381.00000000000034 350.5 C 381.00000000000034 338.3661326557063 373.69073466055306 327.4270440278384 362.480502970953 322.7836140246614 C 351.270271281353 318.1401840214844 338.366736445572 320.7068566832355 329.7867965644039 329.2867965644036 L 351.00000000000034 350.5 Z" fill-opacity="0.09803921568627451"/><path fill="none" stroke="rgb(0,0,0)" paint-order="fill stroke markers" d=" M 381.00000000000034 350.5 C 381.00000000000034 338.3661326557063 373.69073466055306 327.4270440278384 362.480502970953 322.7836140246614 C 351.270271281353 318.1401840214844 338.366736445572 320.7068566832355 329.7867965644039 329.2867965644036 L 351.00000000000034 350.5 Z" stroke-opacity="0.6" stroke-linecap="round" stroke-linejoin="round" stroke-miterlimit="10" stroke-width="2.5"/><path fill="rgb(255,127,0)" stroke="none" paint-order="stroke fill markers" d=" M 122.21320343559685 121.71320343559651 C 132.50672100452243 111.41968586667096 133.92498209203876 95.22187892119607 125.57695761557164 83.29612966910025 L 101.00000000000045 100.50000000000011 Z" fill-opacity="0.09803921568627451"/><path fill="none" stroke="rgb(255,127,0)" paint-order="fill stroke markers" d=" M 122.21320343559685 121.71320343559651 C 132.50672100452243 111.41968586667096 133.92498209203876 95.22187892119607 125.57695761557164 83.29612966910025 L 101.00000000000045 100.50000000000011 Z" stroke-opacity="0.6" stroke-linecap="round" stroke-linejoin="round" stroke-miterlimit="10" stroke-width="2.5"/><text fill="rgb(0,0,0)" stroke="none" font-family="geogebra-sans-serif, sans-serif" font-size="16px" font-style="normal" font-weight="normal" text-decoration="normal" x="209" y="239" text-anchor="start" dominant-baseline="alphabetic" fill-opacity="1">r</text><text fill="none" stroke="rgb(255,255,255)" font-family="geogebra-sans-serif, sans-serif" font-size="16px" font-style="normal" font-weight="normal" text-decoration="normal" x="209" y="239" text-anchor="start" dominant-baseline="alphabetic" stroke-opacity="1" stroke-linejoin="bevel" stroke-miterlimit="10" stroke-width="3">r</text><text fill="rgb(0,0,0)" stroke="none" font-family="geogebra-sans-serif, sans-serif" font-size="16px" font-style="normal" font-weight="normal" text-decoration="normal" x="209" y="239" text-anchor="start" dominant-baseline="alphabetic" fill-opacity="1">r</text><text fill="rgb(0,0,0)" stroke="none" font-family="geogebra-sans-serif, sans-serif" font-size="14px" font-style="normal" font-weight="normal" text-decoration="normal" x="214" y="246" text-anchor="start" dominant-baseline="alphabetic" fill-opacity="1">0</text><text fill="none" stroke="rgb(255,255,255)" font-family="geogebra-sans-serif, sans-serif" font-size="14px" font-style="normal" font-weight="normal" text-decoration="normal" x="214" y="246" text-anchor="start" dominant-baseline="alphabetic" stroke-opacity="1" stroke-linejoin="bevel" stroke-miterlimit="10" stroke-width="3">0</text><text fill="rgb(0,0,0)" stroke="none" font-family="geogebra-sans-serif, sans-serif" font-size="14px" font-style="normal" font-weight="normal" text-decoration="normal" x="214" y="246" text-anchor="start" dominant-baseline="alphabetic" fill-opacity="1">0</text><path fill="none" stroke="rgb(0,0,0)" paint-order="fill stroke markers" d=" M 101.00000000000045 100.50000000000011 L 351.00000000000034 350.5" stroke-opacity="0.6980392156862745" stroke-linecap="round" stroke-linejoin="round" stroke-miterlimit="10" stroke-width="2.5"/><path fill="rgb(255,127,0)" stroke="none" paint-order="stroke fill markers" d=" M 176.00000000000043 48.000000000000114 L 159.6358423876326 54.26712419197078 L 161.35622942072257 56.7248199535279 L 100.2831720695463 99.47596009935131 C 99.71761044919973 99.87185323359391 99.58006696510905 100.6512663101077 99.97596009935165 101.21682793045427 C 100.21912404978285 101.56420500249884 100.60697529333994 101.75010732781469 101.00109088469588 101.75010732781469 C 101.24863149459469 101.75010732781469 101.49864338215261 101.67676908446032 101.71682793045461 101.52403990064892 L 162.78988528163092 58.77289975482551 L 164.51027231472088 61.23059551638262 L 176.00000000000043 48.000000000000114 Z" fill-opacity="0.6980392156862745"/><path fill="rgb(97,97,97)" stroke="none" paint-order="stroke fill markers" d=" M 356.00000000000034 350.5 C 356.00000000000034 353.26142374915395 353.7614237491543 355.5 351.00000000000034 355.5 C 348.2385762508464 355.5 346.00000000000034 353.26142374915395 346.00000000000034 350.5 C 346.00000000000034 347.73857625084605 348.2385762508464 345.5 351.00000000000034 345.5 C 353.7614237491543 345.5 356.00000000000034 347.73857625084605 356.00000000000034 350.5 Z" fill-opacity="1"/><path fill="none" stroke="rgb(0,0,0)" paint-order="fill stroke markers" d=" M 356.00000000000034 350.5 C 356.00000000000034 353.26142374915395 353.7614237491543 355.5 351.00000000000034 355.5 C 348.2385762508464 355.5 346.00000000000034 353.26142374915395 346.00000000000034 350.5 C 346.00000000000034 347.73857625084605 348.2385762508464 345.5 351.00000000000034 345.5 C 353.7614237491543 345.5 356.00000000000034 347.73857625084605 356.00000000000034 350.5 Z" stroke-opacity="1" stroke-linecap="round" stroke-linejoin="round" stroke-miterlimit="10"/><text fill="rgb(97,97,97)" stroke="none" font-family="geogebra-sans-serif, sans-serif" font-size="16px" font-style="normal" font-weight="normal" text-decoration="normal" x="355" y="370" text-anchor="start" dominant-baseline="alphabetic" fill-opacity="1">M</text><text fill="none" stroke="rgb(255,255,255)" font-family="geogebra-sans-serif, sans-serif" font-size="16px" font-style="normal" font-weight="normal" text-decoration="normal" x="355" y="370" text-anchor="start" dominant-baseline="alphabetic" stroke-opacity="1" stroke-linejoin="bevel" stroke-miterlimit="10" stroke-width="3">M</text><text fill="rgb(97,97,97)" stroke="none" font-family="geogebra-sans-serif, sans-serif" font-size="16px" font-style="normal" font-weight="normal" text-decoration="normal" x="355" y="370" text-anchor="start" dominant-baseline="alphabetic" fill-opacity="1">M</text><path fill="rgb(21,101,192)" stroke="none" paint-order="stroke fill markers" d=" M 106.00000000000045 100.50000000000011 C 106.00000000000045 103.26142374915408 103.76142374915442 105.50000000000011 101.00000000000045 105.50000000000011 C 98.23857625084649 105.50000000000011 96.00000000000045 103.26142374915408 96.00000000000045 100.50000000000011 C 96.00000000000045 97.73857625084615 98.23857625084649 95.50000000000011 101.00000000000045 95.50000000000011 C 103.76142374915442 95.50000000000011 106.00000000000045 97.73857625084615 106.00000000000045 100.50000000000011 Z" fill-opacity="1"/><path fill="none" stroke="rgb(0,0,0)" paint-order="fill stroke markers" d=" M 106.00000000000045 100.50000000000011 C 106.00000000000045 103.26142374915408 103.76142374915442 105.50000000000011 101.00000000000045 105.50000000000011 C 98.23857625084649 105.50000000000011 96.00000000000045 103.26142374915408 96.00000000000045 100.50000000000011 C 96.00000000000045 97.73857625084615 98.23857625084649 95.50000000000011 101.00000000000045 95.50000000000011 C 103.76142374915442 95.50000000000011 106.00000000000045 97.73857625084615 106.00000000000045 100.50000000000011 Z" stroke-opacity="1" stroke-linecap="round" stroke-linejoin="round" stroke-miterlimit="10"/><text fill="rgb(21,101,192)" stroke="none" font-family="geogebra-sans-serif, sans-serif" font-size="16px" font-style="normal" font-weight="normal" text-decoration="normal" x="95" y="88" text-anchor="start" dominant-baseline="alphabetic" fill-opacity="1">S</text><text fill="none" stroke="rgb(255,255,255)" font-family="geogebra-sans-serif, sans-serif" font-size="16px" font-style="normal" font-weight="normal" text-decoration="normal" x="95" y="88" text-anchor="start" dominant-baseline="alphabetic" stroke-opacity="1" stroke-linejoin="bevel" stroke-miterlimit="10" stroke-width="3">S</text><text fill="rgb(21,101,192)" stroke="none" font-family="geogebra-sans-serif, sans-serif" font-size="16px" font-style="normal" font-weight="normal" text-decoration="normal" x="95" y="88" text-anchor="start" dominant-baseline="alphabetic" fill-opacity="1">S</text><g transform="scale(19,19)"><g transform="translate(19.263157894736842,16.641368421052633)"><path fill="rgb(0,0,0)" stroke="none" paint-order="stroke fill markers" d=" M 0.437 -0.67 L 0.381 -0.443 Q 0.508 -0.434 0.555 -0.341 Q 0.5730000000000001 -0.304 0.5730000000000001 -0.262 Q 0.5730000000000001 -0.166 0.488 -0.084 Q 0.399 0.002 0.281 0.011 Q 0.274 0.012 0.267 0.012 L 0.229 0.161 Q 0.221 0.198 0.218 0.201 Q 0.214 0.20500000000000002 0.20800000000000002 0.20500000000000002 Q 0.196 0.20500000000000002 0.196 0.194 Q 0.196 0.192 0.218 0.106 L 0.24 0.016 Q 0.24 0.014 0.241 0.012 Q 0.126 0.005 0.075 -0.075 Q 0.049 -0.117 0.049 -0.169 Q 0.049 -0.267 0.136 -0.34900000000000003 Q 0.225 -0.434 0.343 -0.442 Q 0.34900000000000003 -0.443 0.355 -0.443 L 0.41300000000000003 -0.674 Q 0.422 -0.6930000000000001 0.428 -0.6940000000000001 Q 0.44 -0.6940000000000001 0.44 -0.684 L 0.437 -0.671 L 0.437 -0.67 M 0.246 -0.01 L 0.34900000000000003 -0.421 Q 0.233 -0.41100000000000003 0.164 -0.309 Q 0.114 -0.234 0.114 -0.148 Q 0.114 -0.05 0.198 -0.019 Q 0.221 -0.011 0.246 -0.01 M 0.375 -0.421 L 0.272 -0.01 Q 0.388 -0.019 0.458 -0.123 Q 0.508 -0.198 0.508 -0.28300000000000003 Q 0.508 -0.377 0.43 -0.40900000000000003 Q 0.405 -0.419 0.375 -0.421 Z"/></g></g><g transform="scale(19,19)"><g transform="translate(7.499421052631579,5.466473684210527)"><path fill="rgb(255,127,0)" stroke="none" paint-order="stroke fill markers" d=" M 0.355 -0.677 L 0.41600000000000004 -0.677 Q 0.41500000000000004 -0.622 0.3855 -0.59 Q 0.356 -0.558 0.318 -0.558 Q 0.291 -0.558 0.254 -0.583 Q 0.20700000000000002 -0.616 0.183 -0.616 Q 0.146 -0.616 0.14400000000000002 -0.558 L 0.083 -0.558 Q 0.084 -0.613 0.1135 -0.645 Q 0.14300000000000002 -0.677 0.181 -0.677 Q 0.20800000000000002 -0.677 0.245 -0.652 Q 0.292 -0.619 0.316 -0.619 Q 0.353 -0.619 0.355 -0.677 Z"/></g><g transform="translate(7.368421052631579,5.716473684210527)"><path fill="rgb(255,127,0)" stroke="none" paint-order="stroke fill markers" d=" M 0.437 -0.67 L 0.381 -0.443 Q 0.508 -0.434 0.555 -0.341 Q 0.5730000000000001 -0.304 0.5730000000000001 -0.262 Q 0.5730000000000001 -0.166 0.488 -0.084 Q 0.399 0.002 0.281 0.011 Q 0.274 0.012 0.267 0.012 L 0.229 0.161 Q 0.221 0.198 0.218 0.201 Q 0.214 0.20500000000000002 0.20800000000000002 0.20500000000000002 Q 0.196 0.20500000000000002 0.196 0.194 Q 0.196 0.192 0.218 0.106 L 0.24 0.016 Q 0.24 0.014 0.241 0.012 Q 0.126 0.005 0.075 -0.075 Q 0.049 -0.117 0.049 -0.169 Q 0.049 -0.267 0.136 -0.34900000000000003 Q 0.225 -0.434 0.343 -0.442 Q 0.34900000000000003 -0.443 0.355 -0.443 L 0.41300000000000003 -0.674 Q 0.422 -0.6930000000000001 0.428 -0.6940000000000001 Q 0.44 -0.6940000000000001 0.44 -0.684 L 0.437 -0.671 L 0.437 -0.67 M 0.246 -0.01 L 0.34900000000000003 -0.421 Q 0.233 -0.41100000000000003 0.164 -0.309 Q 0.114 -0.234 0.114 -0.148 Q 0.114 -0.05 0.198 -0.019 Q 0.221 -0.011 0.246 -0.01 M 0.375 -0.421 L 0.272 -0.01 Q 0.388 -0.019 0.458 -0.123 Q 0.508 -0.198 0.508 -0.28300000000000003 Q 0.508 -0.377 0.43 -0.40900000000000003 Q 0.405 -0.419 0.375 -0.421 Z"/></g></g><g transform="scale(19,19)"><g transform="translate(9.877264042730527,2.167684210526316)"><path fill="rgb(255,127,0)" stroke="none" paint-order="stroke fill markers" d=" M 0.434 -0.6940000000000001 L 0.434 0 L 0.356 0 L 0.356 -0.052000000000000005 Q 0.291 0.011 0.20800000000000002 0.011 Q 0.136 0.011 0.08600000000000001 -0.0565 Q 0.036000000000000004 -0.124 0.036000000000000004 -0.222 Q 0.036000000000000004 -0.319 0.08750000000000001 -0.387 Q 0.139 -0.455 0.213 -0.455 Q 0.293 -0.455 0.359 -0.4 L 0.359 -0.6940000000000001 L 0.434 -0.6940000000000001 M 0.356 -0.139 L 0.356 -0.339 Q 0.318 -0.394 0.259 -0.394 Q 0.20400000000000001 -0.394 0.159 -0.352 Q 0.114 -0.31 0.114 -0.221 Q 0.114 -0.135 0.1545 -0.0925 Q 0.195 -0.05 0.249 -0.05 Q 0.291 -0.05 0.323 -0.078 Q 0.356 -0.108 0.356 -0.139 Z"/></g><g transform="translate(10.394264042730526,2.167684210526316)"><path fill="rgb(255,127,0)" stroke="none" paint-order="stroke fill markers" d=" M 0.355 -0.677 L 0.41600000000000004 -0.677 Q 0.41500000000000004 -0.622 0.3855 -0.59 Q 0.356 -0.558 0.318 -0.558 Q 0.291 -0.558 0.254 -0.583 Q 0.20700000000000002 -0.616 0.183 -0.616 Q 0.146 -0.616 0.14400000000000002 -0.558 L 0.083 -0.558 Q 0.084 -0.613 0.1135 -0.645 Q 0.14300000000000002 -0.677 0.181 -0.677 Q 0.20800000000000002 -0.677 0.245 -0.652 Q 0.292 -0.619 0.316 -0.619 Q 0.353 -0.619 0.355 -0.677 Z"/></g><g transform="translate(10.466264042730526,2.167684210526316)"><path fill="rgb(255,127,0)" stroke="none" paint-order="stroke fill markers" d=" M 0.157 -0.214 L 0.157 0 L 0.082 0 L 0.082 -0.45 L 0.152 -0.45 L 0.152 -0.359 Q 0.216 -0.454 0.327 -0.455 L 0.327 -0.388 Q 0.253 -0.386 0.20500000000000002 -0.3375 Q 0.157 -0.289 0.157 -0.214 Z"/></g><rect fill="rgb(255,127,0)" stroke="none" x="9.799764042730526" y="2.574192710526316" width="1.1" height="0.039999"/><g transform="translate(9.799764042730526,3.5301432105263157)"><path fill="rgb(255,127,0)" stroke="none" paint-order="stroke fill markers" d=" M 0.434 -0.6940000000000001 L 0.434 0 L 0.356 0 L 0.356 -0.052000000000000005 Q 0.291 0.011 0.20800000000000002 0.011 Q 0.136 0.011 0.08600000000000001 -0.0565 Q 0.036000000000000004 -0.124 0.036000000000000004 -0.222 Q 0.036000000000000004 -0.319 0.08750000000000001 -0.387 Q 0.139 -0.455 0.213 -0.455 Q 0.293 -0.455 0.359 -0.4 L 0.359 -0.6940000000000001 L 0.434 -0.6940000000000001 M 0.356 -0.139 L 0.356 -0.339 Q 0.318 -0.394 0.259 -0.394 Q 0.20400000000000001 -0.394 0.159 -0.352 Q 0.114 -0.31 0.114 -0.221 Q 0.114 -0.135 0.1545 -0.0925 Q 0.195 -0.05 0.249 -0.05 Q 0.291 -0.05 0.323 -0.078 Q 0.356 -0.108 0.356 -0.139 Z"/></g><g transform="translate(10.316764042730526,3.5301432105263157)"><path fill="rgb(255,127,0)" stroke="none" paint-order="stroke fill markers" d=" M 0.357 -0.292 L 0.116 -0.008 Q 0.099 0.013000000000000001 0.083 0.013000000000000001 Q 0.06 0.013000000000000001 0.054 -0.008 Q 0.053 -0.012 0.053 -0.016 Q 0.053 -0.029 0.07100000000000001 -0.047 L 0.34700000000000003 -0.321 L 0.25 -0.593 Q 0.228 -0.653 0.213 -0.664 L 0.212 -0.664 L 0.21 -0.666 L 0.209 -0.666 Q 0.201 -0.67 0.185 -0.673 Q 0.178 -0.673 0.176 -0.683 Q 0.176 -0.6940000000000001 0.194 -0.6940000000000001 Q 0.29 -0.6940000000000001 0.316 -0.623 L 0.52 -0.054 Q 0.532 -0.02 0.543 -0.008 Q 0.548 -0.001 0.548 0.001 Q 0.548 0.01 0.537 0.011 L 0.515 0.011 Q 0.483 0.011 0.47200000000000003 0.001 Q 0.467 -0.004 0.462 -0.011 Q 0.454 -0.023 0.392 -0.197 Q 0.371 -0.256 0.357 -0.292 Z"/></g></g></g></g></svg>