<svg version="1.1" xmlns="http://www.w3.org/2000/svg" xmlns:xlink="http://www.w3.org/1999/xlink" width="1125" height="350"><defs><clipPath id="ybEVvrBJvKKW"><path fill="none" stroke="none" d=" M 0 0 L 1125 0 L 1125 350 L 0 350 L 0 0 Z"/></clipPath></defs><g transform="scale(1,1)" clip-path="url(#ybEVvrBJvKKW)"><g><rect fill="rgb(255,255,255,0)" stroke="none" x="0" y="0" width="1125" height="350" fill-opacity="1"/><path fill="rgb(255,127,0)" stroke="none" paint-order="stroke fill markers" d=" M 122.95658912231443 253.20878782485414 C 122.95658912231443 245.25229312966783 119.7958839113519 237.62167574269876 114.1697925579108 231.99558438925771 L 92.95658912231443 253.20878782485414 Z" fill-opacity="0.09803921568627451"/><path fill="none" stroke="rgb(255,127,0)" paint-order="fill stroke markers" d=" M 122.95658912231443 253.20878782485414 C 122.95658912231443 245.25229312966783 119.7958839113519 237.62167574269876 114.1697925579108 231.99558438925771 L 92.95658912231443 253.20878782485414 Z" stroke-opacity="0.6" stroke-linecap="round" stroke-linejoin="round" stroke-miterlimit="10" stroke-width="2.5"/><text fill="rgb(0,0,0)" stroke="none" font-family="geogebra-sans-serif, sans-serif" font-size="16px" font-style="normal" font-weight="normal" text-decoration="normal" x="562" y="237" text-anchor="start" dominant-baseline="alphabetic" fill-opacity="1">r</text><text fill="none" stroke="rgb(255,255,255)" font-family="geogebra-sans-serif, sans-serif" font-size="16px" font-style="normal" font-weight="normal" text-decoration="normal" x="562" y="237" text-anchor="start" dominant-baseline="alphabetic" stroke-opacity="1" stroke-linejoin="bevel" stroke-miterlimit="10" stroke-width="3">r</text><text fill="rgb(0,0,0)" stroke="none" font-family="geogebra-sans-serif, sans-serif" font-size="16px" font-style="normal" font-weight="normal" text-decoration="normal" x="562" y="237" text-anchor="start" dominant-baseline="alphabetic" fill-opacity="1">r</text><text fill="rgb(0,0,0)" stroke="none" font-family="geogebra-sans-serif, sans-serif" font-size="14px" font-style="normal" font-weight="normal" text-decoration="normal" x="567" y="244" text-anchor="start" dominant-baseline="alphabetic" fill-opacity="1">0</text><text fill="none" stroke="rgb(255,255,255)" font-family="geogebra-sans-serif, sans-serif" font-size="14px" font-style="normal" font-weight="normal" text-decoration="normal" x="567" y="244" text-anchor="start" dominant-baseline="alphabetic" stroke-opacity="1" stroke-linejoin="bevel" stroke-miterlimit="10" stroke-width="3">0</text><text fill="rgb(0,0,0)" stroke="none" font-family="geogebra-sans-serif, sans-serif" font-size="14px" font-style="normal" font-weight="normal" text-decoration="normal" x="567" y="244" text-anchor="start" dominant-baseline="alphabetic" fill-opacity="1">0</text><path fill="none" stroke="rgb(0,0,0)" paint-order="fill stroke markers" d=" M 1032.121427238998 253.20878782485414 L 92.95658912231443 253.20878782485414" stroke-opacity="0.6980392156862745" stroke-linecap="round" stroke-linejoin="round" stroke-miterlimit="10" stroke-width="2.5"/><path fill="rgb(255,127,0)" stroke="none" paint-order="stroke fill markers" d=" M 280.7895567456511 65.37582020151734 L 265.763537645437 74.39143166164584 L 267.88485798899666 76.5127520052055 L 92.07270564583123 252.32490434837095 C 91.58455028114214 252.81305971306003 91.58455028114214 253.60451593664826 92.07270564583123 254.09267130133733 C 92.31678332817577 254.33674898368187 92.6366862252451 254.45878782485414 92.95658912231443 254.45878782485414 C 93.27649201938375 254.45878782485414 93.59639491645308 254.33674898368187 93.84047259879762 254.09267130133733 L 269.652624941963 78.28051895817184 L 271.77394528552264 80.40183930173148 L 280.7895567456511 65.37582020151734 Z" fill-opacity="0.6980392156862745"/><path fill="rgb(0,0,0)" stroke="none" paint-order="stroke fill markers" d=" M 92.95658912231443 65.37582020151734 L 88.70658912231443 82.37582020151734 L 91.70658912231443 82.37582020151734 L 91.70658912231443 253.20878782485414 C 91.70658912231443 253.89914376214264 92.26623318502594 254.45878782485414 92.95658912231443 254.45878782485414 C 93.64694505960291 254.45878782485414 94.20658912231443 253.89914376214264 94.20658912231443 253.20878782485414 L 94.20658912231443 82.37582020151734 L 97.20658912231443 82.37582020151734 L 92.95658912231443 65.37582020151734 Z" fill-opacity="0.6980392156862745"/><path fill="rgb(0,0,0)" stroke="none" paint-order="stroke fill markers" d=" M 263.7895567456511 248.95878782485414 L 263.7895567456511 251.95878782485414 L 92.95658912231443 251.95878782485414 C 92.26623318502594 251.95878782485414 91.70658912231443 252.51843188756564 91.70658912231443 253.20878782485414 C 91.70658912231443 253.89914376214264 92.26623318502594 254.45878782485414 92.95658912231443 254.45878782485414 L 263.7895567456511 254.45878782485414 L 263.7895567456511 257.45878782485414 L 280.7895567456511 253.20878782485414 L 263.7895567456511 248.95878782485414 Z" fill-opacity="0.6980392156862745"/><path fill="rgb(97,97,97)" stroke="none" paint-order="stroke fill markers" d=" M 1037.121427238998 253.20878782485414 C 1037.121427238998 255.97021157400812 1034.8828509881519 258.20878782485414 1032.121427238998 258.20878782485414 C 1029.360003489844 258.20878782485414 1027.121427238998 255.97021157400812 1027.121427238998 253.20878782485414 C 1027.121427238998 250.44736407570016 1029.360003489844 248.20878782485414 1032.121427238998 248.20878782485414 C 1034.8828509881519 248.20878782485414 1037.121427238998 250.44736407570016 1037.121427238998 253.20878782485414 Z" fill-opacity="1"/><path fill="none" stroke="rgb(0,0,0)" paint-order="fill stroke markers" d=" M 1037.121427238998 253.20878782485414 C 1037.121427238998 255.97021157400812 1034.8828509881519 258.20878782485414 1032.121427238998 258.20878782485414 C 1029.360003489844 258.20878782485414 1027.121427238998 255.97021157400812 1027.121427238998 253.20878782485414 C 1027.121427238998 250.44736407570016 1029.360003489844 248.20878782485414 1032.121427238998 248.20878782485414 C 1034.8828509881519 248.20878782485414 1037.121427238998 250.44736407570016 1037.121427238998 253.20878782485414 Z" stroke-opacity="1" stroke-linecap="round" stroke-linejoin="round" stroke-miterlimit="10"/><text fill="rgb(97,97,97)" stroke="none" font-family="geogebra-sans-serif, sans-serif" font-size="16px" font-style="normal" font-weight="normal" text-decoration="normal" x="1036" y="243" text-anchor="start" dominant-baseline="alphabetic" fill-opacity="1">M</text><text fill="none" stroke="rgb(255,255,255)" font-family="geogebra-sans-serif, sans-serif" font-size="16px" font-style="normal" font-weight="normal" text-decoration="normal" x="1036" y="243" text-anchor="start" dominant-baseline="alphabetic" stroke-opacity="1" stroke-linejoin="bevel" stroke-miterlimit="10" stroke-width="3">M</text><text fill="rgb(97,97,97)" stroke="none" font-family="geogebra-sans-serif, sans-serif" font-size="16px" font-style="normal" font-weight="normal" text-decoration="normal" x="1036" y="243" text-anchor="start" dominant-baseline="alphabetic" fill-opacity="1">M</text><path fill="rgb(21,101,192)" stroke="none" paint-order="stroke fill markers" d=" M 97.95658912231443 253.20878782485414 C 97.95658912231443 255.97021157400812 95.71801287146839 258.20878782485414 92.95658912231443 258.20878782485414 C 90.19516537316046 258.20878782485414 87.95658912231443 255.97021157400812 87.95658912231443 253.20878782485414 C 87.95658912231443 250.44736407570016 90.19516537316046 248.20878782485414 92.95658912231443 248.20878782485414 C 95.71801287146839 248.20878782485414 97.95658912231443 250.44736407570016 97.95658912231443 253.20878782485414 Z" fill-opacity="1"/><path fill="none" stroke="rgb(0,0,0)" paint-order="fill stroke markers" d=" M 97.95658912231443 253.20878782485414 C 97.95658912231443 255.97021157400812 95.71801287146839 258.20878782485414 92.95658912231443 258.20878782485414 C 90.19516537316046 258.20878782485414 87.95658912231443 255.97021157400812 87.95658912231443 253.20878782485414 C 87.95658912231443 250.44736407570016 90.19516537316046 248.20878782485414 92.95658912231443 248.20878782485414 C 95.71801287146839 248.20878782485414 97.95658912231443 250.44736407570016 97.95658912231443 253.20878782485414 Z" stroke-opacity="1" stroke-linecap="round" stroke-linejoin="round" stroke-miterlimit="10"/><text fill="rgb(21,101,192)" stroke="none" font-family="geogebra-sans-serif, sans-serif" font-size="16px" font-style="normal" font-weight="normal" text-decoration="normal" x="81" y="244" text-anchor="start" dominant-baseline="alphabetic" fill-opacity="1">S</text><text fill="none" stroke="rgb(255,255,255)" font-family="geogebra-sans-serif, sans-serif" font-size="16px" font-style="normal" font-weight="normal" text-decoration="normal" x="81" y="244" text-anchor="start" dominant-baseline="alphabetic" stroke-opacity="1" stroke-linejoin="bevel" stroke-miterlimit="10" stroke-width="3">S</text><text fill="rgb(21,101,192)" stroke="none" font-family="geogebra-sans-serif, sans-serif" font-size="16px" font-style="normal" font-weight="normal" text-decoration="normal" x="81" y="244" text-anchor="start" dominant-baseline="alphabetic" fill-opacity="1">S</text><g transform="scale(19,19)"><g transform="translate(8.45621141115158,6.799263157894737)"><path fill="rgb(255,127,0)" stroke="none" paint-order="stroke fill markers" d=" M 0.434 -0.6940000000000001 L 0.434 0 L 0.356 0 L 0.356 -0.052000000000000005 Q 0.291 0.011 0.20800000000000002 0.011 Q 0.136 0.011 0.08600000000000001 -0.0565 Q 0.036000000000000004 -0.124 0.036000000000000004 -0.222 Q 0.036000000000000004 -0.319 0.08750000000000001 -0.387 Q 0.139 -0.455 0.213 -0.455 Q 0.293 -0.455 0.359 -0.4 L 0.359 -0.6940000000000001 L 0.434 -0.6940000000000001 M 0.356 -0.139 L 0.356 -0.339 Q 0.318 -0.394 0.259 -0.394 Q 0.20400000000000001 -0.394 0.159 -0.352 Q 0.114 -0.31 0.114 -0.221 Q 0.114 -0.135 0.1545 -0.0925 Q 0.195 -0.05 0.249 -0.05 Q 0.291 -0.05 0.323 -0.078 Q 0.356 -0.108 0.356 -0.139 Z"/></g><g transform="translate(8.97321141115158,6.799263157894737)"><path fill="rgb(255,127,0)" stroke="none" paint-order="stroke fill markers" d=" M 0.355 -0.677 L 0.41600000000000004 -0.677 Q 0.41500000000000004 -0.622 0.3855 -0.59 Q 0.356 -0.558 0.318 -0.558 Q 0.291 -0.558 0.254 -0.583 Q 0.20700000000000002 -0.616 0.183 -0.616 Q 0.146 -0.616 0.14400000000000002 -0.558 L 0.083 -0.558 Q 0.084 -0.613 0.1135 -0.645 Q 0.14300000000000002 -0.677 0.181 -0.677 Q 0.20800000000000002 -0.677 0.245 -0.652 Q 0.292 -0.619 0.316 -0.619 Q 0.353 -0.619 0.355 -0.677 Z"/></g><g transform="translate(9.045211411151579,6.799263157894737)"><path fill="rgb(255,127,0)" stroke="none" paint-order="stroke fill markers" d=" M 0.157 -0.214 L 0.157 0 L 0.082 0 L 0.082 -0.45 L 0.152 -0.45 L 0.152 -0.359 Q 0.216 -0.454 0.327 -0.455 L 0.327 -0.388 Q 0.253 -0.386 0.20500000000000002 -0.3375 Q 0.157 -0.289 0.157 -0.214 Z"/></g><rect fill="rgb(255,127,0)" stroke="none" x="8.37871141115158" y="7.205771657894737" width="1.1" height="0.039999"/><g transform="translate(8.37871141115158,8.161722157894737)"><path fill="rgb(255,127,0)" stroke="none" paint-order="stroke fill markers" d=" M 0.434 -0.6940000000000001 L 0.434 0 L 0.356 0 L 0.356 -0.052000000000000005 Q 0.291 0.011 0.20800000000000002 0.011 Q 0.136 0.011 0.08600000000000001 -0.0565 Q 0.036000000000000004 -0.124 0.036000000000000004 -0.222 Q 0.036000000000000004 -0.319 0.08750000000000001 -0.387 Q 0.139 -0.455 0.213 -0.455 Q 0.293 -0.455 0.359 -0.4 L 0.359 -0.6940000000000001 L 0.434 -0.6940000000000001 M 0.356 -0.139 L 0.356 -0.339 Q 0.318 -0.394 0.259 -0.394 Q 0.20400000000000001 -0.394 0.159 -0.352 Q 0.114 -0.31 0.114 -0.221 Q 0.114 -0.135 0.1545 -0.0925 Q 0.195 -0.05 0.249 -0.05 Q 0.291 -0.05 0.323 -0.078 Q 0.356 -0.108 0.356 -0.139 Z"/></g><g transform="translate(8.895711411151579,8.161722157894737)"><path fill="rgb(255,127,0)" stroke="none" paint-order="stroke fill markers" d=" M 0.357 -0.292 L 0.116 -0.008 Q 0.099 0.013000000000000001 0.083 0.013000000000000001 Q 0.06 0.013000000000000001 0.054 -0.008 Q 0.053 -0.012 0.053 -0.016 Q 0.053 -0.029 0.07100000000000001 -0.047 L 0.34700000000000003 -0.321 L 0.25 -0.593 Q 0.228 -0.653 0.213 -0.664 L 0.212 -0.664 L 0.21 -0.666 L 0.209 -0.666 Q 0.201 -0.67 0.185 -0.673 Q 0.178 -0.673 0.176 -0.683 Q 0.176 -0.6940000000000001 0.194 -0.6940000000000001 Q 0.29 -0.6940000000000001 0.316 -0.623 L 0.52 -0.054 Q 0.532 -0.02 0.543 -0.008 Q 0.548 -0.001 0.548 0.001 Q 0.548 0.01 0.537 0.011 L 0.515 0.011 Q 0.483 0.011 0.47200000000000003 0.001 Q 0.467 -0.004 0.462 -0.011 Q 0.454 -0.023 0.392 -0.197 Q 0.371 -0.256 0.357 -0.292 Z"/></g></g><g transform="scale(19,19)"><g transform="translate(9.386948253256843,14.746631578947365)"><path fill="rgb(0,0,0)" stroke="none" paint-order="stroke fill markers" d=" M 0.434 -0.6940000000000001 L 0.434 0 L 0.356 0 L 0.356 -0.052000000000000005 Q 0.291 0.011 0.20800000000000002 0.011 Q 0.136 0.011 0.08600000000000001 -0.0565 Q 0.036000000000000004 -0.124 0.036000000000000004 -0.222 Q 0.036000000000000004 -0.319 0.08750000000000001 -0.387 Q 0.139 -0.455 0.213 -0.455 Q 0.293 -0.455 0.359 -0.4 L 0.359 -0.6940000000000001 L 0.434 -0.6940000000000001 M 0.356 -0.139 L 0.356 -0.339 Q 0.318 -0.394 0.259 -0.394 Q 0.20400000000000001 -0.394 0.159 -0.352 Q 0.114 -0.31 0.114 -0.221 Q 0.114 -0.135 0.1545 -0.0925 Q 0.195 -0.05 0.249 -0.05 Q 0.291 -0.05 0.323 -0.078 Q 0.356 -0.108 0.356 -0.139 Z"/></g><g transform="translate(9.903948253256843,14.746631578947365)"><path fill="rgb(0,0,0)" stroke="none" paint-order="stroke fill markers" d=" M 0.157 -0.214 L 0.157 0 L 0.082 0 L 0.082 -0.45 L 0.152 -0.45 L 0.152 -0.359 Q 0.216 -0.454 0.327 -0.455 L 0.327 -0.388 Q 0.253 -0.386 0.20500000000000002 -0.3375 Q 0.157 -0.289 0.157 -0.214 Z"/></g><rect fill="rgb(0,0,0)" stroke="none" x="9.273448253256843" y="15.153140078947365" width="1.1" height="0.039999"/><g transform="translate(9.273448253256843,16.109090578947363)"><path fill="rgb(0,0,0)" stroke="none" paint-order="stroke fill markers" d=" M 0.434 -0.6940000000000001 L 0.434 0 L 0.356 0 L 0.356 -0.052000000000000005 Q 0.291 0.011 0.20800000000000002 0.011 Q 0.136 0.011 0.08600000000000001 -0.0565 Q 0.036000000000000004 -0.124 0.036000000000000004 -0.222 Q 0.036000000000000004 -0.319 0.08750000000000001 -0.387 Q 0.139 -0.455 0.213 -0.455 Q 0.293 -0.455 0.359 -0.4 L 0.359 -0.6940000000000001 L 0.434 -0.6940000000000001 M 0.356 -0.139 L 0.356 -0.339 Q 0.318 -0.394 0.259 -0.394 Q 0.20400000000000001 -0.394 0.159 -0.352 Q 0.114 -0.31 0.114 -0.221 Q 0.114 -0.135 0.1545 -0.0925 Q 0.195 -0.05 0.249 -0.05 Q 0.291 -0.05 0.323 -0.078 Q 0.356 -0.108 0.356 -0.139 Z"/></g><g transform="translate(9.790448253256843,16.109090578947363)"><path fill="rgb(0,0,0)" stroke="none" paint-order="stroke fill markers" d=" M 0.357 -0.292 L 0.116 -0.008 Q 0.099 0.013000000000000001 0.083 0.013000000000000001 Q 0.06 0.013000000000000001 0.054 -0.008 Q 0.053 -0.012 0.053 -0.016 Q 0.053 -0.029 0.07100000000000001 -0.047 L 0.34700000000000003 -0.321 L 0.25 -0.593 Q 0.228 -0.653 0.213 -0.664 L 0.212 -0.664 L 0.21 -0.666 L 0.209 -0.666 Q 0.201 -0.67 0.185 -0.673 Q 0.178 -0.673 0.176 -0.683 Q 0.176 -0.6940000000000001 0.194 -0.6940000000000001 Q 0.29 -0.6940000000000001 0.316 -0.623 L 0.52 -0.054 Q 0.532 -0.02 0.543 -0.008 Q 0.548 -0.001 0.548 0.001 Q 0.548 0.01 0.537 0.011 L 0.515 0.011 Q 0.483 0.011 0.47200000000000003 0.001 Q 0.467 -0.004 0.462 -0.011 Q 0.454 -0.023 0.392 -0.197 Q 0.371 -0.256 0.357 -0.292 Z"/></g></g><g transform="scale(19,19)"><g transform="translate(3.263157894736842,8.391368421052633)"><path fill="rgb(0,0,0)" stroke="none" paint-order="stroke fill markers" d=" M 0.446 -0.444 L 0.274 0 L 0.186 0 L 0.014 -0.444 L 0.092 -0.444 L 0.189 -0.185 Q 0.225 -0.08700000000000001 0.231 -0.053 L 0.232 -0.053 Q 0.24 -0.1 0.292 -0.23600000000000002 L 0.371 -0.444 L 0.446 -0.444 Z"/></g><g transform="translate(3.724157894736842,8.541368421052633) scale(0.7,0.7)"><path fill="rgb(0,0,0)" stroke="none" paint-order="stroke fill markers" d=" M 0.40900000000000003 -0.633 L 0.40900000000000003 -0.04 L 0.6890000000000001 -0.04 Q 0.721 -0.04 0.722 -0.02 Q 0.722 0 0.6890000000000001 0 L 0.09 0 Q 0.057 0 0.056 -0.02 Q 0.056 -0.04 0.09 -0.04 L 0.369 -0.04 L 0.369 -0.632 Q 0.369 -0.665 0.389 -0.666 Q 0.40900000000000003 -0.666 0.40900000000000003 -0.633 Z"/></g></g><g transform="scale(19,19)"><g transform="translate(6.81521052631579,12.571736842105263)"><path fill="rgb(0,0,0)" stroke="none" paint-order="stroke fill markers" d=" M 0.355 -0.677 L 0.41600000000000004 -0.677 Q 0.41500000000000004 -0.622 0.3855 -0.59 Q 0.356 -0.558 0.318 -0.558 Q 0.291 -0.558 0.254 -0.583 Q 0.20700000000000002 -0.616 0.183 -0.616 Q 0.146 -0.616 0.14400000000000002 -0.558 L 0.083 -0.558 Q 0.084 -0.613 0.1135 -0.645 Q 0.14300000000000002 -0.677 0.181 -0.677 Q 0.20800000000000002 -0.677 0.245 -0.652 Q 0.292 -0.619 0.316 -0.619 Q 0.353 -0.619 0.355 -0.677 Z"/></g><g transform="translate(6.684210526315789,12.821736842105263)"><path fill="rgb(0,0,0)" stroke="none" paint-order="stroke fill markers" d=" M 0.437 -0.67 L 0.381 -0.443 Q 0.508 -0.434 0.555 -0.341 Q 0.5730000000000001 -0.304 0.5730000000000001 -0.262 Q 0.5730000000000001 -0.166 0.488 -0.084 Q 0.399 0.002 0.281 0.011 Q 0.274 0.012 0.267 0.012 L 0.229 0.161 Q 0.221 0.198 0.218 0.201 Q 0.214 0.20500000000000002 0.20800000000000002 0.20500000000000002 Q 0.196 0.20500000000000002 0.196 0.194 Q 0.196 0.192 0.218 0.106 L 0.24 0.016 Q 0.24 0.014 0.241 0.012 Q 0.126 0.005 0.075 -0.075 Q 0.049 -0.117 0.049 -0.169 Q 0.049 -0.267 0.136 -0.34900000000000003 Q 0.225 -0.434 0.343 -0.442 Q 0.34900000000000003 -0.443 0.355 -0.443 L 0.41300000000000003 -0.674 Q 0.422 -0.6930000000000001 0.428 -0.6940000000000001 Q 0.44 -0.6940000000000001 0.44 -0.684 L 0.437 -0.671 L 0.437 -0.67 M 0.246 -0.01 L 0.34900000000000003 -0.421 Q 0.233 -0.41100000000000003 0.164 -0.309 Q 0.114 -0.234 0.114 -0.148 Q 0.114 -0.05 0.198 -0.019 Q 0.221 -0.011 0.246 -0.01 M 0.375 -0.421 L 0.272 -0.01 Q 0.388 -0.019 0.458 -0.123 Q 0.508 -0.198 0.508 -0.28300000000000003 Q 0.508 -0.377 0.43 -0.40900000000000003 Q 0.405 -0.419 0.375 -0.421 Z"/></g></g></g></g></svg>