<svg version="1.1" xmlns="http://www.w3.org/2000/svg" xmlns:xlink="http://www.w3.org/1999/xlink" width="836" height="863"><defs><clipPath id="CEFFoFFTXQEz"><path fill="none" stroke="none" d=" M 0 0 L 836 0 L 836 863 L 0 863 L 0 0 Z"/></clipPath></defs><g transform="scale(1,1)" clip-path="url(#CEFFoFFTXQEz)"><g><rect fill="rgb(255,255,255,0)" stroke="none" x="0" y="0" width="836" height="863" fill-opacity="1"/><path fill="rgb(255,0,0)" stroke="none" paint-order="stroke fill markers" d=" M 664.4993326332117 312.46026661563764 L 647.3934126053383 316.2615821773873 L 648.7350533918382 318.944863750387 L 167.7258278468319 559.4494765228912 C 167.10835472505286 559.7582130837808 166.85807429156745 560.509054384237 167.166810852457 561.126527506016 C 167.38581779274054 561.5645413865831 167.82729132514044 561.8177843323377 168.28581541682988 561.8177843323379 C 168.47367792352821 561.8177843323379 168.66440259436982 561.775274120997 168.8438618355818 561.685544500391 L 649.853087380588 321.18093172788684 L 651.1947281670879 323.86421330088655 L 664.4993326332117 312.46026661563764 Z" fill-opacity="0.6980392156862745"/><path fill="rgb(0,255,0)" stroke="none" paint-order="stroke fill markers" d=" M 664.4993326332117 300.05490442083743 L 647.3934126053383 303.8562199825871 L 648.7350533918382 306.5395015555868 L 167.7258278468319 547.044114328091 C 167.10835472505286 547.3528508889806 166.85807429156745 548.1036921894367 167.166810852457 548.7211653112158 C 167.38581779274054 549.1591791917829 167.82729132514044 549.4124221375375 168.28581541682988 549.4124221375376 C 168.47367792352821 549.4124221375376 168.66440259436982 549.3699119261968 168.8438618355818 549.2801823055908 L 168.84386183558183 549.2801823055908 L 649.8530873805879 308.7755695330867 L 649.853087380588 308.7755695330867 L 651.1947281670879 311.45885110608634 L 664.4993326332117 300.05490442083743 Z" fill-opacity="0.6980392156862745"/></g></g></svg>