<svg version="1.1" xmlns="http://www.w3.org/2000/svg" xmlns:xlink="http://www.w3.org/1999/xlink" width="836" height="863"><defs><clipPath id="LvByCCIsdRtH"><path fill="none" stroke="none" d=" M 0 0 L 836 0 L 836 863 L 0 863 L 0 0 Z"/></clipPath></defs><g transform="scale(1,1)" clip-path="url(#LvByCCIsdRtH)"><g><rect fill="rgb(255,255,255,0)" stroke="none" x="0" y="0" width="836" height="863" fill-opacity="1"/><path fill="rgb(255,0,0)" stroke="none" paint-order="stroke fill markers" d=" M 812.4993326332117 557.4602666156377 L 795.3934126053383 561.2615821773874 L 796.7350533918382 563.9448637503872 L 315.72582784683215 804.4494765228914 C 315.1083547250531 804.7582130837809 314.8580742915677 805.5090543842371 315.1668108524572 806.1265275060161 C 315.38581779274074 806.5645413865832 315.82729132514066 806.8177843323379 316.2858154168301 806.817784332338 C 316.4736779235284 806.817784332338 316.66440259437 806.7752741209971 316.843861835582 806.6855445003911 L 797.853087380588 566.1809317278869 L 799.1947281670879 568.8642133008867 L 812.4993326332117 557.4602666156377 Z" fill-opacity="0.6980392156862745"/><path fill="rgb(0,255,0)" stroke="none" paint-order="stroke fill markers" d=" M 564.3920887372094 61.24577882363076 L 547.286168709336 65.04709438538043 L 548.6278094958359 67.73037595838017 L 67.61858395082983 308.23498873088437 C 67.00111082905076 308.5437252917739 66.75083039556533 309.2945665922301 67.05956695645486 309.9120397140092 C 67.27857389673841 310.3500535945763 67.72004742913833 310.60329654033103 68.17857152082779 310.60329654033103 C 68.36643402752613 310.60329654033103 68.55715869836774 310.56078632899016 68.73661793957972 310.4710567083842 L 549.7458434845857 69.96644393587997 L 551.0874842710856 72.6497255088797 L 564.3920887372094 61.24577882363076 Z" fill-opacity="0.6980392156862745"/><path fill="rgb(0,0,0)" stroke="none" paint-order="stroke fill markers" d=" M 378.31068523958464 308.10274889893753 C 378.12282273288633 308.10274889893753 377.9320980620447 308.1452591102784 377.7526388208327 308.23498873088437 C 377.13516569905363 308.5437252917739 376.8848852655682 309.2945665922301 377.19362182645773 309.9120397140092 L 493.6446126509597 542.814021363014 L 493.64461265095974 542.814021363014 L 490.96133107796 544.1556621495139 L 502.36527776320884 557.4602666156377 L 498.5639622014592 540.3543465877643 L 495.88068062845946 541.6959873742642 L 495.8806806284595 541.6959873742642 L 379.42968980395756 308.79400572525935 C 379.210682863674 308.35599184469226 378.7692093312741 308.10274889893753 378.31068523958464 308.10274889893753 Z" fill-opacity="0.6980392156862745"/></g></g></svg>