<svg version="1.1" xmlns="http://www.w3.org/2000/svg" xmlns:xlink="http://www.w3.org/1999/xlink" width="407" height="635"><defs><clipPath id="IMBgoBTRpTwD"><path fill="none" stroke="none" d=" M 0 0 L 407 0 L 407 635 L 0 635 L 0 0 Z"/></clipPath></defs><g transform="scale(1,1)" clip-path="url(#IMBgoBTRpTwD)"><g><rect fill="rgb(255,255,255,0)" stroke="none" x="0" y="0" width="407" height="635" fill-opacity="1"/><path fill="none" stroke="rgb(0,0,0)" paint-order="fill stroke markers" d=" M 382.0565281249999 560.643289375 C 382.0565281249999 368.19935319611704 319.6389445198297 180.94660238060646 204.17258281249974 26.991453437500013" stroke-opacity="0.6980392156862745" stroke-linecap="round" stroke-linejoin="round" stroke-miterlimit="10" stroke-width="2.5"/><path fill="none" stroke="rgb(0,0,0)" paint-order="fill stroke markers" d=" M 204.17258281249974 26.991453437500013 C 88.70622110516979 180.94660238060646 26.288637499999595 368.19935319611693 26.288637499999595 560.6432893749999" stroke-opacity="0.6980392156862745" stroke-linecap="round" stroke-linejoin="round" stroke-miterlimit="10" stroke-width="2.5"/><path fill="rgb(46,125,50)" stroke="none" paint-order="stroke fill markers" d=" M 132.23061015624972 580.11114875 L 115.23061015624971 584.36114875 L 132.23061015624972 588.61114875 L 132.23061015624972 585.61114875 L 293.11455546874976 585.61114875 C 293.80491140603823 585.61114875 294.36455546874976 585.0515046872885 294.36455546874976 584.36114875 C 294.36455546874976 583.6707928127115 293.80491140603823 583.11114875 293.11455546874976 583.11114875 L 132.23061015624972 583.11114875 L 132.23061015624972 580.11114875 Z" fill-opacity="0.6980392156862745"/><path fill="rgb(219,97,20)" stroke="none" paint-order="stroke fill markers" d=" M 347.1293785104068 378.72703021218433 L 347.13001188777486 381.72703014532317 L 44.200858686635506 381.79098630333345 C 43.510502764733 381.7911320552756 42.95097686978879 382.35089426080884 42.951122621730974 383.04125018271134 C 42.95126835469356 383.7315162074955 43.51088480589689 384.2909862760848 44.20111681639818 384.2909862760848 C 44.20120670908665 384.2909862760848 44.20129660399053 384.2909862665955 44.201386501108864 384.2909862476159 L 347.1305397022482 384.2270300896056 L 347.13117307961625 387.22703002274443 L 364.13027541613167 382.9734409790455 L 347.1293785104068 378.72703021218433 Z" fill-opacity="0.6980392156862745"/><path fill="rgb(219,97,20)" stroke="none" paint-order="stroke fill markers" d=" M 290.94438770982845 200.8423141335212 L 290.9325073096593 203.8422906094443 L 100.78087478189072 203.08925887556788 C 100.77918855016951 203.08925219781298 100.77750308506806 203.0892488620485 100.77581839286184 203.0892488620485 C 100.08778284517133 203.0892488620485 99.52866164069542 203.64563461489345 99.52593441685228 204.334298907132 C 99.52320051525423 205.02464943109175 100.08062392445663 205.58650537057238 100.7709744484164 205.58923927217043 L 290.92260697618497 206.34227100604684 L 290.9107265760158 209.34224748196993 L 307.92742383981954 205.1596030753709 L 290.94438770982845 200.8423141335212 Z" fill-opacity="0.6980392156862745"/><path fill="rgb(21,101,192)" stroke="none" paint-order="stroke fill markers" d=" M 28.000000000000085 444 L 23.50106425345121 460.93582230505575 L 26.50074141470035 460.9798328523695 L 26.50074141470126 460.9798328523695 L 25.038772016145494 560.6249516469526 C 25.028644368598364 561.3152332930251 25.580018125879715 561.883027211307 26.270299771952267 561.8931548588541 C 26.276546253689215 561.8932465057432 26.282782705196546 561.8932921726134 26.289008804000098 561.8932921726134 C 26.97081188893755 561.8932921726134 27.528466983195802 561.345662267383 27.538502983853867 560.6616271030474 L 29.000472382409633 461.0165083084643 L 29.000472382410543 461.0165083084643 L 32.00014954365968 461.06051885577807 L 28.000000000000085 444 Z" fill-opacity="0.6980392156862745"/><path fill="rgb(21,101,192)" stroke="none" paint-order="stroke fill markers" d=" M 383.00000000000006 443 L 378.6138049962886 459.96537041710013 L 381.61370852592773 459.98942894711035 L 381.6137085259265 459.98942894711035 L 380.806568320984 560.6332649874957 C 380.801032004639 561.3235987251552 381.35616999983614 561.8877128626708 382.0465037374955 561.8932491790158 C 382.04991845845603 561.8932765642853 382.0533300911197 561.8932902311725 382.0567385831587 561.8932902311725 C 382.74240456492424 561.8932902311725 383.30097899794004 561.3402327792031 383.30648792901553 560.6533137625042 L 384.113628133958 460.0094777221189 L 384.11362813396386 460.0094777221189 L 387.1135316635959 460.03353625212907 L 383.00000000000006 443 Z" fill-opacity="0.6980392156862745"/><g transform="scale(19,19)"><g transform="translate(9.31578947368421,32.47247368421053)"><path fill="rgb(46,125,50)" stroke="none" paint-order="stroke fill markers" d=" M 0.78 -0.663 L 0.442 0.015 Q 0.434 0.03 0.426 0.032 Q 0.422 0.033 0.41600000000000004 0.033 Q 0.4 0.033 0.394 0.022 Q 0.393 0.02 0.39 0.015 L 0.052000000000000005 -0.663 Q 0.047 -0.672 0.047 -0.675 Q 0.053 -0.683 0.069 -0.683 L 0.763 -0.683 Q 0.784 -0.683 0.785 -0.675 Q 0.785 -0.672 0.78 -0.663 M 0.17 -0.612 L 0.445 -0.061 L 0.446 -0.061 L 0.72 -0.612 L 0.17 -0.612 Z"/></g><g transform="translate(10.14878947368421,32.622473684210526) scale(0.7,0.7)"><path fill="rgb(46,125,50)" stroke="none" paint-order="stroke fill markers" d=" M 0.15087890625 -0.0361328125 L 0.02685546875 -0.421875 Q 0.02490234375 -0.427734375 0.02490234375 -0.43017578125 Q 0.02490234375 -0.4404296875 0.03369140625 -0.44921875 Q 0.04248046875 -0.4580078125 0.05322265625 -0.4580078125 L 0.10498046875 -0.4580078125 Q 0.12109375 -0.4580078125 0.135009765625 -0.44775390625 Q 0.14892578125 -0.4375 0.15380859375 -0.421875 L 0.2509765625 -0.1201171875 L 0.34814453125 -0.421875 Q 0.35302734375 -0.4375 0.366943359375 -0.44775390625 Q 0.380859375 -0.4580078125 0.39697265625 -0.4580078125 L 0.44580078125 -0.4580078125 Q 0.45654296875 -0.4580078125 0.46533203125 -0.44921875 Q 0.47412109375 -0.4404296875 0.47412109375 -0.43017578125 Q 0.47412109375 -0.427734375 0.47216796875 -0.421875 L 0.34814453125 -0.0361328125 Q 0.3427734375 -0.02001953125 0.328857421875 -0.010009765625 Q 0.31494140625 0 0.298828125 0 L 0.2001953125 0 Q 0.18408203125 0 0.17041015625 -0.010009765625 Q 0.15673828125 -0.02001953125 0.15087890625 -0.0361328125 Z"/></g><g transform="translate(10.50928947368421,32.47247368421053)"><path fill="rgb(46,125,50)" stroke="none" paint-order="stroke fill markers" d=" M 0.78 -0.663 L 0.442 0.015 Q 0.434 0.03 0.426 0.032 Q 0.422 0.033 0.41600000000000004 0.033 Q 0.4 0.033 0.394 0.022 Q 0.393 0.02 0.39 0.015 L 0.052000000000000005 -0.663 Q 0.047 -0.672 0.047 -0.675 Q 0.053 -0.683 0.069 -0.683 L 0.763 -0.683 Q 0.784 -0.683 0.785 -0.675 Q 0.785 -0.672 0.78 -0.663 M 0.17 -0.612 L 0.445 -0.061 L 0.446 -0.061 L 0.72 -0.612 L 0.17 -0.612 Z"/></g><g transform="translate(11.342289473684211,32.622473684210526) scale(0.7,0.7)"><path fill="rgb(46,125,50)" stroke="none" paint-order="stroke fill markers" d=" M 0.15087890625 -0.0361328125 L 0.02685546875 -0.421875 Q 0.02490234375 -0.427734375 0.02490234375 -0.43017578125 Q 0.02490234375 -0.4404296875 0.03369140625 -0.44921875 Q 0.04248046875 -0.4580078125 0.05322265625 -0.4580078125 L 0.10498046875 -0.4580078125 Q 0.12109375 -0.4580078125 0.135009765625 -0.44775390625 Q 0.14892578125 -0.4375 0.15380859375 -0.421875 L 0.2509765625 -0.1201171875 L 0.34814453125 -0.421875 Q 0.35302734375 -0.4375 0.366943359375 -0.44775390625 Q 0.380859375 -0.4580078125 0.39697265625 -0.4580078125 L 0.44580078125 -0.4580078125 Q 0.45654296875 -0.4580078125 0.46533203125 -0.44921875 Q 0.47412109375 -0.4404296875 0.47412109375 -0.43017578125 Q 0.47412109375 -0.427734375 0.47216796875 -0.421875 L 0.34814453125 -0.0361328125 Q 0.3427734375 -0.02001953125 0.328857421875 -0.010009765625 Q 0.31494140625 0 0.298828125 0 L 0.2001953125 0 Q 0.18408203125 0 0.17041015625 -0.010009765625 Q 0.15673828125 -0.02001953125 0.15087890625 -0.0361328125 Z"/></g><g transform="translate(11.702789473684211,32.47247368421053)"><path fill="rgb(46,125,50)" stroke="none" paint-order="stroke fill markers" d=" M 0.0380859375 -0.037109375 Q 0.03076171875 -0.04052734375 0.03076171875 -0.048828125 L 0.046875 -0.13720703125 Q 0.048828125 -0.14892578125 0.05908203125 -0.14892578125 Q 0.0654296875 -0.14892578125 0.06884765625 -0.14404296875 Q 0.0947265625 -0.10986328125 0.134033203125 -0.09033203125 Q 0.17333984375 -0.07080078125 0.216796875 -0.07080078125 Q 0.251953125 -0.07080078125 0.27294921875 -0.081298828125 Q 0.2939453125 -0.091796875 0.2939453125 -0.123046875 Q 0.2939453125 -0.1435546875 0.2763671875 -0.156494140625 Q 0.2587890625 -0.16943359375 0.23681640625 -0.173828125 L 0.17822265625 -0.18505859375 Q 0.11865234375 -0.197265625 0.077880859375 -0.234619140625 Q 0.037109375 -0.27197265625 0.037109375 -0.328125 Q 0.037109375 -0.38232421875 0.06005859375 -0.41552734375 Q 0.0830078125 -0.44873046875 0.122314453125 -0.4619140625 Q 0.16162109375 -0.47509765625 0.216796875 -0.47509765625 Q 0.25146484375 -0.47509765625 0.314697265625 -0.462158203125 Q 0.3779296875 -0.44921875 0.3779296875 -0.42919921875 L 0.365234375 -0.35400390625 Q 0.36279296875 -0.341796875 0.35205078125 -0.341796875 Q 0.34814453125 -0.341796875 0.34521484375 -0.34521484375 Q 0.28564453125 -0.39990234375 0.2080078125 -0.39990234375 Q 0.17578125 -0.39990234375 0.157470703125 -0.390625 Q 0.13916015625 -0.38134765625 0.13916015625 -0.35302734375 Q 0.13916015625 -0.3359375 0.154541015625 -0.32373046875 Q 0.169921875 -0.3115234375 0.18896484375 -0.30810546875 L 0.2529296875 -0.2958984375 Q 0.29052734375 -0.28857421875 0.32373046875 -0.267578125 Q 0.35693359375 -0.24658203125 0.37646484375 -0.215087890625 Q 0.39599609375 -0.18359375 0.39599609375 -0.14404296875 Q 0.39599609375 -0.060546875 0.34912109375 -0.024658203125 Q 0.30224609375 0.01123046875 0.216796875 0.01123046875 Q 0.16845703125 0.01123046875 0.123779296875 -0.000732421875 Q 0.0791015625 -0.0126953125 0.0380859375 -0.037109375 Z"/></g></g><g transform="scale(19,19)"><g transform="translate(10.526315789473685,19.458)"><path fill="rgb(219,97,20)" stroke="none" paint-order="stroke fill markers" d=" M 0.0380859375 -0.037109375 Q 0.03076171875 -0.04052734375 0.03076171875 -0.048828125 L 0.046875 -0.13720703125 Q 0.048828125 -0.14892578125 0.05908203125 -0.14892578125 Q 0.0654296875 -0.14892578125 0.06884765625 -0.14404296875 Q 0.0947265625 -0.10986328125 0.134033203125 -0.09033203125 Q 0.17333984375 -0.07080078125 0.216796875 -0.07080078125 Q 0.251953125 -0.07080078125 0.27294921875 -0.081298828125 Q 0.2939453125 -0.091796875 0.2939453125 -0.123046875 Q 0.2939453125 -0.1435546875 0.2763671875 -0.156494140625 Q 0.2587890625 -0.16943359375 0.23681640625 -0.173828125 L 0.17822265625 -0.18505859375 Q 0.11865234375 -0.197265625 0.077880859375 -0.234619140625 Q 0.037109375 -0.27197265625 0.037109375 -0.328125 Q 0.037109375 -0.38232421875 0.06005859375 -0.41552734375 Q 0.0830078125 -0.44873046875 0.122314453125 -0.4619140625 Q 0.16162109375 -0.47509765625 0.216796875 -0.47509765625 Q 0.25146484375 -0.47509765625 0.314697265625 -0.462158203125 Q 0.3779296875 -0.44921875 0.3779296875 -0.42919921875 L 0.365234375 -0.35400390625 Q 0.36279296875 -0.341796875 0.35205078125 -0.341796875 Q 0.34814453125 -0.341796875 0.34521484375 -0.34521484375 Q 0.28564453125 -0.39990234375 0.2080078125 -0.39990234375 Q 0.17578125 -0.39990234375 0.157470703125 -0.390625 Q 0.13916015625 -0.38134765625 0.13916015625 -0.35302734375 Q 0.13916015625 -0.3359375 0.154541015625 -0.32373046875 Q 0.169921875 -0.3115234375 0.18896484375 -0.30810546875 L 0.2529296875 -0.2958984375 Q 0.29052734375 -0.28857421875 0.32373046875 -0.267578125 Q 0.35693359375 -0.24658203125 0.37646484375 -0.215087890625 Q 0.39599609375 -0.18359375 0.39599609375 -0.14404296875 Q 0.39599609375 -0.060546875 0.34912109375 -0.024658203125 Q 0.30224609375 0.01123046875 0.216796875 0.01123046875 Q 0.16845703125 0.01123046875 0.123779296875 -0.000732421875 Q 0.0791015625 -0.0126953125 0.0380859375 -0.037109375 Z"/></g></g><g transform="scale(19,19)"><g transform="translate(10.578947368421053,10.14221052631579)"><path fill="rgb(219,97,20)" stroke="none" paint-order="stroke fill markers" d=" M 0.0380859375 -0.037109375 Q 0.03076171875 -0.04052734375 0.03076171875 -0.048828125 L 0.046875 -0.13720703125 Q 0.048828125 -0.14892578125 0.05908203125 -0.14892578125 Q 0.0654296875 -0.14892578125 0.06884765625 -0.14404296875 Q 0.0947265625 -0.10986328125 0.134033203125 -0.09033203125 Q 0.17333984375 -0.07080078125 0.216796875 -0.07080078125 Q 0.251953125 -0.07080078125 0.27294921875 -0.081298828125 Q 0.2939453125 -0.091796875 0.2939453125 -0.123046875 Q 0.2939453125 -0.1435546875 0.2763671875 -0.156494140625 Q 0.2587890625 -0.16943359375 0.23681640625 -0.173828125 L 0.17822265625 -0.18505859375 Q 0.11865234375 -0.197265625 0.077880859375 -0.234619140625 Q 0.037109375 -0.27197265625 0.037109375 -0.328125 Q 0.037109375 -0.38232421875 0.06005859375 -0.41552734375 Q 0.0830078125 -0.44873046875 0.122314453125 -0.4619140625 Q 0.16162109375 -0.47509765625 0.216796875 -0.47509765625 Q 0.25146484375 -0.47509765625 0.314697265625 -0.462158203125 Q 0.3779296875 -0.44921875 0.3779296875 -0.42919921875 L 0.365234375 -0.35400390625 Q 0.36279296875 -0.341796875 0.35205078125 -0.341796875 Q 0.34814453125 -0.341796875 0.34521484375 -0.34521484375 Q 0.28564453125 -0.39990234375 0.2080078125 -0.39990234375 Q 0.17578125 -0.39990234375 0.157470703125 -0.390625 Q 0.13916015625 -0.38134765625 0.13916015625 -0.35302734375 Q 0.13916015625 -0.3359375 0.154541015625 -0.32373046875 Q 0.169921875 -0.3115234375 0.18896484375 -0.30810546875 L 0.2529296875 -0.2958984375 Q 0.29052734375 -0.28857421875 0.32373046875 -0.267578125 Q 0.35693359375 -0.24658203125 0.37646484375 -0.215087890625 Q 0.39599609375 -0.18359375 0.39599609375 -0.14404296875 Q 0.39599609375 -0.060546875 0.34912109375 -0.024658203125 Q 0.30224609375 0.01123046875 0.216796875 0.01123046875 Q 0.16845703125 0.01123046875 0.123779296875 -0.000732421875 Q 0.0791015625 -0.0126953125 0.0380859375 -0.037109375 Z"/></g></g><g transform="scale(19,19)"><g transform="translate(20.157894736842106,23.03694736842105)"><path fill="rgb(21,101,192)" stroke="none" paint-order="stroke fill markers" d=" M 0.15087890625 -0.0361328125 L 0.02685546875 -0.421875 Q 0.02490234375 -0.427734375 0.02490234375 -0.43017578125 Q 0.02490234375 -0.4404296875 0.03369140625 -0.44921875 Q 0.04248046875 -0.4580078125 0.05322265625 -0.4580078125 L 0.10498046875 -0.4580078125 Q 0.12109375 -0.4580078125 0.135009765625 -0.44775390625 Q 0.14892578125 -0.4375 0.15380859375 -0.421875 L 0.2509765625 -0.1201171875 L 0.34814453125 -0.421875 Q 0.35302734375 -0.4375 0.366943359375 -0.44775390625 Q 0.380859375 -0.4580078125 0.39697265625 -0.4580078125 L 0.44580078125 -0.4580078125 Q 0.45654296875 -0.4580078125 0.46533203125 -0.44921875 Q 0.47412109375 -0.4404296875 0.47412109375 -0.43017578125 Q 0.47412109375 -0.427734375 0.47216796875 -0.421875 L 0.34814453125 -0.0361328125 Q 0.3427734375 -0.02001953125 0.328857421875 -0.010009765625 Q 0.31494140625 0 0.298828125 0 L 0.2001953125 0 Q 0.18408203125 0 0.17041015625 -0.010009765625 Q 0.15673828125 -0.02001953125 0.15087890625 -0.0361328125 Z"/></g></g><g transform="scale(19,19)"><g transform="translate(0.9473684210526315,23.194842105263156)"><path fill="rgb(21,101,192)" stroke="none" paint-order="stroke fill markers" d=" M 0.15087890625 -0.0361328125 L 0.02685546875 -0.421875 Q 0.02490234375 -0.427734375 0.02490234375 -0.43017578125 Q 0.02490234375 -0.4404296875 0.03369140625 -0.44921875 Q 0.04248046875 -0.4580078125 0.05322265625 -0.4580078125 L 0.10498046875 -0.4580078125 Q 0.12109375 -0.4580078125 0.135009765625 -0.44775390625 Q 0.14892578125 -0.4375 0.15380859375 -0.421875 L 0.2509765625 -0.1201171875 L 0.34814453125 -0.421875 Q 0.35302734375 -0.4375 0.366943359375 -0.44775390625 Q 0.380859375 -0.4580078125 0.39697265625 -0.4580078125 L 0.44580078125 -0.4580078125 Q 0.45654296875 -0.4580078125 0.46533203125 -0.44921875 Q 0.47412109375 -0.4404296875 0.47412109375 -0.43017578125 Q 0.47412109375 -0.427734375 0.47216796875 -0.421875 L 0.34814453125 -0.0361328125 Q 0.3427734375 -0.02001953125 0.328857421875 -0.010009765625 Q 0.31494140625 0 0.298828125 0 L 0.2001953125 0 Q 0.18408203125 0 0.17041015625 -0.010009765625 Q 0.15673828125 -0.02001953125 0.15087890625 -0.0361328125 Z"/></g></g></g></g></svg>