<svg version="1.1" xmlns="http://www.w3.org/2000/svg" xmlns:xlink="http://www.w3.org/1999/xlink" width="893" height="337"><defs><clipPath id="TyQKfnmRAxAC"><path fill="none" stroke="none" d=" M 0 0 L 893 0 L 893 337 L 0 337 L 0 0 Z"/></clipPath></defs><g transform="scale(1,1)" clip-path="url(#TyQKfnmRAxAC)"><g><rect fill="rgb(255,255,255,0)" stroke="none" x="0" y="0" width="893" height="337" fill-opacity="1"/><path fill="rgb(255,0,0)" stroke="none" paint-order="stroke fill markers" d=" M 184.27392574804094 79.1088812844917 C 183.58356981075244 79.1088812844917 183.02392574804094 79.66852534720321 183.02392574804094 80.3588812844917 L 183.02392574804094 150.27312175343712 L 180.02392574804094 150.27312175343712 L 184.27392574804094 167.27312175343712 L 188.52392574804094 150.27312175343712 L 185.52392574804094 150.27312175343712 L 185.52392574804094 80.3588812844917 C 185.52392574804094 79.66852534720321 184.96428168532944 79.1088812844917 184.27392574804094 79.1088812844917 Z" fill-opacity="1"/><path fill="rgb(255,0,0)" stroke="none" paint-order="stroke fill markers" d=" M 705.7593685617137 171.93867818181036 L 701.5093685617137 188.93867818181036 L 704.5093685617137 188.93867818181036 L 704.5093685617137 258.8529186507558 C 704.5093685617137 259.54327458804426 705.0690126244252 260.1029186507558 705.7593685617137 260.1029186507558 C 706.4497244990022 260.1029186507558 707.0093685617137 259.54327458804426 707.0093685617137 258.8529186507558 L 707.0093685617137 188.93867818181036 L 710.0093685617137 188.93867818181036 L 705.7593685617137 171.93867818181036 Z" fill-opacity="1"/><path fill="rgb(0,255,0)" stroke="none" paint-order="stroke fill markers" d=" M 253.94852719004348 73.18159528993718 L 254.07429652137566 76.17895780976961 L 184.22152185998587 79.10998023456152 C 183.53177285606176 79.13892210276617 182.99608282990613 79.72153616862266 183.02502469811077 80.41128517254677 C 183.05321777246147 81.08318875573818 183.60680406976522 81.60890196997502 184.2730162485015 81.60890196997502 C 184.29071050839863 81.60890196997502 184.3084842153633 81.60853112827583 184.326329636096 81.60778233442188 L 254.1791042974858 78.67675990962998 L 254.30487362881797 81.67412242946241 L 271.1117546884812 76.71516598215084 L 253.94852719004348 73.18159528993718 Z" fill-opacity="1"/><path fill="rgb(0,255,0)" stroke="none" paint-order="stroke fill markers" d=" M 775.4382564159223 251.71736627198607 L 775.562230423189 254.71480358501233 L 705.7077127253525 257.60398643699483 C 705.0179465101199 257.6325151676569 704.4819076172906 258.2148082718844 704.5104363479527 258.904574487117 C 704.5382375205339 259.5767498396596 705.0919183145631 260.1029387944296 705.7584689090914 260.10293879442963 C 705.775912571582 260.10293879442963 705.793433535385 260.1025784225976 705.8110243980749 260.10185086451673 L 775.66554209591 257.21266801253427 L 775.6655420959114 257.21266801253427 L 775.7895161031781 260.2101053255605 L 792.5993643666991 255.26121642426162 L 775.4382564159223 251.71736627198607 Z" fill-opacity="1"/><path fill="none" stroke="rgb(102,204,255)" paint-order="fill stroke markers" d=" M 10.445444810150038 169.24086015765408 L 13.84053232846822 165.66402495720234 L 17.2356198467864 162.17140394528752 L 20.630707365104584 158.76233412248848 L 24.025794883422762 155.4361524893842 L 27.420882401740947 152.1921960465536 L 30.815969920059125 149.02980179457552 L 34.21105743837731 145.94830673402902 L 37.60614495669549 142.94704786549295 L 41.00123247501367 140.02536218954623 L 44.39631999333185 137.18258670676784 L 47.791407511650036 134.41805841773663 L 51.18649502996821 131.73111432303162 L 54.5815825482864 129.12109142323163 L 57.97667006660458 126.58732671891573 L 61.37175758492276 124.12915721066273 L 64.76684510324094 121.74591989905156 L 68.16193262155913 119.4369517846612 L 71.55702013987731 117.20158986807056 L 74.95210765819549 115.03917114985856 L 78.34719517651367 112.94903263060411 L 81.74228269483186 110.93051131088615 L 85.13737021315004 108.98294419128365 L 88.53245773146821 107.10566827237548 L 91.92754524978639 105.29802055474056 L 95.32263276810458 103.55933803895789 L 98.71772028642276 101.8889577256063 L 102.11280780474094 100.28621661526486 L 105.50789532305912 98.75045170851232 L 108.90298284137731 97.28100000592772 L 112.29807035969549 95.87719850808998 L 115.69315787801366 94.53838421557793 L 119.08824539633184 93.26389412897063 L 122.48333291465003 92.05306524884696 L 125.87842043296821 90.90523457578581 L 129.2735079512864 89.81973911036616 L 132.66859546960458 88.79591585316692 L 136.06368298792276 87.83310180476698 L 139.45877050624094 86.93063396574533 L 142.85385802455912 86.08784933668082 L 146.2489455428773 85.30408491815245 L 149.64403306119547 84.57867771073913 L 153.03912057951368 83.9109647150197 L 156.43420809783186 83.30028293157324 L 159.82929561615003 82.74596936097856 L 163.2243831344682 82.2473610038146 L 166.6194706527864 81.80379486066036 L 170.01455817110457 81.4146079320947 L 173.40964568942275 81.07913721869659 L 176.80473320774095 80.7967197210449 L 180.19982072605913 80.56669243971862 L 183.5949082443773 80.38839237529666 L 186.9899957626955 80.26115652835787 L 190.38508328101366 80.18432189948132 L 193.78017079933184 80.15722548924583 L 197.17525831765002 80.17920429823033 L 200.5703458359682 80.24959532701376 L 203.9654333542864 80.36773557617511 L 207.36052087260458 80.53296204629322 L 210.75560839092276 80.74461173794705 L 214.15069590924094 81.00202165171558 L 217.54578342755912 81.30452878817766 L 220.9408709458773 81.65147014791225 L 224.33595846419547 82.04218273149826 L 227.73104598251365 82.47600353951464 L 231.12613350083186 82.9522695725403 L 234.52122101915003 83.47031783115415 L 237.9163085374682 84.02948531593518 L 241.3113960557864 84.62910902746228 L 244.70648357410457 85.26852596631437 L 248.10157109242274 85.94707313307035 L 251.49665861074092 86.66408752830921 L 254.89174612905913 87.41890615260982 L 258.2868336473773 88.21086600655113 L 261.6819211656955 89.03930409071205 L 265.07700868401366 89.90355740567162 L 268.47209620233184 90.8029629520087 L 271.86718372065 91.73685773030198 L 275.2622712389682 92.7045787411308 L 278.6573587572864 93.70546298507386 L 282.05244627560455 94.73884746271003 L 285.44753379392273 95.80406917461832 L 288.8426213122409 96.90046512137775 L 292.23770883055914 98.02737230356706 L 295.6327963488773 99.1841277217653 L 299.0278838671955 100.37006837655142 L 302.4229713855137 101.58453126850424 L 305.81805890383185 102.8268533982027 L 309.21314642215003 104.09637176622587 L 312.6082339404682 105.3924233731525 L 316.0033214587864 106.71434521956158 L 319.39840897710457 108.06147430603215 L 322.79349649542274 109.43314763314294 L 326.1885840137409 110.82870220147299 L 329.5836715320591 112.24747501160127 L 332.9787590503773 113.6888030641066 L 336.37384656869546 115.15202335956792 L 339.76893408701363 116.63647289856428 L 343.16402160533187 118.14148868167447 L 346.55910912365005 119.66640770947751 L 349.9541966419682 121.21056698255222 L 353.3492841602864 122.77330350147761 L 356.7443716786046 124.35395426683266 L 360.13945919692276 125.95185627919614 L 363.53454671524094 127.56634653914702 L 366.9296342335591 129.1967620472644 L 370.3247217518773 130.84243980412697 L 373.71980927019547 132.50271681031376 L 377.11489678851365 134.17693006640383 L 380.5099843068318 135.86441657297584 L 383.90507182515 137.56451333060897 L 387.3001593434682 139.27655733988192 L 390.69524686178636 140.99988560137373 L 394.0903343801046 142.73383511566342 L 397.48542189842277 144.47774288332977 L 400.88050941674095 146.23094590495174 L 404.2755969350591 147.99278118110834 L 407.6706844533773 149.76258571237832 L 411.0657719716955 151.53969649934078 L 414.46085949001366 153.32345054257465 L 417.85594700833184 155.1131848426587 L 421.25103452665 156.908236400172 L 424.6461220449682 158.70794221569346 L 428.0412095632864 160.5116392898019 L 431.43629708160455 162.31866462307644 L 434.8313845999227 164.12835521609577 L 438.2264721182409 165.94004806943894 L 441.6215596365591 167.753080183685 L 445.01664715487726 169.56678855941263 L 448.4117346731955 171.38051019720086 L 451.8068221915137 173.1935820976288 L 455.20190970983185 175.00534126127505 L 458.59699722815003 176.8151246887187 L 461.9920847464682 178.6222693805388 L 465.3871722647864 180.42611233731407 L 468.78225978310456 182.2259905596236 L 472.17734730142274 184.0212410480461 L 475.5724348197409 185.81120080316072 L 478.9675223380591 187.5952068255463 L 482.3626098563773 189.37259611578173 L 485.75769737469545 191.142705674446 L 489.15278489301363 192.90487250211805 L 492.5478724113318 194.65843359937674 L 495.94295992965 196.40272596680097 L 499.3380474479682 198.13708660496985 L 502.7331349662864 199.86085251446207 L 506.1282224846046 201.57336069585668 L 509.52331000292276 203.2739481497327 L 512.918397521241 204.9619518766688 L 516.3134850395592 206.63670887724416 L 519.7085725578773 208.29755615203757 L 523.1036600761955 209.943830701628 L 526.4987475945137 211.5748695265944 L 529.8938351128319 213.19000962751565 L 533.2889226311501 214.7885880049707 L 536.6840101494682 216.36994165953845 L 540.0790976677864 217.9334075917979 L 543.4741851861046 219.47832280232782 L 546.8692727044228 221.00402429170737 L 550.264360222741 222.50984906051528 L 553.6594477410591 223.99513410933056 L 557.0545352593773 225.45921643873214 L 560.4496227776955 226.90143304929887 L 563.8447102960137 228.32112094160988 L 567.2397978143318 229.7176171162438 L 570.63488533265 231.09025857377978 L 574.0299728509683 232.43838231479668 L 577.4250603692865 233.7613253398734 L 580.8201478876047 235.05842464958891 L 584.2152354059228 236.3290172445221 L 587.610322924241 237.5724401252521 L 591.0054104425592 238.78803029235732 L 594.4004979608774 239.97512474641726 L 597.7955854791956 241.13306048801047 L 601.1906729975137 242.26117451771614 L 604.5857605158319 243.35880383611308 L 607.9808480341501 244.4252854437802 L 611.3759355524683 245.45995634129645 L 614.7710230707864 246.46215352924054 L 618.1661105891046 247.43121400819166 L 621.5611981074228 248.36647477872884 L 624.956285625741 249.26727284143084 L 628.3513731440592 250.1329451968766 L 631.7464606623773 250.96282884564494 L 635.1415481806955 251.75626078831482 L 638.5366356990137 252.5125780254652 L 641.9317232173319 253.23111755767525 L 645.32681073565 253.91121638552372 L 648.7218982539682 254.55221150958937 L 652.1169857722864 255.15343993045138 L 655.5120732906046 255.71423864868828 L 658.9071608089228 256.23394466487963 L 662.3022483272409 256.71189497960364 L 665.6973358455591 257.1474265934398 L 669.0924233638773 257.5398765069669 L 672.4875108821955 257.8885817207638 L 675.8825984005138 258.19287923540924 L 679.2776859188319 258.45210605148264 L 682.6727734371501 258.6655991695624 L 686.0678609554683 258.8326955902277 L 689.4629484737865 258.9527323140574 L 692.8580359921046 259.0250463416307 L 696.2531235104228 259.04897467352595 L 699.648211028741 259.02385431032263 L 703.0432985470592 258.94902225259955 L 706.4383860653774 258.8238155009352 L 709.8334735836955 258.6475710559093 L 713.2285611020137 258.4196259181 L 716.6236486203319 258.1393170880866 L 720.0187361386501 257.80598156644805 L 723.4138236569682 257.41895635376335 L 726.8089111752864 256.97757845061096 L 730.2039986936046 256.4811848575704 L 733.5990862119228 255.92911257522024 L 736.994173730241 255.32069860413944 L 740.3892612485591 254.65527994490716 L 743.7843487668773 253.93219359810206 L 747.1794362851955 253.15077656430296 L 750.5745238035137 252.31036584408932 L 753.9696113218318 251.41029843803963 L 757.36469884015 250.44991134673293 L 760.7597863584682 249.42854157074783 L 764.1548738767864 248.345526110664 L 767.5499613951046 247.20020196705974 L 770.9450489134227 245.99190614051406 L 774.3401364317409 244.71997563160625 L 777.7352239500592 243.38374744091482 L 781.1303114683774 241.98255856901878 L 784.5253989866956 240.5157460164974 L 787.9204865050137 238.98264678392917 L 791.3155740233319 237.38259787189315 L 794.7106615416501 235.7149362809684 L 798.1057490599683 233.9789990117338 L 801.5008365782865 232.174123064768 L 804.8959240966046 230.2996454406503 L 808.2910116149228 228.35490313995936 L 811.686099133241 226.33923316327463 L 815.0811866515592 224.2519725111745 L 818.4762741698773 222.09245818423776 L 821.8713616881955 219.86002718304388 L 825.2664492065137 217.5540165081714 L 828.6615367248319 215.1737631601997 L 832.05662424315 212.71860413970674 L 835.4517117614682 210.18787644727226 L 838.8467992797864 207.58091708347538 L 842.2418867981046 204.89706304889432 L 845.6369743164228 202.13565134410825 L 849.032061834741 199.29601896969658 L 852.4271493530591 196.3775029262378 L 855.8222368713773 193.37944021431082 L 859.2173243896955 190.3011678344944 L 862.6124119080137 187.14202278736803 L 866.0074994263318 183.9013420735102 L 869.40258694465 180.57846269350003 L 872.7976744629682 177.17272164791638 L 876.1927619812864 173.6834559373375 L 879.5878494996045 170.11000256234365" stroke-opacity="0.8" stroke-linecap="round" stroke-linejoin="round" stroke-miterlimit="10" stroke-width="2.5"/></g></g></svg>