<svg version="1.1" xmlns="http://www.w3.org/2000/svg" xmlns:xlink="http://www.w3.org/1999/xlink" width="662" height="390"><defs><clipPath id="UqdrBWIOBtPd"><path fill="none" stroke="none" d=" M 0 0 L 662 0 L 662 390 L 0 390 L 0 0 Z"/></clipPath></defs><g transform="scale(1,1)" clip-path="url(#UqdrBWIOBtPd)"><g><rect fill="rgb(255,255,255,0)" stroke="none" x="0" y="0" width="662" height="390" fill-opacity="1"/><path fill="none" stroke="rgb(192,192,192)" paint-order="fill stroke markers" d=" M 57.5 0.5 L 57.5 390.5 M 57.5 0.5 L 57.5 390.5 M 330.5 0.5 L 330.5 390.5 M 602.5 0.5 L 602.5 390.5" stroke-opacity="1" stroke-linecap="round" stroke-linejoin="round" stroke-miterlimit="10"/><path fill="none" stroke="rgb(192,192,192)" paint-order="fill stroke markers" d=" M 2.5 0.5 L 2.5 390.5 M 112.5 0.5 L 112.5 390.5 M 166.5 0.5 L 166.5 390.5 M 221.5 0.5 L 221.5 390.5 M 275.5 0.5 L 275.5 390.5 M 384.5 0.5 L 384.5 390.5 M 439.5 0.5 L 439.5 390.5 M 493.5 0.5 L 493.5 390.5 M 548.5 0.5 L 548.5 390.5 M 657.5 0.5 L 657.5 390.5" stroke-opacity="0.23529411764705882" stroke-linecap="round" stroke-linejoin="round" stroke-miterlimit="10"/><path fill="none" stroke="rgb(192,192,192)" paint-order="fill stroke markers" d=" M 0.5 59.5 L 662.5 59.5 M 0.5 59.5 L 662.5 59.5 M 0.5 332.5 L 662.5 332.5" stroke-opacity="1" stroke-linecap="round" stroke-linejoin="round" stroke-miterlimit="10"/><path fill="none" stroke="rgb(192,192,192)" paint-order="fill stroke markers" d=" M 0.5 5.5 L 662.5 5.5 M 0.5 5.5 L 662.5 5.5 M 0.5 114.5 L 662.5 114.5 M 0.5 168.5 L 662.5 168.5 M 0.5 223.5 L 662.5 223.5 M 0.5 277.5 L 662.5 277.5 M 0.5 387.5 L 662.5 387.5" stroke-opacity="0.23529411764705882" stroke-linecap="round" stroke-linejoin="round" stroke-miterlimit="10"/><path fill="none" stroke="rgb(46,125,50)" paint-order="fill stroke markers" d=" M 57.49704835112277 59.807137440585976 L 59.62776717226674 61.93785626172994 L 61.75848599341072 64.0685750828739 L 63.889204814554695 66.19929390401788 L 66.01992363569867 68.33001272516185 L 68.15064245684265 70.46073154630582 L 70.28136127798662 72.59145036744978 L 72.4120800991306 74.72216918859375 L 74.54279892027458 76.85288800973773 L 76.67351774141855 78.98360683088168 L 78.80423656256252 81.11432565202566 L 80.9349553837065 83.24504447316963 L 83.06567420485048 85.3757632943136 L 85.19639302599445 87.50648211545757 L 87.32711184713843 89.63720093660153 L 89.45783066828241 91.7679197577455 L 91.58854948942638 93.89863857888946 L 93.71926831057036 96.02935740003343 L 95.84998713171433 98.1600762211774 L 97.9807059528583 100.29079504232138 L 100.11142477400227 102.42151386346535 L 102.24214359514626 104.55223268460932 L 104.37286241629023 106.68295150575327 L 106.50358123743422 108.81367032689724 L 108.63430005857819 110.94438914804121 L 110.76501887972216 113.07510796918518 L 112.89573770086614 115.20582679032916 L 115.02645652201011 117.33654561147313 L 117.15717534315408 119.46726443261709 L 119.28789416429807 121.59798325376106 L 121.41861298544204 123.72870207490502 L 123.54933180658601 125.85942089604899 L 125.68005062773 127.99013971719296 L 127.81076944887397 130.12085853833693 L 129.94148827001794 132.2515773594809 L 132.0722070911619 134.38229618062485 L 134.2029259123059 136.51301500176885 L 136.3336447334499 138.6437338229128 L 138.46436355459383 140.77445264405677 L 140.59508237573783 142.90517146520074 L 142.72580119688178 145.0358902863447 L 144.85652001802578 147.16660910748868 L 146.98723883916975 149.29732792863265 L 149.11795766031372 151.42804674977663 L 151.2486764814577 153.55876557092057 L 153.37939530260167 155.68948439206457 L 155.51011412374567 157.82020321320852 L 157.64083294488964 159.9509220343525 L 159.7715517660336 162.08164085549646 L 161.90227058717755 164.2123596766404 L 164.03298940832155 166.3430784977844 L 166.16370822946553 168.47379731892835 L 168.2944270506095 170.60451614007235 L 170.4251458717535 172.7352349612163 L 172.55586469289744 174.86595378236026 L 174.68658351404144 176.99667260350424 L 176.8173023351854 179.12739142464818 L 178.9480211563294 181.25811024579218 L 181.07873997747336 183.38882906693613 L 183.20945879861733 185.5195478880801 L 185.3401776197613 187.65026670922407 L 187.47089644090528 189.78098553036807 L 189.60161526204925 191.91170435151201 L 191.73233408319325 194.04242317265596 L 193.86305290433722 196.17314199379996 L 195.99377172548117 198.3038608149439 L 198.12449054662517 200.4345796360879 L 200.25520936776914 202.56529845723185 L 202.3859281889131 204.69601727837585 L 204.51664701005708 206.8267360995198 L 206.64736583120106 208.95745492066374 L 208.77808465234506 211.08817374180774 L 210.90880347348903 213.21889256295168 L 213.03952229463297 215.34961138409568 L 215.17024111577697 217.48033020523962 L 217.30095993692095 219.61104902638357 L 219.43167875806492 221.74176784752757 L 221.5623975792089 223.8724866686715 L 223.69311640035286 226.0032054898155 L 225.82383522149686 228.13392431095946 L 227.9545540426408 230.26464313210346 L 230.08527286378478 232.3953619532474 L 232.21599168492875 234.52608077439135 L 234.34671050607275 236.65679959553535 L 236.47742932721673 238.78751841667935 L 238.6081481483607 240.9182372378233 L 240.73886696950467 243.04895605896724 L 242.86958579064864 245.17967488011118 L 245.00030461179261 247.31039370125518 L 247.13102343293662 249.44111252239918 L 249.2617422540806 251.57183134354312 L 251.39246107522456 253.70255016468707 L 253.52317989636853 255.83326898583107 L 255.65389871751248 257.963987806975 L 257.7846175386565 260.094706628119 L 259.91533635980045 262.22542544926296 L 262.04605518094445 264.35614427040696 L 264.1767740020884 266.4868630915509 L 266.30749282323234 268.61758191269485 L 268.43821164437634 270.74830073383885 L 270.56893046552034 272.8790195549828 L 272.69964928666434 275.0097383761268 L 274.8303681078083 277.14045719727073 L 276.9610869289522 279.2711760184147 L 279.0918057500962 281.4018948395587 L 281.2225245712402 283.5326136607027 L 283.35324339238423 285.6633324818466 L 285.4839622135282 287.79405130299057 L 287.6146810346721 289.92477012413457 L 289.7453998558161 292.0554889452785 L 291.8761186769601 294.1862077664225 L 294.00683749810406 296.31692658756646 L 296.137556319248 298.4476454087104 L 298.268275140392 300.5783642298544 L 300.398993961536 302.70908305099834 L 302.52971278268 304.83980187214235 L 304.66043160382395 306.9705206932863 L 306.7911504249679 309.1012395144303 L 308.9218692461119 311.23195833557423 L 311.0525880672559 313.3626771567182 L 313.18330688839984 315.4933959778622 L 315.31402570954384 317.6241147990061 L 317.4447445306878 319.7548336201501 L 319.5754633518318 321.88555244129407 L 321.70618217297573 324.016271262438 L 323.83690099411973 326.14699008358195 L 325.96761981526373 328.27770890472596 L 328.0983386364077 330.40842772586996 L 330.2290574575517 332.5391465470139" stroke-opacity="0.8" stroke-linecap="round" stroke-linejoin="round" stroke-miterlimit="10" stroke-width="2.5"/><path fill="rgb(0,0,0)" stroke="none" paint-order="stroke fill markers" d=" M 585.9610665639806 55.557137440585976 L 585.9610665639806 58.557137440585976 L 57.49704835112277 58.557137440585976 C 56.80669241383428 58.557137440585976 56.24704835112277 59.11678150329748 56.24704835112277 59.807137440585976 C 56.24704835112277 60.49749337787447 56.80669241383428 61.057137440585976 57.49704835112277 61.057137440585976 L 585.9610665639806 61.057137440585976 L 585.9610665639806 64.05713744058598 L 602.9610665639806 59.807137440585976 L 585.9610665639806 55.557137440585976 Z" fill-opacity="0.6980392156862745"/><path fill="rgb(0,0,0)" stroke="none" paint-order="stroke fill markers" d=" M 57.49704835112277 58.557137440585976 C 56.80669241383428 58.557137440585976 56.24704835112277 59.11678150329748 56.24704835112277 59.807137440585976 L 56.24704835112277 315.5391465470139 L 53.24704835112277 315.5391465470139 L 57.49704835112277 332.5391465470139 L 61.74704835112277 315.5391465470139 L 58.74704835112277 315.5391465470139 L 58.74704835112277 59.807137440585976 C 58.74704835112277 59.11678150329748 58.187404288411265 58.557137440585976 57.49704835112277 58.557137440585976 Z" fill-opacity="0.6980392156862745"/><g transform="scale(19,19)"><g transform="translate(17.105263157894736,2.431)"><path fill="rgb(0,0,0)" stroke="none" paint-order="stroke fill markers" d=" M 0.265 -0.373 L 0.265 -0.373 L 0.209 -0.152 Q 0.192 -0.088 0.182 -0.054 Q 0.166 -0.005 0.152 0.005 L 0.152 0.006 Q 0.14300000000000002 0.011 0.132 0.011 Q 0.109 0.011 0.10400000000000001 -0.009000000000000001 Q 0.10300000000000001 -0.012 0.10300000000000001 -0.016 Q 0.10300000000000001 -0.025 0.111 -0.04 Q 0.20500000000000002 -0.243 0.23900000000000002 -0.373 L 0.182 -0.373 Q 0.10400000000000001 -0.373 0.055 -0.296 Q 0.046 -0.28400000000000003 0.039 -0.28400000000000003 Q 0.027 -0.28400000000000003 0.027 -0.294 Q 0.027 -0.305 0.063 -0.354 Q 0.07 -0.362 0.076 -0.37 Q 0.079 -0.374 0.083 -0.378 Q 0.085 -0.381 0.088 -0.384 Q 0.132 -0.431 0.192 -0.431 L 0.527 -0.431 Q 0.561 -0.431 0.5660000000000001 -0.41600000000000004 L 0.5660000000000001 -0.41500000000000004 Q 0.5670000000000001 -0.41200000000000003 0.5670000000000001 -0.40700000000000003 Q 0.5670000000000001 -0.373 0.518 -0.373 L 0.404 -0.373 Q 0.386 -0.28800000000000003 0.386 -0.214 Q 0.386 -0.121 0.41500000000000004 -0.049 Q 0.421 -0.035 0.421 -0.027 Q 0.421 -0.004 0.396 0.007 Q 0.388 0.011 0.38 0.011 Q 0.36 0.011 0.35000000000000003 -0.017 Q 0.34700000000000003 -0.026000000000000002 0.34400000000000003 -0.039 Q 0.336 -0.073 0.336 -0.115 Q 0.336 -0.181 0.363 -0.306 L 0.378 -0.373 L 0.265 -0.373 Z"/></g></g><g transform="scale(19,19)"><g transform="translate(1.5789473684210527,17.641526315789474)"><path fill="rgb(0,0,0)" stroke="none" paint-order="stroke fill markers" d=" M 0.265 -0.373 L 0.265 -0.373 L 0.209 -0.152 Q 0.192 -0.088 0.182 -0.054 Q 0.166 -0.005 0.152 0.005 L 0.152 0.006 Q 0.14300000000000002 0.011 0.132 0.011 Q 0.109 0.011 0.10400000000000001 -0.009000000000000001 Q 0.10300000000000001 -0.012 0.10300000000000001 -0.016 Q 0.10300000000000001 -0.025 0.111 -0.04 Q 0.20500000000000002 -0.243 0.23900000000000002 -0.373 L 0.182 -0.373 Q 0.10400000000000001 -0.373 0.055 -0.296 Q 0.046 -0.28400000000000003 0.039 -0.28400000000000003 Q 0.027 -0.28400000000000003 0.027 -0.294 Q 0.027 -0.305 0.063 -0.354 Q 0.07 -0.362 0.076 -0.37 Q 0.079 -0.374 0.083 -0.378 Q 0.085 -0.381 0.088 -0.384 Q 0.132 -0.431 0.192 -0.431 L 0.527 -0.431 Q 0.561 -0.431 0.5660000000000001 -0.41600000000000004 L 0.5660000000000001 -0.41500000000000004 Q 0.5670000000000001 -0.41200000000000003 0.5670000000000001 -0.40700000000000003 Q 0.5670000000000001 -0.373 0.518 -0.373 L 0.404 -0.373 Q 0.386 -0.28800000000000003 0.386 -0.214 Q 0.386 -0.121 0.41500000000000004 -0.049 Q 0.421 -0.035 0.421 -0.027 Q 0.421 -0.004 0.396 0.007 Q 0.388 0.011 0.38 0.011 Q 0.36 0.011 0.35000000000000003 -0.017 Q 0.34700000000000003 -0.026000000000000002 0.34400000000000003 -0.039 Q 0.336 -0.073 0.336 -0.115 Q 0.336 -0.181 0.363 -0.306 L 0.378 -0.373 L 0.265 -0.373 Z"/></g></g><g transform="scale(19,19)"><g transform="translate(31.05263157894737,2.4454736842105262)"><path fill="rgb(0,0,0)" stroke="none" paint-order="stroke fill markers" d=" M 0.17400000000000002 -0.188 L 0.251 -0.259 Q 0.281 -0.29 0.2955 -0.3055 Q 0.31 -0.321 0.33 -0.34900000000000003 Q 0.35000000000000003 -0.377 0.3585 -0.404 Q 0.367 -0.431 0.367 -0.461 Q 0.367 -0.523 0.328 -0.5685 Q 0.289 -0.614 0.222 -0.614 Q 0.161 -0.614 0.1315 -0.5730000000000001 Q 0.10200000000000001 -0.532 0.083 -0.459 Q 0.066 -0.484 0.061 -0.488 Q 0.06 -0.489 0.0545 -0.4965 Q 0.049 -0.504 0.042 -0.514 Q 0.088 -0.678 0.23600000000000002 -0.678 Q 0.332 -0.678 0.3905 -0.6155 Q 0.449 -0.553 0.449 -0.463 Q 0.449 -0.424 0.4315 -0.3865 Q 0.41400000000000003 -0.34900000000000003 0.398 -0.3305 Q 0.382 -0.312 0.35000000000000003 -0.28 Q 0.34 -0.271 0.3055 -0.241 Q 0.271 -0.211 0.261 -0.202 Q 0.254 -0.196 0.1975 -0.14100000000000001 Q 0.14100000000000001 -0.08600000000000001 0.122 -0.07 L 0.231 -0.07 Q 0.23700000000000002 -0.07 0.249 -0.07050000000000001 Q 0.261 -0.07100000000000001 0.267 -0.07100000000000001 L 0.449 -0.07100000000000001 L 0.449 0 L 0.05 0 L 0.05 -0.064 L 0.17400000000000002 -0.188 Z"/></g><g transform="translate(31.55263157894737,2.4454736842105262)"><path fill="rgb(0,0,0)" stroke="none" paint-order="stroke fill markers" d=" M 0.265 -0.373 L 0.265 -0.373 L 0.209 -0.152 Q 0.192 -0.088 0.182 -0.054 Q 0.166 -0.005 0.152 0.005 L 0.152 0.006 Q 0.14300000000000002 0.011 0.132 0.011 Q 0.109 0.011 0.10400000000000001 -0.009000000000000001 Q 0.10300000000000001 -0.012 0.10300000000000001 -0.016 Q 0.10300000000000001 -0.025 0.111 -0.04 Q 0.20500000000000002 -0.243 0.23900000000000002 -0.373 L 0.182 -0.373 Q 0.10400000000000001 -0.373 0.055 -0.296 Q 0.046 -0.28400000000000003 0.039 -0.28400000000000003 Q 0.027 -0.28400000000000003 0.027 -0.294 Q 0.027 -0.305 0.063 -0.354 Q 0.07 -0.362 0.076 -0.37 Q 0.079 -0.374 0.083 -0.378 Q 0.085 -0.381 0.088 -0.384 Q 0.132 -0.431 0.192 -0.431 L 0.527 -0.431 Q 0.561 -0.431 0.5660000000000001 -0.41600000000000004 L 0.5660000000000001 -0.41500000000000004 Q 0.5670000000000001 -0.41200000000000003 0.5670000000000001 -0.40700000000000003 Q 0.5670000000000001 -0.373 0.518 -0.373 L 0.404 -0.373 Q 0.386 -0.28800000000000003 0.386 -0.214 Q 0.386 -0.121 0.41500000000000004 -0.049 Q 0.421 -0.035 0.421 -0.027 Q 0.421 -0.004 0.396 0.007 Q 0.388 0.011 0.38 0.011 Q 0.36 0.011 0.35000000000000003 -0.017 Q 0.34700000000000003 -0.026000000000000002 0.34400000000000003 -0.039 Q 0.336 -0.073 0.336 -0.115 Q 0.336 -0.181 0.363 -0.306 L 0.378 -0.373 L 0.265 -0.373 Z"/></g></g><g transform="scale(19,19)"><g transform="translate(1.9473684210526316,2.6033684210526316)"><path fill="rgb(0,0,0)" stroke="none" paint-order="stroke fill markers" d=" M 0.457 -0.326 Q 0.457 -0.17500000000000002 0.417 -0.088 Q 0.393 -0.036000000000000004 0.34850000000000003 -0.007 Q 0.304 0.022 0.249 0.022 Q 0.217 0.022 0.1875 0.012 Q 0.158 0.002 0.1265 -0.027 Q 0.095 -0.056 0.076 -0.101 Q 0.042 -0.184 0.042 -0.326 Q 0.042 -0.47800000000000004 0.08 -0.562 Q 0.108 -0.624 0.154 -0.651 Q 0.2 -0.678 0.25 -0.678 Q 0.294 -0.678 0.3385 -0.6545 Q 0.383 -0.631 0.41100000000000003 -0.579 Q 0.457 -0.49 0.457 -0.326 M 0.25 -0.039 Q 0.33 -0.039 0.361 -0.146 Q 0.379 -0.209 0.379 -0.338 Q 0.379 -0.467 0.36 -0.523 Q 0.354 -0.538 0.34950000000000003 -0.5465 Q 0.34500000000000003 -0.555 0.332 -0.5750000000000001 Q 0.319 -0.595 0.2975 -0.606 Q 0.276 -0.617 0.249 -0.617 Q 0.169 -0.617 0.137 -0.516 Q 0.12 -0.461 0.12 -0.338 Q 0.12 -0.21 0.137 -0.149 Q 0.168 -0.039 0.25 -0.039 Z"/></g></g><g transform="scale(19,19)"><g transform="translate(3.8421052631578947,17.799263157894735)"><path fill="rgb(0,0,0)" stroke="none" paint-order="stroke fill markers" d=" M 0.455 -0.5 L 0.455 -0.5 Q 0.455 -0.34700000000000003 0.377 -0.19 Q 0.307 -0.05 0.222 -0.005 Q 0.191 0.011 0.162 0.011 Q 0.08 0.011 0.052000000000000005 -0.101 Q 0.042 -0.14300000000000002 0.042 -0.194 Q 0.042 -0.35100000000000003 0.122 -0.509 Q 0.192 -0.646 0.277 -0.6900000000000001 Q 0.307 -0.705 0.335 -0.705 Q 0.422 -0.705 0.447 -0.578 Q 0.455 -0.54 0.455 -0.5 M 0.148 -0.363 L 0.148 -0.363 L 0.357 -0.363 Q 0.389 -0.495 0.389 -0.562 Q 0.389 -0.675 0.342 -0.682 Q 0.338 -0.683 0.334 -0.683 Q 0.28300000000000003 -0.683 0.225 -0.578 Q 0.187 -0.511 0.149 -0.368 Q 0.149 -0.365 0.148 -0.363 M 0.34800000000000003 -0.331 L 0.14 -0.331 Q 0.108 -0.21 0.108 -0.133 Q 0.108 -0.013000000000000001 0.162 -0.011 Q 0.218 -0.011 0.278 -0.128 Q 0.317 -0.202 0.34800000000000003 -0.331 Z"/></g></g><g transform="scale(19,19)"><g transform="translate(31.473684210526315,4.536105263157895)"><path fill="rgb(0,0,0)" stroke="none" paint-order="stroke fill markers" d=" M 0.437 -0.67 L 0.381 -0.443 Q 0.508 -0.434 0.555 -0.341 Q 0.5730000000000001 -0.304 0.5730000000000001 -0.262 Q 0.5730000000000001 -0.166 0.488 -0.084 Q 0.399 0.002 0.281 0.011 Q 0.274 0.012 0.267 0.012 L 0.229 0.161 Q 0.221 0.198 0.218 0.201 Q 0.214 0.20500000000000002 0.20800000000000002 0.20500000000000002 Q 0.196 0.20500000000000002 0.196 0.194 Q 0.196 0.192 0.218 0.106 L 0.24 0.016 Q 0.24 0.014 0.241 0.012 Q 0.126 0.005 0.075 -0.075 Q 0.049 -0.117 0.049 -0.169 Q 0.049 -0.267 0.136 -0.34900000000000003 Q 0.225 -0.434 0.343 -0.442 Q 0.34900000000000003 -0.443 0.355 -0.443 L 0.41300000000000003 -0.674 Q 0.422 -0.6930000000000001 0.428 -0.6940000000000001 Q 0.44 -0.6940000000000001 0.44 -0.684 L 0.437 -0.671 L 0.437 -0.67 M 0.246 -0.01 L 0.34900000000000003 -0.421 Q 0.233 -0.41100000000000003 0.164 -0.309 Q 0.114 -0.234 0.114 -0.148 Q 0.114 -0.05 0.198 -0.019 Q 0.221 -0.011 0.246 -0.01 M 0.375 -0.421 L 0.272 -0.01 Q 0.388 -0.019 0.458 -0.123 Q 0.508 -0.198 0.508 -0.28300000000000003 Q 0.508 -0.377 0.43 -0.40900000000000003 Q 0.405 -0.419 0.375 -0.421 Z"/></g></g></g></g></svg>