<svg version="1.1" xmlns="http://www.w3.org/2000/svg" xmlns:xlink="http://www.w3.org/1999/xlink" width="583" height="367"><defs><clipPath id="TfPNkOwrZFfw"><path fill="none" stroke="none" d=" M 0 0 L 583 0 L 583 367 L 0 367 L 0 0 Z"/></clipPath></defs><g transform="scale(1,1)" clip-path="url(#TfPNkOwrZFfw)"><g><rect fill="rgb(255,255,255,0)" stroke="none" x="0" y="0" width="583" height="367" fill-opacity="1"/><path fill="none" stroke="rgb(37,37,37)" paint-order="fill stroke markers" d=" M 45.5 2.5 L 45.5 367.5" stroke-opacity="1" stroke-miterlimit="10"/><path fill="none" stroke="rgb(37,37,37)" paint-order="fill stroke markers" d=" M 45.5 1.5 L 41.5 5.5" stroke-opacity="1" stroke-miterlimit="10"/><path fill="none" stroke="rgb(37,37,37)" paint-order="fill stroke markers" d=" M 45.5 1.5 L 49.5 5.5" stroke-opacity="1" stroke-miterlimit="10"/><path fill="none" stroke="rgb(37,37,37)" paint-order="fill stroke markers" d=" M 0.5 334.5 L 581.5 334.5" stroke-opacity="1" stroke-miterlimit="10"/><path fill="none" stroke="rgb(37,37,37)" paint-order="fill stroke markers" d=" M 582.5 334.5 L 578.5 330.5" stroke-opacity="1" stroke-miterlimit="10"/><path fill="none" stroke="rgb(37,37,37)" paint-order="fill stroke markers" d=" M 582.5 334.5 L 578.5 338.5" stroke-opacity="1" stroke-miterlimit="10"/><path fill="none" stroke="rgb(37,37,37)" paint-order="fill stroke markers" d=" M 45.5 334.5 L 45.5 337.5" stroke-opacity="1" stroke-miterlimit="10"/><path fill="none" stroke="rgb(46,125,50)" paint-order="fill stroke markers" d=" M -6.816396894469108 41.834672328686395 L -1.0196478211798947 40.87675113545998 L 4.777101252109311 40.030664899194505 L 10.573850325398517 39.29673636591531 L 16.370599398687727 38.67524549823918 L 22.167348471976936 38.16642936858108 L 27.964097545266142 37.77048206872075 L 33.76084661855535 37.48755463576492 L 39.55759569184456 37.317754994533175 L 45.35434476513377 37.261147916389234 L 51.15109383842297 37.317754994533175 L 56.947842911712186 37.48755463576492 L 62.74459198500139 37.77048206872075 L 68.5413410582906 38.16642936858108 L 74.3380901315798 38.67524549823918 L 80.13483920486902 39.29673636591531 L 85.93158827815822 40.030664899194505 L 91.72833735144744 40.87675113545998 L 97.52508642473664 41.834672328686395 L 103.32183549802585 42.90406307255432 L 109.11858457131505 44.08451543983705 L 114.91533364460426 45.37557913800748 L 120.71208271789348 46.77676168100567 L 126.50883179118267 48.287528577101455 L 132.3055808644719 49.90730353278036 L 138.10232993776108 51.63546867257497 L 143.8990790110503 53.47136477475857 L 149.69582808433952 55.414291522809776 L 155.49257715762872 57.46350777255424 L 161.28932623091794 59.618231834879055 L 167.08607530420713 61.877641773914604 L 172.88282437749635 64.24087572056777 L 178.67957345078554 66.70703220128883 L 184.47632252407476 69.27517048194505 L 190.27307159736395 71.94431092667111 L 196.06982067065317 74.7134353715586 L 201.86656974394236 77.58148751304236 L 207.66331881723158 80.54737331083547 L 213.4600678905208 83.60996140525924 L 219.25681696381 86.76808354880907 L 225.05356603709922 90.02053505179111 L 230.8503151103884 93.36607524186061 L 236.64706418367763 96.80342793728553 L 242.44381325696682 100.33128193375586 L 248.24056233025604 103.9482915045526 L 254.03731140354526 107.65307691388523 L 259.83406047683445 111.44422494320253 L 265.6308095501237 115.3202894302755 L 271.4275586234129 119.27979182084707 L 277.2243076967021 123.32122173263764 L 283.0210567699913 127.443037531492 L 288.8178058432805 131.64366691944733 L 294.6145549165697 135.92150753449832 L 300.41130398985894 140.2749275618303 L 306.2080530631481 144.7022663562873 L 312.0048021364373 149.2018350758379 L 317.80155120972654 153.7719173257967 L 323.59830028301576 158.41076981355627 L 329.3950493563049 163.1166230135794 L 335.19179842959414 167.88768184239782 L 340.98854750288336 172.72212634336066 L 346.7852965761726 177.61811238087068 L 352.5820456494618 182.5737723438438 L 358.37879472275097 187.58721585812353 L 364.1755437960402 192.65653050757857 L 369.9722928693294 197.77978256360842 L 375.7690419426186 202.95501772277905 L 381.56579101590785 208.18026185230656 L 387.362540089197 213.45352174310528 L 393.15928916248623 218.7727858701124 L 398.95603823577545 224.13602515959963 L 404.7527873090647 229.5411937631788 L 410.54953638235384 234.98622983820604 L 416.34628545564306 240.46905633428767 L 422.1430345289323 245.9875817855866 L 427.9397836022215 251.53970110862798 L 433.7365326755107 257.12329640529924 L 439.5332817487999 262.73623777073846 L 445.3300308220891 268.3763841058028 L 451.1267798953783 274.0415839338069 L 456.92352896866754 279.72967622122025 L 462.72027804195676 285.4384912020096 L 468.5170271152459 291.1658512053127 L 474.31377618853514 296.9095714861279 L 480.11052526182436 302.66746105870095 L 485.9072743351136 308.4373235322938 L 491.70402340840275 314.2169579490143 L 497.50077248169197 320.0041596233881 L 503.2975215549812 325.7967209833532 L 509.0942706282704 331.59243241235475 L 514.8910197015597 337.3890830922199 L 520.6877687748488 343.1844618464917 L 526.484517848138 348.9763579838986 L 532.2812669214272 354.76256214164 L 538.0780159947165 360.54086712816405 L 543.8747650680057 366.30906876511784 L 549.6715141412949 372.06496672814785" stroke-opacity="0.8" stroke-linecap="round" stroke-linejoin="round" stroke-miterlimit="10" stroke-width="2.5"/><path fill="rgb(0,0,0)" stroke="none" paint-order="stroke fill markers" d=" M 193.75112104133748 73.59385426731006 L 181.64278513079697 86.26076791971629 L 184.24940065412562 87.74587919956774 L 44.26825496374682 333.4359041021925 C 43.9265031672203 334.0357349364453 44.13571756427622 334.79903847365773 44.735548398528984 335.14079027018425 C 44.93083055713704 335.25205168710863 45.14343929398101 335.3049158384002 45.35318744313012 335.3049158384002 C 45.78770402448103 335.3049158384002 46.20994418691855 335.0780455110468 46.440434566520715 334.6734968354021 L 186.42158025689952 88.98347193277728 L 189.02819578022817 90.46858321262873 L 193.75112104133748 73.59385426731006 Z" fill-opacity="0.6980392156862745"/><path fill="rgb(0,0,0)" stroke="none" paint-order="stroke fill markers" d=" M 253.10983155181896 107.05447056267974 L 238.49720365918498 116.72574793805347 L 240.7102584990796 118.7511832679564 L 44.43223858184434 333.21076908133773 C 43.96614814664687 333.72003426409316 44.00114819491876 334.51071621688925 44.51041337767419 334.97680665208674 C 44.75028466143041 335.19634200385065 45.052589565932436 335.3047080987158 45.35400218907219 335.3047080987158 C 45.69251174504603 335.3047080987158 46.02989586498962 335.1680257552561 46.2764509484232 334.8986318562569 L 46.27645094842319 334.8986318562569 L 242.55447086565846 120.43904604287552 L 244.76752570555308 122.46448137277844 L 253.10983155181896 107.05447056267974 Z" fill-opacity="0.6980392156862745"/><path fill="rgb(0,0,0)" stroke="none" paint-order="stroke fill markers" d=" M 193.75226909141742 72.34363362309071 C 193.31573989277356 72.34363362309072 192.8918498256724 72.57265794965687 192.6622112940127 72.98003380318309 C 192.32320761254132 73.58142205057267 192.53591232982092 74.34376033316347 193.1373005772105 74.68276401463486 L 237.68683852407483 99.79542199787761 L 236.21366941017007 102.40880539145711 L 253.10983155181896 107.05447056267974 L 240.38764856623354 95.00421910964853 L 238.91447945232878 97.61760250322803 L 194.36494150546446 72.50494451998527 C 194.1709291116011 72.39557937017358 193.96016574038927 72.34363362309071 193.75226909141742 72.34363362309071 Z" fill-opacity="0.6980392156862745"/><g transform="scale(19,19)"><g transform="translate(4.473684210526316,9.539473684210526)"><path fill="rgb(0,0,0)" stroke="none" paint-order="stroke fill markers" d=" M 0.0908203125 -0.0341796875 L 0.0908203125 -0.66015625 Q 0.09375 -0.6904296875 0.125 -0.69384765625 L 0.3662109375 -0.69384765625 Q 0.44189453125 -0.69384765625 0.5029296875 -0.677001953125 Q 0.56396484375 -0.66015625 0.6025390625 -0.61572265625 Q 0.64111328125 -0.5712890625 0.64111328125 -0.4951171875 Q 0.64111328125 -0.42333984375 0.599609375 -0.379638671875 Q 0.55810546875 -0.3359375 0.48486328125 -0.31884765625 L 0.64990234375 -0.0361328125 Q 0.65283203125 -0.0302734375 0.65283203125 -0.02392578125 Q 0.65283203125 -0.01416015625 0.645751953125 -0.007080078125 Q 0.638671875 0 0.62890625 0 L 0.541015625 0 Q 0.52001953125 0 0.509765625 -0.01806640625 L 0.34521484375 -0.30908203125 L 0.23876953125 -0.30908203125 L 0.23876953125 -0.0341796875 Q 0.2353515625 -0.0029296875 0.205078125 0 L 0.125 0 Q 0.09423828125 -0.00341796875 0.0908203125 -0.0341796875 M 0.23876953125 -0.384765625 L 0.34716796875 -0.384765625 Q 0.39697265625 -0.384765625 0.4287109375 -0.3916015625 Q 0.46044921875 -0.3984375 0.479248046875 -0.42236328125 Q 0.498046875 -0.4462890625 0.498046875 -0.4951171875 Q 0.498046875 -0.54345703125 0.479248046875 -0.5673828125 Q 0.46044921875 -0.59130859375 0.4296875 -0.59765625 Q 0.39892578125 -0.60400390625 0.34716796875 -0.60400390625 L 0.23876953125 -0.60400390625 L 0.23876953125 -0.384765625 Z"/></g><g transform="translate(5.176684210526316,9.539473684210526)"><path fill="rgb(0,0,0)" stroke="none" paint-order="stroke fill markers" d=" M 0.271 -0.75 L 0.332 -0.75 Q 0.244 -0.662 0.201 -0.541 Q 0.157 -0.41400000000000003 0.157 -0.25 Q 0.157 -0.158 0.1715 -0.078 Q 0.186 0.002 0.20400000000000001 0.051500000000000004 Q 0.222 0.101 0.2505 0.1465 Q 0.279 0.192 0.2945 0.21 Q 0.31 0.228 0.332 0.25 L 0.271 0.25 Q 0.079 0.074 0.079 -0.25 Q 0.079 -0.41000000000000003 0.126 -0.536 Q 0.14200000000000002 -0.579 0.162 -0.6155 Q 0.182 -0.652 0.20500000000000002 -0.6795 Q 0.228 -0.707 0.24 -0.7195 Q 0.252 -0.732 0.271 -0.75 Z"/></g><g transform="translate(5.5656842105263165,9.539473684210526)"><path fill="rgb(0,0,0)" stroke="none" paint-order="stroke fill markers" d=" M 0.357 -0.292 L 0.116 -0.008 Q 0.099 0.013000000000000001 0.083 0.013000000000000001 Q 0.06 0.013000000000000001 0.054 -0.008 Q 0.053 -0.012 0.053 -0.016 Q 0.053 -0.029 0.07100000000000001 -0.047 L 0.34700000000000003 -0.321 L 0.25 -0.593 Q 0.228 -0.653 0.213 -0.664 L 0.212 -0.664 L 0.21 -0.666 L 0.209 -0.666 Q 0.201 -0.67 0.185 -0.673 Q 0.178 -0.673 0.176 -0.683 Q 0.176 -0.6940000000000001 0.194 -0.6940000000000001 Q 0.29 -0.6940000000000001 0.316 -0.623 L 0.52 -0.054 Q 0.532 -0.02 0.543 -0.008 Q 0.548 -0.001 0.548 0.001 Q 0.548 0.01 0.537 0.011 L 0.515 0.011 Q 0.483 0.011 0.47200000000000003 0.001 Q 0.467 -0.004 0.462 -0.011 Q 0.454 -0.023 0.392 -0.197 Q 0.371 -0.256 0.357 -0.292 Z"/></g><g transform="translate(6.148684210526317,9.539473684210526)"><path fill="rgb(0,0,0)" stroke="none" paint-order="stroke fill markers" d=" M 0.117 0.25 L 0.056 0.25 Q 0.14400000000000002 0.162 0.187 0.041 Q 0.231 -0.08600000000000001 0.231 -0.25 Q 0.231 -0.342 0.2165 -0.422 Q 0.202 -0.502 0.184 -0.5515 Q 0.166 -0.601 0.1375 -0.6465 Q 0.109 -0.6920000000000001 0.0935 -0.71 Q 0.078 -0.728 0.056 -0.75 L 0.117 -0.75 Q 0.309 -0.5740000000000001 0.309 -0.25 Q 0.309 -0.09 0.262 0.036000000000000004 Q 0.246 0.079 0.226 0.1155 Q 0.20600000000000002 0.152 0.183 0.1795 Q 0.16 0.20700000000000002 0.148 0.2195 Q 0.136 0.232 0.117 0.25 Z"/></g></g><g transform="scale(19,19)"><g transform="translate(8.789473684210526,11.960526315789474)"><path fill="rgb(0,0,0)" stroke="none" paint-order="stroke fill markers" d=" M 0.0908203125 -0.0341796875 L 0.0908203125 -0.66015625 Q 0.09375 -0.6904296875 0.125 -0.69384765625 L 0.3662109375 -0.69384765625 Q 0.44189453125 -0.69384765625 0.5029296875 -0.677001953125 Q 0.56396484375 -0.66015625 0.6025390625 -0.61572265625 Q 0.64111328125 -0.5712890625 0.64111328125 -0.4951171875 Q 0.64111328125 -0.42333984375 0.599609375 -0.379638671875 Q 0.55810546875 -0.3359375 0.48486328125 -0.31884765625 L 0.64990234375 -0.0361328125 Q 0.65283203125 -0.0302734375 0.65283203125 -0.02392578125 Q 0.65283203125 -0.01416015625 0.645751953125 -0.007080078125 Q 0.638671875 0 0.62890625 0 L 0.541015625 0 Q 0.52001953125 0 0.509765625 -0.01806640625 L 0.34521484375 -0.30908203125 L 0.23876953125 -0.30908203125 L 0.23876953125 -0.0341796875 Q 0.2353515625 -0.0029296875 0.205078125 0 L 0.125 0 Q 0.09423828125 -0.00341796875 0.0908203125 -0.0341796875 M 0.23876953125 -0.384765625 L 0.34716796875 -0.384765625 Q 0.39697265625 -0.384765625 0.4287109375 -0.3916015625 Q 0.46044921875 -0.3984375 0.479248046875 -0.42236328125 Q 0.498046875 -0.4462890625 0.498046875 -0.4951171875 Q 0.498046875 -0.54345703125 0.479248046875 -0.5673828125 Q 0.46044921875 -0.59130859375 0.4296875 -0.59765625 Q 0.39892578125 -0.60400390625 0.34716796875 -0.60400390625 L 0.23876953125 -0.60400390625 L 0.23876953125 -0.384765625 Z"/></g><g transform="translate(9.492473684210525,11.960526315789474)"><path fill="rgb(0,0,0)" stroke="none" paint-order="stroke fill markers" d=" M 0.271 -0.75 L 0.332 -0.75 Q 0.244 -0.662 0.201 -0.541 Q 0.157 -0.41400000000000003 0.157 -0.25 Q 0.157 -0.158 0.1715 -0.078 Q 0.186 0.002 0.20400000000000001 0.051500000000000004 Q 0.222 0.101 0.2505 0.1465 Q 0.279 0.192 0.2945 0.21 Q 0.31 0.228 0.332 0.25 L 0.271 0.25 Q 0.079 0.074 0.079 -0.25 Q 0.079 -0.41000000000000003 0.126 -0.536 Q 0.14200000000000002 -0.579 0.162 -0.6155 Q 0.182 -0.652 0.20500000000000002 -0.6795 Q 0.228 -0.707 0.24 -0.7195 Q 0.252 -0.732 0.271 -0.75 Z"/></g><g transform="translate(9.881473684210524,11.960526315789474)"><path fill="rgb(0,0,0)" stroke="none" paint-order="stroke fill markers" d=" M 0.357 -0.292 L 0.116 -0.008 Q 0.099 0.013000000000000001 0.083 0.013000000000000001 Q 0.06 0.013000000000000001 0.054 -0.008 Q 0.053 -0.012 0.053 -0.016 Q 0.053 -0.029 0.07100000000000001 -0.047 L 0.34700000000000003 -0.321 L 0.25 -0.593 Q 0.228 -0.653 0.213 -0.664 L 0.212 -0.664 L 0.21 -0.666 L 0.209 -0.666 Q 0.201 -0.67 0.185 -0.673 Q 0.178 -0.673 0.176 -0.683 Q 0.176 -0.6940000000000001 0.194 -0.6940000000000001 Q 0.29 -0.6940000000000001 0.316 -0.623 L 0.52 -0.054 Q 0.532 -0.02 0.543 -0.008 Q 0.548 -0.001 0.548 0.001 Q 0.548 0.01 0.537 0.011 L 0.515 0.011 Q 0.483 0.011 0.47200000000000003 0.001 Q 0.467 -0.004 0.462 -0.011 Q 0.454 -0.023 0.392 -0.197 Q 0.371 -0.256 0.357 -0.292 Z"/></g><g transform="translate(10.686695906432746,11.960526315789474)"><path fill="rgb(0,0,0)" stroke="none" paint-order="stroke fill markers" d=" M 0.40900000000000003 -0.23 L 0.40900000000000003 0.05 Q 0.40900000000000003 0.083 0.389 0.083 Q 0.369 0.083 0.369 0.05 L 0.369 -0.23 L 0.089 -0.23 Q 0.056 -0.23 0.056 -0.25 Q 0.056 -0.27 0.089 -0.27 L 0.369 -0.27 L 0.369 -0.55 Q 0.369 -0.583 0.389 -0.583 Q 0.40900000000000003 -0.583 0.40900000000000003 -0.55 L 0.40900000000000003 -0.27 L 0.6880000000000001 -0.27 Q 0.721 -0.27 0.721 -0.25 Q 0.721 -0.23 0.6880000000000001 -0.23 L 0.40900000000000003 -0.23 Z"/></g><g transform="translate(11.686918128654968,11.960526315789474)"><path fill="rgb(0,0,0)" stroke="none" paint-order="stroke fill markers" d=" M 0.435 -0.298 L 0.435 0 L 0.357 0 L 0.357 -0.291 Q 0.357 -0.305 0.3565 -0.3145 Q 0.356 -0.324 0.35050000000000003 -0.3405 Q 0.34500000000000003 -0.357 0.3355 -0.3675 Q 0.326 -0.378 0.3065 -0.386 Q 0.28700000000000003 -0.394 0.26 -0.394 Q 0.20800000000000002 -0.394 0.1835 -0.34900000000000003 Q 0.159 -0.304 0.159 -0.245 L 0.159 0 L 0.081 0 L 0.081 -0.6940000000000001 L 0.156 -0.6940000000000001 L 0.156 -0.383 Q 0.212 -0.455 0.298 -0.455 Q 0.435 -0.455 0.435 -0.298 Z"/></g><g transform="translate(12.203918128654967,11.960526315789474)"><path fill="rgb(0,0,0)" stroke="none" paint-order="stroke fill markers" d=" M 0.117 0.25 L 0.056 0.25 Q 0.14400000000000002 0.162 0.187 0.041 Q 0.231 -0.08600000000000001 0.231 -0.25 Q 0.231 -0.342 0.2165 -0.422 Q 0.202 -0.502 0.184 -0.5515 Q 0.166 -0.601 0.1375 -0.6465 Q 0.109 -0.6920000000000001 0.0935 -0.71 Q 0.078 -0.728 0.056 -0.75 L 0.117 -0.75 Q 0.309 -0.5740000000000001 0.309 -0.25 Q 0.309 -0.09 0.262 0.036000000000000004 Q 0.246 0.079 0.226 0.1155 Q 0.20600000000000002 0.152 0.183 0.1795 Q 0.16 0.20700000000000002 0.148 0.2195 Q 0.136 0.232 0.117 0.25 Z"/></g></g><g transform="scale(19,19)"><g transform="translate(11.736842105263158,4.276315789473684)"><path fill="rgb(0,0,0)" stroke="none" paint-order="stroke fill markers" d=" M 0.0908203125 -0.0341796875 L 0.0908203125 -0.66015625 Q 0.09375 -0.6904296875 0.125 -0.69384765625 L 0.3662109375 -0.69384765625 Q 0.44189453125 -0.69384765625 0.5029296875 -0.677001953125 Q 0.56396484375 -0.66015625 0.6025390625 -0.61572265625 Q 0.64111328125 -0.5712890625 0.64111328125 -0.4951171875 Q 0.64111328125 -0.42333984375 0.599609375 -0.379638671875 Q 0.55810546875 -0.3359375 0.48486328125 -0.31884765625 L 0.64990234375 -0.0361328125 Q 0.65283203125 -0.0302734375 0.65283203125 -0.02392578125 Q 0.65283203125 -0.01416015625 0.645751953125 -0.007080078125 Q 0.638671875 0 0.62890625 0 L 0.541015625 0 Q 0.52001953125 0 0.509765625 -0.01806640625 L 0.34521484375 -0.30908203125 L 0.23876953125 -0.30908203125 L 0.23876953125 -0.0341796875 Q 0.2353515625 -0.0029296875 0.205078125 0 L 0.125 0 Q 0.09423828125 -0.00341796875 0.0908203125 -0.0341796875 M 0.23876953125 -0.384765625 L 0.34716796875 -0.384765625 Q 0.39697265625 -0.384765625 0.4287109375 -0.3916015625 Q 0.46044921875 -0.3984375 0.479248046875 -0.42236328125 Q 0.498046875 -0.4462890625 0.498046875 -0.4951171875 Q 0.498046875 -0.54345703125 0.479248046875 -0.5673828125 Q 0.46044921875 -0.59130859375 0.4296875 -0.59765625 Q 0.39892578125 -0.60400390625 0.34716796875 -0.60400390625 L 0.23876953125 -0.60400390625 L 0.23876953125 -0.384765625 Z"/></g><g transform="translate(12.439842105263157,4.276315789473684)"><path fill="rgb(0,0,0)" stroke="none" paint-order="stroke fill markers" d=" M 0.271 -0.75 L 0.332 -0.75 Q 0.244 -0.662 0.201 -0.541 Q 0.157 -0.41400000000000003 0.157 -0.25 Q 0.157 -0.158 0.1715 -0.078 Q 0.186 0.002 0.20400000000000001 0.051500000000000004 Q 0.222 0.101 0.2505 0.1465 Q 0.279 0.192 0.2945 0.21 Q 0.31 0.228 0.332 0.25 L 0.271 0.25 Q 0.079 0.074 0.079 -0.25 Q 0.079 -0.41000000000000003 0.126 -0.536 Q 0.14200000000000002 -0.579 0.162 -0.6155 Q 0.182 -0.652 0.20500000000000002 -0.6795 Q 0.228 -0.707 0.24 -0.7195 Q 0.252 -0.732 0.271 -0.75 Z"/></g><g transform="translate(12.828842105263156,4.276315789473684)"><path fill="rgb(0,0,0)" stroke="none" paint-order="stroke fill markers" d=" M 0.357 -0.292 L 0.116 -0.008 Q 0.099 0.013000000000000001 0.083 0.013000000000000001 Q 0.06 0.013000000000000001 0.054 -0.008 Q 0.053 -0.012 0.053 -0.016 Q 0.053 -0.029 0.07100000000000001 -0.047 L 0.34700000000000003 -0.321 L 0.25 -0.593 Q 0.228 -0.653 0.213 -0.664 L 0.212 -0.664 L 0.21 -0.666 L 0.209 -0.666 Q 0.201 -0.67 0.185 -0.673 Q 0.178 -0.673 0.176 -0.683 Q 0.176 -0.6940000000000001 0.194 -0.6940000000000001 Q 0.29 -0.6940000000000001 0.316 -0.623 L 0.52 -0.054 Q 0.532 -0.02 0.543 -0.008 Q 0.548 -0.001 0.548 0.001 Q 0.548 0.01 0.537 0.011 L 0.515 0.011 Q 0.483 0.011 0.47200000000000003 0.001 Q 0.467 -0.004 0.462 -0.011 Q 0.454 -0.023 0.392 -0.197 Q 0.371 -0.256 0.357 -0.292 Z"/></g><g transform="translate(13.634064327485378,4.276315789473684)"><path fill="rgb(0,0,0)" stroke="none" paint-order="stroke fill markers" d=" M 0.40900000000000003 -0.23 L 0.40900000000000003 0.05 Q 0.40900000000000003 0.083 0.389 0.083 Q 0.369 0.083 0.369 0.05 L 0.369 -0.23 L 0.089 -0.23 Q 0.056 -0.23 0.056 -0.25 Q 0.056 -0.27 0.089 -0.27 L 0.369 -0.27 L 0.369 -0.55 Q 0.369 -0.583 0.389 -0.583 Q 0.40900000000000003 -0.583 0.40900000000000003 -0.55 L 0.40900000000000003 -0.27 L 0.6880000000000001 -0.27 Q 0.721 -0.27 0.721 -0.25 Q 0.721 -0.23 0.6880000000000001 -0.23 L 0.40900000000000003 -0.23 Z"/></g><g transform="translate(14.6342865497076,4.276315789473684)"><path fill="rgb(0,0,0)" stroke="none" paint-order="stroke fill markers" d=" M 0.435 -0.298 L 0.435 0 L 0.357 0 L 0.357 -0.291 Q 0.357 -0.305 0.3565 -0.3145 Q 0.356 -0.324 0.35050000000000003 -0.3405 Q 0.34500000000000003 -0.357 0.3355 -0.3675 Q 0.326 -0.378 0.3065 -0.386 Q 0.28700000000000003 -0.394 0.26 -0.394 Q 0.20800000000000002 -0.394 0.1835 -0.34900000000000003 Q 0.159 -0.304 0.159 -0.245 L 0.159 0 L 0.081 0 L 0.081 -0.6940000000000001 L 0.156 -0.6940000000000001 L 0.156 -0.383 Q 0.212 -0.455 0.298 -0.455 Q 0.435 -0.455 0.435 -0.298 Z"/></g><g transform="translate(15.1512865497076,4.276315789473684)"><path fill="rgb(0,0,0)" stroke="none" paint-order="stroke fill markers" d=" M 0.117 0.25 L 0.056 0.25 Q 0.14400000000000002 0.162 0.187 0.041 Q 0.231 -0.08600000000000001 0.231 -0.25 Q 0.231 -0.342 0.2165 -0.422 Q 0.202 -0.502 0.184 -0.5515 Q 0.166 -0.601 0.1375 -0.6465 Q 0.109 -0.6920000000000001 0.0935 -0.71 Q 0.078 -0.728 0.056 -0.75 L 0.117 -0.75 Q 0.309 -0.5740000000000001 0.309 -0.25 Q 0.309 -0.09 0.262 0.036000000000000004 Q 0.246 0.079 0.226 0.1155 Q 0.20600000000000002 0.152 0.183 0.1795 Q 0.16 0.20700000000000002 0.148 0.2195 Q 0.136 0.232 0.117 0.25 Z"/></g><g transform="translate(15.706953216374265,4.276315789473684)"><path fill="rgb(0,0,0)" stroke="none" paint-order="stroke fill markers" d=" M 0.661 -0.23 L 0.116 -0.23 Q 0.084 -0.23 0.083 -0.25 Q 0.083 -0.27 0.116 -0.27 L 0.661 -0.27 Q 0.6930000000000001 -0.27 0.6940000000000001 -0.25 Q 0.6940000000000001 -0.23 0.661 -0.23 Z"/></g><g transform="translate(16.707175438596487,4.276315789473684)"><path fill="rgb(0,0,0)" stroke="none" paint-order="stroke fill markers" d=" M 0.0908203125 -0.0341796875 L 0.0908203125 -0.66015625 Q 0.09375 -0.6904296875 0.125 -0.69384765625 L 0.3662109375 -0.69384765625 Q 0.44189453125 -0.69384765625 0.5029296875 -0.677001953125 Q 0.56396484375 -0.66015625 0.6025390625 -0.61572265625 Q 0.64111328125 -0.5712890625 0.64111328125 -0.4951171875 Q 0.64111328125 -0.42333984375 0.599609375 -0.379638671875 Q 0.55810546875 -0.3359375 0.48486328125 -0.31884765625 L 0.64990234375 -0.0361328125 Q 0.65283203125 -0.0302734375 0.65283203125 -0.02392578125 Q 0.65283203125 -0.01416015625 0.645751953125 -0.007080078125 Q 0.638671875 0 0.62890625 0 L 0.541015625 0 Q 0.52001953125 0 0.509765625 -0.01806640625 L 0.34521484375 -0.30908203125 L 0.23876953125 -0.30908203125 L 0.23876953125 -0.0341796875 Q 0.2353515625 -0.0029296875 0.205078125 0 L 0.125 0 Q 0.09423828125 -0.00341796875 0.0908203125 -0.0341796875 M 0.23876953125 -0.384765625 L 0.34716796875 -0.384765625 Q 0.39697265625 -0.384765625 0.4287109375 -0.3916015625 Q 0.46044921875 -0.3984375 0.479248046875 -0.42236328125 Q 0.498046875 -0.4462890625 0.498046875 -0.4951171875 Q 0.498046875 -0.54345703125 0.479248046875 -0.5673828125 Q 0.46044921875 -0.59130859375 0.4296875 -0.59765625 Q 0.39892578125 -0.60400390625 0.34716796875 -0.60400390625 L 0.23876953125 -0.60400390625 L 0.23876953125 -0.384765625 Z"/></g><g transform="translate(17.410175438596486,4.276315789473684)"><path fill="rgb(0,0,0)" stroke="none" paint-order="stroke fill markers" d=" M 0.271 -0.75 L 0.332 -0.75 Q 0.244 -0.662 0.201 -0.541 Q 0.157 -0.41400000000000003 0.157 -0.25 Q 0.157 -0.158 0.1715 -0.078 Q 0.186 0.002 0.20400000000000001 0.051500000000000004 Q 0.222 0.101 0.2505 0.1465 Q 0.279 0.192 0.2945 0.21 Q 0.31 0.228 0.332 0.25 L 0.271 0.25 Q 0.079 0.074 0.079 -0.25 Q 0.079 -0.41000000000000003 0.126 -0.536 Q 0.14200000000000002 -0.579 0.162 -0.6155 Q 0.182 -0.652 0.20500000000000002 -0.6795 Q 0.228 -0.707 0.24 -0.7195 Q 0.252 -0.732 0.271 -0.75 Z"/></g><g transform="translate(17.799175438596485,4.276315789473684)"><path fill="rgb(0,0,0)" stroke="none" paint-order="stroke fill markers" d=" M 0.357 -0.292 L 0.116 -0.008 Q 0.099 0.013000000000000001 0.083 0.013000000000000001 Q 0.06 0.013000000000000001 0.054 -0.008 Q 0.053 -0.012 0.053 -0.016 Q 0.053 -0.029 0.07100000000000001 -0.047 L 0.34700000000000003 -0.321 L 0.25 -0.593 Q 0.228 -0.653 0.213 -0.664 L 0.212 -0.664 L 0.21 -0.666 L 0.209 -0.666 Q 0.201 -0.67 0.185 -0.673 Q 0.178 -0.673 0.176 -0.683 Q 0.176 -0.6940000000000001 0.194 -0.6940000000000001 Q 0.29 -0.6940000000000001 0.316 -0.623 L 0.52 -0.054 Q 0.532 -0.02 0.543 -0.008 Q 0.548 -0.001 0.548 0.001 Q 0.548 0.01 0.537 0.011 L 0.515 0.011 Q 0.483 0.011 0.47200000000000003 0.001 Q 0.467 -0.004 0.462 -0.011 Q 0.454 -0.023 0.392 -0.197 Q 0.371 -0.256 0.357 -0.292 Z"/></g><g transform="translate(18.382175438596484,4.276315789473684)"><path fill="rgb(0,0,0)" stroke="none" paint-order="stroke fill markers" d=" M 0.117 0.25 L 0.056 0.25 Q 0.14400000000000002 0.162 0.187 0.041 Q 0.231 -0.08600000000000001 0.231 -0.25 Q 0.231 -0.342 0.2165 -0.422 Q 0.202 -0.502 0.184 -0.5515 Q 0.166 -0.601 0.1375 -0.6465 Q 0.109 -0.6920000000000001 0.0935 -0.71 Q 0.078 -0.728 0.056 -0.75 L 0.117 -0.75 Q 0.309 -0.5740000000000001 0.309 -0.25 Q 0.309 -0.09 0.262 0.036000000000000004 Q 0.246 0.079 0.226 0.1155 Q 0.20600000000000002 0.152 0.183 0.1795 Q 0.16 0.20700000000000002 0.148 0.2195 Q 0.136 0.232 0.117 0.25 Z"/></g></g></g></g></svg>