<svg version="1.1" xmlns="http://www.w3.org/2000/svg" xmlns:xlink="http://www.w3.org/1999/xlink" width="294" height="330"><defs><clipPath id="EwnhwHRnLTPT"><path fill="none" stroke="none" d=" M 0 0 L 294 0 L 294 330 L 0 330 L 0 0 Z"/></clipPath></defs><g transform="scale(1,1)" clip-path="url(#EwnhwHRnLTPT)"><g><rect fill="rgb(255,255,255,0)" stroke="none" x="0" y="0" width="294" height="330" fill-opacity="1"/><path fill="none" stroke="rgb(192,192,192)" paint-order="fill stroke markers" d=" M 22.5 0.5 L 22.5 330.5 M 22.5 0.5 L 22.5 330.5 M 168.5 0.5 L 168.5 330.5 M 241.5 0.5 L 241.5 330.5" stroke-opacity="1" stroke-linecap="round" stroke-linejoin="round" stroke-miterlimit="10"/><path fill="none" stroke="rgb(192,192,192)" paint-order="fill stroke markers" d="" stroke-opacity="0.23529411764705882" stroke-linecap="round" stroke-linejoin="round" stroke-miterlimit="10"/><path fill="none" stroke="rgb(192,192,192)" paint-order="fill stroke markers" d=" M 0.5 54.5 L 294.5 54.5 M 0.5 54.5 L 294.5 54.5 M 0.5 127.5 L 294.5 127.5 M 0.5 200.5 L 294.5 200.5" stroke-opacity="1" stroke-linecap="round" stroke-linejoin="round" stroke-miterlimit="10"/><path fill="none" stroke="rgb(192,192,192)" paint-order="fill stroke markers" d="" stroke-opacity="0.23529411764705882" stroke-linecap="round" stroke-linejoin="round" stroke-miterlimit="10"/><path fill="none" stroke="rgb(37,37,37)" paint-order="fill stroke markers" d=" M 95.5 2.5 L 95.5 330.5" stroke-opacity="1" stroke-miterlimit="10"/><path fill="none" stroke="rgb(37,37,37)" paint-order="fill stroke markers" d=" M 95.5 1.5 L 91.5 5.5" stroke-opacity="1" stroke-miterlimit="10"/><path fill="none" stroke="rgb(37,37,37)" paint-order="fill stroke markers" d=" M 95.5 1.5 L 99.5 5.5" stroke-opacity="1" stroke-miterlimit="10"/><path fill="none" stroke="rgb(37,37,37)" paint-order="fill stroke markers" d=" M 0.5 274.5 L 292.5 274.5" stroke-opacity="1" stroke-miterlimit="10"/><path fill="none" stroke="rgb(37,37,37)" paint-order="fill stroke markers" d=" M 293.5 274.5 L 289.5 270.5" stroke-opacity="1" stroke-miterlimit="10"/><path fill="none" stroke="rgb(37,37,37)" paint-order="fill stroke markers" d=" M 293.5 274.5 L 289.5 278.5" stroke-opacity="1" stroke-miterlimit="10"/><text fill="rgb(37,37,37)" stroke="none" font-family="geogebra-sans-serif, sans-serif" font-size="12px" font-style="normal" font-weight="normal" text-decoration="normal" x="17" y="290" text-anchor="start" dominant-baseline="alphabetic" fill-opacity="1">–1</text><text fill="none" stroke="rgb(255,255,255)" font-family="geogebra-sans-serif, sans-serif" font-size="12px" font-style="normal" font-weight="normal" text-decoration="normal" x="17" y="290" text-anchor="start" dominant-baseline="alphabetic" stroke-opacity="1" stroke-linejoin="bevel" stroke-miterlimit="10" stroke-width="3">–1</text><text fill="rgb(37,37,37)" stroke="none" font-family="geogebra-sans-serif, sans-serif" font-size="12px" font-style="normal" font-weight="normal" text-decoration="normal" x="17" y="290" text-anchor="start" dominant-baseline="alphabetic" fill-opacity="1">–1</text><text fill="rgb(37,37,37)" stroke="none" font-family="geogebra-sans-serif, sans-serif" font-size="12px" font-style="normal" font-weight="normal" text-decoration="normal" x="166" y="290" text-anchor="start" dominant-baseline="alphabetic" fill-opacity="1">1</text><text fill="none" stroke="rgb(255,255,255)" font-family="geogebra-sans-serif, sans-serif" font-size="12px" font-style="normal" font-weight="normal" text-decoration="normal" x="166" y="290" text-anchor="start" dominant-baseline="alphabetic" stroke-opacity="1" stroke-linejoin="bevel" stroke-miterlimit="10" stroke-width="3">1</text><text fill="rgb(37,37,37)" stroke="none" font-family="geogebra-sans-serif, sans-serif" font-size="12px" font-style="normal" font-weight="normal" text-decoration="normal" x="166" y="290" text-anchor="start" dominant-baseline="alphabetic" fill-opacity="1">1</text><text fill="rgb(37,37,37)" stroke="none" font-family="geogebra-sans-serif, sans-serif" font-size="12px" font-style="normal" font-weight="normal" text-decoration="normal" x="239" y="290" text-anchor="start" dominant-baseline="alphabetic" fill-opacity="1">2</text><text fill="none" stroke="rgb(255,255,255)" font-family="geogebra-sans-serif, sans-serif" font-size="12px" font-style="normal" font-weight="normal" text-decoration="normal" x="239" y="290" text-anchor="start" dominant-baseline="alphabetic" stroke-opacity="1" stroke-linejoin="bevel" stroke-miterlimit="10" stroke-width="3">2</text><text fill="rgb(37,37,37)" stroke="none" font-family="geogebra-sans-serif, sans-serif" font-size="12px" font-style="normal" font-weight="normal" text-decoration="normal" x="239" y="290" text-anchor="start" dominant-baseline="alphabetic" fill-opacity="1">2</text><text fill="rgb(37,37,37)" stroke="none" font-family="geogebra-sans-serif, sans-serif" font-size="12px" font-style="normal" font-weight="normal" text-decoration="normal" x="80" y="205" text-anchor="start" dominant-baseline="alphabetic" fill-opacity="1">1</text><text fill="none" stroke="rgb(255,255,255)" font-family="geogebra-sans-serif, sans-serif" font-size="12px" font-style="normal" font-weight="normal" text-decoration="normal" x="80" y="205" text-anchor="start" dominant-baseline="alphabetic" stroke-opacity="1" stroke-linejoin="bevel" stroke-miterlimit="10" stroke-width="3">1</text><text fill="rgb(37,37,37)" stroke="none" font-family="geogebra-sans-serif, sans-serif" font-size="12px" font-style="normal" font-weight="normal" text-decoration="normal" x="80" y="205" text-anchor="start" dominant-baseline="alphabetic" fill-opacity="1">1</text><text fill="rgb(37,37,37)" stroke="none" font-family="geogebra-sans-serif, sans-serif" font-size="12px" font-style="normal" font-weight="normal" text-decoration="normal" x="80" y="132" text-anchor="start" dominant-baseline="alphabetic" fill-opacity="1">2</text><text fill="none" stroke="rgb(255,255,255)" font-family="geogebra-sans-serif, sans-serif" font-size="12px" font-style="normal" font-weight="normal" text-decoration="normal" x="80" y="132" text-anchor="start" dominant-baseline="alphabetic" stroke-opacity="1" stroke-linejoin="bevel" stroke-miterlimit="10" stroke-width="3">2</text><text fill="rgb(37,37,37)" stroke="none" font-family="geogebra-sans-serif, sans-serif" font-size="12px" font-style="normal" font-weight="normal" text-decoration="normal" x="80" y="132" text-anchor="start" dominant-baseline="alphabetic" fill-opacity="1">2</text><text fill="rgb(37,37,37)" stroke="none" font-family="geogebra-sans-serif, sans-serif" font-size="12px" font-style="normal" font-weight="normal" text-decoration="normal" x="80" y="59" text-anchor="start" dominant-baseline="alphabetic" fill-opacity="1">3</text><text fill="none" stroke="rgb(255,255,255)" font-family="geogebra-sans-serif, sans-serif" font-size="12px" font-style="normal" font-weight="normal" text-decoration="normal" x="80" y="59" text-anchor="start" dominant-baseline="alphabetic" stroke-opacity="1" stroke-linejoin="bevel" stroke-miterlimit="10" stroke-width="3">3</text><text fill="rgb(37,37,37)" stroke="none" font-family="geogebra-sans-serif, sans-serif" font-size="12px" font-style="normal" font-weight="normal" text-decoration="normal" x="80" y="59" text-anchor="start" dominant-baseline="alphabetic" fill-opacity="1">3</text><text fill="rgb(37,37,37)" stroke="none" font-family="geogebra-sans-serif, sans-serif" font-size="12px" font-style="normal" font-weight="normal" text-decoration="normal" x="80" y="290" text-anchor="start" dominant-baseline="alphabetic" fill-opacity="1">0</text><text fill="none" stroke="rgb(255,255,255)" font-family="geogebra-sans-serif, sans-serif" font-size="12px" font-style="normal" font-weight="normal" text-decoration="normal" x="80" y="290" text-anchor="start" dominant-baseline="alphabetic" stroke-opacity="1" stroke-linejoin="bevel" stroke-miterlimit="10" stroke-width="3">0</text><text fill="rgb(37,37,37)" stroke="none" font-family="geogebra-sans-serif, sans-serif" font-size="12px" font-style="normal" font-weight="normal" text-decoration="normal" x="80" y="290" text-anchor="start" dominant-baseline="alphabetic" fill-opacity="1">0</text><path fill="rgb(0,0,0)" stroke="none" paint-order="stroke fill markers" d=" M 151.51400000000035 269.85795000000024 L 151.51400000000035 272.85795000000024 L 95.30900000000027 272.85795000000024 C 94.61864406271178 272.85795000000024 94.05900000000027 273.41759406271177 94.05900000000027 274.10795000000024 C 94.05900000000027 274.7983059372887 94.61864406271178 275.35795000000024 95.30900000000027 275.35795000000024 L 151.51400000000035 275.35795000000024 L 151.51400000000035 278.35795000000024 L 168.51400000000035 274.10795000000024 L 151.51400000000035 269.85795000000024 Z" fill-opacity="0.6980392156862745"/><path fill="rgb(0,0,0)" stroke="none" paint-order="stroke fill markers" d=" M 95.30900000000027 200.90295000000015 L 91.05900000000027 217.90295000000015 L 94.05900000000027 217.90295000000015 L 94.05900000000027 274.10795000000024 C 94.05900000000027 274.7983059372887 94.61864406271178 275.35795000000024 95.30900000000027 275.35795000000024 C 95.99935593728875 275.35795000000024 96.55900000000027 274.7983059372887 96.55900000000027 274.10795000000024 L 96.55900000000027 217.90295000000015 L 99.55900000000027 217.90295000000015 L 95.30900000000027 200.90295000000015 Z" fill-opacity="0.6980392156862745"/><path fill="rgb(0,0,0)" stroke="none" paint-order="stroke fill markers" d=" M 241.71900000000045 54.49295000000001 L 228.7528829132357 66.28032916978613 L 231.24903379624925 67.94442975846182 L 94.26893713207797 273.4145747547187 C 93.8859965581988 273.9889856155375 94.04121389389998 274.76507229404336 94.61562475471875 275.14801286792255 C 94.82873221995982 275.2900845114166 95.06959881628686 275.35808284196554 95.30784963171934 275.35808284196554 C 95.7117811810789 275.35808284196554 96.10819393753744 275.16262864085945 96.34906286792257 274.80132524528176 L 233.32915953209385 69.33118024902488 L 235.8253104151074 70.99528083770058 L 241.71900000000045 54.49295000000001 Z" fill-opacity="0.6980392156862745"/><g transform="scale(19,19)"><g transform="translate(6.473684210526316,15.879052631578947)"><path fill="rgb(0,0,0)" stroke="none" paint-order="stroke fill markers" d=" M 0.03076171875 -0.23193359375 Q 0.03076171875 -0.28955078125 0.04638671875 -0.33544921875 Q 0.06201171875 -0.38134765625 0.09228515625 -0.412109375 Q 0.12255859375 -0.44287109375 0.1669921875 -0.458984375 Q 0.21142578125 -0.47509765625 0.27001953125 -0.47509765625 Q 0.47900390625 -0.47509765625 0.47900390625 -0.251953125 Q 0.47900390625 -0.23681640625 0.469482421875 -0.226318359375 Q 0.4599609375 -0.2158203125 0.44482421875 -0.2138671875 L 0.1630859375 -0.2138671875 Q 0.1630859375 -0.14697265625 0.1923828125 -0.10595703125 Q 0.2216796875 -0.06494140625 0.2861328125 -0.06494140625 Q 0.37841796875 -0.06494140625 0.44677734375 -0.12890625 Q 0.45166015625 -0.130859375 0.455078125 -0.130859375 Q 0.45947265625 -0.130859375 0.463134765625 -0.127685546875 Q 0.466796875 -0.12451171875 0.466796875 -0.1201171875 L 0.47314453125 -0.0498046875 Q 0.47314453125 -0.041015625 0.466796875 -0.0380859375 Q 0.42578125 -0.01416015625 0.37939453125 -0.00146484375 Q 0.3330078125 0.01123046875 0.2861328125 0.01123046875 Q 0.2060546875 0.01123046875 0.1484375 -0.015869140625 Q 0.0908203125 -0.04296875 0.060791015625 -0.09716796875 Q 0.03076171875 -0.1513671875 0.03076171875 -0.23193359375 M 0.1640625 -0.27099609375 L 0.36376953125 -0.27099609375 Q 0.36376953125 -0.39892578125 0.27001953125 -0.39892578125 Q 0.21875 -0.39892578125 0.19140625 -0.361572265625 Q 0.1640625 -0.32421875 0.1640625 -0.27099609375 Z"/></g><g transform="translate(6.984684210526316,16.029052631578946) scale(0.7,0.7)"><path fill="rgb(0,0,0)" stroke="none" paint-order="stroke fill markers" d=" M 0.0458984375 0 Q 0.03759765625 0 0.03076171875 -0.00634765625 Q 0.02392578125 -0.0126953125 0.02392578125 -0.02197265625 Q 0.02392578125 -0.03125 0.02880859375 -0.0361328125 L 0.18994140625 -0.23681640625 L 0.0361328125 -0.421875 Q 0.03076171875 -0.42919921875 0.03076171875 -0.43603515625 Q 0.03076171875 -0.44580078125 0.037353515625 -0.451904296875 Q 0.0439453125 -0.4580078125 0.05322265625 -0.4580078125 L 0.1259765625 -0.4580078125 Q 0.14892578125 -0.4580078125 0.162109375 -0.43994140625 L 0.24609375 -0.33203125 L 0.3271484375 -0.43994140625 Q 0.33984375 -0.4580078125 0.36181640625 -0.4580078125 L 0.43408203125 -0.4580078125 Q 0.44384765625 -0.4580078125 0.450439453125 -0.451904296875 Q 0.45703125 -0.44580078125 0.45703125 -0.43603515625 Q 0.45703125 -0.42822265625 0.4521484375 -0.421875 L 0.30322265625 -0.23681640625 L 0.46923828125 -0.0361328125 Q 0.47412109375 -0.03125 0.47412109375 -0.02197265625 Q 0.47412109375 -0.01220703125 0.467529296875 -0.006103515625 Q 0.4609375 0 0.4521484375 0 L 0.37890625 0 Q 0.35693359375 0 0.34423828125 -0.01806640625 L 0.24609375 -0.1611328125 L 0.15185546875 -0.01806640625 Q 0.140625 0 0.119140625 0 L 0.0458984375 0 Z"/></g></g><g transform="scale(19,19)"><g transform="translate(3.210526315789474,12.826421052631579)"><path fill="rgb(0,0,0)" stroke="none" paint-order="stroke fill markers" d=" M 0.03076171875 -0.23193359375 Q 0.03076171875 -0.28955078125 0.04638671875 -0.33544921875 Q 0.06201171875 -0.38134765625 0.09228515625 -0.412109375 Q 0.12255859375 -0.44287109375 0.1669921875 -0.458984375 Q 0.21142578125 -0.47509765625 0.27001953125 -0.47509765625 Q 0.47900390625 -0.47509765625 0.47900390625 -0.251953125 Q 0.47900390625 -0.23681640625 0.469482421875 -0.226318359375 Q 0.4599609375 -0.2158203125 0.44482421875 -0.2138671875 L 0.1630859375 -0.2138671875 Q 0.1630859375 -0.14697265625 0.1923828125 -0.10595703125 Q 0.2216796875 -0.06494140625 0.2861328125 -0.06494140625 Q 0.37841796875 -0.06494140625 0.44677734375 -0.12890625 Q 0.45166015625 -0.130859375 0.455078125 -0.130859375 Q 0.45947265625 -0.130859375 0.463134765625 -0.127685546875 Q 0.466796875 -0.12451171875 0.466796875 -0.1201171875 L 0.47314453125 -0.0498046875 Q 0.47314453125 -0.041015625 0.466796875 -0.0380859375 Q 0.42578125 -0.01416015625 0.37939453125 -0.00146484375 Q 0.3330078125 0.01123046875 0.2861328125 0.01123046875 Q 0.2060546875 0.01123046875 0.1484375 -0.015869140625 Q 0.0908203125 -0.04296875 0.060791015625 -0.09716796875 Q 0.03076171875 -0.1513671875 0.03076171875 -0.23193359375 M 0.1640625 -0.27099609375 L 0.36376953125 -0.27099609375 Q 0.36376953125 -0.39892578125 0.27001953125 -0.39892578125 Q 0.21875 -0.39892578125 0.19140625 -0.361572265625 Q 0.1640625 -0.32421875 0.1640625 -0.27099609375 Z"/></g><g transform="translate(3.721526315789474,12.97642105263158) scale(0.7,0.7)"><path fill="rgb(0,0,0)" stroke="none" paint-order="stroke fill markers" d=" M 0.04296875 0.18603515625 L 0.0361328125 0.10498046875 Q 0.0361328125 0.0908203125 0.048828125 0.0908203125 Q 0.04736328125 0.0908203125 0.07666015625 0.103515625 Q 0.10595703125 0.1162109375 0.1279296875 0.1162109375 Q 0.15234375 0.1162109375 0.17236328125 0.099853515625 Q 0.1923828125 0.08349609375 0.201171875 0.05908203125 L 0.22119140625 0 L 0.03076171875 -0.421875 Q 0.02880859375 -0.427734375 0.02880859375 -0.43212890625 Q 0.02880859375 -0.4423828125 0.03662109375 -0.4501953125 Q 0.04443359375 -0.4580078125 0.05517578125 -0.4580078125 L 0.10888671875 -0.4580078125 Q 0.12646484375 -0.4580078125 0.14208984375 -0.44775390625 Q 0.15771484375 -0.4375 0.1640625 -0.421875 Q 0.26708984375 -0.19677734375 0.26806640625 -0.14013671875 Q 0.26806640625 -0.16162109375 0.279541015625 -0.205078125 Q 0.291015625 -0.24853515625 0.31103515625 -0.309326171875 Q 0.3310546875 -0.3701171875 0.34814453125 -0.421875 Q 0.3525390625 -0.43798828125 0.365966796875 -0.447998046875 Q 0.37939453125 -0.4580078125 0.39599609375 -0.4580078125 L 0.44580078125 -0.4580078125 Q 0.45751953125 -0.4580078125 0.46533203125 -0.4501953125 Q 0.47314453125 -0.4423828125 0.47314453125 -0.43115234375 Q 0.47314453125 -0.4248046875 0.47216796875 -0.421875 L 0.30810546875 0.05908203125 Q 0.29443359375 0.099609375 0.268310546875 0.13232421875 Q 0.2421875 0.1650390625 0.2060546875 0.18505859375 Q 0.169921875 0.205078125 0.1279296875 0.205078125 Q 0.1025390625 0.205078125 0.073974609375 0.200927734375 Q 0.04541015625 0.19677734375 0.04296875 0.18603515625 Z"/></g></g><g transform="scale(19,19)"><g transform="translate(7.7894736842105265,7.247473684210527)"><path fill="rgb(0,0,0)" stroke="none" paint-order="stroke fill markers" d=" M 0.0458984375 0 Q 0.03759765625 0 0.03076171875 -0.00634765625 Q 0.02392578125 -0.0126953125 0.02392578125 -0.02197265625 Q 0.02392578125 -0.03125 0.02880859375 -0.0361328125 L 0.18994140625 -0.23681640625 L 0.0361328125 -0.421875 Q 0.03076171875 -0.42919921875 0.03076171875 -0.43603515625 Q 0.03076171875 -0.44580078125 0.037353515625 -0.451904296875 Q 0.0439453125 -0.4580078125 0.05322265625 -0.4580078125 L 0.1259765625 -0.4580078125 Q 0.14892578125 -0.4580078125 0.162109375 -0.43994140625 L 0.24609375 -0.33203125 L 0.3271484375 -0.43994140625 Q 0.33984375 -0.4580078125 0.36181640625 -0.4580078125 L 0.43408203125 -0.4580078125 Q 0.44384765625 -0.4580078125 0.450439453125 -0.451904296875 Q 0.45703125 -0.44580078125 0.45703125 -0.43603515625 Q 0.45703125 -0.42822265625 0.4521484375 -0.421875 L 0.30322265625 -0.23681640625 L 0.46923828125 -0.0361328125 Q 0.47412109375 -0.03125 0.47412109375 -0.02197265625 Q 0.47412109375 -0.01220703125 0.467529296875 -0.006103515625 Q 0.4609375 0 0.4521484375 0 L 0.37890625 0 Q 0.35693359375 0 0.34423828125 -0.01806640625 L 0.24609375 -0.1611328125 L 0.15185546875 -0.01806640625 Q 0.140625 0 0.119140625 0 L 0.0458984375 0 Z"/></g></g></g></g></svg>