<svg version="1.1" xmlns="http://www.w3.org/2000/svg" xmlns:xlink="http://www.w3.org/1999/xlink" width="1382" height="863"><defs><clipPath id="qSTQVnNlMIEc"><path fill="none" stroke="none" d=" M 0 0 L 1382 0 L 1382 863 L 0 863 L 0 0 Z"/></clipPath></defs><g transform="scale(1,1)" clip-path="url(#qSTQVnNlMIEc)"><g><rect fill="rgb(255,255,255,0)" stroke="none" x="0" y="0" width="1382" height="863" fill-opacity="1"/><path fill="none" stroke="rgb(0,0,0)" paint-order="fill stroke markers" d=" M 417.09836363636384 632.2217272727271 L 192.09836363636373 632.2217272727271" stroke-opacity="0.6980392156862745" stroke-linecap="round" stroke-linejoin="round" stroke-miterlimit="10" stroke-width="2.5"/><path fill="none" stroke="rgb(0,0,0)" paint-order="fill stroke markers" d=" M 192.09836363636373 632.2217272727271 L 192.09836363636373 132.22172727272704" stroke-opacity="0.6980392156862745" stroke-linecap="round" stroke-linejoin="round" stroke-miterlimit="10" stroke-width="2.5"/><path fill="none" stroke="rgb(0,0,0)" paint-order="fill stroke markers" d=" M 192.09836363636373 132.22172727272704 L 592.098363636364 132.22172727272704" stroke-opacity="0.6980392156862745" stroke-linecap="round" stroke-linejoin="round" stroke-miterlimit="10" stroke-width="2.5"/><path fill="none" stroke="rgb(0,0,0)" paint-order="fill stroke markers" d=" M 792.098363636364 132.22172727272704 L 1192.0983636363642 132.22172727272704" stroke-opacity="0.6980392156862745" stroke-linecap="round" stroke-linejoin="round" stroke-miterlimit="10" stroke-width="2.5"/><path fill="none" stroke="rgb(0,0,0)" paint-order="fill stroke markers" d=" M 1192.0983636363642 132.22172727272704 L 1192.0983636363642 632.2217272727271" stroke-opacity="0.6980392156862745" stroke-linecap="round" stroke-linejoin="round" stroke-miterlimit="10" stroke-width="2.5"/><path fill="none" stroke="rgb(0,0,0)" paint-order="fill stroke markers" d=" M 1192.0983636363642 632.2217272727271 L 892.0983636363641 632.2217272727271" stroke-opacity="0.6980392156862745" stroke-linecap="round" stroke-linejoin="round" stroke-miterlimit="10" stroke-width="2.5"/><path fill="none" stroke="rgb(0,0,0)" paint-order="fill stroke markers" d=" M 592.098363636364 82.22172727272698 L 592.098363636364 182.22172727272704" stroke-opacity="0.6980392156862745" stroke-linecap="round" stroke-linejoin="round" stroke-miterlimit="10" stroke-width="2.5"/><path fill="none" stroke="rgb(0,0,0)" paint-order="fill stroke markers" d=" M 592.098363636364 182.22172727272704 L 792.098363636364 182.22172727272704" stroke-opacity="0.6980392156862745" stroke-linecap="round" stroke-linejoin="round" stroke-miterlimit="10" stroke-width="2.5"/><path fill="none" stroke="rgb(0,0,0)" paint-order="fill stroke markers" d=" M 792.098363636364 182.22172727272704 L 792.098363636364 82.22172727272698" stroke-opacity="0.6980392156862745" stroke-linecap="round" stroke-linejoin="round" stroke-miterlimit="10" stroke-width="2.5"/><path fill="none" stroke="rgb(0,0,0)" paint-order="fill stroke markers" d=" M 792.098363636364 82.22172727272698 L 592.098363636364 82.22172727272698" stroke-opacity="0.6980392156862745" stroke-linecap="round" stroke-linejoin="round" stroke-miterlimit="10" stroke-width="2.5"/><path fill="none" stroke="rgb(0,0,0)" paint-order="fill stroke markers" d=" M 842.098363636364 532.2217272727271 L 842.098363636364 732.2217272727272" stroke-opacity="0.6980392156862745" stroke-linecap="round" stroke-linejoin="round" stroke-miterlimit="10" stroke-width="2.5"/><path fill="none" stroke="rgb(0,0,0)" paint-order="fill stroke markers" d=" M 892.0983636363641 582.2217272727271 L 892.0983636363641 682.2217272727272" stroke-opacity="0.6980392156862745" stroke-linecap="round" stroke-linejoin="round" stroke-miterlimit="10" stroke-width="2.5"/><path fill="none" stroke="rgb(0,0,0)" paint-order="fill stroke markers" d=" M 842.098363636364 632.2217272727271 L 617.098363636364 632.2217272727271" stroke-opacity="0.6980392156862745" stroke-linecap="round" stroke-linejoin="round" stroke-miterlimit="10" stroke-width="2.5"/><path fill="none" stroke="rgb(0,0,0)" paint-order="fill stroke markers" d=" M 417.09836363636384 582.2217272727271 L 417.09836363636384 682.2217272727272" stroke-opacity="0.6980392156862745" stroke-linecap="round" stroke-linejoin="round" stroke-miterlimit="10" stroke-width="2.5"/><path fill="none" stroke="rgb(0,0,0)" paint-order="fill stroke markers" d=" M 417.09836363636384 682.2217272727272 L 617.098363636364 682.2217272727272" stroke-opacity="0.6980392156862745" stroke-linecap="round" stroke-linejoin="round" stroke-miterlimit="10" stroke-width="2.5"/><path fill="none" stroke="rgb(0,0,0)" paint-order="fill stroke markers" d=" M 617.098363636364 682.2217272727272 L 617.098363636364 582.2217272727271" stroke-opacity="0.6980392156862745" stroke-linecap="round" stroke-linejoin="round" stroke-miterlimit="10" stroke-width="2.5"/><path fill="none" stroke="rgb(0,0,0)" paint-order="fill stroke markers" d=" M 617.098363636364 582.2217272727271 L 417.09836363636384 582.2217272727271" stroke-opacity="0.6980392156862745" stroke-linecap="round" stroke-linejoin="round" stroke-miterlimit="10" stroke-width="2.5"/><path fill="none" stroke="rgb(0,0,0)" paint-order="fill stroke markers" d=" M 342.0983636363638 482.2217272727271 L 342.0983636363638 782.2217272727272" stroke-opacity="0.6980392156862745" stroke-linejoin="round" stroke-miterlimit="10" stroke-width="2.5" stroke-dasharray="10.5,8"/><path fill="none" stroke="rgb(0,0,0)" paint-order="fill stroke markers" d=" M 342.0983636363638 782.2217272727272 L 1042.0983636363642 782.2217272727272" stroke-opacity="0.6980392156862745" stroke-linejoin="round" stroke-miterlimit="10" stroke-width="2.5" stroke-dasharray="10.5,8"/><path fill="none" stroke="rgb(0,0,0)" paint-order="fill stroke markers" d=" M 1042.0983636363642 482.2217272727271 L 1042.0983636363642 782.2217272727272" stroke-opacity="0.6980392156862745" stroke-linejoin="round" stroke-miterlimit="10" stroke-width="2.5" stroke-dasharray="10.5,8"/><path fill="none" stroke="rgb(0,0,0)" paint-order="fill stroke markers" d=" M 1042.0983636363642 482.2217272727271 L 342.0983636363638 482.2217272727271" stroke-opacity="0.6980392156862745" stroke-linejoin="round" stroke-miterlimit="10" stroke-width="2.5" stroke-dasharray="10.5,8"/><path fill="rgb(0,0,0)" stroke="none" paint-order="stroke fill markers" d=" M 325.0983636363638 77.97172727272698 L 325.0983636363638 80.97172727272698 L 192.09836363636373 80.97172727272698 C 191.40800769907523 80.97172727272698 190.84836363636373 81.5313713354385 190.84836363636373 82.22172727272698 C 190.84836363636373 82.91208321001547 191.40800769907523 83.47172727272698 192.09836363636373 83.47172727272698 L 325.0983636363638 83.47172727272698 L 325.0983636363638 86.47172727272698 L 342.0983636363638 82.22172727272698 L 325.0983636363638 77.97172727272698 Z" fill-opacity="0.6980392156862745"/><text fill="rgb(0,0,0)" stroke="none" font-family="geogebra-sans-serif, sans-serif" font-size="16px" font-style="normal" font-weight="normal" text-decoration="normal" x="265" y="70" text-anchor="start" dominant-baseline="alphabetic" fill-opacity="1">I</text><text fill="none" stroke="rgb(255,255,255)" font-family="geogebra-sans-serif, sans-serif" font-size="16px" font-style="normal" font-weight="normal" text-decoration="normal" x="265" y="70" text-anchor="start" dominant-baseline="alphabetic" stroke-opacity="1" stroke-linejoin="bevel" stroke-miterlimit="10" stroke-width="3">I</text><text fill="rgb(0,0,0)" stroke="none" font-family="geogebra-sans-serif, sans-serif" font-size="16px" font-style="normal" font-weight="normal" text-decoration="normal" x="265" y="70" text-anchor="start" dominant-baseline="alphabetic" fill-opacity="1">I</text><path fill="rgb(0,0,0)" stroke="none" paint-order="stroke fill markers" d=" M 1242.0983636363642 130.97172727272704 C 1241.4080076990756 130.97172727272704 1240.8483636363642 131.53137133543854 1240.8483636363642 132.22172727272704 L 1240.8483636363642 265.2217272727271 L 1237.8483636363642 265.2217272727271 L 1242.0983636363642 282.2217272727271 L 1246.3483636363642 265.2217272727271 L 1243.3483636363642 265.2217272727271 L 1243.3483636363642 132.22172727272704 C 1243.3483636363642 131.53137133543854 1242.7887195736528 130.97172727272704 1242.0983636363642 130.97172727272704 Z" fill-opacity="0.6980392156862745"/><text fill="rgb(0,0,0)" stroke="none" font-family="geogebra-sans-serif, sans-serif" font-size="16px" font-style="normal" font-weight="normal" text-decoration="normal" x="1253" y="214" text-anchor="start" dominant-baseline="alphabetic" fill-opacity="1">I</text><text fill="none" stroke="rgb(255,255,255)" font-family="geogebra-sans-serif, sans-serif" font-size="16px" font-style="normal" font-weight="normal" text-decoration="normal" x="1253" y="214" text-anchor="start" dominant-baseline="alphabetic" stroke-opacity="1" stroke-linejoin="bevel" stroke-miterlimit="10" stroke-width="3">I</text><text fill="rgb(0,0,0)" stroke="none" font-family="geogebra-sans-serif, sans-serif" font-size="16px" font-style="normal" font-weight="normal" text-decoration="normal" x="1253" y="214" text-anchor="start" dominant-baseline="alphabetic" fill-opacity="1">I</text><path fill="rgb(21,101,192)" stroke="none" paint-order="stroke fill markers" d=" M 447.09836363636384 132.22172727272704 C 447.09836363636384 134.983151021881 444.8597873855178 137.22172727272704 442.09836363636384 137.22172727272704 C 439.3369398872099 137.22172727272704 437.09836363636384 134.983151021881 437.09836363636384 132.22172727272704 C 437.09836363636384 129.46030352357306 439.3369398872099 127.22172727272704 442.09836363636384 127.22172727272704 C 444.8597873855178 127.22172727272704 447.09836363636384 129.46030352357306 447.09836363636384 132.22172727272704 Z" fill-opacity="1"/><path fill="none" stroke="rgb(0,0,0)" paint-order="fill stroke markers" d=" M 447.09836363636384 132.22172727272704 C 447.09836363636384 134.983151021881 444.8597873855178 137.22172727272704 442.09836363636384 137.22172727272704 C 439.3369398872099 137.22172727272704 437.09836363636384 134.983151021881 437.09836363636384 132.22172727272704 C 437.09836363636384 129.46030352357306 439.3369398872099 127.22172727272704 442.09836363636384 127.22172727272704 C 444.8597873855178 127.22172727272704 447.09836363636384 129.46030352357306 447.09836363636384 132.22172727272704 Z" stroke-opacity="1" stroke-linecap="round" stroke-linejoin="round" stroke-miterlimit="10"/><text fill="rgb(21,101,192)" stroke="none" font-family="geogebra-sans-serif, sans-serif" font-size="16px" font-style="normal" font-weight="normal" text-decoration="normal" x="446" y="122" text-anchor="start" dominant-baseline="alphabetic" fill-opacity="1">d</text><text fill="none" stroke="rgb(255,255,255)" font-family="geogebra-sans-serif, sans-serif" font-size="16px" font-style="normal" font-weight="normal" text-decoration="normal" x="446" y="122" text-anchor="start" dominant-baseline="alphabetic" stroke-opacity="1" stroke-linejoin="bevel" stroke-miterlimit="10" stroke-width="3">d</text><text fill="rgb(21,101,192)" stroke="none" font-family="geogebra-sans-serif, sans-serif" font-size="16px" font-style="normal" font-weight="normal" text-decoration="normal" x="446" y="122" text-anchor="start" dominant-baseline="alphabetic" fill-opacity="1">d</text><path fill="rgb(21,101,192)" stroke="none" paint-order="stroke fill markers" d=" M 947.0983636363641 132.22172727272704 C 947.0983636363641 134.983151021881 944.8597873855181 137.22172727272704 942.0983636363641 137.22172727272704 C 939.3369398872101 137.22172727272704 937.0983636363641 134.983151021881 937.0983636363641 132.22172727272704 C 937.0983636363641 129.46030352357306 939.3369398872101 127.22172727272704 942.0983636363641 127.22172727272704 C 944.8597873855181 127.22172727272704 947.0983636363641 129.46030352357306 947.0983636363641 132.22172727272704 Z" fill-opacity="1"/><path fill="none" stroke="rgb(0,0,0)" paint-order="fill stroke markers" d=" M 947.0983636363641 132.22172727272704 C 947.0983636363641 134.983151021881 944.8597873855181 137.22172727272704 942.0983636363641 137.22172727272704 C 939.3369398872101 137.22172727272704 937.0983636363641 134.983151021881 937.0983636363641 132.22172727272704 C 937.0983636363641 129.46030352357306 939.3369398872101 127.22172727272704 942.0983636363641 127.22172727272704 C 944.8597873855181 127.22172727272704 947.0983636363641 129.46030352357306 947.0983636363641 132.22172727272704 Z" stroke-opacity="1" stroke-linecap="round" stroke-linejoin="round" stroke-miterlimit="10"/><text fill="rgb(21,101,192)" stroke="none" font-family="geogebra-sans-serif, sans-serif" font-size="16px" font-style="normal" font-weight="normal" text-decoration="normal" x="946" y="122" text-anchor="start" dominant-baseline="alphabetic" fill-opacity="1">e</text><text fill="none" stroke="rgb(255,255,255)" font-family="geogebra-sans-serif, sans-serif" font-size="16px" font-style="normal" font-weight="normal" text-decoration="normal" x="946" y="122" text-anchor="start" dominant-baseline="alphabetic" stroke-opacity="1" stroke-linejoin="bevel" stroke-miterlimit="10" stroke-width="3">e</text><text fill="rgb(21,101,192)" stroke="none" font-family="geogebra-sans-serif, sans-serif" font-size="16px" font-style="normal" font-weight="normal" text-decoration="normal" x="946" y="122" text-anchor="start" dominant-baseline="alphabetic" fill-opacity="1">e</text><path fill="rgb(21,101,192)" stroke="none" paint-order="stroke fill markers" d=" M 272.00000000000006 632.2217272727271 C 272.00000000000006 634.9831510218811 269.761423749154 637.2217272727271 267.00000000000006 637.2217272727271 C 264.2385762508461 637.2217272727271 262.00000000000006 634.9831510218811 262.00000000000006 632.2217272727271 C 262.00000000000006 629.4603035235731 264.2385762508461 627.2217272727271 267.00000000000006 627.2217272727271 C 269.761423749154 627.2217272727271 272.00000000000006 629.4603035235731 272.00000000000006 632.2217272727271 Z" fill-opacity="1"/><path fill="none" stroke="rgb(0,0,0)" paint-order="fill stroke markers" d=" M 272.00000000000006 632.2217272727271 C 272.00000000000006 634.9831510218811 269.761423749154 637.2217272727271 267.00000000000006 637.2217272727271 C 264.2385762508461 637.2217272727271 262.00000000000006 634.9831510218811 262.00000000000006 632.2217272727271 C 262.00000000000006 629.4603035235731 264.2385762508461 627.2217272727271 267.00000000000006 627.2217272727271 C 269.761423749154 627.2217272727271 272.00000000000006 629.4603035235731 272.00000000000006 632.2217272727271 Z" stroke-opacity="1" stroke-linecap="round" stroke-linejoin="round" stroke-miterlimit="10"/><text fill="rgb(21,101,192)" stroke="none" font-family="geogebra-sans-serif, sans-serif" font-size="16px" font-style="normal" font-weight="normal" text-decoration="normal" x="271" y="622" text-anchor="start" dominant-baseline="alphabetic" fill-opacity="1">c</text><text fill="none" stroke="rgb(255,255,255)" font-family="geogebra-sans-serif, sans-serif" font-size="16px" font-style="normal" font-weight="normal" text-decoration="normal" x="271" y="622" text-anchor="start" dominant-baseline="alphabetic" stroke-opacity="1" stroke-linejoin="bevel" stroke-miterlimit="10" stroke-width="3">c</text><text fill="rgb(21,101,192)" stroke="none" font-family="geogebra-sans-serif, sans-serif" font-size="16px" font-style="normal" font-weight="normal" text-decoration="normal" x="271" y="622" text-anchor="start" dominant-baseline="alphabetic" fill-opacity="1">c</text><path fill="rgb(21,101,192)" stroke="none" paint-order="stroke fill markers" d=" M 724 632.2217272727271 C 724 634.9831510218811 721.761423749154 637.2217272727271 719 637.2217272727271 C 716.238576250846 637.2217272727271 714 634.9831510218811 714 632.2217272727271 C 714 629.4603035235731 716.238576250846 627.2217272727271 719 627.2217272727271 C 721.761423749154 627.2217272727271 724 629.4603035235731 724 632.2217272727271 Z" fill-opacity="1"/><path fill="none" stroke="rgb(0,0,0)" paint-order="fill stroke markers" d=" M 724 632.2217272727271 C 724 634.9831510218811 721.761423749154 637.2217272727271 719 637.2217272727271 C 716.238576250846 637.2217272727271 714 634.9831510218811 714 632.2217272727271 C 714 629.4603035235731 716.238576250846 627.2217272727271 719 627.2217272727271 C 721.761423749154 627.2217272727271 724 629.4603035235731 724 632.2217272727271 Z" stroke-opacity="1" stroke-linecap="round" stroke-linejoin="round" stroke-miterlimit="10"/><text fill="rgb(21,101,192)" stroke="none" font-family="geogebra-sans-serif, sans-serif" font-size="16px" font-style="normal" font-weight="normal" text-decoration="normal" x="723" y="622" text-anchor="start" dominant-baseline="alphabetic" fill-opacity="1">b</text><text fill="none" stroke="rgb(255,255,255)" font-family="geogebra-sans-serif, sans-serif" font-size="16px" font-style="normal" font-weight="normal" text-decoration="normal" x="723" y="622" text-anchor="start" dominant-baseline="alphabetic" stroke-opacity="1" stroke-linejoin="bevel" stroke-miterlimit="10" stroke-width="3">b</text><text fill="rgb(21,101,192)" stroke="none" font-family="geogebra-sans-serif, sans-serif" font-size="16px" font-style="normal" font-weight="normal" text-decoration="normal" x="723" y="622" text-anchor="start" dominant-baseline="alphabetic" fill-opacity="1">b</text><path fill="rgb(21,101,192)" stroke="none" paint-order="stroke fill markers" d=" M 1123 632.2217272727271 C 1123 634.9831510218811 1120.761423749154 637.2217272727271 1118 637.2217272727271 C 1115.238576250846 637.2217272727271 1113 634.9831510218811 1113 632.2217272727271 C 1113 629.4603035235731 1115.238576250846 627.2217272727271 1118 627.2217272727271 C 1120.761423749154 627.2217272727271 1123 629.4603035235731 1123 632.2217272727271 Z" fill-opacity="1"/><path fill="none" stroke="rgb(0,0,0)" paint-order="fill stroke markers" d=" M 1123 632.2217272727271 C 1123 634.9831510218811 1120.761423749154 637.2217272727271 1118 637.2217272727271 C 1115.238576250846 637.2217272727271 1113 634.9831510218811 1113 632.2217272727271 C 1113 629.4603035235731 1115.238576250846 627.2217272727271 1118 627.2217272727271 C 1120.761423749154 627.2217272727271 1123 629.4603035235731 1123 632.2217272727271 Z" stroke-opacity="1" stroke-linecap="round" stroke-linejoin="round" stroke-miterlimit="10"/><text fill="rgb(21,101,192)" stroke="none" font-family="geogebra-sans-serif, sans-serif" font-size="16px" font-style="normal" font-weight="normal" text-decoration="normal" x="1122" y="622" text-anchor="start" dominant-baseline="alphabetic" fill-opacity="1">a</text><text fill="none" stroke="rgb(255,255,255)" font-family="geogebra-sans-serif, sans-serif" font-size="16px" font-style="normal" font-weight="normal" text-decoration="normal" x="1122" y="622" text-anchor="start" dominant-baseline="alphabetic" stroke-opacity="1" stroke-linejoin="bevel" stroke-miterlimit="10" stroke-width="3">a</text><text fill="rgb(21,101,192)" stroke="none" font-family="geogebra-sans-serif, sans-serif" font-size="16px" font-style="normal" font-weight="normal" text-decoration="normal" x="1122" y="622" text-anchor="start" dominant-baseline="alphabetic" fill-opacity="1">a</text><text fill="rgb(0,0,0)" stroke="none" font-family="geogebra-sans-serif, sans-serif" font-size="16px" font-style="normal" font-weight="normal" text-decoration="normal" x="686" y="70" text-anchor="start" dominant-baseline="alphabetic" fill-opacity="1">R</text><text fill="rgb(0,0,0)" stroke="none" font-family="geogebra-sans-serif, sans-serif" font-size="16px" font-style="normal" font-weight="normal" text-decoration="normal" x="511" y="702" text-anchor="start" dominant-baseline="alphabetic" fill-opacity="1">r</text><g transform="scale(19,19)"><g transform="translate(47.31578947368421,36.85205263157894)"><path fill="rgb(0,0,0)" stroke="none" paint-order="stroke fill markers" d=" M 0.14100000000000001 -0.227 L 0.14100000000000001 -0.227 Q 0.076 -0.195 0.057 -0.137 Q 0.052000000000000005 -0.123 0.052000000000000005 -0.11 Q 0.052000000000000005 -0.036000000000000004 0.166 -0.025 Q 0.182 -0.024 0.198 -0.024 Q 0.316 -0.024 0.35100000000000003 -0.077 Q 0.353 -0.079 0.356 -0.084 Q 0.361 -0.091 0.366 -0.091 Q 0.377 -0.091 0.377 -0.081 Q 0.377 -0.065 0.34700000000000003 -0.036000000000000004 Q 0.28600000000000003 0.022 0.189 0.022 Q 0.08700000000000001 0.022 0.044 -0.043000000000000003 Q 0.026000000000000002 -0.07100000000000001 0.026000000000000002 -0.10400000000000001 Q 0.026000000000000002 -0.164 0.081 -0.213 Q 0.097 -0.228 0.117 -0.23900000000000002 Q 0.077 -0.269 0.077 -0.31 Q 0.077 -0.369 0.15 -0.41300000000000003 Q 0.217 -0.453 0.3 -0.453 Q 0.365 -0.453 0.41100000000000003 -0.419 Q 0.429 -0.406 0.429 -0.396 Q 0.429 -0.378 0.41100000000000003 -0.371 Q 0.406 -0.369 0.402 -0.369 Q 0.396 -0.369 0.382 -0.379 Q 0.342 -0.40700000000000003 0.29 -0.40700000000000003 Q 0.193 -0.40700000000000003 0.136 -0.367 Q 0.10200000000000001 -0.342 0.10200000000000001 -0.31 Q 0.10200000000000001 -0.273 0.14200000000000002 -0.252 Q 0.183 -0.271 0.23500000000000001 -0.271 Q 0.306 -0.271 0.308 -0.244 Q 0.308 -0.213 0.227 -0.213 Q 0.17400000000000002 -0.213 0.14100000000000001 -0.227 M 0.17400000000000002 -0.24 Q 0.193 -0.23500000000000001 0.227 -0.23500000000000001 Q 0.265 -0.23500000000000001 0.28200000000000003 -0.243 Q 0.26 -0.249 0.23500000000000001 -0.249 Q 0.2 -0.249 0.17400000000000002 -0.24 Z"/></g></g></g></g></svg>