<svg version="1.1" xmlns="http://www.w3.org/2000/svg" xmlns:xlink="http://www.w3.org/1999/xlink" width="1803" height="629"><defs><clipPath id="MxkXmBfCErbM"><path fill="none" stroke="none" d=" M 0 0 L 1803 0 L 1803 629 L 0 629 L 0 0 Z"/></clipPath></defs><g transform="scale(1,1)" clip-path="url(#MxkXmBfCErbM)"><g><rect fill="rgb(255,255,255,0)" stroke="none" x="0" y="0" width="1803" height="629" fill-opacity="1"/><path fill="none" stroke="rgb(0,0,0)" paint-order="fill stroke markers" d=" M 739.765295000001 274.06975500000004 L 739.765295000001 435.1207550000002" stroke-opacity="0.6980392156862745" stroke-linecap="round" stroke-linejoin="round" stroke-miterlimit="10" stroke-width="2.5"/><path fill="none" stroke="rgb(0,0,0)" paint-order="fill stroke markers" d=" M 739.765295000001 435.1207550000002 L 1061.8672950000011 435.1207550000002" stroke-opacity="0.6980392156862745" stroke-linecap="round" stroke-linejoin="round" stroke-miterlimit="10" stroke-width="2.5"/><path fill="none" stroke="rgb(0,0,0)" paint-order="fill stroke markers" d=" M 1061.8672950000011 435.1207550000002 L 1061.8672950000011 274.06975500000004" stroke-opacity="0.6980392156862745" stroke-linecap="round" stroke-linejoin="round" stroke-miterlimit="10" stroke-width="2.5"/><path fill="none" stroke="rgb(0,0,0)" paint-order="fill stroke markers" d=" M 1061.8672950000011 274.06975500000004 L 739.765295000001 274.06975500000004" stroke-opacity="0.6980392156862745" stroke-linecap="round" stroke-linejoin="round" stroke-miterlimit="10" stroke-width="2.5"/><path fill="none" stroke="rgb(0,0,0)" paint-order="fill stroke markers" d=" M 1061.8672950000011 354.5952550000001 L 1706.0712950000013 354.5952550000001" stroke-opacity="0.6980392156862745" stroke-linecap="round" stroke-linejoin="round" stroke-miterlimit="10" stroke-width="2.5"/><path fill="none" stroke="rgb(0,0,0)" paint-order="fill stroke markers" d=" M 739.765295000001 354.5952550000001 L 95.56129500000065 354.5952550000001" stroke-opacity="0.6980392156862745" stroke-linecap="round" stroke-linejoin="round" stroke-miterlimit="10" stroke-width="2.5"/><path fill="rgb(0,0,0)" stroke="none" paint-order="stroke fill markers" d=" M 1044.8672950000011 189.29425499999996 L 1044.8672950000011 192.29425499999996 L 739.765295000001 192.29425499999996 C 739.0749390627125 192.29425499999996 738.515295000001 192.85389906271146 738.515295000001 193.54425499999996 C 738.515295000001 194.23461093728847 739.0749390627125 194.79425499999996 739.765295000001 194.79425499999996 L 1044.8672950000011 194.79425499999996 L 1044.8672950000011 197.79425499999996 L 1061.8672950000011 193.54425499999996 L 1044.8672950000011 189.29425499999996 Z" fill-opacity="0.6980392156862745"/><text fill="rgb(0,0,0)" stroke="none" font-family="geogebra-sans-serif, sans-serif" font-size="16px" font-style="normal" font-weight="normal" text-decoration="normal" x="898" y="175" text-anchor="start" dominant-baseline="alphabetic" fill-opacity="1">I</text><text fill="none" stroke="rgb(255,255,255)" font-family="geogebra-sans-serif, sans-serif" font-size="16px" font-style="normal" font-weight="normal" text-decoration="normal" x="898" y="175" text-anchor="start" dominant-baseline="alphabetic" stroke-opacity="1" stroke-linejoin="bevel" stroke-miterlimit="10" stroke-width="3">I</text><text fill="rgb(0,0,0)" stroke="none" font-family="geogebra-sans-serif, sans-serif" font-size="16px" font-style="normal" font-weight="normal" text-decoration="normal" x="898" y="175" text-anchor="start" dominant-baseline="alphabetic" fill-opacity="1">I</text><path fill="rgb(0,0,0)" stroke="none" paint-order="stroke fill markers" d=" M 481.1887950000008 108.76875499999989 L 481.1887950000008 111.76875499999989 L 95.56129500000065 111.76875499999989 C 94.87093906271217 111.76875499999989 94.31129500000065 112.3283990627114 94.31129500000065 113.01875499999989 C 94.31129500000065 113.70911093728837 94.87093906271217 114.26875499999989 95.56129500000065 114.26875499999989 L 481.1887950000008 114.26875499999989 L 481.1887950000008 117.26875499999989 L 498.1887950000008 113.01875499999989 L 481.1887950000008 108.76875499999989 Z" fill-opacity="0.6980392156862745"/><text fill="rgb(0,0,0)" stroke="none" font-family="geogebra-sans-serif, sans-serif" font-size="16px" font-style="normal" font-weight="normal" text-decoration="normal" x="232" y="96" text-anchor="start" dominant-baseline="alphabetic" fill-opacity="1">Travel direction</text><text fill="none" stroke="rgb(255,255,255)" font-family="geogebra-sans-serif, sans-serif" font-size="16px" font-style="normal" font-weight="normal" text-decoration="normal" x="232" y="96" text-anchor="start" dominant-baseline="alphabetic" stroke-opacity="1" stroke-linejoin="bevel" stroke-miterlimit="10" stroke-width="3">Travel direction</text><text fill="rgb(0,0,0)" stroke="none" font-family="geogebra-sans-serif, sans-serif" font-size="16px" font-style="normal" font-weight="normal" text-decoration="normal" x="232" y="96" text-anchor="start" dominant-baseline="alphabetic" fill-opacity="1">Travel direction</text><path fill="rgb(21,101,192)" stroke="none" paint-order="stroke fill markers" d=" M 100.56129500000065 354.5952550000001 C 100.56129500000065 357.35667874915407 98.32271874915462 359.5952550000001 95.56129500000065 359.5952550000001 C 92.79987125084669 359.5952550000001 90.56129500000065 357.35667874915407 90.56129500000065 354.5952550000001 C 90.56129500000065 351.8338312508462 92.79987125084669 349.5952550000001 95.56129500000065 349.5952550000001 C 98.32271874915462 349.5952550000001 100.56129500000065 351.8338312508462 100.56129500000065 354.5952550000001 Z" fill-opacity="1"/><path fill="none" stroke="rgb(0,0,0)" paint-order="fill stroke markers" d=" M 100.56129500000065 354.5952550000001 C 100.56129500000065 357.35667874915407 98.32271874915462 359.5952550000001 95.56129500000065 359.5952550000001 C 92.79987125084669 359.5952550000001 90.56129500000065 357.35667874915407 90.56129500000065 354.5952550000001 C 90.56129500000065 351.8338312508462 92.79987125084669 349.5952550000001 95.56129500000065 349.5952550000001 C 98.32271874915462 349.5952550000001 100.56129500000065 351.8338312508462 100.56129500000065 354.5952550000001 Z" stroke-opacity="1" stroke-linecap="round" stroke-linejoin="round" stroke-miterlimit="10"/><text fill="rgb(21,101,192)" stroke="none" font-family="geogebra-sans-serif, sans-serif" font-size="16px" font-style="normal" font-weight="normal" text-decoration="normal" x="89" y="390" text-anchor="start" dominant-baseline="alphabetic" fill-opacity="1">A</text><text fill="none" stroke="rgb(255,255,255)" font-family="geogebra-sans-serif, sans-serif" font-size="16px" font-style="normal" font-weight="normal" text-decoration="normal" x="89" y="390" text-anchor="start" dominant-baseline="alphabetic" stroke-opacity="1" stroke-linejoin="bevel" stroke-miterlimit="10" stroke-width="3">A</text><text fill="rgb(21,101,192)" stroke="none" font-family="geogebra-sans-serif, sans-serif" font-size="16px" font-style="normal" font-weight="normal" text-decoration="normal" x="89" y="390" text-anchor="start" dominant-baseline="alphabetic" fill-opacity="1">A</text><path fill="rgb(21,101,192)" stroke="none" paint-order="stroke fill markers" d=" M 1711.0712950000013 354.5952550000001 C 1711.0712950000013 357.35667874915407 1708.8327187491552 359.5952550000001 1706.0712950000013 359.5952550000001 C 1703.3098712508474 359.5952550000001 1701.0712950000013 357.35667874915407 1701.0712950000013 354.5952550000001 C 1701.0712950000013 351.8338312508462 1703.3098712508474 349.5952550000001 1706.0712950000013 349.5952550000001 C 1708.8327187491552 349.5952550000001 1711.0712950000013 351.8338312508462 1711.0712950000013 354.5952550000001 Z" fill-opacity="1"/><path fill="none" stroke="rgb(0,0,0)" paint-order="fill stroke markers" d=" M 1711.0712950000013 354.5952550000001 C 1711.0712950000013 357.35667874915407 1708.8327187491552 359.5952550000001 1706.0712950000013 359.5952550000001 C 1703.3098712508474 359.5952550000001 1701.0712950000013 357.35667874915407 1701.0712950000013 354.5952550000001 C 1701.0712950000013 351.8338312508462 1703.3098712508474 349.5952550000001 1706.0712950000013 349.5952550000001 C 1708.8327187491552 349.5952550000001 1711.0712950000013 351.8338312508462 1711.0712950000013 354.5952550000001 Z" stroke-opacity="1" stroke-linecap="round" stroke-linejoin="round" stroke-miterlimit="10"/><text fill="rgb(21,101,192)" stroke="none" font-family="geogebra-sans-serif, sans-serif" font-size="16px" font-style="normal" font-weight="normal" text-decoration="normal" x="1702" y="390" text-anchor="start" dominant-baseline="alphabetic" fill-opacity="1">B</text><text fill="none" stroke="rgb(255,255,255)" font-family="geogebra-sans-serif, sans-serif" font-size="16px" font-style="normal" font-weight="normal" text-decoration="normal" x="1702" y="390" text-anchor="start" dominant-baseline="alphabetic" stroke-opacity="1" stroke-linejoin="bevel" stroke-miterlimit="10" stroke-width="3">B</text><text fill="rgb(21,101,192)" stroke="none" font-family="geogebra-sans-serif, sans-serif" font-size="16px" font-style="normal" font-weight="normal" text-decoration="normal" x="1702" y="390" text-anchor="start" dominant-baseline="alphabetic" fill-opacity="1">B</text><g transform="scale(19,19)"><g transform="translate(5.368421052631579,15.483473684210526)"><path fill="rgb(0,0,0)" stroke="none" paint-order="stroke fill markers" d=" M 0.613 -0.6940000000000001 L 0.613 0 L 0.524 0 L 0.524 -0.33 L 0.183 -0.33 L 0.183 0 L 0.094 0 L 0.094 -0.6940000000000001 L 0.183 -0.6940000000000001 L 0.183 -0.391 L 0.524 -0.391 L 0.524 -0.6940000000000001 L 0.613 -0.6940000000000001 Z"/></g><g transform="translate(6.076421052631579,15.483473684210526)"><path fill="rgb(0,0,0)" stroke="none" paint-order="stroke fill markers" d=" M 0.163 -0.68 L 0.163 -0.591 L 0.074 -0.591 L 0.074 -0.68 L 0.163 -0.68 M 0.156 -0.444 L 0.156 0 L 0.081 0 L 0.081 -0.444 L 0.156 -0.444 Z"/></g><g transform="translate(6.315421052631579,15.483473684210526)"><path fill="rgb(0,0,0)" stroke="none" paint-order="stroke fill markers" d=" M 0.352 -0.391 L 0.34800000000000003 -0.392 Q 0.381 -0.34700000000000003 0.381 -0.292 Q 0.381 -0.225 0.3345 -0.177 Q 0.28800000000000003 -0.129 0.221 -0.129 Q 0.171 -0.129 0.13 -0.158 Q 0.11900000000000001 -0.14400000000000002 0.11900000000000001 -0.122 Q 0.11900000000000001 -0.069 0.177 -0.069 L 0.265 -0.069 Q 0.28200000000000003 -0.069 0.2945 -0.068 Q 0.307 -0.067 0.335 -0.064 Q 0.363 -0.061 0.3835 -0.051500000000000004 Q 0.404 -0.042 0.4255 -0.028 Q 0.447 -0.014 0.459 0.0115 Q 0.47100000000000003 0.037 0.47100000000000003 0.07 Q 0.47100000000000003 0.127 0.40650000000000003 0.1665 Q 0.342 0.20600000000000002 0.249 0.20600000000000002 Q 0.157 0.20600000000000002 0.0925 0.1665 Q 0.028 0.127 0.028 0.07100000000000001 Q 0.028 0.006 0.092 -0.032 Q 0.066 -0.064 0.066 -0.108 Q 0.066 -0.152 0.095 -0.193 Q 0.062 -0.23600000000000002 0.062 -0.292 Q 0.062 -0.36 0.109 -0.40750000000000003 Q 0.156 -0.455 0.221 -0.455 Q 0.276 -0.455 0.316 -0.423 Q 0.39 -0.455 0.47400000000000003 -0.455 L 0.485 -0.392 L 0.47400000000000003 -0.393 Q 0.462 -0.394 0.448 -0.3945 Q 0.434 -0.395 0.426 -0.395 Q 0.41400000000000003 -0.395 0.3885 -0.393 Q 0.363 -0.391 0.352 -0.391 M 0.221 -0.186 Q 0.258 -0.186 0.28450000000000003 -0.212 Q 0.311 -0.23800000000000002 0.311 -0.292 Q 0.311 -0.34600000000000003 0.28450000000000003 -0.372 Q 0.258 -0.398 0.221 -0.398 Q 0.187 -0.398 0.1595 -0.373 Q 0.132 -0.34800000000000003 0.132 -0.292 Q 0.132 -0.23600000000000002 0.1595 -0.211 Q 0.187 -0.186 0.221 -0.186 M 0.266 0.003 L 0.176 0.003 Q 0.154 0.003 0.138 0.01 Q 0.122 0.017 0.1145 0.025500000000000002 Q 0.107 0.034 0.10300000000000001 0.046 Q 0.099 0.058 0.0985 0.0625 Q 0.098 0.067 0.098 0.07100000000000001 Q 0.098 0.105 0.14250000000000002 0.127 Q 0.187 0.149 0.25 0.149 Q 0.312 0.149 0.3565 0.127 Q 0.401 0.105 0.401 0.07200000000000001 Q 0.401 0.003 0.266 0.003 Z"/></g><g transform="translate(6.829421052631579,15.483473684210526)"><path fill="rgb(0,0,0)" stroke="none" paint-order="stroke fill markers" d=" M 0.435 -0.298 L 0.435 0 L 0.357 0 L 0.357 -0.291 Q 0.357 -0.305 0.3565 -0.3145 Q 0.356 -0.324 0.35050000000000003 -0.3405 Q 0.34500000000000003 -0.357 0.3355 -0.3675 Q 0.326 -0.378 0.3065 -0.386 Q 0.28700000000000003 -0.394 0.26 -0.394 Q 0.20800000000000002 -0.394 0.1835 -0.34900000000000003 Q 0.159 -0.304 0.159 -0.245 L 0.159 0 L 0.081 0 L 0.081 -0.6940000000000001 L 0.156 -0.6940000000000001 L 0.156 -0.383 Q 0.212 -0.455 0.298 -0.455 Q 0.435 -0.455 0.435 -0.298 Z"/></g><g transform="translate(7.346421052631579,15.483473684210526)"><path fill="rgb(0,0,0)" stroke="none" paint-order="stroke fill markers" d=" M 0.41400000000000003 -0.219 L 0.105 -0.219 Q 0.107 -0.146 0.1495 -0.098 Q 0.192 -0.05 0.252 -0.05 Q 0.336 -0.05 0.404 -0.106 L 0.41000000000000003 -0.041 Q 0.338 0.011 0.251 0.011 Q 0.161 0.011 0.098 -0.058 Q 0.035 -0.127 0.035 -0.226 Q 0.035 -0.323 0.094 -0.392 Q 0.153 -0.461 0.23600000000000002 -0.461 Q 0.326 -0.461 0.374 -0.388 Q 0.41400000000000003 -0.326 0.41400000000000003 -0.219 M 0.11 -0.274 L 0.357 -0.274 Q 0.34800000000000003 -0.338 0.314 -0.369 Q 0.28 -0.4 0.23600000000000002 -0.4 Q 0.193 -0.4 0.1575 -0.365 Q 0.122 -0.33 0.11 -0.274 Z"/></g><g transform="translate(7.790421052631579,15.483473684210526)"><path fill="rgb(0,0,0)" stroke="none" paint-order="stroke fill markers" d=" M 0.157 -0.214 L 0.157 0 L 0.082 0 L 0.082 -0.45 L 0.152 -0.45 L 0.152 -0.359 Q 0.216 -0.454 0.327 -0.455 L 0.327 -0.388 Q 0.253 -0.386 0.20500000000000002 -0.3375 Q 0.157 -0.289 0.157 -0.214 Z"/></g><g transform="translate(8.47942105263158,15.483473684210526)"><path fill="rgb(0,0,0)" stroke="none" paint-order="stroke fill markers" d=" M 0.17 0.17 L 0.223 0.002 Q 0.109 -0.025 0.067 -0.111 Q 0.05 -0.148 0.05 -0.19 Q 0.05 -0.269 0.10300000000000001 -0.368 Q 0.136 -0.431 0.155 -0.431 Q 0.167 -0.431 0.167 -0.421 Q 0.167 -0.417 0.159 -0.40800000000000003 Q 0.101 -0.341 0.08 -0.232 Q 0.076 -0.212 0.076 -0.201 Q 0.076 -0.113 0.17500000000000002 -0.07200000000000001 Q 0.20400000000000001 -0.06 0.24 -0.053 Q 0.299 -0.246 0.34 -0.319 Q 0.40800000000000003 -0.442 0.505 -0.442 Q 0.582 -0.442 0.609 -0.368 Q 0.619 -0.339 0.619 -0.304 Q 0.619 -0.193 0.532 -0.099 Q 0.445 -0.004 0.331 0.009000000000000001 Q 0.315 0.011 0.299 0.011 Q 0.28400000000000003 0.011 0.266 0.009000000000000001 Q 0.231 0.191 0.231 0.192 Q 0.22 0.217 0.194 0.218 Q 0.171 0.218 0.166 0.198 L 0.166 0.197 L 0.166 0.197 Q 0.165 0.194 0.165 0.19 Q 0.165 0.186 0.17 0.17 M 0.308 -0.047 Q 0.424 -0.047 0.512 -0.126 Q 0.589 -0.196 0.591 -0.28200000000000003 Q 0.591 -0.34400000000000003 0.547 -0.371 Q 0.525 -0.384 0.495 -0.384 Q 0.41200000000000003 -0.384 0.35000000000000003 -0.28700000000000003 Q 0.315 -0.232 0.297 -0.16 Q 0.277 -0.06 0.277 -0.052000000000000005 Q 0.277 -0.048 0.29 -0.048 Q 0.298 -0.047 0.308 -0.047 Z"/></g></g><g transform="scale(19,19)"><g transform="translate(85.94736842105263,15.483473684210526)"><path fill="rgb(0,0,0)" stroke="none" paint-order="stroke fill markers" d=" M 0.183 -0.6940000000000001 L 0.183 -0.064 L 0.232 -0.064 Q 0.321 -0.064 0.499 -0.066 L 0.499 0 L 0.094 0 L 0.094 -0.6940000000000001 L 0.183 -0.6940000000000001 Z"/></g><g transform="translate(86.48936842105263,15.483473684210526)"><path fill="rgb(0,0,0)" stroke="none" paint-order="stroke fill markers" d=" M 0.46900000000000003 -0.22 Q 0.46900000000000003 -0.123 0.4045 -0.056 Q 0.34 0.011 0.249 0.011 Q 0.16 0.011 0.095 -0.0555 Q 0.03 -0.122 0.03 -0.22 Q 0.03 -0.319 0.094 -0.39 Q 0.158 -0.461 0.25 -0.461 Q 0.34 -0.461 0.4045 -0.3905 Q 0.46900000000000003 -0.32 0.46900000000000003 -0.22 M 0.249 -0.053 Q 0.308 -0.053 0.34950000000000003 -0.0995 Q 0.391 -0.146 0.391 -0.23 Q 0.391 -0.313 0.34900000000000003 -0.3565 Q 0.307 -0.4 0.249 -0.4 Q 0.193 -0.4 0.1505 -0.357 Q 0.108 -0.314 0.108 -0.23 Q 0.108 -0.145 0.15 -0.099 Q 0.192 -0.053 0.249 -0.053 Z"/></g><g transform="translate(86.96136842105263,15.483473684210526)"><path fill="rgb(0,0,0)" stroke="none" paint-order="stroke fill markers" d=" M 0.668 -0.444 L 0.531 0 L 0.443 0 L 0.37 -0.248 Q 0.341 -0.343 0.338 -0.388 L 0.337 -0.388 Q 0.333 -0.341 0.292 -0.20600000000000002 Q 0.27 -0.128 0.23 0 L 0.151 0 L 0.014 -0.444 L 0.09 -0.444 L 0.14200000000000002 -0.271 Q 0.191 -0.10200000000000001 0.196 -0.055 L 0.197 -0.055 Q 0.202 -0.115 0.246 -0.256 L 0.303 -0.444 L 0.373 -0.444 L 0.438 -0.231 Q 0.47900000000000004 -0.094 0.484 -0.054 L 0.485 -0.054 Q 0.49 -0.098 0.531 -0.232 L 0.595 -0.444 L 0.668 -0.444 Z"/></g><g transform="translate(87.63036842105262,15.483473684210526)"><path fill="rgb(0,0,0)" stroke="none" paint-order="stroke fill markers" d=" M 0.41400000000000003 -0.219 L 0.105 -0.219 Q 0.107 -0.146 0.1495 -0.098 Q 0.192 -0.05 0.252 -0.05 Q 0.336 -0.05 0.404 -0.106 L 0.41000000000000003 -0.041 Q 0.338 0.011 0.251 0.011 Q 0.161 0.011 0.098 -0.058 Q 0.035 -0.127 0.035 -0.226 Q 0.035 -0.323 0.094 -0.392 Q 0.153 -0.461 0.23600000000000002 -0.461 Q 0.326 -0.461 0.374 -0.388 Q 0.41400000000000003 -0.326 0.41400000000000003 -0.219 M 0.11 -0.274 L 0.357 -0.274 Q 0.34800000000000003 -0.338 0.314 -0.369 Q 0.28 -0.4 0.23600000000000002 -0.4 Q 0.193 -0.4 0.1575 -0.365 Q 0.122 -0.33 0.11 -0.274 Z"/></g><g transform="translate(88.07436842105263,15.483473684210526)"><path fill="rgb(0,0,0)" stroke="none" paint-order="stroke fill markers" d=" M 0.157 -0.214 L 0.157 0 L 0.082 0 L 0.082 -0.45 L 0.152 -0.45 L 0.152 -0.359 Q 0.216 -0.454 0.327 -0.455 L 0.327 -0.388 Q 0.253 -0.386 0.20500000000000002 -0.3375 Q 0.157 -0.289 0.157 -0.214 Z"/></g><g transform="translate(88.76336842105262,15.483473684210526)"><path fill="rgb(0,0,0)" stroke="none" paint-order="stroke fill markers" d=" M 0.17 0.17 L 0.223 0.002 Q 0.109 -0.025 0.067 -0.111 Q 0.05 -0.148 0.05 -0.19 Q 0.05 -0.269 0.10300000000000001 -0.368 Q 0.136 -0.431 0.155 -0.431 Q 0.167 -0.431 0.167 -0.421 Q 0.167 -0.417 0.159 -0.40800000000000003 Q 0.101 -0.341 0.08 -0.232 Q 0.076 -0.212 0.076 -0.201 Q 0.076 -0.113 0.17500000000000002 -0.07200000000000001 Q 0.20400000000000001 -0.06 0.24 -0.053 Q 0.299 -0.246 0.34 -0.319 Q 0.40800000000000003 -0.442 0.505 -0.442 Q 0.582 -0.442 0.609 -0.368 Q 0.619 -0.339 0.619 -0.304 Q 0.619 -0.193 0.532 -0.099 Q 0.445 -0.004 0.331 0.009000000000000001 Q 0.315 0.011 0.299 0.011 Q 0.28400000000000003 0.011 0.266 0.009000000000000001 Q 0.231 0.191 0.231 0.192 Q 0.22 0.217 0.194 0.218 Q 0.171 0.218 0.166 0.198 L 0.166 0.197 L 0.166 0.197 Q 0.165 0.194 0.165 0.19 Q 0.165 0.186 0.17 0.17 M 0.308 -0.047 Q 0.424 -0.047 0.512 -0.126 Q 0.589 -0.196 0.591 -0.28200000000000003 Q 0.591 -0.34400000000000003 0.547 -0.371 Q 0.525 -0.384 0.495 -0.384 Q 0.41200000000000003 -0.384 0.35000000000000003 -0.28700000000000003 Q 0.315 -0.232 0.297 -0.16 Q 0.277 -0.06 0.277 -0.052000000000000005 Q 0.277 -0.048 0.29 -0.048 Q 0.298 -0.047 0.308 -0.047 Z"/></g></g><g transform="scale(19,19)"><g transform="translate(43.63157894736842,27.32557894736842)"><path fill="rgb(0,0,0)" stroke="none" paint-order="stroke fill markers" d=" M 0.593 -0.6940000000000001 L 0.593 -0.233 Q 0.593 -0.125 0.5205 -0.051500000000000004 Q 0.448 0.022 0.34600000000000003 0.022 Q 0.243 0.022 0.1685 -0.051500000000000004 Q 0.094 -0.125 0.094 -0.233 L 0.094 -0.6940000000000001 L 0.183 -0.6940000000000001 L 0.183 -0.232 Q 0.183 -0.137 0.2315 -0.0855 Q 0.28 -0.034 0.34700000000000003 -0.034 Q 0.41500000000000004 -0.034 0.465 -0.08600000000000001 Q 0.515 -0.138 0.515 -0.232 L 0.515 -0.6940000000000001 L 0.593 -0.6940000000000001 Z"/></g><g transform="translate(44.5973567251462,27.32557894736842)"><path fill="rgb(0,0,0)" stroke="none" paint-order="stroke fill markers" d=" M 0.687 -0.33 L 0.09 -0.33 Q 0.056 -0.33 0.056 -0.35000000000000003 Q 0.056 -0.37 0.089 -0.37 L 0.6880000000000001 -0.37 Q 0.721 -0.37 0.721 -0.35000000000000003 Q 0.721 -0.33 0.687 -0.33 M 0.6880000000000001 -0.13 L 0.089 -0.13 Q 0.056 -0.13 0.056 -0.15 Q 0.056 -0.17 0.09 -0.17 L 0.687 -0.17 Q 0.721 -0.17 0.721 -0.15 Q 0.721 -0.13 0.6880000000000001 -0.13 Z"/></g><g transform="translate(45.653134502923976,27.32557894736842)"><path fill="rgb(0,0,0)" stroke="none" paint-order="stroke fill markers" d=" M 0.17 0.17 L 0.223 0.002 Q 0.109 -0.025 0.067 -0.111 Q 0.05 -0.148 0.05 -0.19 Q 0.05 -0.269 0.10300000000000001 -0.368 Q 0.136 -0.431 0.155 -0.431 Q 0.167 -0.431 0.167 -0.421 Q 0.167 -0.417 0.159 -0.40800000000000003 Q 0.101 -0.341 0.08 -0.232 Q 0.076 -0.212 0.076 -0.201 Q 0.076 -0.113 0.17500000000000002 -0.07200000000000001 Q 0.20400000000000001 -0.06 0.24 -0.053 Q 0.299 -0.246 0.34 -0.319 Q 0.40800000000000003 -0.442 0.505 -0.442 Q 0.582 -0.442 0.609 -0.368 Q 0.619 -0.339 0.619 -0.304 Q 0.619 -0.193 0.532 -0.099 Q 0.445 -0.004 0.331 0.009000000000000001 Q 0.315 0.011 0.299 0.011 Q 0.28400000000000003 0.011 0.266 0.009000000000000001 Q 0.231 0.191 0.231 0.192 Q 0.22 0.217 0.194 0.218 Q 0.171 0.218 0.166 0.198 L 0.166 0.197 L 0.166 0.197 Q 0.165 0.194 0.165 0.19 Q 0.165 0.186 0.17 0.17 M 0.308 -0.047 Q 0.424 -0.047 0.512 -0.126 Q 0.589 -0.196 0.591 -0.28200000000000003 Q 0.591 -0.34400000000000003 0.547 -0.371 Q 0.525 -0.384 0.495 -0.384 Q 0.41200000000000003 -0.384 0.35000000000000003 -0.28700000000000003 Q 0.315 -0.232 0.297 -0.16 Q 0.277 -0.06 0.277 -0.052000000000000005 Q 0.277 -0.048 0.29 -0.048 Q 0.298 -0.047 0.308 -0.047 Z"/></g><g transform="translate(46.30713450292398,27.55457894736842) scale(0.7,0.7)"><path fill="rgb(0,0,0)" stroke="none" paint-order="stroke fill markers" d=" M 0.097 -0.6940000000000001 L 0.334 -0.6940000000000001 Q 0.439 -0.6940000000000001 0.511 -0.642 Q 0.583 -0.59 0.583 -0.52 Q 0.583 -0.465 0.536 -0.423 Q 0.489 -0.381 0.417 -0.363 Q 0.498 -0.35000000000000003 0.554 -0.301 Q 0.61 -0.252 0.61 -0.188 Q 0.61 -0.113 0.5385 -0.0565 Q 0.467 0 0.361 0 L 0.097 0 L 0.097 -0.6940000000000001 M 0.18 -0.391 L 0.296 -0.391 Q 0.393 -0.391 0.449 -0.43 Q 0.505 -0.46900000000000003 0.505 -0.519 Q 0.505 -0.5690000000000001 0.447 -0.6035 Q 0.389 -0.638 0.306 -0.638 L 0.18 -0.638 L 0.18 -0.391 M 0.18 -0.056 L 0.333 -0.056 Q 0.41400000000000003 -0.056 0.47150000000000003 -0.0945 Q 0.529 -0.133 0.529 -0.189 Q 0.529 -0.248 0.4675 -0.289 Q 0.406 -0.33 0.325 -0.33 L 0.18 -0.33 L 0.18 -0.056 Z"/></g><g transform="translate(46.996256725146196,27.32557894736842)"><path fill="rgb(0,0,0)" stroke="none" paint-order="stroke fill markers" d=" M 0.661 -0.23 L 0.116 -0.23 Q 0.084 -0.23 0.083 -0.25 Q 0.083 -0.27 0.116 -0.27 L 0.661 -0.27 Q 0.6930000000000001 -0.27 0.6940000000000001 -0.25 Q 0.6940000000000001 -0.23 0.661 -0.23 Z"/></g><g transform="translate(47.996478947368416,27.32557894736842)"><path fill="rgb(0,0,0)" stroke="none" paint-order="stroke fill markers" d=" M 0.17 0.17 L 0.223 0.002 Q 0.109 -0.025 0.067 -0.111 Q 0.05 -0.148 0.05 -0.19 Q 0.05 -0.269 0.10300000000000001 -0.368 Q 0.136 -0.431 0.155 -0.431 Q 0.167 -0.431 0.167 -0.421 Q 0.167 -0.417 0.159 -0.40800000000000003 Q 0.101 -0.341 0.08 -0.232 Q 0.076 -0.212 0.076 -0.201 Q 0.076 -0.113 0.17500000000000002 -0.07200000000000001 Q 0.20400000000000001 -0.06 0.24 -0.053 Q 0.299 -0.246 0.34 -0.319 Q 0.40800000000000003 -0.442 0.505 -0.442 Q 0.582 -0.442 0.609 -0.368 Q 0.619 -0.339 0.619 -0.304 Q 0.619 -0.193 0.532 -0.099 Q 0.445 -0.004 0.331 0.009000000000000001 Q 0.315 0.011 0.299 0.011 Q 0.28400000000000003 0.011 0.266 0.009000000000000001 Q 0.231 0.191 0.231 0.192 Q 0.22 0.217 0.194 0.218 Q 0.171 0.218 0.166 0.198 L 0.166 0.197 L 0.166 0.197 Q 0.165 0.194 0.165 0.19 Q 0.165 0.186 0.17 0.17 M 0.308 -0.047 Q 0.424 -0.047 0.512 -0.126 Q 0.589 -0.196 0.591 -0.28200000000000003 Q 0.591 -0.34400000000000003 0.547 -0.371 Q 0.525 -0.384 0.495 -0.384 Q 0.41200000000000003 -0.384 0.35000000000000003 -0.28700000000000003 Q 0.315 -0.232 0.297 -0.16 Q 0.277 -0.06 0.277 -0.052000000000000005 Q 0.277 -0.048 0.29 -0.048 Q 0.298 -0.047 0.308 -0.047 Z"/></g><g transform="translate(48.65047894736842,27.55457894736842) scale(0.7,0.7)"><path fill="rgb(0,0,0)" stroke="none" paint-order="stroke fill markers" d=" M 0.377 -0.6940000000000001 L 0.638 0 L 0.546 0 L 0.47000000000000003 -0.20400000000000001 L 0.179 -0.20400000000000001 L 0.10200000000000001 0 L 0.028 0 L 0.289 -0.6940000000000001 L 0.377 -0.6940000000000001 M 0.448 -0.26 L 0.357 -0.517 Q 0.328 -0.6 0.325 -0.622 L 0.324 -0.622 Q 0.318 -0.589 0.265 -0.441 L 0.2 -0.26 L 0.448 -0.26 Z"/></g><g transform="translate(49.395156725146194,27.32557894736842)"><path fill="rgb(0,0,0)" stroke="none" paint-order="stroke fill markers" d=" M 0.687 -0.33 L 0.09 -0.33 Q 0.056 -0.33 0.056 -0.35000000000000003 Q 0.056 -0.37 0.089 -0.37 L 0.6880000000000001 -0.37 Q 0.721 -0.37 0.721 -0.35000000000000003 Q 0.721 -0.33 0.687 -0.33 M 0.6880000000000001 -0.13 L 0.089 -0.13 Q 0.056 -0.13 0.056 -0.15 Q 0.056 -0.17 0.09 -0.17 L 0.687 -0.17 Q 0.721 -0.17 0.721 -0.15 Q 0.721 -0.13 0.6880000000000001 -0.13 Z"/></g><g transform="translate(50.45093450292397,27.32557894736842)"><path fill="rgb(0,0,0)" stroke="none" paint-order="stroke fill markers" d=" M 0.661 -0.23 L 0.116 -0.23 Q 0.084 -0.23 0.083 -0.25 Q 0.083 -0.27 0.116 -0.27 L 0.661 -0.27 Q 0.6930000000000001 -0.27 0.6940000000000001 -0.25 Q 0.6940000000000001 -0.23 0.661 -0.23 Z"/></g><g transform="translate(51.22893450292397,27.32557894736842)"><path fill="rgb(0,0,0)" stroke="none" paint-order="stroke fill markers" d=" M 0.183 -0.6940000000000001 L 0.183 0 L 0.094 0 L 0.094 -0.6940000000000001 L 0.183 -0.6940000000000001 Z"/></g><g transform="translate(51.50693450292397,27.32557894736842)"><path fill="rgb(0,0,0)" stroke="none" paint-order="stroke fill markers" d=" M 0.419 -0.326 L 0.617 0 L 0.528 0 L 0.34 -0.317 L 0.182 -0.317 L 0.182 0 L 0.096 0 L 0.096 -0.6940000000000001 L 0.337 -0.6940000000000001 Q 0.443 -0.6940000000000001 0.516 -0.6385000000000001 Q 0.589 -0.583 0.589 -0.508 Q 0.589 -0.447 0.5425 -0.398 Q 0.496 -0.34900000000000003 0.419 -0.326 M 0.182 -0.378 L 0.326 -0.378 Q 0.41100000000000003 -0.378 0.4595 -0.41500000000000004 Q 0.508 -0.452 0.508 -0.508 Q 0.508 -0.5630000000000001 0.459 -0.6005 Q 0.41000000000000003 -0.638 0.326 -0.638 L 0.182 -0.638 L 0.182 -0.378 Z"/></g></g></g></g></svg>