<svg version="1.1" xmlns="http://www.w3.org/2000/svg" xmlns:xlink="http://www.w3.org/1999/xlink" width="907" height="817"><defs><clipPath id="fTJZUfHdFXcL"><path fill="none" stroke="none" d=" M 0 0 L 907 0 L 907 817 L 0 817 L 0 0 Z"/></clipPath></defs><g transform="scale(1,1)" clip-path="url(#fTJZUfHdFXcL)"><g><rect fill="rgb(255,255,255,0)" stroke="none" x="0" y="0" width="907" height="817" fill-opacity="1"/><path fill="none" stroke="rgb(0,0,0)" paint-order="fill stroke markers" d=" M 100.59793899999886 719.6672125000005 L 809.2223389999991 99.62086249999936" stroke-opacity="0.6980392156862745" stroke-linecap="round" stroke-linejoin="round" stroke-miterlimit="10" stroke-width="2.5"/><path fill="rgb(21,101,192)" stroke="none" paint-order="stroke fill markers" d=" M 105.59793899999886 719.6672125000005 C 105.59793899999886 722.4286362491545 103.35936274915282 724.6672125000005 100.59793899999886 724.6672125000005 C 97.8365152508449 724.6672125000005 95.59793899999886 722.4286362491545 95.59793899999886 719.6672125000005 C 95.59793899999886 716.9057887508465 97.8365152508449 714.6672125000005 100.59793899999886 714.6672125000005 C 103.35936274915282 714.6672125000005 105.59793899999886 716.9057887508465 105.59793899999886 719.6672125000005 Z" fill-opacity="1"/><path fill="none" stroke="rgb(0,0,0)" paint-order="fill stroke markers" d=" M 105.59793899999886 719.6672125000005 C 105.59793899999886 722.4286362491545 103.35936274915282 724.6672125000005 100.59793899999886 724.6672125000005 C 97.8365152508449 724.6672125000005 95.59793899999886 722.4286362491545 95.59793899999886 719.6672125000005 C 95.59793899999886 716.9057887508465 97.8365152508449 714.6672125000005 100.59793899999886 714.6672125000005 C 103.35936274915282 714.6672125000005 105.59793899999886 716.9057887508465 105.59793899999886 719.6672125000005 Z" stroke-opacity="1" stroke-linecap="round" stroke-linejoin="round" stroke-miterlimit="10"/><text fill="rgb(21,101,192)" stroke="none" font-family="geogebra-sans-serif, sans-serif" font-size="16px" font-style="normal" font-weight="normal" text-decoration="normal" x="95" y="706" text-anchor="start" dominant-baseline="alphabetic" fill-opacity="1">A</text><text fill="none" stroke="rgb(255,255,255)" font-family="geogebra-sans-serif, sans-serif" font-size="16px" font-style="normal" font-weight="normal" text-decoration="normal" x="95" y="706" text-anchor="start" dominant-baseline="alphabetic" stroke-opacity="1" stroke-linejoin="bevel" stroke-miterlimit="10" stroke-width="3">A</text><text fill="rgb(21,101,192)" stroke="none" font-family="geogebra-sans-serif, sans-serif" font-size="16px" font-style="normal" font-weight="normal" text-decoration="normal" x="95" y="706" text-anchor="start" dominant-baseline="alphabetic" fill-opacity="1">A</text><path fill="rgb(21,101,192)" stroke="none" paint-order="stroke fill markers" d=" M 814.2223389999991 99.62086249999936 C 814.2223389999991 102.38228624915332 811.9837627491531 104.62086249999936 809.2223389999991 104.62086249999936 C 806.4609152508451 104.62086249999936 804.2223389999991 102.38228624915332 804.2223389999991 99.62086249999936 C 804.2223389999991 96.8594387508454 806.4609152508451 94.62086249999936 809.2223389999991 94.62086249999936 C 811.9837627491531 94.62086249999936 814.2223389999991 96.8594387508454 814.2223389999991 99.62086249999936 Z" fill-opacity="1"/><path fill="none" stroke="rgb(0,0,0)" paint-order="fill stroke markers" d=" M 814.2223389999991 99.62086249999936 C 814.2223389999991 102.38228624915332 811.9837627491531 104.62086249999936 809.2223389999991 104.62086249999936 C 806.4609152508451 104.62086249999936 804.2223389999991 102.38228624915332 804.2223389999991 99.62086249999936 C 804.2223389999991 96.8594387508454 806.4609152508451 94.62086249999936 809.2223389999991 94.62086249999936 C 811.9837627491531 94.62086249999936 814.2223389999991 96.8594387508454 814.2223389999991 99.62086249999936 Z" stroke-opacity="1" stroke-linecap="round" stroke-linejoin="round" stroke-miterlimit="10"/><text fill="rgb(21,101,192)" stroke="none" font-family="geogebra-sans-serif, sans-serif" font-size="16px" font-style="normal" font-weight="normal" text-decoration="normal" x="813" y="90" text-anchor="start" dominant-baseline="alphabetic" fill-opacity="1">B</text><text fill="none" stroke="rgb(255,255,255)" font-family="geogebra-sans-serif, sans-serif" font-size="16px" font-style="normal" font-weight="normal" text-decoration="normal" x="813" y="90" text-anchor="start" dominant-baseline="alphabetic" stroke-opacity="1" stroke-linejoin="bevel" stroke-miterlimit="10" stroke-width="3">B</text><text fill="rgb(21,101,192)" stroke="none" font-family="geogebra-sans-serif, sans-serif" font-size="16px" font-style="normal" font-weight="normal" text-decoration="normal" x="813" y="90" text-anchor="start" dominant-baseline="alphabetic" fill-opacity="1">B</text><path fill="rgb(21,101,192)" stroke="none" paint-order="stroke fill markers" d=" M 548.488188999999 631.0891625000004 C 548.488188999999 633.8505862491544 546.249612749153 636.0891625000004 543.488188999999 636.0891625000004 C 540.726765250845 636.0891625000004 538.488188999999 633.8505862491544 538.488188999999 631.0891625000004 C 538.488188999999 628.3277387508464 540.726765250845 626.0891625000004 543.488188999999 626.0891625000004 C 546.249612749153 626.0891625000004 548.488188999999 628.3277387508464 548.488188999999 631.0891625000004 Z" fill-opacity="1"/><path fill="none" stroke="rgb(0,0,0)" paint-order="fill stroke markers" d=" M 548.488188999999 631.0891625000004 C 548.488188999999 633.8505862491544 546.249612749153 636.0891625000004 543.488188999999 636.0891625000004 C 540.726765250845 636.0891625000004 538.488188999999 633.8505862491544 538.488188999999 631.0891625000004 C 538.488188999999 628.3277387508464 540.726765250845 626.0891625000004 543.488188999999 626.0891625000004 C 546.249612749153 626.0891625000004 548.488188999999 628.3277387508464 548.488188999999 631.0891625000004 Z" stroke-opacity="1" stroke-linecap="round" stroke-linejoin="round" stroke-miterlimit="10"/><text fill="rgb(21,101,192)" stroke="none" font-family="geogebra-sans-serif, sans-serif" font-size="16px" font-style="normal" font-weight="normal" text-decoration="normal" x="547" y="621" text-anchor="start" dominant-baseline="alphabetic" fill-opacity="1">C</text><text fill="none" stroke="rgb(255,255,255)" font-family="geogebra-sans-serif, sans-serif" font-size="16px" font-style="normal" font-weight="normal" text-decoration="normal" x="547" y="621" text-anchor="start" dominant-baseline="alphabetic" stroke-opacity="1" stroke-linejoin="bevel" stroke-miterlimit="10" stroke-width="3">C</text><text fill="rgb(21,101,192)" stroke="none" font-family="geogebra-sans-serif, sans-serif" font-size="16px" font-style="normal" font-weight="normal" text-decoration="normal" x="547" y="621" text-anchor="start" dominant-baseline="alphabetic" fill-opacity="1">C</text></g></g></svg>
