<svg version="1.1" xmlns="http://www.w3.org/2000/svg" xmlns:xlink="http://www.w3.org/1999/xlink" width="1111" height="863"><defs><clipPath id="DxLmQlXntduF"><path fill="none" stroke="none" d=" M 0 0 L 1111 0 L 1111 863 L 0 863 L 0 0 Z"/></clipPath></defs><g transform="scale(1,1)" clip-path="url(#DxLmQlXntduF)"><g><rect fill="rgb(255,255,255,0)" stroke="none" x="0" y="0" width="1111" height="863" fill-opacity="1"/><path fill="none" stroke="rgb(0,0,0)" paint-order="fill stroke markers" d=" M 169.70000000000016 157.45 L 169.70000000000016 707.45" stroke-opacity="0.6980392156862745" stroke-linecap="round" stroke-linejoin="round" stroke-miterlimit="10" stroke-width="2.5"/><path fill="none" stroke="rgb(0,0,0)" paint-order="fill stroke markers" d=" M 939.7000000000004 707.45 L 939.7000000000004 157.45" stroke-opacity="0.6980392156862745" stroke-linecap="round" stroke-linejoin="round" stroke-miterlimit="10" stroke-width="2.5"/><path fill="none" stroke="rgb(0,0,0)" paint-order="fill stroke markers" d=" M 169.70000000000016 157.45 L 444.7000000000003 157.45" stroke-opacity="0.6980392156862745" stroke-linecap="round" stroke-linejoin="round" stroke-miterlimit="10" stroke-width="2.5"/><path fill="none" stroke="rgb(0,0,0)" paint-order="fill stroke markers" d=" M 664.7000000000003 157.45 L 939.7000000000004 157.45" stroke-opacity="0.6980392156862745" stroke-linecap="round" stroke-linejoin="round" stroke-miterlimit="10" stroke-width="2.5"/><path fill="none" stroke="rgb(0,0,0)" paint-order="fill stroke markers" d=" M 444.7000000000003 102.44999999999993 L 444.7000000000003 212.45" stroke-opacity="0.6980392156862745" stroke-linecap="round" stroke-linejoin="round" stroke-miterlimit="10" stroke-width="2.5"/><path fill="none" stroke="rgb(0,0,0)" paint-order="fill stroke markers" d=" M 444.7000000000003 212.45 L 664.7000000000003 212.45" stroke-opacity="0.6980392156862745" stroke-linecap="round" stroke-linejoin="round" stroke-miterlimit="10" stroke-width="2.5"/><path fill="none" stroke="rgb(0,0,0)" paint-order="fill stroke markers" d=" M 664.7000000000003 212.45 L 664.7000000000003 102.44999999999993" stroke-opacity="0.6980392156862745" stroke-linecap="round" stroke-linejoin="round" stroke-miterlimit="10" stroke-width="2.5"/><path fill="none" stroke="rgb(0,0,0)" paint-order="fill stroke markers" d=" M 664.7000000000003 102.44999999999993 L 444.7000000000003 102.44999999999993" stroke-opacity="0.6980392156862745" stroke-linecap="round" stroke-linejoin="round" stroke-miterlimit="10" stroke-width="2.5"/><path fill="none" stroke="rgb(0,0,0)" paint-order="fill stroke markers" d=" M 169.70000000000016 707.45 L 527.2000000000003 707.45" stroke-opacity="0.6980392156862745" stroke-linecap="round" stroke-linejoin="round" stroke-miterlimit="10" stroke-width="2.5"/><path fill="none" stroke="rgb(0,0,0)" paint-order="fill stroke markers" d=" M 582.2000000000003 707.45 L 939.7000000000004 707.45" stroke-opacity="0.6980392156862745" stroke-linecap="round" stroke-linejoin="round" stroke-miterlimit="10" stroke-width="2.5"/><path fill="none" stroke="rgb(0,0,0)" paint-order="fill stroke markers" d=" M 582.2000000000003 652.45 L 582.2000000000003 762.4500000000002" stroke-opacity="0.6980392156862745" stroke-linecap="round" stroke-linejoin="round" stroke-miterlimit="10" stroke-width="2.5"/><path fill="none" stroke="rgb(0,0,0)" paint-order="fill stroke markers" d=" M 527.2000000000003 597.45 L 527.2000000000003 817.4500000000002" stroke-opacity="0.6980392156862745" stroke-linecap="round" stroke-linejoin="round" stroke-miterlimit="10" stroke-width="2.5"/><path fill="rgb(0,0,0)" stroke="none" paint-order="stroke fill markers" d=" M 317.7000000000002 98.19999999999993 L 317.7000000000002 101.19999999999993 L 169.70000000000016 101.19999999999993 C 169.00964406271166 101.19999999999993 168.45000000000016 101.75964406271144 168.45000000000016 102.44999999999993 C 168.45000000000016 103.14035593728842 169.00964406271166 103.69999999999993 169.70000000000016 103.69999999999993 L 317.7000000000002 103.69999999999993 L 317.7000000000002 106.69999999999993 L 334.7000000000002 102.44999999999993 L 317.7000000000002 98.19999999999993 Z" fill-opacity="0.6980392156862745"/><text fill="rgb(0,0,0)" stroke="none" font-family="geogebra-sans-serif, sans-serif" font-size="16px" font-style="normal" font-weight="normal" text-decoration="normal" x="251" y="93" text-anchor="start" dominant-baseline="alphabetic" fill-opacity="1">I</text><text fill="none" stroke="rgb(255,255,255)" font-family="geogebra-sans-serif, sans-serif" font-size="16px" font-style="normal" font-weight="normal" text-decoration="normal" x="251" y="93" text-anchor="start" dominant-baseline="alphabetic" stroke-opacity="1" stroke-linejoin="bevel" stroke-miterlimit="10" stroke-width="3">I</text><text fill="rgb(0,0,0)" stroke="none" font-family="geogebra-sans-serif, sans-serif" font-size="16px" font-style="normal" font-weight="normal" text-decoration="normal" x="251" y="93" text-anchor="start" dominant-baseline="alphabetic" fill-opacity="1">I</text><path fill="rgb(0,0,0)" stroke="none" paint-order="stroke fill markers" d=" M 791.7000000000003 758.2000000000002 L 774.7000000000003 762.4500000000002 L 791.7000000000003 766.7000000000002 L 791.7000000000003 763.7000000000002 L 939.7000000000004 763.7000000000002 C 940.3903559372889 763.7000000000002 940.9500000000004 763.1403559372886 940.9500000000004 762.4500000000002 C 940.9500000000004 761.7596440627117 940.3903559372889 761.2000000000002 939.7000000000004 761.2000000000002 L 791.7000000000003 761.2000000000002 L 791.7000000000003 758.2000000000002 Z" fill-opacity="0.6980392156862745"/><text fill="rgb(0,0,0)" stroke="none" font-family="geogebra-sans-serif, sans-serif" font-size="16px" font-style="normal" font-weight="normal" text-decoration="normal" x="856" y="785" text-anchor="start" dominant-baseline="alphabetic" fill-opacity="1">I</text><text fill="none" stroke="rgb(255,255,255)" font-family="geogebra-sans-serif, sans-serif" font-size="16px" font-style="normal" font-weight="normal" text-decoration="normal" x="856" y="785" text-anchor="start" dominant-baseline="alphabetic" stroke-opacity="1" stroke-linejoin="bevel" stroke-miterlimit="10" stroke-width="3">I</text><text fill="rgb(0,0,0)" stroke="none" font-family="geogebra-sans-serif, sans-serif" font-size="16px" font-style="normal" font-weight="normal" text-decoration="normal" x="856" y="785" text-anchor="start" dominant-baseline="alphabetic" fill-opacity="1">I</text><path fill="rgb(21,101,192)" stroke="none" paint-order="stroke fill markers" d=" M 697.2000000000003 707.45 C 697.2000000000003 710.211423749154 694.9614237491543 712.45 692.2000000000003 712.45 C 689.4385762508463 712.45 687.2000000000003 710.211423749154 687.2000000000003 707.45 C 687.2000000000003 704.688576250846 689.4385762508463 702.45 692.2000000000003 702.45 C 694.9614237491543 702.45 697.2000000000003 704.688576250846 697.2000000000003 707.45 Z" fill-opacity="1"/><path fill="none" stroke="rgb(0,0,0)" paint-order="fill stroke markers" d=" M 697.2000000000003 707.45 C 697.2000000000003 710.211423749154 694.9614237491543 712.45 692.2000000000003 712.45 C 689.4385762508463 712.45 687.2000000000003 710.211423749154 687.2000000000003 707.45 C 687.2000000000003 704.688576250846 689.4385762508463 702.45 692.2000000000003 702.45 C 694.9614237491543 702.45 697.2000000000003 704.688576250846 697.2000000000003 707.45 Z" stroke-opacity="1" stroke-linecap="round" stroke-linejoin="round" stroke-miterlimit="10"/><text fill="rgb(21,101,192)" stroke="none" font-family="geogebra-sans-serif, sans-serif" font-size="16px" font-style="normal" font-weight="normal" text-decoration="normal" x="697" y="697" text-anchor="start" dominant-baseline="alphabetic" fill-opacity="1">a</text><text fill="none" stroke="rgb(255,255,255)" font-family="geogebra-sans-serif, sans-serif" font-size="16px" font-style="normal" font-weight="normal" text-decoration="normal" x="697" y="697" text-anchor="start" dominant-baseline="alphabetic" stroke-opacity="1" stroke-linejoin="bevel" stroke-miterlimit="10" stroke-width="3">a</text><text fill="rgb(21,101,192)" stroke="none" font-family="geogebra-sans-serif, sans-serif" font-size="16px" font-style="normal" font-weight="normal" text-decoration="normal" x="697" y="697" text-anchor="start" dominant-baseline="alphabetic" fill-opacity="1">a</text><text fill="rgb(0,0,0)" stroke="none" font-family="geogebra-sans-serif, sans-serif" font-size="16px" font-style="normal" font-weight="normal" text-decoration="normal" x="549" y="80" text-anchor="start" dominant-baseline="alphabetic" fill-opacity="1">R</text><g transform="scale(19,19)"><g transform="translate(26.842105263157894,30.536263157894737)"><path fill="rgb(0,0,0)" stroke="none" paint-order="stroke fill markers" d=" M 0.14100000000000001 -0.227 L 0.14100000000000001 -0.227 Q 0.076 -0.195 0.057 -0.137 Q 0.052000000000000005 -0.123 0.052000000000000005 -0.11 Q 0.052000000000000005 -0.036000000000000004 0.166 -0.025 Q 0.182 -0.024 0.198 -0.024 Q 0.316 -0.024 0.35100000000000003 -0.077 Q 0.353 -0.079 0.356 -0.084 Q 0.361 -0.091 0.366 -0.091 Q 0.377 -0.091 0.377 -0.081 Q 0.377 -0.065 0.34700000000000003 -0.036000000000000004 Q 0.28600000000000003 0.022 0.189 0.022 Q 0.08700000000000001 0.022 0.044 -0.043000000000000003 Q 0.026000000000000002 -0.07100000000000001 0.026000000000000002 -0.10400000000000001 Q 0.026000000000000002 -0.164 0.081 -0.213 Q 0.097 -0.228 0.117 -0.23900000000000002 Q 0.077 -0.269 0.077 -0.31 Q 0.077 -0.369 0.15 -0.41300000000000003 Q 0.217 -0.453 0.3 -0.453 Q 0.365 -0.453 0.41100000000000003 -0.419 Q 0.429 -0.406 0.429 -0.396 Q 0.429 -0.378 0.41100000000000003 -0.371 Q 0.406 -0.369 0.402 -0.369 Q 0.396 -0.369 0.382 -0.379 Q 0.342 -0.40700000000000003 0.29 -0.40700000000000003 Q 0.193 -0.40700000000000003 0.136 -0.367 Q 0.10200000000000001 -0.342 0.10200000000000001 -0.31 Q 0.10200000000000001 -0.273 0.14200000000000002 -0.252 Q 0.183 -0.271 0.23500000000000001 -0.271 Q 0.306 -0.271 0.308 -0.244 Q 0.308 -0.213 0.227 -0.213 Q 0.17400000000000002 -0.213 0.14100000000000001 -0.227 M 0.17400000000000002 -0.24 Q 0.193 -0.23500000000000001 0.227 -0.23500000000000001 Q 0.265 -0.23500000000000001 0.28200000000000003 -0.243 Q 0.26 -0.249 0.23500000000000001 -0.249 Q 0.2 -0.249 0.17400000000000002 -0.24 Z"/></g></g></g></g></svg>