<svg version="1.1" xmlns="http://www.w3.org/2000/svg" xmlns:xlink="http://www.w3.org/1999/xlink" width="687" height="817"><defs><clipPath id="DGsVRKQdmzlF"><path fill="none" stroke="none" d=" M 0 0 L 687 0 L 687 817 L 0 817 L 0 0 Z"/></clipPath></defs><g transform="scale(1,1)" clip-path="url(#DGsVRKQdmzlF)"><g><rect fill="rgb(255,255,255,0)" stroke="none" x="0" y="0" width="687" height="817" fill-opacity="1"/><path fill="none" stroke="rgb(0,0,0)" paint-order="fill stroke markers" d=" M 444.6124581654256 207.2264189604537 L 444.6124581654256 343.8291100334678" stroke-opacity="0.6980392156862745" stroke-linecap="round" stroke-linejoin="round" stroke-miterlimit="10" stroke-width="2.5"/><path fill="none" stroke="rgb(0,0,0)" paint-order="fill stroke markers" d=" M 444.6124581654256 343.8291100334678 L 512.9138037019326 343.8291100334678" stroke-opacity="0.6980392156862745" stroke-linecap="round" stroke-linejoin="round" stroke-miterlimit="10" stroke-width="2.5"/><path fill="none" stroke="rgb(0,0,0)" paint-order="fill stroke markers" d=" M 512.9138037019326 343.8291100334678 L 512.9138037019326 207.2264189604537" stroke-opacity="0.6980392156862745" stroke-linecap="round" stroke-linejoin="round" stroke-miterlimit="10" stroke-width="2.5"/><path fill="none" stroke="rgb(0,0,0)" paint-order="fill stroke markers" d=" M 512.9138037019326 207.2264189604537 L 444.6124581654256 207.2264189604537" stroke-opacity="0.6980392156862745" stroke-linecap="round" stroke-linejoin="round" stroke-miterlimit="10" stroke-width="2.5"/><path fill="none" stroke="rgb(0,0,0)" paint-order="fill stroke markers" d=" M 444.6124581654256 480.4318011064819 L 512.9138037019326 480.4318011064819" stroke-opacity="0.6980392156862745" stroke-linecap="round" stroke-linejoin="round" stroke-miterlimit="10" stroke-width="2.5"/><path fill="none" stroke="rgb(0,0,0)" paint-order="fill stroke markers" d=" M 512.9138037019326 480.4318011064819 L 512.9138037019326 617.034492179496" stroke-opacity="0.6980392156862745" stroke-linecap="round" stroke-linejoin="round" stroke-miterlimit="10" stroke-width="2.5"/><path fill="none" stroke="rgb(0,0,0)" paint-order="fill stroke markers" d=" M 512.9138037019326 617.034492179496 L 444.6124581654256 617.034492179496" stroke-opacity="0.6980392156862745" stroke-linecap="round" stroke-linejoin="round" stroke-miterlimit="10" stroke-width="2.5"/><path fill="none" stroke="rgb(0,0,0)" paint-order="fill stroke markers" d=" M 444.6124581654256 617.034492179496 L 444.6124581654256 480.4318011064819" stroke-opacity="0.6980392156862745" stroke-linecap="round" stroke-linejoin="round" stroke-miterlimit="10" stroke-width="2.5"/><path fill="none" stroke="rgb(0,0,0)" paint-order="fill stroke markers" d=" M 478.7631309336791 480.4318011064819 L 478.7631309336791 343.8291100334678" stroke-opacity="0.6980392156862745" stroke-linecap="round" stroke-linejoin="round" stroke-miterlimit="10" stroke-width="2.5"/><path fill="rgb(0,0,0)" stroke="none" paint-order="stroke fill markers" d=" M 615.3658137274687 410.8804555700017 C 615.1963343983998 410.8804566684541 615.0347329500095 410.91418643785323 614.8873556973139 410.9752985631832 L 614.8873557267942 410.9752985631832 C 615.0401768986661 410.9120709647279 615.2029952599229 410.88045663366745 615.3658137893606 410.8804555700017 Z M 615.365830222488 410.8804555700017 C 615.5286487524382 410.8804566334683 615.6914671142391 410.9120709645288 615.8442882865921 410.9752985631832 L 615.8442883160725 410.9752985631832 C 615.696911063358 410.9141864378454 615.5353096149452 410.8804566684454 615.3658302858526 410.8804555700017 Z M 614.1158220066932 418.38045556997486 L 614.1158220066932 679.085837716003 L 616.6158220066932 679.085837716003 L 616.6158220066932 418.38045556997486 Z M 614.8873721186366 686.4910015319977 C 615.0347473539889 686.5521103486946 615.1963459559811 686.585837716003 615.3658220066932 686.585837716003 C 615.2030065830805 686.585837716003 615.0401911594679 686.5542256546679 614.887372184979 686.4910015319977 Z M 615.8442739526779 686.4910006531442 L 615.8442739526778 686.4910006531442 C 615.6914543627367 686.5542253617167 615.528638184715 686.585837716003 615.3658220066932 686.585837716003 C 615.5352988698593 686.585837716003 615.6968982087776 686.5521100253214 615.8442740142623 686.4910006531442 Z" fill-opacity="0.6980392156862745"/><path fill="rgb(0,0,0)" stroke="none" paint-order="stroke fill markers" d=" M 615.3658220066932 410.88045556997486 C 615.0459191096238 410.88045556997486 614.7260162125546 411.0024944111471 614.4819385302101 411.24657209349164 L 609.4819385302101 416.24657209349164 C 609.1244410351613 416.60406958854026 609.0174963409216 417.14171687336443 609.2109725910541 417.60880986043117 C 609.4044488411864 418.0759028474979 609.8602442006809 418.38045556997486 610.3658220066932 418.38045556997486 L 620.3658220066932 418.38045556997486 C 620.8713998127055 418.38045556997486 621.3271951721999 418.0759028474979 621.5206714223323 417.60880986043117 C 621.7141476724647 417.14171687336443 621.607202978225 416.60406958854026 621.2497054831763 416.24657209349164 L 616.2497054831763 411.24657209349164 C 616.0056278008318 411.0024944111471 615.6857249037625 410.88045556997486 615.3658220066932 410.88045556997486 Z" fill-opacity="0.6980392156862745"/><path fill="rgb(0,0,0)" stroke="none" paint-order="stroke fill markers" d=" M 610.3658220066932 679.085837716003 C 609.8602442006809 679.085837716003 609.4044488411864 679.3903904384799 609.2109725910541 679.8574834255467 C 609.0174963409218 680.3245764126134 609.1244410351612 680.8622236974375 609.48193853021 681.2197211924862 L 614.48193853021 686.2197211924862 C 614.7260162125544 686.4637988748307 615.0459191096238 686.585837716003 615.3658220066932 686.585837716003 C 615.6857249037625 686.585837716003 616.0056278008319 686.4637988748307 616.2497054831764 686.2197211924862 L 621.2497054831764 681.2197211924862 C 621.6072029782251 680.8622236974375 621.7141476724646 680.3245764126134 621.5206714223323 679.8574834255467 C 621.3271951721999 679.3903904384799 620.8713998127055 679.085837716003 620.3658220066932 679.085837716003 Z" fill-opacity="0.6980392156862745"/><path fill="none" stroke="rgb(0,0,0)" paint-order="fill stroke markers" d=" M 478.7631309336791 617.034492179496 L 478.7631309336791 753.6371832525101" stroke-opacity="0.6980392156862745" stroke-linecap="round" stroke-linejoin="round" stroke-miterlimit="10" stroke-width="2.5"/><path fill="none" stroke="rgb(0,0,0)" paint-order="fill stroke markers" d=" M 478.7631309336791 207.2264189604537 L 478.7631309336791 70.62372788743966" stroke-opacity="0.6980392156862745" stroke-linecap="round" stroke-linejoin="round" stroke-miterlimit="10" stroke-width="2.5"/><path fill="none" stroke="rgb(0,0,0)" paint-order="fill stroke markers" d=" M 478.7631309336791 70.62372788743966 L 137.25640325114404 70.62372788743966" stroke-opacity="0.6980392156862745" stroke-linecap="round" stroke-linejoin="round" stroke-miterlimit="10" stroke-width="2.5"/><path fill="none" stroke="rgb(0,0,0)" paint-order="fill stroke markers" d=" M 103.10573048289052 429.20579195410164 L 171.40707601939755 429.20579195410164" stroke-opacity="0.6980392156862745" stroke-linecap="round" stroke-linejoin="round" stroke-miterlimit="10" stroke-width="2.5"/><path fill="none" stroke="rgb(0,0,0)" paint-order="fill stroke markers" d=" M 137.25640325114404 429.20579195410164 L 137.25640325114404 753.6371832525101" stroke-opacity="0.6980392156862745" stroke-linecap="round" stroke-linejoin="round" stroke-miterlimit="10" stroke-width="2.5"/><path fill="none" stroke="rgb(0,0,0)" paint-order="fill stroke markers" d=" M 137.25640325114404 753.6371832525101 L 478.7631309336791 753.6371832525101" stroke-opacity="0.6980392156862745" stroke-linecap="round" stroke-linejoin="round" stroke-miterlimit="10" stroke-width="2.5"/><path fill="none" stroke="rgb(0,0,0)" paint-order="fill stroke markers" d=" M 137.25640325114404 70.62372788743966 L 137.25640325114404 395.05511918584807" stroke-opacity="0.6980392156862745" stroke-linecap="round" stroke-linejoin="round" stroke-miterlimit="10" stroke-width="2.5"/><path fill="none" stroke="rgb(0,0,0)" paint-order="fill stroke markers" d=" M 68.95505771463706 395.05511918584807 L 205.55774878765106 395.05511918584807" stroke-opacity="0.6980392156862745" stroke-linecap="round" stroke-linejoin="round" stroke-miterlimit="10" stroke-width="2.5"/><path fill="none" stroke="rgb(0,0,0)" paint-order="fill stroke markers" d=" M 478.7631309336791 412.13045556997486 L 615.3658220066932 412.13045556997486" stroke-opacity="0.6980392156862745" stroke-linejoin="round" stroke-miterlimit="10" stroke-width="2.5" stroke-dasharray="10.5,8"/><path fill="none" stroke="rgb(0,0,0)" paint-order="fill stroke markers" d=" M 615.3658220066932 685.335837716003 L 478.7631309336791 685.335837716003" stroke-opacity="0.6980392156862745" stroke-linejoin="round" stroke-miterlimit="10" stroke-width="2.5" stroke-dasharray="10.5,8"/><path fill="rgb(21,101,192)" stroke="none" paint-order="stroke fill markers" d=" M 483.7631309336791 412.13045556997486 C 483.7631309336791 414.8918793191288 481.52455468283307 417.13045556997486 478.7631309336791 417.13045556997486 C 476.0017071845252 417.13045556997486 473.7631309336791 414.8918793191288 473.7631309336791 412.13045556997486 C 473.7631309336791 409.3690318208209 476.0017071845252 407.13045556997486 478.7631309336791 407.13045556997486 C 481.52455468283307 407.13045556997486 483.7631309336791 409.3690318208209 483.7631309336791 412.13045556997486 Z" fill-opacity="1"/><path fill="none" stroke="rgb(0,0,0)" paint-order="fill stroke markers" d=" M 483.7631309336791 412.13045556997486 C 483.7631309336791 414.8918793191288 481.52455468283307 417.13045556997486 478.7631309336791 417.13045556997486 C 476.0017071845252 417.13045556997486 473.7631309336791 414.8918793191288 473.7631309336791 412.13045556997486 C 473.7631309336791 409.3690318208209 476.0017071845252 407.13045556997486 478.7631309336791 407.13045556997486 C 481.52455468283307 407.13045556997486 483.7631309336791 409.3690318208209 483.7631309336791 412.13045556997486 Z" stroke-opacity="1" stroke-linecap="round" stroke-linejoin="round" stroke-miterlimit="10"/><path fill="rgb(21,101,192)" stroke="none" paint-order="stroke fill markers" d=" M 483.7631309336791 685.335837716003 C 483.7631309336791 688.097261465157 481.52455468283307 690.335837716003 478.7631309336791 690.335837716003 C 476.0017071845252 690.335837716003 473.7631309336791 688.097261465157 473.7631309336791 685.335837716003 C 473.7631309336791 682.574413966849 476.0017071845252 680.335837716003 478.7631309336791 680.335837716003 C 481.52455468283307 680.335837716003 483.7631309336791 682.574413966849 483.7631309336791 685.335837716003 Z" fill-opacity="1"/><path fill="none" stroke="rgb(0,0,0)" paint-order="fill stroke markers" d=" M 483.7631309336791 685.335837716003 C 483.7631309336791 688.097261465157 481.52455468283307 690.335837716003 478.7631309336791 690.335837716003 C 476.0017071845252 690.335837716003 473.7631309336791 688.097261465157 473.7631309336791 685.335837716003 C 473.7631309336791 682.574413966849 476.0017071845252 680.335837716003 478.7631309336791 680.335837716003 C 481.52455468283307 680.335837716003 483.7631309336791 682.574413966849 483.7631309336791 685.335837716003 Z" stroke-opacity="1" stroke-linecap="round" stroke-linejoin="round" stroke-miterlimit="10"/><g transform="scale(19,19)"><g transform="translate(1.3157894736842106,21.85205263157895)"><path fill="rgb(0,0,0)" stroke="none" paint-order="stroke fill markers" d=" M 0.17 0.17 L 0.223 0.002 Q 0.109 -0.025 0.067 -0.111 Q 0.05 -0.148 0.05 -0.19 Q 0.05 -0.269 0.10300000000000001 -0.368 Q 0.136 -0.431 0.155 -0.431 Q 0.167 -0.431 0.167 -0.421 Q 0.167 -0.417 0.159 -0.40800000000000003 Q 0.101 -0.341 0.08 -0.232 Q 0.076 -0.212 0.076 -0.201 Q 0.076 -0.113 0.17500000000000002 -0.07200000000000001 Q 0.20400000000000001 -0.06 0.24 -0.053 Q 0.299 -0.246 0.34 -0.319 Q 0.40800000000000003 -0.442 0.505 -0.442 Q 0.582 -0.442 0.609 -0.368 Q 0.619 -0.339 0.619 -0.304 Q 0.619 -0.193 0.532 -0.099 Q 0.445 -0.004 0.331 0.009000000000000001 Q 0.315 0.011 0.299 0.011 Q 0.28400000000000003 0.011 0.266 0.009000000000000001 Q 0.231 0.191 0.231 0.192 Q 0.22 0.217 0.194 0.218 Q 0.171 0.218 0.166 0.198 L 0.166 0.197 L 0.166 0.197 Q 0.165 0.194 0.165 0.19 Q 0.165 0.186 0.17 0.17 M 0.308 -0.047 Q 0.424 -0.047 0.512 -0.126 Q 0.589 -0.196 0.591 -0.28200000000000003 Q 0.591 -0.34400000000000003 0.547 -0.371 Q 0.525 -0.384 0.495 -0.384 Q 0.41200000000000003 -0.384 0.35000000000000003 -0.28700000000000003 Q 0.315 -0.232 0.297 -0.16 Q 0.277 -0.06 0.277 -0.052000000000000005 Q 0.277 -0.048 0.29 -0.048 Q 0.298 -0.047 0.308 -0.047 Z"/></g><g transform="translate(1.9697894736842105,22.08105263157895) scale(0.7,0.7)"><path fill="rgb(0,0,0)" stroke="none" paint-order="stroke fill markers" d=" M 0.163 -0.68 L 0.163 -0.591 L 0.074 -0.591 L 0.074 -0.68 L 0.163 -0.68 M 0.156 -0.444 L 0.156 0 L 0.081 0 L 0.081 -0.444 L 0.156 -0.444 Z"/></g><g transform="translate(2.1370894736842105,22.08105263157895) scale(0.7,0.7)"><path fill="rgb(0,0,0)" stroke="none" paint-order="stroke fill markers" d=" M 0.435 -0.298 L 0.435 0 L 0.357 0 L 0.357 -0.291 Q 0.357 -0.305 0.3565 -0.3145 Q 0.356 -0.324 0.35050000000000003 -0.3405 Q 0.34500000000000003 -0.357 0.3355 -0.3675 Q 0.326 -0.378 0.3065 -0.386 Q 0.28700000000000003 -0.394 0.26 -0.394 Q 0.20800000000000002 -0.394 0.1835 -0.34900000000000003 Q 0.159 -0.304 0.159 -0.245 L 0.159 0 L 0.081 0 L 0.081 -0.45 L 0.153 -0.45 L 0.153 -0.379 Q 0.21 -0.455 0.298 -0.455 Q 0.435 -0.455 0.435 -0.298 Z"/></g></g><g transform="scale(19,19)"><g transform="translate(33.421052631578945,28.957315789473686)"><path fill="rgb(0,0,0)" stroke="none" paint-order="stroke fill markers" d=" M 0.17 0.17 L 0.223 0.002 Q 0.109 -0.025 0.067 -0.111 Q 0.05 -0.148 0.05 -0.19 Q 0.05 -0.269 0.10300000000000001 -0.368 Q 0.136 -0.431 0.155 -0.431 Q 0.167 -0.431 0.167 -0.421 Q 0.167 -0.417 0.159 -0.40800000000000003 Q 0.101 -0.341 0.08 -0.232 Q 0.076 -0.212 0.076 -0.201 Q 0.076 -0.113 0.17500000000000002 -0.07200000000000001 Q 0.20400000000000001 -0.06 0.24 -0.053 Q 0.299 -0.246 0.34 -0.319 Q 0.40800000000000003 -0.442 0.505 -0.442 Q 0.582 -0.442 0.609 -0.368 Q 0.619 -0.339 0.619 -0.304 Q 0.619 -0.193 0.532 -0.099 Q 0.445 -0.004 0.331 0.009000000000000001 Q 0.315 0.011 0.299 0.011 Q 0.28400000000000003 0.011 0.266 0.009000000000000001 Q 0.231 0.191 0.231 0.192 Q 0.22 0.217 0.194 0.218 Q 0.171 0.218 0.166 0.198 L 0.166 0.197 L 0.166 0.197 Q 0.165 0.194 0.165 0.19 Q 0.165 0.186 0.17 0.17 M 0.308 -0.047 Q 0.424 -0.047 0.512 -0.126 Q 0.589 -0.196 0.591 -0.28200000000000003 Q 0.591 -0.34400000000000003 0.547 -0.371 Q 0.525 -0.384 0.495 -0.384 Q 0.41200000000000003 -0.384 0.35000000000000003 -0.28700000000000003 Q 0.315 -0.232 0.297 -0.16 Q 0.277 -0.06 0.277 -0.052000000000000005 Q 0.277 -0.048 0.29 -0.048 Q 0.298 -0.047 0.308 -0.047 Z"/></g><g transform="translate(34.07505263157895,29.186315789473685) scale(0.7,0.7)"><path fill="rgb(0,0,0)" stroke="none" paint-order="stroke fill markers" d=" M 0.46900000000000003 -0.22 Q 0.46900000000000003 -0.123 0.4045 -0.056 Q 0.34 0.011 0.249 0.011 Q 0.16 0.011 0.095 -0.0555 Q 0.03 -0.122 0.03 -0.22 Q 0.03 -0.319 0.094 -0.39 Q 0.158 -0.461 0.25 -0.461 Q 0.34 -0.461 0.4045 -0.3905 Q 0.46900000000000003 -0.32 0.46900000000000003 -0.22 M 0.249 -0.053 Q 0.308 -0.053 0.34950000000000003 -0.0995 Q 0.391 -0.146 0.391 -0.23 Q 0.391 -0.313 0.34900000000000003 -0.3565 Q 0.307 -0.4 0.249 -0.4 Q 0.193 -0.4 0.1505 -0.357 Q 0.108 -0.314 0.108 -0.23 Q 0.108 -0.145 0.15 -0.099 Q 0.192 -0.053 0.249 -0.053 Z"/></g><g transform="translate(34.42505263157895,29.186315789473685) scale(0.7,0.7)"><path fill="rgb(0,0,0)" stroke="none" paint-order="stroke fill markers" d=" M 0.435 -0.444 L 0.435 0 L 0.36 0 L 0.36 -0.048 Q 0.293 0.011 0.187 0.011 Q 0.128 0.011 0.1045 -0.0195 Q 0.081 -0.05 0.081 -0.109 L 0.081 -0.444 L 0.159 -0.444 L 0.159 -0.113 Q 0.159 -0.076 0.17350000000000002 -0.06 Q 0.188 -0.044 0.23700000000000002 -0.044 Q 0.28800000000000003 -0.044 0.3225 -0.0725 Q 0.357 -0.101 0.357 -0.154 L 0.357 -0.444 L 0.435 -0.444 Z"/></g><g transform="translate(34.78695263157895,29.186315789473685) scale(0.7,0.7)"><path fill="rgb(0,0,0)" stroke="none" paint-order="stroke fill markers" d=" M 0.17500000000000002 -0.386 L 0.17500000000000002 -0.136 Q 0.17500000000000002 -0.053 0.226 -0.053 Q 0.275 -0.053 0.316 -0.08600000000000001 L 0.332 -0.027 Q 0.259 0.011 0.186 0.011 Q 0.10300000000000001 0.011 0.10300000000000001 -0.11900000000000001 L 0.10300000000000001 -0.386 L 0.019 -0.386 L 0.019 -0.444 L 0.106 -0.444 L 0.106 -0.5710000000000001 L 0.17500000000000002 -0.5710000000000001 L 0.17500000000000002 -0.444 L 0.316 -0.444 L 0.316 -0.386 L 0.17500000000000002 -0.386 Z"/></g></g><g transform="scale(19,19)"><g transform="translate(21.210526315789473,29.062421052631578)"><path fill="rgb(0,0,0)" stroke="none" paint-order="stroke fill markers" d=" M 0.419 -0.326 L 0.617 0 L 0.528 0 L 0.34 -0.317 L 0.182 -0.317 L 0.182 0 L 0.096 0 L 0.096 -0.6940000000000001 L 0.337 -0.6940000000000001 Q 0.443 -0.6940000000000001 0.516 -0.6385000000000001 Q 0.589 -0.583 0.589 -0.508 Q 0.589 -0.447 0.5425 -0.398 Q 0.496 -0.34900000000000003 0.419 -0.326 M 0.182 -0.378 L 0.326 -0.378 Q 0.41100000000000003 -0.378 0.4595 -0.41500000000000004 Q 0.508 -0.452 0.508 -0.508 Q 0.508 -0.5630000000000001 0.459 -0.6005 Q 0.41000000000000003 -0.638 0.326 -0.638 L 0.182 -0.638 L 0.182 -0.378 Z"/></g><g transform="translate(21.856526315789473,29.212421052631576) scale(0.7,0.7)"><path fill="rgb(0,0,0)" stroke="none" paint-order="stroke fill markers" d=" M 0.17400000000000002 -0.188 L 0.251 -0.259 Q 0.281 -0.29 0.2955 -0.3055 Q 0.31 -0.321 0.33 -0.34900000000000003 Q 0.35000000000000003 -0.377 0.3585 -0.404 Q 0.367 -0.431 0.367 -0.461 Q 0.367 -0.523 0.328 -0.5685 Q 0.289 -0.614 0.222 -0.614 Q 0.161 -0.614 0.1315 -0.5730000000000001 Q 0.10200000000000001 -0.532 0.083 -0.459 Q 0.066 -0.484 0.061 -0.488 Q 0.06 -0.489 0.0545 -0.4965 Q 0.049 -0.504 0.042 -0.514 Q 0.088 -0.678 0.23600000000000002 -0.678 Q 0.332 -0.678 0.3905 -0.6155 Q 0.449 -0.553 0.449 -0.463 Q 0.449 -0.424 0.4315 -0.3865 Q 0.41400000000000003 -0.34900000000000003 0.398 -0.3305 Q 0.382 -0.312 0.35000000000000003 -0.28 Q 0.34 -0.271 0.3055 -0.241 Q 0.271 -0.211 0.261 -0.202 Q 0.254 -0.196 0.1975 -0.14100000000000001 Q 0.14100000000000001 -0.08600000000000001 0.122 -0.07 L 0.231 -0.07 Q 0.23700000000000002 -0.07 0.249 -0.07050000000000001 Q 0.261 -0.07100000000000001 0.267 -0.07100000000000001 L 0.449 -0.07100000000000001 L 0.449 0 L 0.05 0 L 0.05 -0.064 L 0.17400000000000002 -0.188 Z"/></g></g><g transform="scale(19,19)"><g transform="translate(21.263157894736842,14.746631578947369)"><path fill="rgb(0,0,0)" stroke="none" paint-order="stroke fill markers" d=" M 0.419 -0.326 L 0.617 0 L 0.528 0 L 0.34 -0.317 L 0.182 -0.317 L 0.182 0 L 0.096 0 L 0.096 -0.6940000000000001 L 0.337 -0.6940000000000001 Q 0.443 -0.6940000000000001 0.516 -0.6385000000000001 Q 0.589 -0.583 0.589 -0.508 Q 0.589 -0.447 0.5425 -0.398 Q 0.496 -0.34900000000000003 0.419 -0.326 M 0.182 -0.378 L 0.326 -0.378 Q 0.41100000000000003 -0.378 0.4595 -0.41500000000000004 Q 0.508 -0.452 0.508 -0.508 Q 0.508 -0.5630000000000001 0.459 -0.6005 Q 0.41000000000000003 -0.638 0.326 -0.638 L 0.182 -0.638 L 0.182 -0.378 Z"/></g><g transform="translate(21.909157894736843,14.89663157894737) scale(0.7,0.7)"><path fill="rgb(0,0,0)" stroke="none" paint-order="stroke fill markers" d=" M 0.299 -0.678 L 0.299 -0.058 L 0.424 -0.058 L 0.424 0 L 0.095 0 L 0.095 -0.058 L 0.22 -0.058 L 0.22 -0.578 Q 0.169 -0.556 0.089 -0.554 L 0.089 -0.612 Q 0.22 -0.617 0.279 -0.678 L 0.299 -0.678 Z"/></g></g></g></g></svg>